<svg id="Layer_1" data-name="Layer 1" xmlns="http://www.w3.org/2000/svg" viewBox="0 0 399 200"><defs><style>.cls-1{fill:#333838;}.cls-2,.cls-3,.cls-4,.cls-6{fill:none;stroke:#222f3c;}.cls-2,.cls-4{stroke-linecap:round;}.cls-2,.cls-4,.cls-6{stroke-linejoin:round;}.cls-2,.cls-3,.cls-6{stroke-width:0.5px;}.cls-3{stroke-miterlimit:10;}.cls-4{stroke-width:0.25px;}.cls-5{fill:#222f3c;}</style></defs><path class="cls-1" d="M175.5645,103.0169c.039.01.1171.1475.1274.1963,0,.1269.0977.8818.0977.9209,0,.1465-.0293.2451-.0879.2451a.3629.3629,0,0,1-.2842-.2353,1.6289,1.6289,0,0,0-.4214-.6954,1.1441,1.1441,0,0,0-.7837-.2744,1.0182,1.0182,0,0,0-.999,1.0186c0,.5781.4311.8916,1.3125,1.45,1.2051.7344,1.44,1.3613,1.44,1.959a1.74,1.74,0,0,1-.8618,1.4394,2.8991,2.8991,0,0,1-1.3716.3535,3.7139,3.7139,0,0,1-1.4106-.2548.8385.8385,0,0,1-.2549-.2842,5.537,5.537,0,0,1-.1665-1.0479c0-.0693.1079-.206.1567-.206.0786,0,.2354.2353.3824.539a1.5611,1.5611,0,0,0,1.3613.9,1.0124,1.0124,0,0,0,1.019-.98c0-.4111-.2055-.8027-1.1069-1.3906-.999-.6562-1.5381-1.1953-1.5381-2.0674a1.69,1.69,0,0,1,.5977-1.2832,2.2645,2.2645,0,0,1,1.5576-.47A6.9966,6.9966,0,0,1,175.5645,103.0169Z"/><path class="cls-1" d="M181.9531,103.0071a6.49,6.49,0,0,0,.7051.1475c.0689,0,.147.1172.147.2647.01.2734.0293.6162.0493.9.01.2061-.0591.3731-.167.3731-.0488,0-.1367-.1182-.186-.2647a1.4779,1.4779,0,0,0-.4112-.6962,2.2671,2.2671,0,0,0-1.45-.5674c-1.5576,0-2.292,1.2343-2.292,2.7226a3.75,3.75,0,0,0,.3331,1.6563,2.4307,2.4307,0,0,0,2.1943,1.459,2.066,2.066,0,0,0,.95-.2247,2.2074,2.2074,0,0,0,.852-.8916c.1177-.2158.1866-.3037.2647-.3037.1079,0,.1079.2549.0786.3623a4.6273,4.6273,0,0,1-.2939.8526.8171.8171,0,0,1-.3531.3135,5.2486,5.2486,0,0,1-1.7138.2841,3.9491,3.9491,0,0,1-2.88-1.1074,3.2284,3.2284,0,0,1-.8228-2.2041,3.11,3.11,0,0,1,1.0777-2.3515,4.1434,4.1434,0,0,1,2.645-.8809A5.5447,5.5447,0,0,1,181.9531,103.0071Z"/><path class="cls-1" d="M185.9917,105.8089c.666,0,1.9595-.0391,2.9878-.0391.0391,0,.0786-.0976.0884-.2451a16.2344,16.2344,0,0,0-.02-1.6553c-.04-.3525-.0883-.45-.48-.5585-.1372-.0391-.2842-.0977-.2842-.1954,0-.0693.0976-.1279.3232-.1279.1275,0,.8521.0293,1.107.0293.3134,0,.9306-.0391,1.0483-.0391.186,0,.3037.0489.3037.127,0,.0986-.0884.1572-.3135.2158-.353.0781-.4116.2354-.4311.52-.0493.46-.0786,1.3418-.0786,2.7334,0,.96.0293,1.4688.039,1.792.01.3819.1079.4121.5.5391.1763.0586.274.127.274.2061,0,.1074-.1368.1367-.3135.1367-.1665,0-.6953-.0293-.9893-.0293-.2153,0-.999.0488-1.1948.0488-.2354,0-.3335-.0488-.3335-.1367s.1274-.167.2646-.2061c.48-.1269.5-.206.5489-.9306.0293-.3916.039-1.3125.02-1.5772,0-.0879-.04-.1269-.0786-.1269-.7837,0-2.792-.0293-2.9878-.01a.1955.1955,0,0,0-.1274.1465c-.02.3623,0,1.4111.01,1.7246.01.46.0689.6074.47.7246.2061.0586.3433.1367.3433.2451.01.0977-.1865.127-.3135.127-.0688,0-.8818-.0293-1.2246-.0293-.2256,0-.7251.039-1.0581.039-.2549,0-.3428-.0488-.3428-.1269,0-.1084.1079-.167.2744-.2158.4307-.1172.5191-.2256.5679-.6368.0391-.3916.0884-1.8515.0884-3.1933,0-.294.0195-.833,0-1.2246-.02-.3233-.1079-.4307-.4312-.5293-.2251-.0684-.333-.1367-.333-.2149,0-.0986.1275-.1377.3038-.1377.2646,0,.8032.0391,1.0581.0391.4111,0,.852-.0293,1.0874-.0293.2055,0,.3232.0391.3232.1279,0,.1075-.1274.1661-.3335.2149-.4111.0889-.44.2744-.45.6758-.02.3525-.0591,1.4892-.03,1.6757C185.8838,105.76,185.9233,105.8089,185.9917,105.8089Z"/><path class="cls-1" d="M198.75,106.0247a3.2335,3.2335,0,0,1-1.2344,2.6641,3.6947,3.6947,0,0,1-2.145.706,3.4522,3.4522,0,0,1-2.5473-1.0488,3.2362,3.2362,0,0,1-.8423-2.2432,3.0682,3.0682,0,0,1,1.2636-2.5468,3.6753,3.6753,0,0,1,2.0865-.7051,3.245,3.245,0,0,1,3.4149,3.0657C198.7479,105.9526,198.7493,105.9886,198.75,106.0247Zm-4.7607-2.332a3.0508,3.0508,0,0,0-.6861,2.1943c0,1.5088.9209,3.1446,2.3511,3.1446a1.4007,1.4007,0,0,0,1-.4014,3.3629,3.3629,0,0,0,.7539-2.3018,3.8089,3.8089,0,0,0-1.0185-2.6064,2.1678,2.1678,0,0,0-1.293-.5283,1.7231,1.7231,0,0,0-1.1079.499Z"/><path class="cls-1" d="M206.57,106.0247a3.2347,3.2347,0,0,1-1.2344,2.6641,3.6979,3.6979,0,0,1-2.1455.706,3.4518,3.4518,0,0,1-2.5468-1.0488,3.2349,3.2349,0,0,1-.8428-2.2432,3.07,3.07,0,0,1,1.2637-2.5468,3.6765,3.6765,0,0,1,2.0869-.7051,3.245,3.245,0,0,1,3.4149,3.0657C206.5679,105.9526,206.5693,105.9886,206.57,106.0247Zm-4.7607-2.332a3.0509,3.0509,0,0,0-.6866,2.1943c0,1.5088.9209,3.1446,2.3516,3.1446a1.3983,1.3983,0,0,0,.999-.4014,3.3629,3.3629,0,0,0,.7539-2.3018,3.8068,3.8068,0,0,0-1.0185-2.6064,2.1678,2.1678,0,0,0-1.293-.5283,1.7216,1.7216,0,0,0-1.1057.499Z"/><path class="cls-1" d="M207.7393,102.9974c.2636,0,.6953.02.98.02.3818,0,1.0576-.0391,1.2929-.0391.2246,0,.3037.0489.3037.1172,0,.0889-.1181.1573-.2158.1866-.5293.1269-.6074.2744-.6172.3916-.0683.49-.0683,1.4794-.0683,2.93,0,.6758.01,1.4786.0488,1.8116.02.2353.3135.373.3525.3828a6.3749,6.3749,0,0,0,.8135.0488,4.0111,4.0111,0,0,0,.7051-.0488.5856.5856,0,0,0,.3037-.1377,3.8722,3.8722,0,0,0,.6172-.7637.3984.3984,0,0,1,.2646-.1963c.0684,0,.0782.1084.0391.2647-.1074.3427-.2549.8818-.3135,1.1562a.4551.4551,0,0,1-.2256.166c-.1465,0-1.0185-.0683-3.0068-.0683-.4708,0-1.1465.0586-1.45.0586-.1768,0-.2939-.0391-.2939-.127,0-.0683.0878-.1572.2451-.1865.539-.0977.6269-.2744.6758-.7051.0195-.2451.0488-1.2734.0488-2.6846,0-.95,0-1.332-.01-1.6552-.01-.333-.0586-.4893-.51-.5977-.1856-.0488-.2735-.1172-.2735-.1855C207.4453,103.0364,207.5625,102.9974,207.7393,102.9974Z"/><path class="cls-2" d="M211.01,146.6037a.6044.6044,0,0,0,.6028-.6059v-2.929a.857.857,0,0,0-.8541-.8579h-6.4026V119.7416a.8569.8569,0,0,0-.8542-.8579H180.3936a.8562.8562,0,0,0-.8535.8579v22.4693h-6.4032a.8562.8562,0,0,0-.8535.8579v2.929a.604.604,0,0,0,.6021.6059h.0007"/><line class="cls-2" x1="191.9481" y1="142.1316" x2="191.9481" y2="119.1073"/><path class="cls-3" d="M194.0715,72.3334a12.6375,12.6375,0,0,0,4.0968-.7869,8.5661,8.5661,0,0,1,2.6193-.5655,4.9218,4.9218,0,0,1,2.6844.8811.6507.6507,0,0,0,.9958-.5512V64.3233a.6492.6492,0,0,0-.353-.5788,3.4963,3.4963,0,0,0-1.6331-.371,11.1327,11.1327,0,0,0-3.0312.6158,13.5222,13.5222,0,0,1-3.8642.7408h0a6.6618,6.6618,0,0,1-3.1916-.8022.6653.6653,0,0,0-.6408.0184.6567.6567,0,0,0-.3136.5573V77.88"/><polyline class="cls-2" points="145.811 104.147 145.811 99.619 191.431 77.578 238.085 99.663 238.085 104.207"/><polyline class="cls-2" points="150.425 146.27 150.425 102.52 191.483 82.684 233.471 102.56 233.471 146.324"/><line class="cls-2" x1="263.5634" y1="146.6641" x2="263.5634" y2="137.8946"/><line class="cls-2" x1="263.5634" y1="146.6641" x2="267.791" y2="146.6641"/><line class="cls-2" x1="259.2004" y1="146.6641" x2="259.2004" y2="137.8946"/><line class="cls-2" x1="259.2004" y1="146.6641" x2="254.9728" y2="146.6641"/><path class="cls-2" d="M273.2615,109.31a16.7938,16.7938,0,0,0-3.7849-2.8409H253.2873a16.8,16.8,0,1,0,19.9742,2.8409Z"/><line class="cls-2" x1="262.1249" y1="121.8595" x2="265.219" y2="124.7337"/><line class="cls-2" x1="259.3204" y1="123.3355" x2="260.6392" y2="122.0167"/><circle class="cls-2" cx="261.4976" cy="121.429" r="0.7"/><circle class="cls-4" cx="261.382" cy="121.1898" r="14"/><path class="cls-2" d="M273.2615,133.0692a8.4282,8.4282,0,0,0,11.9188,0"/><path class="cls-2" d="M286.6648,131.5835a1.05,1.05,0,1,0,.0008.0008Z"/><path class="cls-2" d="M246.7838,129.4714a8.4281,8.4281,0,0,0-11.3341-3.6872"/><path class="cls-2" d="M233.5776,126.7372a1.0573,1.0573,0,1,0,0-.0006Z"/><line class="cls-2" x1="286.6423" y1="131.3405" x2="298.6821" y2="113.051"/><polyline class="cls-2" points="269.845 99.554 278.182 96.8 261.382 91.067 244.582 96.8 252.973 99.554"/><path class="cls-2" d="M269.782,96.8v9.6317h-16.8V96.81c0-.8022,3.7607-1.453,8.4-1.453s8.4.6508,8.4,1.453Z"/><path class="cls-2" d="M244.582,96.8v4.6138"/><path class="cls-5" d="M260.8635,132.2726a.5122.5122,0,0,1,.4618-.5581h0l.0281-.0019h0a.527.527,0,0,1,.5462.4894h0a.5226.5226,0,0,1-.4823.56h-.0358A.5118.5118,0,0,1,260.8635,132.2726Zm-5.1519-1.0259a.53.53,0,0,1-.3363-.6583h0a.5274.5274,0,0,1,.6648-.3381l.0072.0024h0a.5283.5283,0,0,1,.3363.6576h0a.5251.5251,0,0,1-.5038.3644h0A.7267.7267,0,0,1,255.7116,131.2467Zm10.714-.241a.5216.5216,0,0,1,.244-.6961l.0083-.0039h0a.5255.5255,0,0,1,.6993.2508l.0007.0015h0a.5293.5293,0,0,1-.2523.6856h0a.4378.4378,0,0,1-.2235.0561h0A.529.529,0,0,1,266.4256,131.0057Zm-15.1109-4.0694a.5247.5247,0,0,1,.1962-.7136h0a.5418.5418,0,0,1,.7281.21h0a.5417.5417,0,0,1-.21.7137h0a.5663.5663,0,0,1-.2522.07h0A.57.57,0,0,1,251.3147,126.9363Zm19.453.2447a.5113.5113,0,0,1-.2993-.6582l.0054-.0138h0a.5107.5107,0,0,1,.6538-.3069h0l.0325.013h0a.5223.5223,0,0,1,.2939.6719h0a.5271.5271,0,0,1-.49.3357h0A.45.45,0,0,1,270.7677,127.181Zm-20.927-5.9541h0a.5335.5335,0,0,1,.4621-.5886h0a.5412.5412,0,0,1,.5879.4621h0a.54.54,0,0,1-.4621.5879h-.07A.5373.5373,0,0,1,249.8407,121.2269Zm22.229-.0594h0a.5292.5292,0,0,1,.5174-.5325h0a.5327.5327,0,0,1,.5326.5325h0a.5294.5294,0,0,1-.5326.5175h0a.5256.5256,0,0,1-.5171-.5175Zm-20.5022-5.0994a.5168.5168,0,0,1-.1171-.7213l.005-.0068h0a.516.516,0,0,1,.72-.1169l.0076.0055h0a.5047.5047,0,0,1,.1315.7015l-.0194.0265h0a.5126.5126,0,0,1-.42.2236h0A.5175.5175,0,0,1,251.5675,116.0681Zm18.9762-.0971h0a.5332.5332,0,0,1,.1122-.7423h0a.5372.5372,0,0,1,.7417.1257h0a.5209.5209,0,0,1-.1232.7263h0l-.0026.0018h0a.476.476,0,0,1-.3083.0984h0A.5179.5179,0,0,1,270.5437,115.971Zm-15.11-4.0867a.5359.5359,0,0,1,.1538-.7281h0a.5234.5234,0,0,1,.7227.16l.0054.0087h0a.5284.5284,0,0,1-.1682.7273h0a.6294.6294,0,0,1-.28.07h0a.5156.5156,0,0,1-.434-.2379Zm11.2427.1926a.5238.5238,0,0,1-.1731-.72l.0049-.0078h0a.5349.5349,0,0,1,.728-.1538h0a.5366.5366,0,0,1,.1682.7281h0a.56.56,0,0,1-.4484.2378h0a.505.505,0,0,1-.28-.084Zm-5.3645-1.34a.5234.5234,0,0,1-.4213-.6088v0l.0013-.007h0a.5264.5264,0,0,1,.6144-.42h.0015a.5452.5452,0,0,1,.42.6159h0a.54.54,0,0,1-.5319.42Z"/><path class="cls-6" d="M259.3479,115.7936a1.93,1.93,0,0,1-3.8057,0"/><path class="cls-6" d="M267.5373,115.7936a1.93,1.93,0,0,1-3.8057,0"/><line class="cls-2" x1="136.2984" y1="146.6641" x2="317.4467" y2="146.6641"/><polygon class="cls-3" points="99.061 152.222 99.061 159.334 103 159.334 103.463 152.222 99.061 152.222"/><polygon class="cls-3" points="88.241 152.222 88.703 159.334 92.642 159.334 92.642 152.222 88.241 152.222"/><path class="cls-3" d="M107.2989,110.8275c-.431-.1075-.8484-.2232-1.2067-.3482-3.6021-1.2564-5.7535-3.11-6.7228-5.1918-1.9755,2.7633-6.4706,4.6943-11.7057,4.6943a27.6273,27.6273,0,0,1-3.0143-.1784,10.72,10.72,0,0,0-.4322,3.0092,11.6451,11.6451,0,0,0,23.2692,0A10.7587,10.7587,0,0,0,107.2989,110.8275Z"/><path class="cls-3" d="M99.0614,159.3344h4.37a1.6477,1.6477,0,0,1,1.6478,1.6476v.6593H99.0614Z"/><path class="cls-3" d="M92.6422,161.6413H86.6243v-.6591a1.648,1.648,0,0,1,1.6478-1.6478h4.37v2.3069Z"/><polyline class="cls-3" points="95.834 146.954 95.834 152.222 104.678 152.222 104.678 139.426 87.026 139.426 87.026 152.222 95.87 152.222 95.87 147.012"/><path class="cls-3" d="M84.2172,112.8126c0-.1258.0055-.25.01-.3752a2.1122,2.1122,0,0,0,.1907,4.22h.51"/><path class="cls-3" d="M106.776,116.6574h.51a2.1122,2.1122,0,0,0,.1907-4.22h0c.0044.1248.01.2494.01.3752"/><path class="cls-3" d="M102.6721,113.6777a1.305,1.305,0,0,1-2.6077,0"/><path class="cls-3" d="M91.6393,113.6777a1.3051,1.3051,0,0,1-2.6078,0"/><path class="cls-3" d="M93.6453,119.0027a2.2085,2.2085,0,0,0,4.4131,0"/><path class="cls-3" d="M109.3512,128.9669a12.2406,12.2406,0,0,0-6.1532-5.8626,3.2664,3.2664,0,0,0-1.1909-.4408,2.0511,2.0511,0,0,0-.4271-.0467c-.0211,0-.0418.0017-.0627.0024-.0164,0-.0323-.0024-.0488-.0024h-.0711a12.0993,12.0993,0,0,1-11.0912,0h-.0711c-.0165,0-.0324.0021-.0488.0024-.0209-.0007-.0416-.0024-.0626-.0024a2.0528,2.0528,0,0,0-.4272.0467,3.2683,3.2683,0,0,0-1.1909.4408,12.2406,12.2406,0,0,0-6.1532,5.8626c-.1035.2127-.1982.4279-.2883.6441l3.932.8763a8.2972,8.2972,0,0,1,1.0294-1.5738v10.522h17.6526v-10.522a8.2923,8.2923,0,0,1,1.0294,1.5738l3.932-.8763C109.55,129.3948,109.4547,129.18,109.3512,128.9669Z"/><path class="cls-3" d="M95.8518,97.2413a12.7839,12.7839,0,0,0-13.0334,12.2921c-.0012.068-.0054.1352-.0054.2034a12.0253,12.0253,0,0,0,.3908,3.041,2.2581,2.2581,0,0,1,1.0233-.3411,10.7068,10.7068,0,0,1,.4224-2.6333,27.6505,27.6505,0,0,0,3.0142.1784c5.2351,0,9.73-1.931,11.7056-4.6943.9694,2.0823,3.1208,3.9354,6.7229,5.1918.3584.125.7757.2407,1.2067.3482a10.737,10.737,0,0,1,.1776,1.6092,2.2585,2.2585,0,0,1,1.0233.3411,12.1741,12.1741,0,0,0,.3908-3.041A12.7759,12.7759,0,0,0,95.8518,97.2413Z"/><path class="cls-3" d="M106.6882,136.3219a2.2724,2.2724,0,0,1,.9788-.2216,2.2181,2.2181,0,0,1,1.9591,1.1442,11.1344,11.1344,0,0,0-.421-7.5367l-3.056.6811A8.3164,8.3164,0,0,1,106.6882,136.3219Z"/><ellipse class="cls-3" cx="107.667" cy="138.215" rx="2.2066" ry="2.1146"/><path class="cls-3" d="M79.9857,135.2115a8.67,8.67,0,0,0,2.4808-5.5294l3.0525.6956a11.3531,11.3531,0,0,1-3.1282,6.9265"/><path class="cls-3" d="M74.7306,110.55c-3.6021-1.2564-5.7535-3.1095-6.7228-5.1918-1.9754,2.7633-6.4705,4.6944-11.7057,4.6944a17.342,17.342,0,0,1-2.9658-.3419,10.7152,10.7152,0,0,0-.4807,3.1727,11.6452,11.6452,0,0,0,23.2693,0,10.7518,10.7518,0,0,0-.1923-2.01A11.4492,11.4492,0,0,1,74.7306,110.55Z"/><path class="cls-3" d="M67.7,159.3344h4.37a1.6478,1.6478,0,0,1,1.6478,1.6478v.6591H67.7Z"/><path class="cls-3" d="M61.2806,161.6413H55.2627v-.6591a1.648,1.648,0,0,1,1.6478-1.6478h4.37v2.3069Z"/><polygon class="cls-3" points="67.7 152.306 67.7 159.334 71.639 159.334 72.096 152.306 67.7 152.306"/><polygon class="cls-3" points="56.881 152.259 57.342 159.334 61.281 159.334 61.281 152.259 56.881 152.259"/><polygon class="cls-3" points="55.664 139.471 54.772 152.235 74.208 152.235 73.316 139.471 55.664 139.471"/><path class="cls-3" d="M70.0358,122.6878h.0711c.0165,0,.0324.0022.0488.0024.0209-.0006.0417-.0024.0626-.0024a2.053,2.053,0,0,1,.4273.0467,3.27,3.27,0,0,1,1.1908.4408,12.5559,12.5559,0,0,1,3.27,2.0786,25.7074,25.7074,0,0,0,2.5526-9.336,2.236,2.236,0,0,1-1.7347.81h-.5108"/><path class="cls-3" d="M53.567,116.7284h-.5108a2.2354,2.2354,0,0,1-1.7372-.8138,25.7207,25.7207,0,0,0,2.5552,9.3393,12.5559,12.5559,0,0,1,3.27-2.0786,3.2712,3.2712,0,0,1,1.191-.4408,2.0511,2.0511,0,0,1,.4271-.0467c.021,0,.0417.0018.0626.0024.0164,0,.0324-.0024.0488-.0024h.0711"/><path class="cls-3" d="M52.8556,112.8837c0-.1259.0056-.2505.01-.3753a2.1122,2.1122,0,0,0,.1907,4.22h.51"/><path class="cls-3" d="M75.4144,116.7284h.51a2.1122,2.1122,0,0,0,.1907-4.22h0c.0043.1248.01.2494.01.3753"/><path class="cls-3" d="M71.3105,114.9983a1.305,1.305,0,0,0-2.6077,0"/><path class="cls-3" d="M60.2777,114.9983a1.3051,1.3051,0,0,0-2.6078,0"/><path class="cls-3" d="M62.2836,119.0738a2.2086,2.2086,0,0,0,4.4132,0"/><path class="cls-3" d="M56.3021,110.0536c5.2352,0,9.73-1.9311,11.7057-4.6944.9693,2.0823,3.1207,3.9354,6.7228,5.1918a11.4482,11.4482,0,0,0,1.202.3232,10.8559,10.8559,0,0,1,.1831,1.6349,2.2138,2.2138,0,0,1,1.729,1.0662c.0434-.8043.0671-1.5752.0776-2.2926.0055-.3781.0079-.7429.0079-1.09,0-7.1138-6.0172-12.88-13.44-12.88A13.2165,13.2165,0,0,0,51.0891,109.26c-.023.3084-.0389.6187-.0389.9327,0,1.0058.0181,2.1539.0847,3.3837a2.2134,2.2134,0,0,1,1.7279-1.0675,10.72,10.72,0,0,1,.4735-2.7975"/><path class="cls-3" d="M52.6751,136.1714a2.2723,2.2723,0,0,1,.9788.2215,8.3161,8.3161,0,0,1,.5391-5.9329l-3.056-.6811a11.1329,11.1329,0,0,0-.421,7.5366A2.2178,2.2178,0,0,1,52.6751,136.1714Z"/><ellipse class="cls-3" cx="52.6751" cy="138.286" rx="2.2066" ry="2.1146"/><path class="cls-3" d="M77.99,129.0379a12.2406,12.2406,0,0,0-6.1532-5.8626,3.27,3.27,0,0,0-1.1908-.4408,2.053,2.053,0,0,0-.4273-.0467c-.0209,0-.0417.0018-.0626.0024-.0164,0-.0323-.0024-.0488-.0024h-.0711a12.0993,12.0993,0,0,1-11.0912,0h-.0711c-.0164,0-.0324.0022-.0488.0024-.0209-.0006-.0416-.0024-.0626-.0024a2.0511,2.0511,0,0,0-.4271.0467,3.2712,3.2712,0,0,0-1.191.4408,12.241,12.241,0,0,0-6.1532,5.8626c-.1035.2128-.1982.4279-.2883.6442l3.932.8763a8.2856,8.2856,0,0,1,1.0295-1.5739v10.56H73.3165v-10.56a8.29,8.29,0,0,1,1.0294,1.5739l3.932-.8763C78.1879,129.4658,78.0932,129.2507,77.99,129.0379Z"/><path class="cls-3" d="M79.2128,135.5523a3.26,3.26,0,0,1,1.1835-.2317,8.67,8.67,0,0,1-2.4808-5.5294l-3.0525.6955a11.3533,11.3533,0,0,0,3.1282,6.9266A2.1069,2.1069,0,0,1,79.2128,135.5523Z"/><ellipse class="cls-3" cx="80.1963" cy="137.4453" rx="2.2066" ry="2.1146"/><line class="cls-2" x1="24.1434" y1="161.8992" x2="150.1986" y2="161.8992"/><path class="cls-1" d="M287.7246,58.5a1.6319,1.6319,0,0,1,1.37-1.5088c.0772,0,.1387,0,.1387.0772,0,.0307-.0772.0766-.1689.1074-.462.2466-.8008.5542-.8008,1.0469,0,.3237.1533.5083.5693.6162a.3218.3218,0,0,1,.3076.3232.4439.4439,0,0,1-.4619.4.9948.9948,0,0,1-.9556-1.0327v0Zm1.9092,0a1.6712,1.6712,0,0,1,1.3857-1.5088c.0772,0,.1387.0308.1387.0772,0,.0307-.0615.0766-.1543.1074-.4619.2466-.8154.57-.8154,1.0469,0,.3237.169.5083.5849.6162a.3327.3327,0,0,1,.3077.3232.4723.4723,0,0,1-.4776.4,1.0072,1.0072,0,0,1-.9706-1.0425l.0009-.02Z"/><path class="cls-1" d="M292.2676,57.6536c.3691,0,1.001.0615,1.4629.0615.3388,0,.708-.0307,1.0312-.0307.2158,0,.3076.0459.3076.1079,0,.0767-.0918.123-.2763.1538-.4317.0772-.4317.2617-.3233.5386.6465,1.6015,2.1709,4.8808,3.2178,7.19.0459.1074.1074.0767.1533,0,.4317-.8779.8008-1.6475,1.2168-2.6328a.4338.4338,0,0,0,.03-.1851c-.2461-.5849-1.2774-2.9253-1.6163-3.664-.4462-.9546-.5694-1.1392-1.047-1.2627-.246-.0459-.3232-.1074-.3232-.1846,0-.0464.0918-.0923.292-.0923.4472,0,.7392.0615,1.2939.0615s.9082-.0615,1.2617-.0615c.1543,0,.2617.0308.2617.0923,0,.0772-.0918.1231-.292.1694-.416.0767-.5693.2618-.3388.8311.2461.647.708,1.6938,1.2168,2.8638.0146.0307.0761.0464.123-.0308.3692-.7544.6924-1.4624,1.0156-2.2168.4776-1.124.462-1.2778-.2-1.4321-.2774-.0615-.3233-.1231-.3233-.1846,0-.0464.0928-.0771.2774-.0771.3847,0,.6308.0463,1.0312.0463.5391,0,.7852-.0615,1.14-.0615.1845,0,.2617.0152.2617.0767,0,.0771-.0772.1235-.293.1694-.5693.1236-.8623.4468-1.37,1.34-.4.77-1.1543,2.2939-1.416,2.771a.2651.2651,0,0,0,.0156.185c.3848.9082,1.0615,2.3706,1.585,3.5254.0615.1079.1084.0772.1386,0,.7393-1.6011,2.6026-5.9121,2.9258-7.0513.0772-.3388.0615-.6-.4463-.7544-.2471-.0771-.3388-.1079-.3388-.1694s.0459-.0923.2617-.0923c.4,0,.6152.0615,1.0771.0615.4317,0,.8467-.0615,1.124-.0615.2,0,.2774.0152.2774.0767s-.0772.1235-.3545.1694c-.6465.1695-.9238.4927-1.8936,2.6792-.97,2.1245-2.2168,5.0342-2.9248,6.728-.1084.2618-.1543.354-.2314.354-.1074,0-.169-.1079-.2617-.354-.3233-.9394-1.2-2.8481-1.6475-3.8335-.03-.062-.0771-.062-.1074-.0156-.585,1.1392-1.4014,2.9409-1.74,3.8335-.0918.2466-.1846.37-.2461.37-.0918,0-.1231-.0922-.2305-.37-.2-.5078-.6777-1.6318-.8779-2.0937-.8467-1.9551-1.878-4.2339-2.6016-5.7427-.5546-1.2007-.6777-1.478-1.2627-1.5552-.1846-.0151-.3232-.0766-.3232-.1387C291.96,57.7151,292.0674,57.6536,292.2676,57.6536Z"/><path class="cls-1" d="M309.7148,63.2425a.1807.1807,0,0,1-.1543.1689c-.123-.0151-2.125-.0459-2.4785-.0459h-.831c-.0313,0-.1084.0772-.1387.1231a2.1112,2.1112,0,0,0-.124.8467,2.761,2.761,0,0,0,.7091,1.8632,2.0771,2.0771,0,0,0,1.5391.6309,1.9627,1.9627,0,0,0,1.4627-.4927c.1232-.123.1847-.0923.1847-.0151a.587.587,0,0,1-.1532.2461,2.7224,2.7224,0,0,1-2.1407.97,2.4851,2.4851,0,0,1-1.832-.7852,3.0094,3.0094,0,0,1-.7392-2.0629,3.2094,3.2094,0,0,1,.8935-2.2481,2.8622,2.8622,0,0,1,1.9238-.77A1.7767,1.7767,0,0,1,309.7148,63.2425Zm-3.1406-.7852a1.3453,1.3453,0,0,0-.3232.6309.0657.0657,0,0,0,.0615.0615l2.001-.0151c.3388,0,.3691-.1695.3691-.3081a.9917.9917,0,0,0-.2148-.6465,1.08,1.08,0,0,0-.7705-.2925,1.5956,1.5956,0,0,0-1.1231.57Z"/><path class="cls-1" d="M312.9961,62.2723c0-.0459.0615-.0767.1846-.1079a3.0558,3.0558,0,0,0,1.0468-.4619.4454.4454,0,0,1,.2305-.0923c.0469,0,.0772.0615.0772.1543,0,.1689-.0157.6,0,.7544,0,.0615.0156.1381.0771.0922a3.2376,3.2376,0,0,1,1.9092-.893,1.5758,1.5758,0,0,1,1.539.97.103.103,0,0,0,.1084.0313,3.0871,3.0871,0,0,1,2.1094-1.0474,1.5871,1.5871,0,0,1,1.5547,1.14,5.026,5.026,0,0,1,.1846,1.4473c.0156.5078.0469,1.6782.0615,2.2168.0156.5083.1084.6157.4463.6777.2158.0459.2773.0923.2773.1382,0,.0772-.0771.1079-.2617.1079-.1689,0-.708-.0307-1.0625-.0307-.3691,0-.708.0464-.9385.0464-.2,0-.3086-.0308-.3086-.0928,0-.0767.1387-.1231.2618-.1538.4472-.0923.5234-.231.5234-.6929a19.5341,19.5341,0,0,0-.1074-3.0483,1.1923,1.1923,0,0,0-1.2252-1.1586h0c-.0225.0006-.0451.0019-.0676.0038a1.9231,1.9231,0,0,0-1.3086.57.7531.7531,0,0,0-.1084.4927c.0315.4311.0774,2.7866.1084,3.2021.0459.4312.0918.5391.4766.6314.17.0615.247.0771.247.1386s-.0927.0923-.2615.0923c-.2775,0-.7392-.0307-1.1855-.0307-.3389,0-.709.0307-.8779.0307s-.2461-.0307-.2461-.0923c0-.0463.0771-.1079.2773-.1538.3232-.062.4766-.1386.4766-.5083l.0156-2.4633c0-.8467-.0772-1.2007-.3848-1.54a1.1769,1.1769,0,0,0-.9394-.3389,1.7415,1.7415,0,0,0-1.1543.4468.5575.5575,0,0,0-.1846.3692,9.4462,9.4462,0,0,0-.0615,1.0473c0,1.1392.0615,2.2168.0918,2.4942a.5254.5254,0,0,0,.4931.5078c.169.0307.23.0771.23.123,0,.0772-.123.1079-.23.1079-.2929,0-.8007-.0307-1.17-.0307-.4775,0-.8008.0307-1.001.0307-.1386,0-.2773-.0464-.2773-.1079s.0928-.1074.3075-.1382c.4776-.1079.4776-.2773.5087-.4619.0615-.3237.0615-1.5708.0615-2.4634,0-.57.0147-.9545-.0156-1.247a.5814.5814,0,0,0-.3544-.5391c-.1073-.0615-.1387-.0923-.1387-.1694Z"/><path class="cls-1" d="M323.76,62.1185a7.6481,7.6481,0,0,0,1.1084-.4A.6236.6236,0,0,1,325.1,61.61c.0459,0,.0762.0464.0615.2158-.0312.3076-.0312,1.2471-.0312,2.2324,0,1.293,0,2.4326.0312,2.6943.03.3077.1846.3848.4307.4463.1543.0308.2314.0616.2314.1231,0,.0771-.124.1079-.247.1079-.1387,0-.708-.0615-1.1241-.0615-.5078,0-.7539.0307-.9228.0307-.1084,0-.2158-.0307-.2158-.0923s.0771-.1079.292-.1386c.3388-.0923.4775-.2154.4931-.8467.0157-.4619.0459-3.2642.0459-3.418,0-.2158-.0156-.3081-.4463-.539-.0771-.0459-.123-.0923-.123-.1231C323.5752,62.1956,323.6211,62.1492,323.76,62.1185Zm1.54-2.51a.5865.5865,0,0,1-.57.585.5478.5478,0,0,1-.5078-.5694.5706.5706,0,0,1,.5389-.6006h0a.5636.5636,0,0,1,.5388.5852Z"/><path class="cls-1" d="M327.6709,62.8572c0,.647.585,1.0162.9707,1.2471,1,.647,1.4,1.0317,1.4,1.8169a1.58,1.58,0,0,1-.8008,1.2935,2.5545,2.5545,0,0,1-1.2314.3383,3.1334,3.1334,0,0,1-1.2159-.2768c-.123-.0464-.2315-.1538-.2315-.2466,0-.2153-.03-.6-.0459-.77-.0311-.2.0155-.2466.0459-.2466.0469,0,.0928,0,.2.2925a1.5008,1.5008,0,0,0,.6465.8315,1.18,1.18,0,0,0,.6933.1846,1.0556,1.0556,0,0,0,1.001-1.0313c0-.5849-.4-.9087-1.0166-1.2934-.6621-.4312-1.2783-1-1.2783-1.6782a1.4609,1.4609,0,0,1,.5859-1.2164,1.9881,1.9881,0,0,1,1.293-.4311,3.7645,3.7645,0,0,1,1.0469.1694.2534.2534,0,0,1,.0771.1387c.0156.1694.0772.4775.0918.7236,0,.1695-.03.2466-.0762.2466-.0625,0-.0927-.0771-.1386-.185a1.17,1.17,0,0,0-.37-.6314,1.2633,1.2633,0,0,0-.7237-.231.8973.8973,0,0,0-.9248.8689v0Q327.6681,62.8142,327.6709,62.8572Z"/><path class="cls-1" d="M332.0439,62.8572c0,.647.585,1.0162.9707,1.2471,1,.647,1.4,1.0317,1.4,1.8169a1.58,1.58,0,0,1-.8007,1.2935,2.5549,2.5549,0,0,1-1.2315.3383,3.1356,3.1356,0,0,1-1.2158-.2768c-.1231-.0464-.2315-.1538-.2315-.2466,0-.2153-.03-.6-.0459-.77-.0312-.2.0157-.2466.0459-.2466.0469,0,.0928,0,.2.2925a1.5032,1.5032,0,0,0,.6465.8315,1.18,1.18,0,0,0,.6934.1846,1.0556,1.0556,0,0,0,1.001-1.0313c0-.5849-.4-.9087-1.0166-1.2934-.6621-.4312-1.2784-1-1.2784-1.6782a1.461,1.461,0,0,1,.586-1.2164,1.9879,1.9879,0,0,1,1.2929-.4311,3.7639,3.7639,0,0,1,1.0469.1694.2531.2531,0,0,1,.0773.1387c.0155.1694.077.4775.0917.7236,0,.1695-.03.2466-.0762.2466-.0625,0-.0928-.0771-.1387-.185a1.1681,1.1681,0,0,0-.37-.6314,1.2627,1.2627,0,0,0-.7236-.231.8977.8977,0,0,0-.9249.8691C332.0416,62.8,332.0421,62.8286,332.0439,62.8572Z"/><path class="cls-1" d="M338.2969,66.7986a1.7312,1.7312,0,0,1-.1846-.8774v-3.187c0-.1694-.0156-.2769-.0771-.3081a2.5232,2.5232,0,0,0-.3692-.0923c-.123-.0308-.2-.0767-.2-.1382,0-.0312.0156-.0771.1846-.1543a3.2834,3.2834,0,0,0,1.2627-1.0312c.1387-.1543.2461-.1236.2461-.0464,0,.1387-.03.57-.0147.7544,0,.0464.0147.1387.0762.1387.2773,0,1.5557-.0464,1.8789-.0464.03,0,.0918.1079.0918.2158,0,.2617-.0762.3847-.1533.3847-.5391,0-1.294-.0156-1.709-.0156-.1846,0-.2158.0464-.2158.1387,0,.2617.0156,2.6792.0312,3.1562a1.58,1.58,0,0,0,.169.8316,1.1377,1.1377,0,0,0,.9541.4155,1.5092,1.5092,0,0,0,.8476-.2309c.1075-.0772.1534-.0616.1534,0,0,.0922-.1387.2465-.3389.4a2.1105,2.1105,0,0,1-1.2471.4A1.4268,1.4268,0,0,1,338.2969,66.7986Z"/><path class="cls-1" d="M343.44,62.7806a.7725.7725,0,0,0-.1543.5693,30.3744,30.3744,0,0,0,.0772,3.3106.5437.5437,0,0,0,.4922.5234c.2314.0459.3388.0767.3388.1538,0,.0464-.0918.0923-.23.0923-.4317,0-.8321-.0615-1.2784-.0615-.4775,0-.708.0615-1.0009.0615-.169,0-.2461-.0308-.2461-.0923s.0615-.0923.2461-.1387c.4472-.1079.5547-.1538.57-.7387.0459-.6162.0615-2.0323.0615-4.4805,0-2.3247.03-3.2642,0-3.8491-.0156-.4927-.123-.5386-.4619-.7237-.0615-.0459-.1084-.0766-.1084-.123s.0928-.0923.2617-.1387a6.3378,6.3378,0,0,0,1.124-.37.3385.3385,0,0,1,.1543-.0615c.0459,0,.0928.1079.0772.3237-.0156.4155-.0772,5.1885-.0615,5.481,0,.0615.0459.0766.0615.0459a5.0513,5.0513,0,0,1,.9238-.6314,2.42,2.42,0,0,1,1.0772-.2617,1.6389,1.6389,0,0,1,1.3857.6929,2.9706,2.9706,0,0,1,.3389,1.6474c.0156,1.1548.0156,2.1094.0312,2.6944,0,.3081.0615.416.5235.4926.2.0464.246.0772.246.1387s-.1074.1079-.246.1079c-.4,0-.6934-.0771-1.1084-.0771-.5235,0-.6475.0615-1.001.0615-.1846,0-.2461-.0459-.2461-.0923,0-.0615.0762-.0923.2305-.123.416-.0923.4462-.2.5078-.647.0312-.354.0615-1.0313.0615-2.6323a2.4675,2.4675,0,0,0-.2305-1.1548,1.1525,1.1525,0,0,0-1.0625-.57A1.8585,1.8585,0,0,0,343.44,62.7806Z"/><path class="cls-1" d="M353.28,63.2425a.1809.1809,0,0,1-.1543.1689c-.1231-.0151-2.125-.0459-2.4785-.0459h-.8311c-.0312,0-.1084.0772-.1387.1231a2.1178,2.1178,0,0,0-.123.8467,2.76,2.76,0,0,0,.7081,1.8632,2.0771,2.0771,0,0,0,1.539.6309,1.9628,1.9628,0,0,0,1.4628-.4927c.1232-.123.1846-.0923.1846-.0151a.585.585,0,0,1-.1532.2461,2.7224,2.7224,0,0,1-2.1405.97,2.4859,2.4859,0,0,1-1.8321-.7852,3.0094,3.0094,0,0,1-.7392-2.0629,3.2094,3.2094,0,0,1,.8935-2.2481,2.8626,2.8626,0,0,1,1.9238-.77A1.7768,1.7768,0,0,1,353.28,63.2425Zm-3.1407-.7852a1.3444,1.3444,0,0,0-.3232.6309.0657.0657,0,0,0,.0615.0615l2.001-.0151c.3389,0,.3691-.1695.3691-.3081a.9917.9917,0,0,0-.2148-.6465,1.08,1.08,0,0,0-.77-.2925,1.5958,1.5958,0,0,0-1.1224.57Z"/><path class="cls-1" d="M354.2061,62.2723c0-.0459.0615-.0767.1845-.1079a3.0571,3.0571,0,0,0,1.0469-.4619.4454.4454,0,0,1,.2305-.0923c.0468,0,.0771.0615.0771.1543,0,.1689-.0156.6,0,.7544,0,.0615.0156.1381.0772.0922a3.2371,3.2371,0,0,1,1.9091-.893,1.576,1.576,0,0,1,1.5391.97.103.103,0,0,0,.1084.0313,3.0871,3.0871,0,0,1,2.1094-1.0474,1.5872,1.5872,0,0,1,1.5547,1.14,5.0294,5.0294,0,0,1,.1845,1.4473c.0157.5078.0469,1.6782.0616,2.2168.0156.5083.1084.6157.4463.6777.2158.0459.2773.0923.2773.1382,0,.0772-.0772.1079-.2617.1079-.169,0-.708-.0307-1.0625-.0307-.3692,0-.708.0464-.9385.0464-.2,0-.3086-.0308-.3086-.0928,0-.0767.1387-.1231.2617-.1538.4473-.0923.5235-.231.5235-.6929a19.5341,19.5341,0,0,0-.1075-3.0483,1.1924,1.1924,0,0,0-1.2253-1.1586h0c-.0226.0006-.0452.0019-.0676.0038a1.9227,1.9227,0,0,0-1.3086.57.7517.7517,0,0,0-.1084.4927c.0312.4311.0771,2.7866.1084,3.2021.0459.4312.0918.5391.4765.6314.17.0615.2471.0771.2471.1386s-.0928.0923-.2617.0923c-.2774,0-.7393-.0307-1.1856-.0307-.3388,0-.708.0307-.8779.0307s-.2461-.0307-.2461-.0923c0-.0463.0772-.1079.2774-.1538.3232-.062.4765-.1386.4765-.5083l.0157-2.4633c0-.8467-.0772-1.2007-.3848-1.54a1.1766,1.1766,0,0,0-.94-.3389,1.742,1.742,0,0,0-1.1543.4468.5574.5574,0,0,0-.1845.3692,9.3981,9.3981,0,0,0-.0616,1.0473c0,1.1392.0616,2.2168.0918,2.4942a.5256.5256,0,0,0,.4932.5078c.169.0307.2305.0771.2305.123,0,.0772-.1232.1079-.2305.1079-.293,0-.8009-.0307-1.1709-.0307-.4766,0-.8.0307-1,.0307-.1387,0-.2774-.0464-.2774-.1079s.0928-.1074.3075-.1382c.4775-.1079.4775-.2773.5088-.4619.0615-.3237.0615-1.5708.0615-2.4634,0-.57.0146-.9545-.0156-1.247a.5818.5818,0,0,0-.3545-.5391c-.1074-.0615-.1387-.0923-.1387-.1694Z"/><path class="cls-1" d="M298.334,79.2571a3.7334,3.7334,0,0,1,.2148,1.4009c0,.57-.0459,2.0322-.0459,2.4326a.5275.5275,0,0,0,.4645.5836.5329.5329,0,0,0,.1049.0014.9845.9845,0,0,0,.4472-.1387c.0918-.0459.1534,0,.0918.1387a1.2965,1.2965,0,0,1-1.1855.6621,1.0343,1.0343,0,0,1-.9082-.6929.054.054,0,0,0-.0745-.0173h0l-.0026.0017a2.1543,2.1543,0,0,1-1.5088.6929A1.2774,1.2774,0,0,1,294.7,83.0006v-.0022a1.0881,1.0881,0,0,1,.5537-.878c.37-.2,1.7715-.6157,2.0947-.7387a.2919.2919,0,0,0,.2-.231,5.2721,5.2721,0,0,0,.03-.7085c0-.6309-.1074-1.062-.3691-1.2622a1.1756,1.1756,0,0,0-.6465-.2466,1.0591,1.0591,0,0,0-.6162.1851.62.62,0,0,0-.2315.3691,1.679,1.679,0,0,0-.0146.293.1924.1924,0,0,1-.0616.123,3.3316,3.3316,0,0,1-.7236.3389c-.0771.0151-.1543-.0772-.1543-.1387,0-.1079.1074-.2466.293-.4619a3.9822,3.9822,0,0,1,1.17-.8931,2.0671,2.0671,0,0,1,.9238-.2773A1.2628,1.2628,0,0,1,298.334,79.2571Zm-1.0322,4.2339a.6407.6407,0,0,0,.17-.37,11.07,11.07,0,0,0,.0771-1.4629c0-.0151-.0312-.0923-.0625-.0767a8.71,8.71,0,0,0-1.416.5235.797.797,0,0,0-.3848.7695.8943.8943,0,0,0,.9239.8623A1.0548,1.0548,0,0,0,297.3018,83.491Z"/><path class="cls-1" d="M301.999,79.5955a.8875.8875,0,0,0-.2617.5391,9.0212,9.0212,0,0,0-.0156.9389c0,1.14.0312,1.94.0615,2.2632.0615.4776.2471.5855.832.647.2149.0308.292.0615.292.1382s-.1386.1079-.3691.1079c-.293,0-.8008-.0615-1.4473-.0615a8.3324,8.3324,0,0,0-.9394.0923c-.1846,0-.2618-.0308-.2618-.0923,0-.0464.1084-.1231.2315-.1538a.6364.6364,0,0,0,.5537-.6314c.0313-.2617.0469-1.1391.0469-2.1553V79.5189c0-.108-.1084-.1543-.4-.4-.1084-.0772-.1231-.1231-.1231-.1543s.0918-.0923.2305-.1382a4.6811,4.6811,0,0,0,.9854-.37.4855.4855,0,0,1,.2314-.0772c.03,0,.0615.0615.0615.2158,0,.1695-.0156.7544-.0156,1.0005,0,.0464.03.0615.0772.0156a2.5126,2.5126,0,0,1,1.6622-1.1088.8966.8966,0,0,1,.539.2.27.27,0,0,1,.1084.2158,1.0559,1.0559,0,0,1-.3389.5234c-.1387.1231-.2.1387-.2471.1387a.6972.6972,0,0,1-.2764-.1079,1.08,1.08,0,0,0-.539-.1846A1.0517,1.0517,0,0,0,301.999,79.5955Z"/><path class="cls-1" d="M310.2988,81.3817a2.9568,2.9568,0,1,1-4.8037-2.2632,3.1638,3.1638,0,0,1,1.8477-.647,2.8893,2.8893,0,0,1,2.9553,2.8215C310.2988,81.3226,310.299,81.3521,310.2988,81.3817Zm-4.8037-.2159a3.5219,3.5219,0,0,0,.6475,2.1094,1.828,1.828,0,0,0,1.4472.8159,1.5229,1.5229,0,0,0,.97-.3847,3.0688,3.0688,0,0,0,.6465-2.063c0-1.4629-.7393-2.91-2.0938-2.91C306.3271,78.7332,305.4951,79.5648,305.4951,81.1658Z"/><path class="cls-1" d="M312.0557,83.7527a1.6138,1.6138,0,0,1-.293-.9394c0-.5078,0-3.11-.03-3.3716a.5992.5992,0,0,0-.3388-.5083c-.1387-.0923-.1846-.1382-.1846-.1846s.0771-.0771.2461-.0771a5.395,5.395,0,0,0,1.2929-.2c.0469-.0151.0928.0771.0772.1694-.0459.878-.0615,2.9717-.0459,3.68a1.7077,1.7077,0,0,0,.2305,1.0161,1.1314,1.1314,0,0,0,.8623.3853,1.7255,1.7255,0,0,0,1.3086-.4927.943.943,0,0,0,.2773-.7085c.0313-.4155.0313-1.0161.0313-1.57,0-.231-.0157-.9546-.0157-1.355-.0156-.5234-.1689-.6-.6777-.708-.1689-.0307-.2461-.0771-.2461-.123,0-.062.1387-.0928.2315-.0928h.6466a8.1671,8.1671,0,0,0,1.0625-.0923c.0459,0,.0762.0615.0616.1694-.0772.7237-.1084,2.2632-.1084,4.0494a5.0723,5.0723,0,0,0,.0312.7851c.03.1538.0772.1846.2.1694a4.29,4.29,0,0,1,.6309-.1386.1852.1852,0,0,1,.1845.1694c0,.0615-.1386.0923-.292.1231a6.9516,6.9516,0,0,0-1.5859.4155c-.123.0615-.1543.0464-.1846,0s-.0312-.1231-.0312-.2925c0-.1538.0156-.4927.0156-.6006,0-.0459-.0156-.1538-.0459-.1074a4.4328,4.4328,0,0,1-1.0625.7544,2.64,2.64,0,0,1-.9082.2309A1.5137,1.5137,0,0,1,312.0557,83.7527Z"/><path class="cls-1" d="M322.7891,78.9954a3.2174,3.2174,0,0,1,.4921,2.0166c0,.8159.0157.9395.0157,1.709.0156,1.0469.0615,1.1392.4775,1.2471.1387.0615.2305.0923.2305.1538,0,.0928-.1231.1079-.2774.1079-.2,0-.6464-.0615-.9853-.0615-.5234,0-.7236.0615-.9541.0615-.1387,0-.2461-.0308-.2461-.0923s.0918-.123.292-.1694c.37-.0923.4316-.2.4316-.6465V81.2278c0-1.247-.1084-1.6167-.4931-1.9091a1.366,1.366,0,0,0-.878-.2925,1.841,1.841,0,0,0-1.2.4927.7918.7918,0,0,0-.1845.4619c0,.1845.0146.97.0146,1.8935a12.5157,12.5157,0,0,0,.0928,1.6167c.0459.3384.23.4156.4775.4927.1846.0459.2617.0767.2617.1538,0,.0923-.1543.0923-.3085.0923-.1231,0-.877-.0615-1.2315-.0615-.2,0-.5234.0307-.8154.0307-.17,0-.293-.0307-.293-.1079,0-.0615.1387-.123.3232-.1538.3848-.0771.4463-.1846.462-.4927.0312-1.1084.0312-2.5249.0312-3.7719,0-.1538-.0312-.3233-.4-.5235-.0928-.0615-.123-.0923-.123-.1386,0-.0308.0761-.0772.2148-.1231a5.7885,5.7885,0,0,0,1.2168-.5234c.0459-.0157.1231.0459.1074.123a6.8593,6.8593,0,0,0-.03.8159c0,.0308.0459.0772.0761.0464a5.3189,5.3189,0,0,1,1.0938-.6928,2.0775,2.0775,0,0,1,.9082-.1851A1.5726,1.5726,0,0,1,322.7891,78.9954Z"/><path class="cls-1" d="M329.0254,78.6258c.0312.0151.0771-.0464.0771-.0772,0-.2768-.0156-3.0024-.03-3.8183a.4134.4134,0,0,0-.0616-.2617.8415.8415,0,0,0-.4316-.2461c-.1074-.0308-.1846-.0772-.1846-.1231s.0772-.0927.1846-.1079a6.4893,6.4893,0,0,0,1.3241-.37.5181.5181,0,0,1,.2157-.0772c.0459,0,.0773.0772.0617.2618-.0314.4619-.1084,5.4658-.1084,7.0361,0,1.3393.0156,2.4018.0311,2.8022a.1367.1367,0,0,0,.1074.1387,4,4,0,0,0,.7237-.1694c.0927-.0308.1386.0151.1386.0615,0,.1079-.1073.2466-.3847.2925a8.6714,8.6714,0,0,0-1.6016.4c-.0614.0151-.1073-.0616-.1073-.1079a4.7233,4.7233,0,0,0,.0311-.6314c0-.0308-.0311-.0615-.0615-.0308a2.8915,2.8915,0,0,1-1.7557.7237,2.51,2.51,0,0,1-1.6319-.6465,2.9193,2.9193,0,0,1-.8009-2.063,3.0646,3.0646,0,0,1,1.34-2.54,3.4582,3.4582,0,0,1,1.9092-.585A4.2562,4.2562,0,0,1,329.0254,78.6258Zm-2.294.4155a2.7346,2.7346,0,0,0-.8466,2.2324c0,1.6631.9394,2.5249,1.8789,2.5249a1.6041,1.6041,0,0,0,1.0927-.4,1.03,1.03,0,0,0,.169-.5694,21.2648,21.2648,0,0,0-.0147-2.9717,1.0354,1.0354,0,0,0-.1386-.37,1.7147,1.7147,0,0,0-1.37-.708,1.1382,1.1382,0,0,0-.7707.2618Z"/><path class="cls-1" d="M334.585,76.5008c-.1534.1694-.1993.1851-.2149.1851-.0771,0-.0928-.0923-.0156-.2159a2.8855,2.8855,0,0,1,2.4014-1.5088,1.7747,1.7747,0,0,1,1.9213,1.6149h0l.0035.0482c0,.9082-.6309,1.5088-1.5245,2.0323a.0432.0432,0,0,0,.0313.0766h.1689a2.4582,2.4582,0,0,1,1.57.6314,2.1419,2.1419,0,0,1,.6162,1.6323,4.039,4.039,0,0,1-2.4326,3.3559,4.5381,4.5381,0,0,1-1.8934.5547c-.5547,0-1.3086-.2773-1.3086-.7085a.9821.9821,0,0,1,.4307-.477.19.19,0,0,1,.2.0151,2.5223,2.5223,0,0,0,1.5859.6157,1.7058,1.7058,0,0,0,1.124-.3847,2.5624,2.5624,0,0,0,.8467-1.9859,2.601,2.601,0,0,0-.6924-1.8476,1.5942,1.5942,0,0,0-1.1709-.5083,2.3918,2.3918,0,0,0-.6466.1235c-.1532.0459-.2616.0767-.2616,0a.25.25,0,0,1,.1387-.2158,7.4545,7.4545,0,0,0,.6777-.3848,1.9028,1.9028,0,0,0,1.124-1.7553c0-1.0162-.5546-1.6011-1.34-1.6011A1.75,1.75,0,0,0,334.585,76.5008Z"/><path class="cls-1" d="M344.7334,79.4109a.5381.5381,0,0,0-.1543.4c-.0156,1.4932.0313,3.0791.0771,3.6026.0459.2925.1231.4927.4922.57.17.0308.2774.0767.2774.1382,0,.0464-.0918.1235-.2774.1235-.4463,0-1.0615-.0771-1.3232-.0771-.6621,0-.8623.0615-1.2324.0615-.169,0-.2764-.0459-.2764-.1079s.0615-.1074.2461-.1538c.4307-.0923.4922-.2.5078-.6929.0313-.5386.0459-2.0015.0459-4.1108,0-2.3091.0156-3.418-.0146-3.9258-.0313-.4927-.0772-.5235-.462-.7085-.0615-.0459-.1084-.0923-.1084-.1382,0-.0615.0928-.1079.2618-.1543a11.0416,11.0416,0,0,0,1.5859-.4927.7612.7612,0,0,1,.2-.0615c.0459,0,.0928.0464.0928.2925,0,.2309-.0928,4.9424-.0772,5.1733,0,.0308.0459.0767.0772.0459a4.04,4.04,0,0,1,.831-.5385,2.1693,2.1693,0,0,1,.94-.231,1.7134,1.7134,0,0,1,1.4472.6621,2.6347,2.6347,0,0,1,.3848,1.6162c.0156,1.0318.0156,1.9707.03,2.7564,0,.2617.0469.4463.4619.5234.2.0459.2617.0767.2617.1538s-.1689.1079-.2617.1079c-.4619,0-.6465-.0771-1.2471-.0771-.7695,0-.8.0615-1.2773.0615-.1846,0-.2461-.0615-.2461-.1079,0-.0615.0762-.0923.2305-.1231.4463-.123.4619-.2617.5078-.77.0312-.3545.0615-1.1548.0615-2.4175a3.1147,3.1147,0,0,0-.2-1.247.9956.9956,0,0,0-.9385-.5079A1.4153,1.4153,0,0,0,344.7334,79.4109Z"/><path class="cls-1" d="M355.8359,81.3353a3.08,3.08,0,0,1-1.2011,2.4174,3.2574,3.2574,0,0,1-1.8467.6,2.9765,2.9765,0,0,1-3.0925-2.8558v0c-.0012-.028-.002-.056-.0022-.084a2.83,2.83,0,0,1,1.0927-2.2788,3.1366,3.1366,0,0,1,1.9707-.708,2.921,2.921,0,0,1,3.0748,2.7588v0Q355.8358,81.26,355.8359,81.3353Zm-4.5107-.3384a4.6084,4.6084,0,0,0,.4775,2.2632,1.49,1.49,0,0,0,1.17.8467.9116.9116,0,0,0,.708-.3541,3.6427,3.6427,0,0,0,.5078-2.0942c0-1.7549-.4921-2.9712-1.57-2.9712C351.9561,78.6873,351.3252,79.657,351.3252,80.9969Z"/><path class="cls-1" d="M357.4854,83.7527a1.6666,1.6666,0,0,1-.3077-1.0781c-.0156-.5078-.0312-2.956-.0459-3.2329-.0156-.3081-.1084-.3848-.3545-.5234-.123-.0772-.1689-.1387-.1689-.1851s.0918-.0766.2305-.0766a8.1988,8.1988,0,0,0,1.7861-.2c.0615-.0157.0918.0922.0918.1694-.0459.8774-.0615,2.7866-.0459,3.71a1.6253,1.6253,0,0,0,.2.939,1.0189,1.0189,0,0,0,.8164.3389,1.1978,1.1978,0,0,0,.8467-.3081.7524.7524,0,0,0,.2-.585c.03-.4927.0459-1.2627.0459-1.6475,0-.2309,0-1.0927-.03-1.4931-.0469-.5235-.1084-.6006-.5546-.6778-.1846-.0307-.2774-.0922-.2774-.1381,0-.0772.1543-.1079.2617-.1079h.8008c.5547,0,1.0469-.1387,1.247-.1387.0459,0,.0773.0771.0773.1694-.0614.5542-.0773,2.5864-.0773,3.9107a6.0649,6.0649,0,0,0,.0315.9238.17.17,0,0,0,.1846.1538c.1531-.0308.3847-.0923.5234-.1079a.2147.2147,0,0,1,.2.2c0,.0771-.1846.1079-.3389.1387a9.42,9.42,0,0,0-1.8789.4462c-.123.0464-.1846.0308-.2148,0a.5524.5524,0,0,1-.0314-.246c0-.1539.0156-.4312.0156-.585,0-.0772-.0156-.1235-.0459-.0928a3.9473,3.9473,0,0,1-.9551.6621,2.47,2.47,0,0,1-1.0157.2158A1.4674,1.4674,0,0,1,357.4854,83.7527Z"/><path class="cls-1" d="M365.8154,79.6878a.6416.6416,0,0,0-.1689.3545,10.2186,10.2186,0,0,0-.0313,1.1855c0,1.0928.0313,1.74.0625,2.0938.0616.4619.169.5693.7383.6465.2158.0307.2774.0771.2774.1538s-.1231.1079-.3233.1079c-.4306,0-.708-.0615-1.4472-.0615-.9239,0-.9083.0771-1.2784.0771-.1992,0-.292-.0464-.292-.1079s.0616-.1387.2305-.1694c.3545-.0772.4775-.2.5234-.6314.0157-.2617.0313-1.1391.0469-2.1552,0-.97.0156-1.37,0-1.5552,0-.0923-.0469-.1231-.4-.4312-.0927-.0766-.123-.1074-.123-.1538s.1074-.1079.1689-.1387a7.9354,7.9354,0,0,0,1.4785-.5078.5173.5173,0,0,1,.2618-.0922c.03,0,.0761.0922.0761.1689,0,.2773-.03.7085-.03,1.0474,0,.0766.0615.0922.0771.0459.4307-.5694.9854-1.1241,1.5859-1.1241a.8632.8632,0,0,1,.5079.1543c.1543.1075.2158.1846.2158.3076a1.576,1.576,0,0,1-.4619.7393c-.1543.1538-.2315.1846-.3086.1846a.4361.4361,0,0,1-.2617-.1079,1.2467,1.2467,0,0,0-.6006-.2461A.7222.7222,0,0,0,365.8154,79.6878Z"/><path class="cls-1" d="M369.666,79.5032c0,.6006.5235.8931,1.1543,1.2935.97.6465,1.34,1.0469,1.34,1.832a1.7172,1.7172,0,0,1-.7081,1.2935,3.0159,3.0159,0,0,1-1.5087.4306,4.2655,4.2655,0,0,1-1.34-.2617c-.1074-.0459-.2617-.1845-.2617-.2925-.0156-.2153-.0615-.6928-.0772-.8466-.0156-.2.0157-.3081.0772-.3081.0459,0,.1074.0463.2.3237a1.9335,1.9335,0,0,0,.6465.9233,1.1409,1.1409,0,0,0,.77.2.9216.9216,0,0,0,.9238-.8618c0-.4468-.3232-.77-1.1084-1.2627a2.2854,2.2854,0,0,1-1.247-1.8013,1.5838,1.5838,0,0,1,.7548-1.37,2.3107,2.3107,0,0,1,1.3086-.37,3.5451,3.5451,0,0,1,1.2.2.2025.2025,0,0,1,.0928.1538c0,.1538.0615.4312.0772.8315.0156.17-.0313.2461-.0928.2461s-.0918-.0766-.1387-.2a1.3986,1.3986,0,0,0-.3847-.708,1.2851,1.2851,0,0,0-.8008-.2773A.8864.8864,0,0,0,369.666,79.5032Z"/><path class="cls-1" d="M299.5039,96.8426a.1808.1808,0,0,1-.1543.1689c-.123-.0151-2.125-.0459-2.4785-.0459H296.04c-.0312,0-.1084.0772-.1386.1231a2.11,2.11,0,0,0-.1241.8467,2.76,2.76,0,0,0,.709,1.8632,2.0775,2.0775,0,0,0,1.5391.6309,1.9633,1.9633,0,0,0,1.4629-.4927c.123-.123.1846-.0923.1846-.0151a.5864.5864,0,0,1-.1534.2461,2.7208,2.7208,0,0,1-2.1406.97,2.4838,2.4838,0,0,1-1.832-.7852,3.01,3.01,0,0,1-.7393-2.0629,3.21,3.21,0,0,1,.8936-2.2481,2.8624,2.8624,0,0,1,1.9238-.77A1.7768,1.7768,0,0,1,299.5039,96.8426Zm-3.1406-.7852a1.3427,1.3427,0,0,0-.3233.6309.0657.0657,0,0,0,.0616.0615l2.0009-.0151c.3389,0,.3692-.1695.3692-.3081a.9917.9917,0,0,0-.2149-.6465,1.08,1.08,0,0,0-.77-.2925A1.5955,1.5955,0,0,0,296.3633,96.0574Z"/><path class="cls-1" d="M302.1846,95.4105c.1543,0,.23.0307.23.0922s-.0918.108-.2148.1387c-.4.1079-.4316.2-.3086.6621.1387.4771,1.0625,2.8638,1.2627,3.2334.0156.0615.0459.0767.0615.0308.2-.37,1.0625-2.4175,1.2471-2.9717a2.1422,2.1422,0,0,0,.17-.6313c0-.0923-.0928-.2618-.5088-.354q-.1845-.0462-.1845-.1387c0-.0459.0615-.0615.1845-.0615.1856,0,.416.0463.7549.0463.2461,0,.6465-.0463.7852-.0463.1074,0,.2158.0307.2158.0922s-.0928.0928-.2315.1387c-.3076.0772-.4775.2617-.6621.6929-.3535.77-1.1386,2.4941-1.2929,2.8638a16.5538,16.5538,0,0,0-.7393,1.7241c-.0771.2314-.1387.2617-.1846.2617s-.1074-.0146-.1689-.23c-.0772-.2314-.1856-.6006-.4-1.1855-.2773-.7085-1.1856-3.11-1.4473-3.603a.9122.9122,0,0,0-.6933-.5386c-.1387-.0308-.2149-.0772-.2149-.1236,0-.0615.0762-.1074.2617-.1074.4307,0,.6924.0615,1.1543.0615C301.6768,95.4568,301.9385,95.4105,302.1846,95.4105Z"/><path class="cls-1" d="M310.7764,96.8426a.1809.1809,0,0,1-.1543.1689c-.1231-.0151-2.125-.0459-2.4785-.0459h-.8311c-.0313,0-.1084.0772-.1387.1231a2.12,2.12,0,0,0-.123.8467,2.76,2.76,0,0,0,.7081,1.8632,2.0771,2.0771,0,0,0,1.539.6309,1.9628,1.9628,0,0,0,1.4628-.4927c.1232-.123.1846-.0923.1846-.0151a.585.585,0,0,1-.1532.2461,2.7207,2.7207,0,0,1-2.1405.97,2.4831,2.4831,0,0,1-1.8321-.7852,3.01,3.01,0,0,1-.74-2.0626,3.21,3.21,0,0,1,.8935-2.2481,2.8626,2.8626,0,0,1,1.9239-.77A1.7769,1.7769,0,0,1,310.7764,96.8426Zm-3.1407-.7852a1.3435,1.3435,0,0,0-.3232.6309.0657.0657,0,0,0,.0615.0615l2.001-.0151c.3389,0,.3691-.1695.3691-.3081a.9917.9917,0,0,0-.2148-.6465,1.08,1.08,0,0,0-.77-.2925A1.5959,1.5959,0,0,0,307.6357,96.0574Z"/><path class="cls-1" d="M313.5029,96.3958a.8875.8875,0,0,0-.2617.5391,9.0212,9.0212,0,0,0-.0156.9389c0,1.14.0312,1.94.0615,2.2632.0615.4776.2471.585.832.6475.2149.03.292.0615.292.1377s-.1386.1084-.3691.1084c-.293,0-.8008-.0615-1.4473-.0615a8.3571,8.3571,0,0,0-.9394.0918c-.1846,0-.2617-.03-.2617-.0918,0-.0469.1084-.1231.2314-.1543a.6362.6362,0,0,0,.5537-.6314c.0314-.2617.0469-1.1391.0469-2.1553V96.3192c0-.108-.1084-.1543-.4-.4-.1084-.0772-.1232-.1236-.1232-.1543s.0918-.0923.2305-.1382a4.684,4.684,0,0,0,.9855-.37.4851.4851,0,0,1,.2314-.0772c.03,0,.0615.0615.0615.2158,0,.1695-.0156.7544-.0156,1,0,.0464.03.0615.0772.0156a2.5112,2.5112,0,0,1,1.6621-1.1084.8962.8962,0,0,1,.539.2.27.27,0,0,1,.1084.2159,1.0564,1.0564,0,0,1-.3388.5234c-.1387.1231-.2.1387-.2471.1387a.6966.6966,0,0,1-.2764-.1079,1.08,1.08,0,0,0-.539-.1846A1.0517,1.0517,0,0,0,313.5029,96.3958Z"/><path class="cls-1" d="M318.2461,95.4105c.1533,0,.2617.0463.2617.1079s-.1084.1079-.2.123c-.3388.1079-.37.1851-.2314.585.2.539,1.0468,2.6177,1.3554,3.2641.03.0616.0762.0464.0918,0,.2-.5234,1.0625-2.7407,1.1856-3.0947a1.1551,1.1551,0,0,0,.0771-.4463c0-.1079-.0771-.2309-.3389-.3081-.2305-.0459-.2774-.0923-.2774-.1387,0-.0615.0773-.0922.2157-.0922.1846,0,.5079.0463.7393.0463.2773,0,.4775-.0463.708-.0463.0928,0,.1846.0156.1846.0615s-.0615.1079-.2149.1543c-.3086.0923-.4619.2-.7089.7695-.1846.3848-1.1387,2.7559-1.37,3.3408-.1845.5083-.3232.8623-.6465,1.6944-.3691.8925-.9541,2.4941-1.17,3.0175a2.12,2.12,0,0,1-.2929.5694.5784.5784,0,0,1-.5079.2617.5119.5119,0,0,1-.5078-.5078.4537.4537,0,0,1,.4307-.4463c.1084,0,.2.03.3086.03a.3709.3709,0,0,0,.3994-.2617c.1543-.3233.6006-1.586,1.124-2.9248a.6635.6635,0,0,0-.0146-.4932c-.0928-.2466-1.2168-3.0947-1.9092-4.6035a.8263.8263,0,0,0-.5547-.4156c-.1846-.0463-.2773-.1079-.2773-.1543,0-.0766.1386-.1074.247-.1074.2764,0,.708.0615,1.0772.0615C317.6455,95.4568,318.0459,95.4105,318.2461,95.4105Z"/><path class="cls-1" d="M326.084,95.4261c.1387,0,.2617.0307.2617.1074,0,.0464-.1533.1079-.2617.1235-.3692.0616-.3535.2-.292.4463.2305.7085.8926,2.4634,1.2471,3.3257.0156.0459.0771.0615.0918.0152.247-.5235.9238-2.0166,1.0781-2.417.0156-.0772.0615-.1846.03-.2618-.0762-.2-.1846-.4462-.2618-.6313a.8193.8193,0,0,0-.5849-.5078c-.1387-.0308-.2149-.0615-.2149-.1236s.0762-.0922.2305-.0922c.3232,0,.7236.0463,1.0469.0463.4463,0,.6318-.0307.9082-.0307.17,0,.2314.0307.2314.0766,0,.0621-.1084.1236-.2314.1543-.3535.0767-.4463.1382-.2617.6158.17.477.9853,2.7094,1.2011,3.187.0459.0771.0772.0151.0772,0,.1846-.4.9238-2.1553,1.1084-2.6792a3.5,3.5,0,0,0,.2461-.7388c0-.1387-.0615-.2773-.4619-.3848-.2-.0615-.2461-.1079-.2461-.1543,0-.0615.0927-.0922.2-.0922.2617,0,.539.0463.7851.0463.1543,0,.5391-.0463.77-.0463.1387,0,.2159.0307.2159.0922s-.0459.0928-.2774.1543c-.2763.0767-.4619.2925-.6621.7081-.2764.5542-.7383,1.6167-1.2158,2.71-.2616.6309-.5391,1.3086-.7236,1.8013-.0928.2461-.1543.293-.2.293-.0616,0-.1075-.0616-.169-.2774-.0771-.2158-.1855-.5239-.37-1.0474-.292-.831-.6152-1.7089-.9238-2.5249-.0156-.0459-.0459-.0771-.0772,0-.1386.2925-.7851,1.709-1,2.2481-.2314.5078-.37.8618-.539,1.3086-.0772.2158-.1543.293-.2159.293s-.1074-.1084-.1542-.2774c-.0762-.2158-.169-.5854-.4307-1.3242-.2774-.7544-1.1543-3.0332-1.3242-3.3257a.8773.8773,0,0,0-.6778-.6006c-.123-.0307-.2148-.0766-.2148-.123,0-.0923.1074-.1231.2773-.1231.1993,0,.6612.0615,1.0928.0615C325.4688,95.4568,325.7764,95.4261,326.084,95.4261Z"/><path class="cls-1" d="M337.7725,96.8426a.1809.1809,0,0,1-.1543.1689c-.1231-.0151-2.125-.0459-2.4786-.0459h-.831c-.0313,0-.1084.0772-.1387.1231a2.116,2.116,0,0,0-.123.8467,2.76,2.76,0,0,0,.708,1.8632,2.0768,2.0768,0,0,0,1.539.6309,1.9632,1.9632,0,0,0,1.4629-.4927c.1231-.123.1846-.0923.1846-.0151a.5852.5852,0,0,1-.1533.2461,2.7208,2.7208,0,0,1-2.1406.97,2.4842,2.4842,0,0,1-1.8321-.7852,3.01,3.01,0,0,1-.7392-2.0629,3.21,3.21,0,0,1,.8935-2.2481,2.863,2.863,0,0,1,1.9239-.77A1.7769,1.7769,0,0,1,337.7725,96.8426Zm-3.1407-.7852a1.3435,1.3435,0,0,0-.3232.6309.0657.0657,0,0,0,.0615.0615l2.001-.0151c.3389,0,.3691-.1695.3691-.3081a.9917.9917,0,0,0-.2148-.6465,1.08,1.08,0,0,0-.77-.2925A1.5959,1.5959,0,0,0,334.6318,96.0574Z"/><path class="cls-1" d="M343.332,96.8426a.1808.1808,0,0,1-.1543.1689c-.123-.0151-2.125-.0459-2.4785-.0459h-.831c-.0313,0-.1084.0772-.1387.1231a2.1112,2.1112,0,0,0-.124.8467,2.7614,2.7614,0,0,0,.709,1.8632,2.0775,2.0775,0,0,0,1.539.6309,1.963,1.963,0,0,0,1.4629-.4927c.1231-.123.1846-.0923.1846-.0151a.5836.5836,0,0,1-.1533.2461,2.7207,2.7207,0,0,1-2.14.97,2.4837,2.4837,0,0,1-1.832-.7852,3.01,3.01,0,0,1-.7393-2.0629,3.21,3.21,0,0,1,.8935-2.2481,2.8626,2.8626,0,0,1,1.9238-.77A1.7768,1.7768,0,0,1,343.332,96.8426Zm-3.1406-.7852a1.3435,1.3435,0,0,0-.3232.6309.0657.0657,0,0,0,.0615.0615l2.001-.0151c.3388,0,.3691-.1695.3691-.3081a.9917.9917,0,0,0-.2148-.6465,1.08,1.08,0,0,0-.77-.2925A1.5959,1.5959,0,0,0,340.1914,96.0574Z"/><path class="cls-1" d="M348.3369,95.4568c.3379,0,.9541-.0771,1.3545-.0771.169,0,.2305.0464.2305.0923,0,.0307-.0459.0928-.2305.1235a2.741,2.741,0,0,0-1.416.6773c-.4.3081-1.1553.9546-1.4473,1.2314-.0312.0313,0,.0772.0147.1079.4619.5391,1.57,1.7246,2.2939,2.4634a1.9857,1.9857,0,0,0,1.1095.7236c.1377.0313.2305.0772.2305.1387,0,.0928-.1387.1084-.2619.1084-.5234,0-1.1084-.0771-1.7088-.0771-.2619,0-.4621.0156-.6925.0156-.17,0-.2774,0-.2774-.0928,0-.0771.0772-.1074.3535-.17.2618-.0615.293-.2.1543-.4155-.3232-.37-1.416-1.524-1.8779-1.9859-.123-.1235-.2314-.2309-.293-.2309-.0459,0-.0615.0922-.0615.1538-.0156.2773-.03.7851-.0156,1.6318,0,.7393.123.7852.6006.8936.1543.0459.2314.0771.2314.1386,0,.0772-.123.1075-.2929.1075-.4307,0-.7539-.0459-1.1543-.0459-.4932,0-.8164.0459-1.001.0459-.1543,0-.2461-.0459-.2461-.1075,0-.0468.0918-.0927.2-.1084.4766-.123.585-.2617.6152-.77.0615-1.124.0772-2.4175.0772-3.6182.0156-1.2011.0615-3.1718.0615-4.3725a2.6406,2.6406,0,0,0-.0615-.7085c-.03-.1231-.169-.2153-.3544-.3076-.0762-.0464-.1376-.0772-.1376-.1079,0-.0616.0918-.0923.246-.1387a9.4547,9.4547,0,0,0,1.0929-.3692.7192.7192,0,0,1,.246-.0771c.0155,0,.0469.0464.0469.123-.0312.5083-.0771,1.8628-.0771,3.0025,0,.477-.0772,2.5093-.0772,4.2031,0,.1694.0313.2461.0772.2461a.7736.7736,0,0,0,.3076-.1694,13.1546,13.1546,0,0,0,1.663-1.54.559.559,0,0,0,.169-.2768c0-.0923-.1074-.1851-.4463-.2466-.1386-.0152-.2617-.0615-.2617-.1231s.1074-.1079.2461-.1079C347.8135,95.4412,348.167,95.4568,348.3369,95.4568Z"/><path class="cls-1" d="M350.832,100.4759a.7.7,0,0,1,.6934-.6929.6484.6484,0,0,1,.6152.6773.6623.6623,0,0,1-.63.6926l-.0317.0007A.6781.6781,0,0,1,350.832,100.4759Z"/><path class="cls-1" d="M353.9727,91.7a1.6714,1.6714,0,0,1-1.3858,1.4937c-.0918,0-.1377-.0308-.1377-.0772,0-.0307.0615-.0771.1533-.123a1.2326,1.2326,0,0,0,.8164-1.0318c0-.3076-.17-.5078-.5849-.6-.1543-.0464-.3086-.1386-.3086-.3237a.458.458,0,0,1,.4619-.4311,1.0279,1.0279,0,0,1,.9867,1.0673Zm1.9248,0a1.6714,1.6714,0,0,1-1.3858,1.4937c-.0771,0-.1387-.0308-.1387-.0772,0-.0307.0928-.0771.1543-.123a1.2055,1.2055,0,0,0,.8155-1.0161c0-.3233-.169-.5235-.585-.6158a.36.36,0,0,1-.292-.3237.4522.4522,0,0,1,.4721-.4314h.0055a1.0238,1.0238,0,0,1,.9544,1.0888h0Z"/></svg>