<svg id="Layer_1" data-name="Layer 1" xmlns="http://www.w3.org/2000/svg" viewBox="0 0 399 200"><defs><style>.cls-1,.cls-2,.cls-3{fill:none;stroke:#222f3c;stroke-width:0.5px;}.cls-1,.cls-3{stroke-linecap:round;}.cls-1{stroke-linejoin:round;}.cls-2,.cls-3{stroke-miterlimit:10;}.cls-4{fill:#333838;}</style></defs><path class="cls-1" d="M167.056,124.7334h-5.44a1.26,1.26,0,0,1-1.2605-1.26v-3.73a1.26,1.26,0,0,1,1.2605-1.2605h14.3119"/><line class="cls-1" x1="159.1396" y1="158.8463" x2="162.973" y2="158.8463"/><line class="cls-1" x1="163.9567" y1="135.109" x2="163.9567" y2="126.3768"/><line class="cls-1" x1="162.6259" y1="158.8463" x2="157.7705" y2="158.8463"/><line class="cls-1" x1="155.6486" y1="155.6074" x2="155.6657" y2="155.5654"/><line class="cls-1" x1="155.6657" y1="155.5654" x2="163.9437" y2="135.281"/><path class="cls-1" d="M155.6486,155.6074a2.3428,2.3428,0,0,0,2.17,3.2357"/><path class="cls-1" d="M155.6486,155.6074l.0171-.042"/><line class="cls-1" x1="162.6259" y1="158.8463" x2="157.7705" y2="158.8463"/><line class="cls-1" x1="155.6486" y1="155.6074" x2="155.6657" y2="155.5654"/><line class="cls-1" x1="155.6657" y1="155.5654" x2="163.9437" y2="135.281"/><path class="cls-1" d="M155.6486,155.6074a2.3428,2.3428,0,0,0,2.17,3.2357"/><path class="cls-1" d="M155.6486,155.6074l.0171-.042"/><path class="cls-1" d="M176.3818,128.5209h7.5746a1.2128,1.2128,0,0,0,1.1586-1.2605v-3.73a1.2127,1.2127,0,0,0-1.1586-1.26H169.5136a1.2127,1.2127,0,0,0-1.1586,1.26v3.73a1.2128,1.2128,0,0,0,1.1586,1.2605h2.4989"/><line class="cls-1" x1="171.22" y1="140.2964" x2="171.22" y2="131.5642"/><line class="cls-1" x1="187.0672" y1="164.0338" x2="165.0337" y2="164.0338"/><line class="cls-1" x1="162.9118" y1="160.7948" x2="162.929" y2="160.7528"/><line class="cls-1" x1="162.929" y1="160.7528" x2="171.207" y2="140.4684"/><path class="cls-1" d="M162.9118,160.7948a2.3429,2.3429,0,0,0,2.17,3.2358"/><path class="cls-1" d="M162.9118,160.7948l.0172-.042"/><line class="cls-1" x1="182.25" y1="140.2964" x2="182.25" y2="131.5642"/><line class="cls-1" x1="165.3809" y1="164.0338" x2="188.4363" y2="164.0338"/><line class="cls-1" x1="190.5582" y1="160.7948" x2="190.541" y2="160.7528"/><line class="cls-1" x1="190.541" y1="160.7528" x2="182.263" y2="140.4684"/><path class="cls-1" d="M190.5582,160.7948a2.3429,2.3429,0,0,1-2.17,3.2358"/><path class="cls-1" d="M190.5582,160.7948l-.0172-.042"/><line class="cls-1" x1="165.3809" y1="164.0338" x2="188.4363" y2="164.0338"/><line class="cls-1" x1="190.5582" y1="160.7948" x2="190.541" y2="160.7528"/><line class="cls-1" x1="190.541" y1="160.7528" x2="182.263" y2="140.4684"/><path class="cls-1" d="M190.5582,160.7948a2.3429,2.3429,0,0,1-2.17,3.2358"/><path class="cls-1" d="M190.5582,160.7948l-.0172-.042"/><line class="cls-2" x1="178.5293" y1="133.6793" x2="182.3314" y2="133.6793"/><line class="cls-2" x1="178.5293" y1="131.5008" x2="182.3314" y2="131.5008"/><line class="cls-2" x1="178.5293" y1="135.8831" x2="182.3314" y2="135.8831"/><line class="cls-2" x1="178.5293" y1="138.087" x2="182.3314" y2="138.087"/><line class="cls-2" x1="178.5293" y1="140.2908" x2="182.3314" y2="140.2908"/><path class="cls-2" d="M170.3488,152.9821c0-1.2507,2.2645-3.9729,2.2645-3.9729s2.2645,2.7222,2.2645,3.9729a2.2645,2.2645,0,0,1-4.529,0Z"/><path class="cls-2" d="M175.074,158.5873c0-1.2507,2.2645-3.9729,2.2645-3.9729s2.2645,2.7222,2.2645,3.9729a2.2645,2.2645,0,0,1-4.529,0Z"/><path class="cls-2" d="M176.3266,150.56c0-1.2506,2.2645-3.9728,2.2645-3.9728s2.2645,2.7222,2.2645,3.9728a2.2645,2.2645,0,0,1-4.529,0Z"/><line class="cls-3" x1="180.605" y1="149.3805" x2="221.3312" y2="132.5805"/><path class="cls-2" d="M219.83,122.8365c0-13.4744,24.3975-42.8027,24.3975-42.8027s24.3974,29.3283,24.3974,42.8027a24.3975,24.3975,0,0,1-48.7949,0Z"/><circle class="cls-1" cx="254.9289" cy="111.8225" r="1.3629"/><path class="cls-1" d="M254.8955,107.0625c-.4743,1.2568,1.09,2.0592-.1524,3.3387"/><path class="cls-1" d="M254.8955,113.2437c-.4743,1.2569,1.09,2.0593-.1524,3.3388"/><path class="cls-1" d="M259.6889,111.8491c-1.2568-.4743-2.0592,1.09-3.3387-.1524"/><path class="cls-1" d="M253.5077,111.8491c-1.2568-.4743-2.0593,1.09-3.3388-.1524"/><path class="cls-1" d="M258.2712,108.433c-1.2242.5533-.6852,2.2271-2.4687,2.2531"/><path class="cls-1" d="M253.9,112.8038c-1.2241.5533-.6851,2.2271-2.4686,2.2531"/><path class="cls-1" d="M258.2759,115.2072c-.5533-1.2242-2.2271-.6852-2.2531-2.4687"/><path class="cls-1" d="M253.9051,110.8363c-.5533-1.2241-2.2271-.6851-2.2531-2.4686"/><rect class="cls-2" x="242.9403" y="116.4137" width="2.6469" height="7.6445" rx="0.9453" transform="translate(492.1215 7.595) rotate(129.352)"/><rect class="cls-2" x="250.4961" y="133.9092" width="2.6469" height="7.6445" rx="0.9453" transform="translate(258.4503 424.6794) rotate(-120)"/><circle class="cls-1" cx="229.2338" cy="124.8504" r="1.3629"/><path class="cls-1" d="M229.2,120.09c-.4744,1.2568,1.09,2.0593-.1524,3.3387"/><path class="cls-1" d="M229.2,126.2716c-.4744,1.2569,1.09,2.0593-.1524,3.3388"/><path class="cls-1" d="M233.9938,124.877c-1.2569-.4743-2.0593,1.09-3.3388-.1523"/><path class="cls-1" d="M227.8125,124.877c-1.2568-.4743-2.0593,1.09-3.3387-.1523"/><path class="cls-1" d="M232.576,121.4609c-1.2241.5534-.6852,2.2271-2.4686,2.2531"/><path class="cls-1" d="M228.2052,125.8318c-1.2241.5533-.6852,2.227-2.4686,2.253"/><path class="cls-1" d="M232.5808,128.2351c-.5534-1.2242-2.2271-.6852-2.2531-2.4686"/><path class="cls-1" d="M228.21,123.8643c-.5533-1.2242-2.227-.6852-2.253-2.4686"/><circle class="cls-1" cx="258.1759" cy="125.8591" r="1.3629"/><path class="cls-1" d="M258.1425,121.0991c-.4743,1.2568,1.09,2.0593-.1524,3.3387"/><path class="cls-1" d="M258.1425,127.28c-.4743,1.2568,1.09,2.0592-.1524,3.3387"/><path class="cls-1" d="M262.9359,125.8858c-1.2568-.4744-2.0592,1.09-3.3387-.1524"/><path class="cls-1" d="M256.7547,125.8858c-1.2569-.4744-2.0593,1.09-3.3388-.1524"/><path class="cls-1" d="M261.5181,122.47c-1.2241.5533-.6851,2.227-2.4686,2.253"/><path class="cls-1" d="M257.1473,126.8405c-1.2241.5533-.6851,2.227-2.4686,2.253"/><path class="cls-1" d="M261.5229,129.2438c-.5533-1.2241-2.2271-.6852-2.2531-2.4686"/><path class="cls-1" d="M257.1521,124.873c-.5533-1.2241-2.2271-.6852-2.2531-2.4686"/><circle class="cls-1" cx="240.8076" cy="133.4076" r="1.3629"/><path class="cls-1" d="M240.7742,128.6477c-.4743,1.2568,1.09,2.0592-.1524,3.3387"/><path class="cls-1" d="M240.7742,134.8289c-.4743,1.2568,1.09,2.0593-.1524,3.3387"/><path class="cls-1" d="M245.5676,133.4343c-1.2568-.4743-2.0593,1.09-3.3387-.1524"/><path class="cls-1" d="M239.3863,133.4343c-1.2568-.4743-2.0592,1.09-3.3387-.1524"/><path class="cls-1" d="M244.15,130.0182c-1.2241.5533-.6852,2.2271-2.4686,2.2531"/><path class="cls-1" d="M239.779,134.389c-1.2241.5533-.6852,2.2271-2.4686,2.2531"/><path class="cls-1" d="M244.1546,136.7923c-.5533-1.2241-2.2271-.6851-2.2531-2.4686"/><path class="cls-1" d="M239.7838,132.4215c-.5533-1.2241-2.2271-.6851-2.2531-2.4686"/><circle class="cls-1" cx="233.4318" cy="111.8349" r="1.3629"/><path class="cls-1" d="M233.3984,107.0749c-.4744,1.2568,1.09,2.0593-.1524,3.3388"/><path class="cls-1" d="M233.3984,113.2562c-.4744,1.2568,1.09,2.0592-.1524,3.3387"/><path class="cls-1" d="M238.1918,111.8616c-1.2569-.4744-2.0593,1.09-3.3388-.1524"/><path class="cls-1" d="M232.0105,111.8616c-1.2568-.4744-2.0593,1.09-3.3387-.1524"/><path class="cls-1" d="M236.774,108.4455c-1.2241.5533-.6852,2.227-2.4686,2.2531"/><path class="cls-1" d="M232.4032,112.8163c-1.2241.5533-.6852,2.227-2.4686,2.2531"/><path class="cls-1" d="M236.7787,115.22c-.5533-1.2241-2.227-.6852-2.253-2.4686"/><path class="cls-1" d="M232.4079,110.8488c-.5533-1.2241-2.227-.6852-2.253-2.4686"/><circle class="cls-1" cx="242.9533" cy="100.0172" r="1.3629"/><path class="cls-1" d="M242.92,95.2572c-.4743,1.2569,1.09,2.0593-.1524,3.3388"/><path class="cls-1" d="M242.92,101.4385c-.4743,1.2568,1.09,2.0593-.1524,3.3387"/><path class="cls-1" d="M247.7133,100.0439c-1.2568-.4744-2.0593,1.09-3.3387-.1524"/><path class="cls-1" d="M241.532,100.0439c-1.2568-.4744-2.0592,1.09-3.3387-.1524"/><path class="cls-1" d="M246.2955,96.6278c-1.2241.5533-.6852,2.2271-2.4686,2.2531"/><path class="cls-1" d="M241.9247,100.9986c-1.2241.5533-.6852,2.2271-2.4686,2.2531"/><path class="cls-1" d="M246.3,103.4019c-.5533-1.2241-2.2271-.6852-2.2531-2.4686"/><path class="cls-1" d="M241.93,99.0311c-.5533-1.2241-2.2271-.6852-2.2531-2.4686"/><circle class="cls-1" cx="287.022" cy="141.0837" r="1.6035"/><path class="cls-1" d="M286.9827,135.4837c-.558,1.4787,1.2827,2.4227-.1793,3.928"/><path class="cls-1" d="M286.9827,142.7558c-.558,1.4786,1.2827,2.4227-.1793,3.9279"/><path class="cls-1" d="M292.622,141.1151c-1.4786-.558-2.4226,1.2827-3.9279-.1793"/><path class="cls-1" d="M285.35,141.1151c-1.4787-.558-2.4227,1.2827-3.928-.1793"/><path class="cls-1" d="M290.954,137.0962c-1.44.6509-.806,2.62-2.9042,2.6506"/><path class="cls-1" d="M285.8119,142.2383c-1.44.6509-.8061,2.62-2.9042,2.6507"/><path class="cls-1" d="M290.96,145.0657c-.651-1.44-2.62-.8061-2.6507-2.9042"/><path class="cls-1" d="M285.8175,139.9236c-.6509-1.44-2.62-.8061-2.6507-2.9043"/><path class="cls-4" d="M295.9551,135.8987a12.67,12.67,0,0,0,1.4785-.0459,11.5258,11.5258,0,0,1,1.51-.123c1.6777,0,3.0625.7539,3.0625,2.4785a1.97,1.97,0,0,1-.6465,1.3858,4.0035,4.0035,0,0,1-.83.5078c-.0938.0459-.0313.0927.0156.123a4.8007,4.8007,0,0,1,1.3379.77,2.41,2.41,0,0,1,.8164,1.878,2.6011,2.6011,0,0,1-1.7246,2.4638,4.6,4.6,0,0,1-1.8633.3233c-.2617,0-.5683,0-1.1855-.0157-.6309-.0312-.9844-.0312-1.3223-.0312h-.7715c-.23,0-.3222-.0615-.3222-.1074,0-.0772.1074-.1075.2461-.1387.6152-.0615.8476-.3232.8925-.8779.0469-.4151.0469-2.6172.0469-4.3262,0-.8311-.0156-2.6172-.0312-3.2178-.0313-.5537-.1387-.6767-.7539-.8154-.1856-.0313-.23-.0928-.23-.1231C295.68,135.9446,295.8027,135.8987,295.9551,135.8987Zm4.8359,5.4043a2.149,2.149,0,0,0-2.08-.8925c-.3066,0-.6.0146-.7539.03-.0761.0157-.123.1075-.1386.1846a23.4373,23.4373,0,0,0,.0468,2.91,3.7753,3.7753,0,0,0,.2149,1.2773,1.5486,1.5486,0,0,0,1.3554.5859,1.9117,1.9117,0,0,0,.8614-.2158,2.2061,2.2061,0,0,0,1.0937-2.1406A2.6574,2.6574,0,0,0,300.791,141.303Zm-2.2031-5.3115a2.5075,2.5075,0,0,0-.6.0615c-.0625.0157-.1387.2-.1387.2461-.0312.2774-.0469,2.4024-.0312,3.5723,0,.0615.0312.2148.17.2148a4.7294,4.7294,0,0,0,1.0469.0157,1.94,1.94,0,0,0,1.7714-1.8477A2.1055,2.1055,0,0,0,298.5879,135.9915Z"/><path class="cls-4" d="M303.9941,140.3177a7.64,7.64,0,0,0,1.1094-.4.6175.6175,0,0,1,.2305-.1074c.0469,0,.0762.0459.0625.2148-.0313.3086-.0313,1.2471-.0313,2.2324,0,1.294,0,2.4327.0313,2.6944.0293.3086.1836.3857.43.4472.1543.03.2324.0616.2324.1231,0,.0771-.125.1074-.2481.1074-.1386,0-.707-.0615-1.123-.0615-.5078,0-.7539.0312-.9238.0312-.1075,0-.2149-.0312-.2149-.0927s.0762-.1075.291-.1387c.34-.0928.4786-.2158.4942-.8467.0156-.4619.0449-3.2637.0449-3.418,0-.2158-.0156-.3076-.4453-.539-.0781-.0459-.1231-.0918-.1231-.1231C303.8105,140.3948,303.8555,140.348,303.9941,140.3177Zm1.5411-2.51a.5871.5871,0,0,1-.57.585.5478.5478,0,0,1-.5078-.5694.5712.5712,0,0,1,.5391-.6A.5636.5636,0,0,1,305.5352,137.8079Z"/><path class="cls-4" d="M312.8633,142.7806a2.9487,2.9487,0,0,1-2.9258,2.9717,2.9365,2.9365,0,0,1-1.8789-5.2344,3.1635,3.1635,0,0,1,1.8476-.6465A2.8887,2.8887,0,0,1,312.8633,142.7806Zm-4.8047-.2149a3.52,3.52,0,0,0,.6484,2.1094,1.8266,1.8266,0,0,0,1.4473.8154,1.5173,1.5173,0,0,0,.9687-.3847,3.0687,3.0687,0,0,0,.6465-2.0635c0-1.4619-.7383-2.9092-2.0937-2.9092C308.8906,140.1331,308.0586,140.9642,308.0586,142.5657Z"/><path class="cls-4" d="M315.4062,141.8265c0,1.9394.0157,2.6631.0313,2.956.0137.416.1074.5235.5371.6006.0938.0156.2012.0615.2012.1074,0,.0616-.1074.1084-.3086.1084-.2461,0-.8008-.0312-1.0625-.0312-.4,0-.8008.0312-1.0313.0312-.1836,0-.2617-.0156-.2617-.0927s.0781-.0928.2774-.1387c.3847-.0772.4765-.2158.539-.8926.0313-.57.0918-3.1719.1074-5.0195,0-1.2471.0157-2.51,0-3.1865,0-.3389-.0312-.4161-.4316-.6621-.1074-.0616-.1523-.0928-.1523-.1387s.0918-.0928.23-.1231a8.0057,8.0057,0,0,0,1.1543-.3545.6473.6473,0,0,1,.1856-.0459c.0293,0,.0449.0918.0449.169,0,.1084-.0606,2.7715-.0606,5.081Z"/><path class="cls-4" d="M322.8418,142.7806a2.9487,2.9487,0,0,1-2.9238,2.9717,2.9355,2.9355,0,0,1-1.8789-5.2344,3.1632,3.1632,0,0,1,1.8476-.6465A2.8882,2.8882,0,0,1,322.8418,142.7806Zm-4.8027-.2149a3.5307,3.5307,0,0,0,.6464,2.1094,1.832,1.832,0,0,0,1.4473.8154,1.5227,1.5227,0,0,0,.9707-.3847,3.0687,3.0687,0,0,0,.6465-2.0635c0-1.4619-.74-2.9092-2.0938-2.9092C318.8711,140.1331,318.0391,140.9642,318.0391,142.5657Z"/><path class="cls-4" d="M327.8008,140.179a1.1245,1.1245,0,0,0,.539.0772c.293,0,.9082-.0313,1.1407-.0313.0761,0,.1386.1543.1386.3389,0,.1543-.1093.2773-.17.2773-.2168,0-.7695-.0312-.9394-.0312a.1367.1367,0,0,0-.0918.0927c0,.1075.0293.3545.0293.6309a2.5451,2.5451,0,0,1-.9688,2.0791,2.1236,2.1236,0,0,1-1.2012.4,3.7679,3.7679,0,0,1-.6464-.0771.2936.2936,0,0,0-.1856.0459,2.404,2.404,0,0,0-.5391.5078.4874.4874,0,0,0-.1679.3388c0,.4932.6308.6465,1.4316.6465.4766,0,1.3242-.0459,1.7539-.0459a1.59,1.59,0,0,1,1.7246,1.709,3.1048,3.1048,0,0,1-1.7246,2.51,3.6687,3.6687,0,0,1-1.8613.5078c-1.2324,0-2.2637-.585-2.2637-1.7246a.9826.9826,0,0,1,.2774-.6621c.1074-.1231.6777-.8467.9843-1.1846.0157-.0313.0313-.124-.0156-.1387-.43-.0928-1.2461-.6318-1.2461-1.2471a.1913.1913,0,0,1,.0918-.1542,6.7154,6.7154,0,0,0,1.2774-1.14c.0156-.0146,0-.0771-.0293-.0918a2.3246,2.3246,0,0,1-1.1856-1.9248,1.8583,1.8583,0,0,1,.6465-1.4775,2.3643,2.3643,0,0,1,1.6309-.6319A3.4662,3.4662,0,0,1,327.8008,140.179Zm-2.57,8.9912a2.1011,2.1011,0,0,0,1.4629.4619,2.3969,2.3969,0,0,0,1.4316-.3691,2.0552,2.0552,0,0,0,.832-1.5859c0-.6465-.4-1.2168-1.3867-1.2168-.584,0-1.34.0156-1.7558.0312a.9522.9522,0,0,0-.5235.1387,1.9509,1.9509,0,0,0-.6621,1.37A1.5742,1.5742,0,0,0,325.2305,149.17Zm.1386-8.8369a2.1492,2.1492,0,0,0-.416,1.3545,2.7953,2.7953,0,0,0,.4766,1.6475,1.26,1.26,0,0,0,.9551.4463c.709,0,1.17-.8467,1.17-1.5547a2.761,2.761,0,0,0-.4766-1.7246,1.0823,1.0823,0,0,0-.9238-.5235A1.1533,1.1533,0,0,0,325.3691,140.3333Z"/><path class="cls-4" d="M330.4355,140.3177a7.64,7.64,0,0,0,1.1094-.4.6175.6175,0,0,1,.2305-.1074c.0469,0,.0762.0459.0625.2148-.0313.3086-.0313,1.2471-.0313,2.2324,0,1.294,0,2.4327.0313,2.6944.0293.3086.1836.3857.43.4472.1543.03.2324.0616.2324.1231,0,.0771-.125.1074-.248.1074-.1387,0-.7071-.0615-1.1231-.0615-.5078,0-.7539.0312-.9238.0312-.1074,0-.2149-.0312-.2149-.0927s.0762-.1075.291-.1387c.34-.0928.4786-.2158.4942-.8467.0156-.4619.0449-3.2637.0449-3.418,0-.2158-.0156-.3076-.4453-.539-.0781-.0459-.123-.0918-.123-.1231C330.252,140.3948,330.2969,140.348,330.4355,140.3177Zm1.5411-2.51a.5871.5871,0,0,1-.57.585.5478.5478,0,0,1-.5078-.5694.5712.5712,0,0,1,.5391-.6A.5636.5636,0,0,1,331.9766,137.8079Z"/><path class="cls-4" d="M334.4238,142.5189a2.5919,2.5919,0,0,0,.77,2.0019,2.1926,2.1926,0,0,0,1.4316.5391,2.0694,2.0694,0,0,0,1.6016-.585c.0312-.0312.1074-.0469.1074,0a.3911.3911,0,0,1-.1231.2461,2.6618,2.6618,0,0,1-2.125,1.0156,2.8078,2.8078,0,0,1-1.9238-.7539,2.9031,2.9031,0,0,1-.7695-2.0781,2.9385,2.9385,0,0,1,.9394-2.1406,3.3717,3.3717,0,0,1,2.2774-.8926,2.347,2.347,0,0,1,1.4023.3848.355.355,0,0,1,.2149.292.5264.5264,0,0,1-.3848.4931.4708.4708,0,0,1-.2617-.1543,4.2214,4.2214,0,0,0-.8613-.6308,1.3784,1.3784,0,0,0-.586-.1231C335.4863,140.1331,334.4238,140.7484,334.4238,142.5189Z"/><path class="cls-4" d="M342.74,140.6566a3.7524,3.7524,0,0,1,.2149,1.4c0,.57-.0469,2.0323-.0469,2.4327a.5283.5283,0,0,0,.57.5859.9914.9914,0,0,0,.4473-.1387c.0918-.0468.1523,0,.0918.1387a1.2991,1.2991,0,0,1-1.1856.6611,1.0322,1.0322,0,0,1-.9082-.6923.0544.0544,0,0,0-.0781-.0157,2.1508,2.1508,0,0,1-1.5078.6934,1.2783,1.2783,0,0,1-1.2324-1.3242,1.0852,1.0852,0,0,1,.5547-.878c.3691-.2,1.7714-.6152,2.0937-.7392a.2921.2921,0,0,0,.2012-.2305,5.484,5.484,0,0,0,.0293-.708c0-.6318-.1074-1.0625-.3692-1.2627a1.1648,1.1648,0,0,0-.6464-.2461,1.0582,1.0582,0,0,0-.6153.1846.62.62,0,0,0-.2324.3691,1.7843,1.7843,0,0,0-.0137.293.19.19,0,0,1-.0625.123,3.3473,3.3473,0,0,1-.7226.3389c-.0782.0156-.1543-.0771-.1543-.1387,0-.1074.1074-.2461.2929-.4619a3.9937,3.9937,0,0,1,1.17-.8935,2.063,2.063,0,0,1,.9238-.2764A1.2621,1.2621,0,0,1,342.74,140.6566ZM341.707,144.89a.6339.6339,0,0,0,.17-.3692,10.8953,10.8953,0,0,0,.0781-1.4629c0-.0156-.0313-.0918-.0625-.0771a8.74,8.74,0,0,0-1.416.5234.7962.7962,0,0,0-.3848.77.8938.8938,0,0,0,.9238.8623A1.0478,1.0478,0,0,0,341.707,144.89Z"/><path class="cls-4" d="M346.1738,141.8265c0,1.9394.0157,2.6631.0313,2.956.0137.416.1074.5235.5371.6006.0937.0156.2012.0615.2012.1074,0,.0616-.1075.1084-.3086.1084-.2461,0-.8008-.0312-1.0625-.0312-.4,0-.8008.0312-1.0313.0312-.1836,0-.2617-.0156-.2617-.0927s.0781-.0928.2773-.1387c.3848-.0772.4766-.2158.5391-.8926.0313-.57.0918-3.1719.1074-5.0195,0-1.2471.0157-2.51,0-3.1865,0-.3389-.0312-.4161-.4316-.6621-.1074-.0616-.1524-.0928-.1524-.1387s.0918-.0928.2305-.1231a8.0057,8.0057,0,0,0,1.1543-.3545.6473.6473,0,0,1,.1856-.0459c.0293,0,.0449.0918.0449.169,0,.1084-.0606,2.7715-.0606,5.081Z"/><rect class="cls-2" x="284.9848" y="155.1376" width="3.0492" height="8.8065" rx="1.089" transform="translate(108.0382 -115.5754) rotate(27.9171)"/><path class="cls-4" d="M296.1152,154.346c.5078,0,.8457.0615,1.3086.0615.5078,0,.9844-.0615,1.3242-.0615.1368,0,.2305.03.2305.0772,0,.0615-.0625.123-.2305.1386-.6171.0918-.6484.3233-.6777.9541-.0469.77-.0312,2.5557-.0312,3.5108,0,2.2627.0312,3.5566.06,4.0176.0469.5859.1387.6933.5859.8007.2149.0469.2618.0928.2618.17s-.1075.0918-.293.0918c-.2461,0-.6309-.0459-1.0781-.0459-.77,0-1.2149.0771-1.5078.0771-.1387,0-.2461-.0312-.2461-.1084,0-.0459.0761-.0918.3379-.1533.57-.1231.6621-.37.6777-1.293.0312-.8935.0156-5.1426.0156-5.8662a12.73,12.73,0,0,0-.0625-1.4785c-.06-.5078-.2148-.5693-.7383-.6924-.1074-.0312-.17-.0771-.17-.123S295.9766,154.346,296.1152,154.346Z"/><path class="cls-4" d="M305.0293,158.888a3.2159,3.2159,0,0,1,.4922,2.0166c0,.8164.0156.94.0156,1.709.0156,1.0469.0625,1.14.4785,1.2471.1387.0615.2305.0927.2305.1543,0,.0918-.1231.1074-.2773.1074-.2012,0-.6465-.0615-.9864-.0615-.5234,0-.7226.0615-.9531.0615-.1387,0-.2461-.03-.2461-.0928s.0918-.123.291-.1689c.3711-.0928.4317-.2.4317-.6465V161.12c0-1.247-.1075-1.6172-.4922-1.9092a1.3692,1.3692,0,0,0-.877-.2929,1.8426,1.8426,0,0,0-1.2012.4931.7894.7894,0,0,0-.1855.462c0,.1845.0156.97.0156,1.8935a12.6187,12.6187,0,0,0,.0918,1.6162c.0469.3389.2305.416.4785.4932.1836.0459.2618.0771.2618.1533,0,.0928-.1543.0928-.3086.0928-.1231,0-.877-.0615-1.2325-.0615-.1992,0-.5234.0312-.8144.0312-.17,0-.293-.0312-.293-.1084,0-.0615.1387-.123.3223-.1533.3847-.0772.4473-.1856.4629-.4932.0312-1.1084.0312-2.5254.0312-3.7724,0-.1534-.0312-.3233-.4-.5235-.0937-.0615-.123-.0918-.123-.1377,0-.0312.0762-.0771.2148-.124a5.7583,5.7583,0,0,0,1.2168-.5234c.045-.0147.1231.0468.1074.123a6.8831,6.8831,0,0,0-.0312.8164c0,.0313.0469.0772.0762.0459a5.3926,5.3926,0,0,1,1.0937-.6924,2.0779,2.0779,0,0,1,.9082-.1845A1.5707,1.5707,0,0,1,305.0293,158.888Z"/><path class="cls-4" d="M313.2227,161.2737a2.9485,2.9485,0,0,1-2.9258,2.9717,2.9365,2.9365,0,0,1-1.8789-5.2344,3.1639,3.1639,0,0,1,1.8476-.6464A2.8887,2.8887,0,0,1,313.2227,161.2737Zm-4.8047-.2148a3.52,3.52,0,0,0,.6484,2.1094,1.8266,1.8266,0,0,0,1.4473.8154,1.5171,1.5171,0,0,0,.9687-.3848,3.0686,3.0686,0,0,0,.6465-2.0634c0-1.462-.7383-2.9092-2.0937-2.9092C309.25,158.6263,308.418,159.4573,308.418,161.0589Z"/><path class="cls-4" d="M316.3945,159.4886a.8913.8913,0,0,0-.2617.5381,9.3111,9.3111,0,0,0-.0156.9394c0,1.14.0312,1.94.0625,2.2637.06.4766.2461.585.832.6465.2149.03.291.0615.291.1387s-.1386.1074-.3691.1074c-.293,0-.8008-.0615-1.4473-.0615a8.3193,8.3193,0,0,0-.9394.0927c-.1836,0-.2617-.0312-.2617-.0927,0-.0459.1093-.1231.2324-.1543a.6339.6339,0,0,0,.5527-.6309c.0313-.2617.0469-1.14.0469-2.1553v-1.709c0-.1084-.1074-.1543-.4-.4-.1074-.0771-.123-.123-.123-.1542s.0917-.0918.23-.1387a4.6057,4.6057,0,0,0,.9863-.3692.4834.4834,0,0,1,.2305-.0771c.0313,0,.0625.0615.0625.2158,0,.169-.0156.7539-.0156,1.001,0,.0459.0293.0615.0762.0146a2.517,2.517,0,0,1,1.6621-1.1084.8968.8968,0,0,1,.539.2.2676.2676,0,0,1,.1094.2159,1.0522,1.0522,0,0,1-.34.5234c-.1387.123-.1993.1387-.2461.1387a.6946.6946,0,0,1-.2774-.1084,1.0808,1.0808,0,0,0-.539-.1846A1.0526,1.0526,0,0,0,316.3945,159.4886Z"/><path class="cls-4" d="M323.1406,158.6722a1.1253,1.1253,0,0,0,.5391.0771c.293,0,.9082-.0312,1.1387-.0312.0761,0,.1386.1543.1386.3388,0,.1543-.1074.2774-.17.2774-.2148,0-.7695-.0313-.9394-.0313a.1408.1408,0,0,0-.0918.0928c0,.1074.0312.3545.0312.6309a2.5463,2.5463,0,0,1-.9707,2.0791,2.1161,2.1161,0,0,1-1.2012.4,3.781,3.781,0,0,1-.6464-.0772.292.292,0,0,0-.1836.0459,2.3668,2.3668,0,0,0-.5391.5078.4921.4921,0,0,0-.17.3389c0,.4932.6308.6465,1.4316.6465.4785,0,1.3242-.0459,1.7559-.0459a1.59,1.59,0,0,1,1.7246,1.709,3.1089,3.1089,0,0,1-1.7246,2.51,3.675,3.675,0,0,1-1.8633.5078c-1.2324,0-2.2637-.5849-2.2637-1.7246a.9828.9828,0,0,1,.2774-.6621c.1074-.123.6777-.8467.9863-1.1845.0156-.0313.0293-.1241-.0156-.1387-.4317-.0928-1.2481-.6319-1.2481-1.2471a.1925.1925,0,0,1,.0938-.1543,6.7732,6.7732,0,0,0,1.2773-1.14c.0156-.0147,0-.0772-.0312-.0918a2.3247,2.3247,0,0,1-1.1856-1.9248,1.8586,1.8586,0,0,1,.6465-1.4776,2.3694,2.3694,0,0,1,1.6328-.6318A3.4826,3.4826,0,0,1,323.1406,158.6722Zm-2.5722,8.9912a2.1045,2.1045,0,0,0,1.4628.4619,2.394,2.394,0,0,0,1.4317-.3691,2.0553,2.0553,0,0,0,.832-1.586c0-.6465-.4-1.2168-1.3847-1.2168-.586,0-1.34.0157-1.7559.0313a.9448.9448,0,0,0-.5234.1387,1.9427,1.9427,0,0,0-.6621,1.37A1.5778,1.5778,0,0,0,320.5684,167.6634Zm.1386-8.8369a2.1481,2.1481,0,0,0-.414,1.3545,2.7955,2.7955,0,0,0,.4765,1.6474,1.2569,1.2569,0,0,0,.9551.4463c.707,0,1.17-.8467,1.17-1.5547a2.7491,2.7491,0,0,0-.4785-1.7246,1.0824,1.0824,0,0,0-.9238-.5234A1.1611,1.1611,0,0,0,320.707,158.8265Z"/><path class="cls-4" d="M329.2383,159.15a3.7148,3.7148,0,0,1,.2148,1.4c0,.57-.0449,2.0332-.0449,2.4326a.527.527,0,0,0,.5684.585.9883.9883,0,0,0,.4472-.1377c.0918-.0469.1543,0,.0918.1377a1.2939,1.2939,0,0,1-1.1855.6621,1.0343,1.0343,0,0,1-.9082-.6924.0523.0523,0,0,0-.0762-.0156,2.1554,2.1554,0,0,1-1.51.6933,1.2767,1.2767,0,0,1-1.23-1.3242,1.0884,1.0884,0,0,1,.5527-.8779c.3711-.2,1.7715-.6152,2.0957-.7393a.289.289,0,0,0,.1992-.23,5.1363,5.1363,0,0,0,.0313-.708c0-.6319-.1074-1.0625-.3692-1.2627a1.1753,1.1753,0,0,0-.6464-.2461,1.06,1.06,0,0,0-.6172.1845.6167.6167,0,0,0-.2305.3692,1.57,1.57,0,0,0-.0156.293.1973.1973,0,0,1-.0606.123,3.3677,3.3677,0,0,1-.7246.3389c-.0762.0156-.1543-.0772-.1543-.1387,0-.1074.1074-.2461.293-.4619a3.97,3.97,0,0,1,1.17-.8926,2.0542,2.0542,0,0,1,.9238-.2773A1.2623,1.2623,0,0,1,329.2383,159.15Zm-1.0313,4.2334a.6454.6454,0,0,0,.17-.3691,11.3061,11.3061,0,0,0,.0761-1.4629c0-.0156-.0312-.0918-.0625-.0772a8.81,8.81,0,0,0-1.416.5235.7994.7994,0,0,0-.3848.77.895.895,0,0,0,.9239.8623A1.0569,1.0569,0,0,0,328.207,163.3831Z"/><path class="cls-4" d="M336.1992,158.888a3.2159,3.2159,0,0,1,.4922,2.0166c0,.8164.0156.94.0156,1.709.0157,1.0469.0606,1.14.4766,1.2471.1387.0615.2305.0927.2305.1543,0,.0918-.1231.1074-.2774.1074-.1992,0-.6465-.0615-.9844-.0615-.5234,0-.7246.0615-.955.0615-.1387,0-.2461-.03-.2461-.0928s.0918-.123.2929-.1689c.3692-.0928.4317-.2.4317-.6465V161.12c0-1.247-.1094-1.6172-.4942-1.9092a1.3687,1.3687,0,0,0-.8769-.2929,1.8426,1.8426,0,0,0-1.2012.4931.7991.7991,0,0,0-.1836.462c0,.1845.0137.97.0137,1.8935a12.4316,12.4316,0,0,0,.0937,1.6162c.045.3389.23.416.4766.4932.1856.0459.2617.0771.2617.1533,0,.0928-.1543.0928-.3086.0928-.123,0-.8769-.0615-1.23-.0615-.2012,0-.5235.0312-.8164.0312-.17,0-.293-.0312-.293-.1084,0-.0615.1387-.123.3242-.1533.3848-.0772.4453-.1856.4609-.4932.0313-1.1084.0313-2.5254.0313-3.7724,0-.1534-.0313-.3233-.4-.5235-.0918-.0615-.123-.0918-.123-.1377,0-.0312.0761-.0771.2148-.124a5.7162,5.7162,0,0,0,1.2168-.5234c.0469-.0147.123.0468.1074.123a6.8962,6.8962,0,0,0-.0293.8164c0,.0313.0449.0772.0762.0459a5.2908,5.2908,0,0,1,1.0937-.6924,2.0729,2.0729,0,0,1,.9082-.1845A1.5743,1.5743,0,0,1,336.1992,158.888Z"/><path class="cls-4" d="M338.6953,158.8109a7.5529,7.5529,0,0,0,1.1074-.4.6211.6211,0,0,1,.2325-.1075c.0449,0,.0761.0459.0605.2149-.0312.3086-.0312,1.2471-.0312,2.2324,0,1.294,0,2.4326.0312,2.6943.0313.3086.1855.3858.4316.4473.1543.03.23.0615.23.1231,0,.0771-.123.1074-.2461.1074-.1387,0-.709-.0615-1.125-.0615-.5078,0-.7539.0312-.9219.0312-.1093,0-.2168-.0312-.2168-.0928s.0782-.1074.293-.1386c.3379-.0928.4766-.2159.4922-.8467.0156-.4619.0469-3.2637.0469-3.418,0-.2158-.0156-.3076-.4473-.5391-.0762-.0459-.123-.0918-.123-.123C338.51,158.888,338.5566,158.8411,338.6953,158.8109Zm1.5391-2.51a.5858.5858,0,0,1-.57.5849.5477.5477,0,0,1-.5079-.5693.5713.5713,0,0,1,.5391-.6006A.5637.5637,0,0,1,340.2344,156.3011Z"/><path class="cls-4" d="M342.99,161.012a2.5921,2.5921,0,0,0,.77,2.002,2.193,2.193,0,0,0,1.4316.539,2.07,2.07,0,0,0,1.6016-.5849c.0312-.0313.1074-.0469.1074,0a.3911.3911,0,0,1-.1231.2461,2.6618,2.6618,0,0,1-2.125,1.0156,2.8078,2.8078,0,0,1-1.9238-.7539,2.9034,2.9034,0,0,1-.7695-2.0781,2.9389,2.9389,0,0,1,.9394-2.1407,3.3721,3.3721,0,0,1,2.2774-.8925,2.347,2.347,0,0,1,1.4023.3847.355.355,0,0,1,.2149.292.5264.5264,0,0,1-.3848.4932.4708.4708,0,0,1-.2617-.1543,4.2259,4.2259,0,0,0-.8613-.6309,1.38,1.38,0,0,0-.586-.123C344.0527,158.6263,342.99,159.2415,342.99,161.012Z"/><path class="cls-4" d="M51.8354,65.9241a1.6319,1.6319,0,0,1,1.37-1.5088c.0771,0,.1386,0,.1386.0772,0,.0308-.0771.0767-.1694.1074-.4619.2466-.8.5542-.8,1.0469,0,.3237.1538.5083.5693.6162a.3222.3222,0,0,1,.3082.3232.4447.4447,0,0,1-.462.4A.9952.9952,0,0,1,51.8354,65.9241Zm1.9092,0A1.6713,1.6713,0,0,1,55.13,64.4153c.0766,0,.1386.0308.1386.0772,0,.0308-.062.0767-.1543.1074-.4619.2466-.8159.57-.8159,1.0469,0,.3237.1695.5083.585.6162a.3332.3332,0,0,1,.3081.3232.472.472,0,0,1-.4775.4A1.0072,1.0072,0,0,1,53.7446,65.9241Z"/><path class="cls-4" d="M56.2856,65.0775c.3545,0,1.001.0615,1.355.0615.4927,0,1.1548-.0615,1.4317-.0615.2309,0,.2929.0615.2929.0922,0,.0923-.1386.1387-.3081.1695-.37.0459-.539.2461-.539.4311a2.3212,2.3212,0,0,0,.185.7237c.2769.8159,2.1553,5.6811,2.5093,6.4047.0156.0459.0615.0923.0772.0308.246-.5083,2.0478-5.1118,2.31-5.8506a4.5037,4.5037,0,0,0,.3076-1.2163c0-.354-.2924-.4468-.7544-.57-.1538-.0152-.2617-.0767-.2617-.1231,0-.0615.0772-.1079.3081-.1079.3389,0,.9546.0772,1.2779.0772.354,0,.77-.0615,1.0161-.0615.2,0,.2617.0307.2617.0615,0,.0615-.0615.1386-.3081.1845-.585.1695-.8159.4468-1.293,1.5245-.2925.6621-1.1855,2.8637-2.6484,6.4047-.354.8931-.5542,1.4473-.6157,1.6783-.0308.1074-.0923.1845-.1231.1845-.0923,0-.123-.123-.1846-.3232-.5083-1.5244-2.8486-7.4517-3.4336-8.7759a1.0229,1.0229,0,0,0-.8623-.6929c-.1845-.0307-.2924-.0922-.2924-.1538S56.1475,65.0775,56.2856,65.0775Z"/><path class="cls-4" d="M69.1743,65.0311a6.5026,6.5026,0,0,0,.4,1.2934c1.0776,2.8638,1.9092,4.9575,2.8633,7.1284.3852.9082.5391,1.0469.9238,1.1392.1851.0308.2617.0923.2617.1387,0,.0771-.1381.1079-.2768.1079-.2925,0-.5391-.0464-1.3394-.0464-.57,0-1.1548.0615-1.5244.0615-.1694,0-.2617-.0307-.2617-.1079,0-.0615.1387-.123.2925-.1382.6157-.0927.708-.3545.6928-.6928-.0307-.2618-.5542-1.6324-1.0776-2.9869-.0464-.1079-.1387-.185-.2-.185-.5849.0307-2.5249.0307-2.8638.0307-.0771,0-.1694.1695-.2309.2925-.1387.3389-.585,1.4781-.8008,2.2324-.1689.5855-.1689.878,0,1.0474a1.2093,1.2093,0,0,0,.647.2617c.1538.0459.2309.1074.2309.1538,0,.0772-.1386.1079-.3081.1079-.2925,0-.9238-.0771-1.478-.0771-.3848,0-.6772.0771-1.0469.0771-.1694,0-.2617-.0307-.2617-.1079s.1538-.1079.3081-.1386c.708-.1387.8467-.2769,1.4317-1.57.4462-.9546,1.8012-4.3262,2.6943-6.62a1.0789,1.0789,0,0,0,.0923-.4311c0-.0615.0156-.1543.0464-.1695a1.464,1.464,0,0,0,.5542-.8007c.0307-.0616.0459-.1538.1079-.1538S69.1436,64.9388,69.1743,65.0311Zm.6157,5.0654c-.6157-1.74-1.0317-2.7251-1.2622-3.2485-.0464-.1231-.0771-.0772-.1235.0307-.37.8775-1.0005,2.648-1.2163,3.2793-.0151.0308-.0151.1387.0464.1387.2925.0151.6772.0151,1.2163.0151A7.3408,7.3408,0,0,0,69.79,70.25.2274.2274,0,0,0,69.79,70.0965Z"/><path class="cls-4" d="M72.625,65.0775c.3545,0,1.001.0615,1.355.0615.4927,0,1.1548-.0615,1.4316-.0615.231,0,.293.0615.293.0922,0,.0923-.1387.1387-.3081.1695-.37.0459-.5391.2461-.5391.4311a2.3192,2.3192,0,0,0,.1851.7237c.2768.8159,2.1553,5.6811,2.5093,6.4047.0156.0459.0615.0923.0771.0308.2461-.5083,2.0479-5.1118,2.31-5.8506a4.4887,4.4887,0,0,0,.3076-1.2163c0-.354-.2925-.4468-.7544-.57-.1538-.0152-.2617-.0767-.2617-.1231,0-.0615.0771-.1079.3081-.1079.3389,0,.9546.0772,1.2778.0772.354,0,.77-.0615,1.0161-.0615.2,0,.2618.0307.2618.0615,0,.0615-.0616.1386-.3082.1845-.5849.1695-.8159.4468-1.2929,1.5245-.2925.6621-1.1856,2.8637-2.6485,6.4047-.354.8931-.5542,1.4473-.6157,1.6783-.0307.1074-.0923.1845-.123.1845-.0923,0-.1231-.123-.1846-.3232-.5083-1.5244-2.8486-7.4517-3.4336-8.7759a1.023,1.023,0,0,0-.8623-.6929c-.1846-.0307-.2925-.0922-.2925-.1538S72.4868,65.0775,72.625,65.0775Z"/><path class="cls-4" d="M82.5269,65.0775c.3544,0,1.0009.0615,1.3549.0615.4927,0,1.1548-.0615,1.4317-.0615.2309,0,.2929.0615.2929.0922,0,.0923-.1386.1387-.3081.1695-.37.0459-.539.2461-.539.4311a2.3212,2.3212,0,0,0,.185.7237c.2769.8159,2.1553,5.6811,2.5093,6.4047.0156.0459.0615.0923.0772.0308.2461-.5083,2.0478-5.1118,2.31-5.8506a4.5037,4.5037,0,0,0,.3076-1.2163c0-.354-.2924-.4468-.7543-.57-.1539-.0152-.2618-.0767-.2618-.1231,0-.0615.0772-.1079.3081-.1079.3389,0,.9546.0772,1.2779.0772.354,0,.77-.0615,1.0161-.0615.2,0,.2617.0307.2617.0615,0,.0615-.0615.1386-.3081.1845-.585.1695-.8159.4468-1.293,1.5245-.2924.6621-1.1855,2.8637-2.6484,6.4047-.354.8931-.5542,1.4473-.6157,1.6783-.0308.1074-.0923.1845-.1231.1845-.0923,0-.123-.123-.1845-.3232-.5083-1.5244-2.8487-7.4517-3.4336-8.7759a1.0231,1.0231,0,0,0-.8623-.6929c-.1846-.0307-.2925-.0922-.2925-.1538S82.3887,65.0775,82.5269,65.0775Z"/><path class="cls-4" d="M96.2476,70.2044a.7749.7749,0,0,0-.1538.5693,30.5074,30.5074,0,0,0,.0771,3.3106.5441.5441,0,0,0,.4927.5234c.2309.0459.3384.0767.3384.1538,0,.0464-.0923.0923-.231.0923-.4307,0-.8311-.0615-1.2778-.0615-.4771,0-.708.0615-1.0005.0615-.1695,0-.2466-.0307-.2466-.0923s.0615-.0922.2466-.1386c.4463-.1079.5542-.1538.5693-.7388.0464-.6162.062-2.0322.062-4.4805,0-2.3247.0308-3.2641,0-3.8491-.0156-.4927-.1235-.5386-.4619-.7236-.062-.0459-.1079-.0767-.1079-.1231s.0923-.0923.2617-.1386a6.3732,6.3732,0,0,0,1.124-.37.3373.3373,0,0,1,.1539-.0615c.0463,0,.0922.1079.0771.3237-.0156.4156-.0771,5.1885-.0615,5.481,0,.0615.0459.0766.0615.0459a5.0758,5.0758,0,0,1,.9238-.6314,2.42,2.42,0,0,1,1.0777-.2617,1.6407,1.6407,0,0,1,1.3857.6929,2.9716,2.9716,0,0,1,.3384,1.6475c.0156,1.1547.0156,2.1093.0307,2.6943,0,.3081.0616.416.5235.4927.2.0464.2466.0771.2466.1386s-.1079.1079-.2466.1079c-.4,0-.6929-.0771-1.1084-.0771-.5235,0-.6465.0615-1,.0615-.1851,0-.2466-.0459-.2466-.0923,0-.0615.0772-.0922.231-.123.4155-.0923.4463-.2.5083-.647.0307-.354.0615-1.0312.0615-2.6323a2.466,2.466,0,0,0-.231-1.1548,1.1524,1.1524,0,0,0-1.0625-.57A1.8606,1.8606,0,0,0,96.2476,70.2044Z"/><path class="cls-4" d="M104.9175,69.8812a3.7139,3.7139,0,0,1,.2158,1.4008c0,.57-.0464,2.0323-.0464,2.4327a.5276.5276,0,0,0,.57.5849.98.98,0,0,0,.4463-.1387c.0923-.0458.1538,0,.0923.1387a1.2968,1.2968,0,0,1-1.1855.6621,1.0337,1.0337,0,0,1-.9082-.6928.0541.0541,0,0,0-.0772-.0157,2.1535,2.1535,0,0,1-1.5088.6929,1.277,1.277,0,0,1-1.2314-1.3237,1.0858,1.0858,0,0,1,.5542-.878c.37-.2,1.7705-.6157,2.0937-.7387a.2919.2919,0,0,0,.2-.231,5.2191,5.2191,0,0,0,.0308-.7085c0-.6308-.1079-1.062-.37-1.2622a1.1752,1.1752,0,0,0-.6465-.2466,1.06,1.06,0,0,0-.6158.1851.615.615,0,0,0-.2309.3691,1.5751,1.5751,0,0,0-.0156.293.19.19,0,0,1-.0616.123,3.3076,3.3076,0,0,1-.7236.3389c-.0766.0152-.1538-.0771-.1538-.1387,0-.1079.1079-.2465.2925-.4619a4,4,0,0,1,1.17-.893,2.07,2.07,0,0,1,.9238-.2774A1.2617,1.2617,0,0,1,104.9175,69.8812Zm-1.0313,4.2339a.6379.6379,0,0,0,.169-.37,10.9949,10.9949,0,0,0,.0771-1.4629c0-.0151-.0307-.0923-.0615-.0766a8.65,8.65,0,0,0-1.4165.5234.7967.7967,0,0,0-.3848.77.8941.8941,0,0,0,.9239.8623A1.0564,1.0564,0,0,0,103.8862,74.1151Z"/><path class="cls-4" d="M107.9058,70.2811c0,.6469.5849,1.0161.97,1.247,1.001.647,1.4009,1.0318,1.4009,1.8169a1.5815,1.5815,0,0,1-.8,1.2935,2.5616,2.5616,0,0,1-1.232.3384,3.14,3.14,0,0,1-1.2163-.2769c-.123-.0464-.2309-.1538-.2309-.2466,0-.2153-.0308-.6-.0459-.77-.0308-.2.0151-.2466.0459-.2466.0464,0,.0927,0,.2.2925a1.5,1.5,0,0,0,.6469.8315,1.1794,1.1794,0,0,0,.6929.1846,1.0551,1.0551,0,0,0,1.0005-1.0312c0-.585-.4-.9087-1.0161-1.2935-.6621-.4311-1.2778-1.0005-1.2778-1.6782a1.46,1.46,0,0,1,.5849-1.2163,1.9911,1.9911,0,0,1,1.2935-.4312,3.7683,3.7683,0,0,1,1.0469.1695.249.249,0,0,1,.0766.1386c.0156.1695.0772.4776.0928.7237,0,.1694-.0308.2465-.0772.2465-.0615,0-.0922-.0771-.1386-.185a1.1712,1.1712,0,0,0-.3692-.6314,1.2655,1.2655,0,0,0-.7236-.2309A.897.897,0,0,0,107.9058,70.2811Z"/><path class="cls-4" d="M114.0806,70.05c0-.1074-.0152-.1846-.0767-.2-.0771,0-.2466,0-.4311-.0151-.108-.0156-.2-.0923-.2-.1231,0-.0464.0766-.0923.1845-.1543s.231-.1381.37-.2309a.2982.2982,0,0,0,.1538-.2154,9.8293,9.8293,0,0,1,.2617-2.5249,3.5456,3.5456,0,0,1,1.5552-2.0478,2.52,2.52,0,0,1,1.3857-.4155c.6309,0,1.0469.2617,1.0469.4926a.756.756,0,0,1-.3848.5079.2777.2777,0,0,1-.3081-.0308,1.82,1.82,0,0,0-1.0933-.5234c-.6928,0-1.2314.4467-1.3857,2.0942-.0459.477-.0767,1.57-.0767,2.0474a4.5486,4.5486,0,0,0,.0152.4926.1213.1213,0,0,0,.1235.0923c.1382,0,1.4468-.0307,1.6162-.0307.0615,0,.1236.0922.1236.2773,0,.2153-.0313.2769-.2159.2769-.2461,0-1.3549-.0308-1.57-.0308-.0464,0-.0771.1235-.0771.1387,0,.57.0307,3.3715.0464,3.8183.0459.585.1694.708.3232.7544.1231.0464.2925.0464.4927.0923.1846.0464.2773.0772.2773.1387,0,.0771-.1079.1079-.2466.1079-.4462,0-.6928-.0464-1.478-.0464-.354,0-.6929.0464-.9546.0615-.1386,0-.2309-.0307-.2309-.0923s.1079-.1079.3081-.1538c.37-.0927.4463-.3081.4463-.8623Z"/><path class="cls-4" d="M123.1191,72.0057a2.9485,2.9485,0,0,1-2.9253,2.9712,2.936,2.936,0,0,1-1.8784-5.2344,3.1608,3.1608,0,0,1,1.8477-.647A2.89,2.89,0,0,1,123.1191,72.0057Zm-4.8037-.2158a3.5237,3.5237,0,0,0,.6465,2.1093,1.83,1.83,0,0,0,1.4473.8159,1.5216,1.5216,0,0,0,.97-.3847,3.0682,3.0682,0,0,0,.6465-2.063c0-1.4629-.7393-2.91-2.0938-2.91C119.1465,69.3572,118.3154,70.1888,118.3154,71.79Z"/><path class="cls-4" d="M124.876,74.3768a1.6134,1.6134,0,0,1-.2925-.94c0-.5078,0-3.11-.0308-3.3716a.6.6,0,0,0-.3388-.5083c-.1387-.0923-.1846-.1381-.1846-.1845s.0767-.0772.2461-.0772a5.4,5.4,0,0,0,1.2934-.2c.0464-.0151.0923.0772.0772.1695-.0464.8779-.062,2.9716-.0464,3.68a1.7025,1.7025,0,0,0,.231,1.0162,1.1316,1.1316,0,0,0,.8623.3852,1.7273,1.7273,0,0,0,1.3086-.4927.9431.9431,0,0,0,.2768-.7085c.0308-.4155.0308-1.0161.0308-1.57,0-.2309-.0152-.9546-.0152-1.355-.0156-.5234-.1694-.6-.6772-.708-.1694-.0307-.2466-.0771-.2466-.123,0-.062.1387-.0928.231-.0928h.6465a8.16,8.16,0,0,0,1.0625-.0923c.0463,0,.0771.0616.0615.1695-.0772.7236-.1079,2.2631-.1079,4.0493a5.1637,5.1637,0,0,0,.0307.7851c.0313.1538.0772.1846.2.1695a4.3278,4.3278,0,0,1,.6314-.1387.1852.1852,0,0,1,.185.1694c0,.0616-.1386.0923-.2929.1231a6.9485,6.9485,0,0,0-1.5855.4155c-.1235.0615-.1543.0464-.185,0s-.0308-.123-.0308-.2925c0-.1538.0156-.4927.0156-.6006,0-.0459-.0156-.1538-.0464-.1074a4.4292,4.4292,0,0,1-1.062.7544,2.6374,2.6374,0,0,1-.9087.231A1.5131,1.5131,0,0,1,124.876,74.3768Z"/><path class="cls-4" d="M135.6084,69.6194a3.2077,3.2077,0,0,1,.4927,2.0166c0,.816.0156.94.0156,1.709.0151,1.0469.0615,1.1392.4771,1.2471.1386.0615.2309.0923.2309.1538,0,.0928-.123.1079-.2768.1079-.2,0-.647-.0615-.9854-.0615-.5234,0-.7236.0615-.9546.0615-.1387,0-.2466-.0307-.2466-.0923s.0923-.123.2925-.1694c.37-.0923.4312-.2.4312-.6465V71.8519c0-1.2471-.1075-1.6167-.4927-1.9092a1.367,1.367,0,0,0-.8775-.2925,1.8393,1.8393,0,0,0-1.2006.4927.7958.7958,0,0,0-.1851.4619c0,.1846.0156.97.0156,1.8936a12.6091,12.6091,0,0,0,.0923,1.6167c.0459.3383.231.4155.4771.4926.185.0459.2617.0767.2617.1538,0,.0923-.1538.0923-.3076.0923-.1231,0-.8775-.0615-1.232-.0615-.2,0-.5234.0308-.8159.0308-.1694,0-.2925-.0308-.2925-.108,0-.0615.1387-.123.3233-.1538.3847-.0771.4468-.1845.4619-.4926.0308-1.1084.0308-2.5249.0308-3.772,0-.1538-.0308-.3233-.4-.5234-.0923-.0616-.1231-.0923-.1231-.1387,0-.0308.0772-.0772.2158-.1231a5.7894,5.7894,0,0,0,1.2163-.5234c.0459-.0156.1231.0459.1075.123a7.07,7.07,0,0,0-.0308.816c0,.0307.0464.0771.0771.0463a5.299,5.299,0,0,1,1.0933-.6928,2.0769,2.0769,0,0,1,.9082-.1851A1.57,1.57,0,0,1,135.6084,69.6194Z"/><path class="cls-4" d="M141.8457,69.25c.0308.0152.0767-.0464.0767-.0771,0-.2769-.0152-3.0025-.0308-3.8184a.41.41,0,0,0-.0615-.2617.8406.8406,0,0,0-.4312-.2461c-.1074-.0308-.1845-.0772-.1845-.1231s.0771-.0927.1845-.1079a6.472,6.472,0,0,0,1.3242-.37.5215.5215,0,0,1,.2154-.0771c.0464,0,.0771.0771.062.2617-.0313.4619-.1079,5.4658-.1079,7.0361,0,1.3394.0151,2.4019.0307,2.8023a.1365.1365,0,0,0,.1079.1386,4.02,4.02,0,0,0,.7237-.1694c.0923-.0308.1382.0151.1382.0615,0,.1079-.1075.2466-.3848.2925a8.6642,8.6642,0,0,0-1.6011.4c-.0615.0151-.1079-.0615-.1079-.1079a4.5958,4.5958,0,0,0,.0308-.6314c0-.0307-.0308-.0615-.0615-.0307a2.89,2.89,0,0,1-1.7554.7236,2.5117,2.5117,0,0,1-1.6319-.6465,2.9188,2.9188,0,0,1-.8-2.063,3.0637,3.0637,0,0,1,1.3393-2.54,3.46,3.46,0,0,1,1.9092-.585A4.257,4.257,0,0,1,141.8457,69.25Zm-2.2939.4155a2.7327,2.7327,0,0,0-.8472,2.2325c0,1.6631.9394,2.5249,1.8784,2.5249a1.6056,1.6056,0,0,0,1.0933-.4,1.042,1.042,0,0,0,.1694-.5694,21.36,21.36,0,0,0-.0156-2.9716,1.0162,1.0162,0,0,0-.1387-.37,1.7141,1.7141,0,0,0-1.37-.708A1.1351,1.1351,0,0,0,139.5518,69.6653Z"/><path class="cls-4" d="M62.0132,84.325a1.8445,1.8445,0,0,1-.7544,1.4629c-.2774.2153-.5391.3848-.8623.6157-.0308.0157-.0308.0464,0,.0772A3.5382,3.5382,0,0,1,62.1211,89.19a2.4618,2.4618,0,0,1-1.0781,2.0479,2.8417,2.8417,0,0,1-1.6162.5542,2.3963,2.3963,0,0,1-2.6329-2.2632,2.13,2.13,0,0,1,1.0005-1.7246c.2159-.1694.4776-.3076.7085-.477a.0526.0526,0,0,0,.0152-.0923,3.8237,3.8237,0,0,1-1.6162-2.6177,2.2239,2.2239,0,0,1,1.062-1.9551,2.8394,2.8394,0,0,1,1.5551-.4619A2.2188,2.2188,0,0,1,62.0132,84.325ZM60.32,91.33a1.4638,1.4638,0,0,0,.5542-1.2778c0-.9854-1.001-1.8628-2.0014-2.6021a.1113.1113,0,0,0-.1387.0156,2.2075,2.2075,0,0,0-.8008,1.8472,2.14,2.14,0,0,0,1.6631,2.248A1.1636,1.1636,0,0,0,60.32,91.33Zm-2.1709-7.39c0,.816.9854,1.6934,1.9551,2.3248a.0819.0819,0,0,0,.1079-.0152,2.6262,2.6262,0,0,0,.6773-1.8325c0-.6924-.4771-2.0015-1.5547-2.0015A1.4223,1.4223,0,0,0,58.1489,83.94Z"/><path class="cls-4" d="M66.9419,88.4207a2.7275,2.7275,0,0,0,.647,1.8936,2.0366,2.0366,0,0,0,1.3393.5385,1.9417,1.9417,0,0,0,1.4937-.5234c.0766-.0615.1382-.0615.1382,0a.5472.5472,0,0,1-.1231.2774,2.5753,2.5753,0,0,1-2.1709,1.1391,2.8326,2.8326,0,0,1-1.77-5.019,3.8352,3.8352,0,0,1,2.2632-.8775,2.3577,2.3577,0,0,1,1.5088.4156.4172.4172,0,0,1,.185.2924.5691.5691,0,0,1-.4926.6006.612.612,0,0,1-.2618-.1387,6.8752,6.8752,0,0,0-.97-.7236,1.189,1.189,0,0,0-.57-.123C67.7427,86.1727,66.9419,86.681,66.9419,88.4207Z"/><path class="cls-4" d="M77.32,88.7591a3.082,3.082,0,0,1-1.2007,2.4175,3.2584,3.2584,0,0,1-1.8476.6,2.9773,2.9773,0,0,1-3.0947-2.94A2.8314,2.8314,0,0,1,72.27,86.5574a3.1374,3.1374,0,0,1,1.9707-.708A2.9212,2.9212,0,0,1,77.32,88.7591Zm-4.5107-.3384a4.62,4.62,0,0,0,.477,2.2632,1.49,1.49,0,0,0,1.17.8467.9134.9134,0,0,0,.7081-.354,3.6417,3.6417,0,0,0,.5083-2.0943c0-1.7548-.4927-2.9712-1.5708-2.9712C73.44,86.1111,72.8091,87.0809,72.8091,88.4207Z"/><path class="cls-4" d="M83.4033,86.3729a2.7323,2.7323,0,0,1,.5391,1.94c.0151.8931.0307,1.0469.0307,1.9092.0157.9546.0923,1.0776.5083,1.1855.0767.0308.169.0616.169.1382,0,.062-.0767.0928-.2153.0928-.354,0-.8623-.0464-1.17-.0464a12.1351,12.1351,0,0,0-1.2783.0615c-.1538,0-.2617-.0459-.2617-.1079s.0928-.1074.231-.1382c.416-.1235.4926-.2309.4926-.5854V88.5589c0-1.1855-.0923-1.5088-.4619-1.8013a1.2259,1.2259,0,0,0-.7231-.2153,1.3842,1.3842,0,0,0-.8316.2925.4617.4617,0,0,0-.1538.3232c0,.2925.0152,1.0161.0152,1.8013.0156.9546.0463,1.7246.0615,1.9092a.52.52,0,0,0,.4311.5234c.1846.0464.2466.0772.2466.1538,0,.0928-.1694.1079-.2773.1079-.1538,0-1.0318-.0615-1.3858-.0615-.2,0-.6006.0308-1.062.0308-.1694,0-.293-.0464-.293-.1231,0-.0615.1387-.123.2774-.1538.4311-.0771.4619-.2.477-.5547.0313-.8926.0464-2.2324.0464-3.6489,0-.1538-.0464-.2769-.354-.4927-.1386-.0923-.123-.123-.123-.1538,0-.0459.0766-.0923.2153-.123a7.8567,7.8567,0,0,0,1.6318-.6314c.0464-.0151.1236.0464.1236.1231a5.9916,5.9916,0,0,0-.0308.77c0,.0307.0459.0464.0767.0151a4.42,4.42,0,0,1,.9087-.6,2.2313,2.2313,0,0,1,.9082-.2A1.5932,1.5932,0,0,1,83.4033,86.3729Z"/><path class="cls-4" d="M85.9609,91.0379a1.9205,1.9205,0,0,1-.1845-.9546V86.9271a.2656.2656,0,0,0-.1079-.2618,1.0425,1.0425,0,0,0-.2461-.0922c-.1236-.0308-.2-.0772-.2-.1538,0-.0464.0766-.1236.2461-.2159A5.0809,5.0809,0,0,0,86.9155,85.11c.231-.231.3389-.1695.3389-.0923,0,.1079-.0308.7544-.0156.8774,0,.0464.0156.1543.0771.1543.2925-.0156,1.3242-.0464,1.57-.0307a.2993.2993,0,0,1,.1231.2768c0,.3389-.1074.354-.169.354H87.4854c-.1851,0-.2159.062-.2159.1387,0,.3389-.0151,2.8022,0,3.2026a1.1013,1.1013,0,0,0,.1695.708.9511.9511,0,0,0,.7392.3389,1.2362,1.2362,0,0,0,.708-.1851c.1538-.0922.2-.0459.2,0,0,.0928-.0771.2159-.3232.4161a2.121,2.121,0,0,1-1.3858.4619A1.5107,1.5107,0,0,1,85.9609,91.0379Z"/><path class="cls-4" d="M93.49,86.4808a2.764,2.764,0,0,1,.3848,1.54c0,.7388-.0308,2.0323-.0308,2.4326a.4981.4981,0,0,0,.5083.4927.84.84,0,0,0,.4312-.1235c.0615-.0459.123.062.0767.1543a1.5761,1.5761,0,0,1-1.4161.8,1.1112,1.1112,0,0,1-1.0317-.7237c0-.0151-.0464-.0307-.0772-.0151a1.9629,1.9629,0,0,1-1.4931.708,1.3257,1.3257,0,0,1-1.2471-1.3852,1.1054,1.1054,0,0,1,.5694-.9546c.4-.2,1.6782-.524,2.0942-.6929a.3083.3083,0,0,0,.2-.231,6.117,6.117,0,0,0,.0151-.7392,1.3692,1.3692,0,0,0-.3388-1.1084.9437.9437,0,0,0-.6-.2617,1.1613,1.1613,0,0,0-.5391.1386.3765.3765,0,0,0-.1538.2618c0,.0766.0151.3076.0151.4462a.2762.2762,0,0,1-.0923.1231,5.3627,5.3627,0,0,1-.9389.4927.185.185,0,0,1-.1851-.169,1.262,1.262,0,0,1,.4-.647,4.2629,4.2629,0,0,1,1.17-.8466,2.6238,2.6238,0,0,1,1.0313-.3233A1.4833,1.4833,0,0,1,93.49,86.4808Zm-1.247,4.372a.6357.6357,0,0,0,.1386-.3076,14.7466,14.7466,0,0,0,.0772-1.5395c0-.0156-.0308-.1079-.0928-.0923a5.2577,5.2577,0,0,0-.9853.3848.8387.8387,0,0,0-.4463.8.8763.8763,0,0,0,.8315.9395A.6133.6133,0,0,0,92.2432,90.8528Z"/><path class="cls-4" d="M95.4624,86.5423c0-.0464.0923-.1079.2-.123a4.8486,4.8486,0,0,0,1.4009-.5547.531.531,0,0,1,.2768-.1075c.062,0,.0772.0767.0772.1538,0,.1695,0,.5542-.0152.7081,0,.0771.0152.1386.0767.0771a2.9487,2.9487,0,0,1,1.8784-.8315,1.5868,1.5868,0,0,1,1.478.97.0747.0747,0,0,0,.108.0151,2.9474,2.9474,0,0,1,2.0322-.97,1.6112,1.6112,0,0,1,1.54,1.1391,4.9725,4.9725,0,0,1,.1846,1.4322c.0156.5078.0464,1.7241.0615,2.2475s.1695.6158.4468.6621c.1538.0464.2461.108.2461.1387,0,.0767-.0923.1387-.2925.1387-.1694,0-.8-.0464-1.1548-.0464-.3691,0-.9233.0615-1.1543.0615-.2,0-.2773-.0307-.2773-.1079s.123-.123.231-.1538c.3232-.0771.4155-.2461.4155-.6929a21.0663,21.0663,0,0,0-.1074-3.0327c-.1387-.7856-.5391-1.0473-1.14-1.0473a1.4733,1.4733,0,0,0-.939.4.5424.5424,0,0,0-.0615.3082c.0923.6.0923,3.0175.1074,3.4331.0464.4311.0928.5234.4312.6162.1543.0615.231.1074.231.1689s-.1075.0928-.231.0928c-.5234,0-.7544-.0464-1.4473-.0464-.354,0-.7851.0464-.9546.0464-.2153,0-.2617-.0308-.2617-.0928,0-.0459.062-.1074.2158-.1538.3233-.0771.462-.2.462-.57l.0459-2.4634c0-.8159-.0459-1.1392-.354-1.478a1.1008,1.1008,0,0,0-.7852-.3076,1.2425,1.2425,0,0,0-.8774.3383.9927.9927,0,0,0-.1231.2622c-.0156.2-.0308.5235-.0308,1.1851a22.2509,22.2509,0,0,0,.0767,2.6328c.0308.2158.1079.3081.4.3853.1694.0615.231.1074.231.1538,0,.0771-.108.1079-.231.1079-.2773,0-.8623-.0464-1.2315-.0464-.6469,0-.9238.0464-1.2934.0464-.1387,0-.2466-.0464-.2466-.1079,0-.0772.0928-.1079.2774-.1538.3847-.0928.477-.231.4926-.5083.0308-.2461.0464-2.0938.0464-2.648,0-.3852.0152-.7851-.0156-1.0317,0-.1538-.0772-.2925-.3081-.4619-.0923-.0772-.1231-.1079-.1231-.1846Z"/><path class="cls-4" d="M106.4116,86.3265a6.9682,6.9682,0,0,0,1.5088-.4619,1.3562,1.3562,0,0,1,.231-.0923c.0459,0,.0766.0464.0615.2158-.0308.3232-.0308,1.1084-.0308,1.7549,0,1.7246,0,2.956.0308,3.187a.4654.4654,0,0,0,.4155.4775c.1695.0459.2154.0923.2154.1538,0,.0772-.1075.108-.231.108-.2617,0-.6157-.0772-1.2622-.0772-.6773,0-1.0318.0308-1.2012.0308-.1382,0-.2617-.0464-.2617-.1079,0-.0767.0928-.1075.2773-.1382.4-.0928.5083-.293.5083-.8316,0-.4619.0459-3.1406.0459-3.2949,0-.2925,0-.354-.4-.6313-.0766-.0616-.123-.1075-.123-.169C106.1958,86.4193,106.2422,86.3729,106.4116,86.3265Zm1.8321-2.4478a.7373.7373,0,0,1-.7544.77.6966.6966,0,0,1-.647-.7081.7365.7365,0,0,1,.7236-.7851A.7244.7244,0,0,1,108.2437,83.8787Z"/><path class="cls-4" d="M114.71,86.3729a2.7318,2.7318,0,0,1,.5391,1.94c.0156.8931.0308,1.0469.0308,1.9092.0156.9546.0923,1.0776.5083,1.1855.0766.0308.1689.0616.1689.1382,0,.062-.0766.0928-.2153.0928-.354,0-.8623-.0464-1.17-.0464a12.1077,12.1077,0,0,0-1.2779.0615c-.1543,0-.2622-.0459-.2622-.1079s.0928-.1074.231-.1382c.416-.1235.4927-.2309.4927-.5854V88.5589c0-1.1855-.0923-1.5088-.4615-1.8013a1.2282,1.2282,0,0,0-.7236-.2153,1.3838,1.3838,0,0,0-.8315.2925.4614.4614,0,0,0-.1539.3232c0,.2925.0152,1.0161.0152,1.8013.0156.9546.0464,1.7246.0615,1.9092a.52.52,0,0,0,.4312.5234c.1845.0464.2465.0772.2465.1538,0,.0928-.1694.1079-.2773.1079-.1538,0-1.0317-.0615-1.3857-.0615-.2,0-.6006.0308-1.0621.0308-.1694,0-.2929-.0464-.2929-.1231,0-.0615.1386-.123.2773-.1538.4312-.0771.4619-.2.4771-.5547.0312-.8926.0464-2.2324.0464-3.6489,0-.1538-.0464-.2769-.354-.4927-.1387-.0923-.1231-.123-.1231-.1538,0-.0459.0767-.0923.2153-.123a7.8579,7.8579,0,0,0,1.6319-.6314c.0464-.0151.1235.0464.1235.1231a5.9916,5.9916,0,0,0-.0308.77c0,.0307.0459.0464.0767.0151a4.42,4.42,0,0,1,.9087-.6,2.232,2.232,0,0,1,.9082-.2A1.5932,1.5932,0,0,1,114.71,86.3729Z"/><path class="cls-4" d="M120.4551,86.4808a2.7639,2.7639,0,0,1,.3847,1.54c0,.7388-.0307,2.0323-.0307,2.4326a.498.498,0,0,0,.5083.4927.84.84,0,0,0,.4311-.1235c.0616-.0459.1231.062.0767.1543a1.5759,1.5759,0,0,1-1.416.8,1.1114,1.1114,0,0,1-1.0318-.7237c0-.0151-.0463-.0307-.0771-.0151a1.9631,1.9631,0,0,1-1.4932.708,1.3256,1.3256,0,0,1-1.247-1.3852,1.1055,1.1055,0,0,1,.5693-.9546c.4-.2,1.6782-.524,2.0942-.6929a.3079.3079,0,0,0,.2-.231,6.0979,6.0979,0,0,0,.0152-.7392,1.3692,1.3692,0,0,0-.3389-1.1084.9435.9435,0,0,0-.6-.2617,1.1613,1.1613,0,0,0-.5391.1386.3772.3772,0,0,0-.1538.2618c0,.0766.0152.3076.0152.4462a.2762.2762,0,0,1-.0923.1231,5.3637,5.3637,0,0,1-.939.4927.1849.1849,0,0,1-.185-.169,1.2624,1.2624,0,0,1,.4-.647,4.2637,4.2637,0,0,1,1.1705-.8466,2.6229,2.6229,0,0,1,1.0312-.3233A1.4835,1.4835,0,0,1,120.4551,86.4808Zm-1.2471,4.372a.6357.6357,0,0,0,.1387-.3076,14.7828,14.7828,0,0,0,.0771-1.5395c0-.0156-.0307-.1079-.0927-.0923a5.2582,5.2582,0,0,0-.9854.3848.8387.8387,0,0,0-.4463.8.8763.8763,0,0,0,.8316.9395A.6131.6131,0,0,0,119.208,90.8528Z"/><path class="cls-4" d="M127.4922,86.3729a2.7323,2.7323,0,0,1,.539,1.94c.0152.8931.0308,1.0469.0308,1.9092.0156.9546.0923,1.0776.5083,1.1855.0767.0308.169.0616.169.1382,0,.062-.0767.0928-.2154.0928-.354,0-.8623-.0464-1.17-.0464a12.1328,12.1328,0,0,0-1.2783.0615c-.1538,0-.2617-.0459-.2617-.1079s.0927-.1074.2309-.1382c.416-.1235.4927-.2309.4927-.5854V88.5589c0-1.1855-.0923-1.5088-.4619-1.8013a1.226,1.226,0,0,0-.7232-.2153,1.3841,1.3841,0,0,0-.8315.2925.4613.4613,0,0,0-.1538.3232c0,.2925.0151,1.0161.0151,1.8013.0156.9546.0464,1.7246.0615,1.9092a.52.52,0,0,0,.4312.5234c.1846.0464.2466.0772.2466.1538,0,.0928-.1695.1079-.2774.1079-.1538,0-1.0317-.0615-1.3857-.0615-.2,0-.6006.0308-1.062.0308-.1694,0-.293-.0464-.293-.1231,0-.0615.1387-.123.2774-.1538.4311-.0771.4619-.2.477-.5547.0313-.8926.0464-2.2324.0464-3.6489,0-.1538-.0464-.2769-.354-.4927-.1387-.0923-.1231-.123-.1231-.1538,0-.0459.0767-.0923.2154-.123a7.859,7.859,0,0,0,1.6318-.6314c.0464-.0151.1235.0464.1235.1231a5.9926,5.9926,0,0,0-.0307.77c0,.0307.0459.0464.0766.0151a4.4229,4.4229,0,0,1,.9087-.6,2.232,2.232,0,0,1,.9082-.2A1.5934,1.5934,0,0,1,127.4922,86.3729Z"/><path class="cls-4" d="M130.05,91.0379a1.9194,1.9194,0,0,1-.1846-.9546V86.9271a.2654.2654,0,0,0-.1079-.2618,1.0407,1.0407,0,0,0-.2461-.0922c-.1235-.0308-.2-.0772-.2-.1538,0-.0464.0767-.1236.2461-.2159a5.0811,5.0811,0,0,0,1.4473-1.0932c.231-.231.3389-.1695.3389-.0923,0,.1079-.0308.7544-.0157.8774,0,.0464.0157.1543.0772.1543.2925-.0156,1.3242-.0464,1.57-.0307a.2993.2993,0,0,1,.123.2768c0,.3389-.1074.354-.1689.354h-1.355c-.185,0-.2158.062-.2158.1387,0,.3389-.0151,2.8022,0,3.2026a1.1014,1.1014,0,0,0,.1694.708.9514.9514,0,0,0,.7393.3389,1.2364,1.2364,0,0,0,.708-.1851c.1538-.0922.2-.0459.2,0,0,.0928-.0772.2159-.3232.4161a2.1211,2.1211,0,0,1-1.3858.4619A1.5106,1.5106,0,0,1,130.05,91.0379Z"/><path class="cls-4" d="M135.0239,86.9271c0,.6005.5235.893,1.1543,1.2934.97.6465,1.34,1.0469,1.34,1.8321a1.7175,1.7175,0,0,1-.7085,1.2934,3.0149,3.0149,0,0,1-1.5088.4307,4.2679,4.2679,0,0,1-1.3394-.2617c-.1079-.0459-.2617-.1846-.2617-.2925-.0156-.2154-.0615-.6929-.0771-.8467-.0152-.2.0156-.3081.0771-.3081.0464,0,.1079.0464.2.3237a1.9367,1.9367,0,0,0,.6465.9234,1.142,1.142,0,0,0,.77.2.9217.9217,0,0,0,.9238-.8619c0-.4467-.3237-.77-1.1089-1.2627a2.2853,2.2853,0,0,1-1.247-1.8012,1.5842,1.5842,0,0,1,.7544-1.37,2.3116,2.3116,0,0,1,1.3091-.37,3.5516,3.5516,0,0,1,1.2006.2.2034.2034,0,0,1,.0923.1538c0,.1538.0615.4312.0772.8316.0151.1694-.0308.2461-.0923.2461s-.0928-.0767-.1387-.2a1.4117,1.4117,0,0,0-.3848-.708,1.2847,1.2847,0,0,0-.8007-.2774A.887.887,0,0,0,135.0239,86.9271Z"/><path class="cls-4" d="M56.7783,103.1419a7.6083,7.6083,0,0,0,1.1084-.4.64.64,0,0,1,.231-.1074c.0464,0,.0771.0469.0615.2158-.0308.3076-.0308,1.2471-.0308,2.2324,0,1.293,0,2.4327.0308,2.6944.0308.3076.1851.3847.4312.4463.1538.03.2309.0615.2309.123,0,.0772-.123.1084-.2461.1084-.1387,0-.7085-.0625-1.124-.0625-.5083,0-.7544.0313-.9238.0313-.1079,0-.2154-.0313-.2154-.0918,0-.0625.0767-.1084.2925-.1387.3384-.0928.4771-.2158.4927-.8477.0151-.4609.0459-3.2636.0459-3.4179,0-.2149-.0152-.3077-.4463-.5391-.0772-.0449-.123-.0918-.123-.123C56.5938,103.2191,56.64,103.1732,56.7783,103.1419Zm1.54-2.5093a.587.587,0,0,1-.57.5855.5482.5482,0,0,1-.5078-.57.5706.5706,0,0,1,.5386-.6006A.5629.5629,0,0,1,58.3179,100.6326Z"/><path class="cls-4" d="M64.4771,103.2191a3.21,3.21,0,0,1,.4926,2.0166c0,.8164.0157.9394.0157,1.7089.0151,1.0469.0615,1.14.477,1.2481.1387.0605.231.0918.231.1533,0,.0928-.1231.1084-.2769.1084-.2,0-.647-.0625-.9853-.0625-.5235,0-.7237.0625-.9546.0625-.1387,0-.2466-.0312-.2466-.0928s.0928-.123.2925-.1689c.37-.0928.4311-.2012.4311-.6465v-2.0937c0-1.2481-.1074-1.6172-.4927-1.91a1.3691,1.3691,0,0,0-.8774-.292,1.835,1.835,0,0,0-1.2007.4932.7948.7948,0,0,0-.185.4609c0,.1856.0156.9707.0156,1.8945a12.5816,12.5816,0,0,0,.0923,1.6162c.0464.3389.2309.4151.477.4932.1851.0449.2617.0762.2617.1533,0,.0928-.1538.0928-.3076.0928-.123,0-.8779-.0625-1.2319-.0625-.2,0-.5235.0313-.8159.0313-.1695,0-.2925-.0313-.2925-.1075,0-.0625.1387-.123.3232-.1543.3848-.0771.4468-.1845.4619-.4921.0308-1.1094.0308-2.5254.0308-3.7725,0-.1533-.0308-.3233-.4-.5234-.0923-.0616-.123-.0928-.123-.1387,0-.03.0771-.0772.2158-.1231a5.8536,5.8536,0,0,0,1.2163-.5234c.0459-.0156.123.0459.1074.123a7.0666,7.0666,0,0,0-.0307.8155c0,.0312.0463.0781.0771.0468a5.282,5.282,0,0,1,1.0933-.6933,2.09,2.09,0,0,1,.9082-.1846A1.57,1.57,0,0,1,64.4771,103.2191Z"/><path class="cls-4" d="M74.6411,105.6058a2.9506,2.9506,0,0,1-2.9253,2.9717,2.936,2.936,0,0,1-1.8784-5.2344,3.154,3.154,0,0,1,1.8477-.6475A2.89,2.89,0,0,1,74.6411,105.6058Zm-4.8037-.2158a3.5247,3.5247,0,0,0,.6465,2.1093,1.829,1.829,0,0,0,1.4473.8164,1.5245,1.5245,0,0,0,.97-.3847,3.0686,3.0686,0,0,0,.647-2.0635c0-1.4629-.7393-2.91-2.0938-2.91C70.6685,102.9573,69.8374,103.7884,69.8374,105.39Z"/><path class="cls-4" d="M76.3975,107.9769a1.6156,1.6156,0,0,1-.2925-.9395c0-.5078,0-3.11-.0308-3.3721a.5985.5985,0,0,0-.3388-.5078c-.1387-.0918-.1846-.1386-.1846-.1845s.0766-.0772.2461-.0772a5.4253,5.4253,0,0,0,1.2934-.2c.0464-.0146.0923.0772.0772.169-.0464.8789-.062,2.9726-.0464,3.68a1.7031,1.7031,0,0,0,.231,1.0166,1.13,1.13,0,0,0,.8623.3857,1.7273,1.7273,0,0,0,1.3085-.4932.9432.9432,0,0,0,.2769-.708c.0308-.416.0308-1.0166.0308-1.57,0-.2314-.0152-.9551-.0152-1.3555-.0156-.5234-.1694-.6-.6772-.708-.1694-.03-.2466-.0771-.2466-.123,0-.0615.1387-.0928.231-.0928h.6464a8.1986,8.1986,0,0,0,1.0625-.0918c.0464,0,.0772.0606.0616.169-.0772.7236-.1079,2.2627-.1079,4.05a5.1673,5.1673,0,0,0,.0307.7851c.0313.1533.0772.1836.2.169a4.3948,4.3948,0,0,1,.6314-.1387.1855.1855,0,0,1,.185.1689c0,.0625-.1387.0928-.2929.1231a6.981,6.981,0,0,0-1.5855.416c-.1235.0615-.1543.0469-.1851,0s-.0307-.123-.0307-.293c0-.1533.0156-.4922.0156-.6,0-.0468-.0156-.1543-.0464-.1074a4.4416,4.4416,0,0,1-1.062.7539,2.6365,2.6365,0,0,1-.9087.2305A1.514,1.514,0,0,1,76.3975,107.9769Z"/><path class="cls-4" d="M84.1436,103.82a.8858.8858,0,0,0-.2618.5391,8.9218,8.9218,0,0,0-.0151.9395c0,1.1386.0308,1.9394.0615,2.2627.0615.4775.2461.5849.8316.6474.2153.03.2924.0606.2924.1377s-.1386.1084-.37.1084c-.2925,0-.8008-.0625-1.4472-.0625a8.2714,8.2714,0,0,0-.939.0928c-.1851,0-.2617-.03-.2617-.0928,0-.0459.1074-.123.23-.1533a.6372.6372,0,0,0,.5547-.6318c.0308-.2618.0459-1.1387.0459-2.1543v-1.709c0-.1084-.1079-.1543-.4-.4-.1074-.0781-.123-.124-.123-.1543s.0923-.0928.2309-.1387a4.6637,4.6637,0,0,0,.9854-.3691.4814.4814,0,0,1,.231-.0782c.0307,0,.0615.0625.0615.2168,0,.169-.0152.7539-.0152,1,0,.0469.0308.0616.0767.0157a2.5124,2.5124,0,0,1,1.6631-1.1084.8963.8963,0,0,1,.5386.2.2683.2683,0,0,1,.1079.2148,1.0475,1.0475,0,0,1-.3389.5234c-.1382.1231-.2.1387-.2461.1387a.7.7,0,0,1-.2773-.1074,1.0808,1.0808,0,0,0-.5386-.1846A1.0532,1.0532,0,0,0,84.1436,103.82Z"/><path class="cls-4" d="M88.9946,98.6776c.354.0151,1.2935.0615,1.7862.0615.0615,0,.1381.0615.2.2153.6616,1.4629,2.8325,5.7734,3.8027,7.59.0459.0927.0767.0312.1387-.0606.9082-1.74,2.8632-5.543,3.2329-6.2974a12.9177,12.9177,0,0,0,.4619-1.247c.0156-.0308.0771-.2.1538-.2.4311,0,1.2471-.0923,1.6782-.0923.1543,0,.2466.0308.2466.0923s-.123.123-.231.1386c-.9086.2154-.97.3848-1.0161,1.293-.0307.5239-.0464,2.3716-.0464,3.1411,0,1.6778.0616,3.2022.0923,3.6953.0616.8926.231,1.0313.8316,1.2159.1386.0459.2466.0927.2466.1689,0,.0625-.0928.0928-.2774.0928-.2925,0-1.124-.0928-1.54-.0928-.6314,0-1.0469.0313-1.2779.0313-.1543,0-.3232-.0157-.3232-.1231,0-.0615.1538-.123.3076-.1387.647-.17.7544-.416.8008-1.6933.0459-.8321.0459-4.9571.0459-5.65,0-.1543-.0459-.1543-.0767-.0615-1.0317,2.0634-2.9253,5.7578-3.6645,7.4052-.0767.1846-.1382.2774-.231.2774-.0766,0-.1846-.2461-.3232-.5391-.7237-1.5547-2.771-5.8349-3.3565-7.02-.0766-.1387-.1074-.1387-.1382.0772-.0615.8925-.2309,4.8808-.2309,5.5117a3.8583,3.8583,0,0,0,.0923,1.123.9043.9043,0,0,0,.7851.6172c.1695.03.2617.0918.2617.1533,0,.0928-.1386.1231-.3081.1084-.1845-.0156-.7387-.0781-1.2929-.0781s-.97.0928-1.1241.0928c-.2,0-.2773-.03-.2773-.1084,0-.0449.062-.1074.2773-.1533a1.1568,1.1568,0,0,0,.8316-.4932,4.3934,4.3934,0,0,0,.3232-1.6621c.0923-.9082.3077-4.3262.3077-5.3115,0-.9239-.0923-1.14-.3541-1.4473a1.31,1.31,0,0,0-.8466-.4c-.1387-.0308-.2466-.0923-.2466-.1543S88.856,98.6619,88.9946,98.6776Z"/><path class="cls-4" d="M110.2905,99.2161a.2737.2737,0,0,1,.1543.2617,11.81,11.81,0,0,0,.0459,1.1856c0,.1543-.0615.2461-.0923.2461-.0615,0-.1079-.0762-.1386-.1992a2.4041,2.4041,0,0,0-.7388-1.2325,3.5306,3.5306,0,0,0-2.356-.77,3.7144,3.7144,0,0,0-2.6787,1.2007,5.56,5.56,0,0,0-1.17,3.5728,5.8313,5.8313,0,0,0,1.4165,3.7246,3.6741,3.6741,0,0,0,2.6323,1.14,3.2684,3.2684,0,0,0,1.8326-.4307,2.76,2.76,0,0,0,1.1855-1.51c.0615-.1992.0923-.2617.1538-.2617s.0923.1386.0923.2314a10.8867,10.8867,0,0,1-.2153,1.2158.408.408,0,0,1-.1543.2315,5.585,5.585,0,0,1-3.002.8467,5.3,5.3,0,0,1-4.0029-1.6319,5.3828,5.3828,0,0,1-1.2935-3.4023,4.9106,4.9106,0,0,1,1.7241-3.8955,5.5359,5.5359,0,0,1,3.5874-1.2779A7.1124,7.1124,0,0,1,110.2905,99.2161Z"/><path class="cls-4" d="M112.0171,98.6619c.4775,0,.97.0772,1.3857.0772.4771,0,.9082-.0615,1.2622-.0615.1851,0,.2466.0307.2466.0766,0,.0772-.0923.1235-.2153.1543-.6314.1231-.6621.2153-.7085,1.2778-.0151.2618-.0308,1.6783-.0308,3.0787,0,1.4628.0157,3.0029.0308,3.2949a2.8525,2.8525,0,0,0,.2158,1.2168c.169.23.585.3847,1.832.3847a6.762,6.762,0,0,0,1.3545-.0771c.3389-.0615.6778-.4463.9854-1.001.1079-.1846.185-.2461.2466-.2461s.0464.2305-.0308.4317c-.0464.123-.3389.97-.4,1.0771a.3642.3642,0,0,1-.3232.1543c-.1538,0-1.3242.0147-2.0786-.03-.77-.0312-1.8785-.0781-2.417-.0781-.4776,0-1.17.0781-1.3858.0781-.1845,0-.3232-.0156-.3232-.1084,0-.0615.1387-.1084.2768-.123.6622-.124.7544-.3389.8008-.8154.0615-.6172.0615-1.6329.0615-3.7579,0-2.0937-.0151-3.1557-.0459-3.6792-.0463-.8774-.0927-.97-.7543-1.0932-.1851-.0308-.231-.0767-.231-.1387C111.771,98.7083,111.8633,98.6619,112.0171,98.6619Z"/><path class="cls-4" d="M123.1973,102.85c.1381,0,.2617.03.2617.1074,0,.0459-.1543.1084-.2617.1241-.37.0605-.3545.1992-.2925.4453.2305.709.8926,2.4638,1.2471,3.3261.0151.0459.0766.0616.0922.0157.2461-.5235.9239-2.0176,1.0777-2.418.0151-.0762.0615-.1836.0307-.2617-.0771-.1992-.1845-.4453-.2617-.6309a.8182.8182,0,0,0-.5849-.5078c-.1387-.0312-.2159-.0615-.2159-.123s.0772-.0928.231-.0928c.3232,0,.7236.0459,1.0469.0459.4467,0,.6313-.03.9087-.03.1694,0,.2309.03.2309.0772,0,.0615-.1079.123-.2309.1543-.354.0761-.4468.1377-.2618.6152.1695.4766.9854,2.709,1.2007,3.1875.0464.0762.0772.0146.0772,0,.1845-.4.9238-2.1563,1.1084-2.68a3.5174,3.5174,0,0,0,.2466-.7383c0-.1386-.0621-.2773-.462-.3847-.2-.0625-.2465-.1084-.2465-.1543,0-.0625.0922-.0928.2-.0928.2617,0,.539.0459.7851.0459.1538,0,.5391-.0459.77-.0459.1382,0,.2154.03.2154.0928s-.0459.0918-.2769.1543c-.2773.0761-.4619.292-.6621.707-.2773.5547-.7393,1.6172-1.2163,2.7109-.2617.6309-.5391,1.3086-.7236,1.8008-.0923.2461-.1543.293-.2.293-.0616,0-.1079-.0625-.1695-.2774-.0771-.2158-.1845-.5234-.37-1.0468-.2925-.8321-.6157-1.709-.9238-2.5254-.0152-.0459-.0459-.0772-.0767,0-.1387.2929-.7851,1.709-1.001,2.248-.2309.5078-.37.8613-.5385,1.3086-.0772.2149-.1543.293-.2159.293s-.1079-.1084-.1538-.2774c-.0771-.2158-.1694-.5859-.4311-1.3242-.2774-.7539-1.1548-3.0332-1.3242-3.3262a.8774.8774,0,0,0-.6773-.6c-.123-.0312-.2153-.0771-.2153-.123,0-.0928.1074-.1231.2768-.1231.2,0,.6621.0606,1.0933.0606C122.5811,102.88,122.8892,102.85,123.1973,102.85Z"/><path class="cls-4" d="M133.93,103.4818a3.7194,3.7194,0,0,1,.2158,1.4c0,.57-.0464,2.0323-.0464,2.4327a.5278.5278,0,0,0,.57.5849.9862.9862,0,0,0,.4463-.1387c.0923-.0459.1538,0,.0923.1387a1.2958,1.2958,0,0,1-1.1855.6621,1.034,1.034,0,0,1-.9082-.6933.055.055,0,0,0-.0772-.0157,2.153,2.153,0,0,1-1.5088.6934,1.2772,1.2772,0,0,1-1.2314-1.3242,1.0829,1.0829,0,0,1,.5542-.877c.37-.2011,1.7705-.6162,2.0937-.7392a.29.29,0,0,0,.2-.2315,5.2108,5.2108,0,0,0,.0308-.708c0-.6308-.1079-1.0615-.37-1.2627a1.1764,1.1764,0,0,0-.6465-.2461,1.0605,1.0605,0,0,0-.6157.1856.61.61,0,0,0-.231.3691,1.57,1.57,0,0,0-.0156.293.194.194,0,0,1-.0615.123,3.3254,3.3254,0,0,1-.7237.3379c-.0766.0157-.1538-.0761-.1538-.1386,0-.1075.1079-.2461.2925-.461a3.9939,3.9939,0,0,1,1.17-.8935,2.07,2.07,0,0,1,.9238-.2774A1.2607,1.2607,0,0,1,133.93,103.4818Zm-1.0313,4.2333a.6357.6357,0,0,0,.169-.37,10.9894,10.9894,0,0,0,.0771-1.4629c0-.0146-.0307-.0918-.0615-.0761a8.65,8.65,0,0,0-1.4165.5234.796.796,0,0,0-.3848.7695.8943.8943,0,0,0,.9239.8623A1.0586,1.0586,0,0,0,132.8984,107.7151Z"/><path class="cls-4" d="M136.2563,107.8226a1.7328,1.7328,0,0,1-.185-.878v-3.1865c0-.1689-.0151-.2763-.0767-.3076a2.4112,2.4112,0,0,0-.37-.0928c-.123-.03-.2-.0771-.2-.1386,0-.03.0156-.0772.1851-.1534a3.289,3.289,0,0,0,1.2622-1.0312c.1386-.1543.2466-.124.2466-.0469,0,.1387-.0308.57-.0157.7539,0,.0469.0157.1387.0772.1387.2768,0,1.5547-.0459,1.8784-.0459.0308,0,.0923.1084.0923.2158,0,.2617-.0772.3848-.1543.3848-.5386,0-1.293-.0156-1.709-.0156-.1846,0-.2153.0468-.2153.1386,0,.2617.0156,2.68.0307,3.1563a1.5811,1.5811,0,0,0,.1695.832,1.139,1.139,0,0,0,.9546.415,1.5,1.5,0,0,0,.8466-.2314c.1079-.0762.1538-.06.1538,0,0,.0928-.1381.2471-.3383.4a2.1138,2.1138,0,0,1-1.2471.4A1.4255,1.4255,0,0,1,136.2563,107.8226Z"/><path class="cls-4" d="M144.2788,104.2669a.18.18,0,0,1-.1543.168c-.123-.0147-2.1245-.0449-2.4785-.0449h-.8315c-.0308,0-.108.0761-.1387.123a2.1181,2.1181,0,0,0-.1231.8457,2.7617,2.7617,0,0,0,.708,1.8633,2.0766,2.0766,0,0,0,1.54.6308,1.9643,1.9643,0,0,0,1.4624-.4921c.123-.1231.1846-.0918.1846-.0157a.5772.5772,0,0,1-.1539.2461,2.721,2.721,0,0,1-2.14.9707,2.4873,2.4873,0,0,1-1.832-.7851,3.01,3.01,0,0,1-.7388-2.0625,3.2076,3.2076,0,0,1,.8926-2.2481,2.8654,2.8654,0,0,1,1.9248-.77A1.7774,1.7774,0,0,1,144.2788,104.2669Zm-3.1411-.7851a1.35,1.35,0,0,0-.3232.6308.0656.0656,0,0,0,.0615.0606l2.0014-.0147c.3389,0,.37-.1689.37-.3076a.9889.9889,0,0,0-.2154-.6465,1.0775,1.0775,0,0,0-.77-.293A1.5947,1.5947,0,0,0,141.1377,103.4818Z"/><path class="cls-4" d="M147.0049,103.82a.8851.8851,0,0,0-.2617.5391,8.8911,8.8911,0,0,0-.0152.9395c0,1.1386.0308,1.9394.0616,2.2627.0615.4775.246.5849.8315.6474.2153.03.2925.0606.2925.1377s-.1387.1084-.37.1084c-.2924,0-.8007-.0625-1.4472-.0625a8.2714,8.2714,0,0,0-.939.0928c-.185,0-.2617-.03-.2617-.0928,0-.0459.1074-.123.2305-.1533a.6374.6374,0,0,0,.5547-.6318c.0307-.2618.0459-1.1387.0459-2.1543v-1.709c0-.1084-.108-.1543-.4-.4-.1075-.0781-.1231-.124-.1231-.1543s.0923-.0928.231-.1387a4.6628,4.6628,0,0,0,.9853-.3691.4814.4814,0,0,1,.231-.0782c.0307,0,.0615.0625.0615.2168,0,.169-.0151.7539-.0151,1,0,.0469.0307.0616.0766.0157a2.5124,2.5124,0,0,1,1.6631-1.1084.896.896,0,0,1,.5386.2.2683.2683,0,0,1,.1079.2148,1.0475,1.0475,0,0,1-.3389.5234c-.1382.1231-.2.1387-.2461.1387a.7.7,0,0,1-.2773-.1074,1.08,1.08,0,0,0-.5386-.1846A1.0534,1.0534,0,0,0,147.0049,103.82Z"/><path class="cls-4" d="M57.2866,124.6234a1.7354,1.7354,0,0,1-.185-.878v-3.1865c0-.17-.0152-.2773-.0767-.3086a2.5484,2.5484,0,0,0-.37-.0918c-.1231-.0312-.2-.0771-.2-.1387,0-.0312.0156-.0771.185-.1543a3.2784,3.2784,0,0,0,1.2622-1.0312c.1387-.1543.2466-.1231.2466-.0459,0,.1377-.0307.5693-.0156.7539,0,.0459.0156.1387.0771.1387.2769,0,1.5547-.0459,1.8785-.0459.0307,0,.0923.1074.0923.2148,0,.2617-.0772.3848-.1543.3848-.5386,0-1.293-.0147-1.709-.0147-.1846,0-.2154.0459-.2154.1387,0,.2617.0157,2.6787.0308,3.1563a1.5771,1.5771,0,0,0,.1694.831,1.14,1.14,0,0,0,.9546.416,1.5009,1.5009,0,0,0,.8467-.2314c.1079-.0772.1538-.0615.1538,0,0,.0928-.1382.2461-.3384.4a2.1133,2.1133,0,0,1-1.247.4A1.4271,1.4271,0,0,1,57.2866,124.6234Z"/><path class="cls-4" d="M65.31,121.0667a.1806.1806,0,0,1-.1543.169c-.1231-.0157-2.1245-.0459-2.4785-.0459h-.8316c-.0307,0-.1079.0771-.1387.123a2.1261,2.1261,0,0,0-.123.8467,2.7619,2.7619,0,0,0,.708,1.8633,2.08,2.08,0,0,0,1.54.6308,1.9674,1.9674,0,0,0,1.4624-.4922c.1231-.123.1846-.0927.1846-.0156a.5824.5824,0,0,1-.1538.2461,2.72,2.72,0,0,1-2.14.97,2.4842,2.4842,0,0,1-1.8321-.7851,3.0081,3.0081,0,0,1-.7387-2.0625,3.21,3.21,0,0,1,.8925-2.2481,2.8654,2.8654,0,0,1,1.9249-.77A1.7766,1.7766,0,0,1,65.31,121.0667Zm-3.1411-.7851a1.35,1.35,0,0,0-.3233.6308.0657.0657,0,0,0,.0615.0615l2.0015-.0156c.3389,0,.37-.1689.37-.3076a.9927.9927,0,0,0-.2153-.6465,1.0775,1.0775,0,0,0-.77-.293A1.5984,1.5984,0,0,0,62.1685,120.2816Z"/><path class="cls-4" d="M67.312,120.6819c0,.6465.585,1.0157.97,1.2471,1.001.6465,1.4009,1.0313,1.4009,1.8164a1.58,1.58,0,0,1-.8,1.293,2.5563,2.5563,0,0,1-1.2319.3389,3.1233,3.1233,0,0,1-1.2163-.2774c-.1231-.0459-.231-.1533-.231-.2461,0-.2158-.0307-.6006-.0459-.77-.0307-.2.0152-.2461.0459-.2461.0464,0,.0928,0,.2.292a1.5052,1.5052,0,0,0,.647.832,1.1827,1.1827,0,0,0,.6929.1846,1.0558,1.0558,0,0,0,1.0005-1.0322c0-.585-.4-.9082-1.0162-1.293-.6621-.4307-1.2778-1.001-1.2778-1.6777a1.4594,1.4594,0,0,1,.585-1.2168,1.9935,1.9935,0,0,1,1.2934-.4307,3.7753,3.7753,0,0,1,1.0469.1689.2525.2525,0,0,1,.0767.1387c.0156.169.0771.4776.0927.7236,0,.169-.0307.2461-.0771.2461-.0615,0-.0923-.0771-.1387-.1845a1.17,1.17,0,0,0-.3691-.6309,1.2662,1.2662,0,0,0-.7237-.2314A.8972.8972,0,0,0,67.312,120.6819Z"/><path class="cls-4" d="M71.2852,124.6234a1.7343,1.7343,0,0,1-.1851-.878v-3.1865c0-.17-.0151-.2773-.0767-.3086a2.5449,2.5449,0,0,0-.37-.0918c-.123-.0312-.2-.0771-.2-.1387,0-.0312.0156-.0771.1851-.1543a3.28,3.28,0,0,0,1.2622-1.0312c.1387-.1543.2466-.1231.2466-.0459,0,.1377-.0308.5693-.0157.7539,0,.0459.0157.1387.0772.1387.2768,0,1.5547-.0459,1.8784-.0459.0308,0,.0923.1074.0923.2148,0,.2617-.0772.3848-.1543.3848-.5386,0-1.293-.0147-1.709-.0147-.1846,0-.2153.0459-.2153.1387,0,.2617.0156,2.6787.0307,3.1563a1.5768,1.5768,0,0,0,.1695.831,1.14,1.14,0,0,0,.9546.416,1.5,1.5,0,0,0,.8466-.2314c.1079-.0772.1538-.0615.1538,0,0,.0928-.1381.2461-.3383.4a2.1136,2.1136,0,0,1-1.2471.4A1.427,1.427,0,0,1,71.2852,124.6234Z"/><path class="cls-4" d="M75.9668,120.6819c0,.6465.585,1.0157.97,1.2471,1.001.6465,1.4009,1.0313,1.4009,1.8164a1.58,1.58,0,0,1-.8,1.293,2.5566,2.5566,0,0,1-1.2319.3389,3.1233,3.1233,0,0,1-1.2163-.2774c-.1231-.0459-.231-.1533-.231-.2461,0-.2158-.0308-.6006-.0459-.77-.0308-.2.0151-.2461.0459-.2461.0464,0,.0928,0,.2.292a1.5048,1.5048,0,0,0,.647.832,1.1826,1.1826,0,0,0,.6928.1846,1.0557,1.0557,0,0,0,1-1.0322c0-.585-.4-.9082-1.0161-1.293-.6621-.4307-1.2778-1.001-1.2778-1.6777a1.4594,1.4594,0,0,1,.585-1.2168,1.9933,1.9933,0,0,1,1.2934-.4307,3.776,3.776,0,0,1,1.0469.1689.2538.2538,0,0,1,.0771.1387c.0152.169.0767.4776.0923.7236,0,.169-.0307.2461-.0771.2461-.0616,0-.0923-.0771-.1387-.1845a1.1682,1.1682,0,0,0-.37-.6309,1.2632,1.2632,0,0,0-.7232-.2314A.8971.8971,0,0,0,75.9668,120.6819Z"/><path class="cls-4" d="M80.71,125.1155a1.62,1.62,0,0,1-1.3394,1.5088c-.0923.0157-.1694,0-.1694-.0459s.0615-.0771.1387-.1074a1.1743,1.1743,0,0,0,.8159-1.0625.4535.4535,0,0,0-.4-.4619c-.2617-.0615-.4927-.1387-.4927-.4775a.5431.5431,0,0,1,.5547-.5079C80.2939,123.9612,80.71,124.4075,80.71,125.1155Z"/><path class="cls-4" d="M84.5439,124.6234a1.7354,1.7354,0,0,1-.185-.878v-3.1865c0-.17-.0151-.2773-.0767-.3086a2.5449,2.5449,0,0,0-.37-.0918c-.123-.0312-.2-.0771-.2-.1387,0-.0312.0156-.0771.1851-.1543a3.28,3.28,0,0,0,1.2622-1.0312c.1386-.1543.2465-.1231.2465-.0459,0,.1377-.0307.5693-.0156.7539,0,.0459.0156.1387.0772.1387.2768,0,1.5547-.0459,1.8784-.0459.0308,0,.0923.1074.0923.2148,0,.2617-.0772.3848-.1543.3848-.5386,0-1.293-.0147-1.709-.0147-.1846,0-.2153.0459-.2153.1387,0,.2617.0156,2.6787.0307,3.1563a1.5757,1.5757,0,0,0,.1695.831,1.14,1.14,0,0,0,.9545.416,1.5006,1.5006,0,0,0,.8467-.2314c.1079-.0772.1538-.0615.1538,0,0,.0928-.1381.2461-.3383.4a2.1138,2.1138,0,0,1-1.2471.4A1.4272,1.4272,0,0,1,84.5439,124.6234Z"/><path class="cls-4" d="M89.687,120.6048a.7754.7754,0,0,0-.1538.5693,30.52,30.52,0,0,0,.0772,3.3106.5437.5437,0,0,0,.4926.5234c.231.0459.3384.0772.3384.1533,0,.0469-.0923.0928-.231.0928-.4306,0-.831-.0615-1.2778-.0615-.477,0-.708.0615-1,.0615-.1694,0-.2466-.03-.2466-.0928s.0616-.0918.2466-.1377c.4463-.1084.5542-.1543.5694-.7392.0464-.6162.062-2.0322.062-4.48,0-2.3252.0307-3.2637,0-3.85-.0156-.4922-.1236-.5381-.4619-.7226-.062-.0469-.1079-.0772-.1079-.1231s.0922-.0928.2617-.1387a6.3672,6.3672,0,0,0,1.124-.37.337.337,0,0,1,.1538-.0615c.0464,0,.0923.1074.0772.3242-.0157.415-.0772,5.1875-.0616,5.4805,0,.0615.0459.0771.0616.0459a5.0418,5.0418,0,0,1,.9238-.6309,2.4118,2.4118,0,0,1,1.0776-.2617,1.64,1.64,0,0,1,1.3858.6924,2.9708,2.9708,0,0,1,.3383,1.6474c.0157,1.1553.0157,2.1094.0308,2.6944,0,.3076.0615.416.5234.4931.2.0459.2466.0762.2466.1377s-.1079.1084-.2466.1084c-.4,0-.6928-.0771-1.1084-.0771-.5234,0-.6464.0615-1.0005.0615-.185,0-.2465-.0459-.2465-.0928,0-.0615.0771-.0918.2309-.123.4156-.0918.4463-.2.5083-.6465.0308-.3535.0615-1.0312.0615-2.6328a2.4664,2.4664,0,0,0-.2309-1.1543,1.1522,1.1522,0,0,0-1.0625-.5693A1.8607,1.8607,0,0,0,89.687,120.6048Z"/><path class="cls-4" d="M98.3569,120.2816a3.7127,3.7127,0,0,1,.2159,1.4c0,.57-.0464,2.0323-.0464,2.4327a.5281.5281,0,0,0,.57.5859.9869.9869,0,0,0,.4463-.1387c.0923-.0468.1538,0,.0923.1387a1.297,1.297,0,0,1-1.1856.6611,1.0328,1.0328,0,0,1-.9082-.6923.0532.0532,0,0,0-.0771-.0157,2.1522,2.1522,0,0,1-1.5088.6934,1.2773,1.2773,0,0,1-1.2315-1.3242,1.0852,1.0852,0,0,1,.5542-.878c.37-.2,1.77-.6152,2.0938-.7392a.2908.2908,0,0,0,.2-.2305,5.2358,5.2358,0,0,0,.0307-.708c0-.6318-.1079-1.0625-.37-1.2627a1.17,1.17,0,0,0-.6465-.2461,1.06,1.06,0,0,0-.6157.1846.6137.6137,0,0,0-.231.3691,1.57,1.57,0,0,0-.0156.293.1911.1911,0,0,1-.0615.123,3.331,3.331,0,0,1-.7236.3389c-.0767.0156-.1538-.0771-.1538-.1387,0-.1074.1079-.2461.2924-.4619a4.01,4.01,0,0,1,1.17-.8935,2.0665,2.0665,0,0,1,.9238-.2764A1.2611,1.2611,0,0,1,98.3569,120.2816Zm-1.0312,4.2334a.6362.6362,0,0,0,.1689-.3692,10.9967,10.9967,0,0,0,.0772-1.4629c0-.0156-.0308-.0918-.0615-.0771a8.7432,8.7432,0,0,0-1.4165.5234.7979.7979,0,0,0-.3848.77.8944.8944,0,0,0,.9238.8623A1.0549,1.0549,0,0,0,97.3257,124.515Z"/><path class="cls-4" d="M100.6831,124.6234a1.7353,1.7353,0,0,1-.1851-.878v-3.1865c0-.17-.0151-.2773-.0766-.3086a2.5484,2.5484,0,0,0-.37-.0918c-.1231-.0312-.2-.0771-.2-.1387,0-.0312.0156-.0771.185-.1543a3.2784,3.2784,0,0,0,1.2622-1.0312c.1387-.1543.2466-.1231.2466-.0459,0,.1377-.0308.5693-.0156.7539,0,.0459.0156.1387.0771.1387.2769,0,1.5547-.0459,1.8785-.0459.0307,0,.0922.1074.0922.2148,0,.2617-.0771.3848-.1543.3848-.5385,0-1.2929-.0147-1.7089-.0147-.1846,0-.2154.0459-.2154.1387,0,.2617.0156,2.6787.0308,3.1563a1.576,1.576,0,0,0,.1694.831,1.14,1.14,0,0,0,.9546.416,1.5009,1.5009,0,0,0,.8467-.2314c.1079-.0772.1538-.0615.1538,0,0,.0928-.1382.2461-.3384.4a2.1133,2.1133,0,0,1-1.2471.4A1.4271,1.4271,0,0,1,100.6831,124.6234Z"/><path class="cls-4" d="M111.585,120.2659a2.678,2.678,0,0,1,.6313,1.7862,3.1524,3.1524,0,0,1-2.063,3.0634,2.6761,2.6761,0,0,1-1.1084.2315,3.4613,3.4613,0,0,1-.893-.1231c-.0616-.0156-.1231.0762-.1387.1377a21.3112,21.3112,0,0,0-.0152,2.2793,4.9271,4.9271,0,0,0,.1075,1.2315c.0923.2929.3545.3691.77.4306.1387.0469.2153.0772.2153.1387s-.1074.1084-.3076.1084c-.231,0-.77-.0615-1.3242-.0615-.5083,0-1.001.1074-1.1856.1074s-.2768-.0459-.2768-.0928c0-.0615.0615-.1074.2925-.1533.5385-.1543.6308-.3389.6616-.708.0156-.2627.0464-.9238.0464-2.1094,0-1.57-.0308-4.9121-.0464-5.3125-.0308-.6308-.0308-.7236-.3848-.9228-.0923-.0469-.1538-.0928-.1538-.1387,0-.0615.0772-.1084.2-.1387a7.73,7.73,0,0,0,1.1392-.539.4183.4183,0,0,1,.2309-.1074c.0308,0,.0615.0459.0615.1376,0,.0772-.0307.5245-.0307.6622,0,.0312.0307.0927.0771.0468a3.0187,3.0187,0,0,1,1.8785-.709A2.2681,2.2681,0,0,1,111.585,120.2659Zm-1.2315,4.4492a2.8209,2.8209,0,0,0,.8623-2.2167,2.7739,2.7739,0,0,0-.7392-1.9708,1.6547,1.6547,0,0,0-1.1856-.4619,1.9969,1.9969,0,0,0-1.124.3077c-.1074.0771-.1538.123-.169.3388-.0463.3848-.0307,2.8174,0,3.1406a1.2034,1.2034,0,0,0,.1231.3858,1.7228,1.7228,0,0,0,1.4932.7539A1.1386,1.1386,0,0,0,110.3535,124.7151Z"/><path class="cls-4" d="M119.1465,122.4056a2.9487,2.9487,0,0,1-2.9253,2.9717,2.936,2.936,0,0,1-1.8784-5.2344,3.16,3.16,0,0,1,1.8476-.6465A2.889,2.889,0,0,1,119.1465,122.4056Zm-4.8037-.2149a3.5267,3.5267,0,0,0,.6465,2.1094,1.83,1.83,0,0,0,1.4472.8154,1.5211,1.5211,0,0,0,.97-.3847,3.0687,3.0687,0,0,0,.6465-2.0635c0-1.4619-.7392-2.9092-2.0937-2.9092C115.1738,119.7581,114.3428,120.5892,114.3428,122.1907Z"/><path class="cls-4" d="M121.2109,120.6819c0,.6465.585,1.0157.97,1.2471,1.0009.6465,1.4008,1.0313,1.4008,1.8164a1.58,1.58,0,0,1-.8,1.293,2.5563,2.5563,0,0,1-1.2319.3389,3.1233,3.1233,0,0,1-1.2163-.2774c-.123-.0459-.2309-.1533-.2309-.2461,0-.2158-.0308-.6006-.0459-.77-.0308-.2.0151-.2461.0459-.2461.0463,0,.0927,0,.2.292a1.5056,1.5056,0,0,0,.647.832,1.1829,1.1829,0,0,0,.6929.1846,1.0557,1.0557,0,0,0,1.0005-1.0322c0-.585-.4-.9082-1.0161-1.293-.6621-.4307-1.2779-1.001-1.2779-1.6777a1.4594,1.4594,0,0,1,.585-1.2168,1.9936,1.9936,0,0,1,1.2935-.4307,3.7744,3.7744,0,0,1,1.0468.1689.2533.2533,0,0,1,.0772.1387c.0151.169.0766.4776.0923.7236,0,.169-.0308.2461-.0772.2461-.0615,0-.0923-.0771-.1387-.1845a1.1669,1.1669,0,0,0-.37-.6309,1.2629,1.2629,0,0,0-.7231-.2314A.8972.8972,0,0,0,121.2109,120.6819Z"/><path class="cls-4" d="M129.2949,121.0667a.18.18,0,0,1-.1543.169c-.123-.0157-2.1245-.0459-2.4785-.0459h-.8315c-.0308,0-.1079.0771-.1387.123a2.1238,2.1238,0,0,0-.1231.8467,2.762,2.762,0,0,0,.7081,1.8633,2.08,2.08,0,0,0,1.54.6308,1.9674,1.9674,0,0,0,1.4624-.4922c.123-.123.1846-.0927.1846-.0156a.5835.5835,0,0,1-.1538.2461,2.72,2.72,0,0,1-2.14.97,2.4839,2.4839,0,0,1-1.832-.7851,3.0082,3.0082,0,0,1-.7388-2.0625,3.2092,3.2092,0,0,1,.8926-2.2481,2.8649,2.8649,0,0,1,1.9248-.77A1.7766,1.7766,0,0,1,129.2949,121.0667Zm-3.1411-.7851a1.35,1.35,0,0,0-.3232.6308.0657.0657,0,0,0,.0615.0615l2.0015-.0156c.3388,0,.37-.1689.37-.3076a.9927.9927,0,0,0-.2153-.6465,1.0778,1.0778,0,0,0-.77-.293A1.5986,1.5986,0,0,0,126.1538,120.2816Z"/><path class="cls-4" d="M58.2563,137.4046a.7754.7754,0,0,0-.1538.5693,30.52,30.52,0,0,0,.0772,3.3106.5437.5437,0,0,0,.4927.5234c.2309.0459.3383.0772.3383.1533,0,.0469-.0922.0928-.2309.0928-.4307,0-.8311-.0615-1.2778-.0615-.4771,0-.7081.0615-1.0005.0615-.1695,0-.2466-.03-.2466-.0928s.0615-.0918.2466-.1377c.4463-.1084.5542-.1542.5693-.7392.0464-.6162.062-2.0322.062-4.4805,0-2.3252.0308-3.2637,0-3.8486-.0156-.4932-.1235-.5391-.4619-.7236-.062-.0469-.1079-.0772-.1079-.1231s.0923-.0928.2617-.1387a6.3644,6.3644,0,0,0,1.124-.37.3374.3374,0,0,1,.1538-.0615c.0464,0,.0923.1084.0772.3232-.0156.4161-.0772,5.1885-.0615,5.4815,0,.0615.0459.0771.0615.0459a5.0452,5.0452,0,0,1,.9238-.6309,2.4132,2.4132,0,0,1,1.0777-.2617,1.64,1.64,0,0,1,1.3857.6924,2.9714,2.9714,0,0,1,.3384,1.6474c.0156,1.1553.0156,2.1094.0307,2.6944,0,.3076.0616.416.5235.4931.2.0459.2466.0762.2466.1377s-.108.1084-.2466.1084c-.4,0-.6929-.0771-1.1084-.0771-.5235,0-.6465.0615-1.0005.0615-.1851,0-.2466-.0459-.2466-.0928,0-.0615.0772-.0918.231-.123.4155-.0918.4462-.2.5083-.6465.0307-.3535.0615-1.0312.0615-2.6328a2.4665,2.4665,0,0,0-.231-1.1543,1.152,1.152,0,0,0-1.0625-.5693A1.8607,1.8607,0,0,0,58.2563,137.4046Z"/><path class="cls-4" d="M68.0967,137.8665a.1806.1806,0,0,1-.1543.169c-.1231-.0157-2.1245-.0459-2.4785-.0459h-.8316c-.0307,0-.1079.0771-.1386.123a2.1238,2.1238,0,0,0-.1231.8467,2.7619,2.7619,0,0,0,.708,1.8633,2.08,2.08,0,0,0,1.54.6308,1.9677,1.9677,0,0,0,1.4624-.4922c.123-.123.1845-.0927.1845-.0156a.5824.5824,0,0,1-.1538.2461,2.72,2.72,0,0,1-2.14.97,2.4842,2.4842,0,0,1-1.8321-.7851,3.0081,3.0081,0,0,1-.7387-2.0625,3.2092,3.2092,0,0,1,.8926-2.2481,2.8649,2.8649,0,0,1,1.9248-.7695A1.7766,1.7766,0,0,1,68.0967,137.8665Zm-3.1411-.7851a1.35,1.35,0,0,0-.3233.6308.0657.0657,0,0,0,.0615.0615l2.0015-.0156c.3389,0,.37-.1689.37-.3076a.9922.9922,0,0,0-.2153-.6465,1.0775,1.0775,0,0,0-.77-.293A1.5984,1.5984,0,0,0,64.9556,137.0814Z"/><path class="cls-4" d="M72.6392,137.0814a3.7134,3.7134,0,0,1,.2158,1.4c0,.57-.0464,2.0332-.0464,2.4326a.5274.5274,0,0,0,.57.5849.9831.9831,0,0,0,.4463-.1377c.0923-.0468.1538,0,.0923.1377a1.2959,1.2959,0,0,1-1.1856.6621,1.0328,1.0328,0,0,1-.9082-.6923.0532.0532,0,0,0-.0771-.0157,2.1521,2.1521,0,0,1-1.5088.6934,1.2772,1.2772,0,0,1-1.2314-1.3242,1.085,1.085,0,0,1,.5542-.878c.37-.2,1.77-.6152,2.0937-.7392a.2906.2906,0,0,0,.2-.2305,5.2182,5.2182,0,0,0,.0308-.708c0-.6318-.1079-1.0625-.37-1.2627a1.17,1.17,0,0,0-.6464-.2461,1.06,1.06,0,0,0-.6158.1846.6131.6131,0,0,0-.2309.3691,1.56,1.56,0,0,0-.0157.293.1911.1911,0,0,1-.0615.123,3.331,3.331,0,0,1-.7236.3389c-.0767.0156-.1538-.0771-.1538-.1387,0-.1074.1079-.2461.2925-.4619a3.9907,3.9907,0,0,1,1.17-.8926,2.0577,2.0577,0,0,1,.9238-.2773A1.2613,1.2613,0,0,1,72.6392,137.0814Zm-1.0313,4.2334a.6368.6368,0,0,0,.169-.3692,11.0177,11.0177,0,0,0,.0771-1.4629c0-.0156-.0308-.0918-.0615-.0771a8.7432,8.7432,0,0,0-1.4165.5234.7979.7979,0,0,0-.3848.77.8944.8944,0,0,0,.9238.8623A1.0545,1.0545,0,0,0,71.6079,141.3148Z"/><path class="cls-4" d="M76.0737,138.2513c0,1.9394.0157,2.6631.0308,2.956.0156.4161.1079.5235.5391.6006.0922.0156.2.0615.2.1074,0,.0616-.108.1084-.3082.1084-.246,0-.8007-.0312-1.0625-.0312-.4,0-.8.0312-1.0312.0312-.1851,0-.2617-.0156-.2617-.0927s.0766-.0928.2768-.1387c.3853-.0772.4776-.2158.5391-.8926.0308-.57.0923-3.1719.1079-5.0195,0-1.2471.0151-2.51,0-3.1865,0-.3389-.0308-.4161-.4311-.6621-.108-.0616-.1543-.0928-.1543-.1387s.0927-.0928.2309-.1231a7.9745,7.9745,0,0,0,1.1548-.3545.6472.6472,0,0,1,.1851-.0459c.0307,0,.0459.0918.0459.169,0,.1074-.0616,2.7715-.0616,5.081Z"/><path class="cls-4" d="M78.3223,141.4232a1.7343,1.7343,0,0,1-.1851-.878v-3.1865c0-.17-.0151-.2773-.0767-.3086a2.5449,2.5449,0,0,0-.37-.0918c-.123-.0312-.2-.0771-.2-.1387,0-.0312.0156-.0771.1851-.1543a3.2791,3.2791,0,0,0,1.2622-1.0312c.1387-.1543.2466-.1231.2466-.0469,0,.1387-.0308.57-.0157.7549,0,.0459.0157.1387.0772.1387.2768,0,1.5547-.0459,1.8784-.0459.0308,0,.0923.1074.0923.2148,0,.2617-.0772.3848-.1543.3848-.5386,0-1.293-.0147-1.709-.0147-.1846,0-.2153.0459-.2153.1387,0,.2617.0156,2.6787.0307,3.1563a1.5768,1.5768,0,0,0,.1695.831,1.14,1.14,0,0,0,.9546.416,1.5,1.5,0,0,0,.8466-.2314c.108-.0772.1539-.0615.1539,0,0,.0928-.1382.2461-.3384.4a2.1136,2.1136,0,0,1-1.2471.4A1.427,1.427,0,0,1,78.3223,141.4232Z"/><path class="cls-4" d="M83.4653,137.4046a.7754.7754,0,0,0-.1538.5693,30.52,30.52,0,0,0,.0772,3.3106.5437.5437,0,0,0,.4926.5234c.231.0459.3384.0772.3384.1533,0,.0469-.0923.0928-.2309.0928-.4307,0-.8311-.0615-1.2779-.0615-.477,0-.708.0615-1,.0615-.1694,0-.2465-.03-.2465-.0928s.0615-.0918.2465-.1377c.4463-.1084.5542-.1542.5694-.7392.0464-.6162.062-2.0322.062-4.4805,0-2.3252.0308-3.2637,0-3.8486-.0156-.4932-.1235-.5391-.4619-.7236-.062-.0469-.1079-.0772-.1079-.1231s.0923-.0928.2617-.1387a6.3672,6.3672,0,0,0,1.124-.37.3374.3374,0,0,1,.1538-.0615c.0464,0,.0923.1084.0772.3232-.0157.4161-.0772,5.1885-.0616,5.4815,0,.0615.0459.0771.0616.0459a5.0418,5.0418,0,0,1,.9238-.6309,2.4131,2.4131,0,0,1,1.0776-.2617,1.64,1.64,0,0,1,1.3858.6924,2.9714,2.9714,0,0,1,.3384,1.6474c.0156,1.1553.0156,2.1094.0307,2.6944,0,.3076.0615.416.5235.4931.2.0459.2465.0762.2465.1377s-.1079.1084-.2465.1084c-.4,0-.6929-.0771-1.1084-.0771-.5235,0-.6465.0615-1.0005.0615-.1851,0-.2466-.0459-.2466-.0928,0-.0615.0771-.0918.2309-.123.4156-.0918.4463-.2.5083-.6465.0308-.3535.0616-1.0312.0616-2.6328a2.4665,2.4665,0,0,0-.231-1.1543,1.152,1.152,0,0,0-1.0625-.5693A1.8607,1.8607,0,0,0,83.4653,137.4046Z"/><path class="cls-4" d="M92.7358,137.42a.883.883,0,0,0-.2617.5381,8.9328,8.9328,0,0,0-.0151.9395c0,1.14.0307,1.94.0615,2.2636.0615.4766.2461.585.8316.6465.2153.03.2924.0615.2924.1387s-.1386.1074-.37.1074c-.2925,0-.8008-.0615-1.4473-.0615a8.2687,8.2687,0,0,0-.9389.0928c-.1851,0-.2622-.0313-.2622-.0928,0-.0459.1079-.1231.2309-.1543a.6354.6354,0,0,0,.5547-.6309c.0308-.2617.0459-1.14.0459-2.1552v-1.709c0-.1084-.1079-.1543-.4-.4-.1074-.0772-.123-.1231-.123-.1543s.0923-.0918.2309-.1387a4.61,4.61,0,0,0,.9854-.3691.4878.4878,0,0,1,.2309-.0772c.0308,0,.0616.0616.0616.2159,0,.1689-.0152.7539-.0152,1.0009,0,.0459.0308.0616.0767.0147a2.5157,2.5157,0,0,1,1.6631-1.1084.896.896,0,0,1,.5385.2.2685.2685,0,0,1,.108.2158,1.0523,1.0523,0,0,1-.3389.5234c-.1382.1231-.2.1387-.2461.1387a.6933.6933,0,0,1-.2774-.1084,1.0817,1.0817,0,0,0-.5385-.1846A1.05,1.05,0,0,0,92.7358,137.42Z"/><path class="cls-4" d="M95.6162,136.7425a7.6083,7.6083,0,0,0,1.1084-.4.6235.6235,0,0,1,.231-.1074c.0464,0,.0771.0459.0615.2148-.0308.3086-.0308,1.2471-.0308,2.2324,0,1.294,0,2.4327.0308,2.6944.0308.3086.185.3857.4311.4472.1539.03.231.0616.231.1231,0,.0771-.123.1074-.2461.1074-.1387,0-.7085-.0615-1.124-.0615-.5083,0-.7544.0312-.9238.0312-.108,0-.2154-.0312-.2154-.0927s.0767-.1075.2925-.1387c.3384-.0928.4771-.2158.4927-.8467.0151-.4619.0459-3.2637.0459-3.418,0-.2158-.0152-.3076-.4463-.539-.0772-.0459-.1231-.0918-.1231-.1231C95.4316,136.82,95.4775,136.7728,95.6162,136.7425Zm1.54-2.51a.5862.5862,0,0,1-.57.585.5481.5481,0,0,1-.5078-.5693.5709.5709,0,0,1,.5386-.6006A.5629.5629,0,0,1,97.1558,134.2327Z"/><path class="cls-4" d="M99.5278,137.4818c0,.6464.585,1.0156.97,1.247,1.0009.6465,1.4008,1.0313,1.4008,1.8164a1.58,1.58,0,0,1-.8,1.293,2.5563,2.5563,0,0,1-1.2319.3389A3.1233,3.1233,0,0,1,98.65,141.9c-.123-.0459-.231-.1533-.231-.2461,0-.2158-.0307-.6006-.0459-.77-.0307-.2.0152-.2461.0459-.2461.0464,0,.0928,0,.2.292a1.5056,1.5056,0,0,0,.647.832,1.1829,1.1829,0,0,0,.6929.1846,1.0558,1.0558,0,0,0,1.0005-1.0322c0-.585-.4-.9082-1.0161-1.293-.6622-.4307-1.2779-1.001-1.2779-1.6777a1.4594,1.4594,0,0,1,.585-1.2168,1.9935,1.9935,0,0,1,1.2934-.4307,3.7746,3.7746,0,0,1,1.0469.1689.2525.2525,0,0,1,.0767.1387c.0156.169.0771.4776.0928.7237,0,.1689-.0308.246-.0772.246-.0615,0-.0923-.0771-.1387-.1845a1.1691,1.1691,0,0,0-.3691-.6309,1.2659,1.2659,0,0,0-.7236-.2314A.8972.8972,0,0,0,99.5278,137.4818Z"/><path class="cls-4" d="M106.9033,136.4808c.3389,0,.9546-.0772,1.355-.0772.1694,0,.231.0459.231.0928,0,.03-.0464.0918-.231.123a2.7479,2.7479,0,0,0-1.4165.6768c-.4.3086-1.1548.9551-1.4473,1.2324-.0307.03,0,.0772.0157.1074.4619.5391,1.57,1.7247,2.2939,2.4639a1.99,1.99,0,0,0,1.1084.7236c.1387.03.231.0762.231.1377,0,.0928-.1387.1084-.2618.1084-.5234,0-1.1084-.0771-1.7089-.0771-.2618,0-.462.0156-.6929.0156-.1695,0-.2769,0-.2769-.0928,0-.0771.0767-.1074.354-.1689.2618-.0615.2925-.2.1538-.416-.3232-.3692-1.4165-1.5244-1.8784-1.9863-.123-.1231-.2309-.2305-.2925-.2305-.0459,0-.0615.0918-.0615.1533-.0151.2774-.0307.7861-.0151,1.6328,0,.7383.123.7852.6.8926.1543.0459.2309.0771.2309.1387,0,.0771-.123.1074-.2924.1074-.4312,0-.7544-.0459-1.1548-.0459-.4927,0-.8159.0459-1.0005.0459-.1543,0-.2466-.0459-.2466-.1074,0-.0459.0923-.0928.2-.1075.4775-.124.585-.2617.6157-.77.062-1.124.0772-2.417.0772-3.6181.0156-1.2.0615-3.1709.0615-4.3721a2.6168,2.6168,0,0,0-.0615-.708c-.0308-.123-.1695-.2158-.354-.3086-.0772-.0459-.1387-.0762-.1387-.1074,0-.0615.0923-.0928.2466-.1387a9.3884,9.3884,0,0,0,1.0927-.3691.7065.7065,0,0,1,.2466-.0772c.0152,0,.0459.0459.0459.1231-.0307.5078-.0766,1.8632-.0766,3.0019,0,.4776-.0772,2.51-.0772,4.2031,0,.17.0308.2471.0772.2471a.775.775,0,0,0,.3076-.17,13.1911,13.1911,0,0,0,1.6631-1.5391.5588.5588,0,0,0,.1694-.2773c0-.0928-.1079-.1846-.4468-.2461-.1386-.0156-.2617-.0615-.2617-.1231s.1079-.1084.2466-.1084C106.38,136.4651,106.7339,136.4808,106.9033,136.4808Z"/><path class="cls-4" d="M110.4463,137.4818c0,.6464.5849,1.0156.97,1.247,1.001.6465,1.4009,1.0313,1.4009,1.8164a1.58,1.58,0,0,1-.8,1.293,2.5566,2.5566,0,0,1-1.2319.3389,3.1233,3.1233,0,0,1-1.2163-.2774c-.1231-.0459-.231-.1533-.231-.2461,0-.2158-.0308-.6006-.0459-.77-.0308-.2.0151-.2461.0459-.2461.0464,0,.0928,0,.2.292a1.5048,1.5048,0,0,0,.647.832,1.1826,1.1826,0,0,0,.6928.1846,1.0557,1.0557,0,0,0,1.0005-1.0322c0-.585-.4-.9082-1.0161-1.293-.6621-.4307-1.2778-1.001-1.2778-1.6777a1.46,1.46,0,0,1,.5849-1.2168,1.9938,1.9938,0,0,1,1.2935-.4307,3.776,3.776,0,0,1,1.0469.1689.2538.2538,0,0,1,.0771.1387c.0152.169.0767.4776.0923.7237,0,.1689-.0308.246-.0771.246-.0616,0-.0923-.0771-.1387-.1845a1.1682,1.1682,0,0,0-.37-.6309,1.2632,1.2632,0,0,0-.7232-.2314A.8971.8971,0,0,0,110.4463,137.4818Z"/><path class="cls-4" d="M113.7109,141.4993a.7.7,0,0,1,.6924-.6924.6492.6492,0,0,1,.6162.6778.6623.6623,0,0,1-.6621.6924A.6778.6778,0,0,1,113.7109,141.4993Z"/><path class="cls-4" d="M116.8521,132.7239a1.6712,1.6712,0,0,1-1.3858,1.4932c-.0923,0-.1387-.03-.1387-.0762,0-.0312.0616-.0771.1538-.124a1.2314,1.2314,0,0,0,.8165-1.0312c0-.3077-.1695-.5079-.5855-.6006-.1538-.0459-.3076-.1387-.3076-.3233a.4577.4577,0,0,1,.4619-.4306A1.0277,1.0277,0,0,1,116.8521,132.7239Zm1.9243,0a1.6712,1.6712,0,0,1-1.3858,1.4932c-.0766,0-.1382-.03-.1382-.0762,0-.0312.0923-.0771.1538-.124a1.2055,1.2055,0,0,0,.816-1.0156c0-.3233-.1695-.5235-.585-.6162a.36.36,0,0,1-.2925-.3233.452.452,0,0,1,.4771-.4306A1.0234,1.0234,0,0,1,118.7764,132.7239Z"/></svg>