<svg id="Layer_1" data-name="Layer 1" xmlns="http://www.w3.org/2000/svg" viewBox="0 0 399 200"><defs><style>.cls-1,.cls-3,.cls-4,.cls-5{fill:none;stroke-linecap:round;}.cls-1,.cls-3,.cls-5{stroke:#222f3c;}.cls-1,.cls-4,.cls-5{stroke-linejoin:round;}.cls-1{stroke-width:0.5px;}.cls-2{fill:#333838;}.cls-3{stroke-miterlimit:10;}.cls-3,.cls-4,.cls-5{stroke-width:0.4px;}.cls-4{stroke:#231f20;}</style></defs><line class="cls-1" x1="250.8819" y1="121.3618" x2="241.6971" y2="121.3618"/><line class="cls-1" x1="278.2227" y1="121.3618" x2="269.038" y2="121.3618"/><line class="cls-1" x1="268.0375" y1="117.8554" x2="278.2227" y2="117.8554"/><line class="cls-1" x1="241.6971" y1="117.8554" x2="251.8825" y2="117.8554"/><line class="cls-1" x1="247.1164" y1="143.0121" x2="249.4488" y2="143.0121"/><line class="cls-1" x1="258.7937" y1="143.0121" x2="261.1261" y2="143.0121"/><line class="cls-1" x1="270.4711" y1="143.0121" x2="272.8035" y2="143.0121"/><line class="cls-1" x1="252.9551" y1="146.1848" x2="255.2875" y2="146.1848"/><line class="cls-1" x1="264.6324" y1="146.1848" x2="266.9648" y2="146.1848"/><polyline class="cls-1" points="241.697 138.637 247.784 136.299 253.872 138.637 258.207 136.972 258.207 130.994"/><polyline class="cls-1" points="278.223 138.637 272.136 136.299 266.048 138.637 261.713 136.972 261.713 130.996"/><circle class="cls-1" cx="259.9599" cy="122.0588" r="9.1044" transform="translate(47.7099 315.5205) rotate(-67.5)"/><polyline class="cls-1" points="253.607 128.578 241.697 128.578 241.697 149.572 278.223 149.572 278.223 128.578 266.312 128.578"/><path class="cls-1" d="M256.2343,123.6611c0-2.0577,3.7256-6.5362,3.7256-6.5362s3.7256,4.4785,3.7256,6.5362a3.7256,3.7256,0,0,1-7.4512,0Z"/><polyline class="cls-1" points="285.712 113.394 282.049 113.394 280.17 115.075 278.395 115.075 278.395 123.832 280.17 123.832 282.049 125.513 285.712 125.513"/><path class="cls-2" d="M305.3369,138.7818c.3692,0,1.001.0615,1.4629.0615.3389,0,.708-.0312,1.0313-.0312.2158,0,.3076.0469.3076.1084,0,.0771-.0918.123-.2764.1533-.4316.0772-.4316.2617-.3232.5391.6464,1.6015,2.1709,4.8808,3.2177,7.19.0459.1074.1075.0771.1534,0,.4316-.8779.8007-1.6475,1.2168-2.6328a.43.43,0,0,0,.03-.1846c-.2461-.5849-1.2773-2.9258-1.6162-3.665-.4463-.9541-.5693-1.1387-1.0469-1.2617-.2461-.0469-.3232-.1084-.3232-.1856,0-.0459.0918-.0918.292-.0918.4473,0,.7392.0615,1.2939.0615s.9082-.0615,1.2618-.0615c.1543,0,.2617.03.2617.0918,0,.0772-.0918.124-.292.17-.416.0772-.5694.2617-.3389.8311.2461.6465.708,1.6933,1.2168,2.8642.0147.03.0762.0459.1231-.0312.3691-.7539.6923-1.4629,1.0156-2.2168.4775-1.124.4619-1.2783-.2-1.4316-.2774-.0616-.3233-.1231-.3233-.1856,0-.0459.0928-.0762.2774-.0762.3848,0,.6308.0459,1.0312.0459.5391,0,.7852-.0615,1.14-.0615.1846,0,.2617.0156.2617.0772,0,.0771-.0771.123-.293.1689-.5693.1231-.8623.4463-1.37,1.34-.4.77-1.1543,2.294-1.416,2.7715a.2654.2654,0,0,0,.0156.1846c.3848.9082,1.0616,2.3711,1.585,3.5254.0615.1074.1084.0771.1387,0,.7392-1.6016,2.6025-5.9121,2.9257-7.0518.0772-.3379.0616-.6-.4462-.7539-.2471-.0771-.3389-.1074-.3389-.17s.0459-.0918.2617-.0918c.4,0,.6152.0615,1.0772.0615.4316,0,.8466-.0615,1.124-.0615.2,0,.2773.0156.2773.0772s-.0771.123-.3545.1689c-.6465.17-.9238.4932-1.8935,2.6787-.97,2.125-2.2168,5.0352-2.9248,6.7285-.1084.2618-.1543.3545-.2315.3545-.1074,0-.1689-.1084-.2617-.3545-.3232-.9394-1.2-2.8486-1.6475-3.834-.03-.0615-.0771-.0615-.1074-.0146-.5849,1.1387-1.4013,2.94-1.74,3.833-.0918.2461-.1846.37-.2461.37-.0918,0-.1231-.0927-.2305-.37-.2-.5078-.6777-1.6318-.8779-2.0937-.8467-1.9551-1.8779-4.2334-2.6016-5.7432-.5547-1.2-.6777-1.4775-1.2627-1.5547-.1845-.0156-.3232-.0771-.3232-.1387C305.0293,138.8433,305.1367,138.7818,305.3369,138.7818Z"/><path class="cls-2" d="M321.583,143.5855a3.735,3.735,0,0,1,.2149,1.4c0,.57-.0459,2.0322-.0459,2.4326a.528.528,0,0,0,.5693.586.9921.9921,0,0,0,.4473-.1387c.0918-.0469.1533,0,.0918.1387a1.2972,1.2972,0,0,1-1.1856.6611,1.0332,1.0332,0,0,1-.9082-.6924.0533.0533,0,0,0-.0771-.0156,2.1537,2.1537,0,0,1-1.5088.6934,1.2776,1.2776,0,0,1-1.2315-1.3243,1.0869,1.0869,0,0,1,.5537-.8779c.37-.2,1.7715-.6152,2.0948-.7393a.2906.2906,0,0,0,.2-.23,5.3218,5.3218,0,0,0,.03-.708c0-.6319-.1074-1.0625-.3691-1.2627a1.17,1.17,0,0,0-.6465-.2461,1.059,1.059,0,0,0-.6162.1846.6183.6183,0,0,0-.2315.3691,1.6756,1.6756,0,0,0-.0146.293.194.194,0,0,1-.0615.123,3.3606,3.3606,0,0,1-.7237.3389c-.0771.0156-.1543-.0772-.1543-.1387,0-.1074.1075-.2461.293-.4619a3.9927,3.9927,0,0,1,1.17-.8936,2.064,2.064,0,0,1,.9239-.2763A1.2622,1.2622,0,0,1,321.583,143.5855Zm-1.0322,4.2334a.6391.6391,0,0,0,.17-.3691,11.0837,11.0837,0,0,0,.0772-1.4629c0-.0156-.0313-.0918-.0625-.0772a8.7761,8.7761,0,0,0-1.4161.5235.798.798,0,0,0-.3847.77.8944.8944,0,0,0,.9238.8623A1.0527,1.0527,0,0,0,320.5508,147.8189Z"/><path class="cls-2" d="M323.9082,147.9273a1.7355,1.7355,0,0,1-.1846-.8779v-3.1865c0-.17-.0156-.2774-.0771-.3086a2.524,2.524,0,0,0-.3692-.0918c-.123-.0313-.2-.0772-.2-.1387,0-.0312.0157-.0771.1846-.1543a3.2768,3.2768,0,0,0,1.2627-1.0312c.1387-.1543.2461-.1231.2461-.0459,0,.1377-.03.5693-.0146.7539,0,.0459.0146.1386.0761.1386.2774,0,1.5557-.0459,1.8789-.0459.03,0,.0918.1075.0918.2149,0,.2617-.0761.3847-.1533.3847-.539,0-1.2939-.0146-1.709-.0146-.1845,0-.2158.0459-.2158.1387,0,.2617.0156,2.6787.0313,3.1562a1.5777,1.5777,0,0,0,.1689.8311,1.14,1.14,0,0,0,.9541.416,1.5036,1.5036,0,0,0,.8477-.2315c.1074-.0771.1533-.0615.1533,0,0,.0928-.1387.2461-.3389.4a2.1118,2.1118,0,0,1-1.2471.4A1.4274,1.4274,0,0,1,323.9082,147.9273Z"/><path class="cls-2" d="M331.9316,144.3707a.18.18,0,0,1-.1543.1689c-.123-.0156-2.125-.0459-2.4785-.0459h-.831c-.0313,0-.1084.0772-.1387.1231a2.1166,2.1166,0,0,0-.123.8467,2.7592,2.7592,0,0,0,.708,1.8632,2.0773,2.0773,0,0,0,1.539.6309,1.9668,1.9668,0,0,0,1.4629-.4922c.1231-.123.1846-.0928.1846-.0156a.585.585,0,0,1-.1533.2461,2.7218,2.7218,0,0,1-2.1407.97,2.4837,2.4837,0,0,1-1.832-.7852,3.0081,3.0081,0,0,1-.7392-2.0625,3.21,3.21,0,0,1,.8935-2.248,2.8622,2.8622,0,0,1,1.9238-.7695A1.7764,1.7764,0,0,1,331.9316,144.3707Zm-3.1406-.7852a1.3416,1.3416,0,0,0-.3232.6309.0653.0653,0,0,0,.0615.0615l2.001-.0156c.3388,0,.3691-.169.3691-.3076a.9919.9919,0,0,0-.2148-.6465,1.0779,1.0779,0,0,0-.77-.293A1.5964,1.5964,0,0,0,328.791,143.5855Z"/><path class="cls-2" d="M334.6582,143.9244a.8858.8858,0,0,0-.2617.5381,9.0235,9.0235,0,0,0-.0156.9394c0,1.14.0312,1.94.0615,2.2637.0615.4766.2471.585.832.6465.2149.03.292.0615.292.1387s-.1387.1074-.3691.1074c-.293,0-.8008-.0615-1.4473-.0615a8.2966,8.2966,0,0,0-.94.0927c-.1845,0-.2617-.0312-.2617-.0927,0-.0459.1084-.1231.2315-.1543a.6347.6347,0,0,0,.5537-.6309c.0312-.2617.0469-1.14.0469-2.1553v-1.709c0-.1084-.1084-.1543-.4-.4-.1084-.0772-.1231-.1231-.1231-.1543s.0918-.0918.2305-.1387a4.6732,4.6732,0,0,0,.9853-.3692.4862.4862,0,0,1,.2315-.0771c.03,0,.0615.0615.0615.2158,0,.169-.0156.7539-.0156,1.001,0,.0459.03.0615.0771.0146a2.5156,2.5156,0,0,1,1.6621-1.1084.8969.8969,0,0,1,.5391.2.2693.2693,0,0,1,.1084.2159,1.0555,1.0555,0,0,1-.3389.5234c-.1386.123-.2.1387-.247.1387a.6932.6932,0,0,1-.2764-.1084,1.084,1.084,0,0,0-.5391-.1846A1.0483,1.0483,0,0,0,334.6582,143.9244Z"/><path class="cls-2" d="M315.8613,156.1207a.272.272,0,0,1,.1533.2617c-.03.3691.0469,1.0312.0469,1.1855s-.0615.2461-.0927.2461c-.0616,0-.1075-.0771-.1387-.2a2.3954,2.3954,0,0,0-.7393-1.2314,3.5279,3.5279,0,0,0-2.3554-.77,3.7141,3.7141,0,0,0-2.6788,1.2012,5.5587,5.5587,0,0,0-1.17,3.5722,5.8338,5.8338,0,0,0,1.416,3.7256,3.6769,3.6769,0,0,0,2.6328,1.14,3.2641,3.2641,0,0,0,1.8321-.4317,2.7552,2.7552,0,0,0,1.1855-1.5088c.0615-.2.0928-.2617.1543-.2617s.0928.1387.0928.2315a11.0427,11.0427,0,0,1-.2158,1.2158.4171.4171,0,0,1-.1543.2314,5.5841,5.5841,0,0,1-3.002.8467,5.3,5.3,0,0,1-4.0029-1.6318,5.3888,5.3888,0,0,1-1.294-3.4034,4.91,4.91,0,0,1,1.7247-3.8945,5.5341,5.5341,0,0,1,3.5879-1.2783A7.1067,7.1067,0,0,1,315.8613,156.1207Z"/><path class="cls-2" d="M320.76,160.3853a3.7352,3.7352,0,0,1,.2148,1.4c0,.57-.0459,2.0332-.0459,2.4326a.5273.5273,0,0,0,.5693.585.9883.9883,0,0,0,.4473-.1377c.0918-.0469.1533,0,.0918.1377a1.296,1.296,0,0,1-1.1855.6621,1.0331,1.0331,0,0,1-.9082-.6924.0534.0534,0,0,0-.0772-.0156,2.1534,2.1534,0,0,1-1.5088.6934,1.2776,1.2776,0,0,1-1.2314-1.3243,1.0869,1.0869,0,0,1,.5537-.8779c.37-.2,1.7715-.6152,2.0947-.7392a.2906.2906,0,0,0,.2-.2305,5.3044,5.3044,0,0,0,.03-.708c0-.6319-.1074-1.0625-.3692-1.2627a1.17,1.17,0,0,0-.6464-.2461,1.0591,1.0591,0,0,0-.6163.1846.6188.6188,0,0,0-.2314.3691,1.6756,1.6756,0,0,0-.0146.293.1936.1936,0,0,1-.0616.123,3.3575,3.3575,0,0,1-.7236.3389c-.0772.0156-.1543-.0772-.1543-.1387,0-.1074.1074-.2461.293-.4619a3.97,3.97,0,0,1,1.17-.8926,2.0542,2.0542,0,0,1,.9238-.2773A1.2623,1.2623,0,0,1,320.76,160.3853Zm-1.0323,4.2334a.6391.6391,0,0,0,.17-.3691,11.0875,11.0875,0,0,0,.0771-1.4629c0-.0156-.0312-.0918-.0625-.0772a8.7754,8.7754,0,0,0-1.416.5235.7978.7978,0,0,0-.3848.77.8944.8944,0,0,0,.9239.8623A1.0522,1.0522,0,0,0,319.7275,164.6187Z"/><path class="cls-2" d="M327.4121,160.1236a3.2159,3.2159,0,0,1,.4922,2.0166c0,.8164.0156.94.0156,1.709.0156,1.0469.0615,1.14.4776,1.2471.1386.0615.23.0927.23.1543,0,.0918-.123.1074-.2773.1074-.2,0-.6465-.0615-.9854-.0615-.5234,0-.7236.0615-.9541.0615-.1386,0-.2461-.03-.2461-.0928s.0918-.123.292-.1689c.37-.0928.4317-.2.4317-.6465V162.356c0-1.247-.1084-1.6172-.4932-1.9091a1.3684,1.3684,0,0,0-.8769-.293,1.8426,1.8426,0,0,0-1.2012.4931.7939.7939,0,0,0-.1846.462c0,.1845.0147.97.0147,1.8935a12.5294,12.5294,0,0,0,.0927,1.6162c.0459.3389.2305.416.4776.4932.1845.0459.2617.0771.2617.1533,0,.0928-.1543.0928-.3086.0928-.123,0-.877-.0615-1.2314-.0615-.2,0-.5235.0312-.8155.0312-.17,0-.2929-.0312-.2929-.1084,0-.0615.1386-.123.3232-.1533.3848-.0772.4463-.1856.4619-.4932.0313-1.1084.0313-2.5254.0313-3.7724,0-.1534-.0313-.3233-.4-.5235-.0928-.0615-.1231-.0918-.1231-.1377,0-.0312.0762-.0771.2149-.124a5.7405,5.7405,0,0,0,1.2168-.5234c.0459-.0147.123.0468.1074.123a6.8893,6.8893,0,0,0-.03.8164c0,.0313.0459.0772.0762.0459a5.3412,5.3412,0,0,1,1.0937-.6924,2.0755,2.0755,0,0,1,.9082-.1845A1.5725,1.5725,0,0,1,327.4121,160.1236Z"/><path class="cls-2" d="M332.91,160.3853a3.7352,3.7352,0,0,1,.2148,1.4c0,.57-.0459,2.0332-.0459,2.4326a.5273.5273,0,0,0,.5693.585.9883.9883,0,0,0,.4473-.1377c.0918-.0469.1533,0,.0918.1377a1.296,1.296,0,0,1-1.1855.6621,1.0331,1.0331,0,0,1-.9082-.6924.0534.0534,0,0,0-.0772-.0156,2.1534,2.1534,0,0,1-1.5088.6934,1.2776,1.2776,0,0,1-1.2314-1.3243,1.0869,1.0869,0,0,1,.5537-.8779c.37-.2,1.7715-.6152,2.0947-.7392a.2906.2906,0,0,0,.2-.2305,5.3044,5.3044,0,0,0,.03-.708c0-.6319-.1074-1.0625-.3692-1.2627a1.17,1.17,0,0,0-.6465-.2461,1.059,1.059,0,0,0-.6162.1846.6183.6183,0,0,0-.2314.3691,1.6643,1.6643,0,0,0-.0147.293.1935.1935,0,0,1-.0615.123,3.3575,3.3575,0,0,1-.7236.3389c-.0772.0156-.1543-.0772-.1543-.1387,0-.1074.1074-.2461.293-.4619a3.97,3.97,0,0,1,1.17-.8926,2.0542,2.0542,0,0,1,.9238-.2773A1.2624,1.2624,0,0,1,332.91,160.3853Zm-1.0323,4.2334a.6391.6391,0,0,0,.17-.3691,11.0875,11.0875,0,0,0,.0771-1.4629c0-.0156-.0312-.0918-.0625-.0772a8.7754,8.7754,0,0,0-1.416.5235.7978.7978,0,0,0-.3848.77.8944.8944,0,0,0,.9238.8623A1.0523,1.0523,0,0,0,331.8779,164.6187Z"/><path class="cls-2" d="M336.3438,161.5552c0,1.9395.0156,2.6631.0312,2.9561.0146.416.1074.5234.5381.6006.0928.0156.2.0615.2.1074,0,.0615-.1074.1084-.3076.1084-.2461,0-.8008-.0312-1.0625-.0312-.4,0-.8008.0312-1.0313.0312-.1846,0-.2617-.0156-.2617-.0928s.0771-.0927.2773-.1386c.3848-.0772.4766-.2159.5381-.8926.0313-.57.0928-3.1719.1084-5.0195,0-1.2471.0156-2.51,0-3.1866,0-.3388-.0312-.416-.4316-.6621-.1074-.0615-.1533-.0928-.1533-.1386s.0918-.0928.23-.1231a8.034,8.034,0,0,0,1.1553-.3545.64.64,0,0,1,.1846-.0459c.03,0,.0459.0918.0459.169,0,.1074-.0615,2.7714-.0615,5.081Z"/><line class="cls-1" x1="352.7136" y1="111.0303" x2="291.3029" y2="111.0303"/><line class="cls-1" x1="291.3029" y1="127.9455" x2="352.7136" y2="127.9455"/><line class="cls-1" x1="291.3029" y1="127.9455" x2="352.7136" y2="127.9455"/><polyline class="cls-3" points="315.707 119.861 316.232 120.855 315.656 121.9"/><polyline class="cls-3" points="315.655 121.927 316.181 122.922 315.604 123.967"/><polyline class="cls-3" points="315.759 117.785 316.284 118.779 315.708 119.824"/><polyline class="cls-3" points="313.417 117.085 313.942 118.079 313.366 119.124"/><polyline class="cls-3" points="313.365 119.151 313.89 120.146 313.314 121.191"/><polyline class="cls-3" points="313.468 115.009 313.994 116.003 313.418 117.048"/><polyline class="cls-3" points="321.276 119.861 321.802 120.855 321.225 121.9"/><polyline class="cls-3" points="321.225 121.927 321.75 122.922 321.174 123.967"/><polyline class="cls-3" points="321.328 117.785 321.853 118.779 321.277 119.824"/><polyline class="cls-3" points="318.986 117.085 319.512 118.079 318.935 119.124"/><polyline class="cls-3" points="318.935 119.151 319.46 120.146 318.884 121.191"/><polyline class="cls-3" points="319.038 115.009 319.563 116.003 318.987 117.048"/><polyline class="cls-3" points="326.846 119.861 327.371 120.855 326.795 121.9"/><polyline class="cls-3" points="326.794 121.927 327.32 122.922 326.743 123.967"/><polyline class="cls-3" points="326.898 117.785 327.423 118.779 326.847 119.824"/><polyline class="cls-3" points="324.556 117.085 325.081 118.079 324.505 119.124"/><polyline class="cls-3" points="324.504 119.151 325.029 120.146 324.453 121.191"/><polyline class="cls-3" points="324.607 115.009 325.133 116.003 324.557 117.048"/><polyline class="cls-3" points="330.125 117.085 330.651 118.079 330.074 119.124"/><polyline class="cls-3" points="330.074 119.151 330.599 120.146 330.023 121.191"/><polyline class="cls-3" points="330.177 115.009 330.702 116.003 330.126 117.048"/><path class="cls-2" d="M241.3711,62.5074c.37,0,1.001.0615,1.4629.0615.3389,0,.708-.0307,1.0312-.0307.2159,0,.3077.0459.3077.1079,0,.0766-.0918.123-.2764.1538-.4317.0771-.4317.2617-.3233.5386.6465,1.6015,2.1709,4.8808,3.2178,7.19.0459.1074.1074.0766.1533,0,.4317-.8779.8008-1.6475,1.2168-2.6328a.4306.4306,0,0,0,.03-.1851c-.2461-.585-1.2773-2.9253-1.6162-3.6641-.4463-.9545-.5693-1.1391-1.0469-1.2626-.2461-.0459-.3232-.1075-.3232-.1846,0-.0464.0918-.0923.292-.0923.4472,0,.7392.0615,1.2939.0615s.9082-.0615,1.2617-.0615c.1543,0,.2618.0308.2618.0923,0,.0771-.0918.123-.292.1694-.4161.0767-.5694.2617-.3389.8316.2461.6464.708,1.6933,1.2168,2.8632.0146.0308.0762.0464.123-.0307.3692-.7544.6924-1.4624,1.0157-2.2168.4775-1.124.4619-1.2779-.2-1.4321-.2774-.0616-.3233-.1231-.3233-.1846,0-.0464.0928-.0772.2774-.0772.3847,0,.6308.0464,1.0312.0464.5391,0,.7852-.0615,1.14-.0615.1845,0,.2617.0151.2617.0767,0,.0771-.0772.1235-.293.1694-.5693.1235-.8623.4468-1.37,1.3393-.4.77-1.1543,2.2945-1.416,2.7715a.2653.2653,0,0,0,.0156.1846c.3848.9087,1.0615,2.3711,1.585,3.5259.0615.1079.1084.0771.1386,0,.7393-1.6011,2.6026-5.9121,2.9258-7.0513.0772-.3389.0615-.6006-.4463-.7544-.247-.0771-.3388-.1079-.3388-.1694s.0459-.0923.2617-.0923c.4,0,.6152.0615,1.0771.0615.4317,0,.8467-.0615,1.1241-.0615.2,0,.2773.0151.2773.0767s-.0771.1235-.3545.1694c-.6465.1694-.9238.4927-1.8935,2.6792-.97,2.1245-2.2168,5.0342-2.9248,6.728-.1084.2617-.1543.354-.2315.354-.1074,0-.1689-.1079-.2617-.354-.3233-.9394-1.2-2.8481-1.6475-3.8335-.03-.062-.0771-.062-.1074-.0156-.585,1.1392-1.4014,2.9409-1.74,3.8335-.0918.2466-.1846.37-.2461.37-.0918,0-.1231-.0923-.2305-.37-.2-.5078-.6777-1.6318-.8779-2.0938-.8467-1.955-1.878-4.2338-2.6016-5.7426-.5547-1.2012-.6777-1.4781-1.2627-1.5552-.1846-.0151-.3232-.0767-.3232-.1382C241.0635,62.5689,241.1709,62.5074,241.3711,62.5074Z"/><path class="cls-2" d="M257.6172,67.3111a3.7359,3.7359,0,0,1,.2148,1.4009c0,.57-.0459,2.0322-.0459,2.4326a.5275.5275,0,0,0,.5694.585.9851.9851,0,0,0,.4472-.1387c.0918-.0459.1534,0,.0918.1387a1.2969,1.2969,0,0,1-1.1855.6621,1.0345,1.0345,0,0,1-.9082-.6929.0541.0541,0,0,0-.0772-.0156,2.1547,2.1547,0,0,1-1.5088.6928,1.2773,1.2773,0,0,1-1.2314-1.3237,1.0874,1.0874,0,0,1,.5537-.8779c.37-.2,1.7715-.6157,2.0947-.7388a.2916.2916,0,0,0,.2-.2309,5.3082,5.3082,0,0,0,.03-.7085c0-.6309-.1074-1.062-.3691-1.2622a1.1752,1.1752,0,0,0-.6465-.2466,1.06,1.06,0,0,0-.6162.185.62.62,0,0,0-.2315.37,1.6711,1.6711,0,0,0-.0146.2924.1933.1933,0,0,1-.0615.1231,3.3389,3.3389,0,0,1-.7237.3389c-.0771.0151-.1543-.0772-.1543-.1387,0-.1079.1074-.2466.293-.4619a3.9812,3.9812,0,0,1,1.17-.8931,2.0657,2.0657,0,0,1,.9238-.2773A1.2628,1.2628,0,0,1,257.6172,67.3111ZM256.585,71.545a.6392.6392,0,0,0,.17-.37,11.0841,11.0841,0,0,0,.0771-1.4629c0-.0152-.0312-.0923-.0625-.0767a8.6844,8.6844,0,0,0-1.416.5235.7964.7964,0,0,0-.3847.7695.894.894,0,0,0,.9238.8623A1.0546,1.0546,0,0,0,256.585,71.545Z"/><path class="cls-2" d="M259.9424,71.6524a1.7312,1.7312,0,0,1-.1846-.8774V67.588c0-.1695-.0156-.2769-.0771-.3081a2.5163,2.5163,0,0,0-.3692-.0923c-.123-.0308-.2-.0767-.2-.1387,0-.0308.0157-.0767.1846-.1538a3.2808,3.2808,0,0,0,1.2627-1.0313c.1387-.1543.2461-.1235.2461-.0463,0,.1386-.03.57-.0147.7544,0,.0463.0147.1386.0762.1386.2774,0,1.5557-.0464,1.8789-.0464.03,0,.0918.1079.0918.2159,0,.2617-.0762.3847-.1533.3847-.5391,0-1.294-.0156-1.709-.0156-.1846,0-.2158.0464-.2158.1387,0,.2617.0156,2.6792.0312,3.1562a1.5793,1.5793,0,0,0,.169.8316,1.1381,1.1381,0,0,0,.9541.4155,1.5078,1.5078,0,0,0,.8476-.231c.1075-.0766.1534-.0615.1534,0,0,.0923-.1387.2466-.3389.4a2.11,2.11,0,0,1-1.2471.4A1.4268,1.4268,0,0,1,259.9424,71.6524Z"/><path class="cls-2" d="M267.9658,68.0963a.1809.1809,0,0,1-.1543.1689c-.123-.0151-2.125-.0459-2.4785-.0459h-.831c-.0313,0-.1084.0772-.1387.1231a2.11,2.11,0,0,0-.124.8466,2.7613,2.7613,0,0,0,.7089,1.8633,2.0777,2.0777,0,0,0,1.5391.6309,1.9631,1.9631,0,0,0,1.4629-.4927c.123-.123.1846-.0923.1846-.0151a.5862.5862,0,0,1-.1534.2461,2.7221,2.7221,0,0,1-2.1406.97,2.4855,2.4855,0,0,1-1.832-.7852,3.0105,3.0105,0,0,1-.7393-2.063,3.21,3.21,0,0,1,.8936-2.248,2.8625,2.8625,0,0,1,1.9238-.77A1.7768,1.7768,0,0,1,267.9658,68.0963Zm-3.1406-.7852a1.3424,1.3424,0,0,0-.3232.6309.0657.0657,0,0,0,.0615.0615l2.001-.0151c.3388,0,.3691-.1695.3691-.3082a.9918.9918,0,0,0-.2148-.6464,1.08,1.08,0,0,0-.7706-.2925A1.5957,1.5957,0,0,0,264.8252,67.3111Z"/><path class="cls-2" d="M270.6924,67.65a.8873.8873,0,0,0-.2617.539,9.0064,9.0064,0,0,0-.0157.939c0,1.14.0313,1.94.0616,2.2632.0615.4775.247.585.832.647.2148.0307.292.0615.292.1382s-.1387.1079-.3692.1079c-.2929,0-.8007-.0616-1.4472-.0616a8.3285,8.3285,0,0,0-.94.0923c-.1845,0-.2617-.0307-.2617-.0923,0-.0463.1084-.123.2315-.1538a.6363.6363,0,0,0,.5537-.6313c.0312-.2617.0468-1.1392.0468-2.1553v-1.709c0-.1079-.1084-.1543-.4-.4-.1084-.0771-.123-.1235-.123-.1543s.0918-.0922.2305-.1381a4.6738,4.6738,0,0,0,.9853-.37.4858.4858,0,0,1,.2315-.0771c.03,0,.0615.0615.0615.2158,0,.1694-.0156.7544-.0156,1.0005,0,.0464.03.0615.0771.0156a2.5117,2.5117,0,0,1,1.6621-1.1084.8963.8963,0,0,1,.5391.2.2689.2689,0,0,1,.1074.2158,1.0518,1.0518,0,0,1-.3379.5235c-.1387.123-.2.1387-.2471.1387a.6963.6963,0,0,1-.2763-.108,1.08,1.08,0,0,0-.5391-.1845A1.0518,1.0518,0,0,0,270.6924,67.65Z"/><path class="cls-2" d="M248.2529,77.9532a2.59,2.59,0,0,0,1.2627-.1689c.0615-.0464.1084-.0621.1231-.0313a.3431.3431,0,0,1,.0156.2,4.85,4.85,0,0,0-.0459,1.17c0,.231-.0772.3384-.123.3384-.0616,0-.1084-.1382-.1241-.2153a1.4222,1.4222,0,0,0-.2763-.7237c-.1387-.123-.3389-.1845-1.417-.1845-.4766,0-1.2471,0-1.4932.0307-.0771.0152-.0928.1387-.0928.2461,0,.57-.03,4.8037-.03,4.8037-.0157.8623.0459,2.7715.0918,3.2486.0625.5234.2158.6313.7392.7851.1846.0464.2617.0772.2617.1538,0,.0928-.1074.1079-.3076.1079-.3545,0-.831-.0923-1.4473-.0923-.7851,0-1.247.0923-1.4931.0923-.2,0-.2774-.0615-.2774-.1386,0-.0616.1387-.1075.3077-.1382.7392-.1079.832-.3545.8779-1.0625.1074-1.4937.1074-7.6211.0771-7.8365-.0156-.1386-.0615-.185-.1084-.185a9.4588,9.4588,0,0,0-1.1543-.0459,12.0682,12.0682,0,0,0-1.3086.0615c-.2929.0615-.4931.2461-.708.8467-.0771.1846-.1543.2617-.2158.2617s-.0615-.123-.0459-.2309a9.0388,9.0388,0,0,0,.2-1.3243c.0147-.123.0147-.2.0918-.2309.0313-.0152.0772.0156.1231.0615a.84.84,0,0,0,.4931.1543c.2461.0151,1.77.0615,3.3565.0615Z"/><path class="cls-2" d="M250.4414,83.0494a.8879.8879,0,0,0-.2617.5391,9.0074,9.0074,0,0,0-.0156.9389c0,1.14.0312,1.94.0615,2.2632.0615.4775.2471.5854.832.647.2149.0307.292.0615.292.1382s-.1387.1079-.3691.1079c-.293,0-.8008-.0616-1.4473-.0616a8.3258,8.3258,0,0,0-.9394.0923c-.1846,0-.2618-.0307-.2618-.0923,0-.0463.1084-.123.2315-.1538a.6363.6363,0,0,0,.5537-.6313c.0312-.2617.0469-1.1392.0469-2.1553v-1.709c0-.1079-.1084-.1543-.4-.4-.1084-.0771-.1231-.123-.1231-.1543s.0918-.0922.2305-.1381a4.6718,4.6718,0,0,0,.9853-.37.4862.4862,0,0,1,.2315-.0771c.03,0,.0615.0615.0615.2158,0,.1694-.0156.7544-.0156,1.0005,0,.0464.03.0615.0771.0156a2.5128,2.5128,0,0,1,1.6621-1.1089.8969.8969,0,0,1,.5391.2.27.27,0,0,1,.1084.2158,1.0553,1.0553,0,0,1-.3389.5235c-.1386.123-.2.1387-.247.1387a.6959.6959,0,0,1-.2764-.108,1.08,1.08,0,0,0-.5391-.1845A1.0518,1.0518,0,0,0,250.4414,83.0494Z"/><path class="cls-2" d="M257.5244,83.4962a.1809.1809,0,0,1-.1543.1689c-.123-.0151-2.125-.0459-2.4785-.0459h-.8311c-.0312,0-.1084.0772-.1386.1231a2.1087,2.1087,0,0,0-.124.8466,2.7608,2.7608,0,0,0,.7089,1.8633,2.0777,2.0777,0,0,0,1.5391.6309,1.9633,1.9633,0,0,0,1.4629-.4927c.123-.123.1846-.0923.1846-.0151a.5862.5862,0,0,1-.1534.2461,2.7223,2.7223,0,0,1-2.1406.97,2.4855,2.4855,0,0,1-1.832-.7852,3.0105,3.0105,0,0,1-.7393-2.063,3.21,3.21,0,0,1,.8936-2.248,2.8625,2.8625,0,0,1,1.9238-.77A1.7768,1.7768,0,0,1,257.5244,83.4962Zm-3.1406-.7852a1.3428,1.3428,0,0,0-.3233.6309.0658.0658,0,0,0,.0616.0615l2.0009-.0151c.3389,0,.3692-.1695.3692-.3081a.9915.9915,0,0,0-.2149-.6465,1.08,1.08,0,0,0-.7705-.2925A1.5957,1.5957,0,0,0,254.3838,82.711Z"/><path class="cls-2" d="M262.0684,82.711a3.7362,3.7362,0,0,1,.2148,1.4009c0,.57-.0459,2.0322-.0459,2.4326a.5275.5275,0,0,0,.5693.585.9851.9851,0,0,0,.4473-.1387c.0918-.0459.1533,0,.0918.1387a1.2969,1.2969,0,0,1-1.1855.6621,1.0343,1.0343,0,0,1-.9082-.6929.0541.0541,0,0,0-.0772-.0156,2.1548,2.1548,0,0,1-1.5088.6929,1.2774,1.2774,0,0,1-1.2314-1.3238,1.0874,1.0874,0,0,1,.5537-.8779c.37-.2,1.7715-.6157,2.0947-.7388a.2916.2916,0,0,0,.2-.2309,5.3045,5.3045,0,0,0,.03-.7085c0-.6309-.1074-1.062-.3692-1.2622a1.1749,1.1749,0,0,0-.6464-.2466,1.06,1.06,0,0,0-.6163.185.62.62,0,0,0-.2314.3692,1.669,1.669,0,0,0-.0147.2929.1928.1928,0,0,1-.0615.1231,3.3384,3.3384,0,0,1-.7236.3389c-.0772.0151-.1543-.0772-.1543-.1387,0-.1079.1074-.2466.293-.4619a3.9812,3.9812,0,0,1,1.17-.8931,2.0657,2.0657,0,0,1,.9238-.2773A1.2629,1.2629,0,0,1,262.0684,82.711Zm-1.0323,4.2339a.6408.6408,0,0,0,.17-.37,11.0841,11.0841,0,0,0,.0771-1.4629c0-.0152-.0312-.0923-.0625-.0767a8.681,8.681,0,0,0-1.416.5235.7965.7965,0,0,0-.3848.7695.8941.8941,0,0,0,.9239.8623A1.0541,1.0541,0,0,0,261.0361,86.9449Z"/><path class="cls-2" d="M264.3936,87.0523a1.7312,1.7312,0,0,1-.1846-.8774v-3.187c0-.1695-.0156-.2769-.0772-.3081a2.5109,2.5109,0,0,0-.3691-.0923c-.1231-.0308-.2-.0767-.2-.1382,0-.0313.0156-.0772.1846-.1543a3.2823,3.2823,0,0,0,1.2627-1.0313c.1386-.1543.2461-.1235.2461-.0463,0,.1386-.03.57-.0147.7544,0,.0463.0147.1386.0762.1386.2773,0,1.5556-.0464,1.8789-.0464.03,0,.0918.1079.0918.2159,0,.2617-.0762.3847-.1533.3847-.5391,0-1.294-.0156-1.709-.0156-.1846,0-.2158.0464-.2158.1387,0,.2617.0156,2.6792.0312,3.1562a1.5782,1.5782,0,0,0,.169.8316,1.1378,1.1378,0,0,0,.9541.4155,1.508,1.508,0,0,0,.8476-.231c.1074-.0771.1533-.0615.1533,0,0,.0923-.1386.2466-.3388.4a2.11,2.11,0,0,1-1.2471.4A1.4268,1.4268,0,0,1,264.3936,87.0523Z"/><path class="cls-2" d="M268.0283,82.526c0-.0459.0615-.0767.1846-.108a3.0531,3.0531,0,0,0,1.0469-.4619.4465.4465,0,0,1,.23-.0923c.0469,0,.0772.0616.0772.1543,0,.169-.0156.6,0,.7544,0,.0616.0156.1382.0771.0923a3.2373,3.2373,0,0,1,1.9092-.893,1.5759,1.5759,0,0,1,1.5391.97.1029.1029,0,0,0,.1084.0312,3.0872,3.0872,0,0,1,2.1093-1.0473,1.587,1.587,0,0,1,1.5547,1.14,5.0209,5.0209,0,0,1,.1846,1.4473c.0156.5078.0469,1.6782.0615,2.2168.0157.5083.1084.6157.4463.6777.2158.0459.2774.0923.2774.1382,0,.0771-.0772.1079-.2618.1079-.1689,0-.708-.0308-1.0625-.0308-.3691,0-.708.0464-.9384.0464-.2,0-.3086-.0307-.3086-.0927,0-.0767.1386-.1231.2617-.1539.4473-.0922.5234-.2309.5234-.6928a19.5459,19.5459,0,0,0-.1074-3.0484,1.1925,1.1925,0,0,0-1.293-1.1547,1.9229,1.9229,0,0,0-1.3086.57.7517.7517,0,0,0-.1084.4927c.0313.4311.0772,2.7866.1084,3.2021.0459.4312.0918.5391.4766.6313.17.0616.2471.0772.2471.1387s-.0928.0923-.2617.0923c-.2774,0-.7393-.0308-1.1856-.0308-.3389,0-.709.0308-.8779.0308s-.2461-.0308-.2461-.0923c0-.0464.0771-.1079.2773-.1538.3233-.062.4766-.1387.4766-.5083l.0156-2.4634c0-.8466-.0771-1.2007-.3847-1.54a1.1769,1.1769,0,0,0-.94-.3389,1.7417,1.7417,0,0,0-1.1543.4468.5577.5577,0,0,0-.1846.3691,9.461,9.461,0,0,0-.0615,1.0474c0,1.1392.0615,2.2168.0918,2.4941a.5255.5255,0,0,0,.4932.5078c.1689.0308.23.0772.23.1231,0,.0771-.123.1079-.23.1079-.293,0-.8008-.0308-1.17-.0308-.4775,0-.8007.0308-1.0009.0308-.1387,0-.2774-.0464-.2774-.1079s.0928-.1074.3076-.1382c.4776-.1079.4776-.2773.5088-.4619.0616-.3237.0616-1.5708.0616-2.4634,0-.57.0146-.9546-.0157-1.2471a.5817.5817,0,0,0-.3545-.539c-.1074-.0615-.1386-.0923-.1386-.1694Z"/><path class="cls-2" d="M283.2734,83.4962a.1809.1809,0,0,1-.1543.1689c-.123-.0151-2.125-.0459-2.4785-.0459h-.831c-.0313,0-.1084.0772-.1387.1231a2.1147,2.1147,0,0,0-.123.8466,2.76,2.76,0,0,0,.708,1.8633,2.0773,2.0773,0,0,0,1.539.6309,1.963,1.963,0,0,0,1.4629-.4927c.1231-.123.1846-.0923.1846-.0151a.5856.5856,0,0,1-.1533.2461,2.7223,2.7223,0,0,1-2.1407.97,2.4855,2.4855,0,0,1-1.832-.7852,3.0105,3.0105,0,0,1-.7393-2.063,3.21,3.21,0,0,1,.8936-2.248,2.8625,2.8625,0,0,1,1.9238-.77A1.7768,1.7768,0,0,1,283.2734,83.4962Zm-3.1406-.7852a1.3433,1.3433,0,0,0-.3232.6309.0657.0657,0,0,0,.0615.0615l2.001-.0151c.3388,0,.3691-.1695.3691-.3081a.9919.9919,0,0,0-.2148-.6465,1.08,1.08,0,0,0-.7705-.2925A1.5957,1.5957,0,0,0,280.1328,82.711Z"/><path class="cls-2" d="M288.9863,82.4493a3.2168,3.2168,0,0,1,.4922,2.0166c0,.8159.0156.9394.0156,1.709.0157,1.0469.0616,1.1391.4776,1.247.1387.0616.23.0923.23.1539,0,.0927-.123.1079-.2773.1079-.2,0-.6465-.0616-.9853-.0616-.5235,0-.7237.0616-.9541.0616-.1387,0-.2461-.0308-.2461-.0923s.0918-.1231.2919-.1695c.37-.0922.4317-.2.4317-.6464V84.6817c0-1.2471-.1084-1.6167-.4932-1.9092a1.3656,1.3656,0,0,0-.8769-.2924,1.8419,1.8419,0,0,0-1.2012.4926.7926.7926,0,0,0-.1846.4619c0,.1846.0147.97.0147,1.8936a12.5357,12.5357,0,0,0,.0928,1.6167c.0459.3384.23.4155.4775.4927.1846.0459.2617.0766.2617.1538,0,.0923-.1543.0923-.3086.0923-.123,0-.8769-.0616-1.2314-.0616-.2,0-.5235.0308-.8155.0308-.17,0-.2929-.0308-.2929-.1079,0-.0615.1386-.1231.3232-.1538.3848-.0772.4463-.1846.4619-.4927.0313-1.1084.0313-2.5249.0313-3.772,0-.1538-.0313-.3232-.4-.5234-.0928-.0615-.1231-.0923-.1231-.1387,0-.0307.0762-.0771.2149-.123a5.7827,5.7827,0,0,0,1.2168-.5235c.0459-.0156.123.0459.1074.1231a6.8766,6.8766,0,0,0-.03.8159c0,.0308.0459.0772.0762.0464a5.3217,5.3217,0,0,1,1.0938-.6929,2.0761,2.0761,0,0,1,.9082-.185A1.5725,1.5725,0,0,1,288.9863,82.4493Z"/><path class="cls-2" d="M291.6045,87.0523a1.7312,1.7312,0,0,1-.1846-.8774v-3.187c0-.1695-.0156-.2769-.0771-.3081a2.5163,2.5163,0,0,0-.3692-.0923c-.123-.0308-.2-.0767-.2-.1382,0-.0313.0157-.0772.1846-.1543a3.2808,3.2808,0,0,0,1.2627-1.0313c.1387-.1543.2461-.1235.2461-.0463,0,.1386-.03.57-.0147.7544,0,.0463.0147.1386.0762.1386.2774,0,1.5557-.0464,1.8789-.0464.03,0,.0918.1079.0918.2159,0,.2617-.0761.3847-.1533.3847-.5391,0-1.2939-.0156-1.709-.0156-.1846,0-.2158.0464-.2158.1387,0,.2617.0156,2.6792.0312,3.1562a1.5793,1.5793,0,0,0,.169.8316,1.1381,1.1381,0,0,0,.9541.4155,1.5084,1.5084,0,0,0,.8477-.231c.1074-.0771.1533-.0615.1533,0,0,.0923-.1387.2466-.3389.4a2.11,2.11,0,0,1-1.2471.4A1.4269,1.4269,0,0,1,291.6045,87.0523Z"/><path class="cls-2" d="M247.668,93.3223c.3232,0,.4316.0772.4316.1851.03.2153.0772.8931.1074,1.0776.0313.1538,0,.2925-.0771.2925-.0615,0-.1074-.1079-.1846-.3081a1.248,1.248,0,0,0-1.1543-.8774c-.4931-.0464-1.1553-.0464-2.5556-.0464-.1084,0-.2159.2-.2159.2773-.0156.4312-.0459,2.2017-.0156,3.9722a.1886.1886,0,0,0,.1387.1846c1.57,0,2.31-.0152,2.5556-.0459.2159-.0308.4307-.0772.6622-.6006.0771-.1538.123-.2154.1689-.2154.0615,0,.0928.0767.0771.231-.0156.1694-.0771.6309-.0771.9546a7.2944,7.2944,0,0,0,.0615.7388c0,.2-.03.2617-.1074.2617-.0615,0-.123-.1231-.2158-.3389-.1231-.3384-.2764-.4927-.4619-.5386a16.4388,16.4388,0,0,0-2.6631-.0771.3054.3054,0,0,0-.1543.2c-.0147.2773.0156,2.6792.0469,3.3716.0146.5854.1074.6777.8154.8476.123.03.2158.0762.2158.1377,0,.0928-.17.1084-.3232.1084-.2159,0-.878-.0928-1.5088-.0928-.585,0-.97.0616-1.1856.0616-.1386,0-.2461-.03-.2461-.1075,0-.0615.0762-.1074.2764-.1542.585-.1231.6621-.2461.6934-.816.0459-.5083.0459-2.417.0459-4.1108,0-1.6318,0-2.5713-.0459-3.51-.0313-.5542-.0772-.6928-.6319-.8315-.1377-.0308-.2461-.0767-.2461-.1538,0-.0615.0928-.0923.2315-.0923.1845,0,1.0312.0615,1.709.0615C245.4512,93.3687,247.083,93.3223,247.668,93.3223Z"/><path class="cls-2" d="M252.0117,98.1109a3.7361,3.7361,0,0,1,.2149,1.4009c0,.57-.0459,2.0322-.0459,2.4326a.5275.5275,0,0,0,.5693.585.9858.9858,0,0,0,.4473-.1387c.0918-.0459.1533,0,.0918.1387a1.2975,1.2975,0,0,1-1.1856.6626,1.0343,1.0343,0,0,1-.9082-.6934.054.054,0,0,0-.0771-.0156,2.1536,2.1536,0,0,1-1.5088.6933,1.2778,1.2778,0,0,1-1.2315-1.3242,1.0874,1.0874,0,0,1,.5537-.8779c.37-.2,1.7715-.6157,2.0948-.7388a.2918.2918,0,0,0,.2-.2309,5.3257,5.3257,0,0,0,.03-.7085c0-.6309-.1074-1.062-.3691-1.2622a1.1749,1.1749,0,0,0-.6465-.2466,1.06,1.06,0,0,0-.6162.185.62.62,0,0,0-.2314.37,1.6605,1.6605,0,0,0-.0147.2925.1928.1928,0,0,1-.0615.123,3.3384,3.3384,0,0,1-.7236.3389c-.0772.0151-.1543-.0772-.1543-.1387,0-.1079.1074-.2466.2929-.4619a3.9825,3.9825,0,0,1,1.17-.8931,2.0665,2.0665,0,0,1,.9239-.2773A1.2626,1.2626,0,0,1,252.0117,98.1109Zm-1.0322,4.2339a.6392.6392,0,0,0,.17-.37,11.0793,11.0793,0,0,0,.0772-1.4629c0-.0152-.0313-.0923-.0625-.0767a8.6817,8.6817,0,0,0-1.4161.5235.7966.7966,0,0,0-.3847.7695.8941.8941,0,0,0,.9238.8623A1.0546,1.0546,0,0,0,250.98,102.3448Z"/><path class="cls-2" d="M254.8,99.9737a2.5894,2.5894,0,0,0,.7695,2.0015,2.1881,2.1881,0,0,0,1.4317.5385,2.0657,2.0657,0,0,0,1.6015-.5849c.03-.0308.1075-.0459.1075,0a.4042.4042,0,0,1-.1231.2466,2.6623,2.6623,0,0,1-2.125,1.0166,2.8029,2.8029,0,0,1-1.9238-.7549,2.9,2.9,0,0,1-.77-2.0786,2.9423,2.9423,0,0,1,.9394-2.14,3.3767,3.3767,0,0,1,2.2784-.893,2.3431,2.3431,0,0,1,1.4013.3852.3545.3545,0,0,1,.2158.2925.5262.5262,0,0,1-.3847.4927.4724.4724,0,0,1-.2617-.1538,4.2423,4.2423,0,0,0-.8623-.6314,1.3855,1.3855,0,0,0-.585-.1235C255.8613,97.587,254.8,98.2032,254.8,99.9737Z"/><path class="cls-2" d="M259.65,97.772a7.6622,7.6622,0,0,0,1.1084-.4.6248.6248,0,0,1,.2314-.108c.0459,0,.0762.0464.0616.2159-.0313.3076-.0313,1.247-.0313,2.2324,0,1.293,0,2.4326.0313,2.6943.03.3076.1845.3853.4306.4468.1543.03.2315.0615.2315.123,0,.0772-.1241.1075-.2471.1075-.1387,0-.708-.0616-1.124-.0616-.5078,0-.7539.0313-.9239.0313-.1074,0-.2148-.0313-.2148-.0928s.0771-.1074.292-.1386c.3389-.0923.4775-.2154.4932-.8467.0156-.4619.0459-3.2642.0459-3.418,0-.2153-.0157-.3081-.4463-.5391-.0772-.0459-.1231-.0922-.1231-.123C259.4658,97.8487,259.5117,97.8028,259.65,97.772Zm1.54-2.51a.5864.5864,0,0,1-.57.5849.5477.5477,0,0,1-.5078-.5693.571.571,0,0,1,.5391-.6006A.5636.5636,0,0,1,261.19,95.2623Z"/><path class="cls-2" d="M264.208,99.2808c0,1.94.0156,2.6636.0313,2.9561.0146.4155.1074.5234.538.6006.0928.0156.2.0615.2.1074,0,.0615-.1074.1084-.3076.1084-.2461,0-.8008-.0313-1.0625-.0313-.4,0-.8008.0313-1.0312.0313-.1846,0-.2617-.0156-.2617-.0928s.0771-.0918.2773-.1386c.3848-.0772.4766-.2154.5381-.8931.0312-.5694.0928-3.1714.1084-5.0191,0-1.247.0156-2.5092,0-3.187,0-.3388-.0313-.4155-.4317-.6621-.1074-.0615-.1533-.0923-.1533-.1387s.0918-.0922.2305-.123a7.9866,7.9866,0,0,0,1.1553-.354.6561.6561,0,0,1,.1845-.0464c.03,0,.0459.0928.0459.1694,0,.108-.0615,2.7715-.0615,5.0811Z"/><path class="cls-2" d="M266.1641,97.772a7.6622,7.6622,0,0,0,1.1084-.4.6248.6248,0,0,1,.2314-.108c.0459,0,.0762.0464.0615.2159-.0312.3076-.0312,1.247-.0312,2.2324,0,1.293,0,2.4326.0312,2.6943.03.3076.1846.3853.4307.4468.1543.03.2314.0615.2314.123,0,.0772-.124.1075-.247.1075-.1387,0-.708-.0616-1.1241-.0616-.5078,0-.7539.0313-.9238.0313-.1074,0-.2148-.0313-.2148-.0928s.0771-.1074.292-.1386c.3388-.0923.4775-.2154.4931-.8467.0157-.4619.0459-3.2642.0459-3.418,0-.2153-.0156-.3081-.4463-.5391-.0771-.0459-.123-.0922-.123-.123C265.98,97.8487,266.0254,97.8028,266.1641,97.772Zm1.54-2.51a.5864.5864,0,0,1-.57.5849.5477.5477,0,0,1-.5078-.5693.5709.5709,0,0,1,.539-.6006A.5636.5636,0,0,1,267.7041,95.2623Z"/><path class="cls-2" d="M269.6748,102.4522a1.7322,1.7322,0,0,1-.1846-.8774v-3.187c0-.1695-.0156-.2769-.0771-.3081a2.5129,2.5129,0,0,0-.3692-.0923c-.123-.0308-.2-.0767-.2-.1387,0-.0308.0156-.0767.1845-.1538a3.2808,3.2808,0,0,0,1.2627-1.0313c.1387-.1542.2461-.1235.2461-.0463,0,.1386-.03.57-.0146.7544,0,.0463.0146.1386.0761.1386.2774,0,1.5557-.0464,1.8789-.0464.03,0,.0918.108.0918.2159,0,.2617-.0761.3847-.1533.3847-.539,0-1.2939-.0156-1.709-.0156-.1845,0-.2158.0464-.2158.1387,0,.2617.0156,2.6792.0313,3.1562a1.5785,1.5785,0,0,0,.1689.8316,1.1381,1.1381,0,0,0,.9541.4155,1.5084,1.5084,0,0,0,.8477-.231c.1074-.0766.1533-.0615.1533,0,0,.0923-.1387.2466-.3389.4a2.11,2.11,0,0,1-1.2471.4A1.4269,1.4269,0,0,1,269.6748,102.4522Z"/><path class="cls-2" d="M275.127,97.4639c.1533,0,.2617.0464.2617.108s-.1084.1079-.2.123c-.3389.1079-.37.1851-.2315.585.2.539,1.0469,2.6176,1.3555,3.2641.03.0615.0762.0464.0918,0,.2-.5234,1.0625-2.7407,1.1855-3.0947a1.1508,1.1508,0,0,0,.0772-.4463c0-.1079-.0772-.231-.3389-.3081-.23-.0459-.2773-.0923-.2773-.1387,0-.0615.0771-.0923.2158-.0923.1846,0,.5078.0464.7393.0464.2773,0,.4775-.0464.708-.0464.0927,0,.1845.0157.1845.0616s-.0615.1079-.2148.1543c-.3086.0922-.4619.2-.709.7695-.1846.3848-1.1387,2.7559-1.37,3.3408-.1846.5083-.3233.8623-.6465,1.6939-.3691.8935-.9541,2.4941-1.17,3.0175a2.1014,2.1014,0,0,1-.293.57.58.58,0,0,1-.5078.2617.5121.5121,0,0,1-.5078-.5088.4545.4545,0,0,1,.4307-.4463c.1084,0,.2.0312.3086.0312a.3719.3719,0,0,0,.3994-.2617c.1543-.3232.6006-1.5859,1.124-2.9258a.662.662,0,0,0-.0147-.4926c-.0927-.2466-1.2168-3.0948-1.9091-4.6036a.8261.8261,0,0,0-.5547-.4155c-.1846-.0464-.2774-.1079-.2774-.1543,0-.0766.1387-.1074.2471-.1074.2764,0,.708.0615,1.0771.0615C274.5264,97.51,274.9268,97.4639,275.127,97.4639Z"/><line class="cls-1" x1="167.2628" y1="113.8125" x2="167.2628" y2="116.8887"/><line class="cls-1" x1="154.623" y1="122.0143" x2="154.623" y2="127.0926"/><line class="cls-1" x1="177.0875" y1="122.0143" x2="177.0875" y2="127.0926"/><rect class="cls-1" x="164.3043" y="120.5863" width="5.9732" height="6.6051" rx="1"/><line class="cls-1" x1="139.8909" y1="122.0143" x2="139.8909" y2="127.0926"/><polyline class="cls-1" points="142.092 119.875 156.54 119.875 167.2 107.807 148.234 107.807 137.573 119.875"/><line class="cls-1" x1="167.2989" y1="107.8242" x2="177.9597" y2="119.8915"/><line class="cls-1" x1="182.2581" y1="106.5834" x2="182.2581" y2="109.6595"/><line class="cls-1" x1="192.0828" y1="114.6497" x2="192.0828" y2="119.728"/><rect class="cls-1" x="179.2997" y="113.2082" width="5.9732" height="6.6051" rx="1"/><polyline class="cls-1" points="171.535 112.646 182.196 100.578 163.23 100.578 156.768 107.761"/><line class="cls-1" x1="182.2942" y1="100.5951" x2="192.955" y2="112.6624"/><line class="cls-1" x1="142.6255" y1="107.3767" x2="142.6255" y2="110.4528"/><line class="cls-1" x1="129.9857" y1="115.5785" x2="129.9857" y2="120.6568"/><path class="cls-1" d="M139.667,117.3551v-2.7489a.6048.6048,0,0,1,.6048-.6048h2.4669"/><polyline class="cls-1" points="122.124 113.439 131.902 113.439 142.563 101.372 123.597 101.372 117.599 108.204"/><line class="cls-1" x1="142.6616" y1="101.3884" x2="148.2025" y2="107.8019"/><line class="cls-1" x1="157.6208" y1="100.1475" x2="157.6208" y2="103.2237"/><path class="cls-1" d="M154.6624,107.7683v-.3912a.6048.6048,0,0,1,.6048-.6048h2.388"/><polyline class="cls-1" points="146.898 106.21 157.558 94.142 138.592 94.142 132.131 101.325"/><line class="cls-1" x1="157.6569" y1="94.1592" x2="163.2866" y2="100.5615"/><line class="cls-1" x1="98.1164" y1="113.8125" x2="98.1164" y2="116.8887"/><line class="cls-1" x1="110.7562" y1="122.0143" x2="110.7562" y2="127.0926"/><line class="cls-1" x1="88.2917" y1="122.0143" x2="88.2917" y2="127.0926"/><rect class="cls-1" x="95.1016" y="120.4373" width="5.9732" height="6.6051" rx="1" transform="translate(196.1765 247.4796) rotate(-180)"/><line class="cls-1" x1="125.4883" y1="122.0143" x2="125.4883" y2="127.0926"/><polyline class="cls-1" points="123.287 119.875 108.84 119.875 98.179 107.807 117.145 107.807 127.806 119.875"/><line class="cls-1" x1="98.0803" y1="107.8242" x2="87.4195" y2="119.8915"/><line class="cls-1" x1="83.1211" y1="106.5834" x2="83.1211" y2="109.6595"/><line class="cls-1" x1="73.2964" y1="114.7852" x2="73.2964" y2="119.8635"/><rect class="cls-1" x="80.1063" y="113.2826" width="5.9732" height="6.6051" rx="1" transform="translate(166.1858 233.1703) rotate(-180)"/><polyline class="cls-1" points="93.844 112.646 83.183 100.578 102.15 100.578 108.611 107.761"/><line class="cls-1" x1="83.085" y1="100.5951" x2="72.4242" y2="112.6624"/><polyline class="cls-1" points="85.319 100.528 80.2 94.746 99.166 94.746 102.682 98.718"/><line class="cls-1" x1="80.1017" y1="94.7626" x2="69.4409" y2="106.8298"/><line class="cls-1" x1="80.1634" y1="100.7788" x2="80.1634" y2="103.8549"/><polyline class="cls-1" points="137.308 95.605 124.47 95.605 113.809 107.672"/><polyline class="cls-1" points="153.046 94.126 158.431 88.376 139.465 88.376 133.004 95.558"/><line class="cls-1" x1="158.5299" y1="88.3923" x2="169.1907" y2="100.4596"/><polyline class="cls-1" points="138.079 86.679 125.241 86.679 118.303 94.461"/><polyline class="cls-1" points="153.817 85.2 159.202 79.449 140.236 79.449 133.775 86.632"/><line class="cls-1" x1="159.3008" y1="79.4662" x2="169.9617" y2="91.5334"/><polyline class="cls-1" points="122.741 97.483 103.775 97.483 101.283 100.587"/><line class="cls-1" x1="169.1965" y1="93.6131" x2="169.1965" y2="97.4202"/><polyline class="cls-1" points="103.804 94.308 98.418 88.558 117.384 88.558 120.4 91.893"/><line class="cls-1" x1="98.3198" y1="88.5751" x2="95.4833" y2="91.6692"/><polyline class="cls-1" points="115.476 86.309 110.091 80.559 129.057 80.559 132.073 83.893"/><line class="cls-1" x1="109.9927" y1="80.5758" x2="107.1562" y2="83.6699"/><polyline class="cls-1" points="145.6 79.382 150.985 73.632 132.019 73.632 129.003 76.966"/><line class="cls-1" x1="151.0836" y1="73.6483" x2="153.9201" y2="76.7424"/><line class="cls-1" x1="46.2864" y1="127.2191" x2="183.092" y2="127.2191"/><line class="cls-1" x1="183.96" y1="119.8152" x2="234.92" y2="119.8152"/><path class="cls-1" d="M111.8348,65.8236H96.4122a1.95,1.95,0,0,1-1.53-1.9813,2.0244,2.0244,0,0,1,2.2019-1.9814h.9211c-.2233,0-.3517-1.04-.3517-1.6042a3.7416,3.7416,0,0,1,6.28-2.7614,3.8722,3.8722,0,0,1,5.1053-1.5545,5.1983,5.1983,0,0,1,9.3889,3.1086,4.5519,4.5519,0,0,1-.8123,2.8115"/><path class="cls-1" d="M117.6114,61.8624a3.1928,3.1928,0,0,0-4.2577,2.4464,2.8428,2.8428,0,0,0,1.2288,5.4065h5.6212a2.8433,2.8433,0,1,0-.6057-5.62,3.17,3.17,0,0,0-.374-.9"/><path class="cls-1" d="M215.885,101.8754a4.4751,4.4751,0,0,0-8.9062,0,4.2209,4.2209,0,0,0-.0045,8.2364c-.002.0515-.0081.1019-.0081.1538a4.47,4.47,0,0,0,8.9314,0c0-.0519-.0062-.1023-.0082-.1538"/><line class="cls-1" x1="211.4842" y1="107.2046" x2="214.9807" y2="104.0485"/><line class="cls-1" x1="211.2385" y1="109.0546" x2="208.2397" y2="105.1141"/><line class="cls-1" x1="211.3376" y1="104.792" x2="211.3376" y2="119.7361"/><path class="cls-1" d="M215.9625,110.0924a3.3933,3.3933,0,0,0,2.3912,2.2023c-.0015.04-.0063.0789-.0063.1192a3.493,3.493,0,0,0,6.9764,0c0-.04-.0048-.0793-.0064-.1192a3.2647,3.2647,0,0,0-.0035-6.3816,3.4115,3.4115,0,0,0-3.4784-3.1241,3.5057,3.5057,0,0,0-2.9694,1.6019"/><line class="cls-1" x1="221.8722" y1="110.3322" x2="224.6076" y2="107.5968"/><line class="cls-1" x1="221.6845" y1="111.4756" x2="219.3422" y2="108.4225"/><line class="cls-1" x1="221.7619" y1="108.1729" x2="221.7619" y2="119.7516"/><path class="cls-1" d="M66.5529,101.5524a6.4345,6.4345,0,0,0-12.8058,0,6.0691,6.0691,0,0,0-.0064,11.8428c-.0029.074-.0117.1465-.0117.2211a6.4274,6.4274,0,0,0,12.842,0c0-.0746-.0089-.1471-.0118-.2211"/><line class="cls-1" x1="60.2252" y1="109.215" x2="62.455" y2="106.7665"/><line class="cls-1" x1="59.8719" y1="111.8751" x2="55.7764" y2="107.7796"/><line class="cls-1" x1="60.0144" y1="102.9804" x2="60.0144" y2="127.0392"/><line class="cls-1" x1="59.8674" y1="107.0765" x2="58.2457" y2="105.4548"/><path class="cls-1" d="M221.8011,94.0629a1.9274,1.9274,0,0,1,1.69,1.839l.0393.7354.5828-.4487a5.5545,5.5545,0,0,1,4.3608-.85"/><path class="cls-1" d="M220.2106,83.4709a1.9275,1.9275,0,0,1,1.69,1.8391l.0393.7354.5828-.4487a5.5541,5.5541,0,0,1,4.3608-.85"/><path class="cls-4" d="M154.9407,160.1878a.1528.1528,0,0,0,.1527-.1528V145.5565a.1527.1527,0,0,0-.1527-.1527H142.91a.1524.1524,0,0,0-.0824.0241c-.1205.0771-2.9248,1.8926-3.801,4.2274a2.4093,2.4093,0,0,1-1.6018-.51,1.8887,1.8887,0,0,1-.5544-1.4657"/><path class="cls-4" d="M143.0424,160.1878a.1528.1528,0,0,0,.1528-.1528v-3.8022"/><path class="cls-4" d="M136.1922,149.9539l-2.7423,4.1135a.1528.1528,0,0,0-.0257.0847V156.01a.1528.1528,0,0,0,.1528.1528h6.2608v3.8722a.1528.1528,0,0,0,.1527.1528h1.5924a.1528.1528,0,0,0,.1527-.1528v-3.8281h2.2282"/><path class="cls-4" d="M151.7607,158.5529v1.4861a.1489.1489,0,0,0,.1488.1488H153.46a.1488.1488,0,0,0,.1488-.1488v-3.8771"/><path class="cls-4" d="M143.0424,156.2025h5.6867a2.5665,2.5665,0,0,0,2.5626,2.4991"/><path class="cls-4" d="M156.7227,152.5157v-1.1574a.1523.1523,0,0,0-.0448-.108l-.5229-.5229v-3.8291"/><path class="cls-4" d="M135.9675,152.0733a.1528.1528,0,0,0,.1527.1528h.9118a.1529.1529,0,0,0,.1528-.1528"/><line class="cls-4" x1="145.829" y1="160.1878" x2="156.5699" y2="160.1878"/><path class="cls-4" d="M133.4242,160.035a.1528.1528,0,0,0,.1528.1528h10.1117"/><line class="cls-4" x1="124.0661" y1="158.6743" x2="124.0661" y2="160.0114"/><line class="cls-4" x1="125.5703" y1="156.855" x2="125.5703" y2="160.0114"/><line class="cls-4" x1="127.1753" y1="158.6743" x2="127.1753" y2="160.0114"/><line class="cls-4" x1="120.9352" y1="158.6743" x2="120.9352" y2="160.0114"/><line class="cls-4" x1="122.4393" y1="156.855" x2="122.4393" y2="160.0114"/><line class="cls-4" x1="124.0443" y1="158.6743" x2="124.0443" y2="160.0114"/><line class="cls-4" x1="130.3019" y1="158.6743" x2="130.3019" y2="160.0114"/><line class="cls-4" x1="131.806" y1="156.855" x2="131.806" y2="160.0114"/><line class="cls-4" x1="133.411" y1="158.6743" x2="133.411" y2="160.0114"/><line class="cls-4" x1="127.1709" y1="158.6743" x2="127.1709" y2="160.0114"/><line class="cls-4" x1="128.675" y1="156.855" x2="128.675" y2="160.0114"/><line class="cls-4" x1="130.28" y1="158.6743" x2="130.28" y2="160.0114"/><path class="cls-5" d="M112.8306,148.9082l-1.6963-1.67-1.8021-1.3514a.1251.1251,0,0,1-.05-.1v-.6651a.1256.1256,0,0,1,.0835-.1182l1.6352-.5791a13.6393,13.6393,0,0,1,4.566-.7847h1.35l.0012-6.5092a.1253.1253,0,0,1,.1254-.1254h2.2589a.1253.1253,0,0,1,.0857.0338l.9882.9252.4675.1617a.1262.1262,0,0,1,.0477.03l.6817.6817a.1254.1254,0,0,1-.0887.2141h-2.4025l-.0255,3.4922.7083,1.7053a.125.125,0,0,1,.01.0482v2.3674a.1257.1257,0,0,1-.0455.0967l-2.6068,2.1546a.1252.1252,0,0,1-.08.0287h-4.1231A.1253.1253,0,0,1,112.8306,148.9082Zm4.0857-3.4838v-.79"/><line class="cls-5" x1="113.9238" y1="148.9649" x2="113.9238" y2="151.3109"/><polyline class="cls-5" points="116.474 151.375 114.919 150.312 114.919 149.604"/><polyline class="cls-5" points="116.883 145.448 115.341 147.071 111.916 147.071"/><line class="cls-5" x1="119.0965" y1="139.6014" x2="120.6622" y2="139.6014"/><path class="cls-5" d="M119.1731,136.9913v-1.6024a.1255.1255,0,0,0-.1254-.1254h-.5866a.1255.1255,0,0,0-.0887.0368l-.449.449h-.3422a.1256.1256,0,0,0-.0887.0367l-.38.38a.1253.1253,0,0,0-.0368.0886v.7364"/><path class="cls-5" d="M119.0837,141.6964h.9126a.1254.1254,0,0,0,.1254-.1254v-.8249a.1235.1235,0,0,0-.0073-.0421l-.4026-1.0847"/><line class="cls-5" x1="127.1822" y1="151.3915" x2="106.2721" y2="151.3915"/><line class="cls-5" x1="121.7029" y1="151.3109" x2="121.7029" y2="150.1489"/><line class="cls-5" x1="120.8069" y1="150.8139" x2="120.8069" y2="151.3109"/><line class="cls-5" x1="119.9248" y1="151.3109" x2="119.9248" y2="149.6036"/><line class="cls-5" x1="111.9142" y1="151.3892" x2="111.9142" y2="150.8199"/><line class="cls-5" x1="111.0527" y1="151.3396" x2="111.0527" y2="150.2387"/></svg>