<svg id="Layer_1" data-name="Layer 1" xmlns="http://www.w3.org/2000/svg" viewBox="0 0 399 200"><defs><style>.cls-1,.cls-2,.cls-4,.cls-6{fill:none;stroke-linecap:round;}.cls-1,.cls-4,.cls-6{stroke:#222f3c;}.cls-1,.cls-2{stroke-linejoin:round;}.cls-1,.cls-4{stroke-width:0.5px;}.cls-2{stroke:#231f20;}.cls-2,.cls-6{stroke-width:0.4px;}.cls-3{fill:#222f3c;}.cls-4,.cls-6{stroke-miterlimit:10;}.cls-5{fill:#333838;}</style></defs><line class="cls-1" x1="169.8173" y1="114.1729" x2="169.8173" y2="117.249"/><line class="cls-1" x1="157.1775" y1="122.3747" x2="157.1775" y2="127.453"/><line class="cls-1" x1="179.6419" y1="122.3747" x2="179.6419" y2="127.453"/><rect class="cls-1" x="166.8588" y="120.9466" width="5.9732" height="6.6051" rx="1"/><line class="cls-1" x1="142.4454" y1="122.3747" x2="142.4454" y2="127.453"/><polyline class="cls-1" points="144.647 120.235 159.094 120.235 169.755 108.168 150.789 108.168 140.128 120.235"/><line class="cls-1" x1="169.8533" y1="108.1846" x2="180.5142" y2="120.2518"/><line class="cls-1" x1="184.8126" y1="106.9437" x2="184.8126" y2="110.0199"/><line class="cls-1" x1="194.6373" y1="115.01" x2="194.6373" y2="120.0883"/><rect class="cls-1" x="181.8541" y="113.5685" width="5.9732" height="6.6051" rx="1"/><polyline class="cls-1" points="174.089 113.006 184.75 100.939 165.784 100.939 159.323 108.122"/><line class="cls-1" x1="184.8487" y1="100.9554" x2="195.5095" y2="113.0227"/><line class="cls-1" x1="145.18" y1="107.737" x2="145.18" y2="110.8131"/><line class="cls-1" x1="132.5402" y1="115.9388" x2="132.5402" y2="121.0171"/><path class="cls-1" d="M142.2215,117.7154v-2.7488a.6048.6048,0,0,1,.6048-.6048h2.4669"/><polyline class="cls-1" points="124.678 113.799 134.457 113.799 145.118 101.732 126.151 101.732 120.153 108.564"/><line class="cls-1" x1="145.216" y1="101.7487" x2="150.757" y2="108.1622"/><line class="cls-1" x1="160.1753" y1="100.5079" x2="160.1753" y2="103.584"/><path class="cls-1" d="M157.2168,108.1287v-.3913a.6048.6048,0,0,1,.6048-.6048h2.388"/><polyline class="cls-1" points="149.452 106.57 160.113 94.503 141.147 94.503 134.686 101.686"/><line class="cls-1" x1="160.2114" y1="94.5196" x2="165.841" y2="100.9219"/><line class="cls-1" x1="100.6709" y1="114.1729" x2="100.6709" y2="117.249"/><line class="cls-1" x1="113.3107" y1="122.3747" x2="113.3107" y2="127.453"/><line class="cls-1" x1="90.8462" y1="122.3747" x2="90.8462" y2="127.453"/><rect class="cls-1" x="97.6561" y="120.7976" width="5.9732" height="6.6051" rx="1" transform="translate(201.2854 248.2003) rotate(-180)"/><line class="cls-1" x1="128.0428" y1="122.3747" x2="128.0428" y2="127.453"/><polyline class="cls-1" points="125.841 120.235 111.394 120.235 100.733 108.168 119.699 108.168 130.36 120.235"/><line class="cls-1" x1="100.6348" y1="108.1846" x2="89.974" y2="120.2518"/><line class="cls-1" x1="85.6755" y1="106.9437" x2="85.6755" y2="110.0199"/><line class="cls-1" x1="75.8509" y1="115.1455" x2="75.8509" y2="120.2238"/><rect class="cls-1" x="82.6608" y="113.643" width="5.9732" height="6.6051" rx="1" transform="translate(171.2947 233.891) rotate(-180)"/><polyline class="cls-1" points="96.399 113.006 85.738 100.939 104.704 100.939 111.165 108.122"/><line class="cls-1" x1="85.6395" y1="100.9554" x2="74.9786" y2="113.0227"/><polyline class="cls-1" points="87.873 100.888 82.755 95.106 101.721 95.106 105.237 99.078"/><line class="cls-1" x1="82.6562" y1="95.1229" x2="71.9953" y2="107.1902"/><line class="cls-1" x1="82.7178" y1="101.1392" x2="82.7178" y2="104.2153"/><polyline class="cls-1" points="139.863 95.965 127.024 95.965 116.364 108.032"/><polyline class="cls-1" points="155.601 94.486 160.986 88.736 142.02 88.736 135.559 95.919"/><line class="cls-1" x1="161.0843" y1="88.7527" x2="171.7452" y2="100.8199"/><polyline class="cls-1" points="140.634 87.039 127.795 87.039 120.857 94.821"/><polyline class="cls-1" points="156.372 85.56 161.757 79.81 142.791 79.81 136.329 86.993"/><line class="cls-1" x1="161.8553" y1="79.8265" x2="172.5161" y2="91.8938"/><polyline class="cls-1" points="125.295 97.844 106.329 97.844 103.837 100.947"/><line class="cls-1" x1="171.7509" y1="93.9734" x2="171.7509" y2="97.7806"/><polyline class="cls-1" points="106.358 94.669 100.973 88.919 119.939 88.919 122.954 92.253"/><line class="cls-1" x1="100.8743" y1="88.9354" x2="98.0378" y2="92.0295"/><polyline class="cls-1" points="118.031 86.669 112.646 80.919 131.612 80.919 134.627 84.254"/><line class="cls-1" x1="112.5471" y1="80.9361" x2="109.7106" y2="84.0302"/><polyline class="cls-1" points="148.154 79.742 153.54 73.992 134.573 73.992 131.558 77.326"/><line class="cls-1" x1="153.638" y1="74.0087" x2="156.4745" y2="77.1027"/><line class="cls-1" x1="48.8409" y1="127.5794" x2="185.6465" y2="127.5794"/><line class="cls-1" x1="186.5145" y1="120.1755" x2="237.4745" y2="120.1755"/><path class="cls-1" d="M81.8794,77.1246H97.302a1.95,1.95,0,0,0,1.53-1.9814A2.0244,2.0244,0,0,0,96.63,73.1618h-.9211c.2233,0,.3517-1.04.3517-1.6042a3.7416,3.7416,0,0,0-6.28-2.7613,3.8724,3.8724,0,0,0-5.1053-1.5546A5.1983,5.1983,0,0,0,75.2861,70.35a4.5517,4.5517,0,0,0,.8123,2.8115"/><path class="cls-1" d="M76.1028,73.1633A3.1928,3.1928,0,0,1,80.3605,75.61a2.8427,2.8427,0,0,1-1.2288,5.4064H73.51a2.8432,2.8432,0,1,1,.6058-5.62,3.1714,3.1714,0,0,1,.3739-.9"/><path class="cls-1" d="M218.4394,102.2357a4.4751,4.4751,0,0,0-8.9062,0,4.2209,4.2209,0,0,0-.0044,8.2364c-.002.0515-.0082.1019-.0082.1539a4.47,4.47,0,0,0,8.9314,0c0-.052-.0062-.1024-.0081-.1539"/><line class="cls-1" x1="214.0386" y1="107.5649" x2="217.5351" y2="104.4088"/><line class="cls-1" x1="213.7929" y1="109.415" x2="210.7942" y2="105.4745"/><line class="cls-1" x1="213.892" y1="105.1523" x2="213.892" y2="120.0964"/><path class="cls-1" d="M218.517,110.4527a3.3931,3.3931,0,0,0,2.3912,2.2023c-.0016.04-.0064.079-.0064.1192a3.493,3.493,0,0,0,6.9764,0c0-.04-.0048-.0792-.0063-.1192a3.2647,3.2647,0,0,0-.0035-6.3816,3.4116,3.4116,0,0,0-3.4784-3.1241,3.5057,3.5057,0,0,0-2.9694,1.6019"/><line class="cls-1" x1="224.4267" y1="110.6925" x2="227.162" y2="107.9571"/><line class="cls-1" x1="224.239" y1="111.8359" x2="221.8966" y2="108.7828"/><line class="cls-1" x1="224.3164" y1="108.5332" x2="224.3164" y2="120.112"/><path class="cls-2" d="M170.4688,146.8117a5.15,5.15,0,1,1,5.15-5.15A5.156,5.156,0,0,1,170.4688,146.8117Z"/><path class="cls-2" d="M185.7444,146.8117a3.9168,3.9168,0,1,1,3.9169-3.9168A3.9213,3.9213,0,0,1,185.7444,146.8117Z"/><path class="cls-2" d="M170.4688,138.55a3.1111,3.1111,0,1,1-2.6231,1.4369"/><path class="cls-2" d="M185.7444,144.7786a1.8839,1.8839,0,1,1,1.8838-1.8837A1.8859,1.8859,0,0,1,185.7444,144.7786Z"/><line class="cls-2" x1="181.993" y1="144.0216" x2="175.0545" y2="144.0216"/><line class="cls-2" x1="181.8726" y1="142.3086" x2="179.5237" y2="142.28"/><path class="cls-2" d="M179.5368,142.28a.1842.1842,0,0,1-.1841-.1841V137.348a.1842.1842,0,0,1,.1841-.1841H189.85a1.1242,1.1242,0,0,1,1.123,1.1229v3.6691a1.1244,1.1244,0,0,1-1.123,1.1231h-.2044"/><path class="cls-2" d="M165.3,142.3152h-.9691a1.1243,1.1243,0,0,1-1.123-1.123v-6.1261a1.1242,1.1242,0,0,1,1.123-1.1229h1.1714"/><path class="cls-2" d="M168.0581,133.9432h3.82a1.1294,1.1294,0,0,1,1.0493.7226"/><path class="cls-2" d="M184.7655,137.1639H183.359a.1728.1728,0,0,1-.1842-.1582V135.07a.1728.1728,0,0,1,.1842-.1582h1.4065a.1727.1727,0,0,1,.1841.1582v1.9361A.1727.1727,0,0,1,184.7655,137.1639Z"/><line class="cls-2" x1="183.8782" y1="134.9089" x2="183.8782" y2="132.8939"/><line class="cls-2" x1="187.2123" y1="135.0955" x2="187.2123" y2="137.1435"/><line class="cls-2" x1="178.4869" y1="136.2839" x2="179.3629" y2="137.1652"/><line class="cls-2" x1="179.4045" y1="135.3744" x2="177.312" y2="137.4669"/><polyline class="cls-2" points="172.41 133.206 174.111 137.668 176.032 137.668"/><line class="cls-2" x1="180.4058" y1="139.9113" x2="180.4058" y2="138.4845"/><line class="cls-2" x1="181.2416" y1="139.9113" x2="181.2416" y2="138.4845"/><line class="cls-2" x1="182.0774" y1="139.9113" x2="182.0774" y2="138.4845"/><path class="cls-1" d="M69.1073,101.9128a6.4345,6.4345,0,0,0-12.8058,0,6.0691,6.0691,0,0,0-.0063,11.8427c-.0029.074-.0118.1465-.0118.2212a6.4274,6.4274,0,0,0,12.842,0c0-.0747-.0088-.1472-.0117-.2212"/><line class="cls-1" x1="62.7797" y1="109.5753" x2="65.0095" y2="107.1268"/><line class="cls-1" x1="62.4263" y1="112.2354" x2="58.3309" y2="108.14"/><line class="cls-1" x1="62.5689" y1="103.3408" x2="62.5689" y2="127.3995"/><line class="cls-1" x1="62.4219" y1="107.4369" x2="60.8001" y2="105.8151"/><path class="cls-1" d="M204.6383,93.7031a1.9278,1.9278,0,0,0-1.69,1.8391l-.0392.7354-.5828-.4487a5.5536,5.5536,0,0,0-4.3608-.85"/><path class="cls-1" d="M199.0128,83.5768a1.9274,1.9274,0,0,0-1.69,1.839l-.0393.7354-.5828-.4487a5.5545,5.5545,0,0,0-4.3608-.85"/><path class="cls-2" d="M119.3276,155.813a.1528.1528,0,0,0,.1527-.1528V141.1817a.1527.1527,0,0,0-.1527-.1527H107.2967a.1531.1531,0,0,0-.0824.024c-.12.0772-2.9248,1.8927-3.8011,4.2275a2.41,2.41,0,0,1-1.6017-.51,1.8889,1.8889,0,0,1-.5545-1.4657"/><path class="cls-2" d="M107.4293,155.813a.1529.1529,0,0,0,.1528-.1528V151.858"/><path class="cls-2" d="M100.5791,145.5791l-2.7423,4.1135a.1526.1526,0,0,0-.0257.0847v1.8579a.1528.1528,0,0,0,.1528.1527h6.2607V155.66a.1529.1529,0,0,0,.1528.1528H105.97a.1529.1529,0,0,0,.1528-.1528v-3.8281h2.2282"/><path class="cls-2" d="M116.1476,154.178v1.4862a.1489.1489,0,0,0,.1488.1488h1.5508a.1488.1488,0,0,0,.1488-.1488v-3.8771"/><path class="cls-2" d="M107.4293,151.8277h5.6867a2.5665,2.5665,0,0,0,2.5626,2.4991"/><path class="cls-2" d="M121.11,148.1408v-1.1574a.1527.1527,0,0,0-.0448-.1079l-.5229-.5229v-3.8292"/><path class="cls-2" d="M100.3544,147.6985a.1527.1527,0,0,0,.1527.1527h.9118a.1528.1528,0,0,0,.1528-.1527"/><line class="cls-2" x1="110.2159" y1="155.813" x2="120.9568" y2="155.813"/><path class="cls-2" d="M97.8111,155.66a.1529.1529,0,0,0,.1528.1528h10.1117"/><line class="cls-2" x1="88.453" y1="154.2995" x2="88.453" y2="155.6366"/><line class="cls-2" x1="89.9572" y1="152.4802" x2="89.9572" y2="155.6366"/><line class="cls-2" x1="91.5622" y1="154.2995" x2="91.5622" y2="155.6366"/><line class="cls-2" x1="85.3221" y1="154.2995" x2="85.3221" y2="155.6366"/><line class="cls-2" x1="86.8262" y1="152.4802" x2="86.8262" y2="155.6366"/><line class="cls-2" x1="88.4312" y1="154.2995" x2="88.4312" y2="155.6366"/><line class="cls-2" x1="94.6888" y1="154.2995" x2="94.6888" y2="155.6366"/><line class="cls-2" x1="96.1929" y1="152.4802" x2="96.1929" y2="155.6366"/><line class="cls-2" x1="97.7979" y1="154.2995" x2="97.7979" y2="155.6366"/><line class="cls-2" x1="91.5578" y1="154.2995" x2="91.5578" y2="155.6366"/><line class="cls-2" x1="93.0619" y1="152.4802" x2="93.0619" y2="155.6366"/><line class="cls-2" x1="94.6669" y1="154.2995" x2="94.6669" y2="155.6366"/><path class="cls-2" d="M150.613,150.5242a.1528.1528,0,0,0,.1528-.1527V135.893a.1529.1529,0,0,0-.1528-.1528H138.5821a.1529.1529,0,0,0-.0823.0241c-.1206.0772-2.9249,1.8927-3.8011,4.2275a2.41,2.41,0,0,1-1.6018-.51,1.8889,1.8889,0,0,1-.5544-1.4656"/><path class="cls-2" d="M138.7148,150.5242a.1527.1527,0,0,0,.1527-.1527v-3.8022"/><path class="cls-2" d="M131.8646,140.29l-2.7424,4.1136a.1525.1525,0,0,0-.0256.0847v1.8579a.1527.1527,0,0,0,.1527.1527H135.51v3.8723a.1528.1528,0,0,0,.1528.1527h1.5923a.1528.1528,0,0,0,.1528-.1527v-3.8281h2.2281"/><path class="cls-2" d="M147.4331,148.8893v1.4862a.1487.1487,0,0,0,.1487.1487h1.5509a.1488.1488,0,0,0,.1488-.1487v-3.8771"/><path class="cls-2" d="M138.7148,146.5389h5.6867a2.5665,2.5665,0,0,0,2.5625,2.4991"/><path class="cls-2" d="M152.395,142.8521v-1.1574a.1528.1528,0,0,0-.0447-.108l-.5229-.5229v-3.8291"/><path class="cls-2" d="M131.64,142.41a.1528.1528,0,0,0,.1528.1528h.9118a.1528.1528,0,0,0,.1527-.1528"/><line class="cls-2" x1="141.5014" y1="150.5242" x2="152.2423" y2="150.5242"/><path class="cls-2" d="M129.0966,150.3715a.1527.1527,0,0,0,.1527.1527h10.1118"/><line class="cls-2" x1="122.8476" y1="149.0107" x2="122.8476" y2="150.3478"/><line class="cls-2" x1="125.9742" y1="149.0107" x2="125.9742" y2="150.3478"/><line class="cls-2" x1="127.4783" y1="147.1915" x2="127.4783" y2="150.3478"/><line class="cls-2" x1="129.0833" y1="149.0107" x2="129.0833" y2="150.3478"/><line class="cls-2" x1="122.8433" y1="149.0107" x2="122.8433" y2="150.3478"/><line class="cls-2" x1="124.3474" y1="147.1915" x2="124.3474" y2="150.3478"/><line class="cls-2" x1="125.9524" y1="149.0107" x2="125.9524" y2="150.3478"/><path class="cls-3" d="M282.6,120.2415a.5016.5016,0,0,1,.5-.5h0a.4948.4948,0,0,1,.5.5h0a.5016.5016,0,0,1-.5.5h0A.5088.5088,0,0,1,282.6,120.2415Zm-3,0a.5016.5016,0,0,1,.5-.5h0a.4948.4948,0,0,1,.5.5h0a.5016.5016,0,0,1-.5.5h0A.5088.5088,0,0,1,279.6,120.2415Zm-3,0a.5016.5016,0,0,1,.5-.5h0a.4948.4948,0,0,1,.5.5h0a.5016.5016,0,0,1-.5.5h0A.5088.5088,0,0,1,276.6,120.2415Zm-3,0a.5016.5016,0,0,1,.5-.5h0a.4948.4948,0,0,1,.5.5h0a.5016.5016,0,0,1-.5.5h0A.5088.5088,0,0,1,273.6,120.2415Zm-3,0a.5016.5016,0,0,1,.5-.5h0a.4948.4948,0,0,1,.5.5h0a.5016.5016,0,0,1-.5.5h0A.5088.5088,0,0,1,270.6,120.2415Zm-3,0a.5016.5016,0,0,1,.5-.5h0a.4948.4948,0,0,1,.5.5h0a.5016.5016,0,0,1-.5.5h0A.5088.5088,0,0,1,267.6,120.2415Zm-3,0a.5016.5016,0,0,1,.5-.5h0a.4948.4948,0,0,1,.5.5h0a.5016.5016,0,0,1-.5.5h0A.5088.5088,0,0,1,264.6,120.2415Zm-3,0a.5016.5016,0,0,1,.5-.5h0a.4948.4948,0,0,1,.5.5h0a.5016.5016,0,0,1-.5.5h0A.5088.5088,0,0,1,261.6,120.2415Zm-3,0a.5016.5016,0,0,1,.5-.5h0a.4948.4948,0,0,1,.5.5h0a.5016.5016,0,0,1-.5.5h0A.5088.5088,0,0,1,258.6,120.2415Zm-3,0a.5016.5016,0,0,1,.5-.5h0a.4948.4948,0,0,1,.5.5h0a.5016.5016,0,0,1-.5.5h0A.5088.5088,0,0,1,255.6,120.2415Zm-3,0a.5016.5016,0,0,1,.5-.5h0a.4948.4948,0,0,1,.5.5h0a.5016.5016,0,0,1-.5.5h0A.5088.5088,0,0,1,252.6,120.2415Zm-3,0a.5016.5016,0,0,1,.5-.5h0a.4948.4948,0,0,1,.5.5h0a.5016.5016,0,0,1-.5.5h0A.5088.5088,0,0,1,249.6,120.2415Zm-3,0a.5016.5016,0,0,1,.5-.5h0a.4948.4948,0,0,1,.5.5h0a.5016.5016,0,0,1-.5.5h0A.5088.5088,0,0,1,246.6,120.2415Zm-3,0a.5016.5016,0,0,1,.5-.5h0a.4948.4948,0,0,1,.5.5h0a.5016.5016,0,0,1-.5.5h0A.5088.5088,0,0,1,243.6,120.2415Zm-3,0a.5016.5016,0,0,1,.5-.5h0a.4948.4948,0,0,1,.5.5h0a.5016.5016,0,0,1-.5.5h0A.5088.5088,0,0,1,240.6,120.2415Z"/><polyline class="cls-4" points="282.263 115.752 286.841 120.33 282.263 124.908"/><path class="cls-5" d="M302.7832,139.223c.37,0,1.001.0615,1.4629.0615.3389,0,.708-.0313,1.0312-.0313.2159,0,.3077.0469.3077.1084,0,.0772-.0918.1231-.2764.1534-.4316.0771-.4316.2617-.3232.539.6464,1.6016,2.1708,4.8809,3.2177,7.19.0459.1075.1074.0772.1533,0,.4317-.8779.8008-1.6474,1.2168-2.6328a.4283.4283,0,0,0,.03-.1845c-.2461-.585-1.2773-2.9258-1.6162-3.6651-.4463-.9541-.5693-1.1386-1.0469-1.2617-.2461-.0469-.3232-.1084-.3232-.1855,0-.0459.0918-.0918.292-.0918.4472,0,.7392.0615,1.2939.0615s.9082-.0615,1.2617-.0615c.1543,0,.2618.03.2618.0918,0,.0771-.0918.124-.292.17-.416.0771-.5694.2617-.3389.831.2461.6465.708,1.6934,1.2168,2.8643.0146.03.0762.0459.123-.0313.3692-.7539.6924-1.4628,1.0157-2.2168.4775-1.124.4619-1.2783-.2-1.4316-.2774-.0615-.3233-.123-.3233-.1855,0-.0459.0928-.0762.2774-.0762.3847,0,.6308.0459,1.0312.0459.5391,0,.7852-.0615,1.14-.0615.1845,0,.2617.0156.2617.0771,0,.0772-.0772.1231-.293.169-.5693.123-.8623.4462-1.37,1.34-.4.7695-1.1543,2.2939-1.416,2.7715a.2654.2654,0,0,0,.0156.1846c.3848.9082,1.0615,2.371,1.585,3.5253.0615.1075.1084.0772.1387,0,.7392-1.6015,2.6025-5.9121,2.9257-7.0517.0772-.3379.0616-.6-.4463-.7539-.247-.0772-.3388-.1074-.3388-.17s.0459-.0918.2617-.0918c.4,0,.6152.0615,1.0771.0615.4317,0,.8467-.0615,1.1241-.0615.2,0,.2773.0156.2773.0771s-.0771.1231-.3545.169c-.6465.17-.9238.4931-1.8935,2.6787-.97,2.125-2.2168,5.0351-2.9248,6.7285-.1084.2617-.1543.3545-.2315.3545-.1074,0-.1689-.1084-.2617-.3545-.3232-.9395-1.2-2.8487-1.6475-3.834-.03-.0615-.0771-.0615-.1074-.0147-.5849,1.1387-1.4014,2.94-1.74,3.8331-.0918.2461-.1846.37-.2461.37-.0918,0-.1231-.0928-.2305-.37-.2-.5079-.6777-1.6319-.8779-2.0938-.8467-1.9551-1.8779-4.2334-2.6016-5.7432-.5547-1.2-.6777-1.4775-1.2627-1.5546-.1845-.0157-.3232-.0772-.3232-.1387C302.4756,139.2845,302.583,139.223,302.7832,139.223Z"/><path class="cls-5" d="M319.0293,144.0267a3.7348,3.7348,0,0,1,.2148,1.4c0,.57-.0459,2.0322-.0459,2.4326a.528.528,0,0,0,.5694.5859.9914.9914,0,0,0,.4472-.1387c.0918-.0468.1534,0,.0918.1387a1.2968,1.2968,0,0,1-1.1855.6612,1.0332,1.0332,0,0,1-.9082-.6924.0534.0534,0,0,0-.0772-.0157,2.1529,2.1529,0,0,1-1.5087.6934,1.2775,1.2775,0,0,1-1.2315-1.3242,1.0865,1.0865,0,0,1,.5537-.8779c.37-.2,1.7715-.6153,2.0947-.7393a.2905.2905,0,0,0,.2-.2305,5.3029,5.3029,0,0,0,.03-.708c0-.6318-.1074-1.0625-.3691-1.2627a1.17,1.17,0,0,0-.6465-.2461,1.0586,1.0586,0,0,0-.6162.1846.6189.6189,0,0,0-.2315.3691,1.6762,1.6762,0,0,0-.0146.293.1945.1945,0,0,1-.0615.1231,3.355,3.355,0,0,1-.7237.3388c-.0771.0156-.1543-.0771-.1543-.1386,0-.1075.1075-.2461.293-.462a3.9921,3.9921,0,0,1,1.17-.8935,2.063,2.063,0,0,1,.9239-.2764A1.2621,1.2621,0,0,1,319.0293,144.0267Zm-1.0322,4.2334a.6394.6394,0,0,0,.17-.3692,11.0875,11.0875,0,0,0,.0771-1.4629c0-.0156-.0312-.0918-.0625-.0771a8.7774,8.7774,0,0,0-1.416.5234.7981.7981,0,0,0-.3847.77.8943.8943,0,0,0,.9238.8623A1.0526,1.0526,0,0,0,317.9971,148.26Z"/><path class="cls-5" d="M321.3545,148.3685a1.7347,1.7347,0,0,1-.1846-.878V144.304c0-.17-.0156-.2773-.0771-.3086a2.54,2.54,0,0,0-.3692-.0918c-.123-.0312-.2-.0771-.2-.1386,0-.0313.0157-.0772.1846-.1543a3.2772,3.2772,0,0,0,1.2627-1.0313c.1387-.1543.2461-.123.2461-.0459,0,.1377-.03.5693-.0147.7539,0,.0459.0147.1387.0762.1387.2774,0,1.5557-.0459,1.8789-.0459.03,0,.0918.1074.0918.2148,0,.2618-.0761.3848-.1533.3848-.5391,0-1.2939-.0147-1.709-.0147-.1846,0-.2158.0459-.2158.1387,0,.2617.0156,2.6787.0312,3.1563a1.5779,1.5779,0,0,0,.169.831,1.14,1.14,0,0,0,.9541.416,1.5038,1.5038,0,0,0,.8477-.2314c.1074-.0772.1533-.0615.1533,0,0,.0928-.1387.2461-.3389.4a2.11,2.11,0,0,1-1.2471.4A1.4274,1.4274,0,0,1,321.3545,148.3685Z"/><path class="cls-5" d="M329.3779,144.8118a.18.18,0,0,1-.1543.169c-.123-.0157-2.125-.0459-2.4785-.0459h-.831c-.0313,0-.1084.0771-.1387.123a2.111,2.111,0,0,0-.124.8467,2.76,2.76,0,0,0,.709,1.8633,2.0772,2.0772,0,0,0,1.539.6308,1.9669,1.9669,0,0,0,1.4629-.4921c.1231-.1231.1846-.0928.1846-.0157a.585.585,0,0,1-.1533.2461,2.7221,2.7221,0,0,1-2.1407.97,2.4837,2.4837,0,0,1-1.832-.7852,3.0085,3.0085,0,0,1-.7393-2.0625,3.21,3.21,0,0,1,.8936-2.2481,2.8627,2.8627,0,0,1,1.9238-.7695A1.7764,1.7764,0,0,1,329.3779,144.8118Zm-3.1406-.7851a1.3414,1.3414,0,0,0-.3232.6308.0654.0654,0,0,0,.0615.0616l2.001-.0157c.3388,0,.3691-.1689.3691-.3076a.9921.9921,0,0,0-.2148-.6465,1.0781,1.0781,0,0,0-.77-.2929A1.5964,1.5964,0,0,0,326.2373,144.0267Z"/><path class="cls-5" d="M332.1045,144.3655a.8855.8855,0,0,0-.2617.5381,9.0225,9.0225,0,0,0-.0157.9395c0,1.14.0313,1.94.0616,2.2637.0615.4765.247.5849.832.6464.2148.03.292.0616.292.1387s-.1387.1074-.3691.1074c-.293,0-.8008-.0615-1.4473-.0615a8.288,8.288,0,0,0-.94.0928c-.1845,0-.2617-.0313-.2617-.0928,0-.0459.1084-.123.2315-.1543a.6346.6346,0,0,0,.5537-.6309c.0312-.2617.0468-1.14.0468-2.1552v-1.709c0-.1084-.1083-.1543-.4-.4-.1084-.0771-.1231-.123-.1231-.1543s.0918-.0918.2305-.1387a4.6676,4.6676,0,0,0,.9853-.3691.4866.4866,0,0,1,.2315-.0772c.03,0,.0615.0616.0615.2159,0,.1689-.0156.7539-.0156,1.0009,0,.0459.03.0616.0771.0147a2.5152,2.5152,0,0,1,1.6621-1.1084.8963.8963,0,0,1,.5391.2.2683.2683,0,0,1,.1074.2158,1.0517,1.0517,0,0,1-.3379.5234c-.1386.1231-.2.1387-.247.1387a.6914.6914,0,0,1-.2764-.1084,1.085,1.085,0,0,0-.5391-.1846A1.0488,1.0488,0,0,0,332.1045,144.3655Z"/><path class="cls-5" d="M313.3076,156.5618a.2721.2721,0,0,1,.1533.2617c-.03.3692.0469,1.0313.0469,1.1856s-.0615.2461-.0928.2461c-.0615,0-.1074-.0772-.1386-.2a2.3962,2.3962,0,0,0-.7393-1.2315,3.528,3.528,0,0,0-2.3555-.77,3.7139,3.7139,0,0,0-2.6787,1.2012,5.559,5.559,0,0,0-1.17,3.5723,5.8334,5.8334,0,0,0,1.416,3.7256,3.6768,3.6768,0,0,0,2.6328,1.14,3.2642,3.2642,0,0,0,1.8321-.4316,2.7563,2.7563,0,0,0,1.1855-1.5088c.0615-.2.0928-.2617.1543-.2617s.0918.1386.0918.2314a11.0518,11.0518,0,0,1-.2148,1.2158.4173.4173,0,0,1-.1543.2315,5.585,5.585,0,0,1-3.002.8467,5.3,5.3,0,0,1-4.0029-1.6319,5.3888,5.3888,0,0,1-1.294-3.4033,4.91,4.91,0,0,1,1.7246-3.8945,5.5339,5.5339,0,0,1,3.5879-1.2784A7.1083,7.1083,0,0,1,313.3076,156.5618Z"/><path class="cls-5" d="M318.2061,160.8265a3.7348,3.7348,0,0,1,.2148,1.4c0,.57-.0459,2.0332-.0459,2.4326a.5272.5272,0,0,0,.5693.5849.9892.9892,0,0,0,.4473-.1376c.0918-.0469.1533,0,.0918.1376a1.2959,1.2959,0,0,1-1.1855.6622,1.0334,1.0334,0,0,1-.9083-.6924.0533.0533,0,0,0-.0771-.0157,2.153,2.153,0,0,1-1.5088.6934,1.2775,1.2775,0,0,1-1.2314-1.3242,1.0865,1.0865,0,0,1,.5537-.8779c.37-.2,1.7715-.6153,2.0947-.7393a.2905.2905,0,0,0,.2-.2305,5.3029,5.3029,0,0,0,.03-.708c0-.6318-.1074-1.0625-.3692-1.2627a1.17,1.17,0,0,0-.6465-.2461,1.059,1.059,0,0,0-.6162.1846.6183.6183,0,0,0-.2314.3691,1.6649,1.6649,0,0,0-.0147.293.194.194,0,0,1-.0615.1231,3.3566,3.3566,0,0,1-.7236.3388c-.0772.0157-.1543-.0771-.1543-.1386,0-.1075.1074-.2461.293-.462a3.9692,3.9692,0,0,1,1.17-.8925,2.0532,2.0532,0,0,1,.9238-.2774A1.2624,1.2624,0,0,1,318.2061,160.8265Zm-1.0323,4.2334a.6391.6391,0,0,0,.17-.3692,11.1051,11.1051,0,0,0,.0771-1.4629c0-.0156-.0313-.0918-.0625-.0771a8.774,8.774,0,0,0-1.416.5234.7979.7979,0,0,0-.3848.77.8943.8943,0,0,0,.9238.8623A1.0522,1.0522,0,0,0,317.1738,165.06Z"/><path class="cls-5" d="M324.8584,160.5648a3.2157,3.2157,0,0,1,.4922,2.0166c0,.8164.0156.9394.0156,1.7089.0156,1.0469.0615,1.14.4776,1.2471.1386.0615.23.0928.23.1543,0,.0918-.123.1074-.2773.1074-.2,0-.6465-.0615-.9854-.0615-.5234,0-.7236.0615-.9541.0615-.1386,0-.2461-.03-.2461-.0927s.0918-.1231.292-.169c.37-.0928.4317-.2.4317-.6465v-2.0937c0-1.2471-.1084-1.6172-.4932-1.9092a1.3693,1.3693,0,0,0-.8779-.293,1.8419,1.8419,0,0,0-1.2.4932.7937.7937,0,0,0-.1846.4619c0,.1846.0147.97.0147,1.8936a12.5327,12.5327,0,0,0,.0927,1.6162c.0459.3388.23.416.4776.4931.1845.0459.2617.0772.2617.1534,0,.0927-.1543.0927-.3086.0927-.1231,0-.877-.0615-1.2315-.0615-.2,0-.5234.0313-.8154.0313-.17,0-.293-.0313-.293-.1084,0-.0616.1387-.1231.3233-.1534.3848-.0771.4463-.1855.4619-.4931.0313-1.1084.0313-2.5254.0313-3.7725,0-.1533-.0313-.3232-.4-.5234-.0928-.0615-.1231-.0918-.1231-.1377,0-.0313.0762-.0772.2149-.124a5.7407,5.7407,0,0,0,1.2168-.5235c.0459-.0146.123.0469.1074.1231a6.8884,6.8884,0,0,0-.03.8164c0,.0312.0459.0771.0762.0459a5.3412,5.3412,0,0,1,1.0937-.6924,2.0758,2.0758,0,0,1,.9082-.1846A1.5722,1.5722,0,0,1,324.8584,160.5648Z"/><path class="cls-5" d="M330.3564,160.8265a3.7327,3.7327,0,0,1,.2149,1.4c0,.57-.0459,2.0332-.0459,2.4326a.5272.5272,0,0,0,.5693.5849.9892.9892,0,0,0,.4473-.1376c.0918-.0469.1533,0,.0918.1376a1.296,1.296,0,0,1-1.1856.6622,1.0333,1.0333,0,0,1-.9082-.6924.0533.0533,0,0,0-.0771-.0157,2.153,2.153,0,0,1-1.5088.6934,1.2775,1.2775,0,0,1-1.2314-1.3242,1.0865,1.0865,0,0,1,.5537-.8779c.37-.2,1.7715-.6153,2.0947-.7393a.2907.2907,0,0,0,.2-.2305,5.3029,5.3029,0,0,0,.03-.708c0-.6318-.1075-1.0625-.3692-1.2627a1.17,1.17,0,0,0-.6465-.2461,1.059,1.059,0,0,0-.6162.1846.6183.6183,0,0,0-.2314.3691,1.6649,1.6649,0,0,0-.0147.293.194.194,0,0,1-.0615.1231,3.3566,3.3566,0,0,1-.7236.3388c-.0772.0157-.1543-.0771-.1543-.1386,0-.1075.1074-.2461.2929-.462a3.9707,3.9707,0,0,1,1.17-.8925,2.0532,2.0532,0,0,1,.9238-.2774A1.2621,1.2621,0,0,1,330.3564,160.8265Zm-1.0322,4.2334a.6391.6391,0,0,0,.17-.3692,11.0837,11.0837,0,0,0,.0772-1.4629c0-.0156-.0313-.0918-.0625-.0771a8.774,8.774,0,0,0-1.416.5234.7979.7979,0,0,0-.3848.77.8943.8943,0,0,0,.9238.8623A1.0522,1.0522,0,0,0,329.3242,165.06Z"/><path class="cls-5" d="M333.79,161.9964c0,1.94.0157,2.6631.0313,2.9561.0146.416.1074.5234.5381.6005.0927.0157.2.0616.2.1075,0,.0615-.1075.1084-.3076.1084-.2461,0-.8008-.0313-1.0625-.0313-.4,0-.8008.0313-1.0313.0313-.1846,0-.2617-.0157-.2617-.0928s.0771-.0928.2773-.1387c.3848-.0771.4766-.2158.5381-.8926.0313-.57.0928-3.1718.1084-5.0195,0-1.2471.0156-2.51,0-3.1865,0-.3389-.0312-.416-.4316-.6621-.1075-.0616-.1533-.0928-.1533-.1387s.0917-.0928.23-.123a8.0467,8.0467,0,0,0,1.1553-.3545.6363.6363,0,0,1,.1846-.0459c.03,0,.0459.0918.0459.1689,0,.1074-.0616,2.7715-.0616,5.0811Z"/><line class="cls-1" x1="350.1591" y1="111.471" x2="288.7483" y2="111.471"/><line class="cls-1" x1="288.7483" y1="128.3863" x2="350.1591" y2="128.3863"/><line class="cls-1" x1="288.7483" y1="128.3863" x2="350.1591" y2="128.3863"/><polyline class="cls-6" points="313.152 120.302 313.678 121.296 313.101 122.341"/><polyline class="cls-6" points="313.101 122.368 313.626 123.362 313.05 124.407"/><polyline class="cls-6" points="313.204 118.226 313.729 119.22 313.153 120.265"/><polyline class="cls-6" points="310.862 117.526 311.387 118.52 310.811 119.565"/><polyline class="cls-6" points="310.811 119.592 311.336 120.586 310.76 121.631"/><polyline class="cls-6" points="310.914 115.45 311.439 116.444 310.863 117.489"/><polyline class="cls-6" points="318.722 120.302 319.247 121.296 318.671 122.341"/><polyline class="cls-6" points="318.67 122.368 319.196 123.362 318.619 124.407"/><polyline class="cls-6" points="318.774 118.226 319.299 119.22 318.723 120.265"/><polyline class="cls-6" points="316.432 117.526 316.957 118.52 316.381 119.565"/><polyline class="cls-6" points="316.38 119.592 316.905 120.586 316.329 121.631"/><polyline class="cls-6" points="316.483 115.45 317.009 116.444 316.433 117.489"/><polyline class="cls-6" points="324.291 120.302 324.817 121.296 324.24 122.341"/><polyline class="cls-6" points="324.24 122.368 324.765 123.362 324.189 124.407"/><polyline class="cls-6" points="324.343 118.226 324.868 119.22 324.292 120.265"/><polyline class="cls-6" points="322.001 117.526 322.527 118.52 321.95 119.565"/><polyline class="cls-6" points="321.95 119.592 322.475 120.586 321.899 121.631"/><polyline class="cls-6" points="322.053 115.45 322.578 116.444 322.002 117.489"/><polyline class="cls-6" points="327.571 117.526 328.096 118.52 327.52 119.565"/><polyline class="cls-6" points="327.519 119.592 328.044 120.586 327.468 121.631"/><polyline class="cls-6" points="327.622 115.45 328.148 116.444 327.572 117.489"/><path class="cls-5" d="M249.7773,62.0872a.2728.2728,0,0,1,.1534.2617c-.03.37.0468,1.0318.0468,1.1856s-.0615.2466-.0927.2466c-.0616,0-.1075-.0772-.1387-.2a2.4017,2.4017,0,0,0-.7393-1.232,3.5273,3.5273,0,0,0-2.3554-.77,3.7133,3.7133,0,0,0-2.6787,1.2007,5.5592,5.5592,0,0,0-1.17,3.5723,5.8343,5.8343,0,0,0,1.4161,3.7255,3.6775,3.6775,0,0,0,2.6328,1.1392,3.2638,3.2638,0,0,0,1.832-.4307,2.7577,2.7577,0,0,0,1.1855-1.5092c.0616-.2.0928-.2618.1543-.2618s.0928.1387.0928.231a11.0252,11.0252,0,0,1-.2158,1.2163.4126.4126,0,0,1-.1543.231,5.5849,5.5849,0,0,1-3.002.8471,5.2988,5.2988,0,0,1-4.0029-1.6323,5.3858,5.3858,0,0,1-1.2939-3.4023,4.9106,4.9106,0,0,1,1.7246-3.8955,5.5361,5.5361,0,0,1,3.5879-1.2779A7.1162,7.1162,0,0,1,249.7773,62.0872Z"/><path class="cls-5" d="M252.6436,67.5223c0,1.94.0156,2.6636.0312,2.956.0147.4156.1074.5235.5381.6006.0928.0152.2.0615.2.1074,0,.0616-.1074.108-.3076.108-.2461,0-.8008-.0308-1.0625-.0308-.4,0-.8008.0308-1.0313.0308-.1846,0-.2617-.0152-.2617-.0923s.0771-.0923.2773-.1387c.3848-.0772.4766-.2153.5381-.8931.0313-.5693.0928-3.1714.1084-5.019,0-1.2471.0157-2.5093,0-3.187,0-.3389-.0312-.4156-.4316-.6621-.1074-.0616-.1533-.0923-.1533-.1387s.0918-.0923.23-.1231a7.9617,7.9617,0,0,0,1.1553-.354.6568.6568,0,0,1,.1846-.0463c.03,0,.0459.0927.0459.1694,0,.1079-.0615,2.7715-.0615,5.081Z"/><path class="cls-5" d="M260.08,68.4769a2.9487,2.9487,0,0,1-2.9248,2.9712,2.936,2.936,0,0,1-1.8789-5.2344,3.1634,3.1634,0,0,1,1.8476-.647A2.8893,2.8893,0,0,1,260.08,68.4769Zm-4.8037-.2159a3.5222,3.5222,0,0,0,.6474,2.1094,1.8286,1.8286,0,0,0,1.4473.8159,1.5229,1.5229,0,0,0,.97-.3847,3.0684,3.0684,0,0,0,.6465-2.063c0-1.4629-.7393-2.91-2.0937-2.91C256.1084,65.8284,255.2764,66.66,255.2764,68.261Z"/><path class="cls-5" d="M262.1445,66.7523c0,.6469.585,1.0161.9707,1.247,1,.647,1.4,1.0318,1.4,1.8169a1.58,1.58,0,0,1-.8008,1.2935,2.5548,2.5548,0,0,1-1.2314.3384,3.1358,3.1358,0,0,1-1.2158-.2769c-.1231-.0464-.2315-.1543-.2315-.2466,0-.2153-.03-.6-.0459-.7695-.0312-.2.0157-.2466.0459-.2466.0469,0,.0928,0,.2.2925a1.5023,1.5023,0,0,0,.6465.8315,1.1808,1.1808,0,0,0,.6934.1846,1.0555,1.0555,0,0,0,1.0009-1.0312c0-.585-.4-.9087-1.0166-1.2935-.6621-.4312-1.2783-1-1.2783-1.6782a1.46,1.46,0,0,1,.586-1.2163,1.9872,1.9872,0,0,1,1.2929-.4312,3.7658,3.7658,0,0,1,1.0469.1694.253.253,0,0,1,.0772.1387c.0156.17.0771.4776.0918.7236,0,.1695-.03.2466-.0762.2466-.0625,0-.0928-.0771-.1387-.185a1.17,1.17,0,0,0-.37-.6314,1.2634,1.2634,0,0,0-.7236-.2309A.8973.8973,0,0,0,262.1445,66.7523Z"/><path class="cls-5" d="M270.23,67.1375a.181.181,0,0,1-.1543.169c-.1231-.0152-2.125-.0459-2.4785-.0459h-.8311c-.0312,0-.1084.0771-.1386.123a2.1106,2.1106,0,0,0-.1241.8467,2.761,2.761,0,0,0,.709,1.8633,2.0776,2.0776,0,0,0,1.5391.6308,1.9637,1.9637,0,0,0,1.4629-.4926c.123-.1231.1845-.0923.1845-.0152a.585.585,0,0,1-.1533.2461,2.7223,2.7223,0,0,1-2.1406.97,2.4858,2.4858,0,0,1-1.832-.7851,3.01,3.01,0,0,1-.7393-2.063,3.21,3.21,0,0,1,.8936-2.2481,2.8625,2.8625,0,0,1,1.9238-.77A1.7768,1.7768,0,0,1,270.23,67.1375Zm-3.1406-.7851a1.343,1.343,0,0,0-.3233.6308.0657.0657,0,0,0,.0615.0615l2.001-.0151c.3389,0,.3692-.1694.3692-.3081a.9917.9917,0,0,0-.2149-.6465,1.08,1.08,0,0,0-.77-.2925A1.5958,1.5958,0,0,0,267.0889,66.3524Z"/><path class="cls-5" d="M274.11,70.6937a1.7313,1.7313,0,0,1-.1846-.8775v-3.187c0-.1694-.0156-.2768-.0772-.3081a2.5239,2.5239,0,0,0-.3691-.0923c-.1231-.0307-.2-.0766-.2-.1387,0-.0307.0156-.0766.1846-.1538a3.2819,3.2819,0,0,0,1.2627-1.0312c.1386-.1543.2461-.1235.2461-.0464,0,.1387-.03.57-.0147.7544,0,.0464.0147.1387.0762.1387.2773,0,1.5556-.0464,1.8789-.0464.03,0,.0918.1079.0918.2158,0,.2617-.0762.3848-.1533.3848-.5391,0-1.294-.0157-1.709-.0157-.1846,0-.2158.0464-.2158.1387,0,.2617.0156,2.6792.0312,3.1563a1.5781,1.5781,0,0,0,.169.8315,1.1376,1.1376,0,0,0,.9541.4155,1.5082,1.5082,0,0,0,.8476-.2309c.1074-.0767.1533-.0615.1533,0,0,.0923-.1386.2466-.3388.4a2.11,2.11,0,0,1-1.2471.4A1.4269,1.4269,0,0,1,274.11,70.6937Z"/><path class="cls-5" d="M283.35,68.4769a2.9485,2.9485,0,0,1-2.9248,2.9712,2.936,2.936,0,0,1-1.8789-5.2344,3.1638,3.1638,0,0,1,1.8477-.647A2.8892,2.8892,0,0,1,283.35,68.4769Zm-4.8037-.2159a3.5217,3.5217,0,0,0,.6475,2.1094,1.8283,1.8283,0,0,0,1.4472.8159,1.523,1.523,0,0,0,.97-.3847,3.069,3.069,0,0,0,.6464-2.063c0-1.4629-.7392-2.91-2.0937-2.91C279.3779,65.8284,278.5459,66.66,278.5459,68.261Z"/><path class="cls-5" d="M246.8975,83.4139c0,2.6787-.8,3.9721-1.57,4.48a2.2044,2.2044,0,0,1-1.2158.354c-2.0937,0-2.8486-2.7559-2.8486-4.5415,0-2.4175.6318-3.8955,1.8633-4.6036a2.1259,2.1259,0,0,1,1.0312-.2465C246.251,78.8563,246.8975,81.6585,246.8975,83.4139Zm-3.3711-3.9414a8.3669,8.3669,0,0,0-.585,3.664c0,2.51.3232,4.896,1.2627,4.896.2148,0,.4463-.0923.6611-.7544a13.85,13.85,0,0,0,.3858-3.4951c0-2.3554-.4-4.6958-1.2168-4.6958A.6165.6165,0,0,0,243.5264,79.4725Z"/><path class="cls-5" d="M248.0381,87.37a.8617.8617,0,0,1,.8476-.8774.83.83,0,0,1,.8155.8623.8342.8342,0,1,1-1.6631.0151Z"/><path class="cls-5" d="M252.2578,79.3646a9.4631,9.4631,0,0,0,1.9551-.4,1.6162,1.6162,0,0,1,.3389-.1079c.03,0,.0615.0156.0615.1079,0,.2-.0156,1.57-.0459,2.5713-.0156,1.2929.0146,4.5263.0459,5.1884.0459.9546.123,1.0469.7695,1.1548.17.0308.2461.0923.2461.1538s-.0918.1079-.292.1079c-.7851,0-1.2627-.0771-1.8017-.0771-.754,0-1.0469.0771-1.586.0771-.1377,0-.2617-.0307-.2617-.1235,0-.0615.0928-.0923.2471-.123.7236-.1231.8613-.2618.8925-1.17.0459-.4775.0772-1.3086.0772-3.9414,0-1.8632-.0156-2.3711-.0459-2.7558a.3764.3764,0,0,0-.2-.3389,2.3577,2.3577,0,0,0-.3857-.0923c-.0918-.0156-.2305-.0615-.2305-.123C252.042,79.4261,252.1348,79.38,252.2578,79.3646Z"/><path class="cls-5" d="M259.65,78.4715c.585.0156,1.5859.0771,2.417.0771.0615,0,.1387.1231.1846.2154.5234,1.2163,2.6943,5.62,3.2334,6.605.0312.0922.0771.0463.1074-.0152.4316-.77,2.2793-4.5727,2.6181-5.3271a12.7708,12.7708,0,0,0,.4766-1.2471c0-.0308.1084-.231.1855-.231.6924,0,1.1543-.0922,2.0938-.0922.2,0,.2764.0459.2764.1074,0,.0771-.1377.1387-.2461.1543-.8926.1845-.9239.3847-.97,1.2314-.0312.6157-.0312,2.1861-.0312,2.9405,0,1.6782.0771,3.2182.1084,3.7417.0615.8774.2158,1.062.8467,1.247.1386.0459.2461.0923.2461.169,0,.062-.1075.1079-.2774.1079-.5537,0-1.2314-.0923-1.832-.0923s-1.3545.0464-1.57.0464c-.1074,0-.2774-.0156-.2774-.1236,0-.0615.1543-.1381.2618-.1694.6318-.1382.7236-.477.77-1.6626.0459-.8.0615-4.5264.0615-5.373,0-.0616-.0469-.1695-.0772-.0464-1.0166,2.1094-2.6787,5.5581-3.2793,7.0054-.123.246-.1845.354-.2773.354s-.169-.231-.2461-.4c-.5547-1.3238-2.7871-6.2505-3.1875-7.0205-.0615-.1387-.0918-.1539-.123.0771-.0616.6465-.2,4.2954-.2,5.3579a5.2539,5.2539,0,0,0,.0615,1.062c.0615.354.3545.585.8164.6778.1543.0307.2461.0922.2461.1538,0,.1079-.1387.1386-.292.123-.2774.0156-.8164-.0615-1.34-.0615-.4921,0-.9238.0771-1.1084.0771-.2314,0-.2929-.0307-.2929-.1079,0-.0464.0469-.1079.2617-.1694.4473-.123.6777-.2153.832-.4463a3.799,3.799,0,0,0,.3535-1.6938c.0928-.8775.293-4.003.293-5.1885,0-.9082-.0459-1.1084-.3389-1.4165a1.2783,1.2783,0,0,0-.8007-.3692c-.1075-.0307-.2461-.0927-.2461-.1694S259.5576,78.4715,259.65,78.4715Z"/><path class="cls-5" d="M272.2168,82.7977a6.9682,6.9682,0,0,0,1.5088-.4619,1.3706,1.3706,0,0,1,.2305-.0923c.0468,0,.0771.0464.0615.2158-.03.3232-.03,1.1084-.03,1.7549,0,1.7246,0,2.956.03,3.187a.4666.4666,0,0,0,.416.4775c.1689.0459.2158.0923.2158.1538,0,.0772-.1084.1079-.2314.1079-.2618,0-.6153-.0771-1.2627-.0771-.6768,0-1.0313.0308-1.2.0308-.1387,0-.2617-.0464-.2617-.108,0-.0766.0918-.1074.2763-.1381.4-.0928.5088-.293.5088-.8316,0-.4619.0459-3.1411.0459-3.2949,0-.2925,0-.354-.4-.6314-.0771-.0615-.123-.1074-.123-.1689C272.001,82.89,272.0469,82.8441,272.2168,82.7977Zm1.832-2.4478a.7372.7372,0,0,1-.7549.7695.6961.6961,0,0,1-.6464-.708.7365.7365,0,0,1,.7236-.7851A.7246.7246,0,0,1,274.0488,80.35Z"/><path class="cls-5" d="M277.4668,84.3221c0,2.0014.0146,2.6172.03,2.8945.0156.4927.1084.5542.5088.6465.0918.0156.1992.0615.1992.1387,0,.0615-.1533.1079-.3076.1079-.462,0-1.0772-.0464-1.3086-.0464-.416,0-.7393.0308-1.1543.0308-.1543,0-.2774-.0308-.2774-.108s.1074-.1074.2305-.1381c.416-.0772.5088-.1695.5391-.8316.0312-.6313.0927-3.4951.1084-4.9731,0-.8467.0146-2.4785,0-3.002,0-.3545-.0772-.4619-.4317-.647-.1074-.0615-.1543-.123-.1543-.1689s.0928-.0928.2315-.1235a8.78,8.78,0,0,0,1.5547-.4312.6648.6648,0,0,1,.2158-.0615c.03,0,.0615.0923.0615.1694,0,.1079-.0459,2.6792-.0459,5.3423Z"/><path class="cls-5" d="M283.78,83.9832a.2317.2317,0,0,1-.1846.2158c-.17-.0156-2.0791-.0464-2.4941-.0464h-.5547c-.0459,0-.1074.0772-.1387.1231a2.3627,2.3627,0,0,0-.0771.6313,2.5255,2.5255,0,0,0,.6777,1.8169,2.0725,2.0725,0,0,0,2.7715.1387c.1074-.1235.1689-.0928.1689-.0156s-.03.123-.1074.2309a2.7236,2.7236,0,0,1-2.2637,1.17,2.5406,2.5406,0,0,1-1.9092-.8,3.0639,3.0639,0,0,1-.7382-2.0786,3.1427,3.1427,0,0,1,1.0312-2.3555,2.9037,2.9037,0,0,1,1.8779-.6929A1.8117,1.8117,0,0,1,283.78,83.9832Zm-2.9561-.9389a1.8238,1.8238,0,0,0-.3388.7851c0,.0308.0312.0923.0771.0923l1.4629-.0151c.415,0,.4463-.231.4463-.37a1.1962,1.1962,0,0,0-.2158-.7392.7682.7682,0,0,0-.5694-.2618A1.1979,1.1979,0,0,0,280.8242,83.0443Z"/><path class="cls-5" d="M242.7715,99.3211c.1387,0,.2617.0308.2617.1074,0,.0464-.1533.1079-.2617.1236-.3692.0615-.3535.2-.292.4463.2305.7089.8926,2.4638,1.2471,3.3261.0156.0459.0771.0615.0918.0147.247-.5235.9238-2.0166,1.0781-2.417.0156-.0772.0615-.1846.03-.2617-.0762-.2-.1846-.4463-.2618-.6314a.8192.8192,0,0,0-.5849-.5078c-.1387-.0308-.2149-.0615-.2149-.1235s.0762-.0923.2305-.0923c.3232,0,.7236.0464,1.0469.0464.4463,0,.6318-.0308.9082-.0308.17,0,.2314.0308.2314.0767,0,.062-.1074.1235-.2314.1543-.3535.0766-.4463.1386-.2617.6157.17.477.9853,2.71,1.2011,3.187.0459.0771.0772.0156.0772,0,.1846-.4.9238-2.1553,1.1084-2.6787a3.51,3.51,0,0,0,.2461-.7393c0-.1386-.0615-.2773-.4619-.3847-.2-.0616-.2461-.1079-.2461-.1543,0-.0616.0927-.0923.2-.0923.2617,0,.539.0464.7851.0464.1543,0,.5391-.0464.77-.0464.1386,0,.2158.0307.2158.0923s-.0459.0927-.2774.1543c-.2773.0766-.4619.2924-.6621.708-.2763.5547-.7383,1.6172-1.2158,2.71-.2617.6309-.5391,1.3086-.7236,1.8018-.0928.2461-.1543.292-.2.292-.0616,0-.1075-.0615-.169-.2774-.0771-.2148-.1855-.5234-.37-1.0468-.292-.8311-.6152-1.709-.9238-2.5245-.0156-.0468-.0459-.0771-.0772,0-.1386.292-.7851,1.709-1,2.2481-.2314.5078-.37.8613-.539,1.3086-.0772.2148-.1543.292-.2159.292s-.1074-.1074-.1543-.2774c-.0761-.2148-.1689-.5849-.4306-1.3232-.2774-.7549-1.1543-3.0337-1.3242-3.3262a.8775.8775,0,0,0-.6778-.6006c-.123-.0307-.2148-.0766-.2148-.123,0-.0923.1074-.1231.2773-.1231.1993,0,.6612.0616,1.0928.0616C242.1562,99.3519,242.4639,99.3211,242.7715,99.3211Z"/><path class="cls-5" d="M253.5049,99.9525a3.7381,3.7381,0,0,1,.2148,1.4013c0,.5694-.0459,2.0322-.0459,2.4326a.5277.5277,0,0,0,.5694.585.9914.9914,0,0,0,.4472-.1387c.0918-.0459.1534,0,.0918.1387a1.2977,1.2977,0,0,1-1.1855.6621,1.0341,1.0341,0,0,1-.9082-.6934.0551.0551,0,0,0-.0772-.0156,2.153,2.153,0,0,1-1.5088.6934,1.2776,1.2776,0,0,1-1.2314-1.3242,1.0887,1.0887,0,0,1,.5537-.878c.37-.2,1.7715-.6152,2.0947-.7382a.2931.2931,0,0,0,.2-.2315,5.2969,5.2969,0,0,0,.03-.708c0-.6313-.1074-1.0625-.3691-1.2627a1.1752,1.1752,0,0,0-.6465-.2466,1.0593,1.0593,0,0,0-.6162.1851.62.62,0,0,0-.2315.3691,1.6815,1.6815,0,0,0-.0146.293.1924.1924,0,0,1-.0616.123,3.31,3.31,0,0,1-.7236.3389c-.0771.0156-.1543-.0771-.1543-.1387,0-.1074.1074-.2465.293-.4619a3.9806,3.9806,0,0,1,1.17-.893,2.0661,2.0661,0,0,1,.9238-.2774A1.2627,1.2627,0,0,1,253.5049,99.9525Zm-1.0322,4.2343a.6425.6425,0,0,0,.17-.37,11.0763,11.0763,0,0,0,.0771-1.4629c0-.0146-.0312-.0918-.0625-.0762a8.6011,8.6011,0,0,0-1.416.5235.796.796,0,0,0-.3848.7695.8944.8944,0,0,0,.9239.8623A1.0573,1.0573,0,0,0,252.4727,104.1868Z"/><path class="cls-5" d="M256.94,101.1224c0,1.94.0156,2.664.0312,2.956.0147.416.1074.5235.5381.6006.0928.0156.2.0615.2.1074,0,.0616-.1074.1084-.3076.1084-.2461,0-.8008-.0312-1.0625-.0312-.4,0-.8008.0312-1.0313.0312-.1846,0-.2617-.0156-.2617-.0927s.0771-.0918.2773-.1387c.3848-.0772.4766-.2149.5381-.8926.0313-.5693.0928-3.1719.1084-5.0195,0-1.2471.0157-2.51,0-3.187,0-.3389-.0312-.4156-.4316-.6621-.1074-.0616-.1533-.0923-.1533-.1382s.0918-.0928.23-.1236a7.9617,7.9617,0,0,0,1.1553-.354.64.64,0,0,1,.1846-.0463c.03,0,.0459.0927.0459.1694,0,.1079-.0615,2.7715-.0615,5.081Z"/><path class="cls-5" d="M262.73,99.3519c.3379,0,.9541-.0772,1.3545-.0772.1689,0,.2305.0464.2305.0923,0,.0308-.0459.0928-.2305.1235a2.7419,2.7419,0,0,0-1.416.6773c-.4.3081-1.1553.9546-1.4473,1.2319-.0312.0313,0,.0772.0147.1074.4619.5391,1.57,1.7247,2.2939,2.4639a1.9933,1.9933,0,0,0,1.1094.7236c.1377.03.23.0772.23.1387,0,.0918-.1386.1074-.2617.1074-.5234,0-1.1084-.0771-1.709-.0771-.2617,0-.4619.0156-.6923.0156-.17,0-.2774,0-.2774-.0928,0-.0761.0772-.1074.3535-.1689.2617-.0615.293-.2.1543-.416-.3232-.3692-1.416-1.5235-1.8779-1.9854-.1231-.124-.2315-.2314-.293-.2314-.0459,0-.0615.0928-.0615.1543-.0156.2773-.03.7851-.0156,1.6318,0,.7393.123.7852.6006.8926.1543.0469.2314.0771.2314.1387,0,.0771-.123.1084-.293.1084-.4306,0-.7539-.0469-1.1543-.0469-.4931,0-.8164.0469-1.0009.0469-.1543,0-.2461-.0469-.2461-.1084,0-.0459.0918-.0918.2-.1075.4765-.123.5849-.2617.6152-.7695.0615-1.124.0772-2.418.0772-3.6186.0156-1.2012.0615-3.1719.0615-4.3726a2.6509,2.6509,0,0,0-.0615-.7085c-.03-.123-.169-.2153-.3545-.3076-.0762-.0464-.1377-.0772-.1377-.1079,0-.0615.0918-.0923.2461-.1387a9.4667,9.4667,0,0,0,1.0927-.3691.7181.7181,0,0,1,.2461-.0772c.0156,0,.0469.0459.0469.1231-.0313.5083-.0772,1.8628-.0772,3.0024,0,.4771-.0771,2.5093-.0771,4.2036,0,.169.0313.2461.0771.2461a.7746.7746,0,0,0,.3077-.17,13.1155,13.1155,0,0,0,1.6631-1.54.5578.5578,0,0,0,.1689-.2768c0-.0923-.1074-.1851-.4463-.2466-.1387-.0151-.2617-.0615-.2617-.123s.1074-.108.2461-.108C262.2061,99.3362,262.56,99.3519,262.73,99.3519Z"/><path class="cls-5" d="M266.8105,101.9075c-.1386-1.4316-.4775-3.9257-.5078-4.88-.0156-.462.2618-1.14.6778-1.14.4463,0,.6924.5391.6924,1.0776,0,.7085-.4463,4.0958-.5079,4.8965-.0312.3233-.0927.4619-.17.4619C266.9033,102.3235,266.8418,102.2308,266.8105,101.9075Zm-.5078,2.4326a.7406.7406,0,0,1,.708-.7236c.462,0,.6163.5235.6163.7393a.6686.6686,0,0,1-.6163.6621A.6954.6954,0,0,1,266.3027,104.34Z"/></svg>