<svg xmlns="http://www.w3.org/2000/svg" viewBox="0 0 328.7914 155.6793"><g id="plane-outlines"><g id="AirPlane"><path d="M280.8329,58.38c24.9058,0,45.0956,10.3707,45.0956,23.1636s-20.19,23.1635-45.0956,23.1635" style="fill:none;stroke:#222f3c;stroke-linecap:round;stroke-linejoin:round;stroke-width:1.58277090421979px"/><path d="M324.82,84.12H287.0324a15.8277,15.8277,0,0,1-15.8277-15.8277" style="fill:none;stroke:#222f3c;stroke-linecap:round;stroke-linejoin:round;stroke-width:1.58277090421979px"/><line x1="128.7935" y1="102.8706" x2="127.6629" y2="102.4087" style="fill:none;stroke:#222f3c;stroke-linecap:round;stroke-linejoin:round;stroke-width:1.58277090421979px"/><path d="M89.4909,86.8194l-11.01-4.4951a2.8513,2.8513,0,0,1-1.0538-4.48L89.3725,63.9164,76.8154,9.11a2.849,2.849,0,0,1,2.7762-3.4872H96.6928a2.8465,2.8465,0,0,1,2.25,1.1035L138.9764,58.38h22.2093" style="fill:none;stroke:#222f3c;stroke-linecap:round;stroke-linejoin:round;stroke-width:1.58277090421979px"/><line x1="127.6629" y1="102.4087" x2="108.8437" y2="94.7231" style="fill:none;stroke:#222f3c;stroke-linecap:round;stroke-linejoin:round;stroke-width:1.58277090421979px"/><line x1="161.1843" y1="58.3801" x2="283.4584" y2="58.3801" style="fill:none;stroke:#222f3c;stroke-linecap:round;stroke-linejoin:round;stroke-width:1.58277090421979px"/><line x1="108.8437" y1="94.7231" x2="124.426" y2="82.9191" style="fill:none;stroke:#222f3c;stroke-linecap:round;stroke-linejoin:round;stroke-width:1.58277090421979px"/><path d="M89.4909,86.8194,77.2691,103.1061a2.849,2.849,0,0,0,2.3212,4.5011H90.8859a2.8456,2.8456,0,0,0,1.6353-.5192l16.3225-12.3646" style="fill:none;stroke:#222f3c;stroke-linecap:round;stroke-linejoin:round;stroke-width:1.58277090421979px"/><path d="M89.4909,86.8194l5.4058-7.2016a2.8531,2.8531,0,0,1,2.3216-1.2" style="fill:none;stroke:#222f3c;stroke-linecap:round;stroke-linejoin:round;stroke-width:1.58277090421979px"/><line x1="144.2225" y1="104.7075" x2="144.8162" y2="104.7075" style="fill:none;stroke:#222f3c;stroke-linecap:round;stroke-linejoin:round;stroke-width:1.58277090421979px"/><line x1="144.8162" y1="104.7075" x2="169.8658" y2="104.7075" style="fill:none;stroke:#222f3c;stroke-linecap:round;stroke-linejoin:round;stroke-width:1.58277090421979px"/><line x1="144.2225" y1="104.7075" x2="143.9172" y2="104.7075" style="fill:none;stroke:#222f3c;stroke-linecap:round;stroke-linejoin:round;stroke-width:1.58277090421979px"/><line x1="283.4584" y1="104.7075" x2="233.9471" y2="104.7075" style="fill:none;stroke:#222f3c;stroke-linecap:round;stroke-linejoin:round;stroke-width:1.58277090421979px"/><path d="M169.8658,104.7075,141.5129,149.204a2.8489,2.8489,0,0,0,2.402,4.38h24.7957a2.8506,2.8506,0,0,0,1.725-.5811l63.5112-48.2958" style="fill:none;stroke:#222f3c;stroke-linecap:round;stroke-linejoin:round;stroke-width:1.58277090421979px"/><path d="M169.8658,104.7075,178.708,90.83a2.8451,2.8451,0,0,1,2.402-1.32h64.365A2.8514,2.8514,0,0,1,247.2,94.6294l-13.2531,10.0781" style="fill:none;stroke:#222f3c;stroke-linecap:round;stroke-linejoin:round;stroke-width:1.58277090421979px"/><path d="M161.1832,58.38,141.5119,27.5069a2.849,2.849,0,0,1,2.402-4.3805H168.71a2.8561,2.8561,0,0,1,1.725.5812L215.7428,58.16" style="fill:none;stroke:#222f3c;stroke-linecap:round;stroke-linejoin:round;stroke-width:1.58277090421979px"/><line x1="97.2169" y1="78.4177" x2="110.8088" y2="78.4177" style="fill:none;stroke:#222f3c;stroke-linecap:round;stroke-linejoin:round;stroke-width:1.58277090421979px"/><line x1="97.2169" y1="78.4177" x2="96.8846" y2="78.4177" style="fill:none;stroke:#222f3c;stroke-linecap:round;stroke-linejoin:round;stroke-width:1.58277090421979px"/><path d="M124.426,82.9191a2.8491,2.8491,0,0,0-2.3216-4.5014" style="fill:none;stroke:#222f3c;stroke-linecap:round;stroke-linejoin:round;stroke-width:1.58277090421979px"/><line x1="122.1044" y1="78.4177" x2="110.8088" y2="78.4177" style="fill:none;stroke:#222f3c;stroke-linecap:round;stroke-linejoin:round;stroke-width:1.58277090421979px"/><path d="M144.8172,104.7075h.0347" style="fill:none;stroke:#222f3c;stroke-linecap:round;stroke-linejoin:round;stroke-width:1.58277090421979px"/><path d="M144.2225,104.7075h.5941" style="fill:none;stroke:#222f3c;stroke-linecap:round;stroke-linejoin:round;stroke-width:1.58277090421979px"/><path d="M127.1474,102.1482c.1542.0924.3406.1747.5151.26" style="fill:none;stroke:#222f3c;stroke-linecap:round;stroke-linejoin:round;stroke-width:1.58277090421979px"/><path d="M144.2225,104.7075c-2.6335-.0136-12.3755-.2374-16.56-2.2988" style="fill:none;stroke:#222f3c;stroke-linecap:round;stroke-linejoin:round;stroke-width:1.58277090421979px"/><line x1="0.7914" y1="64.389" x2="89.4909" y2="64.389" style="fill:none;stroke:#222f3c;stroke-linecap:round;stroke-width:1.58277090421979px"/></g></g></svg>