<svg id="Layer_1" data-name="Layer 1" xmlns="http://www.w3.org/2000/svg" viewBox="0 0 399 200"><defs><style>.cls-1,.cls-2,.cls-4,.cls-6{fill:none;stroke:#222f3c;stroke-linecap:round;}.cls-1,.cls-2{stroke-linejoin:round;}.cls-1,.cls-4{stroke-width:0.5px;}.cls-2,.cls-6{stroke-width:0.4px;}.cls-3{fill:#333838;}.cls-4,.cls-6{stroke-miterlimit:10;}.cls-5{fill:#222f3c;}</style></defs><line class="cls-1" x1="63.1903" y1="106.8356" x2="63.1903" y2="109.9118"/><line class="cls-1" x1="75.8301" y1="115.0374" x2="75.8301" y2="120.1157"/><line class="cls-1" x1="53.3657" y1="115.0374" x2="53.3657" y2="120.1157"/><rect class="cls-1" x="60.1756" y="113.6094" width="5.9732" height="6.6051" rx="1" transform="translate(126.3244 233.8238) rotate(-180)"/><line class="cls-1" x1="90.5622" y1="115.0374" x2="90.5622" y2="120.1157"/><polyline class="cls-1" points="88.361 112.898 73.914 112.898 63.253 100.831 82.219 100.831 92.88 112.898"/><line class="cls-1" x1="63.1543" y1="100.8473" x2="52.4934" y2="112.9146"/><line class="cls-1" x1="48.195" y1="99.6065" x2="48.195" y2="102.6826"/><line class="cls-1" x1="38.3703" y1="107.6728" x2="38.3703" y2="112.7511"/><rect class="cls-1" x="45.1802" y="106.2313" width="5.9732" height="6.6051" rx="1" transform="translate(96.3337 219.0676) rotate(-180)"/><polyline class="cls-1" points="58.918 105.669 48.257 93.601 67.224 93.601 73.685 100.784"/><line class="cls-1" x1="48.1589" y1="93.6182" x2="37.4981" y2="105.6855"/><line class="cls-1" x1="87.8276" y1="100.3998" x2="87.8276" y2="103.4759"/><line class="cls-1" x1="100.4674" y1="108.6016" x2="100.4674" y2="113.6799"/><path class="cls-1" d="M90.7861,110.3782v-2.7489a.6048.6048,0,0,0-.6048-.6048H87.7144"/><polyline class="cls-1" points="108.329 106.462 98.551 106.462 87.89 94.395 106.856 94.395 112.855 101.227"/><line class="cls-1" x1="87.7916" y1="94.4115" x2="82.2506" y2="100.825"/><line class="cls-1" x1="72.8323" y1="93.1706" x2="72.8323" y2="96.2468"/><path class="cls-1" d="M75.7908,100.7914V100.4a.6048.6048,0,0,0-.6048-.6048H72.798"/><polyline class="cls-1" points="83.555 99.233 72.895 87.166 91.861 87.166 98.322 94.348"/><line class="cls-1" x1="72.7962" y1="87.1823" x2="67.1666" y2="93.5846"/><line class="cls-1" x1="132.3367" y1="106.8356" x2="132.3367" y2="109.9118"/><line class="cls-1" x1="119.6969" y1="115.0374" x2="119.6969" y2="120.1157"/><line class="cls-1" x1="142.1614" y1="115.0374" x2="142.1614" y2="120.1157"/><rect class="cls-1" x="129.3783" y="113.4604" width="5.9732" height="6.6051" rx="1"/><line class="cls-1" x1="104.9648" y1="115.0374" x2="104.9648" y2="120.1157"/><polyline class="cls-1" points="107.166 112.898 121.614 112.898 132.274 100.831 113.308 100.831 102.647 112.898"/><line class="cls-1" x1="132.3728" y1="100.8473" x2="143.0336" y2="112.9146"/><line class="cls-1" x1="147.3321" y1="99.6065" x2="147.3321" y2="102.6826"/><line class="cls-1" x1="157.1567" y1="107.8083" x2="157.1567" y2="112.8866"/><rect class="cls-1" x="144.3736" y="106.3057" width="5.9732" height="6.6051" rx="1"/><polyline class="cls-1" points="136.609 105.669 147.27 93.601 128.304 93.601 121.842 100.784"/><line class="cls-1" x1="147.3681" y1="93.6182" x2="158.029" y2="105.6855"/><polyline class="cls-1" points="145.134 93.551 150.253 87.769 131.287 87.769 127.771 91.741"/><line class="cls-1" x1="150.3514" y1="87.7857" x2="161.0123" y2="99.8529"/><line class="cls-1" x1="160.1065" y1="101.9758" x2="160.1065" y2="107.1603"/><line class="cls-1" x1="150.2898" y1="93.8019" x2="150.2898" y2="96.878"/><polyline class="cls-1" points="93.145 88.628 105.983 88.628 116.644 100.695"/><polyline class="cls-1" points="77.407 87.149 72.022 81.399 90.988 81.399 97.449 88.582"/><line class="cls-1" x1="71.9233" y1="81.4154" x2="61.2624" y2="93.4827"/><polyline class="cls-1" points="92.374 79.702 105.212 79.702 112.151 87.484"/><polyline class="cls-1" points="107.712 90.506 126.678 90.506 129.17 93.61"/><polyline class="cls-1" points="126.65 87.332 132.035 81.581 113.069 81.581 110.053 84.916"/><line class="cls-1" x1="132.1333" y1="81.5982" x2="134.9698" y2="84.6923"/><line class="cls-1" x1="160.8657" y1="120.2422" x2="37.3611" y2="120.2422"/><line class="cls-1" x1="46.4931" y1="112.8383" x2="1.1331" y2="112.8383"/><path class="cls-1" d="M150.3873,82.3844H165.81a1.95,1.95,0,0,0,1.53-1.9814,2.0244,2.0244,0,0,0-2.2019-1.9814h-.9211c.2233,0,.3517-1.04.3517-1.6042a3.7416,3.7416,0,0,0-6.28-2.7613,3.8724,3.8724,0,0,0-5.1053-1.5546A5.1983,5.1983,0,0,0,143.794,75.61a4.5517,4.5517,0,0,0,.8123,2.8115"/><path class="cls-1" d="M155.4781,72.1477c-.5167-3.5612,1.7589-8.1263,6.2884-8.9068a7.71,7.71,0,0,1,8.9069,6.2885c.7789,4.52-2.7424,8.2024-6.2885,8.9068"/><path class="cls-1" d="M15.3441,94.8985a4.4751,4.4751,0,0,1,8.9062,0,4.2209,4.2209,0,0,1,.0044,8.2364c.002.0515.0082.1019.0082.1538a4.47,4.47,0,0,1-8.9314,0c0-.0519.0062-.1023.0082-.1538"/><line class="cls-1" x1="19.7449" y1="100.2277" x2="16.2484" y2="97.0716"/><line class="cls-1" x1="19.9906" y1="102.0777" x2="22.9893" y2="98.1372"/><line class="cls-1" x1="19.8915" y1="97.8151" x2="19.8915" y2="112.7592"/><path class="cls-1" d="M15.2665,103.1155a3.3929,3.3929,0,0,1-2.3912,2.2023c.0016.04.0064.0789.0064.1192a3.4024,3.4024,0,0,1-3.4882,3.31,3.4024,3.4024,0,0,1-3.4882-3.3095c0-.04.0048-.0793.0064-.1192a3.2647,3.2647,0,0,1,.0035-6.3816,3.4115,3.4115,0,0,1,3.4783-3.1241,3.5058,3.5058,0,0,1,2.97,1.6019"/><line class="cls-1" x1="9.3569" y1="103.3553" x2="6.6215" y2="100.6199"/><line class="cls-1" x1="9.5446" y1="104.4987" x2="11.8869" y2="101.4456"/><line class="cls-1" x1="9.4671" y1="101.196" x2="9.4671" y2="112.7747"/><path class="cls-1" d="M39.3779,77.802a1.9275,1.9275,0,0,0-1.69,1.839l-.0392.7355-.5829-.4488a5.5543,5.5543,0,0,0-4.3607-.85"/><path class="cls-1" d="M34.14,86.4316a1.9276,1.9276,0,0,0-1.69,1.8391l-.0393.7354-.5828-.4487a5.5534,5.5534,0,0,0-4.3607-.85"/><path class="cls-2" d="M15.5115,131.2549H11.3884a.1248.1248,0,0,1-.08-.0288l-2.6068-2.1545a.1257.1257,0,0,1-.0455-.0967v-2.3675a.1245.1245,0,0,1,.01-.0481l.7083-1.7053-.0255-3.4922H6.9462a.1255.1255,0,0,1-.0887-.2141l.6817-.6817a.1262.1262,0,0,1,.0477-.03l.4675-.1617.9882-.9253a.1257.1257,0,0,1,.0858-.0337h2.2588a.1253.1253,0,0,1,.1254.1253l.0012,6.5093h1.35a13.6393,13.6393,0,0,1,4.566.7847l1.6352.5791a.1256.1256,0,0,1,.0835.1182v.665a.1254.1254,0,0,1-.05.1l-1.8022,1.3514-1.6963,1.67A.1252.1252,0,0,1,15.5115,131.2549Zm-3.9977-4.31v.79"/><line class="cls-2" x1="14.5064" y1="131.2754" x2="14.5064" y2="133.6215"/><polyline class="cls-2" points="11.956 133.686 13.511 132.622 13.511 131.914"/><polyline class="cls-2" points="11.547 127.759 13.09 129.381 16.514 129.381"/><line class="cls-2" x1="9.3336" y1="121.912" x2="7.768" y2="121.912"/><path class="cls-2" d="M9.257,119.3018V117.7a.1255.1255,0,0,1,.1254-.1254H9.969a.1255.1255,0,0,1,.0887.0368l.449.449h.3422a.1254.1254,0,0,1,.0887.0367l.38.38a.1253.1253,0,0,1,.0368.0886v.7363"/><path class="cls-2" d="M9.3464,124.007H8.4338a.1254.1254,0,0,1-.1254-.1254v-.8249a.1231.1231,0,0,1,.0073-.0421l.4026-1.0847"/><line class="cls-2" x1="1.2479" y1="133.7021" x2="22.158" y2="133.7021"/><line class="cls-2" x1="6.7272" y1="133.6215" x2="6.7272" y2="132.4595"/><line class="cls-2" x1="7.6232" y1="133.1245" x2="7.6232" y2="133.6215"/><line class="cls-2" x1="8.5053" y1="133.6215" x2="8.5053" y2="131.9142"/><line class="cls-2" x1="16.5159" y1="133.6998" x2="16.5159" y2="133.1305"/><line class="cls-2" x1="17.3774" y1="133.6502" x2="17.3774" y2="132.5492"/><path class="cls-2" d="M24.1425,135.5362l-1.6963-1.67-1.8022-1.3514a.1255.1255,0,0,1-.05-.1v-.665a.1255.1255,0,0,1,.0835-.1182l1.6352-.5791a13.6389,13.6389,0,0,1,4.566-.7847h1.35l.0011-6.5093a.1255.1255,0,0,1,.1254-.1254h2.2589a.1254.1254,0,0,1,.0857.0338l.9883.9253.4675.1616a.1253.1253,0,0,1,.0477.03l.6816.6817a.1253.1253,0,0,1-.0886.214H30.3933l-.0256,3.4923.7084,1.7052a.1252.1252,0,0,1,.01.0482v2.3675a.1252.1252,0,0,1-.0454.0966l-2.6068,2.1546a.1254.1254,0,0,1-.08.0287H24.2305A.1255.1255,0,0,1,24.1425,135.5362Zm4.0857-3.4839v-.79"/><line class="cls-2" x1="25.2356" y1="135.5928" x2="25.2356" y2="137.9388"/><polyline class="cls-2" points="27.786 138.003 26.231 136.94 26.231 136.232"/><polyline class="cls-2" points="28.195 132.076 26.652 133.699 23.228 133.699"/><line class="cls-2" x1="30.4083" y1="126.2294" x2="31.974" y2="126.2294"/><path class="cls-2" d="M30.485,123.6192v-1.6023a.1255.1255,0,0,0-.1254-.1254h-.5867a.1254.1254,0,0,0-.0886.0367l-.449.449H28.893a.1254.1254,0,0,0-.0886.0368l-.38.38a.1256.1256,0,0,0-.0367.0887v.7363"/><path class="cls-2" d="M30.3955,128.3243h.9127a.1254.1254,0,0,0,.1254-.1254v-.8248a.1232.1232,0,0,0-.0074-.0421l-.4025-1.0848"/><line class="cls-2" x1="35.9449" y1="138.0195" x2="17.584" y2="138.0195"/><line class="cls-2" x1="33.0147" y1="137.9388" x2="33.0147" y2="136.7769"/><line class="cls-2" x1="32.1187" y1="137.4419" x2="32.1187" y2="137.9388"/><line class="cls-2" x1="31.2367" y1="137.9388" x2="31.2367" y2="136.2315"/><line class="cls-2" x1="23.226" y1="138.0172" x2="23.226" y2="137.4478"/><line class="cls-2" x1="22.3645" y1="137.9676" x2="22.3645" y2="136.8666"/><path class="cls-3" d="M211.666,92.1805a9.4692,9.4692,0,0,0,1.9551-.4,1.6162,1.6162,0,0,1,.3389-.1079c.03,0,.0615.0156.0615.1079,0,.2-.0156,1.57-.0459,2.5713-.0156,1.2929.0146,4.5263.0459,5.1885.0459.9545.123,1.0468.7695,1.1547.17.0313.2461.0928.2461.1543s-.0918.1075-.292.1075c-.7851,0-1.2627-.0772-1.8017-.0772-.7539,0-1.0469.0772-1.586.0772-.1386,0-.2617-.03-.2617-.1231,0-.0615.0928-.0928.2471-.123.7236-.1236.8623-.2622.8926-1.17.0458-.4776.0771-1.3086.0771-3.9415,0-1.8627-.0156-2.371-.0459-2.7558a.3763.3763,0,0,0-.2-.3389,2.3577,2.3577,0,0,0-.3857-.0923c-.0918-.0156-.2305-.0615-.2305-.123C211.45,92.242,211.543,92.1956,211.666,92.1805Z"/><path class="cls-3" d="M219.0576,91.2874c.585.0156,1.586.0772,2.417.0772.0615,0,.1387.123.1846.2153.5234,1.2163,2.6943,5.62,3.2334,6.605.0312.0923.0771.0464.1074-.0156.4316-.77,2.2793-4.5723,2.6182-5.3267a12.8133,12.8133,0,0,0,.4765-1.2471c0-.0307.1084-.2309.1856-.2309.6924,0,1.1543-.0928,2.0937-.0928.2,0,.2764.0464.2764.1079,0,.0771-.1377.1387-.2461.1543-.8926.1846-.9238.3848-.97,1.2314-.0313.6158-.0313,2.1861-.0313,2.941,0,1.6777.0772,3.2177.1084,3.7412.0615.8774.2158,1.062.8467,1.247.1387.0459.2461.0928.2461.169,0,.0625-.1074.1084-.2774.1084-.5537,0-1.2314-.0928-1.832-.0928s-1.3545.0469-1.57.0469c-.1074,0-.2773-.0156-.2773-.124,0-.0616.1543-.1377.2617-.169.6318-.1387.7236-.4775.77-1.6631.0459-.8007.0615-4.5263.0615-5.373,0-.0615-.0469-.1694-.0771-.0464-1.0166,2.1094-2.6787,5.5581-3.2793,7.0054-.1231.2461-.1846.3545-.2774.3545s-.1689-.2315-.2461-.4009c-.5547-1.3237-2.7871-6.2505-3.1875-7.0205-.0615-.1387-.0918-.1538-.123.0771-.0615.6465-.2,4.2954-.2,5.3579a5.2526,5.2526,0,0,0,.0615,1.062c.0615.354.3545.585.8164.6783.1543.03.2461.0918.2461.1533,0,.1084-.1387.1387-.292.123-.2773.0157-.8164-.0615-1.34-.0615-.4922,0-.9239.0772-1.1084.0772-.2315,0-.293-.03-.293-.1075,0-.0468.0469-.1084.2617-.17.4473-.123.6778-.2153.8321-.4463a3.802,3.802,0,0,0,.3535-1.6938c.0927-.8775.2929-4.003.2929-5.1885,0-.9082-.0459-1.1084-.3388-1.4165a1.2776,1.2776,0,0,0-.8008-.3691c-.1074-.0308-.2461-.0928-.2461-.1695S218.9648,91.2874,219.0576,91.2874Z"/><path class="cls-3" d="M231.624,95.6136a6.9664,6.9664,0,0,0,1.5088-.4619,1.374,1.374,0,0,1,.2305-.0923c.0469,0,.0771.0464.0615.2158-.03.3232-.03,1.1084-.03,1.7549,0,1.7246,0,2.956.03,3.187a.4667.4667,0,0,0,.416.4775c.169.0459.2158.0928.2158.1543,0,.0772-.1084.1075-.2314.1075-.2617,0-.6152-.0772-1.2627-.0772-.6768,0-1.0313.0313-1.2.0313-.1387,0-.2617-.0469-.2617-.1084,0-.0762.0918-.1075.2764-.1377.4-.0933.5087-.2935.5087-.8321,0-.4619.0459-3.1406.0459-3.2949,0-.2925,0-.354-.4-.6313-.0771-.0616-.123-.1075-.123-.169C231.4082,95.7064,231.4541,95.66,231.624,95.6136Zm1.8321-2.4478a.7374.7374,0,0,1-.7549.77.6961.6961,0,0,1-.6465-.708.7365.7365,0,0,1,.7236-.7852A.7247.7247,0,0,1,233.4561,93.1658Z"/><path class="cls-3" d="M236.875,97.138c0,2.0015.0156,2.6172.03,2.8945.0156.4927.1084.5542.5088.6465.0918.0156.1992.0615.1992.1387,0,.0615-.1533.1084-.3076.1084-.4619,0-1.0772-.0469-1.3086-.0469-.416,0-.7393.0313-1.1543.0313-.1543,0-.2774-.0313-.2774-.1084s.1075-.1075.23-.1377c.416-.0777.5088-.17.5391-.8321.0312-.6313.0927-3.4951.1084-4.9731,0-.8467.0146-2.4785,0-3.002,0-.3545-.0772-.4619-.4317-.6469-.1074-.0616-.1543-.1231-.1543-.169s.0928-.0928.2315-.1235a8.78,8.78,0,0,0,1.5547-.4312.6655.6655,0,0,1,.2158-.0615c.0312,0,.0615.0923.0615.1694,0,.108-.0459,2.6792-.0459,5.3423Z"/><path class="cls-3" d="M243.1885,96.7991a.2318.2318,0,0,1-.1846.2159c-.17-.0157-2.0791-.0464-2.4941-.0464h-.5547c-.0459,0-.1074.0771-.1387.123a2.363,2.363,0,0,0-.0771.6314,2.5258,2.5258,0,0,0,.6777,1.8169,2.0738,2.0738,0,0,0,2.7715.1386c.1074-.1235.1689-.0927.1689-.0156s-.03.123-.1074.231a2.7238,2.7238,0,0,1-2.2637,1.17,2.5388,2.5388,0,0,1-1.9092-.8,3.0637,3.0637,0,0,1-.7382-2.0786,3.1428,3.1428,0,0,1,1.0312-2.3555,2.9037,2.9037,0,0,1,1.8779-.6929A1.8117,1.8117,0,0,1,243.1885,96.7991Zm-2.9561-.9389a1.8256,1.8256,0,0,0-.3388.7851c0,.0308.0312.0923.0771.0923l1.4629-.0151c.415,0,.4463-.231.4463-.37a1.1964,1.1964,0,0,0-.2158-.7392.7681.7681,0,0,0-.5694-.2617A1.1978,1.1978,0,0,0,240.2324,95.86Z"/><path class="cls-3" d="M247.0234,100.3094a1.7325,1.7325,0,0,1-.1845-.8775v-3.187c0-.1694-.0157-.2768-.0772-.3081a2.54,2.54,0,0,0-.3691-.0923c-.1231-.0307-.2-.0766-.2-.1381,0-.0313.0156-.0772.1846-.1543a3.2813,3.2813,0,0,0,1.2626-1.0313c.1387-.1543.2461-.1235.2461-.0464,0,.1387-.03.57-.0146.7544,0,.0464.0146.1387.0762.1387.2773,0,1.5556-.0464,1.8789-.0464.03,0,.0918.1079.0918.2158,0,.2617-.0762.3848-.1534.3848-.539,0-1.2939-.0156-1.7089-.0156-.1846,0-.2159.0464-.2159.1386,0,.2618.0157,2.6792.0313,3.1563a1.5791,1.5791,0,0,0,.1689.8315,1.1379,1.1379,0,0,0,.9541.4156,1.5082,1.5082,0,0,0,.8477-.231c.1074-.0771.1533-.0615.1533,0,0,.0923-.1387.2466-.3389.4a2.11,2.11,0,0,1-1.247.4A1.427,1.427,0,0,1,247.0234,100.3094Z"/><path class="cls-3" d="M256.2617,98.0926a2.9485,2.9485,0,0,1-2.9248,2.9712,2.936,2.936,0,0,1-1.8789-5.2344,3.1644,3.1644,0,0,1,1.8477-.647A2.8893,2.8893,0,0,1,256.2617,98.0926Zm-4.8037-.2158a3.5214,3.5214,0,0,0,.6475,2.1093,1.8282,1.8282,0,0,0,1.4472.816,1.5226,1.5226,0,0,0,.97-.3848,3.0688,3.0688,0,0,0,.6464-2.063c0-1.4629-.7392-2.91-2.0937-2.91C252.29,95.4442,251.458,96.2757,251.458,97.8768Z"/><path class="cls-3" d="M261.0674,95.3367c.1387,0,.2617.0308.2617.1075,0,.0463-.1533.1079-.2617.1235-.3692.0615-.3535.2-.292.4463.2305.7085.8926,2.4634,1.2471,3.3257.0156.0459.0771.0615.0918.0151.247-.5234.9238-2.0166,1.0781-2.417.0156-.0771.0615-.1846.03-.2617-.0762-.2-.1846-.4463-.2618-.6314a.8192.8192,0,0,0-.5849-.5078c-.1387-.0307-.2149-.0615-.2149-.1235s.0762-.0923.2305-.0923c.3232,0,.7236.0464,1.0469.0464.4463,0,.6318-.0308.9082-.0308.17,0,.2314.0308.2314.0767,0,.062-.1074.1235-.2314.1543-.3535.0766-.4463.1387-.2617.6157.17.4771.9853,2.7095,1.2011,3.187.0459.0772.0772.0152.0772,0,.1846-.4.9238-2.1553,1.1084-2.6787a3.51,3.51,0,0,0,.2461-.7392c0-.1387-.0616-.2774-.4619-.3848-.2-.0615-.2461-.1079-.2461-.1543,0-.0615.0927-.0923.2-.0923.2617,0,.539.0464.7851.0464.1543,0,.5391-.0464.7695-.0464.1387,0,.2159.0308.2159.0923s-.0459.0928-.2774.1543c-.2773.0766-.4619.2925-.6621.708-.2764.5542-.7383,1.6167-1.2158,2.71-.2617.6308-.5391,1.3086-.7236,1.8017-.0928.2461-.1543.292-.2.292-.0616,0-.1075-.0615-.169-.2773-.0771-.2154-.1855-.5235-.37-1.0469-.292-.8311-.6152-1.709-.9238-2.5249-.0156-.0464-.0459-.0772-.0772,0-.1386.2925-.7851,1.709-1,2.248-.2314.5078-.37.8618-.539,1.3091-.0772.2149-.1543.292-.2159.292s-.1074-.1074-.1543-.2773c-.0761-.2154-.1689-.585-.4306-1.3238-.2774-.7544-1.1543-3.0332-1.3242-3.3257a.8774.8774,0,0,0-.6778-.6005c-.123-.0308-.2148-.0767-.2148-.1231,0-.0923.1074-.123.2773-.123.1992,0,.6612.0615,1.0928.0615C260.4521,95.3675,260.76,95.3367,261.0674,95.3367Z"/><path class="cls-3" d="M271.8018,95.9681a3.7359,3.7359,0,0,1,.2148,1.4009c0,.57-.0459,2.0322-.0459,2.4326a.5274.5274,0,0,0,.5693.5849.9861.9861,0,0,0,.4473-.1386c.0918-.0459.1533,0,.0918.1386a1.2972,1.2972,0,0,1-1.1855.6626,1.034,1.034,0,0,1-.9082-.6933.0542.0542,0,0,0-.0772-.0157,2.153,2.153,0,0,1-1.5088.6934,1.2778,1.2778,0,0,1-1.2314-1.3242,1.0874,1.0874,0,0,1,.5537-.8779c.37-.2,1.7715-.6158,2.0947-.7388a.2917.2917,0,0,0,.2-.231,5.303,5.303,0,0,0,.03-.7085c0-.6308-.1074-1.062-.3692-1.2622a1.1749,1.1749,0,0,0-.6465-.2466,1.06,1.06,0,0,0-.6162.1851.62.62,0,0,0-.2314.3691,1.6708,1.6708,0,0,0-.0147.293.1928.1928,0,0,1-.0615.1231,3.3329,3.3329,0,0,1-.7236.3388c-.0772.0152-.1543-.0771-.1543-.1386,0-.108.1074-.2466.293-.462a3.9806,3.9806,0,0,1,1.17-.893,2.0661,2.0661,0,0,1,.9238-.2774A1.2628,1.2628,0,0,1,271.8018,95.9681ZM270.77,100.202a.6408.6408,0,0,0,.17-.37,11.0819,11.0819,0,0,0,.0771-1.4629c0-.0151-.0312-.0922-.0625-.0766a8.68,8.68,0,0,0-1.416.5234.7968.7968,0,0,0-.3848.77.8941.8941,0,0,0,.9238.8623A1.0542,1.0542,0,0,0,270.77,100.202Z"/><path class="cls-3" d="M275.2354,97.138c0,1.94.0156,2.6636.0312,2.9561.0146.4155.1074.5234.5381.6.0928.0157.2.0616.2.1075,0,.0615-.1074.1084-.3076.1084-.2461,0-.8008-.0313-1.0625-.0313-.4,0-.8008.0313-1.0313.0313-.1846,0-.2617-.0157-.2617-.0928s.0771-.0918.2773-.1387c.3848-.0771.4766-.2153.5381-.8931.0313-.5693.0928-3.1713.1084-5.019,0-1.2471.0156-2.51,0-3.187,0-.3389-.0312-.4155-.4316-.6621-.1074-.0615-.1533-.0923-.1533-.1382s.0918-.0928.23-.1235a7.9866,7.9866,0,0,0,1.1553-.354.637.637,0,0,1,.1846-.0464c.03,0,.0459.0927.0459.1694,0,.1079-.0615,2.7715-.0615,5.0811Z"/><path class="cls-3" d="M281.0254,95.3675c.3379,0,.9541-.0772,1.3545-.0772.1689,0,.2305.0464.2305.0923,0,.0308-.0459.0928-.2305.1236a2.7408,2.7408,0,0,0-1.416.6772c-.4.3081-1.1553.9546-1.4473,1.2315-.0312.0312,0,.0771.0146.1079.462.539,1.57,1.7246,2.294,2.4633a1.9919,1.9919,0,0,0,1.1094.7242c.1377.03.23.0771.23.1386,0,.0918-.1386.1075-.2617.1075-.5234,0-1.1084-.0772-1.709-.0772-.2617,0-.4619.0156-.6923.0156-.17,0-.2774,0-.2774-.0927,0-.0762.0772-.1075.3535-.169.2617-.062.293-.2.1543-.416-.3232-.37-1.416-1.5239-1.8779-1.9858-.1231-.1236-.2315-.231-.293-.231-.0459,0-.0615.0923-.0615.1538-.0156.2774-.03.7852-.0156,1.6318,0,.7393.123.7852.6006.8931.1543.0469.2314.0772.2314.1387,0,.0771-.123.1084-.293.1084-.4306,0-.7539-.0469-1.1543-.0469-.4931,0-.8164.0469-1.0009.0469-.1543,0-.2461-.0469-.2461-.1084,0-.0459.0918-.0918.2-.1074.4765-.1236.5849-.2622.6152-.77.0615-1.124.0771-2.4174.0771-3.6181.0157-1.2012.0616-3.1719.0616-4.3726a2.6462,2.6462,0,0,0-.0616-.7085c-.03-.123-.1689-.2153-.3544-.3076-.0762-.0464-.1377-.0771-.1377-.1079,0-.0615.0918-.0923.2461-.1387a9.4667,9.4667,0,0,0,1.0927-.3691.7181.7181,0,0,1,.2461-.0772c.0156,0,.0469.0459.0469.1231-.0313.5083-.0772,1.8628-.0772,3.0024,0,.4771-.0771,2.5093-.0771,4.2032,0,.1694.0312.246.0771.246a.7717.7717,0,0,0,.3077-.1694,13.1527,13.1527,0,0,0,1.6631-1.5395.5592.5592,0,0,0,.1689-.2769c0-.0923-.1074-.1851-.4463-.2466-.1387-.0151-.2617-.0615-.2617-.123s.1074-.1079.2461-.1079C280.502,95.3519,280.8555,95.3675,281.0254,95.3675Z"/><path class="cls-3" d="M285.1064,97.9232c-.1386-1.4317-.4775-3.9258-.5078-4.88-.0156-.4619.2618-1.14.6778-1.14.4463,0,.6924.5391.6924,1.0777,0,.7085-.4463,4.0957-.5079,4.896-.0312.3237-.0927.4619-.17.4619C285.1992,98.3387,285.1377,98.2464,285.1064,97.9232Zm-.5078,2.4326a.74.74,0,0,1,.708-.7237c.462,0,.6163.5235.6163.7388a.6687.6687,0,0,1-.6163.6626A.6953.6953,0,0,1,284.5986,100.3558Z"/><polyline class="cls-4" points="325.787 123.554 330.366 118.976 334.944 123.554"/><path class="cls-5" d="M315.22,124.681a.4942.4942,0,0,1-.36-.1494.66.66,0,0,1-.1094-.16.5725.5725,0,0,1-.03-.19.4987.4987,0,0,1,.14-.35.4387.4387,0,0,1,.16-.11.5091.5091,0,0,1,.7.46.5754.5754,0,0,1-.04.19.4566.4566,0,0,1-.11.16A.469.469,0,0,1,315.22,124.681Z"/><path class="cls-5" d="M315.33,127.261a.49.49,0,0,1,.2695-.6494h0a.4888.4888,0,0,1,.65.27h0a.4924.4924,0,0,1-.2705.65h0a.4413.4413,0,0,1-.1895.04h0A.5085.5085,0,0,1,315.33,127.261Z"/><path class="cls-5" d="M322.25,131.721a.5.5,0,0,1,.5-.49h0a.4954.4954,0,0,1,.5.5h0a.5009.5009,0,0,1-.5.5h0A.5095.5095,0,0,1,322.25,131.721Zm2.93-.37a.4839.4839,0,0,1,.27-.6494h0a.4873.4873,0,0,1,.6494.2695h0a.4966.4966,0,0,1-.2695.65h0a.4312.4312,0,0,1-.1905.04h0A.4984.4984,0,0,1,325.18,131.3509Zm-5.5.2607v.01a.4994.4994,0,0,1-.27-.66h0a.4953.4953,0,0,1,.6494-.2695h0a.4918.4918,0,0,1,.2705.6494h0a.4944.4944,0,0,1-.46.3106h0A.4453.4453,0,0,1,319.68,131.6116Zm3.07-.3906h.01a.01.01,0,0,0-.01.01h0Zm4.9795-1.34a.5144.5144,0,0,1,0-.71h0a.5034.5034,0,0,1,.71.01h0a.4917.4917,0,0,1,0,.7h0a.5029.5029,0,0,1-.35.15h0A.5117.5117,0,0,1,327.73,129.8812Zm-10.66-.01h0a.5146.5146,0,0,1,0-.71h0a.5139.5139,0,0,1,.711,0h0a.5146.5146,0,0,1,0,.71h0a.4886.4886,0,0,1-.3506.1494h0A.5106.5106,0,0,1,317.0693,129.8714Zm12.4707-2.32a.4919.4919,0,0,1-.2705-.6494h0a.4884.4884,0,0,1,.65-.27h0a.4885.4885,0,0,1,.27.65h0a.5093.5093,0,0,1-.46.3095h0A.4009.4009,0,0,1,329.54,127.5511Z"/><path class="cls-5" d="M330.31,124.681a.4007.4007,0,0,1-.19-.04.4406.4406,0,0,1-.17-.1093.4485.4485,0,0,1-.1006-.16.4043.4043,0,0,1-.04-.19.4957.4957,0,0,1,.1406-.35.5045.5045,0,0,1,.8594.35.4044.4044,0,0,1-.04.19.3548.3548,0,0,1-.1093.16A.4728.4728,0,0,1,330.31,124.681Z"/><path class="cls-5" d="M300.13,120.1312a.6348.6348,0,0,1-.2-.04.5639.5639,0,0,1-.16-.11.5088.5088,0,0,1-.1494-.35.5178.5178,0,0,1,.1494-.36.9291.9291,0,0,1,.16-.1094.5267.5267,0,0,1,.39,0,.8921.8921,0,0,1,.16.1094.528.528,0,0,1,.1406.36.5.5,0,0,1-.1406.35A.5239.5239,0,0,1,300.13,120.1312Z"/><path class="cls-5" d="M300.55,117.0814a.4984.4984,0,0,1-.26-.66h0a.5027.5027,0,0,1,.66-.26h0a.4993.4993,0,0,1,.25.66h0a.4876.4876,0,0,1-.45.3h0A.4439.4439,0,0,1,300.55,117.0814Z"/><path class="cls-5" d="M314.45,117.7015h0a.4989.4989,0,0,1,.34-.61h0a.49.49,0,0,1,.62.34h0a.5008.5008,0,0,1-.3409.62h0a.6862.6862,0,0,1-.14.02h0A.501.501,0,0,1,314.45,117.7015Zm-1.33-2.54a.4962.4962,0,0,1,.08-.7h0a.5034.5034,0,0,1,.6992.07h0a.5158.5158,0,0,1-.0693.71h0a.5674.5674,0,0,1-.32.1094h0A.4905.4905,0,0,1,313.12,115.1614Zm-10.9707-.7a.4958.4958,0,0,1,.03-.71h0a.4927.4927,0,0,1,.7.0195h0a.5046.5046,0,0,1-.0205.71h0a.497.497,0,0,1-.34.1308h0A.517.517,0,0,1,302.1494,114.4612Zm8.75-1.1a.49.49,0,0,1-.21-.67h0a.4964.4964,0,0,1,.67-.2207h0a.5068.5068,0,0,1,.21.6807h0a.4975.4975,0,0,1-.4394.2695h0A.4655.4655,0,0,1,310.8994,113.3616Zm-6.2392-.6806a.4944.4944,0,0,1,.31-.63h0v-.01h0a.51.51,0,0,1,.64.31h0a.51.51,0,0,1-.31.6406h0a.4518.4518,0,0,1-.16.0195h0A.5041.5041,0,0,1,304.66,112.681Zm3.4794-.09h0a.4892.4892,0,0,1-.46-.53h0a.4893.4893,0,0,1,.53-.46h0a.49.49,0,0,1,.46.53h0a.496.496,0,0,1-.5.47h0A.0379.0379,0,0,1,308.14,112.5911Z"/><path class="cls-5" d="M315.22,121.1614a.4913.4913,0,0,1-.36-.15.64.64,0,0,1-.1094-.16.5671.5671,0,0,1-.03-.1895.6162.6162,0,0,1,.03-.19.657.657,0,0,1,.1094-.16.4227.4227,0,0,1,.16-.1094.5068.5068,0,0,1,.55.1094.4553.4553,0,0,1,.11.16.6331.6331,0,0,1,.04.19.57.57,0,0,1-.04.1895.4473.4473,0,0,1-.11.16A.4663.4663,0,0,1,315.22,121.1614Z"/><path class="cls-5" d="M285.02,121.1009a.4847.4847,0,0,1-.35-.1494.4685.4685,0,0,1-.11-.16.599.599,0,0,1-.04-.19.5055.5055,0,0,1,1.0108,0,.599.599,0,0,1-.04.19.4685.4685,0,0,1-.11.16A.4911.4911,0,0,1,285.02,121.1009Z"/><path class="cls-5" d="M284.52,123.1712a.504.504,0,0,1,.5108-.5h0a.4925.4925,0,0,1,.4892.5h0a.4925.4925,0,0,1-.4892.5h0A.504.504,0,0,1,284.52,123.1712Z"/><path class="cls-5" d="M289.8594,131.761a.5007.5007,0,0,1-.3-.64h0a.5007.5007,0,0,1,.6406-.3h0a.5008.5008,0,0,1,.3.64h0a.4959.4959,0,0,1-.47.33h0A.5419.5419,0,0,1,289.8594,131.761Zm-2.3692-1.34a.5038.5038,0,0,1-.07-.7h0a.4962.4962,0,0,1,.7-.08h0a.509.509,0,0,1,.08.71h0a.5141.5141,0,0,1-.3906.1807h0A.4791.4791,0,0,1,287.49,130.4212Zm-1.79-2.05a.4936.4936,0,0,1,.17-.69h0a.4931.4931,0,0,1,.68.17h0a.5131.5131,0,0,1-.16.69h0a.6718.6718,0,0,1-.26.07h0A.5084.5084,0,0,1,285.7,128.3714Zm-1.0107-2.54H284.7a.4916.4916,0,0,1,.38-.59h0a.4944.4944,0,0,1,.59.39h0a.4883.4883,0,0,1-.38.59h0a.4205.4205,0,0,1-.11.01h0A.5015.5015,0,0,1,284.69,125.8314Z"/><path class="cls-5" d="M292.5693,132.2308a.4544.4544,0,0,1-.35-.1494.4708.4708,0,0,1-.15-.3506.5077.5077,0,0,1,.15-.3594.5221.5221,0,0,1,.7,0,.5512.5512,0,0,1,.1494.3594.51.51,0,0,1-.5.5Z"/><path class="cls-5" d="M292.5713,132.2288a.5.5,0,1,1-.0029-1h.0029a.5.5,0,0,1,0,1Z"/><path class="cls-5" d="M294.78,131.4212a.5025.5025,0,0,1,.289-.65h0a.5031.5031,0,0,1,.65.29h0a.4889.4889,0,0,1-.29.6406v.01a.5763.5763,0,0,1-.18.03h0A.5048.5048,0,0,1,294.78,131.4212Z"/><path class="cls-5" d="M297.2,130.1614a.5049.5049,0,0,1,.05-.71h0a.4933.4933,0,0,1,.7.05h0a.5033.5033,0,0,1-.04.7h0a.4984.4984,0,0,1-.33.13h0A.517.517,0,0,1,297.2,130.1614Zm1.8193-2.03a.4988.4988,0,0,1-.21-.67h0a.4991.4991,0,0,1,.6806-.21h0a.496.496,0,0,1,.21.67h0a.5161.5161,0,0,1-.45.27h0A.5278.5278,0,0,1,299.02,128.1312Zm.9805-2.54a.4928.4928,0,0,1-.4307-.5595h0v.01h0a.4893.4893,0,0,1,.5508-.44h0a.496.496,0,0,1,.44.5508v.01a.5055.5055,0,0,1-.5.4395h0C300.04,125.6009,300.02,125.5911,300,125.5911Zm-.38-3.23a.5009.5009,0,0,1,.5-.5h0a.5081.5081,0,0,1,.5.5h0a.5022.5022,0,0,1-.5.5h0A.4954.4954,0,0,1,299.62,122.3616Z"/><path class="cls-5" d="M300.12,120.1214a.5725.5725,0,0,1-.19-.03.4551.4551,0,0,1-.16-.11.4693.4693,0,0,1-.1494-.35.4789.4789,0,0,1,.1494-.36.6624.6624,0,0,1,.16-.1094.5017.5017,0,0,1,.38,0,.6427.6427,0,0,1,.16.1094.6032.6032,0,0,1,.11.16.4965.4965,0,0,1,0,.3906.4269.4269,0,0,1-.11.1592A.4957.4957,0,0,1,300.12,120.1214Z"/><path class="cls-5" d="M269.93,120.1214a.6779.6779,0,0,1-.2-.03.5322.5322,0,0,1-.2695-.2695.6162.6162,0,0,1-.03-.19.51.51,0,0,1,.14-.36.5362.5362,0,0,1,.711,0,.5178.5178,0,0,1,.1494.36.5088.5088,0,0,1-.1494.35A.5.5,0,0,1,269.93,120.1214Z"/><path class="cls-5" d="M270.35,117.0814a.4984.4984,0,0,1-.26-.66h0a.5033.5033,0,0,1,.66-.26h0a.5027.5027,0,0,1,.26.66h0a.5.5,0,0,1-.46.3h0A.4467.4467,0,0,1,270.35,117.0814Z"/><path class="cls-5" d="M284.25,117.7015h0a.4969.4969,0,0,1,.35-.61h0a.4837.4837,0,0,1,.61.34h.01a.5067.5067,0,0,1-.35.62h0a.7176.7176,0,0,1-.13.02h0A.5127.5127,0,0,1,284.25,117.7015Zm-1.32-2.54a.4873.4873,0,0,1,.07-.7h0a.5048.5048,0,0,1,.7.07h0a.5026.5026,0,0,1-.07.6992h0a.49.49,0,0,1-.32.12h0A.5035.5035,0,0,1,282.93,115.1614Zm-10.98-.7a.4949.4949,0,0,1,.0293-.71h0a.4927.4927,0,0,1,.7.0195h0a.5045.5045,0,0,1-.02.71h0a.501.501,0,0,1-.3409.1308h0A.53.53,0,0,1,271.95,114.4612Zm8.75-1.1a.4892.4892,0,0,1-.21-.67h0a.4962.4962,0,0,1,.67-.2207h0a.5113.5113,0,0,1,.22.6807h0a.5141.5141,0,0,1-.45.2695h0A.49.49,0,0,1,280.7,113.3616Zm-6.2305-.6806a.4967.4967,0,0,1,.3-.64h0a.5071.5071,0,0,1,.6407.31h0a.5115.5115,0,0,1-.3106.6406h0a.4491.4491,0,0,1-.16.0195h0A.4831.4831,0,0,1,274.47,112.681Zm3.47-.09a.4892.4892,0,0,1-.46-.53h0a.49.49,0,0,1,.53-.46h0a.5026.5026,0,0,1,.47.53h0a.5091.5091,0,0,1-.5.47h0A.0623.0623,0,0,1,277.94,112.5911Z"/><path class="cls-5" d="M285.02,121.1614a.5034.5034,0,0,1-.3593-.15.4382.4382,0,0,1-.1006-.16.4131.4131,0,0,1-.04-.1895.5456.5456,0,0,1,.1407-.35.5143.5143,0,0,1,.71,0,.453.453,0,0,1,.1094.16.6331.6331,0,0,1,.04.19.57.57,0,0,1-.04.1895.3738.3738,0,0,1-.1094.16A.4684.4684,0,0,1,285.02,121.1614Z"/><path class="cls-5" d="M262.373,132.2288a.5.5,0,0,1-.0029-1h.0029a.5.5,0,0,1,0,1Z"/><path class="cls-5" d="M264.58,131.4212a.5022.5022,0,0,1,.29-.65h0a.5023.5023,0,0,1,.6494.29h0a.4874.4874,0,0,1-.29.6406v.01a.5763.5763,0,0,1-.18.03h0A.5058.5058,0,0,1,264.58,131.4212Z"/><path class="cls-5" d="M267,130.1614a.5049.5049,0,0,1,.05-.71h0a.4933.4933,0,0,1,.7.05h0a.485.485,0,0,1-.04.7h0a.4791.4791,0,0,1-.33.13h0A.5185.5185,0,0,1,267,130.1614Zm1.8193-2.03a.4988.4988,0,0,1-.21-.67h0v-.01h0a.5044.5044,0,0,1,.6806-.2h0a.4951.4951,0,0,1,.21.67h0a.5116.5116,0,0,1-.44.27h0A.5345.5345,0,0,1,268.8193,128.1312Zm.9805-2.54a.4921.4921,0,0,1-.43-.5595h0a.4872.4872,0,0,1,.55-.4307h0a.4953.4953,0,0,1,.44.5508h0a.4973.4973,0,0,1-.5.4394h-.06Zm-.38-3.23a.5009.5009,0,0,1,.5-.5h0a.508.508,0,0,1,.5.5h0a.5022.5022,0,0,1-.5.5h0A.4954.4954,0,0,1,269.42,122.3616Z"/><path class="cls-5" d="M269.92,120.1312a.5755.5755,0,0,1-.19-.04.4551.4551,0,0,1-.16-.11.4124.4124,0,0,1-.1093-.1592.4312.4312,0,0,1-.04-.19.4451.4451,0,0,1,.04-.2.4231.4231,0,0,1,.1093-.16.5119.5119,0,0,1,.7,0,.4382.4382,0,0,1,.11.16.4729.4729,0,0,1,.04.2.49.49,0,0,1-.15.35.4458.4458,0,0,1-.16.11A.5654.5654,0,0,1,269.92,120.1312Z"/><path class="cls-5" d="M254.83,121.1009a.4062.4062,0,0,1-.19-.04.38.38,0,0,1-.17-.1094.6617.6617,0,0,1-.11-.16.5965.5965,0,0,1-.0293-.19.4328.4328,0,0,1,.14-.35.5127.5127,0,0,1,.71,0,.4587.4587,0,0,1,.11.16.6556.6556,0,0,1,.04.1895.599.599,0,0,1-.04.19.4685.4685,0,0,1-.11.16.41.41,0,0,1-.16.1094A.428.428,0,0,1,254.83,121.1009Z"/><path class="cls-5" d="M254.33,123.1712a.4948.4948,0,0,1,.5-.5h0a.5016.5016,0,0,1,.5.5h0a.5016.5016,0,0,1-.5.5h0A.4948.4948,0,0,1,254.33,123.1712Z"/><path class="cls-5" d="M259.67,131.761h0a.4976.4976,0,0,1-.31-.64h0a.4972.4972,0,0,1,.6406-.3h0a.5059.5059,0,0,1,.31.64h0a.5183.5183,0,0,1-.4795.33h0A.4414.4414,0,0,1,259.67,131.761Zm-2.38-1.34a.5038.5038,0,0,1-.07-.7h0a.497.497,0,0,1,.71-.0693h0a.5026.5026,0,0,1,.07.6992h0a.5141.5141,0,0,1-.3906.1807h0A.4966.4966,0,0,1,257.29,130.4212Zm-1.79-2.05a.5041.5041,0,0,1,.17-.69h0a.4931.4931,0,0,1,.68.17h0a.49.49,0,0,1-.16.6807h0a.4976.4976,0,0,1-.26.08h0A.5084.5084,0,0,1,255.5,128.3714Zm-1-2.54h0a.4917.4917,0,0,1,.38-.59h0a.5091.5091,0,0,1,.6.39h0a.5062.5062,0,0,1-.39.59h0a.3823.3823,0,0,1-.1.01h0A.4849.4849,0,0,1,254.5,125.8314Z"/><path class="cls-5" d="M262.37,132.2308a.6013.6013,0,0,1-.19-.0391.5185.5185,0,0,1-.31-.4609.5067.5067,0,0,1,.1494-.3594.4485.4485,0,0,1,.16-.1006.4922.4922,0,0,1,.54.1006.5077.5077,0,0,1,.15.3594.4708.4708,0,0,1-.15.3506.46.46,0,0,1-.16.11A.5957.5957,0,0,1,262.37,132.2308Z"/><path class="cls-5" d="M239.73,120.1312a.5707.5707,0,0,1-.19-.04.4458.4458,0,0,1-.16-.11.47.47,0,0,1-.15-.35.4589.4589,0,0,1,.04-.2.4382.4382,0,0,1,.11-.16.51.51,0,0,1,.54-.1094.6624.6624,0,0,1,.16.1094.577.577,0,0,1,.1094.16.4464.4464,0,0,1,.04.2.4693.4693,0,0,1-.1494.35A.5076.5076,0,0,1,239.73,120.1312Z"/><path class="cls-5" d="M240.1494,117.0814a.5076.5076,0,0,1-.26-.66h0a.5067.5067,0,0,1,.66-.26h0a.5027.5027,0,0,1,.26.66h0a.5.5,0,0,1-.46.3h0A.4494.4494,0,0,1,240.1494,117.0814Z"/><path class="cls-5" d="M254.06,117.7015h0a.4837.4837,0,0,1,.34-.61h0a.4973.4973,0,0,1,.62.34h0a.5066.5066,0,0,1-.35.62h0a.5963.5963,0,0,1-.13.02h0A.5019.5019,0,0,1,254.06,117.7015Zm-1.33-2.54a.4873.4873,0,0,1,.07-.7h0a.5038.5038,0,0,1,.7.07h0a.5026.5026,0,0,1-.07.6992h0a.4648.4648,0,0,1-.31.12h0A.4791.4791,0,0,1,252.73,115.1614Zm-10.98-.71a.4827.4827,0,0,1,.03-.7h0a.5045.5045,0,0,1,.71.0195h0a.5142.5142,0,0,1-.03.71h0a.4987.4987,0,0,1-.34.1308h0A.4863.4863,0,0,1,241.75,114.4515Zm8.75-1.09a.4984.4984,0,0,1-.21-.67h0a.4992.4992,0,0,1,.67-.2207h0a.5113.5113,0,0,1,.22.6807h0a.5129.5129,0,0,1-.45.2695h0A.49.49,0,0,1,250.5,113.3616Zm-6.2305-.6806a.4826.4826,0,0,1,.3-.63h0v-.01h0a.5067.5067,0,0,1,.6407.31h0a.5026.5026,0,0,1-.3106.6406h0a.4466.4466,0,0,1-.1592.0195h0A.4843.4843,0,0,1,244.27,112.681Zm3.4707-.09a.4879.4879,0,0,1-.46-.53h0a.4946.4946,0,0,1,.5293-.46h0a.4976.4976,0,0,1,.4707.53h0a.51.51,0,0,1-.5.47h0A.075.075,0,0,1,247.74,112.5911Z"/><path class="cls-5" d="M254.8193,121.1614a.4005.4005,0,0,1-.1894-.04.3588.3588,0,0,1-.16-.11.4549.4549,0,0,1-.15-.35.4736.4736,0,0,1,.15-.35.5022.5022,0,0,1,.7,0,.3643.3643,0,0,1,.11.16.4441.4441,0,0,1,.039.19.4541.4541,0,0,1-.1494.35.364.364,0,0,1-.16.11A.4024.4024,0,0,1,254.8193,121.1614Z"/><path class="cls-5" d="M224.63,121.1009a.5106.5106,0,0,1-.36-.1494.5088.5088,0,0,1,0-.7.5081.5081,0,0,1,.55-.11.359.359,0,0,1,.16.11.4827.4827,0,0,1,0,.7.35.35,0,0,1-.16.1094A.4277.4277,0,0,1,224.63,121.1009Z"/><path class="cls-5" d="M224.13,123.1712a.4948.4948,0,0,1,.5-.5h0a.5016.5016,0,0,1,.5.5h0a.5016.5016,0,0,1-.5.5h0A.4948.4948,0,0,1,224.13,123.1712Z"/><path class="cls-5" d="M229.47,131.761a.4922.4922,0,0,1-.3-.64h0a.4963.4963,0,0,1,.64-.3h-.01a.5051.5051,0,0,1,.31.64h0a.5144.5144,0,0,1-.47.33h0A.4554.4554,0,0,1,229.47,131.761Zm-2.38-1.34h.01a.4962.4962,0,0,1-.08-.7h0a.4971.4971,0,0,1,.71-.0693h0a.5025.5025,0,0,1,.07.6992h0a.4976.4976,0,0,1-.39.1807h0A.4975.4975,0,0,1,227.09,130.4212Zm-1.79-2.05h0a.5028.5028,0,0,1,.17-.69h0a.5079.5079,0,0,1,.6905.17h0a.4944.4944,0,0,1-.17.6807h0a.5.5,0,0,1-.2607.08h0A.5212.5212,0,0,1,225.3,128.3714Zm-1-2.54a.5.5,0,0,1,.39-.59h0a.5051.5051,0,0,1,.5908.39h0a.5018.5018,0,0,1-.3907.59h0a.3472.3472,0,0,1-.1.01h0A.4923.4923,0,0,1,224.3,125.8314Z"/><path class="cls-5" d="M232.17,132.2308a.5129.5129,0,0,1-.3506-.1494.47.47,0,0,1-.1494-.3506.5039.5039,0,0,1,.6895-.47.6449.6449,0,0,1,.16.11.4724.4724,0,0,1,.15.3594.4672.4672,0,0,1-.15.3506A.49.49,0,0,1,232.17,132.2308Z"/><path class="cls-5" d="M232.1748,132.2288a.5.5,0,1,1-.0029-1h.0029a.5.5,0,0,1,0,1Z"/><path class="cls-5" d="M234.39,131.4212a.5038.5038,0,0,1,.29-.65h0a.4952.4952,0,0,1,.64.29h0a.4877.4877,0,0,1-.289.6406v.01a.5377.5377,0,0,1-.1807.03h0A.4839.4839,0,0,1,234.39,131.4212Z"/><path class="cls-5" d="M236.81,130.1614a.4963.4963,0,0,1,.04-.71h0a.505.505,0,0,1,.71.05h0a.4935.4935,0,0,1-.05.7h0a.461.461,0,0,1-.33.13h0A.4824.4824,0,0,1,236.81,130.1614Zm1.82-2.03a.5015.5015,0,0,1-.22-.67h0a.4979.4979,0,0,1,.68-.21h0a.4951.4951,0,0,1,.21.67h0a.499.499,0,0,1-.44.27h0A.4665.4665,0,0,1,238.63,128.1312Zm.97-2.54a.4989.4989,0,0,1-.43-.5595h0a.4922.4922,0,0,1,.56-.4307h0a.4887.4887,0,0,1,.4307.5508h0a.4887.4887,0,0,1-.49.4394h-.07Zm-.38-3.23a.5081.5081,0,0,1,.5-.5h0a.5009.5009,0,0,1,.5.5h0a.4954.4954,0,0,1-.5.5h0A.5022.5022,0,0,1,239.22,122.3616Z"/><path class="cls-5" d="M239.72,120.1214a.5624.5624,0,0,1-.1894-.03.55.55,0,0,1-.16-.11.4666.4666,0,0,1-.15-.35.4761.4761,0,0,1,.15-.36.5134.5134,0,0,1,.54-.1094.6362.6362,0,0,1,.1591.1094.4152.4152,0,0,1,.11.16.4729.4729,0,0,1,.04.2.4311.4311,0,0,1-.04.19.405.405,0,0,1-.11.1592A.4957.4957,0,0,1,239.72,120.1214Z"/><path class="cls-5" d="M209.54,120.0511a.5106.5106,0,0,1-.5-.5.59.59,0,0,1,.0293-.19.4826.4826,0,0,1,.12-.16.5.5,0,0,1,.7,0,.4589.4589,0,0,1,.11.16.5909.5909,0,0,1,.04.19.6017.6017,0,0,1-.04.19.4687.4687,0,0,1-.11.16A.4847.4847,0,0,1,209.54,120.0511Z"/><path class="cls-5" d="M209.96,117.0013a.4955.4955,0,0,1-.26-.65h0a.4969.4969,0,0,1,.6592-.26h0a.4935.4935,0,0,1,.2607.65h0a.5008.5008,0,0,1-.46.3h0A.4726.4726,0,0,1,209.96,117.0013Z"/><path class="cls-5" d="M223.8594,117.6312h0a.5077.5077,0,0,1,.3506-.62h0a.5014.5014,0,0,1,.62.34h0v.0107h0a.496.496,0,0,1-.3506.6094h0a.2884.2884,0,0,1-.13.02h0A.5144.5144,0,0,1,223.8594,117.6312Zm-1.3194-2.54a.4939.4939,0,0,1,.0694-.7h0a.4865.4865,0,0,1,.7.07h0a.4939.4939,0,0,1-.0694.7h0a.4556.4556,0,0,1-.31.1094h0A.4968.4968,0,0,1,222.54,115.0911Zm-10.9707-.71a.5046.5046,0,0,1,.02-.71h0a.4928.4928,0,0,1,.7.03h0a.4927.4927,0,0,1-.02.7h0a.4933.4933,0,0,1-.34.14h0A.5051.5051,0,0,1,211.5693,114.3812Zm8.74-1.1v.01a.5065.5065,0,0,1-.21-.68h0a.4972.4972,0,0,1,.67-.21h0a.5.5,0,0,1,.2207.67h0a.5152.5152,0,0,1-.45.2695h0A.5248.5248,0,0,1,220.31,113.2816Zm-6.23-.67a.4929.4929,0,0,1,.3-.6406h0a.5008.5008,0,0,1,.64.3h0a.5014.5014,0,0,1-.3.6406h0a.5659.5659,0,0,1-.17.03h0A.4961.4961,0,0,1,214.08,112.6116Zm3.48-.0908h0a.501.501,0,0,1-.47-.5293h0a.4963.4963,0,0,1,.53-.4707h0a.51.51,0,0,1,.47.53h0a.5022.5022,0,0,1-.5.47h-.03Z"/><path class="cls-5" d="M224.63,121.0911a.508.508,0,0,1-.35-.1494.4857.4857,0,0,1-.15-.3506.4913.4913,0,0,1,.15-.36.5078.5078,0,0,1,.539-.1094.6664.6664,0,0,1,.16.1094.476.476,0,0,1,.15.36.4857.4857,0,0,1-.15.3506A.5081.5081,0,0,1,224.63,121.0911Z"/><path class="cls-5" d="M201.9834,132.1536a.4793.4793,0,0,1-.11-.0127.5006.5006,0,0,1-.3916-.4883.5132.5132,0,0,1,.6944-.4609.5.5,0,0,1-.1924.9619Z"/><path class="cls-5" d="M204.2,131.3411a.4866.4866,0,0,1,.29-.64h0a.4937.4937,0,0,1,.64.29h0a.4953.4953,0,0,1-.29.64h0a.5506.5506,0,0,1-.18.03h0A.4828.4828,0,0,1,204.2,131.3411Z"/><path class="cls-5" d="M206.62,130.0911a.495.495,0,0,1,.04-.71h0a.5011.5011,0,0,1,.6992.04h0a.4828.4828,0,0,1-.04.7v.01a.496.496,0,0,1-.3291.12h0A.483.483,0,0,1,206.62,130.0911Zm1.8194-2.03a.5129.5129,0,0,1-.22-.68h0a.5094.5094,0,0,1,.68-.21h0a.4974.4974,0,0,1,.21.68h0a.4894.4894,0,0,1-.4395.2607h0A.5929.5929,0,0,1,208.44,128.0609Zm.98-2.55a.4961.4961,0,0,1-.44-.55h0a.4966.4966,0,0,1,.5508-.44h0a.493.493,0,0,1,.4394.5606h0a.5061.5061,0,0,1-.5.4394h0A.076.076,0,0,1,209.42,125.511Zm-.39-3.22a.4948.4948,0,0,1,.5-.5h0a.4954.4954,0,0,1,.5.5h0a.5022.5022,0,0,1-.5.5h0A.5015.5015,0,0,1,209.03,122.2913Z"/><path class="cls-5" d="M209.53,120.0511a.4025.4025,0,0,1-.1905-.04.416.416,0,0,1-.16-.1093.3651.3651,0,0,1-.11-.16.4162.4162,0,0,1-.039-.19.41.41,0,0,1,.039-.19.3593.3593,0,0,1,.11-.16.5.5,0,0,1,.7,0,.3591.3591,0,0,1,.11.16.4107.4107,0,0,1,.04.19.4169.4169,0,0,1-.04.19.3649.3649,0,0,1-.11.16.35.35,0,0,1-.16.1093A.4.4,0,0,1,209.53,120.0511Z"/><path class="cls-5" d="M194.44,121.0208a.5445.5445,0,0,1-.36-.14.5233.5233,0,0,1-.14-.36.4265.4265,0,0,1,.04-.1894.5349.5349,0,0,1,.1-.16.5239.5239,0,0,1,.71,0,.4154.4154,0,0,1,.11.16.4333.4333,0,0,1,.04.1894.4494.4494,0,0,1-.04.2.4154.4154,0,0,1-.11.16.5883.5883,0,0,1-.16.11A.6428.6428,0,0,1,194.44,121.0208Z"/><path class="cls-5" d="M193.94,123.0911a.4934.4934,0,0,1,.5-.49h0a.4936.4936,0,0,1,.5.49h0a.5034.5034,0,0,1-.5.51h0A.5032.5032,0,0,1,193.94,123.0911Z"/><path class="cls-5" d="M199.28,131.6917v-.0107a.4822.4822,0,0,1-.3-.63h0a.498.498,0,0,1,.64-.31h0a.5007.5007,0,0,1,.3.64h0a.5016.5016,0,0,1-.47.34h0A.5187.5187,0,0,1,199.28,131.6917Zm-2.38-1.3408a.5157.5157,0,0,1-.07-.71h0a.5163.5163,0,0,1,.71-.0693h0a.5025.5025,0,0,1,.07.6992h0a.5084.5084,0,0,1-.39.19h0A.56.56,0,0,1,196.9,130.3509Zm-1.79-2.06h0a.4921.4921,0,0,1,.17-.68h0a.5012.5012,0,0,1,.69.1592h0a.5021.5021,0,0,1-.17.69h0a.4865.4865,0,0,1-.26.07h0A.497.497,0,0,1,195.11,128.2913Zm-1-2.53h0a.4947.4947,0,0,1,.39-.59h0a.4935.4935,0,0,1,.59.38h0a.5019.5019,0,0,1-.39.59h0a.3278.3278,0,0,1-.1.02h0A.5108.5108,0,0,1,194.11,125.761Z"/><path class="cls-5" d="M201.98,132.1517a.47.47,0,0,1-.35-.15.4552.4552,0,0,1-.15-.35.47.47,0,0,1,.15-.3506.5023.5023,0,0,1,.7,0,.47.47,0,0,1,.1494.3506.4544.4544,0,0,1-.1494.35.3649.3649,0,0,1-.16.11A.4169.4169,0,0,1,201.98,132.1517Z"/><path class="cls-5" d="M179.34,120.0511a.47.47,0,0,1-.35-.1494.36.36,0,0,1-.11-.16.4044.4044,0,0,1-.04-.19.3984.3984,0,0,1,.04-.19.3541.3541,0,0,1,.11-.16.5.5,0,0,1,.7,0,.3543.3543,0,0,1,.11.16.4044.4044,0,0,1,.04.19.5114.5114,0,0,1-.5.5Z"/><path class="cls-5" d="M179.76,117.0013a.5033.5033,0,0,1-.26-.66h0v.01h0a.5008.5008,0,0,1,.66-.26h0a.4847.4847,0,0,1,.26.65h0a.49.49,0,0,1-.46.3h0A.5032.5032,0,0,1,179.76,117.0013Z"/><path class="cls-5" d="M193.67,117.6312a.5014.5014,0,0,1,.34-.62h0a.5012.5012,0,0,1,.62.34h0a.5043.5043,0,0,1-.34.62h0a.8129.8129,0,0,1-.14.02h0A.4927.4927,0,0,1,193.67,117.6312Zm-1.33-2.54a.5028.5028,0,0,1,.07-.7h0a.4978.4978,0,0,1,.71.07h0v-.01h0a.5152.5152,0,0,1-.07.71h0a.5659.5659,0,0,1-.32.1094h0A.4971.4971,0,0,1,192.34,115.0911Zm-10.97-.71a.5046.5046,0,0,1,.02-.71h0a.4954.4954,0,0,1,.71.03h0a.4839.4839,0,0,1-.03.7h0a.4942.4942,0,0,1-.34.14h0A.5208.5208,0,0,1,181.37,114.3812Zm8.75-1.09v-.01a.4961.4961,0,0,1-.22-.67h0a.5056.5056,0,0,1,.68-.21h0a.4924.4924,0,0,1,.21.67h0a.514.514,0,0,1-.45.2695h0A.5822.5822,0,0,1,190.12,113.2913Zm-6.24-.68a.5015.5015,0,0,1,.3-.6406h0a.4933.4933,0,0,1,.64.3h0a.4932.4932,0,0,1-.3.6406h0a.52.52,0,0,1-.17.03h0A.5066.5066,0,0,1,183.88,112.6116Zm3.48-.0908a.5011.5011,0,0,1-.47-.5293h0a.5027.5027,0,0,1,.53-.4707h0a.5024.5024,0,0,1,.47.53h0a.5015.5015,0,0,1-.5.47h-.03Z"/><path class="cls-5" d="M194.43,121.0911a.63.63,0,0,1-.19-.04.585.585,0,0,1-.16-.1094.4732.4732,0,0,1-.15-.3506.5178.5178,0,0,1,.15-.36.5355.5355,0,0,1,.71,0,.5093.5093,0,0,1,.14.36.5208.5208,0,0,1-.14.3506A.534.534,0,0,1,194.43,121.0911Z"/><path class="cls-5" d="M164.24,121.0208a.5966.5966,0,0,1-.19-.0293.5873.5873,0,0,1-.16-.11.4151.4151,0,0,1-.11-.16.4494.4494,0,0,1-.04-.2.5089.5089,0,0,1,.15-.35.5006.5006,0,0,1,.7,0,.4154.4154,0,0,1,.11.16.4264.4264,0,0,1,.04.1894.4426.4426,0,0,1-.04.2.4154.4154,0,0,1-.11.16.4647.4647,0,0,1-.16.11A.5945.5945,0,0,1,164.24,121.0208Z"/><path class="cls-5" d="M163.74,123.0911a.5.5,0,0,1,.5-.49h0a.4933.4933,0,0,1,.5.49h0a.5031.5031,0,0,1-.5.51h0A.51.51,0,0,1,163.74,123.0911Z"/><path class="cls-5" d="M169.08,131.6917v-.0107a.49.49,0,0,1-.3-.63h0a.4984.4984,0,0,1,.64-.31h0a.5.5,0,0,1,.3.64h0a.501.501,0,0,1-.47.34h0A.5216.5216,0,0,1,169.08,131.6917Zm-2.37-1.3408a.4975.4975,0,0,1-.07-.71h0a.5038.5038,0,0,1,.7-.0693h0a.4932.4932,0,0,1,.07.6992h0a.5067.5067,0,0,1-.39.19h0A.5073.5073,0,0,1,166.71,130.3509Zm-1.8-2.06h0a.4925.4925,0,0,1,.17-.68h0a.5018.5018,0,0,1,.69.1592h0a.5026.5026,0,0,1-.17.69h0a.4853.4853,0,0,1-.26.07h0A.4976.4976,0,0,1,164.91,128.2913Zm-1-2.53a.4947.4947,0,0,1,.39-.59h0a.4935.4935,0,0,1,.59.38h0a.4939.4939,0,0,1-.39.59h0a.3339.3339,0,0,1-.1.02h0A.5118.5118,0,0,1,163.91,125.761Z"/><path class="cls-5" d="M171.78,132.1517a.4718.4718,0,0,1-.35-.15.4909.4909,0,0,1-.15-.35.5089.5089,0,0,1,.15-.3506.4163.4163,0,0,1,.16-.1094.5069.5069,0,0,1,.55.1094.4977.4977,0,0,1,.14.3506.4808.4808,0,0,1-.14.35A.4916.4916,0,0,1,171.78,132.1517Z"/><circle class="cls-5" cx="171.7852" cy="131.6526" r="0.5"/><path class="cls-5" d="M174,131.3411a.4874.4874,0,0,1,.29-.64h0a.49.49,0,0,1,.64.2793h0a.5023.5023,0,0,1-.29.65h0a.5506.5506,0,0,1-.18.03h0A.4833.4833,0,0,1,174,131.3411Z"/><path class="cls-5" d="M176.42,130.0911a.504.504,0,0,1,.04-.71h0a.5143.5143,0,0,1,.71.04h0a.4936.4936,0,0,1-.05.7l.01.01a.5438.5438,0,0,1-.34.12h0A.4844.4844,0,0,1,176.42,130.0911Zm1.82-2.03a.5006.5006,0,0,1-.21-.68h0a.4979.4979,0,0,1,.67-.21h0a.4978.4978,0,0,1,.21.68h0a.49.49,0,0,1-.44.2607h0A.5914.5914,0,0,1,178.24,128.0609Zm.98-2.55a.4957.4957,0,0,1-.44-.55h0a.5.5,0,0,1,.56-.44h0a.5066.5066,0,0,1,.44.5606h0a.5137.5137,0,0,1-.5.4394h0A.13.13,0,0,1,179.22,125.511Zm-.39-3.22a.5016.5016,0,0,1,.5-.5h0a.4948.4948,0,0,1,.5.5h0a.5015.5015,0,0,1-.5.5h0A.5087.5087,0,0,1,178.83,122.2913Z"/><path class="cls-5" d="M179.33,120.0511a.4307.4307,0,0,1-.19-.04.4108.4108,0,0,1-.16-.1093.4633.4633,0,0,1-.11-.16.5883.5883,0,0,1-.04-.19.5779.5779,0,0,1,.04-.19.4537.4537,0,0,1,.11-.16.4934.4934,0,0,1,.54-.11.4669.4669,0,0,1,.17.11.4307.4307,0,0,1,.1.16.4042.4042,0,0,1,.04.19.5855.5855,0,0,1-.03.19.647.647,0,0,1-.11.16A.4926.4926,0,0,1,179.33,120.0511Z"/><path class="cls-3" d="M350.8281,139.4827c.3692,0,1.001.0616,1.4629.0616.3389,0,.708-.0313,1.0313-.0313.2158,0,.3076.0469.3076.1084,0,.0771-.0918.123-.2764.1533-.4316.0772-.4316.2617-.3232.5391.6465,1.6015,2.1709,4.8808,3.2177,7.19.0459.1074.1075.0772.1534,0,.4316-.8779.8007-1.6474,1.2168-2.6328a.43.43,0,0,0,.03-.1846c-.2461-.5849-1.2773-2.9258-1.6162-3.665-.4463-.9541-.5693-1.1387-1.0468-1.2617-.2461-.0469-.3233-.1084-.3233-.1856,0-.0459.0918-.0918.292-.0918.4473,0,.7393.0616,1.2939.0616s.9082-.0616,1.2618-.0616c.1543,0,.2617.03.2617.0918,0,.0772-.0918.124-.292.17-.416.0772-.5693.2618-.3389.8311.2461.6465.708,1.6934,1.2168,2.8643.0147.03.0762.0459.1231-.0313.3691-.7539.6924-1.4629,1.0156-2.2168.4775-1.124.4619-1.2783-.2-1.4316-.2773-.0616-.3232-.1231-.3232-.1856,0-.0459.0927-.0761.2773-.0761.3848,0,.6309.0459,1.0312.0459.5391,0,.7852-.0616,1.14-.0616.1846,0,.2617.0157.2617.0772,0,.0771-.0771.123-.293.1689-.5693.1231-.8623.4463-1.37,1.34-.4.7695-1.1543,2.2939-1.416,2.7714a.2654.2654,0,0,0,.0156.1846c.3848.9082,1.0616,2.3711,1.585,3.5254.0615.1074.1084.0772.1387,0,.7392-1.6016,2.6025-5.9121,2.9258-7.0517.0771-.3379.0615-.6-.4463-.754-.2471-.0771-.3389-.1074-.3389-.17s.0459-.0918.2617-.0918c.4,0,.6153.0616,1.0772.0616.4316,0,.8466-.0616,1.124-.0616.2,0,.2773.0157.2773.0772s-.0771.123-.3545.1689c-.6464.17-.9238.4932-1.8935,2.6787-.97,2.125-2.2168,5.0352-2.9248,6.7285-.1084.2618-.1543.3545-.2315.3545-.1074,0-.1689-.1084-.2617-.3545-.3232-.9394-1.2-2.8486-1.6474-3.8339-.03-.0616-.0772-.0616-.1075-.0147-.5849,1.1387-1.4013,2.94-1.74,3.833-.0918.2461-.1846.37-.2461.37-.0918,0-.123-.0927-.2305-.37-.2-.5078-.6777-1.6318-.8779-2.0937-.8467-1.9551-1.8779-4.2334-2.6016-5.7432-.5546-1.2-.6777-1.4775-1.2626-1.5547-.1846-.0156-.3233-.0771-.3233-.1387C350.5205,139.5443,350.6279,139.4827,350.8281,139.4827Z"/><path class="cls-3" d="M367.0742,144.2864a3.735,3.735,0,0,1,.2149,1.4c0,.57-.0459,2.0323-.0459,2.4326a.528.528,0,0,0,.5693.586.9921.9921,0,0,0,.4473-.1387c.0918-.0469.1533,0,.0918.1387a1.2972,1.2972,0,0,1-1.1856.6611,1.0333,1.0333,0,0,1-.9082-.6924.0533.0533,0,0,0-.0771-.0156,2.1536,2.1536,0,0,1-1.5088.6934,1.2776,1.2776,0,0,1-1.2315-1.3243,1.0869,1.0869,0,0,1,.5537-.8779c.37-.2,1.7715-.6152,2.0948-.7392a.2908.2908,0,0,0,.2-.2305,5.3218,5.3218,0,0,0,.03-.708c0-.6319-.1074-1.0625-.3691-1.2627a1.17,1.17,0,0,0-.6465-.2461,1.059,1.059,0,0,0-.6162.1846.6183.6183,0,0,0-.2314.3691,1.6643,1.6643,0,0,0-.0147.293.1935.1935,0,0,1-.0615.123,3.3558,3.3558,0,0,1-.7237.3389c-.0771.0156-.1542-.0772-.1542-.1387,0-.1074.1074-.2461.2929-.4619a3.9927,3.9927,0,0,1,1.17-.8936,2.0647,2.0647,0,0,1,.9239-.2763A1.2622,1.2622,0,0,1,367.0742,144.2864ZM366.042,148.52a.6391.6391,0,0,0,.17-.3691,11.0837,11.0837,0,0,0,.0772-1.4629c0-.0156-.0313-.0918-.0625-.0771a8.7652,8.7652,0,0,0-1.4161.5234.798.798,0,0,0-.3847.77.8944.8944,0,0,0,.9238.8623A1.0527,1.0527,0,0,0,366.042,148.52Z"/><path class="cls-3" d="M369.3994,148.6282a1.7355,1.7355,0,0,1-.1846-.8779v-3.1865c0-.17-.0156-.2774-.0771-.3086a2.5385,2.5385,0,0,0-.3691-.0918c-.1231-.0313-.2-.0772-.2-.1387,0-.0312.0156-.0771.1845-.1543a3.2759,3.2759,0,0,0,1.2627-1.0312c.1387-.1543.2461-.1231.2461-.0459,0,.1377-.03.5693-.0146.7539,0,.0459.0146.1387.0761.1387.2774,0,1.5557-.0459,1.8789-.0459.03,0,.0918.1074.0918.2148,0,.2617-.0761.3848-.1533.3848-.539,0-1.2939-.0147-1.709-.0147-.1845,0-.2158.0459-.2158.1387,0,.2617.0156,2.6787.0313,3.1562a1.5777,1.5777,0,0,0,.1689.8311,1.14,1.14,0,0,0,.9541.416,1.5043,1.5043,0,0,0,.8477-.2314c.1074-.0772.1533-.0616.1533,0,0,.0927-.1387.2461-.3389.4a2.1121,2.1121,0,0,1-1.247.4A1.4274,1.4274,0,0,1,369.3994,148.6282Z"/><path class="cls-3" d="M377.4229,145.0716a.1805.1805,0,0,1-.1543.1689c-.1231-.0156-2.125-.0459-2.4786-.0459h-.831c-.0313,0-.1084.0772-.1387.1231a2.1169,2.1169,0,0,0-.123.8467,2.759,2.759,0,0,0,.708,1.8632,2.0769,2.0769,0,0,0,1.539.6309,1.9668,1.9668,0,0,0,1.4629-.4922c.1231-.123.1846-.0928.1846-.0156a.585.585,0,0,1-.1533.2461,2.7218,2.7218,0,0,1-2.1406.97,2.484,2.484,0,0,1-1.8321-.7851,3.0084,3.0084,0,0,1-.7392-2.0625,3.21,3.21,0,0,1,.8935-2.2481,2.8624,2.8624,0,0,1,1.9238-.77A1.7765,1.7765,0,0,1,377.4229,145.0716Zm-3.1407-.7852a1.342,1.342,0,0,0-.3232.6309.0654.0654,0,0,0,.0615.0615l2.001-.0156c.3389,0,.3691-.1689.3691-.3076a.9921.9921,0,0,0-.2148-.6465,1.0779,1.0779,0,0,0-.77-.293A1.5966,1.5966,0,0,0,374.2822,144.2864Z"/><path class="cls-3" d="M380.1494,144.6253a.8858.8858,0,0,0-.2617.5381,9.0235,9.0235,0,0,0-.0156.9394c0,1.14.0312,1.94.0615,2.2637.0615.4766.2471.585.832.6465.2149.03.292.0615.292.1387s-.1387.1074-.3691.1074c-.293,0-.8008-.0615-1.4473-.0615a8.291,8.291,0,0,0-.9394.0927c-.1846,0-.2618-.0312-.2618-.0927,0-.0459.1084-.1231.2315-.1543a.6347.6347,0,0,0,.5537-.6309c.0312-.2617.0469-1.14.0469-2.1553v-1.7089c0-.1084-.1084-.1543-.4-.4-.1084-.0772-.1231-.1231-.1231-.1543s.0918-.0918.2305-.1387a4.68,4.68,0,0,0,.9854-.3691.4849.4849,0,0,1,.2314-.0772c.03,0,.0615.0615.0615.2158,0,.169-.0156.7539-.0156,1.001,0,.0459.03.0615.0771.0147a2.5152,2.5152,0,0,1,1.6622-1.1084.8962.8962,0,0,1,.539.2.269.269,0,0,1,.1084.2158,1.0551,1.0551,0,0,1-.3389.5234c-.1386.1231-.2.1387-.247.1387a.6919.6919,0,0,1-.2764-.1084,1.085,1.085,0,0,0-.5391-.1846A1.0488,1.0488,0,0,0,380.1494,144.6253Z"/><path class="cls-3" d="M361.3525,156.8216a.2723.2723,0,0,1,.1534.2617c-.03.3692.0468,1.0313.0468,1.1856s-.0615.2461-.0927.2461c-.0616,0-.1075-.0772-.1387-.2a2.3958,2.3958,0,0,0-.7393-1.2315,3.5279,3.5279,0,0,0-2.3554-.77,3.7137,3.7137,0,0,0-2.6787,1.2012,5.5581,5.5581,0,0,0-1.17,3.5722,5.8338,5.8338,0,0,0,1.416,3.7256,3.6769,3.6769,0,0,0,2.6329,1.14,3.2629,3.2629,0,0,0,1.832-.4317,2.7547,2.7547,0,0,0,1.1855-1.5088c.0616-.2.0928-.2617.1543-.2617s.0928.1387.0928.2315a11.0192,11.0192,0,0,1-.2158,1.2158.4167.4167,0,0,1-.1543.2314,5.5839,5.5839,0,0,1-3.002.8467,5.3,5.3,0,0,1-4.0029-1.6318,5.3887,5.3887,0,0,1-1.2939-3.4033,4.91,4.91,0,0,1,1.7246-3.8946,5.5341,5.5341,0,0,1,3.5879-1.2783A7.1078,7.1078,0,0,1,361.3525,156.8216Z"/><path class="cls-3" d="M366.251,161.0862a3.7352,3.7352,0,0,1,.2148,1.4c0,.57-.0459,2.0332-.0459,2.4327a.5273.5273,0,0,0,.5694.5849.9883.9883,0,0,0,.4472-.1377c.0918-.0469.1533,0,.0918.1377a1.2958,1.2958,0,0,1-1.1855.6621,1.0331,1.0331,0,0,1-.9082-.6924.0534.0534,0,0,0-.0772-.0156,2.153,2.153,0,0,1-1.5088.6934,1.2776,1.2776,0,0,1-1.2314-1.3242,1.0869,1.0869,0,0,1,.5537-.878c.37-.2,1.7715-.6152,2.0947-.7392a.2906.2906,0,0,0,.2-.23,5.3044,5.3044,0,0,0,.03-.708c0-.6318-.1074-1.0625-.3691-1.2627a1.17,1.17,0,0,0-.6465-.2461,1.0586,1.0586,0,0,0-.6162.1846.6184.6184,0,0,0-.2315.3691,1.6756,1.6756,0,0,0-.0146.293.1936.1936,0,0,1-.0616.123,3.3575,3.3575,0,0,1-.7236.3389c-.0771.0156-.1543-.0772-.1543-.1387,0-.1074.1074-.2461.293-.4619a3.9715,3.9715,0,0,1,1.17-.8926,2.0542,2.0542,0,0,1,.9238-.2773A1.2623,1.2623,0,0,1,366.251,161.0862Zm-1.0322,4.2334a.64.64,0,0,0,.17-.3691,11.0875,11.0875,0,0,0,.0771-1.4629c0-.0156-.0312-.0918-.0625-.0771a8.774,8.774,0,0,0-1.416.5234.7978.7978,0,0,0-.3848.77.8944.8944,0,0,0,.9239.8623A1.0527,1.0527,0,0,0,365.2188,165.32Z"/><path class="cls-3" d="M372.9033,160.8245a3.216,3.216,0,0,1,.4922,2.0166c0,.8164.0156.9395.0156,1.709.0157,1.0469.0616,1.14.4776,1.2471.1386.0615.23.0928.23.1543,0,.0918-.123.1074-.2773.1074-.2,0-.6465-.0615-.9854-.0615-.5234,0-.7236.0615-.9541.0615-.1386,0-.2461-.03-.2461-.0928s.0918-.123.292-.1689c.37-.0928.4317-.2.4317-.6465v-2.0938c0-1.247-.1084-1.6171-.4932-1.9091a1.3684,1.3684,0,0,0-.8769-.293,1.8423,1.8423,0,0,0-1.2012.4932.7934.7934,0,0,0-.1846.4619c0,.1845.0147.97.0147,1.8935a12.5294,12.5294,0,0,0,.0927,1.6162c.0459.3389.2305.4161.4776.4932.1846.0459.2617.0772.2617.1533,0,.0928-.1543.0928-.3086.0928-.123,0-.8769-.0615-1.2314-.0615-.2,0-.5235.0312-.8155.0312-.17,0-.2929-.0312-.2929-.1084,0-.0615.1386-.123.3232-.1533.3848-.0771.4463-.1855.4619-.4932.0313-1.1084.0313-2.5253.0313-3.7724,0-.1533-.0313-.3233-.4-.5235-.0928-.0615-.1231-.0918-.1231-.1377,0-.0312.0762-.0771.2149-.124a5.7383,5.7383,0,0,0,1.2168-.5234c.0459-.0147.123.0469.1074.123a6.8893,6.8893,0,0,0-.03.8164c0,.0313.0459.0772.0762.0459a5.336,5.336,0,0,1,1.0937-.6923,2.0758,2.0758,0,0,1,.9082-.1846A1.5725,1.5725,0,0,1,372.9033,160.8245Z"/><path class="cls-3" d="M378.4014,161.0862a3.7352,3.7352,0,0,1,.2148,1.4c0,.57-.0459,2.0332-.0459,2.4327a.5273.5273,0,0,0,.5693.5849.9883.9883,0,0,0,.4473-.1377c.0918-.0469.1533,0,.0918.1377a1.2958,1.2958,0,0,1-1.1855.6621,1.0331,1.0331,0,0,1-.9082-.6924.0534.0534,0,0,0-.0772-.0156,2.153,2.153,0,0,1-1.5088.6934,1.2776,1.2776,0,0,1-1.2314-1.3242,1.0869,1.0869,0,0,1,.5537-.878c.37-.2,1.7715-.6152,2.0947-.7392a.2906.2906,0,0,0,.2-.23,5.3044,5.3044,0,0,0,.03-.708c0-.6318-.1074-1.0625-.3692-1.2627a1.17,1.17,0,0,0-.6464-.2461,1.0591,1.0591,0,0,0-.6163.1846.6188.6188,0,0,0-.2314.3691,1.6756,1.6756,0,0,0-.0146.293.1936.1936,0,0,1-.0616.123,3.3575,3.3575,0,0,1-.7236.3389c-.0772.0156-.1543-.0772-.1543-.1387,0-.1074.1074-.2461.293-.4619a3.9715,3.9715,0,0,1,1.17-.8926,2.0542,2.0542,0,0,1,.9238-.2773A1.2623,1.2623,0,0,1,378.4014,161.0862Zm-1.0323,4.2334a.6391.6391,0,0,0,.17-.3691,11.0875,11.0875,0,0,0,.0771-1.4629c0-.0156-.0312-.0918-.0625-.0771a8.774,8.774,0,0,0-1.416.5234.7978.7978,0,0,0-.3848.77.8944.8944,0,0,0,.9239.8623A1.0522,1.0522,0,0,0,377.3691,165.32Z"/><path class="cls-3" d="M381.835,162.2562c0,1.9394.0156,2.6631.0312,2.956.0147.416.1074.5235.5381.6006.0928.0156.2.0615.2.1074,0,.0616-.1074.1084-.3076.1084-.2461,0-.8008-.0312-1.0625-.0312-.4,0-.8008.0312-1.0313.0312-.1845,0-.2617-.0156-.2617-.0927s.0772-.0928.2774-.1387c.3847-.0772.4765-.2158.538-.8926.0313-.57.0928-3.1719.1084-5.0195,0-1.2471.0157-2.51,0-3.1866,0-.3388-.0312-.416-.4316-.6621-.1074-.0615-.1533-.0927-.1533-.1386s.0918-.0928.23-.1231a8.034,8.034,0,0,0,1.1553-.3545.64.64,0,0,1,.1846-.0459c.03,0,.0459.0918.0459.169,0,.1074-.0615,2.7715-.0615,5.081Z"/><line class="cls-1" x1="398.2041" y1="111.731" x2="336.7933" y2="111.731"/><line class="cls-1" x1="336.7933" y1="128.6462" x2="398.2041" y2="128.6462"/><line class="cls-1" x1="336.7933" y1="128.6462" x2="398.2041" y2="128.6462"/><polyline class="cls-6" points="361.197 120.562 361.723 121.556 361.146 122.601"/><polyline class="cls-6" points="361.146 122.628 361.671 123.622 361.095 124.667"/><polyline class="cls-6" points="361.249 118.486 361.774 119.48 361.198 120.525"/><polyline class="cls-6" points="358.907 117.786 359.432 118.78 358.856 119.825"/><polyline class="cls-6" points="358.856 119.852 359.381 120.846 358.805 121.891"/><polyline class="cls-6" points="358.959 115.71 359.484 116.704 358.908 117.749"/><polyline class="cls-6" points="366.767 120.562 367.292 121.556 366.716 122.601"/><polyline class="cls-6" points="366.715 122.628 367.241 123.622 366.664 124.667"/><polyline class="cls-6" points="366.819 118.486 367.344 119.48 366.768 120.525"/><polyline class="cls-6" points="364.477 117.786 365.002 118.78 364.426 119.825"/><polyline class="cls-6" points="364.425 119.852 364.95 120.846 364.374 121.891"/><polyline class="cls-6" points="364.528 115.71 365.054 116.704 364.478 117.749"/><polyline class="cls-6" points="372.336 120.562 372.862 121.556 372.285 122.601"/><polyline class="cls-6" points="372.285 122.628 372.81 123.622 372.234 124.667"/><polyline class="cls-6" points="372.388 118.486 372.913 119.48 372.337 120.525"/><polyline class="cls-6" points="370.046 117.786 370.572 118.78 369.995 119.825"/><polyline class="cls-6" points="369.995 119.852 370.52 120.846 369.944 121.891"/><polyline class="cls-6" points="370.098 115.71 370.623 116.704 370.047 117.749"/><polyline class="cls-6" points="375.616 117.786 376.141 118.78 375.565 119.825"/><polyline class="cls-6" points="375.564 119.852 376.089 120.846 375.513 121.891"/><polyline class="cls-6" points="375.667 115.71 376.193 116.704 375.617 117.749"/></svg>