<svg id="Layer_1" data-name="Layer 1" xmlns="http://www.w3.org/2000/svg" viewBox="0 0 399 200"><defs><style>.cls-1{fill:#333838;}.cls-2,.cls-3,.cls-4,.cls-6{fill:none;stroke:#222f3c;}.cls-2,.cls-4{stroke-linecap:round;}.cls-2,.cls-4,.cls-6{stroke-linejoin:round;}.cls-2,.cls-3,.cls-6{stroke-width:0.5px;}.cls-3{stroke-miterlimit:10;}.cls-4{stroke-width:0.25px;}.cls-5{fill:#222f3c;}</style></defs><path class="cls-1" d="M175.439,103.0179c.039.01.1172.1465.1274.1963,0,.1269.0977.8808.0977.9209,0,.1465-.0293.2441-.0879.2441a.3615.3615,0,0,1-.2842-.2344,1.6412,1.6412,0,0,0-.4214-.6963,1.149,1.149,0,0,0-.7837-.2744,1.0192,1.0192,0,0,0-.999,1.02c0,.5781.4311.8916,1.3125,1.4492,1.2051.7353,1.44,1.3623,1.44,1.96a1.74,1.74,0,0,1-.8618,1.4395,2.8987,2.8987,0,0,1-1.3716.3525,3.7134,3.7134,0,0,1-1.4106-.2539.8452.8452,0,0,1-.2549-.2841,5.53,5.53,0,0,1-.1665-1.0489c0-.0683.1079-.2051.1567-.2051.0787,0,.2354.2344.3824.5381a1.56,1.56,0,0,0,1.3613.9014,1.0124,1.0124,0,0,0,1.019-.98c0-.4111-.2055-.8027-1.1069-1.3906-.999-.6563-1.5381-1.1953-1.5381-2.0674a1.6882,1.6882,0,0,1,.5977-1.2832,2.2637,2.2637,0,0,1,1.5576-.4707A6.9854,6.9854,0,0,1,175.439,103.0179Z"/><path class="cls-1" d="M181.8276,103.0081a6.4626,6.4626,0,0,0,.7051.1465c.0689,0,.147.1182.147.2647.01.2744.0293.6171.0493.9013.01.2061-.0591.3721-.167.3721-.0488,0-.1367-.1172-.186-.2647a1.4807,1.4807,0,0,0-.4112-.6953,2.2687,2.2687,0,0,0-1.45-.5683c-1.5576,0-2.2919,1.2343-2.2919,2.7236a3.741,3.741,0,0,0,.333,1.6553,2.43,2.43,0,0,0,2.1943,1.46,2.057,2.057,0,0,0,.95-.2256,2.1991,2.1991,0,0,0,.852-.8906c.1177-.2158.1866-.3037.2647-.3037.1079,0,.1079.2539.0786.3623a4.6029,4.6029,0,0,1-.2939.8516.8054.8054,0,0,1-.3531.3135,5.2188,5.2188,0,0,1-1.7138.2841,3.95,3.95,0,0,1-2.88-1.1064,3.23,3.23,0,0,1-.8228-2.2041,3.1088,3.1088,0,0,1,1.0777-2.3516,4.1451,4.1451,0,0,1,2.645-.8818A5.5384,5.5384,0,0,1,181.8276,103.0081Z"/><path class="cls-1" d="M185.8662,105.81c.666,0,1.96-.0391,2.9878-.0391.0391,0,.0786-.0986.0884-.2451a16.2635,16.2635,0,0,0-.0195-1.6553c-.04-.3525-.0884-.4511-.48-.5586-.1372-.039-.2842-.0976-.2842-.1963,0-.0683.0976-.1269.3232-.1269.1275,0,.8521.0293,1.107.0293.3134,0,.9306-.0391,1.0483-.0391.186,0,.3037.0488.3037.127,0,.0986-.0884.1572-.3135.2158-.353.0781-.4116.2353-.4311.5195-.0493.46-.0786,1.3418-.0786,2.7324,0,.96.0293,1.47.039,1.793.01.3819.1079.4111.5.5391.1763.0586.274.1269.274.2051,0,.1084-.1368.1377-.3135.1377-.1665,0-.6953-.0293-.9893-.0293-.2153,0-.999.0488-1.1948.0488-.2353,0-.3335-.0488-.3335-.1377s.1275-.166.2647-.2051c.48-.1279.5-.206.5488-.9307.0293-.3916.039-1.3125.02-1.5771,0-.0879-.04-.1279-.0786-.1279-.7837,0-2.792-.0293-2.9878-.01a.1965.1965,0,0,0-.1274.1475c-.02.3623,0,1.41.01,1.7236.01.4609.0689.6074.47.7256.206.0586.3432.1367.3432.2441.01.0987-.1865.128-.3135.128-.0688,0-.8818-.0293-1.2246-.0293-.2256,0-.7251.039-1.0581.039-.2549,0-.3428-.0488-.3428-.1279,0-.1074.108-.166.2745-.2149.4306-.1181.519-.2255.5678-.6367.0391-.3916.0884-1.8515.0884-3.1933,0-.294.02-.833,0-1.2246-.02-.3233-.1079-.4317-.4312-.5293-.2251-.0684-.3329-.1368-.3329-.2159,0-.0976.1273-.1367.3037-.1367.2646,0,.8032.0391,1.0581.0391.4111,0,.852-.0293,1.0874-.0293.2055,0,.3232.039.3232.1269,0,.1084-.1274.167-.3335.2159-.4111.0879-.44.2744-.45.6757-.02.3526-.0591,1.4893-.03,1.6748C185.7583,105.761,185.7979,105.81,185.8662,105.81Z"/><path class="cls-1" d="M198.6245,106.0257A3.2363,3.2363,0,0,1,197.39,108.69a3.7038,3.7038,0,0,1-2.1455.705,3.4517,3.4517,0,0,1-2.5473-1.0478,3.2368,3.2368,0,0,1-.8423-2.2432,3.0681,3.0681,0,0,1,1.2637-2.5469,3.6769,3.6769,0,0,1,2.0864-.706,3.246,3.246,0,0,1,3.4155,3.0669C198.6224,105.9539,198.6238,105.99,198.6245,106.0257Zm-4.7612-2.332a3.0493,3.0493,0,0,0-.6861,2.1943c0,1.5088.9209,3.1445,2.3511,3.1445a1.4074,1.4074,0,0,0,1-.4013,3.3629,3.3629,0,0,0,.7539-2.3018,3.81,3.81,0,0,0-1.0185-2.6064,2.1614,2.1614,0,0,0-1.293-.5284A1.7186,1.7186,0,0,0,193.8633,103.6937Z"/><path class="cls-1" d="M206.4443,106.0257A3.2364,3.2364,0,0,1,205.21,108.69a3.7023,3.7023,0,0,1-2.1455.705,3.4516,3.4516,0,0,1-2.5469-1.0478,3.2331,3.2331,0,0,1-.8433-2.2432,3.07,3.07,0,0,1,1.2642-2.5469,3.68,3.68,0,0,1,2.0869-.706,3.2457,3.2457,0,0,1,3.4149,3.0672h0C206.4422,105.9541,206.4436,105.99,206.4443,106.0257Zm-4.7607-2.332a3.05,3.05,0,0,0-.6856,2.1943c0,1.5088.9209,3.1445,2.3506,3.1445a1.4031,1.4031,0,0,0,.9991-.4013,3.3585,3.3585,0,0,0,.7548-2.3018,3.81,3.81,0,0,0-1.0185-2.6064,2.1644,2.1644,0,0,0-1.294-.5284,1.72,1.72,0,0,0-1.1064.4991Z"/><path class="cls-1" d="M207.6133,102.9984c.2646,0,.6953.0195.98.0195.3828,0,1.0586-.0391,1.2939-.0391.2246,0,.3028.0488.3028.1172,0,.0889-.1172.1572-.2149.1865-.5293.127-.6074.2744-.6172.3916-.0683.49-.0683,1.48-.0683,2.9287,0,.6768.01,1.48.0488,1.8125.02.2354.3135.3721.3525.3819a6.1964,6.1964,0,0,0,.8135.05,3.9179,3.9179,0,0,0,.7051-.05.5944.5944,0,0,0,.3037-.1367,3.8722,3.8722,0,0,0,.6172-.7637.3965.3965,0,0,1,.2646-.1963c.0684,0,.0782.1074.0391.2646-.1084.3428-.2549.8819-.3135,1.1553a.4509.4509,0,0,1-.2256.167c-.1474,0-1.0185-.0683-3.0078-.0683-.47,0-1.1455.0585-1.4492.0585-.1768,0-.2939-.039-.2939-.1269,0-.0693.0878-.1572.2451-.1865.5381-.0977.6269-.2744.6758-.7051.0195-.2451.0488-1.2734.0488-2.6846,0-.95,0-1.332-.01-1.6552-.01-.3331-.0586-.49-.51-.5977-.1856-.0488-.2745-.1172-.2745-.1865C207.3193,103.0374,207.4375,102.9984,207.6133,102.9984Z"/><path class="cls-2" d="M210.8845,146.6037a.6044.6044,0,0,0,.6028-.6059v-2.929a.8569.8569,0,0,0-.8542-.8579h-6.4026V119.7416a.8568.8568,0,0,0-.8541-.8579H180.268a.8562.8562,0,0,0-.8535.8579v22.4693h-6.4032a.8562.8562,0,0,0-.8535.8579v2.929a.604.604,0,0,0,.6021.6059h.0007"/><line class="cls-2" x1="191.8225" y1="142.1316" x2="191.8225" y2="119.1073"/><path class="cls-3" d="M193.9459,72.3334a12.6375,12.6375,0,0,0,4.0968-.7869,8.5661,8.5661,0,0,1,2.6193-.5655,4.9218,4.9218,0,0,1,2.6844.8811.6507.6507,0,0,0,.9958-.5512V64.3233a.6492.6492,0,0,0-.353-.5788,3.4963,3.4963,0,0,0-1.6331-.371,11.1334,11.1334,0,0,0-3.0313.6158,13.5175,13.5175,0,0,1-3.8641.7408h0a6.6618,6.6618,0,0,1-3.1916-.8022.6653.6653,0,0,0-.6408.0184.6567.6567,0,0,0-.3136.5573V77.88"/><polyline class="cls-2" points="145.686 104.147 145.686 99.619 191.305 77.578 237.959 99.663 237.959 104.207"/><polyline class="cls-2" points="150.299 146.27 150.299 102.52 191.357 82.684 233.346 102.56 233.346 146.324"/><line class="cls-2" x1="263.4378" y1="146.6641" x2="263.4378" y2="137.8946"/><line class="cls-2" x1="263.4378" y1="146.6641" x2="267.6654" y2="146.6641"/><line class="cls-2" x1="259.0748" y1="146.6641" x2="259.0748" y2="137.8946"/><line class="cls-2" x1="259.0748" y1="146.6641" x2="254.8471" y2="146.6641"/><path class="cls-2" d="M273.1359,109.31a16.7961,16.7961,0,0,0-3.7849-2.8409H253.1617a16.8,16.8,0,1,0,19.9742,2.8409Z"/><line class="cls-2" x1="261.9993" y1="121.8595" x2="265.0934" y2="124.7337"/><line class="cls-2" x1="259.1947" y1="123.3355" x2="260.5136" y2="122.0167"/><circle class="cls-2" cx="261.372" cy="121.429" r="0.7"/><circle class="cls-4" cx="261.2564" cy="121.1898" r="14"/><path class="cls-2" d="M273.1359,133.0692a8.4282,8.4282,0,0,0,11.9188,0"/><path class="cls-2" d="M286.5391,131.5835a1.05,1.05,0,1,0,.0008.0008Z"/><path class="cls-2" d="M246.6582,129.4714a8.4282,8.4282,0,0,0-11.3342-3.6872"/><path class="cls-2" d="M233.4519,126.7372a1.0573,1.0573,0,1,0,0-.0006Z"/><line class="cls-2" x1="286.5167" y1="131.3405" x2="298.5564" y2="113.051"/><polyline class="cls-2" points="269.719 99.554 278.056 96.8 261.256 91.067 244.456 96.8 252.847 99.554"/><path class="cls-2" d="M269.6564,96.8v9.6317h-16.8V96.81c0-.8022,3.7607-1.453,8.4-1.453s8.4.6508,8.4,1.453Z"/><path class="cls-2" d="M244.4564,96.8v4.6138"/><path class="cls-5" d="M260.7379,132.2726a.5122.5122,0,0,1,.4617-.5581l.0283-.0019h0a.527.527,0,0,1,.5462.4894h0a.5225.5225,0,0,1-.4822.56h-.0358A.512.512,0,0,1,260.7379,132.2726Zm-5.1519-1.0259a.53.53,0,0,1-.3363-.6583h0a.5273.5273,0,0,1,.6647-.3381h0l.0073.0024h0a.5285.5285,0,0,1,.3363.6576h0a.5252.5252,0,0,1-.5038.3644h0a.7267.7267,0,0,1-.1682-.028Zm10.714-.241a.5216.5216,0,0,1,.2441-.6961h0l.0082-.0039h0a.5253.5253,0,0,1,.6993.2507v0l.0007.0015h0a.5292.5292,0,0,1-.2522.6856h0a.4383.4383,0,0,1-.2235.0561h0a.529.529,0,0,1-.4766-.294Zm-15.1109-4.0694a.5248.5248,0,0,1,.1962-.7136h0a.5417.5417,0,0,1,.728.21h0a.5416.5416,0,0,1-.21.7137h0a.5667.5667,0,0,1-.2523.07h0a.57.57,0,0,1-.4619-.28Zm19.453.2447a.5113.5113,0,0,1-.2994-.6582h0l.0054-.0138h0a.5109.5109,0,0,1,.654-.3069l.0324.013h0a.5223.5223,0,0,1,.2939.6719h0a.5271.5271,0,0,1-.49.3357h0a.4488.4488,0,0,1-.1962-.0417Zm-20.927-5.9541h0a.5337.5337,0,0,1,.4621-.5886h0a.5412.5412,0,0,1,.5879.4621h0a.54.54,0,0,1-.4621.5879h-.07A.5372.5372,0,0,1,249.7151,121.2269Zm22.229-.0594h0a.5293.5293,0,0,1,.5174-.5325h0a.5327.5327,0,0,1,.5326.5325h0a.5294.5294,0,0,1-.5326.5175h0A.5256.5256,0,0,1,271.9441,121.1675Zm-20.5022-5.0994a.5168.5168,0,0,1-.1171-.7213l.005-.0068h0a.5161.5161,0,0,1,.72-.1169l.0075.0055h0a.5045.5045,0,0,1,.1316.7014l0,0-.0194.0265h0a.5128.5128,0,0,1-.42.2236h0a.5178.5178,0,0,1-.308-.1121Zm18.9762-.0971h0a.5333.5333,0,0,1,.1121-.7423h0a.5371.5371,0,0,1,.7417.1257h0a.5209.5209,0,0,1-.1229.7262h0l-.0027.0019h0a.4758.4758,0,0,1-.3082.0984h0a.5181.5181,0,0,1-.42-.21Zm-15.11-4.0867a.5359.5359,0,0,1,.1538-.7281h0a.5232.5232,0,0,1,.7225.1594l.0055.0088h0a.5284.5284,0,0,1-.1681.7273h0a.6291.6291,0,0,1-.28.0705h0a.5156.5156,0,0,1-.434-.2379Zm11.2427.1926a.5239.5239,0,0,1-.1731-.72l.0049-.0078h0a.535.535,0,0,1,.728-.1538h0a.5366.5366,0,0,1,.1682.7281h0a.56.56,0,0,1-.4484.2378h0a.5055.5055,0,0,1-.28-.084Zm-5.3645-1.34a.5234.5234,0,0,1-.4213-.6086v0l.0013-.0072h0a.5265.5265,0,0,1,.6145-.42h.0014a.545.545,0,0,1,.42.6159h0a.54.54,0,0,1-.5318.42Z"/><path class="cls-6" d="M259.2223,115.7936a1.93,1.93,0,0,1-3.8057,0"/><path class="cls-6" d="M267.4116,115.7936a1.93,1.93,0,0,1-3.8057,0"/><line class="cls-2" x1="136.1728" y1="146.6641" x2="317.3211" y2="146.6641"/><polygon class="cls-3" points="98.936 152.222 98.936 159.334 102.875 159.334 103.337 152.222 98.936 152.222"/><polygon class="cls-3" points="88.115 152.222 88.578 159.334 92.517 159.334 92.517 152.222 88.115 152.222"/><path class="cls-3" d="M107.1733,110.8275c-.431-.1075-.8484-.2232-1.2068-.3482-3.602-1.2564-5.7534-3.11-6.7228-5.1918-1.9754,2.7633-6.4705,4.6943-11.7056,4.6943a27.6273,27.6273,0,0,1-3.0143-.1784,10.72,10.72,0,0,0-.4323,3.0092,11.6452,11.6452,0,0,0,23.2693,0A10.7587,10.7587,0,0,0,107.1733,110.8275Z"/><path class="cls-3" d="M98.9358,159.3344h4.37a1.6477,1.6477,0,0,1,1.6478,1.6476v.6593H98.9358Z"/><path class="cls-3" d="M92.5167,161.6413H86.4988v-.6591a1.6477,1.6477,0,0,1,1.6478-1.6478h4.37v2.3069Z"/><polyline class="cls-3" points="95.708 146.954 95.708 152.222 104.552 152.222 104.552 139.426 86.9 139.426 86.9 152.222 95.744 152.222 95.744 147.012"/><path class="cls-3" d="M84.0916,112.8126c0-.1258.0055-.25.01-.3752a2.1122,2.1122,0,0,0,.1907,4.22h.51"/><path class="cls-3" d="M106.6509,116.6574h.51a2.1122,2.1122,0,0,0,.1907-4.22h-.0007c.0043.1248.01.2494.01.3752"/><path class="cls-3" d="M102.5465,113.6777a1.3051,1.3051,0,0,1-2.6078,0"/><path class="cls-3" d="M91.5137,113.6777a1.3051,1.3051,0,0,1-2.6078,0"/><path class="cls-3" d="M93.52,119.0027a2.2085,2.2085,0,0,0,4.4131,0"/><path class="cls-3" d="M109.2256,128.9669a12.241,12.241,0,0,0-6.1532-5.8626,3.2664,3.2664,0,0,0-1.1909-.4408,2.0528,2.0528,0,0,0-.4272-.0467c-.021,0-.0417.0017-.0626.0024-.0164,0-.0323-.0024-.0488-.0024h-.0711a12.0993,12.0993,0,0,1-11.0912,0H90.11c-.0165,0-.0324.0021-.0488.0024-.0209-.0007-.0416-.0024-.0626-.0024a2.0528,2.0528,0,0,0-.4272.0467,3.2664,3.2664,0,0,0-1.1909.4408,12.2406,12.2406,0,0,0-6.1532,5.8626c-.1035.2127-.1982.4279-.2883.6441l3.932.8763a8.2953,8.2953,0,0,1,1.029-1.5738v10.522h17.6526v-10.522a8.2972,8.2972,0,0,1,1.0294,1.5738l3.932-.8763C109.4238,129.3948,109.3291,129.18,109.2256,128.9669Z"/><path class="cls-3" d="M95.7262,97.2413a12.7839,12.7839,0,0,0-13.0334,12.2921c-.0012.068-.0054.1352-.0054.2034a12.0253,12.0253,0,0,0,.3908,3.041,2.2581,2.2581,0,0,1,1.0233-.3411,10.7114,10.7114,0,0,1,.4223-2.6333,27.6524,27.6524,0,0,0,3.0143.1784c5.2351,0,9.73-1.931,11.7056-4.6943.9694,2.0823,3.1208,3.9354,6.7228,5.1918.3584.125.7758.2407,1.2068.3482a10.75,10.75,0,0,1,.1776,1.6092,2.2585,2.2585,0,0,1,1.0233.3411,12.184,12.184,0,0,0,.3908-3.041A12.7759,12.7759,0,0,0,95.7262,97.2413Z"/><path class="cls-3" d="M106.5626,136.3219a2.2724,2.2724,0,0,1,.9788-.2216,2.2179,2.2179,0,0,1,1.959,1.1442,11.1338,11.1338,0,0,0-.4209-7.5367l-3.056.6811A8.3175,8.3175,0,0,1,106.5626,136.3219Z"/><ellipse class="cls-3" cx="107.5414" cy="138.215" rx="2.2066" ry="2.1146"/><path class="cls-3" d="M81.0436,135.4432a3.26,3.26,0,0,0-1.1835-.2317,8.67,8.67,0,0,0,2.4808-5.5294l3.0525.6956a11.3533,11.3533,0,0,1-3.1282,6.9265A2.1069,2.1069,0,0,0,81.0436,135.4432Z"/><ellipse class="cls-3" cx="80.0601" cy="137.3362" rx="2.2066" ry="2.1146"/><path class="cls-3" d="M74.605,110.55c-3.6021-1.2564-5.7535-3.1095-6.7228-5.1918-1.9754,2.7633-6.4706,4.6944-11.7057,4.6944a17.342,17.342,0,0,1-2.9658-.3419,10.7152,10.7152,0,0,0-.4807,3.1727,11.6451,11.6451,0,0,0,23.2692,0,10.7517,10.7517,0,0,0-.1922-2.01A11.4492,11.4492,0,0,1,74.605,110.55Z"/><path class="cls-3" d="M67.5742,159.3344h4.37a1.6477,1.6477,0,0,1,1.6478,1.6476v.6593H67.5742Z"/><path class="cls-3" d="M61.155,161.6413H55.1371v-.6591a1.6477,1.6477,0,0,1,1.6478-1.6478h4.37v2.3069Z"/><polygon class="cls-3" points="67.574 152.306 67.574 159.334 71.513 159.334 71.97 152.306 67.574 152.306"/><polygon class="cls-3" points="56.756 152.259 57.216 159.334 61.155 159.334 61.155 152.259 56.756 152.259"/><polygon class="cls-3" points="55.538 139.471 54.647 152.235 74.082 152.235 73.191 139.471 55.538 139.471"/><path class="cls-3" d="M69.91,122.6878h.0711c.0165,0,.0324.0022.0488.0024.0209-.0006.0416-.0024.0626-.0024a2.0528,2.0528,0,0,1,.4272.0467,3.2707,3.2707,0,0,1,1.1909.4408,12.5559,12.5559,0,0,1,3.27,2.0786,25.7075,25.7075,0,0,0,2.5527-9.336,2.2364,2.2364,0,0,1-1.7349.81h-.5108"/><path class="cls-3" d="M53.4414,116.7284h-.5108a2.2356,2.2356,0,0,1-1.7373-.8138,25.7228,25.7228,0,0,0,2.5553,9.3393,12.5559,12.5559,0,0,1,3.27-2.0786,3.27,3.27,0,0,1,1.1909-.4408,2.0528,2.0528,0,0,1,.4272-.0467c.021,0,.0417.0018.0626.0024.0164,0,.0324-.0024.0488-.0024h.0711"/><path class="cls-3" d="M52.73,112.8837c0-.1259.0056-.2505.01-.3753a2.1122,2.1122,0,0,0,.1907,4.22h.51"/><path class="cls-3" d="M75.2893,116.7284h.51a2.1122,2.1122,0,0,0,.1907-4.22h-.0007c.0044.1248.01.2494.01.3753"/><path class="cls-3" d="M71.1849,114.9983a1.305,1.305,0,0,0-2.6077,0"/><path class="cls-3" d="M60.1521,114.9983a1.3051,1.3051,0,0,0-2.6078,0"/><path class="cls-3" d="M62.158,119.0738a2.2086,2.2086,0,0,0,4.4132,0"/><path class="cls-3" d="M53.2087,109.7107a17.3654,17.3654,0,0,0,2.9678.3422c5.2351,0,9.73-1.9311,11.7057-4.6944.9693,2.0823,3.1207,3.9354,6.7228,5.1918a11.4727,11.4727,0,0,0,1.202.3232,10.8443,10.8443,0,0,1,.183,1.6349,2.2141,2.2141,0,0,1,1.7291,1.0662c.0434-.8043.0671-1.5752.0776-2.2926.0055-.3781.0079-.7429.0079-1.09,0-7.1134-6.0173-12.88-13.44-12.88A13.2165,13.2165,0,0,0,50.9635,109.26c-.023.3084-.0389.6187-.0389.9327,0,1.0058.0181,2.1539.0847,3.3837a2.2134,2.2134,0,0,1,1.7279-1.0675"/><path class="cls-3" d="M52.55,136.1714a2.2723,2.2723,0,0,1,.9788.2215,8.3161,8.3161,0,0,1,.5391-5.9329l-3.056-.6811a11.1329,11.1329,0,0,0-.421,7.5366A2.2178,2.2178,0,0,1,52.55,136.1714Z"/><ellipse class="cls-3" cx="52.5495" cy="138.286" rx="2.2066" ry="2.1146"/><path class="cls-3" d="M77.864,129.0379a12.2406,12.2406,0,0,0-6.1532-5.8626,3.27,3.27,0,0,0-1.1909-.4408,2.0528,2.0528,0,0,0-.4272-.0467c-.021,0-.0417.0018-.0626.0024-.0164,0-.0323-.0024-.0488-.0024H69.91a12.0993,12.0993,0,0,1-11.0912,0h-.0711c-.0164,0-.0324.0022-.0488.0024-.0209-.0006-.0416-.0024-.0626-.0024a2.0528,2.0528,0,0,0-.4272.0467,3.2714,3.2714,0,0,0-1.1909.4408,12.2406,12.2406,0,0,0-6.1532,5.8626c-.1035.2128-.1982.4279-.2883.6442l3.932.8763a8.29,8.29,0,0,1,1.0294-1.5739v10.56H73.1909v-10.56a8.29,8.29,0,0,1,1.0294,1.5739l3.932-.8763C78.0623,129.4658,77.9676,129.2507,77.864,129.0379Z"/><path class="cls-3" d="M80.2707,135.3206a8.6692,8.6692,0,0,1-2.4808-5.5294l-3.0525.6955a11.3528,11.3528,0,0,0,3.1282,6.9266"/><line class="cls-2" x1="24.0178" y1="161.8992" x2="150.073" y2="161.8992"/><path class="cls-1" d="M287.6,58.5008a1.6319,1.6319,0,0,1,1.37-1.5088c.0772,0,.1387,0,.1387.0772,0,.0307-.0772.0766-.1689.1074-.462.2466-.8008.5542-.8008,1.0468,0,.3238.1533.5084.5693.6163a.3218.3218,0,0,1,.3076.3232.4439.4439,0,0,1-.4619.4.9948.9948,0,0,1-.9556-1.0327v0Zm1.9092,0a1.6712,1.6712,0,0,1,1.3857-1.5088c.0772,0,.1387.0308.1387.0772,0,.0307-.0615.0766-.1543.1074-.4619.2466-.8154.57-.8154,1.0468,0,.3238.1689.5084.5849.6163a.3327.3327,0,0,1,.3077.3232.4723.4723,0,0,1-.4776.4,1.0072,1.0072,0,0,1-.971-1.0421l.0009-.02Z"/><path class="cls-1" d="M292.1426,57.6541c.3691,0,1.001.0615,1.4629.0615.3388,0,.708-.0307,1.0312-.0307.2158,0,.3076.0459.3076.1079,0,.0766-.0918.123-.2763.1538-.4317.0771-.4317.2617-.3233.5386.6465,1.6015,2.1709,4.8808,3.2178,7.19.0459.1074.1074.0767.1533,0,.4317-.8779.8008-1.6475,1.2168-2.6328a.4336.4336,0,0,0,.03-.1851c-.2461-.5849-1.2774-2.9253-1.6163-3.664-.4462-.9546-.5694-1.1392-1.047-1.2627-.246-.0459-.3232-.1075-.3232-.1846,0-.0464.0918-.0923.292-.0923.4472,0,.7392.0615,1.2939.0615s.9082-.0615,1.2617-.0615c.1543,0,.2617.0308.2617.0923,0,.0771-.0918.123-.292.1694-.416.0767-.5693.2618-.3388.8311.2461.647.708,1.6938,1.2168,2.8638.0146.0307.0761.0463.123-.0308.3692-.7544.6924-1.4624,1.0156-2.2168.4776-1.124.462-1.2778-.2-1.4321-.2774-.0616-.3233-.1231-.3233-.1846,0-.0464.0928-.0771.2774-.0771.3847,0,.6308.0463,1.0312.0463.5391,0,.7852-.0615,1.14-.0615.1845,0,.2617.0152.2617.0767,0,.0771-.0772.1235-.293.1694-.5693.1235-.8623.4468-1.37,1.34-.4.77-1.1543,2.2939-1.416,2.7709a.2648.2648,0,0,0,.0156.1851c.3848.9082,1.0615,2.3706,1.585,3.5254.0615.1079.1084.0771.1386,0,.7393-1.6011,2.6026-5.9121,2.9258-7.0513.0772-.3388.0615-.6006-.4463-.7544-.2471-.0771-.3388-.1079-.3388-.1694s.0459-.0923.2617-.0923c.4,0,.6152.0615,1.0771.0615.4317,0,.8467-.0615,1.124-.0615.2,0,.2774.0152.2774.0767s-.0772.1235-.3545.1694c-.6465.1694-.9238.4927-1.8936,2.6792-.97,2.1245-2.2168,5.0342-2.9248,6.728-.1084.2618-.1543.354-.2314.354-.1074,0-.169-.1079-.2617-.354-.3233-.9394-1.2-2.8481-1.6475-3.8335-.03-.062-.0771-.062-.1074-.0156-.585,1.1392-1.4014,2.9409-1.74,3.8335-.0918.2466-.1846.37-.2461.37-.0918,0-.1231-.0922-.2305-.37-.2-.5078-.6777-1.6318-.8779-2.0937-.8467-1.9551-1.878-4.2339-2.6016-5.7427-.5546-1.2007-.6777-1.478-1.2627-1.5552-.1846-.0151-.3232-.0767-.3232-.1387C291.835,57.7156,291.9424,57.6541,292.1426,57.6541Z"/><path class="cls-1" d="M309.59,63.243a.1809.1809,0,0,1-.1543.1689c-.123-.0151-2.125-.0459-2.4785-.0459h-.831c-.0313,0-.1084.0772-.1387.1231a2.1112,2.1112,0,0,0-.124.8467,2.7614,2.7614,0,0,0,.709,1.8632,2.0778,2.0778,0,0,0,1.539.6309,1.963,1.963,0,0,0,1.4629-.4927c.1231-.123.1846-.0923.1846-.0151a.5836.5836,0,0,1-.1533.2461,2.7219,2.7219,0,0,1-2.1406.97,2.4854,2.4854,0,0,1-1.832-.7852,3.01,3.01,0,0,1-.7391-2.063,3.21,3.21,0,0,1,.8934-2.248,2.8626,2.8626,0,0,1,1.9238-.77A1.7768,1.7768,0,0,1,309.59,63.243Zm-3.1406-.7852a1.3435,1.3435,0,0,0-.3232.6309.0657.0657,0,0,0,.0615.0615l2.001-.0151c.3388,0,.3691-.1695.3691-.3081a.9928.9928,0,0,0-.2148-.6465,1.08,1.08,0,0,0-.7705-.2925,1.5959,1.5959,0,0,0-1.1233.57Z"/><path class="cls-1" d="M312.8711,62.2728c0-.0459.0615-.0767.1846-.1079a3.0541,3.0541,0,0,0,1.0468-.462.4464.4464,0,0,1,.2305-.0922c.0469,0,.0772.0615.0772.1543,0,.1689-.0157.6,0,.7543,0,.0616.0156.1382.0771.0923a3.2376,3.2376,0,0,1,1.9092-.893,1.5757,1.5757,0,0,1,1.539.97.103.103,0,0,0,.1084.0312,3.0876,3.0876,0,0,1,2.1094-1.0473,1.587,1.587,0,0,1,1.5547,1.14,5.026,5.026,0,0,1,.1846,1.4473c.0156.5078.0469,1.6782.0615,2.2168.0156.5083.1084.6157.4463.6777.2158.0459.2773.0923.2773.1382,0,.0772-.0771.1079-.2617.1079-.1689,0-.708-.0307-1.0625-.0307-.3691,0-.708.0463-.9385.0463-.2,0-.3086-.0307-.3086-.0927,0-.0767.1387-.1231.2618-.1538.4472-.0923.5234-.231.5234-.6929a19.5341,19.5341,0,0,0-.1074-3.0483A1.1923,1.1923,0,0,0,319.559,62.27h0c-.0225.0006-.0451.0019-.0676.0038a1.9223,1.9223,0,0,0-1.3086.57.7531.7531,0,0,0-.1084.4927c.0315.4311.0774,2.7866.1084,3.2021.0459.4312.0918.5391.4766.6314.17.0615.247.0771.247.1386s-.0927.0923-.2615.0923c-.2775,0-.7392-.0307-1.1855-.0307-.3389,0-.709.0307-.8779.0307s-.2461-.0307-.2461-.0923c0-.0464.0771-.1079.2773-.1538.3232-.062.4766-.1386.4766-.5083l.0156-2.4634c0-.8466-.0772-1.2006-.3848-1.5395a1.1769,1.1769,0,0,0-.9394-.3389,1.7408,1.7408,0,0,0-1.1543.4468.5577.5577,0,0,0-.1846.3691,9.448,9.448,0,0,0-.0615,1.0474c0,1.1392.0615,2.2168.0918,2.4941a.5256.5256,0,0,0,.4931.5079c.169.0307.23.0771.23.123,0,.0772-.123.1079-.23.1079-.2929,0-.8007-.0307-1.17-.0307-.4775,0-.8008.0307-1.001.0307-.1386,0-.2773-.0464-.2773-.1079s.0928-.1074.3075-.1382c.4776-.1079.4776-.2773.5087-.4619.0615-.3237.0615-1.5708.0615-2.4634,0-.57.0147-.9546-.0156-1.247a.5814.5814,0,0,0-.3544-.5391c-.1073-.0615-.1387-.0923-.1387-.1694Z"/><path class="cls-1" d="M323.6348,62.119a7.6762,7.6762,0,0,0,1.1084-.4.6245.6245,0,0,1,.2314-.1079c.0459,0,.0762.0463.0615.2158-.0312.3076-.0312,1.247-.0312,2.2324,0,1.293,0,2.4326.0312,2.6943.03.3077.1846.3848.4307.4463.1543.0308.2314.0615.2314.1231,0,.0771-.124.1079-.247.1079-.1387,0-.708-.0615-1.1241-.0615-.5078,0-.7539.0307-.9228.0307-.1084,0-.2158-.0307-.2158-.0923s.0771-.1079.292-.1386c.3388-.0923.4775-.2154.4931-.8467.0157-.4619.0459-3.2642.0459-3.418,0-.2158-.0156-.3081-.4463-.539-.0771-.0459-.123-.0923-.123-.1231C323.45,62.1961,323.4961,62.15,323.6348,62.119Zm1.54-2.51a.5865.5865,0,0,1-.57.585.5476.5476,0,0,1-.5078-.5694.5706.5706,0,0,1,.5389-.6006h0a.5636.5636,0,0,1,.5388.5852Z"/><path class="cls-1" d="M327.5459,62.8577c0,.647.585,1.0161.9707,1.2471,1,.647,1.4,1.0317,1.4,1.8169a1.5791,1.5791,0,0,1-.8008,1.2934,2.5535,2.5535,0,0,1-1.2314.3384,3.137,3.137,0,0,1-1.2159-.2768c-.123-.0464-.2315-.1538-.2315-.2466,0-.2153-.03-.6-.0459-.77-.0311-.2.0155-.2466.0459-.2466.0469,0,.0928,0,.2.2925a1.5008,1.5008,0,0,0,.6465.8315,1.18,1.18,0,0,0,.6933.1846,1.0556,1.0556,0,0,0,1.001-1.0313c0-.5849-.4-.9087-1.0166-1.2934-.6621-.4312-1.2783-1.0005-1.2783-1.6783a1.46,1.46,0,0,1,.5859-1.2163,1.9881,1.9881,0,0,1,1.293-.4311,3.7645,3.7645,0,0,1,1.0469.1694.2534.2534,0,0,1,.0771.1387c.0156.1694.0772.4775.0918.7236,0,.1695-.03.2466-.0762.2466-.0625,0-.0927-.0771-.1386-.1851a1.1706,1.1706,0,0,0-.37-.6313,1.2633,1.2633,0,0,0-.7237-.231.8973.8973,0,0,0-.9248.8689v0Q327.5431,62.8147,327.5459,62.8577Z"/><path class="cls-1" d="M331.9189,62.8577c0,.647.585,1.0161.9707,1.2471,1,.647,1.4,1.0317,1.4,1.8169a1.5794,1.5794,0,0,1-.8007,1.2934,2.5539,2.5539,0,0,1-1.2315.3384,3.1374,3.1374,0,0,1-1.2158-.2768c-.1231-.0464-.2315-.1538-.2315-.2466,0-.2153-.03-.6-.0459-.77-.0312-.2.0157-.2466.0459-.2466.0469,0,.0928,0,.2.2925a1.5032,1.5032,0,0,0,.6465.8315,1.18,1.18,0,0,0,.6934.1846,1.0556,1.0556,0,0,0,1.001-1.0313c0-.5849-.4-.9087-1.0166-1.2934-.6621-.4312-1.2784-1.0005-1.2784-1.6783a1.46,1.46,0,0,1,.586-1.2163,1.9879,1.9879,0,0,1,1.2929-.4311,3.7639,3.7639,0,0,1,1.0469.1694.2528.2528,0,0,1,.0773.1387c.0155.1694.077.4775.0917.7236,0,.1695-.03.2466-.0762.2466-.0625,0-.0928-.0771-.1387-.1851a1.1678,1.1678,0,0,0-.37-.6313,1.2627,1.2627,0,0,0-.7236-.231.8977.8977,0,0,0-.9249.8691C331.9166,62.8,331.9171,62.8291,331.9189,62.8577Z"/><path class="cls-1" d="M338.1719,66.7991a1.7312,1.7312,0,0,1-.1846-.8774v-3.187c0-.1695-.0156-.2769-.0771-.3081a2.5232,2.5232,0,0,0-.3692-.0923c-.123-.0308-.2-.0767-.2-.1382,0-.0312.0156-.0771.1846-.1543a3.2834,3.2834,0,0,0,1.2627-1.0312c.1387-.1543.2461-.1236.2461-.0464,0,.1386-.03.57-.0147.7544,0,.0464.0147.1386.0762.1386.2773,0,1.5557-.0463,1.8789-.0463.03,0,.0918.1079.0918.2158,0,.2617-.0762.3847-.1533.3847-.5391,0-1.294-.0156-1.709-.0156-.1846,0-.2158.0464-.2158.1387,0,.2617.0156,2.6792.0312,3.1562a1.58,1.58,0,0,0,.169.8316,1.1377,1.1377,0,0,0,.9541.4155,1.5085,1.5085,0,0,0,.8476-.231c.1075-.0771.1534-.0615.1534,0,0,.0923-.1387.2466-.3389.4a2.1105,2.1105,0,0,1-1.2471.4A1.427,1.427,0,0,1,338.1719,66.7991Z"/><path class="cls-1" d="M343.3154,62.7811a.7725.7725,0,0,0-.1543.5693,30.3634,30.3634,0,0,0,.0772,3.31.5438.5438,0,0,0,.4922.5235c.2314.0459.3388.0766.3388.1538,0,.0464-.0918.0923-.23.0923-.4317,0-.8321-.0615-1.2784-.0615-.4775,0-.708.0615-1.0009.0615-.169,0-.2461-.0308-.2461-.0923s.0615-.0923.2461-.1387c.4472-.1079.5547-.1538.57-.7387.0459-.6163.0615-2.0323.0615-4.4805,0-2.3247.03-3.2642,0-3.8491-.0156-.4927-.123-.5386-.4619-.7237-.0615-.0459-.1084-.0766-.1084-.123s.0928-.0923.2617-.1387a6.36,6.36,0,0,0,1.124-.37.3385.3385,0,0,1,.1543-.0615c.0459,0,.0928.1079.0772.3237-.0156.4155-.0772,5.1885-.0615,5.4809,0,.0616.0459.0767.0615.0459a5.0508,5.0508,0,0,1,.9238-.6313,2.42,2.42,0,0,1,1.0772-.2617,1.64,1.64,0,0,1,1.3857.6929,2.9706,2.9706,0,0,1,.3389,1.6474c.0156,1.1548.0156,2.1094.0312,2.6943,0,.3082.0615.4161.5235.4927.2.0464.246.0772.246.1387s-.1074.1079-.246.1079c-.4,0-.6934-.0771-1.1084-.0771-.5235,0-.6475.0615-1.001.0615-.1846,0-.2461-.0459-.2461-.0923,0-.0615.0762-.0923.2305-.1231.416-.0922.4462-.2.5078-.6469.0312-.354.0615-1.0313.0615-2.6323a2.465,2.465,0,0,0-.2305-1.1548,1.1525,1.1525,0,0,0-1.0625-.57A1.8582,1.8582,0,0,0,343.3154,62.7811Z"/><path class="cls-1" d="M353.1553,63.243a.1809.1809,0,0,1-.1543.1689c-.1231-.0151-2.125-.0459-2.4785-.0459h-.8311c-.0312,0-.1084.0772-.1387.1231a2.1178,2.1178,0,0,0-.123.8467,2.76,2.76,0,0,0,.7081,1.8632,2.0775,2.0775,0,0,0,1.539.6309,1.9628,1.9628,0,0,0,1.4628-.4927c.1232-.123.1846-.0923.1846-.0151a.5858.5858,0,0,1-.1531.2461,2.7228,2.7228,0,0,1-2.1406.97,2.4859,2.4859,0,0,1-1.8321-.7852,3.01,3.01,0,0,1-.7392-2.063,3.21,3.21,0,0,1,.8935-2.248,2.8626,2.8626,0,0,1,1.9239-.77A1.7767,1.7767,0,0,1,353.1553,63.243Zm-3.1407-.7852a1.3453,1.3453,0,0,0-.3232.6309.0657.0657,0,0,0,.0615.0615l2.001-.0151c.3389,0,.3691-.1695.3691-.3081a.9917.9917,0,0,0-.2148-.6465,1.08,1.08,0,0,0-.7705-.2925,1.5953,1.5953,0,0,0-1.1231.57Z"/><path class="cls-1" d="M354.0811,62.2728c0-.0459.0615-.0767.1845-.1079a3.0537,3.0537,0,0,0,1.0469-.462.4464.4464,0,0,1,.2305-.0922c.0468,0,.0771.0615.0771.1543,0,.1689-.0156.6,0,.7543,0,.0616.0156.1382.0772.0923a3.2371,3.2371,0,0,1,1.9091-.893,1.576,1.576,0,0,1,1.5391.97.103.103,0,0,0,.1084.0312,3.0874,3.0874,0,0,1,2.1094-1.0473,1.587,1.587,0,0,1,1.5547,1.14,5.0294,5.0294,0,0,1,.1845,1.4473c.0157.5078.0469,1.6782.0616,2.2168.0156.5083.1084.6157.4463.6777.2158.0459.2773.0923.2773.1382,0,.0772-.0772.1079-.2617.1079-.169,0-.708-.0307-1.0625-.0307-.3692,0-.708.0463-.9385.0463-.2,0-.3086-.0307-.3086-.0927,0-.0767.1387-.1231.2617-.1538.4473-.0923.5235-.231.5235-.6929a19.5341,19.5341,0,0,0-.1075-3.0483,1.1924,1.1924,0,0,0-1.2253-1.1586h0c-.0226.0006-.0452.0019-.0676.0038a1.9223,1.9223,0,0,0-1.3086.57.7517.7517,0,0,0-.1084.4927c.0312.4311.0771,2.7866.1084,3.2021.0459.4312.0918.5391.4765.6314.17.0615.2471.0771.2471.1386s-.0928.0923-.2617.0923c-.2774,0-.7393-.0307-1.1856-.0307-.3388,0-.708.0307-.8779.0307s-.2461-.0307-.2461-.0923c0-.0464.0772-.1079.2774-.1538.3232-.062.4765-.1386.4765-.5083l.0157-2.4634c0-.8466-.0772-1.2006-.3848-1.5395a1.1766,1.1766,0,0,0-.94-.3389,1.742,1.742,0,0,0-1.1543.4468.5571.5571,0,0,0-.1845.3691,9.4,9.4,0,0,0-.0616,1.0474c0,1.1392.0616,2.2168.0918,2.4941a.5257.5257,0,0,0,.4932.5079c.169.0307.2305.0771.2305.123,0,.0772-.1232.1079-.2305.1079-.293,0-.8009-.0307-1.1709-.0307-.4766,0-.8.0307-1,.0307-.1387,0-.2774-.0464-.2774-.1079s.0928-.1074.3075-.1382c.4775-.1079.4775-.2773.5088-.4619.0615-.3237.0615-1.5708.0615-2.4634,0-.57.0146-.9546-.0156-1.247a.5815.5815,0,0,0-.3545-.5391c-.1074-.0615-.1387-.0923-.1387-.1694Z"/><path class="cls-1" d="M298.209,79.2576a3.7334,3.7334,0,0,1,.2148,1.4009c0,.57-.0459,2.0322-.0459,2.4326a.5275.5275,0,0,0,.4645.5836.5329.5329,0,0,0,.1049.0014.9845.9845,0,0,0,.4472-.1387c.0918-.0459.1534,0,.0918.1387a1.2966,1.2966,0,0,1-1.1855.6621,1.0343,1.0343,0,0,1-.9082-.6929.054.054,0,0,0-.0745-.0173h0l-.0026.0017a2.1543,2.1543,0,0,1-1.5088.6929,1.2773,1.2773,0,0,1-1.2314-1.3216v-.0022a1.0876,1.0876,0,0,1,.5537-.8779c.37-.2,1.7716-.6157,2.0947-.7388a.2915.2915,0,0,0,.2-.2309,5.3053,5.3053,0,0,0,.03-.7085c0-.6309-.1073-1.062-.3691-1.2622a1.1759,1.1759,0,0,0-.6466-.2466,1.0593,1.0593,0,0,0-.6162.1851.62.62,0,0,0-.2315.3691,1.6888,1.6888,0,0,0-.0146.293.192.192,0,0,1-.0616.123,3.3272,3.3272,0,0,1-.7236.3389c-.0771.0151-.1543-.0772-.1543-.1387,0-.1079.1074-.2466.293-.4619a3.9822,3.9822,0,0,1,1.17-.8931,2.0671,2.0671,0,0,1,.9238-.2773A1.2628,1.2628,0,0,1,298.209,79.2576Zm-1.0322,4.2339a.6407.6407,0,0,0,.17-.37,11.07,11.07,0,0,0,.0771-1.4629c0-.0151-.0312-.0923-.0625-.0767a8.6848,8.6848,0,0,0-1.416.5235.7969.7969,0,0,0-.3848.7695.8943.8943,0,0,0,.9239.8623A1.0548,1.0548,0,0,0,297.1768,83.4915Z"/><path class="cls-1" d="M301.874,79.596a.8875.8875,0,0,0-.2617.5391,9.0212,9.0212,0,0,0-.0156.9389c0,1.14.0312,1.94.0615,2.2632.0615.4776.2471.5855.832.647.2149.0308.292.0615.292.1382s-.1386.1079-.3691.1079c-.293,0-.8008-.0615-1.4473-.0615a8.3578,8.3578,0,0,0-.9394.0922c-.1846,0-.2618-.0307-.2618-.0922,0-.0464.1084-.1231.2315-.1538a.6364.6364,0,0,0,.5537-.6314c.0313-.2617.0469-1.1392.0469-2.1553v-1.709c0-.1079-.1084-.1542-.4-.4-.1084-.0772-.1231-.1231-.1231-.1543s.0918-.0923.2305-.1382a4.6681,4.6681,0,0,0,.9854-.37.4857.4857,0,0,1,.2314-.0771c.03,0,.0615.0615.0615.2158,0,.1695-.0156.7544-.0156,1.0005,0,.0464.03.0615.0772.0156a2.513,2.513,0,0,1,1.6622-1.1089.8966.8966,0,0,1,.539.2.27.27,0,0,1,.1084.2159,1.0559,1.0559,0,0,1-.3389.5234c-.1387.123-.2.1387-.2471.1387a.6972.6972,0,0,1-.2764-.1079,1.08,1.08,0,0,0-.539-.1846A1.0517,1.0517,0,0,0,301.874,79.596Z"/><path class="cls-1" d="M310.1738,81.3821A2.9569,2.9569,0,1,1,305.37,79.119a3.1638,3.1638,0,0,1,1.8477-.647,2.8892,2.8892,0,0,1,2.9554,2.8214C310.1738,81.323,310.174,81.3525,310.1738,81.3821Zm-4.8037-.2158a3.5219,3.5219,0,0,0,.6475,2.1094,1.828,1.828,0,0,0,1.4472.8159,1.5215,1.5215,0,0,0,.97-.3848,3.0684,3.0684,0,0,0,.6465-2.0629c0-1.4629-.7393-2.91-2.0938-2.91-.7854,0-1.6175.8313-1.6175,2.4324Z"/><path class="cls-1" d="M311.9307,83.7532a1.6138,1.6138,0,0,1-.293-.9394c0-.5078,0-3.11-.03-3.3716a.5992.5992,0,0,0-.3388-.5083c-.1387-.0923-.1846-.1382-.1846-.1846s.0771-.0771.2461-.0771a5.395,5.395,0,0,0,1.2929-.2c.0469-.0152.0928.0771.0772.1694-.0459.8779-.0615,2.9717-.0459,3.68a1.7077,1.7077,0,0,0,.2305,1.0161,1.1314,1.1314,0,0,0,.8623.3853,1.7255,1.7255,0,0,0,1.3086-.4927.9431.9431,0,0,0,.2773-.7085c.0313-.4155.0313-1.0161.0313-1.57,0-.231-.0157-.9546-.0157-1.355-.0156-.5234-.1689-.6-.6777-.708-.1689-.0308-.2461-.0771-.2461-.123,0-.0621.1387-.0928.2315-.0928h.6466a8.1671,8.1671,0,0,0,1.0625-.0923c.0459,0,.0762.0615.0616.1694-.0772.7237-.1084,2.2632-.1084,4.0493a5.0736,5.0736,0,0,0,.0312.7852c.03.1538.0772.1846.2.1694a4.2775,4.2775,0,0,1,.6309-.1386.185.185,0,0,1,.1845.1694c0,.0615-.1386.0923-.292.123a6.9518,6.9518,0,0,0-1.5859.4156c-.123.0615-.1543.0464-.1846,0s-.0312-.1231-.0312-.2925c0-.1538.0156-.4927.0156-.6006,0-.0459-.0156-.1538-.0459-.1074a4.4328,4.4328,0,0,1-1.0625.7544,2.64,2.64,0,0,1-.9082.2309A1.5137,1.5137,0,0,1,311.9307,83.7532Z"/><path class="cls-1" d="M322.6641,78.9959a3.2174,3.2174,0,0,1,.4921,2.0166c0,.8159.0157.9395.0157,1.709.0156,1.0469.0615,1.1392.4775,1.2471.1387.0615.2305.0923.2305.1538,0,.0927-.1231.1079-.2774.1079-.2,0-.6464-.0615-.9853-.0615-.5234,0-.7236.0615-.9541.0615-.1387,0-.2461-.0308-.2461-.0923s.0918-.123.292-.1694c.37-.0923.4316-.2.4316-.6465V81.2283c0-1.247-.1084-1.6167-.4931-1.9091a1.366,1.366,0,0,0-.878-.2925,1.8414,1.8414,0,0,0-1.2.4926.7924.7924,0,0,0-.1845.462c0,.1845.0146.97.0146,1.8935a12.5157,12.5157,0,0,0,.0928,1.6167c.0459.3384.23.4155.4775.4927.1846.0459.2617.0767.2617.1538,0,.0923-.1543.0923-.3085.0923-.1231,0-.877-.0615-1.2315-.0615-.2,0-.5234.0307-.8154.0307-.17,0-.293-.0307-.293-.1079,0-.0615.1387-.123.3232-.1538.3848-.0771.4463-.1846.462-.4927.0312-1.1084.0312-2.5249.0312-3.7719,0-.1539-.0312-.3233-.4-.5235-.0928-.0615-.123-.0923-.123-.1387,0-.0307.0761-.0771.2148-.123a5.7833,5.7833,0,0,0,1.2168-.5234c.0459-.0157.1231.0459.1074.123a6.8593,6.8593,0,0,0-.03.8159c0,.0308.0459.0772.0761.0464a5.3262,5.3262,0,0,1,1.0938-.6929,2.0757,2.0757,0,0,1,.9082-.185A1.5726,1.5726,0,0,1,322.6641,78.9959Z"/><path class="cls-1" d="M328.9,78.6263c.0312.0151.0771-.0464.0771-.0772,0-.2768-.0156-3.0024-.03-3.8183a.4134.4134,0,0,0-.0616-.2617.8415.8415,0,0,0-.4316-.2461c-.1074-.0308-.1846-.0772-.1846-.1231s.0772-.0928.1846-.1079a6.4876,6.4876,0,0,0,1.3241-.37.5181.5181,0,0,1,.2157-.0772c.0459,0,.0773.0772.0618.2617-.0315.462-.1084,5.4659-.1084,7.0362,0,1.3393.0155,2.4018.031,2.8022a.1368.1368,0,0,0,.1074.1387,4,4,0,0,0,.7237-.1694c.0927-.0308.1386.0151.1386.0615,0,.1079-.1073.2466-.3847.2925a8.6634,8.6634,0,0,0-1.6016.4c-.0614.0151-.1073-.0616-.1073-.108a4.7218,4.7218,0,0,0,.0311-.6313c0-.0308-.0311-.0615-.0614-.0308a2.892,2.892,0,0,1-1.7558.7237,2.5109,2.5109,0,0,1-1.6319-.6465,2.9193,2.9193,0,0,1-.8009-2.063,3.0639,3.0639,0,0,1,1.34-2.5405,3.4583,3.4583,0,0,1,1.9093-.585A4.2567,4.2567,0,0,1,328.9,78.6263Zm-2.294.4155a2.7343,2.7343,0,0,0-.8466,2.2324c0,1.6631.9394,2.5249,1.8789,2.5249a1.6041,1.6041,0,0,0,1.0927-.4,1.03,1.03,0,0,0,.169-.5693,21.2648,21.2648,0,0,0-.0147-2.9717,1.0354,1.0354,0,0,0-.1386-.37,1.7147,1.7147,0,0,0-1.37-.708,1.138,1.138,0,0,0-.77.2617Z"/><path class="cls-1" d="M334.46,76.5013c-.1534.1694-.1993.185-.2149.185-.0771,0-.0928-.0922-.0156-.2158a2.8852,2.8852,0,0,1,2.4014-1.5088,1.7747,1.7747,0,0,1,1.9213,1.6149h0l.0035.0482c0,.9082-.6309,1.5088-1.5245,2.0322a.0433.0433,0,0,0,.0313.0767h.1689a2.4582,2.4582,0,0,1,1.57.6314,2.1419,2.1419,0,0,1,.6162,1.6323,4.039,4.039,0,0,1-2.4326,3.3559,4.5381,4.5381,0,0,1-1.8934.5547c-.5547,0-1.3086-.2773-1.3086-.7085a.9821.9821,0,0,1,.4307-.477.19.19,0,0,1,.2.0151A2.5234,2.5234,0,0,0,336,84.3533a1.7056,1.7056,0,0,0,1.124-.3847,2.5625,2.5625,0,0,0,.8467-1.9859,2.601,2.601,0,0,0-.6924-1.8476,1.5935,1.5935,0,0,0-1.1709-.5083,2.39,2.39,0,0,0-.6465.1235c-.1533.0459-.2617.0767-.2617,0a.25.25,0,0,1,.1387-.2158,7.4276,7.4276,0,0,0,.6777-.3848,1.9025,1.9025,0,0,0,1.124-1.7554c0-1.0161-.5546-1.601-1.34-1.601A1.75,1.75,0,0,0,334.46,76.5013Z"/><path class="cls-1" d="M344.6084,79.4114a.5382.5382,0,0,0-.1543.4c-.0156,1.4932.0313,3.0791.0771,3.6026.0459.2924.1231.4926.4922.57.17.0308.2774.0767.2774.1382,0,.0464-.0918.1235-.2774.1235-.4463,0-1.0615-.0771-1.3232-.0771-.6621,0-.8623.0615-1.2324.0615-.169,0-.2764-.0459-.2764-.1079s.0615-.1074.2461-.1538c.4307-.0923.4922-.2.5078-.6929.0313-.5386.0459-2.0015.0459-4.1108,0-2.3091.0156-3.418-.0146-3.9258-.0313-.4927-.0772-.5235-.462-.7085-.0615-.0459-.1084-.0923-.1084-.1382,0-.0615.0928-.1079.2618-.1543a11.0416,11.0416,0,0,0,1.5859-.4927.7612.7612,0,0,1,.2-.0615c.0459,0,.0928.0464.0928.2925,0,.2309-.0928,4.9424-.0772,5.1733,0,.0308.0459.0767.0772.0459a4.036,4.036,0,0,1,.831-.5386,2.1709,2.1709,0,0,1,.94-.2309,1.7134,1.7134,0,0,1,1.4472.6621,2.6347,2.6347,0,0,1,.3848,1.6162c.0156,1.0317.0156,1.9707.03,2.7564,0,.2617.0469.4462.4619.5234.2.0459.2617.0767.2617.1538s-.1689.1079-.2617.1079c-.4619,0-.6465-.0771-1.2471-.0771-.7695,0-.8.0615-1.2773.0615-.1846,0-.2461-.0615-.2461-.1079,0-.0615.0762-.0923.2305-.1231.4463-.123.4619-.2617.5078-.77.0312-.3545.0615-1.1548.0615-2.4175a3.1154,3.1154,0,0,0-.2-1.2471.9954.9954,0,0,0-.9385-.5078A1.4153,1.4153,0,0,0,344.6084,79.4114Z"/><path class="cls-1" d="M355.7109,81.3358a3.08,3.08,0,0,1-1.2011,2.4174,3.2574,3.2574,0,0,1-1.8467.6,2.9765,2.9765,0,0,1-3.0925-2.8558v0c-.0012-.028-.002-.056-.0022-.084a2.83,2.83,0,0,1,1.0927-2.2788,3.1366,3.1366,0,0,1,1.9707-.708,2.921,2.921,0,0,1,3.0748,2.7588v0Q355.7108,81.2606,355.7109,81.3358ZM351.2,80.9974a4.6108,4.6108,0,0,0,.4775,2.2632,1.49,1.49,0,0,0,1.17.8466.9111.9111,0,0,0,.708-.354,3.642,3.642,0,0,0,.5079-2.0942c0-1.7549-.4921-2.9712-1.57-2.9712C351.8311,78.6878,351.2,79.6575,351.2,80.9974Z"/><path class="cls-1" d="M357.36,83.7532a1.6668,1.6668,0,0,1-.3077-1.0781c-.0156-.5078-.0312-2.956-.0459-3.2329-.0156-.3081-.1084-.3848-.3545-.5234-.123-.0772-.1689-.1387-.1689-.1851s.0918-.0767.2305-.0767a8.2,8.2,0,0,0,1.7861-.2c.0615-.0156.0918.0923.0918.1695-.0459.8774-.0615,2.7866-.0459,3.71a1.6253,1.6253,0,0,0,.2.939,1.0189,1.0189,0,0,0,.8164.3389,1.1978,1.1978,0,0,0,.8467-.3081.753.753,0,0,0,.2-.585c.03-.4927.0459-1.2627.0459-1.6475,0-.2309,0-1.0927-.03-1.4931-.0469-.5235-.1084-.6006-.5547-.6778-.1846-.0307-.2773-.0922-.2773-.1381,0-.0772.1543-.108.2617-.108h.8008c.5547,0,1.0468-.1386,1.247-.1386.0459,0,.0772.0771.0772.1694-.0615.5542-.0772,2.5864-.0772,3.9106a6.0661,6.0661,0,0,0,.0313.9239.17.17,0,0,0,.1846.1538c.1533-.0308.3847-.0923.5234-.1079a.2148.2148,0,0,1,.2.2c0,.0771-.1846.1079-.3389.1386a9.4369,9.4369,0,0,0-1.879.4463c-.1229.0464-.1846.0308-.2149,0a.5542.5542,0,0,1-.0313-.2461c0-.1538.0157-.4311.0157-.5849,0-.0772-.0157-.1236-.0459-.0928a3.9473,3.9473,0,0,1-.9551.6621,2.4722,2.4722,0,0,1-1.0157.2158A1.467,1.467,0,0,1,357.36,83.7532Z"/><path class="cls-1" d="M365.69,79.6883a.6423.6423,0,0,0-.1689.3545,10.2186,10.2186,0,0,0-.0313,1.1855c0,1.0928.0313,1.74.0625,2.0938.0616.4619.169.5693.7383.6465.2158.0307.2774.0771.2774.1538s-.1231.1079-.3233.1079c-.4306,0-.708-.0615-1.4472-.0615-.9239,0-.9083.0771-1.2784.0771-.1992,0-.292-.0464-.292-.1079s.0616-.1387.2305-.1694c.3545-.0772.4775-.2.5234-.6314.0157-.2617.0313-1.1391.0469-2.1553,0-.97.0156-1.37,0-1.5551,0-.0923-.0469-.1231-.4-.4312-.0927-.0766-.123-.1074-.123-.1538s.1074-.1079.1689-.1387a7.9354,7.9354,0,0,0,1.4785-.5078.5187.5187,0,0,1,.2618-.0923c.03,0,.0761.0923.0761.169,0,.2773-.03.7085-.03,1.0473,0,.0767.0615.0923.0771.0459.4307-.5693.9854-1.124,1.5859-1.124a.8614.8614,0,0,1,.5079.1543c.1543.1074.2158.1846.2158.3076a1.576,1.576,0,0,1-.4619.7393c-.1543.1538-.2315.1846-.3086.1846a.4355.4355,0,0,1-.2617-.1079,1.2467,1.2467,0,0,0-.6006-.2461A.7222.7222,0,0,0,365.69,79.6883Z"/><path class="cls-1" d="M369.541,79.5037c0,.6006.5235.8931,1.1543,1.2935.97.6465,1.34,1.0469,1.34,1.832a1.7172,1.7172,0,0,1-.7081,1.2935,3.0159,3.0159,0,0,1-1.5087.4306,4.2683,4.2683,0,0,1-1.34-.2617c-.1074-.0459-.2617-.1846-.2617-.2925-.0156-.2153-.0615-.6928-.0772-.8466-.0156-.2.0157-.3082.0772-.3082.0459,0,.1074.0464.2.3238a1.9335,1.9335,0,0,0,.6465.9233,1.1409,1.1409,0,0,0,.77.2.9216.9216,0,0,0,.9238-.8618c0-.4468-.3232-.77-1.1084-1.2627a2.2856,2.2856,0,0,1-1.247-1.8013,1.5838,1.5838,0,0,1,.7548-1.37,2.3107,2.3107,0,0,1,1.3086-.37,3.5451,3.5451,0,0,1,1.2.2.2019.2019,0,0,1,.0928.1538c0,.1538.0615.4311.0772.8315.0156.1695-.0313.2461-.0928.2461s-.0918-.0766-.1387-.2a1.3986,1.3986,0,0,0-.3847-.708,1.2851,1.2851,0,0,0-.8008-.2773A.8864.8864,0,0,0,369.541,79.5037Z"/><path class="cls-1" d="M299.3789,96.8431a.1809.1809,0,0,1-.1543.1689c-.123-.0151-2.125-.0459-2.4785-.0459h-.8311c-.0311,0-.1084.0772-.1386.1231a2.11,2.11,0,0,0-.1241.8467,2.7609,2.7609,0,0,0,.709,1.8632,2.0779,2.0779,0,0,0,1.5391.6309,1.9632,1.9632,0,0,0,1.4629-.4927c.123-.123.1846-.0923.1846-.0151a.5854.5854,0,0,1-.1534.2461,2.7231,2.7231,0,0,1-2.1406.9707,2.486,2.486,0,0,1-1.832-.7857,3.01,3.01,0,0,1-.7393-2.063,3.21,3.21,0,0,1,.8936-2.248,2.8626,2.8626,0,0,1,1.9238-.77A1.7768,1.7768,0,0,1,299.3789,96.8431Zm-3.1406-.7852a1.3432,1.3432,0,0,0-.3233.6309.0657.0657,0,0,0,.0616.0615l2.0009-.0151c.3389,0,.3692-.1695.3692-.3081a.991.991,0,0,0-.2149-.6465,1.08,1.08,0,0,0-.77-.2925A1.5955,1.5955,0,0,0,296.2383,96.0579Z"/><path class="cls-1" d="M302.06,95.4109c.1543,0,.23.0308.23.0923s-.0918.1079-.2148.1387c-.4.1079-.4316.2-.3086.6621.1387.4771,1.0625,2.8638,1.2627,3.2334.0156.0615.0459.0767.0615.0308.2-.37,1.0625-2.4175,1.2471-2.9717a2.1428,2.1428,0,0,0,.17-.6314c0-.0922-.0928-.2617-.5088-.354-.123-.0307-.1845-.0771-.1845-.1386,0-.0459.0615-.0616.1845-.0616.1856,0,.416.0464.7549.0464.2461,0,.6465-.0464.7852-.0464.1074,0,.2158.0308.2158.0923s-.0928.0928-.2315.1387c-.3076.0772-.4775.2617-.6621.6929-.3535.77-1.1386,2.4941-1.2929,2.8637a16.533,16.533,0,0,0-.7393,1.7247c-.0771.23-.1387.2617-.1846.2617s-.1074-.0156-.1689-.2315c-.0772-.23-.1856-.6-.4-1.185-.2773-.7085-1.1856-3.11-1.4473-3.6031a.9124.9124,0,0,0-.6933-.5385c-.1387-.0308-.2149-.0772-.2149-.1236,0-.0615.0762-.1074.2617-.1074.4307,0,.6924.0615,1.1543.0615C301.5518,95.4573,301.8135,95.4109,302.06,95.4109Z"/><path class="cls-1" d="M310.6514,96.8431a.1809.1809,0,0,1-.1543.1689c-.1231-.0151-2.125-.0459-2.4785-.0459h-.8311c-.0313,0-.1084.0772-.1387.1231a2.12,2.12,0,0,0-.123.8467,2.76,2.76,0,0,0,.7081,1.8632,2.0775,2.0775,0,0,0,1.539.6309,1.9628,1.9628,0,0,0,1.4628-.4927c.1232-.123.1846-.0923.1846-.0151a.585.585,0,0,1-.1532.2461,2.7228,2.7228,0,0,1-2.1405.9707,2.486,2.486,0,0,1-1.8321-.7857,3.01,3.01,0,0,1-.7392-2.063,3.21,3.21,0,0,1,.8935-2.248,2.8626,2.8626,0,0,1,1.9238-.77A1.7768,1.7768,0,0,1,310.6514,96.8431Zm-3.1407-.7852a1.3435,1.3435,0,0,0-.3232.6309.0657.0657,0,0,0,.0615.0615l2.001-.0151c.3389,0,.3691-.1695.3691-.3081a.9917.9917,0,0,0-.2148-.6465,1.08,1.08,0,0,0-.77-.2925A1.5959,1.5959,0,0,0,307.5107,96.0579Z"/><path class="cls-1" d="M313.3779,96.3963a.8875.8875,0,0,0-.2617.5391,9.0212,9.0212,0,0,0-.0156.9389c0,1.14.0312,1.94.0615,2.2632.0615.4776.2471.5855.832.647.2149.0312.292.0615.292.1387s-.1386.1074-.3691.1074c-.293,0-.8008-.0615-1.4473-.0615a8.287,8.287,0,0,0-.9394.0927c-.1846,0-.2617-.0312-.2617-.0927,0-.0459.1084-.1231.2314-.1534a.6366.6366,0,0,0,.5537-.6318c.0314-.2617.0469-1.1392.0469-2.1553V96.32c0-.1079-.1084-.1543-.4-.4-.1084-.0772-.1232-.1236-.1232-.1543s.0918-.0923.2305-.1382a4.684,4.684,0,0,0,.9855-.37.485.485,0,0,1,.2314-.0771c.03,0,.0615.0615.0615.2158,0,.1694-.0156.7544-.0156,1.0005,0,.0464.03.0615.0772.0156a2.5116,2.5116,0,0,1,1.6621-1.1084.897.897,0,0,1,.539.2.27.27,0,0,1,.1084.2159,1.0564,1.0564,0,0,1-.3388.5234c-.1387.123-.2.1387-.2471.1387a.6966.6966,0,0,1-.2764-.1079,1.0791,1.0791,0,0,0-.539-.1846A1.0516,1.0516,0,0,0,313.3779,96.3963Z"/><path class="cls-1" d="M318.1211,95.4109c.1533,0,.2617.0464.2617.108s-.1084.1079-.2.123c-.3388.1079-.37.1851-.2314.585.2.539,1.0468,2.6176,1.3554,3.2641.03.0616.0762.0464.0918,0,.2-.5234,1.0625-2.7407,1.1856-3.0947a1.1551,1.1551,0,0,0,.0771-.4463c0-.1079-.0771-.2309-.3389-.3081-.2305-.0459-.2774-.0923-.2774-.1387,0-.0615.0773-.0923.2157-.0923.1846,0,.5079.0464.7393.0464.2773,0,.4775-.0464.708-.0464.0928,0,.1846.0157.1846.0616s-.0615.1079-.2149.1543c-.3086.0923-.4619.2-.7089.7695-.1846.3848-1.1387,2.7559-1.37,3.3408-.1845.5083-.3232.8623-.6465,1.6939-.3691.8935-.9541,2.4941-1.17,3.0175a2.1289,2.1289,0,0,1-.2929.57.58.58,0,0,1-.5079.2617.512.512,0,0,1-.5078-.5088.4546.4546,0,0,1,.4307-.4463c.1084,0,.2.0313.3086.0313a.3719.3719,0,0,0,.3994-.2618c.1543-.3232.6006-1.5859,1.124-2.9257a.6609.6609,0,0,0-.0146-.4922c-.0928-.2471-1.2168-3.0953-1.9092-4.604a.8263.8263,0,0,0-.5547-.4156c-.1846-.0464-.2773-.1079-.2773-.1543,0-.0766.1386-.1074.247-.1074.2764,0,.708.0615,1.0772.0615C317.5205,95.4573,317.9209,95.4109,318.1211,95.4109Z"/><path class="cls-1" d="M325.959,95.4266c.1387,0,.2617.0307.2617.1074,0,.0464-.1533.1079-.2617.1235-.3692.0616-.3535.2-.292.4463.2305.7085.8926,2.4634,1.2471,3.3257.0156.0459.0771.0615.0918.0151.247-.5234.9238-2.0166,1.0781-2.417.0156-.0771.0615-.1845.03-.2617-.0762-.2-.1846-.4463-.2618-.6313a.8193.8193,0,0,0-.5849-.5078c-.1387-.0308-.2149-.0616-.2149-.1236s.0762-.0923.2305-.0923c.3232,0,.7236.0464,1.0469.0464.4463,0,.6318-.0307.9082-.0307.17,0,.2314.0307.2314.0766,0,.062-.1084.1236-.2314.1543-.3535.0767-.4463.1382-.2617.6158.17.477.9853,2.7094,1.2011,3.187.0459.0771.0772.0151.0772,0,.1846-.4.9238-2.1553,1.1084-2.6792a3.5,3.5,0,0,0,.2461-.7388c0-.1387-.0615-.2773-.4619-.3848-.2-.0615-.2461-.1079-.2461-.1543,0-.0615.0927-.0923.2-.0923.2617,0,.539.0464.7851.0464.1543,0,.5391-.0464.77-.0464.1387,0,.2159.0308.2159.0923s-.0459.0928-.2774.1543c-.2763.0767-.4619.2925-.6621.708-.2764.5542-.7383,1.6167-1.2158,2.71-.2616.6309-.5391,1.3086-.7236,1.8018-.0928.2461-.1543.292-.2.292-.0616,0-.1075-.0616-.169-.2774-.0771-.2148-.1855-.5234-.37-1.0469-.292-.831-.6152-1.709-.9238-2.5249-.0156-.0459-.0459-.0771-.0772,0-.1386.2925-.7851,1.709-1,2.2481-.2314.5078-.37.8618-.539,1.3091-.0772.2148-.1543.292-.2159.292s-.1074-.1075-.1542-.2774c-.0762-.2148-.169-.585-.4307-1.3237-.2774-.7544-1.1543-3.0332-1.3242-3.3257a.8773.8773,0,0,0-.6778-.6006c-.123-.0308-.2148-.0767-.2148-.123,0-.0923.1074-.1231.2773-.1231.1993,0,.6612.0615,1.0928.0615C325.3438,95.4573,325.6514,95.4266,325.959,95.4266Z"/><path class="cls-1" d="M337.6475,96.8431a.1809.1809,0,0,1-.1543.1689c-.1231-.0151-2.125-.0459-2.4786-.0459h-.831c-.0313,0-.1084.0772-.1387.1231a2.116,2.116,0,0,0-.123.8467,2.76,2.76,0,0,0,.708,1.8632,2.0773,2.0773,0,0,0,1.539.6309,1.9632,1.9632,0,0,0,1.4629-.4927c.1231-.123.1846-.0923.1846-.0151a.5852.5852,0,0,1-.1533.2461,2.7228,2.7228,0,0,1-2.1406.9707,2.4864,2.4864,0,0,1-1.8321-.7857,3.0108,3.0108,0,0,1-.7392-2.063,3.21,3.21,0,0,1,.8935-2.248,2.863,2.863,0,0,1,1.9239-.77A1.777,1.777,0,0,1,337.6475,96.8431Zm-3.1407-.7852a1.3435,1.3435,0,0,0-.3232.6309.0657.0657,0,0,0,.0615.0615l2.001-.0151c.3389,0,.3691-.1695.3691-.3081a.9917.9917,0,0,0-.2148-.6465,1.08,1.08,0,0,0-.77-.2925A1.5959,1.5959,0,0,0,334.5068,96.0579Z"/><path class="cls-1" d="M343.207,96.8431a.1809.1809,0,0,1-.1543.1689c-.123-.0151-2.125-.0459-2.4785-.0459h-.831c-.0313,0-.1084.0772-.1387.1231a2.1112,2.1112,0,0,0-.124.8467,2.7614,2.7614,0,0,0,.709,1.8632,2.0778,2.0778,0,0,0,1.539.6309,1.963,1.963,0,0,0,1.4629-.4927c.1231-.123.1846-.0923.1846-.0151a.5836.5836,0,0,1-.1533.2461,2.7228,2.7228,0,0,1-2.14.9707,2.4858,2.4858,0,0,1-1.832-.7857,3.01,3.01,0,0,1-.7393-2.063,3.21,3.21,0,0,1,.8935-2.248,2.8626,2.8626,0,0,1,1.9238-.77A1.7768,1.7768,0,0,1,343.207,96.8431Zm-3.1406-.7852a1.3435,1.3435,0,0,0-.3232.6309.0657.0657,0,0,0,.0615.0615l2.001-.0151c.3388,0,.3691-.1695.3691-.3081a.9917.9917,0,0,0-.2148-.6465,1.08,1.08,0,0,0-.77-.2925A1.5959,1.5959,0,0,0,340.0664,96.0579Z"/><path class="cls-1" d="M348.2119,95.4573c.3379,0,.9541-.0771,1.3545-.0771.169,0,.2305.0464.2305.0923,0,.0307-.0459.0927-.2305.1235a2.741,2.741,0,0,0-1.416.6773c-.4.3081-1.1553.9545-1.4473,1.2314-.0312.0312,0,.0771.0147.1079.4619.5391,1.57,1.7246,2.2939,2.4634a1.992,1.992,0,0,0,1.1095.7241c.1377.03.2305.0772.2305.1387,0,.0918-.1387.1074-.2619.1074-.5234,0-1.1084-.0771-1.7088-.0771-.2619,0-.4621.0156-.6925.0156-.17,0-.2774,0-.2774-.0928,0-.0762.0772-.1074.3535-.1689.2618-.0621.293-.2.1543-.4161-.3232-.37-1.416-1.5239-1.8779-1.9858-.123-.1235-.2314-.231-.293-.231-.0459,0-.0615.0923-.0615.1539-.0156.2773-.03.7851-.0156,1.6318,0,.7393.123.7851.6006.8931.1543.0468.2314.0771.2314.1386,0,.0772-.123.1084-.2929.1084-.4307,0-.7539-.0468-1.1543-.0468-.4932,0-.8164.0468-1.001.0468-.1543,0-.2461-.0468-.2461-.1084,0-.0459.0918-.0918.2-.1074.4766-.123.585-.2622.6152-.77.0615-1.124.0772-2.4175.0772-3.6182.0156-1.2011.0615-3.1718.0615-4.3725a2.64,2.64,0,0,0-.0615-.7085c-.03-.1231-.169-.2154-.3544-.3076-.0762-.0464-.1376-.0772-.1376-.108,0-.0615.0918-.0922.246-.1386a9.4994,9.4994,0,0,0,1.0929-.3692.7148.7148,0,0,1,.246-.0771c.0155,0,.0469.0464.0469.123-.0312.5083-.0771,1.8628-.0771,3.0025,0,.477-.0772,2.5092-.0772,4.2031,0,.1694.0313.2461.0772.2461a.7767.7767,0,0,0,.3076-.1694,13.1546,13.1546,0,0,0,1.663-1.54.56.56,0,0,0,.169-.2768c0-.0923-.1074-.1851-.4463-.2466-.1386-.0152-.2617-.0616-.2617-.1231s.1074-.1079.2461-.1079C347.6885,95.4417,348.042,95.4573,348.2119,95.4573Z"/><path class="cls-1" d="M350.707,100.4764a.7.7,0,0,1,.6934-.6929.6484.6484,0,0,1,.6152.6773.6615.6615,0,0,1-.6292.6921l-.0329.0007A.6779.6779,0,0,1,350.707,100.4764Z"/><path class="cls-1" d="M353.8477,91.7005a1.6714,1.6714,0,0,1-1.3858,1.4937c-.0918,0-.1377-.0308-.1377-.0772,0-.0308.0615-.0771.1533-.123a1.2326,1.2326,0,0,0,.8164-1.0318c0-.3076-.17-.5078-.5849-.6-.1543-.0464-.3086-.1387-.3086-.3237a.4581.4581,0,0,1,.4619-.4312,1.0278,1.0278,0,0,1,.9867,1.0673v0Zm1.9248,0a1.6714,1.6714,0,0,1-1.3858,1.4937c-.0771,0-.1387-.0308-.1387-.0772,0-.0308.0928-.0771.1543-.123a1.2056,1.2056,0,0,0,.8155-1.0162c0-.3232-.169-.5234-.585-.6157a.36.36,0,0,1-.292-.3237.4522.4522,0,0,1,.472-.4315h.0056a1.0239,1.0239,0,0,1,.9544,1.089h0Z"/></svg>