<svg id="Layer_1" data-name="Layer 1" xmlns="http://www.w3.org/2000/svg" viewBox="0 0 399 200"><defs><style>.cls-1,.cls-3,.cls-4,.cls-5{fill:none;stroke-linecap:round;}.cls-1,.cls-3,.cls-4{stroke:#222f3c;}.cls-1,.cls-4,.cls-5{stroke-linejoin:round;}.cls-1{stroke-width:0.5px;}.cls-2{fill:#333838;}.cls-3{stroke-miterlimit:10;}.cls-3,.cls-4,.cls-5{stroke-width:0.4px;}.cls-5{stroke:#231f20;}</style></defs><line class="cls-1" x1="241.4452" y1="121.5269" x2="232.2605" y2="121.5269"/><line class="cls-1" x1="268.786" y1="121.5269" x2="259.6013" y2="121.5269"/><line class="cls-1" x1="258.6008" y1="118.0205" x2="268.786" y2="118.0205"/><line class="cls-1" x1="232.2605" y1="118.0205" x2="242.4458" y2="118.0205"/><line class="cls-1" x1="237.6797" y1="143.1772" x2="240.0121" y2="143.1772"/><line class="cls-1" x1="249.357" y1="143.1772" x2="251.6894" y2="143.1772"/><line class="cls-1" x1="261.0344" y1="143.1772" x2="263.3668" y2="143.1772"/><line class="cls-1" x1="243.5184" y1="146.3499" x2="245.8508" y2="146.3499"/><line class="cls-1" x1="255.1957" y1="146.3499" x2="257.5281" y2="146.3499"/><polyline class="cls-1" points="232.26 138.802 238.348 136.464 244.435 138.802 248.77 137.137 248.77 131.16"/><polyline class="cls-1" points="268.786 138.802 262.699 136.464 256.612 138.802 252.276 137.137 252.276 131.161"/><circle class="cls-1" cx="250.5232" cy="122.2239" r="9.1044" transform="translate(41.732 306.9041) rotate(-67.5)"/><polyline class="cls-1" points="244.171 128.743 232.26 128.743 232.26 149.737 268.786 149.737 268.786 128.743 256.876 128.743"/><path class="cls-1" d="M246.7976,123.8261c0-2.0576,3.7256-6.5362,3.7256-6.5362s3.7256,4.4786,3.7256,6.5362a3.7256,3.7256,0,1,1-7.4512,0Z"/><polyline class="cls-1" points="276.275 113.559 272.613 113.559 270.733 115.24 268.959 115.24 268.959 123.997 270.733 123.997 272.613 125.678 276.275 125.678"/><path class="cls-2" d="M295.9,138.9471c.37,0,1.001.0615,1.4629.0615.3388,0,.708-.0312,1.0312-.0312.2159,0,.3076.0468.3076.1084,0,.0771-.0917.123-.2763.1533-.4317.0771-.4317.2617-.3233.539.6465,1.6016,2.1709,4.8809,3.2178,7.1905.0459.1074.1074.0771.1533,0,.4317-.878.8008-1.6475,1.2168-2.6328a.4285.4285,0,0,0,.03-.1846c-.2461-.585-1.2773-2.9258-1.6162-3.6651-.4463-.9541-.5693-1.1386-1.0469-1.2617-.2461-.0468-.3232-.1084-.3232-.1855,0-.0459.0918-.0918.292-.0918.4472,0,.7392.0615,1.2939.0615s.9082-.0615,1.2617-.0615c.1543,0,.2618.03.2618.0918,0,.0771-.0918.124-.292.17-.4161.0771-.5694.2617-.3389.8311.2461.6464.708,1.6933,1.2168,2.8642.0146.03.0762.0459.123-.0312.3692-.7539.6924-1.4629,1.0157-2.2168.4775-1.1241.4619-1.2784-.2-1.4317-.2774-.0615-.3233-.123-.3233-.1855,0-.0459.0928-.0762.2774-.0762.3847,0,.6308.0459,1.0312.0459.5391,0,.7852-.0615,1.14-.0615.1845,0,.2617.0156.2617.0771,0,.0772-.0772.1231-.293.169-.5693.123-.8623.4463-1.37,1.34-.4.77-1.1543,2.294-1.416,2.7715a.2654.2654,0,0,0,.0156.1846c.3848.9082,1.0615,2.3711,1.585,3.5254.0615.1074.1084.0771.1386,0,.7393-1.6016,2.6026-5.9121,2.9258-7.0518.0772-.3379.0615-.6-.4463-.7539-.247-.0771-.3388-.1074-.3388-.17s.0459-.0918.2617-.0918c.4,0,.6152.0615,1.0771.0615.4317,0,.8467-.0615,1.1241-.0615.2,0,.2773.0156.2773.0771s-.0771.1231-.3545.169c-.6465.17-.9238.4931-1.8935,2.6787-.97,2.125-2.2168,5.0351-2.9249,6.7285-.1084.2617-.1542.3545-.2314.3545-.1074,0-.1689-.1084-.2617-.3545-.3233-.94-1.2-2.8486-1.6475-3.834-.03-.0615-.0771-.0615-.1074-.0146-.585,1.1386-1.4014,2.94-1.74,3.833-.0918.2461-.1846.37-.2461.37-.0918,0-.1231-.0928-.23-.37-.2-.5078-.6777-1.6319-.8779-2.0938-.8467-1.9551-1.878-4.2343-2.6016-5.7431-.5547-1.2-.6777-1.4776-1.2627-1.5547-.1846-.0156-.3232-.0772-.3232-.1387C295.5928,139.0086,295.7,138.9471,295.9,138.9471Z"/><path class="cls-2" d="M312.1465,143.7508a3.7348,3.7348,0,0,1,.2148,1.4c0,.57-.0459,2.0332-.0459,2.4326a.5273.5273,0,0,0,.5694.585.9883.9883,0,0,0,.4472-.1377c.0918-.0469.1534,0,.0918.1377a1.296,1.296,0,0,1-1.1855.6621,1.0332,1.0332,0,0,1-.9082-.6924.0533.0533,0,0,0-.0772-.0156,2.1533,2.1533,0,0,1-1.5088.6933,1.2775,1.2775,0,0,1-1.2314-1.3242,1.0865,1.0865,0,0,1,.5537-.8779c.37-.2,1.7715-.6153,2.0947-.7393a.2905.2905,0,0,0,.2-.2305,5.3029,5.3029,0,0,0,.03-.708c0-.6318-.1074-1.0625-.3691-1.2627a1.17,1.17,0,0,0-.6465-.246,1.0585,1.0585,0,0,0-.6162.1845.6184.6184,0,0,0-.2315.3692,1.6743,1.6743,0,0,0-.0146.2929.1941.1941,0,0,1-.0616.1231,3.3545,3.3545,0,0,1-.7236.3388c-.0771.0157-.1543-.0771-.1543-.1386,0-.1074.1074-.2461.293-.4619a3.968,3.968,0,0,1,1.17-.8926,2.0532,2.0532,0,0,1,.9238-.2774A1.2624,1.2624,0,0,1,312.1465,143.7508Zm-1.0322,4.2334a.6391.6391,0,0,0,.17-.3691,11.09,11.09,0,0,0,.0771-1.4629c0-.0157-.0312-.0918-.0625-.0772a8.787,8.787,0,0,0-1.416.5234.798.798,0,0,0-.3848.7706.8944.8944,0,0,0,.9239.8623A1.0527,1.0527,0,0,0,311.1143,147.9842Z"/><path class="cls-2" d="M314.4717,148.0926a1.7345,1.7345,0,0,1-.1846-.8779v-3.1866c0-.17-.0156-.2773-.0771-.3086a2.5537,2.5537,0,0,0-.3692-.0918c-.123-.0312-.2-.0771-.2-.1386,0-.0313.0156-.0772.1846-.1543a3.2762,3.2762,0,0,0,1.2627-1.0313c.1387-.1543.2461-.123.2461-.0468,0,.1386-.03.57-.0147.7548,0,.0459.0147.1387.0762.1387.2774,0,1.5557-.0459,1.8789-.0459.03,0,.0918.1074.0918.2149,0,.2617-.0762.3847-.1533.3847-.5391,0-1.294-.0146-1.709-.0146-.1846,0-.2158.0459-.2158.1386,0,.2618.0156,2.6788.0312,3.1563a1.5779,1.5779,0,0,0,.169.831,1.14,1.14,0,0,0,.9541.4161A1.503,1.503,0,0,0,317.29,148c.1075-.0771.1534-.0615.1534,0,0,.0928-.1387.2461-.3389.4a2.11,2.11,0,0,1-1.2471.4A1.4273,1.4273,0,0,1,314.4717,148.0926Z"/><path class="cls-2" d="M322.4951,144.5359a.18.18,0,0,1-.1543.169c-.123-.0156-2.125-.0459-2.4785-.0459h-.8311c-.0312,0-.1083.0771-.1386.123a2.1113,2.1113,0,0,0-.124.8467,2.76,2.76,0,0,0,.7089,1.8633,2.0777,2.0777,0,0,0,1.5391.6309,1.967,1.967,0,0,0,1.4629-.4922c.123-.1231.1846-.0928.1846-.0156a.5861.5861,0,0,1-.1534.246,2.7216,2.7216,0,0,1-2.1406.97,2.4837,2.4837,0,0,1-1.832-.7852,3.0083,3.0083,0,0,1-.7393-2.0625,3.21,3.21,0,0,1,.8936-2.248,2.8623,2.8623,0,0,1,1.9238-.77A1.7764,1.7764,0,0,1,322.4951,144.5359Zm-3.1406-.7851a1.3406,1.3406,0,0,0-.3233.6309.0654.0654,0,0,0,.0616.0615l2.001-.0156c.3388,0,.3691-.169.3691-.3077a.9918.9918,0,0,0-.2149-.6465,1.0782,1.0782,0,0,0-.77-.2929A1.5964,1.5964,0,0,0,319.3545,143.7508Z"/><path class="cls-2" d="M325.2217,144.09a.885.885,0,0,0-.2617.538,9.0225,9.0225,0,0,0-.0157.94c0,1.14.0313,1.94.0616,2.2637.0615.4765.247.5849.832.6465.2148.03.292.0615.292.1386s-.1387.1074-.3692.1074c-.2929,0-.8007-.0615-1.4472-.0615a8.2852,8.2852,0,0,0-.9395.0928c-.1845,0-.2617-.0313-.2617-.0928,0-.0459.1084-.123.2315-.1543a.6346.6346,0,0,0,.5537-.6308c.0312-.2617.0468-1.14.0468-2.1553v-1.709c0-.1084-.1084-.1543-.4-.4-.1084-.0771-.123-.123-.123-.1543s.0918-.0918.2305-.1386a4.619,4.619,0,0,0,.9853-.3692.4858.4858,0,0,1,.2315-.0771c.03,0,.0615.0615.0615.2158,0,.1689-.0156.7539-.0156,1.001,0,.0459.03.0615.0771.0146a2.5152,2.5152,0,0,1,1.6621-1.1084.8969.8969,0,0,1,.5391.2.2683.2683,0,0,1,.1074.2158,1.0522,1.0522,0,0,1-.3379.5235c-.1387.123-.2.1386-.2471.1386a.6917.6917,0,0,1-.2763-.1084,1.0848,1.0848,0,0,0-.5391-.1845A1.0483,1.0483,0,0,0,325.2217,144.09Z"/><path class="cls-2" d="M306.4248,156.2859a.2722.2722,0,0,1,.1533.2618c-.03.3691.0469,1.0312.0469,1.1855s-.0615.2461-.0928.2461c-.0615,0-.1074-.0771-.1386-.2a2.3961,2.3961,0,0,0-.7393-1.2314,3.5275,3.5275,0,0,0-2.3555-.77,3.7138,3.7138,0,0,0-2.6787,1.2011,5.5592,5.5592,0,0,0-1.17,3.5723,5.8334,5.8334,0,0,0,1.416,3.7256,3.6768,3.6768,0,0,0,2.6328,1.14,3.2642,3.2642,0,0,0,1.8321-.4316,2.7563,2.7563,0,0,0,1.1855-1.5088c.0615-.2.0928-.2617.1543-.2617s.0918.1387.0918.2314a11.0518,11.0518,0,0,1-.2148,1.2158.4173.4173,0,0,1-.1543.2315,5.585,5.585,0,0,1-3.002.8467,5.3,5.3,0,0,1-4.0029-1.6319,5.3888,5.3888,0,0,1-1.294-3.4033,4.91,4.91,0,0,1,1.7246-3.8945,5.5336,5.5336,0,0,1,3.5879-1.2783A7.1085,7.1085,0,0,1,306.4248,156.2859Z"/><path class="cls-2" d="M311.3232,160.5506a3.7327,3.7327,0,0,1,.2149,1.4c0,.57-.0459,2.0322-.0459,2.4326a.528.528,0,0,0,.5693.5859.9911.9911,0,0,0,.4473-.1386c.0918-.0469.1533,0,.0918.1386a1.297,1.297,0,0,1-1.1856.6612,1.0333,1.0333,0,0,1-.9082-.6924.0532.0532,0,0,0-.0771-.0156,2.1533,2.1533,0,0,1-1.5088.6933,1.2775,1.2775,0,0,1-1.2314-1.3242,1.0865,1.0865,0,0,1,.5537-.8779c.37-.2,1.7714-.6153,2.0947-.7393a.2907.2907,0,0,0,.2-.23,5.3051,5.3051,0,0,0,.03-.7081c0-.6318-.1075-1.0625-.3692-1.2627a1.1707,1.1707,0,0,0-.6465-.246,1.06,1.06,0,0,0-.6162.1845.6182.6182,0,0,0-.2314.3692,1.6631,1.6631,0,0,0-.0147.2929.194.194,0,0,1-.0615.1231,3.3566,3.3566,0,0,1-.7236.3388c-.0772.0157-.1543-.0771-.1543-.1386,0-.1074.1074-.2461.2929-.4619a3.9925,3.9925,0,0,1,1.17-.8936,2.063,2.063,0,0,1,.9238-.2764A1.2623,1.2623,0,0,1,311.3232,160.5506Zm-1.0322,4.2334a.6391.6391,0,0,0,.17-.3691,11.086,11.086,0,0,0,.0772-1.4629c0-.0157-.0313-.0918-.0625-.0772a8.7754,8.7754,0,0,0-1.416.5235.7977.7977,0,0,0-.3848.77.8944.8944,0,0,0,.9238.8623A1.0523,1.0523,0,0,0,310.291,164.784Z"/><path class="cls-2" d="M317.9756,160.2889a3.2165,3.2165,0,0,1,.4922,2.0166c0,.8164.0156.9394.0156,1.709.0156,1.0468.0615,1.14.4775,1.247.1387.0616.2305.0928.2305.1543,0,.0918-.123.1075-.2773.1075-.2,0-.6465-.0616-.9854-.0616-.5234,0-.7236.0616-.9541.0616-.1387,0-.2461-.03-.2461-.0928s.0918-.1231.292-.169c.37-.0927.4316-.2.4316-.6464v-2.0938c0-1.2471-.1083-1.6172-.4931-1.9092a1.37,1.37,0,0,0-.8779-.2929,1.8413,1.8413,0,0,0-1.2.4931.7937.7937,0,0,0-.1846.4619c0,.1846.0146.97.0146,1.8936a12.54,12.54,0,0,0,.0928,1.6162c.0459.3389.2305.416.4775.4932.1846.0459.2618.0771.2618.1533,0,.0928-.1543.0928-.3086.0928-.1231,0-.877-.0616-1.2315-.0616-.2,0-.5234.0313-.8154.0313-.17,0-.293-.0313-.293-.1084,0-.0615.1387-.1231.3233-.1533.3847-.0772.4463-.1856.4619-.4932.0312-1.1084.0312-2.5254.0312-3.7725,0-.1533-.0312-.3232-.4-.5234-.0927-.0615-.123-.0918-.123-.1377,0-.0312.0762-.0771.2148-.124a5.7312,5.7312,0,0,0,1.2168-.5235c.0459-.0146.1231.0469.1075.1231a6.8672,6.8672,0,0,0-.03.8164c0,.0312.0459.0771.0762.0459a5.3385,5.3385,0,0,1,1.0937-.6924,2.0758,2.0758,0,0,1,.9082-.1846A1.5725,1.5725,0,0,1,317.9756,160.2889Z"/><path class="cls-2" d="M323.4736,160.5506a3.7327,3.7327,0,0,1,.2149,1.4c0,.57-.0459,2.0322-.0459,2.4326a.5279.5279,0,0,0,.5693.5859.9911.9911,0,0,0,.4473-.1386c.0918-.0469.1533,0,.0918.1386a1.297,1.297,0,0,1-1.1856.6612,1.0333,1.0333,0,0,1-.9082-.6924.0532.0532,0,0,0-.0771-.0156,2.1534,2.1534,0,0,1-1.5088.6933,1.2776,1.2776,0,0,1-1.2315-1.3242,1.0866,1.0866,0,0,1,.5538-.8779c.37-.2,1.7714-.6153,2.0947-.7393a.2907.2907,0,0,0,.2-.23,5.3051,5.3051,0,0,0,.03-.7081c0-.6318-.1075-1.0625-.3692-1.2627a1.1707,1.1707,0,0,0-.6465-.246,1.06,1.06,0,0,0-.6162.1845.6182.6182,0,0,0-.2314.3692,1.6631,1.6631,0,0,0-.0147.2929.194.194,0,0,1-.0615.1231,3.3566,3.3566,0,0,1-.7236.3388c-.0772.0157-.1543-.0771-.1543-.1386,0-.1074.1074-.2461.2929-.4619a3.9925,3.9925,0,0,1,1.17-.8936,2.063,2.063,0,0,1,.9238-.2764A1.2623,1.2623,0,0,1,323.4736,160.5506Zm-1.0322,4.2334a.6391.6391,0,0,0,.17-.3691,11.086,11.086,0,0,0,.0772-1.4629c0-.0157-.0313-.0918-.0625-.0772a8.7754,8.7754,0,0,0-1.416.5235.7977.7977,0,0,0-.3848.77.8944.8944,0,0,0,.9238.8623A1.0525,1.0525,0,0,0,322.4414,164.784Z"/><path class="cls-2" d="M326.9072,161.7205c0,1.94.0157,2.6631.0313,2.9561.0146.416.1074.5234.5381.6006.0927.0156.2.0615.2.1074,0,.0615-.1075.1084-.3077.1084-.2461,0-.8007-.0313-1.0625-.0313-.4,0-.8007.0313-1.0312.0313-.1846,0-.2617-.0156-.2617-.0928s.0771-.0928.2773-.1387c.3848-.0771.4766-.2158.5381-.8925.0313-.57.0928-3.1719.1084-5.02,0-1.247.0156-2.51,0-3.1865,0-.3389-.0313-.416-.4316-.6621-.1075-.0615-.1534-.0928-.1534-.1387s.0918-.0928.2305-.123a8.0467,8.0467,0,0,0,1.1553-.3545.64.64,0,0,1,.1846-.0459c.03,0,.0459.0918.0459.1689,0,.1084-.0616,2.7715-.0616,5.0811Z"/><line class="cls-1" x1="343.2769" y1="111.1954" x2="281.8662" y2="111.1954"/><line class="cls-1" x1="281.8662" y1="128.1106" x2="343.2769" y2="128.1106"/><line class="cls-1" x1="281.8662" y1="128.1106" x2="343.2769" y2="128.1106"/><polyline class="cls-3" points="306.27 120.026 306.795 121.02 306.219 122.065"/><polyline class="cls-3" points="306.219 122.092 306.744 123.087 306.168 124.132"/><polyline class="cls-3" points="306.322 117.95 306.847 118.945 306.271 119.99"/><polyline class="cls-3" points="303.98 117.25 304.505 118.244 303.929 119.289"/><polyline class="cls-3" points="303.928 119.316 304.454 120.311 303.877 121.356"/><polyline class="cls-3" points="304.032 115.174 304.557 116.169 303.981 117.214"/><polyline class="cls-3" points="311.84 120.026 312.365 121.02 311.789 122.065"/><polyline class="cls-3" points="311.788 122.092 312.313 123.087 311.737 124.132"/><polyline class="cls-3" points="311.891 117.95 312.417 118.945 311.84 119.99"/><polyline class="cls-3" points="309.549 117.25 310.075 118.244 309.499 119.289"/><polyline class="cls-3" points="309.498 119.316 310.023 120.311 309.447 121.356"/><polyline class="cls-3" points="309.601 115.174 310.127 116.169 309.55 117.214"/><polyline class="cls-3" points="317.409 120.026 317.934 121.02 317.358 122.065"/><polyline class="cls-3" points="317.358 122.092 317.883 123.087 317.307 124.132"/><polyline class="cls-3" points="317.461 117.95 317.986 118.945 317.41 119.99"/><polyline class="cls-3" points="315.119 117.25 315.644 118.244 315.068 119.289"/><polyline class="cls-3" points="315.067 119.316 315.593 120.311 315.017 121.356"/><polyline class="cls-3" points="315.171 115.174 315.696 116.169 315.12 117.214"/><polyline class="cls-3" points="320.688 117.25 321.214 118.244 320.638 119.289"/><polyline class="cls-3" points="320.637 119.316 321.162 120.311 320.586 121.356"/><polyline class="cls-3" points="320.74 115.174 321.266 116.169 320.689 117.214"/><path class="cls-2" d="M231.9346,62.6727c.3691,0,1.0009.0615,1.4629.0615.3388,0,.708-.0308,1.0312-.0308.2158,0,.3076.0459.3076.1079,0,.0767-.0918.1231-.2763.1538-.4317.0772-.4317.2618-.3233.5386.6465,1.6016,2.1709,4.8809,3.2178,7.19.0459.1074.1074.0766.1533,0,.4317-.878.8008-1.6475,1.2168-2.6329a.43.43,0,0,0,.03-.185c-.2461-.585-1.2774-2.9253-1.6162-3.6641-.4463-.9546-.5694-1.1391-1.0469-1.2627-.2461-.0459-.3232-.1074-.3232-.1845,0-.0464.0918-.0923.2919-.0923.4473,0,.7393.0615,1.294.0615s.9082-.0615,1.2617-.0615c.1543,0,.2617.0307.2617.0923,0,.0771-.0918.123-.292.1694-.416.0766-.5693.2617-.3388.831.2461.647.708,1.6939,1.2168,2.8638.0146.0308.0761.0464.123-.0308.3692-.7543.6924-1.4624,1.0156-2.2167.4776-1.1241.462-1.2779-.2-1.4322-.2773-.0615-.3232-.123-.3232-.1845,0-.0464.0928-.0772.2773-.0772.3848,0,.6309.0464,1.0313.0464.5391,0,.7852-.0615,1.14-.0615.1846,0,.2618.0151.2618.0766,0,.0772-.0772.1236-.293.1695-.5693.1235-.8623.4467-1.37,1.34-.4.7695-1.1543,2.294-1.416,2.771a.2656.2656,0,0,0,.0156.1851c.3848.9082,1.0615,2.3706,1.5849,3.5254.0616.1079.1084.0771.1387,0,.7393-1.6011,2.6026-5.9122,2.9258-7.0513.0771-.3389.0615-.6006-.4463-.7544-.2471-.0772-.3389-.1079-.3389-.1694s.0459-.0923.2618-.0923c.4,0,.6152.0615,1.0771.0615.4317,0,.8467-.0615,1.124-.0615.2,0,.2774.0151.2774.0766s-.0772.1236-.3545.1695c-.6465.1694-.9238.4926-1.8936,2.6792-.97,2.1245-2.2168,5.0341-2.9248,6.728-.1084.2617-.1543.354-.2314.354-.1074,0-.169-.1079-.2617-.354-.3233-.9395-1.2-2.8482-1.6475-3.8335-.03-.062-.0771-.062-.1074-.0156-.585,1.1391-1.4014,2.9409-1.74,3.8335-.0918.2465-.1845.37-.246.37-.0918,0-.1231-.0923-.2305-.37-.2-.5078-.6778-1.6319-.8779-2.0938-.8467-1.9551-1.878-4.2339-2.6016-5.7427-.5547-1.2006-.6777-1.478-1.2627-1.5551-.1846-.0152-.3232-.0767-.3232-.1387C231.627,62.7342,231.7344,62.6727,231.9346,62.6727Z"/><path class="cls-2" d="M248.1807,67.4764a3.7359,3.7359,0,0,1,.2148,1.4009c0,.57-.0459,2.0322-.0459,2.4326a.5274.5274,0,0,0,.5693.5849.9861.9861,0,0,0,.4473-.1386c.0918-.0459.1533,0,.0918.1386a1.2968,1.2968,0,0,1-1.1855.6621,1.0342,1.0342,0,0,1-.9082-.6928.0542.0542,0,0,0-.0772-.0157,2.1544,2.1544,0,0,1-1.5088.6929,1.2773,1.2773,0,0,1-1.2314-1.3237,1.0874,1.0874,0,0,1,.5537-.8779c.37-.2,1.7715-.6158,2.0947-.7388a.2917.2917,0,0,0,.2-.231,5.303,5.303,0,0,0,.03-.7085c0-.6308-.1074-1.062-.3692-1.2622a1.1749,1.1749,0,0,0-.6464-.2466,1.06,1.06,0,0,0-.6163.1851.62.62,0,0,0-.2314.3691,1.6821,1.6821,0,0,0-.0146.293.1929.1929,0,0,1-.0616.1231,3.3329,3.3329,0,0,1-.7236.3388c-.0772.0152-.1543-.0771-.1543-.1386,0-.108.1074-.2466.293-.462a3.9806,3.9806,0,0,1,1.17-.893,2.0661,2.0661,0,0,1,.9238-.2774A1.2627,1.2627,0,0,1,248.1807,67.4764ZM247.1484,71.71a.6408.6408,0,0,0,.17-.37,11.0819,11.0819,0,0,0,.0771-1.4629c0-.0151-.0312-.0922-.0625-.0766a8.68,8.68,0,0,0-1.416.5234.7968.7968,0,0,0-.3848.77.8941.8941,0,0,0,.9239.8623A1.0541,1.0541,0,0,0,247.1484,71.71Z"/><path class="cls-2" d="M250.5059,71.8177a1.7313,1.7313,0,0,1-.1846-.8775v-3.187c0-.1694-.0156-.2768-.0772-.3081a2.5369,2.5369,0,0,0-.3691-.0923c-.123-.0307-.2-.0766-.2-.1381,0-.0313.0156-.0772.1846-.1543a3.2823,3.2823,0,0,0,1.2627-1.0313c.1386-.1543.2461-.1235.2461-.0464,0,.1387-.03.57-.0147.7544,0,.0464.0147.1387.0762.1387.2773,0,1.5557-.0464,1.8789-.0464.03,0,.0918.1079.0918.2158,0,.2617-.0762.3848-.1533.3848-.5391,0-1.294-.0156-1.709-.0156-.1846,0-.2158.0464-.2158.1386,0,.2618.0156,2.6792.0312,3.1563a1.5778,1.5778,0,0,0,.169.8315,1.1376,1.1376,0,0,0,.9541.4156,1.508,1.508,0,0,0,.8476-.231c.1074-.0771.1533-.0615.1533,0,0,.0923-.1386.2466-.3388.4a2.1127,2.1127,0,0,1-1.2471.4A1.4268,1.4268,0,0,1,250.5059,71.8177Z"/><path class="cls-2" d="M258.5293,68.2615a.181.181,0,0,1-.1543.169c-.123-.0152-2.125-.0459-2.4785-.0459h-.8311c-.0312,0-.1084.0771-.1386.123a2.1133,2.1133,0,0,0-.1231.8467,2.76,2.76,0,0,0,.708,1.8633,2.0776,2.0776,0,0,0,1.5391.6308,1.9632,1.9632,0,0,0,1.4629-.4926c.123-.1231.1845-.0923.1845-.0152a.585.585,0,0,1-.1533.2461,2.7223,2.7223,0,0,1-2.1406.97,2.4854,2.4854,0,0,1-1.832-.7851,3.0105,3.0105,0,0,1-.7393-2.063,3.21,3.21,0,0,1,.8936-2.248,2.8626,2.8626,0,0,1,1.9238-.77A1.7768,1.7768,0,0,1,258.5293,68.2615Zm-3.1406-.7851a1.343,1.343,0,0,0-.3233.6308.0658.0658,0,0,0,.0616.0616l2.0009-.0152c.3389,0,.3692-.1694.3692-.3081a.9917.9917,0,0,0-.2149-.6465,1.08,1.08,0,0,0-.77-.2924A1.5957,1.5957,0,0,0,255.3887,67.4764Z"/><path class="cls-2" d="M261.2559,67.8148a.8881.8881,0,0,0-.2618.539,9.0379,9.0379,0,0,0-.0156.939c0,1.14.0313,1.94.0615,2.2632.0616.4775.2471.5854.8321.6469.2148.0308.292.0616.292.1382s-.1387.1079-.3692.1079c-.2929,0-.8008-.0615-1.4472-.0615a8.3285,8.3285,0,0,0-.9395.0923c-.1846,0-.2617-.0308-.2617-.0923,0-.0464.1084-.123.2314-.1538a.6362.6362,0,0,0,.5537-.6313c.0313-.2618.0469-1.1392.0469-2.1553v-1.709c0-.1079-.1084-.1543-.4-.4-.1084-.0771-.123-.123-.123-.1543s.0918-.0923.23-.1382a4.6671,4.6671,0,0,0,.9854-.37.4864.4864,0,0,1,.2314-.0772c.03,0,.0616.0616.0616.2159,0,.1694-.0157.7544-.0157,1.0005,0,.0463.03.0615.0772.0156a2.5125,2.5125,0,0,1,1.6621-1.1089.8965.8965,0,0,1,.5391.2.27.27,0,0,1,.1084.2158,1.0551,1.0551,0,0,1-.3389.5234c-.1387.1231-.2.1387-.2471.1387a.6951.6951,0,0,1-.2763-.1079,1.0808,1.0808,0,0,0-.5391-.1846A1.0518,1.0518,0,0,0,261.2559,67.8148Z"/><path class="cls-2" d="M238.8164,78.1185a2.5885,2.5885,0,0,0,1.2627-.169c.0615-.0464.1074-.062.123-.0312a.3418.3418,0,0,1,.0157.2,4.8387,4.8387,0,0,0-.0459,1.17c0,.2309-.0772.3384-.1231.3384-.0615,0-.1084-.1382-.124-.2154a1.4218,1.4218,0,0,0-.2764-.7236c-.1386-.1231-.3388-.1846-1.417-.1846-.4765,0-1.247,0-1.4931.0308-.0772.0151-.0928.1382-.0928.2461,0,.57-.03,4.8037-.03,4.8037-.0156.8623.0459,2.7715.0918,3.2485.0625.5235.2159.6314.7393.7852.1846.0464.2617.0771.2617.1538,0,.0928-.1074.1079-.3076.1079-.3545,0-.8311-.0923-1.4473-.0923-.7851,0-1.247.0923-1.4931.0923-.2,0-.2774-.0615-.2774-.1387,0-.0615.1387-.1074.3076-.1382.7393-.1079.8321-.3544.878-1.0625.1074-1.4936.1074-7.621.0771-7.8364-.0156-.1387-.0615-.185-.1084-.185a9.4351,9.4351,0,0,0-1.1543-.0459,12.0406,12.0406,0,0,0-1.3086.0615c-.2929.0615-.4931.2461-.708.8467-.0771.1845-.1543.2617-.2158.2617s-.0615-.1231-.0459-.231a9.0356,9.0356,0,0,0,.2-1.3242c.0146-.123.0146-.2.0918-.2309.0312-.0152.0771.0156.123.0615a.842.842,0,0,0,.4932.1543c.2461.0151,1.77.0615,3.3564.0615Z"/><path class="cls-2" d="M241.0049,83.2147a.8873.8873,0,0,0-.2617.539,9.0064,9.0064,0,0,0-.0157.939c0,1.14.0313,1.94.0616,2.2632.0615.4775.247.5849.832.6469.2148.0308.292.0616.292.1382s-.1387.1079-.3692.1079c-.2929,0-.8007-.0615-1.4472-.0615a8.3285,8.3285,0,0,0-.94.0923c-.1845,0-.2617-.0308-.2617-.0923,0-.0464.1084-.123.2315-.1538a.6363.6363,0,0,0,.5537-.6313c.0312-.2618.0468-1.1392.0468-2.1553V83.138c0-.1079-.1084-.1543-.4-.4-.1083-.0771-.123-.1235-.123-.1543s.0918-.0923.23-.1382a4.6682,4.6682,0,0,0,.9853-.37.4858.4858,0,0,1,.2315-.0771c.03,0,.0615.0615.0615.2158,0,.1694-.0156.7544-.0156,1,0,.0463.03.0615.0771.0156a2.5117,2.5117,0,0,1,1.6621-1.1084.8957.8957,0,0,1,.5391.2.2689.2689,0,0,1,.1074.2158,1.0522,1.0522,0,0,1-.3379.5235c-.1387.123-.2.1386-.2471.1386a.6951.6951,0,0,1-.2763-.1079,1.08,1.08,0,0,0-.5391-.1846A1.052,1.052,0,0,0,241.0049,83.2147Z"/><path class="cls-2" d="M248.0879,83.6614a.181.181,0,0,1-.1543.169c-.1231-.0152-2.125-.0459-2.4785-.0459h-.8311c-.0312,0-.1084.0771-.1386.123a2.115,2.115,0,0,0-.1231.8467,2.76,2.76,0,0,0,.708,1.8633,2.0777,2.0777,0,0,0,1.5391.6309,1.9633,1.9633,0,0,0,1.4629-.4927c.123-.1231.1845-.0923.1845-.0152a.585.585,0,0,1-.1533.2461,2.7223,2.7223,0,0,1-2.1406.97,2.4854,2.4854,0,0,1-1.832-.7851,3.01,3.01,0,0,1-.7393-2.063,3.21,3.21,0,0,1,.8936-2.248,2.8626,2.8626,0,0,1,1.9238-.77A1.7768,1.7768,0,0,1,248.0879,83.6614Zm-3.1406-.7851a1.343,1.343,0,0,0-.3233.6308.0658.0658,0,0,0,.0615.0616l2.001-.0152c.3389,0,.3692-.1694.3692-.3081a.9918.9918,0,0,0-.2149-.6465,1.08,1.08,0,0,0-.77-.2924A1.5957,1.5957,0,0,0,244.9473,82.8763Z"/><path class="cls-2" d="M252.6318,82.8763a3.7337,3.7337,0,0,1,.2149,1.4009c0,.57-.0459,2.0322-.0459,2.4326a.5274.5274,0,0,0,.5693.5849.9848.9848,0,0,0,.4473-.1386c.0918-.0459.1533,0,.0918.1386a1.2968,1.2968,0,0,1-1.1856.6621,1.0345,1.0345,0,0,1-.9082-.6928.054.054,0,0,0-.0771-.0156,2.1547,2.1547,0,0,1-1.5088.6928,1.2774,1.2774,0,0,1-1.2315-1.3237,1.0875,1.0875,0,0,1,.5538-.8779c.37-.2,1.7714-.6158,2.0947-.7388a.2919.2919,0,0,0,.2-.231,5.3067,5.3067,0,0,0,.03-.7085c0-.6308-.1075-1.062-.3692-1.2622a1.1747,1.1747,0,0,0-.6465-.2465,1.06,1.06,0,0,0-.6162.185.62.62,0,0,0-.2314.37,1.6617,1.6617,0,0,0-.0147.2925.1928.1928,0,0,1-.0615.1231,3.3329,3.3329,0,0,1-.7236.3388c-.0772.0152-.1543-.0771-.1543-.1386,0-.1079.1074-.2466.2929-.462a3.9822,3.9822,0,0,1,1.17-.893,2.0661,2.0661,0,0,1,.9238-.2774A1.2626,1.2626,0,0,1,252.6318,82.8763ZM251.6,87.11a.64.64,0,0,0,.17-.37,11.0782,11.0782,0,0,0,.0772-1.4629c0-.0151-.0313-.0922-.0625-.0766a8.689,8.689,0,0,0-1.416.5234.7968.7968,0,0,0-.3848.77.8941.8941,0,0,0,.9238.8623A1.0544,1.0544,0,0,0,251.6,87.11Z"/><path class="cls-2" d="M254.957,87.2176a1.7325,1.7325,0,0,1-.1845-.8775v-3.187c0-.1694-.0157-.2768-.0772-.3081a2.54,2.54,0,0,0-.3691-.0923c-.1231-.0307-.2-.0766-.2-.1386,0-.0308.0156-.0767.1845-.1538a3.2808,3.2808,0,0,0,1.2627-1.0313c.1387-.1543.2461-.1235.2461-.0464,0,.1387-.03.57-.0146.7544,0,.0464.0146.1387.0762.1387.2773,0,1.5556-.0464,1.8789-.0464.03,0,.0918.1079.0918.2158,0,.2617-.0762.3848-.1534.3848-.539,0-1.2939-.0156-1.7089-.0156-.1846,0-.2159.0464-.2159.1386,0,.2618.0157,2.6792.0313,3.1563a1.5791,1.5791,0,0,0,.1689.8315,1.1379,1.1379,0,0,0,.9541.4156,1.5082,1.5082,0,0,0,.8477-.231c.1074-.0767.1533-.0615.1533,0,0,.0923-.1387.2466-.3389.4a2.1121,2.1121,0,0,1-1.247.4A1.427,1.427,0,0,1,254.957,87.2176Z"/><path class="cls-2" d="M258.5918,82.6912c0-.0459.0615-.0771.1846-.1079a3.0612,3.0612,0,0,0,1.0468-.4614.4439.4439,0,0,1,.2305-.0928c.0469,0,.0772.0615.0772.1543,0,.169-.0157.6,0,.7544,0,.0615.0156.1382.0771.0923a3.2375,3.2375,0,0,1,1.9092-.8931,1.5755,1.5755,0,0,1,1.539.97.1036.1036,0,0,0,.1084.0308,3.0876,3.0876,0,0,1,2.1094-1.0474,1.5871,1.5871,0,0,1,1.5547,1.14,5.0239,5.0239,0,0,1,.1846,1.4473c.0156.5078.0469,1.6782.0615,2.2167.0156.5083.1084.6158.4463.6778.2158.0459.2773.0923.2773.1382,0,.0771-.0771.1079-.2617.1079-.1689,0-.708-.0308-1.0625-.0308-.3691,0-.708.0464-.9385.0464-.2,0-.3086-.0308-.3086-.0928,0-.0766.1387-.123.2618-.1538.4472-.0923.5234-.2309.5234-.6929a19.5451,19.5451,0,0,0-.1074-3.0483,1.1926,1.1926,0,0,0-1.293-1.1548,1.9227,1.9227,0,0,0-1.3086.57.7521.7521,0,0,0-.1084.4927c.0313.4312.0772,2.7866.1084,3.2022.0459.4311.0918.539.4766.6313.17.0615.2471.0772.2471.1387s-.0928.0923-.2618.0923c-.2773,0-.7392-.0308-1.1855-.0308-.3389,0-.708.0308-.8779.0308s-.2461-.0308-.2461-.0923c0-.0464.0771-.1079.2773-.1538.3232-.062.4766-.1387.4766-.5083l.0156-2.4634c0-.8467-.0772-1.2007-.3848-1.5395a1.1762,1.1762,0,0,0-.9394-.3389,1.7415,1.7415,0,0,0-1.1543.4468.5577.5577,0,0,0-.1846.3691,9.4545,9.4545,0,0,0-.0615,1.0469c0,1.14.0615,2.2173.0918,2.4946a.5254.5254,0,0,0,.4931.5078c.169.0308.2305.0772.2305.1231,0,.0771-.123.1079-.2305.1079-.2929,0-.8007-.0308-1.1709-.0308-.4765,0-.8.0308-1,.0308-.1386,0-.2773-.0464-.2773-.1079s.0928-.1075.3076-.1382c.4776-.1079.4776-.2774.5088-.4619.0615-.3238.0615-1.5708.0615-2.4634,0-.57.0147-.9546-.0156-1.2471a.5816.5816,0,0,0-.3545-.539c-.1074-.0616-.1387-.0923-.1387-.1695Z"/><path class="cls-2" d="M273.8369,83.6614a.1809.1809,0,0,1-.1543.169c-.123-.0152-2.125-.0459-2.4785-.0459h-.8311c-.0312,0-.1084.0771-.1386.123a2.1113,2.1113,0,0,0-.124.8467,2.7608,2.7608,0,0,0,.7089,1.8633,2.0777,2.0777,0,0,0,1.5391.6309,1.9633,1.9633,0,0,0,1.4629-.4927c.123-.1231.1846-.0923.1846-.0152a.5856.5856,0,0,1-.1534.2461,2.7223,2.7223,0,0,1-2.1406.97,2.4854,2.4854,0,0,1-1.832-.7851,3.0105,3.0105,0,0,1-.7393-2.063,3.21,3.21,0,0,1,.8936-2.248,2.8626,2.8626,0,0,1,1.9238-.77A1.7768,1.7768,0,0,1,273.8369,83.6614Zm-3.1406-.7851a1.343,1.343,0,0,0-.3233.6308.0658.0658,0,0,0,.0616.0616l2.0009-.0152c.3389,0,.3692-.1694.3692-.3081a.9918.9918,0,0,0-.2149-.6465,1.08,1.08,0,0,0-.7705-.2924A1.5957,1.5957,0,0,0,270.6963,82.8763Z"/><path class="cls-2" d="M279.55,82.6141a3.2192,3.2192,0,0,1,.4922,2.0171c0,.8159.0156.9389.0156,1.7089.0156,1.0469.0615,1.1392.4776,1.2471.1386.0615.23.0923.23.1538,0,.0928-.123.1079-.2773.1079-.2,0-.6465-.0615-.9854-.0615-.5234,0-.7236.0615-.9541.0615-.1386,0-.2461-.0307-.2461-.0922s.0918-.1231.292-.1695c.37-.0923.4317-.2.4317-.6465V84.847c0-1.2476-.1084-1.6167-.4932-1.9092a1.3661,1.3661,0,0,0-.8779-.2925,1.8411,1.8411,0,0,0-1.2.4927.7923.7923,0,0,0-.1846.4614c0,.1851.0147.97.0147,1.8941a12.5678,12.5678,0,0,0,.0927,1.6167c.0459.3383.2305.4155.4776.4926.1845.0459.2617.0767.2617.1539,0,.0922-.1543.0922-.3086.0922-.1231,0-.877-.0615-1.2315-.0615-.2,0-.5234.0308-.8154.0308-.17,0-.2929-.0308-.2929-.1079,0-.0616.1386-.1231.3232-.1538.3848-.0772.4463-.1846.4619-.4927.0313-1.1084.0313-2.5249.0313-3.772,0-.1538-.0313-.3232-.4-.5234-.0928-.0616-.1231-.0923-.1231-.1387,0-.0308.0762-.0771.2149-.123a5.7924,5.7924,0,0,0,1.2168-.5235c.0459-.0156.123.0459.1074.1231a6.8749,6.8749,0,0,0-.03.8159c0,.0307.0459.0771.0762.0464a5.3239,5.3239,0,0,1,1.0937-.6929,2.0841,2.0841,0,0,1,.9082-.1851A1.5739,1.5739,0,0,1,279.55,82.6141Z"/><path class="cls-2" d="M282.168,87.2176a1.7313,1.7313,0,0,1-.1846-.8775v-3.187c0-.1694-.0156-.2768-.0772-.3081a2.5369,2.5369,0,0,0-.3691-.0923c-.123-.0307-.2-.0766-.2-.1386,0-.0308.0156-.0767.1846-.1538a3.2823,3.2823,0,0,0,1.2627-1.0313c.1387-.1543.2461-.1235.2461-.0464,0,.1387-.03.57-.0147.7544,0,.0464.0147.1387.0762.1387.2773,0,1.5557-.0464,1.8789-.0464.03,0,.0918.1079.0918.2158,0,.2617-.0762.3848-.1533.3848-.5391,0-1.294-.0156-1.709-.0156-.1846,0-.2158.0464-.2158.1386,0,.2618.0156,2.6792.0312,3.1563a1.5778,1.5778,0,0,0,.169.8315,1.1378,1.1378,0,0,0,.9541.4156,1.5078,1.5078,0,0,0,.8476-.231c.1075-.0767.1533-.0615.1533,0,0,.0923-.1386.2466-.3388.4a2.1124,2.1124,0,0,1-1.2471.4A1.4268,1.4268,0,0,1,282.168,87.2176Z"/><path class="cls-2" d="M238.2314,93.4876c.3233,0,.4317.0772.4317.1851.03.2153.0771.8925.1074,1.0776.0313.1538,0,.2925-.0771.2925-.0616,0-.1075-.1079-.1846-.3081a1.2481,1.2481,0,0,0-1.1543-.8775c-.4932-.0463-1.1553-.0463-2.5557-.0463-.1084,0-.2158.2-.2158.2773-.0156.4311-.0459,2.2017-.0156,3.9722a.1885.1885,0,0,0,.1387.1845c1.57,0,2.31-.0146,2.5556-.0459.2158-.03.4307-.0771.6621-.6006.0772-.1538.1231-.2153.169-.2153.0615,0,.0927.0767.0771.231-.0156.1694-.0771.6308-.0771.9551a7.2509,7.2509,0,0,0,.0615.7382c0,.2-.03.2618-.1074.2618-.0615,0-.1231-.1231-.2158-.3389-.1231-.3379-.2764-.4922-.462-.5381a16.3411,16.3411,0,0,0-2.663-.0771.3054.3054,0,0,0-.1543.2c-.0147.2774.0156,2.6788.0468,3.3711.0147.586.1075.6778.8155.8477.123.03.2158.0762.2158.1377,0,.0928-.17.1084-.3233.1084-.2158,0-.8779-.0928-1.5087-.0928-.585,0-.97.0615-1.1856.0615-.1387,0-.2461-.03-.2461-.1074,0-.0615.0762-.1074.2764-.1543.5849-.123.6621-.2461.6933-.8154.0459-.5088.0459-2.417.0459-4.1113,0-1.6319,0-2.5713-.0459-3.51-.0312-.5542-.0771-.6929-.6318-.8315-.1377-.0308-.2461-.0767-.2461-.1538,0-.0616.0928-.0923.2315-.0923.1845,0,1.0312.0615,1.7089.0615C236.0146,93.534,237.6465,93.4876,238.2314,93.4876Z"/><path class="cls-2" d="M242.5752,98.2762a3.74,3.74,0,0,1,.2148,1.4014c0,.5693-.0459,2.0322-.0459,2.4326a.5277.5277,0,0,0,.5694.5849.9911.9911,0,0,0,.4472-.1386c.0918-.0459.1534,0,.0918.1386a1.2976,1.2976,0,0,1-1.1855.6621,1.0341,1.0341,0,0,1-.9082-.6933.0549.0549,0,0,0-.0772-.0156,2.1532,2.1532,0,0,1-1.5087.6933,1.2775,1.2775,0,0,1-1.2315-1.3242,1.0883,1.0883,0,0,1,.5537-.8779c.37-.2,1.7715-.6153,2.0947-.7383a.293.293,0,0,0,.2-.2315,5.2954,5.2954,0,0,0,.03-.708c0-.6308-.1074-1.0625-.3691-1.2627a1.1778,1.1778,0,0,0-.6465-.2461,1.0586,1.0586,0,0,0-.6162.1846.6218.6218,0,0,0-.2315.3692,1.6862,1.6862,0,0,0-.0146.2929.1921.1921,0,0,1-.0615.1231,3.31,3.31,0,0,1-.7237.3388c-.0771.0157-.1543-.0771-.1543-.1386,0-.1075.1075-.2461.293-.462a3.9806,3.9806,0,0,1,1.17-.893,2.0661,2.0661,0,0,1,.9238-.2774A1.2627,1.2627,0,0,1,242.5752,98.2762Zm-1.0322,4.2344a.6425.6425,0,0,0,.17-.37,11.0757,11.0757,0,0,0,.0771-1.4628c0-.0147-.0312-.0918-.0625-.0762a8.6,8.6,0,0,0-1.416.5234.7963.7963,0,0,0-.3847.77.8943.8943,0,0,0,.9238.8624A1.0573,1.0573,0,0,0,241.543,102.5106Z"/><path class="cls-2" d="M245.3633,100.14a2.5878,2.5878,0,0,0,.7695,2.0009,2.1855,2.1855,0,0,0,1.4317.5391,2.0654,2.0654,0,0,0,1.6015-.585c.03-.0312.1074-.0459.1074,0a.396.396,0,0,1-.123.2461,2.6609,2.6609,0,0,1-2.125,1.0166,2.8028,2.8028,0,0,1-1.9238-.7548,2.8981,2.8981,0,0,1-.77-2.0782,2.9442,2.9442,0,0,1,.9394-2.1406,3.3762,3.3762,0,0,1,2.2783-.8931,2.3434,2.3434,0,0,1,1.4014.3853.3557.3557,0,0,1,.2158.293.5259.5259,0,0,1-.3848.4921.4714.4714,0,0,1-.2617-.1542,4.2482,4.2482,0,0,0-.8623-.6309,1.3848,1.3848,0,0,0-.5849-.1235C246.4248,97.7523,245.3633,98.369,245.3633,100.14Z"/><path class="cls-2" d="M250.2139,97.9373a7.5912,7.5912,0,0,0,1.1084-.4.6256.6256,0,0,1,.2314-.1079c.0459,0,.0762.0464.0615.2158-.0312.3081-.0312,1.2476-.0312,2.2329,0,1.293,0,2.4327.0312,2.6944.03.3076.1846.3847.4307.4463.1543.03.2314.0615.2314.123,0,.0772-.124.1074-.247.1074-.1387,0-.708-.0615-1.1241-.0615-.5078,0-.7539.0313-.9228.0313-.1084,0-.2158-.0313-.2158-.0928s.0771-.1074.292-.1387c.3388-.0918.4775-.2148.4931-.8467.0157-.4619.0459-3.2636.0459-3.4179,0-.2158-.0156-.3076-.4463-.5391-.0771-.0459-.123-.0918-.123-.123C250.0293,98.0145,250.0752,97.9686,250.2139,97.9373Zm1.54-2.51a.5864.5864,0,0,1-.57.5849.5477.5477,0,0,1-.5078-.5693.5706.5706,0,0,1,.539-.6006A.5636.5636,0,0,1,251.7539,95.4276Z"/><path class="cls-2" d="M254.7715,99.4461c0,1.94.0156,2.6641.0312,2.9561.0147.416.1075.5234.5381.6005.0928.0157.2.0616.2.1075,0,.0615-.1074.1084-.3076.1084-.2461,0-.8008-.0313-1.0625-.0313-.4,0-.8008.0313-1.0313.0313-.1845,0-.2617-.0157-.2617-.0928s.0772-.0918.2774-.1387c.3847-.0771.4765-.2148.5381-.8926.0312-.5693.0927-3.1718.1084-5.0195,0-1.2471.0156-2.51,0-3.187,0-.3389-.0313-.4155-.4317-.6621-.1074-.0615-.1533-.0923-.1533-.1382s.0918-.0928.2305-.1235a7.9812,7.9812,0,0,0,1.1552-.354.637.637,0,0,1,.1846-.0464c.03,0,.0459.0928.0459.1694,0,.1079-.0615,2.7715-.0615,5.0811Z"/><path class="cls-2" d="M256.7275,97.9373a7.5827,7.5827,0,0,0,1.1084-.4.6257.6257,0,0,1,.2315-.1079c.0459,0,.0762.0464.0615.2158-.0312.3081-.0312,1.2476-.0312,2.2329,0,1.293,0,2.4327.0312,2.6944.03.3076.1846.3847.4307.4463.1543.03.2314.0615.2314.123,0,.0772-.124.1074-.2471.1074-.1386,0-.708-.0615-1.124-.0615-.5078,0-.7539.0313-.9228.0313-.1084,0-.2159-.0313-.2159-.0928s.0772-.1074.292-.1387c.3389-.0918.4776-.2148.4932-.8467.0156-.4619.0459-3.2636.0459-3.4179,0-.2158-.0156-.3076-.4463-.5391-.0771-.0459-.123-.0918-.123-.123C256.543,98.0145,256.5889,97.9686,256.7275,97.9373Zm1.54-2.51a.5864.5864,0,0,1-.57.5849.5477.5477,0,0,1-.5078-.5693.5706.5706,0,0,1,.539-.6006A.5637.5637,0,0,1,258.2676,95.4276Z"/><path class="cls-2" d="M260.2383,102.618a1.732,1.732,0,0,1-.1846-.8779V98.5535c0-.17-.0156-.2773-.0771-.3086a2.5537,2.5537,0,0,0-.3692-.0918c-.123-.0312-.2-.0771-.2-.1386,0-.0313.0157-.0772.1846-.1543a3.2808,3.2808,0,0,0,1.2627-1.0313c.1387-.1543.2461-.1235.2461-.0464,0,.1387-.03.57-.0147.7544,0,.0464.0147.1387.0762.1387.2774,0,1.5557-.0464,1.8789-.0464.03,0,.0918.1079.0918.2163,0,.2617-.0762.3848-.1533.3848-.5391,0-1.294-.0156-1.709-.0156-.1846,0-.2158.0459-.2158.1386,0,.2618.0156,2.6787.0312,3.1563a1.5779,1.5779,0,0,0,.169.831,1.1369,1.1369,0,0,0,.9541.4161,1.503,1.503,0,0,0,.8476-.2315c.1075-.0771.1534-.0615.1534,0,0,.0928-.1387.2471-.3389.4a2.1124,2.1124,0,0,1-1.2471.4A1.4273,1.4273,0,0,1,260.2383,102.618Z"/><path class="cls-2" d="M265.69,97.6292c.1534,0,.2617.0464.2617.1079s-.1083.1084-.2.1231c-.3389.1084-.37.1855-.2315.5849.2.5391,1.0469,2.6182,1.3555,3.2647.03.0615.0761.0459.0918,0,.2-.5235,1.0625-2.7412,1.1855-3.0947a1.1524,1.1524,0,0,0,.0772-.4463c0-.1084-.0772-.2315-.3389-.3086-.2305-.0459-.2773-.0923-.2773-.1387,0-.0615.0771-.0923.2158-.0923.1845,0,.5078.0464.7392.0464.2774,0,.4776-.0464.708-.0464.0928,0,.1846.0156.1846.0615s-.0615.1079-.2148.1548c-.3086.0918-.4619.2-.709.77-.1846.3847-1.1387,2.7558-1.37,3.3408-.1846.5078-.3233.8623-.6465,1.6933-.3692.8936-.9541,2.4942-1.17,3.0176a2.1293,2.1293,0,0,1-.293.57.58.58,0,0,1-.5078.2617.512.512,0,0,1-.5078-.5087.4545.4545,0,0,1,.4306-.4463c.1084,0,.2.0312.3086.0312a.3719.3719,0,0,0,.3994-.2617c.1543-.3232.6006-1.5859,1.1241-2.9258a.6613.6613,0,0,0-.0147-.4922c-.0928-.247-1.2168-3.0947-1.9092-4.6035a.8262.8262,0,0,0-.5547-.416c-.1845-.0459-.2773-.1079-.2773-.1543,0-.0767.1387-.1074.2471-.1074.2763,0,.708.0615,1.0771.0615C265.09,97.6756,265.49,97.6292,265.69,97.6292Z"/><line class="cls-1" x1="117.7803" y1="106.5046" x2="117.7803" y2="109.5808"/><line class="cls-1" x1="130.4201" y1="114.7064" x2="130.4201" y2="119.7847"/><line class="cls-1" x1="107.9557" y1="114.7064" x2="107.9557" y2="119.7847"/><rect class="cls-1" x="114.7655" y="113.2784" width="5.9732" height="6.6051" rx="1" transform="translate(235.5043 233.1618) rotate(-180)"/><line class="cls-1" x1="145.1522" y1="114.7064" x2="145.1522" y2="119.7847"/><polyline class="cls-1" points="142.951 112.567 128.503 112.567 117.843 100.5 136.809 100.5 147.47 112.567"/><line class="cls-1" x1="117.7442" y1="100.5163" x2="107.0834" y2="112.5836"/><line class="cls-1" x1="102.785" y1="99.2755" x2="102.785" y2="102.3516"/><line class="cls-1" x1="92.9603" y1="107.3418" x2="92.9603" y2="112.4201"/><rect class="cls-1" x="99.7702" y="105.9002" width="5.9732" height="6.6051" rx="1" transform="translate(205.5136 218.4055) rotate(-180)"/><polyline class="cls-1" points="113.508 105.338 102.847 93.27 121.813 93.27 128.275 100.453"/><line class="cls-1" x1="102.7489" y1="93.2872" x2="92.0881" y2="105.3544"/><line class="cls-1" x1="142.4176" y1="100.0688" x2="142.4176" y2="103.1449"/><line class="cls-1" x1="155.0574" y1="108.2705" x2="155.0574" y2="113.3489"/><path class="cls-1" d="M145.3761,110.0472v-2.7489a.6048.6048,0,0,0-.6048-.6048h-2.4669"/><polyline class="cls-1" points="162.919 106.131 153.141 106.131 142.48 94.064 161.446 94.064 167.444 100.896"/><line class="cls-1" x1="142.3815" y1="94.0805" x2="136.8406" y2="100.494"/><line class="cls-1" x1="127.4223" y1="92.8396" x2="127.4223" y2="95.9158"/><path class="cls-1" d="M130.3807,100.46v-.3912a.6048.6048,0,0,0-.6048-.6048h-2.388"/><polyline class="cls-1" points="138.145 98.902 127.485 86.835 146.451 86.835 152.912 94.017"/><line class="cls-1" x1="127.3862" y1="86.8513" x2="121.7565" y2="93.2536"/><line class="cls-1" x1="186.9267" y1="106.5046" x2="186.9267" y2="109.5808"/><line class="cls-1" x1="174.2869" y1="114.7064" x2="174.2869" y2="119.7847"/><line class="cls-1" x1="196.7514" y1="114.7064" x2="196.7514" y2="119.7847"/><rect class="cls-1" x="183.9682" y="113.1294" width="5.9732" height="6.6051" rx="1"/><line class="cls-1" x1="159.5548" y1="114.7064" x2="159.5548" y2="119.7847"/><polyline class="cls-1" points="161.756 112.567 176.204 112.567 186.864 100.5 167.898 100.5 157.237 112.567"/><line class="cls-1" x1="186.9628" y1="100.5163" x2="197.6236" y2="112.5836"/><line class="cls-1" x1="201.922" y1="99.2755" x2="201.922" y2="102.3516"/><line class="cls-1" x1="211.7467" y1="107.4773" x2="211.7467" y2="112.5556"/><rect class="cls-1" x="198.9636" y="105.9747" width="5.9732" height="6.6051" rx="1"/><polyline class="cls-1" points="191.199 105.338 201.86 93.27 182.894 93.27 176.432 100.453"/><line class="cls-1" x1="201.9581" y1="93.2872" x2="212.6189" y2="105.3544"/><polyline class="cls-1" points="199.724 93.22 204.843 87.438 185.877 87.438 182.361 91.41"/><line class="cls-1" x1="204.9414" y1="87.4547" x2="215.6022" y2="99.5219"/><line class="cls-1" x1="214.6965" y1="101.6448" x2="214.6965" y2="106.8293"/><line class="cls-1" x1="204.8797" y1="93.4709" x2="204.8797" y2="96.547"/><polyline class="cls-1" points="147.735 88.297 160.573 88.297 171.234 100.364"/><polyline class="cls-1" points="131.997 86.818 126.612 81.068 145.578 81.068 152.039 88.251"/><line class="cls-1" x1="126.5133" y1="81.0844" x2="115.8524" y2="93.1517"/><polyline class="cls-1" points="146.964 79.371 159.802 79.371 166.741 87.153"/><polyline class="cls-1" points="162.302 90.175 181.268 90.175 183.76 93.279"/><polyline class="cls-1" points="181.24 87.001 186.625 81.25 167.659 81.25 164.643 84.585"/><line class="cls-1" x1="186.7233" y1="81.2672" x2="189.5598" y2="84.3613"/><line class="cls-1" x1="225.4556" y1="119.9112" x2="101.9511" y2="119.9112"/><line class="cls-1" x1="101.0831" y1="112.5073" x2="55.7231" y2="112.5073"/><path class="cls-1" d="M69.9341,94.5675a4.4751,4.4751,0,0,1,8.9062,0,4.2209,4.2209,0,0,1,.0044,8.2364c.002.0515.0082.1019.0082.1538a4.47,4.47,0,0,1-8.9314,0c0-.0519.0062-.1023.0081-.1538"/><line class="cls-1" x1="74.3349" y1="99.8967" x2="70.8384" y2="96.7406"/><line class="cls-1" x1="74.5806" y1="101.7467" x2="77.5793" y2="97.8062"/><line class="cls-1" x1="74.4815" y1="97.4841" x2="74.4815" y2="112.4281"/><path class="cls-1" d="M69.8565,102.7845a3.3931,3.3931,0,0,1-2.3912,2.2023c.0016.04.0064.0789.0064.1192a3.493,3.493,0,0,1-6.9764,0c0-.04.0048-.0793.0063-.1192a3.2647,3.2647,0,0,1,.0035-6.3816,3.4116,3.4116,0,0,1,3.4784-3.1241,3.5058,3.5058,0,0,1,2.9694,1.6018"/><line class="cls-1" x1="63.9468" y1="103.0243" x2="61.2115" y2="100.2889"/><line class="cls-1" x1="64.1345" y1="104.1677" x2="66.4769" y2="101.1146"/><line class="cls-1" x1="64.0571" y1="100.865" x2="64.0571" y2="112.4437"/><path class="cls-1" d="M86.8774,76.4975a1.9275,1.9275,0,0,0-1.69,1.839l-.0392.7355-.5829-.4488a5.5543,5.5543,0,0,0-4.3607-.85"/><path class="cls-1" d="M88.73,86.1006a1.9275,1.9275,0,0,0-1.69,1.8391L87,88.6751l-.5828-.4487a5.5543,5.5543,0,0,0-4.3608-.85"/><path class="cls-4" d="M85.8465,131.6526l-1.6963-1.67-1.8021-1.3514a.1253.1253,0,0,1-.05-.1v-.665a.1255.1255,0,0,1,.0836-.1182l1.6351-.5791a13.6393,13.6393,0,0,1,4.566-.7847h1.35l.0012-6.5093a.1254.1254,0,0,1,.1254-.1254h2.2589a.1258.1258,0,0,1,.0857.0338l.9882.9253.4675.1616a.1253.1253,0,0,1,.0477.03l.6817.6817a.1253.1253,0,0,1-.0887.214H92.0973l-.0255,3.4923.7083,1.7052a.1253.1253,0,0,1,.01.0482v2.3675a.1253.1253,0,0,1-.0455.0966L90.1376,131.66a.1257.1257,0,0,1-.08.0287H85.9345A.1257.1257,0,0,1,85.8465,131.6526Zm4.0857-3.4839v-.79"/><line class="cls-4" x1="86.9397" y1="131.7092" x2="86.9397" y2="134.0552"/><polyline class="cls-4" points="89.49 134.12 87.935 133.056 87.935 132.348"/><polyline class="cls-4" points="89.899 128.192 88.356 129.815 84.932 129.815"/><line class="cls-4" x1="92.1124" y1="122.3458" x2="93.6781" y2="122.3458"/><path class="cls-4" d="M92.189,119.7356v-1.6023a.1255.1255,0,0,0-.1254-.1254H91.477a.1254.1254,0,0,0-.0887.0367l-.449.449h-.3422a.1257.1257,0,0,0-.0887.0368l-.38.38a.1257.1257,0,0,0-.0368.0887v.7363"/><path class="cls-4" d="M92.1,124.4407h.9126a.1253.1253,0,0,0,.1254-.1254v-.8248a.1231.1231,0,0,0-.0073-.0421l-.4026-1.0848"/><line class="cls-4" x1="97.649" y1="134.1359" x2="79.2881" y2="134.1359"/><line class="cls-4" x1="94.7188" y1="134.0552" x2="94.7188" y2="132.8933"/><line class="cls-4" x1="93.8228" y1="133.5583" x2="93.8228" y2="134.0552"/><line class="cls-4" x1="92.9407" y1="134.0552" x2="92.9407" y2="132.3479"/><line class="cls-4" x1="84.9301" y1="134.1336" x2="84.9301" y2="133.5642"/><line class="cls-4" x1="84.0686" y1="134.084" x2="84.0686" y2="132.983"/><circle class="cls-1" cx="109.0384" cy="70.8639" r="7.6884"/><path class="cls-1" d="M98.1989,79.4224a1.9275,1.9275,0,0,0-1.69,1.839l-.0392.7354-.5829-.4487a5.5543,5.5543,0,0,0-4.3607-.85"/><path class="cls-5" d="M126.6429,141.3282a.1528.1528,0,0,0,.1528-.1528V126.6969a.1528.1528,0,0,0-.1528-.1527H114.612a.1521.1521,0,0,0-.0823.0241c-.1206.0771-2.9249,1.8926-3.8011,4.2275a2.41,2.41,0,0,1-1.6018-.51,1.8891,1.8891,0,0,1-.5544-1.4657"/><path class="cls-5" d="M114.7447,141.3282a.1528.1528,0,0,0,.1527-.1528v-3.8022"/><path class="cls-5" d="M107.8945,131.0943l-2.7424,4.1135a.1527.1527,0,0,0-.0256.0847V137.15a.1528.1528,0,0,0,.1527.1528H111.54v3.8722a.1528.1528,0,0,0,.1528.1528h1.5923a.1529.1529,0,0,0,.1528-.1528v-3.8281h2.2281"/><path class="cls-5" d="M123.463,139.6933v1.4861a.1488.1488,0,0,0,.1487.1488h1.5509a.1489.1489,0,0,0,.1488-.1488v-3.8771"/><path class="cls-5" d="M114.7447,137.3429h5.6867a2.5665,2.5665,0,0,0,2.5625,2.4991"/><path class="cls-5" d="M128.4249,133.6561v-1.1574a.1526.1526,0,0,0-.0447-.108l-.5229-.5229v-3.8291"/><path class="cls-5" d="M107.67,133.2137a.1529.1529,0,0,0,.1528.1528h.9118a.1528.1528,0,0,0,.1527-.1528"/><line class="cls-5" x1="117.5313" y1="141.3282" x2="128.2722" y2="141.3282"/><path class="cls-5" d="M105.1265,141.1754a.1528.1528,0,0,0,.1527.1528H115.391"/><line class="cls-5" x1="98.8775" y1="139.8147" x2="98.8775" y2="141.1518"/><line class="cls-5" x1="102.0041" y1="139.8147" x2="102.0041" y2="141.1518"/><line class="cls-5" x1="103.5082" y1="137.9955" x2="103.5082" y2="141.1518"/><line class="cls-5" x1="105.1132" y1="139.8147" x2="105.1132" y2="141.1518"/><line class="cls-5" x1="98.8732" y1="139.8147" x2="98.8732" y2="141.1518"/><line class="cls-5" x1="100.3773" y1="137.9955" x2="100.3773" y2="141.1518"/><line class="cls-5" x1="101.9823" y1="139.8147" x2="101.9823" y2="141.1518"/></svg>