<svg id="Layer_1" data-name="Layer 1" xmlns="http://www.w3.org/2000/svg" viewBox="0 0 399 200"><defs><style>.cls-1,.cls-2,.cls-3{fill:none;stroke:#222f3c;stroke-width:0.5px;}.cls-1,.cls-3{stroke-miterlimit:10;}.cls-2,.cls-3{stroke-linecap:round;}.cls-2{stroke-linejoin:round;}.cls-4{fill:#333838;}</style></defs><path class="cls-1" d="M219.83,122.9135c0-13.4744,24.3975-42.8027,24.3975-42.8027s24.3974,29.3283,24.3974,42.8027a24.3975,24.3975,0,0,1-48.7949,0Z"/><rect class="cls-1" x="236.984" y="105.2947" width="2.6469" height="7.6445" rx="0.9453" transform="translate(-14.7665 177.3117) rotate(-39.6833)"/><rect class="cls-1" x="246.7556" y="101.0833" width="2.6469" height="7.6445" rx="0.9453" transform="translate(167.4355 -152.0867) rotate(49.6562)"/><rect class="cls-1" x="249.3448" y="132.9683" width="2.6469" height="7.6445" rx="0.9453" transform="translate(454.2041 337.0888) rotate(-164.0808)"/><rect class="cls-1" x="243.9835" y="112.6726" width="2.6469" height="7.6445" rx="0.9453" transform="translate(297.1162 383.0701) rotate(-126.4012)"/><rect class="cls-1" x="238.7027" y="135.6565" width="2.6469" height="7.6445" rx="0.9453" transform="translate(327.8775 -123.8632) rotate(78.288)"/><circle class="cls-2" cx="256.0557" cy="111.7777" r="1.3629"/><path class="cls-2" d="M256.0223,107.0177c-.4744,1.2568,1.09,2.0593-.1524,3.3388"/><path class="cls-2" d="M256.0223,113.199c-.4744,1.2568,1.09,2.0592-.1524,3.3387"/><path class="cls-2" d="M260.8157,111.8044c-1.2569-.4744-2.0593,1.09-3.3388-.1524"/><path class="cls-2" d="M254.6344,111.8044c-1.2568-.4744-2.0593,1.09-3.3387-.1524"/><path class="cls-2" d="M259.3979,108.3883c-1.2241.5533-.6852,2.227-2.4686,2.2531"/><path class="cls-2" d="M255.0271,112.7591c-1.2242.5533-.6852,2.2271-2.4686,2.2531"/><path class="cls-2" d="M259.4026,115.1624c-.5533-1.2241-2.227-.6852-2.253-2.4686"/><path class="cls-2" d="M255.0318,110.7916c-.5533-1.2241-2.227-.6852-2.2531-2.4686"/><circle class="cls-2" cx="231.2826" cy="129.8234" r="1.3629"/><path class="cls-2" d="M231.2492,125.0634c-.4743,1.2569,1.09,2.0593-.1524,3.3388"/><path class="cls-2" d="M231.2492,131.2447c-.4743,1.2568,1.09,2.0593-.1524,3.3387"/><path class="cls-2" d="M236.0426,129.85c-1.2568-.4743-2.0592,1.09-3.3387-.1524"/><path class="cls-2" d="M229.8614,129.85c-1.2569-.4743-2.0593,1.09-3.3388-.1524"/><path class="cls-2" d="M234.6248,126.434c-1.2241.5533-.6851,2.2271-2.4686,2.2531"/><path class="cls-2" d="M230.254,130.8048c-1.2241.5533-.6851,2.2271-2.4686,2.2531"/><path class="cls-2" d="M234.63,133.2081c-.5533-1.2241-2.2271-.6852-2.2531-2.4686"/><path class="cls-2" d="M230.2588,128.8373c-.5533-1.2241-2.2271-.6852-2.2531-2.4686"/><circle class="cls-2" cx="258.7572" cy="126.8672" r="1.3629"/><path class="cls-2" d="M258.7238,122.1072c-.4743,1.2568,1.09,2.0593-.1524,3.3387"/><path class="cls-2" d="M258.7238,128.2885c-.4743,1.2568,1.09,2.0592-.1524,3.3387"/><path class="cls-2" d="M263.5172,126.8939c-1.2568-.4744-2.0593,1.09-3.3387-.1524"/><path class="cls-2" d="M257.3359,126.8939c-1.2568-.4744-2.0592,1.09-3.3387-.1524"/><path class="cls-2" d="M262.0994,123.4778c-1.2241.5533-.6852,2.227-2.4686,2.253"/><path class="cls-2" d="M257.7286,127.8486c-1.2241.5533-.6852,2.227-2.4686,2.2531"/><path class="cls-2" d="M262.1042,130.2519c-.5533-1.2241-2.2271-.6852-2.2531-2.4686"/><path class="cls-2" d="M257.7334,125.8811c-.5533-1.2241-2.2271-.6852-2.2531-2.4686"/><circle class="cls-2" cx="243.9207" cy="128.1307" r="1.3629"/><path class="cls-2" d="M243.8873,123.3707c-.4743,1.2569,1.09,2.0593-.1524,3.3388"/><path class="cls-2" d="M243.8873,129.552c-.4743,1.2568,1.09,2.0593-.1524,3.3387"/><path class="cls-2" d="M248.6807,128.1574c-1.2568-.4743-2.0592,1.09-3.3387-.1524"/><path class="cls-2" d="M242.5,128.1574c-1.2568-.4743-2.0593,1.09-3.3388-.1524"/><path class="cls-2" d="M247.2629,124.7413c-1.2241.5533-.6851,2.2271-2.4686,2.2531"/><path class="cls-2" d="M242.8921,129.1121c-1.2241.5533-.6851,2.2271-2.4686,2.2531"/><path class="cls-2" d="M247.2677,131.5154c-.5533-1.2241-2.2271-.6852-2.2531-2.4686"/><path class="cls-2" d="M242.8969,127.1446c-.5533-1.2241-2.2271-.6852-2.2531-2.4686"/><circle class="cls-2" cx="230.1136" cy="116.4887" r="1.3629"/><path class="cls-2" d="M230.08,111.7287c-.4743,1.2568,1.09,2.0593-.1524,3.3388"/><path class="cls-2" d="M230.08,117.91c-.4743,1.2568,1.09,2.0592-.1524,3.3387"/><path class="cls-2" d="M234.8736,116.5154c-1.2568-.4744-2.0592,1.09-3.3387-.1524"/><path class="cls-2" d="M228.6924,116.5154c-1.2569-.4744-2.0593,1.09-3.3388-.1524"/><path class="cls-2" d="M233.4558,113.0993c-1.2241.5533-.6851,2.2271-2.4686,2.2531"/><path class="cls-2" d="M229.085,117.47c-1.2241.5533-.6851,2.2271-2.4686,2.2531"/><path class="cls-2" d="M233.4606,119.8734c-.5533-1.2241-2.2271-.6852-2.2531-2.4686"/><path class="cls-2" d="M229.09,115.5026c-.5533-1.2241-2.2271-.6852-2.2531-2.4686"/><circle class="cls-2" cx="242.7903" cy="96.3064" r="1.3629"/><path class="cls-2" d="M242.7569,91.5464c-.4743,1.2568,1.09,2.0592-.1524,3.3387"/><path class="cls-2" d="M242.7569,97.7276c-.4743,1.2569,1.09,2.0593-.1524,3.3388"/><path class="cls-2" d="M247.55,96.333c-1.2568-.4743-2.0592,1.09-3.3387-.1524"/><path class="cls-2" d="M241.3691,96.333c-1.2569-.4743-2.0593,1.09-3.3388-.1524"/><path class="cls-2" d="M246.1325,92.9169c-1.2241.5533-.6851,2.2271-2.4686,2.2531"/><path class="cls-2" d="M241.7617,97.2877c-1.2241.5533-.6851,2.2271-2.4686,2.2531"/><path class="cls-2" d="M246.1373,99.6911c-.5533-1.2242-2.2271-.6852-2.2531-2.4687"/><path class="cls-2" d="M241.7665,95.32c-.5533-1.2241-2.2271-.6851-2.2531-2.4686"/><path class="cls-2" d="M167.0553,124.81h-5.44a1.26,1.26,0,0,1-1.2605-1.2605v-3.73a1.26,1.26,0,0,1,1.2605-1.2605h14.312"/><line class="cls-2" x1="159.1389" y1="158.9233" x2="162.9723" y2="158.9233"/><line class="cls-2" x1="163.956" y1="135.186" x2="163.956" y2="126.4538"/><line class="cls-2" x1="162.6252" y1="158.9233" x2="157.7698" y2="158.9233"/><line class="cls-2" x1="155.6479" y1="155.6843" x2="155.6651" y2="155.6423"/><line class="cls-2" x1="155.6651" y1="155.6423" x2="163.9431" y2="135.358"/><path class="cls-2" d="M155.6479,155.6843a2.3429,2.3429,0,0,0,2.17,3.2358"/><path class="cls-2" d="M155.6479,155.6843l.0172-.042"/><line class="cls-2" x1="162.6252" y1="158.9233" x2="157.7698" y2="158.9233"/><line class="cls-2" x1="155.6479" y1="155.6843" x2="155.6651" y2="155.6423"/><line class="cls-2" x1="155.6651" y1="155.6423" x2="163.9431" y2="135.358"/><path class="cls-2" d="M155.6479,155.6843a2.3429,2.3429,0,0,0,2.17,3.2358"/><path class="cls-2" d="M155.6479,155.6843l.0172-.042"/><path class="cls-2" d="M176.3811,128.5979h7.5746a1.2128,1.2128,0,0,0,1.1587-1.2605v-3.73a1.2127,1.2127,0,0,0-1.1587-1.26H169.5129a1.2127,1.2127,0,0,0-1.1586,1.26v3.73a1.2128,1.2128,0,0,0,1.1586,1.2605h2.4989"/><line class="cls-2" x1="171.2193" y1="140.3734" x2="171.2193" y2="131.6412"/><line class="cls-2" x1="187.0665" y1="164.1108" x2="165.0331" y2="164.1108"/><line class="cls-2" x1="162.9112" y1="160.8718" x2="162.9283" y2="160.8298"/><line class="cls-2" x1="162.9283" y1="160.8298" x2="171.2063" y2="140.5454"/><path class="cls-2" d="M162.9112,160.8718a2.3427,2.3427,0,0,0,2.17,3.2358"/><path class="cls-2" d="M162.9112,160.8718l.0171-.042"/><line class="cls-2" x1="182.2494" y1="140.3734" x2="182.2494" y2="131.6412"/><line class="cls-2" x1="165.3802" y1="164.1108" x2="188.4356" y2="164.1108"/><line class="cls-2" x1="190.5575" y1="160.8718" x2="190.5403" y2="160.8298"/><line class="cls-2" x1="190.5403" y1="160.8298" x2="182.2623" y2="140.5454"/><path class="cls-2" d="M190.5575,160.8718a2.3429,2.3429,0,0,1-2.17,3.2358"/><path class="cls-2" d="M190.5575,160.8718l-.0172-.042"/><line class="cls-2" x1="165.3802" y1="164.1108" x2="188.4356" y2="164.1108"/><line class="cls-2" x1="190.5575" y1="160.8718" x2="190.5403" y2="160.8298"/><line class="cls-2" x1="190.5403" y1="160.8298" x2="182.2623" y2="140.5454"/><path class="cls-2" d="M190.5575,160.8718a2.3429,2.3429,0,0,1-2.17,3.2358"/><path class="cls-2" d="M190.5575,160.8718l-.0172-.042"/><line class="cls-1" x1="178.5287" y1="133.7563" x2="182.3307" y2="133.7563"/><line class="cls-1" x1="178.5287" y1="131.5778" x2="182.3307" y2="131.5778"/><line class="cls-1" x1="178.5287" y1="135.9601" x2="182.3307" y2="135.9601"/><line class="cls-1" x1="178.5287" y1="138.164" x2="182.3307" y2="138.164"/><line class="cls-1" x1="178.5287" y1="140.3678" x2="182.3307" y2="140.3678"/><path class="cls-1" d="M170.3481,153.0591c0-1.2507,2.2645-3.9729,2.2645-3.9729s2.2646,2.7222,2.2646,3.9729a2.2646,2.2646,0,0,1-4.5291,0Z"/><path class="cls-1" d="M175.0733,158.6643c0-1.2507,2.2645-3.9729,2.2645-3.9729s2.2645,2.7222,2.2645,3.9729a2.2645,2.2645,0,1,1-4.529,0Z"/><path class="cls-1" d="M176.3259,150.637c0-1.2506,2.2645-3.9728,2.2645-3.9728s2.2645,2.7222,2.2645,3.9728a2.2645,2.2645,0,0,1-4.529,0Z"/><line class="cls-3" x1="180.6043" y1="149.4575" x2="221.3306" y2="132.6575"/><path class="cls-4" d="M51.835,66.0008a1.6318,1.6318,0,0,1,1.37-1.5088c.0771,0,.1387,0,.1387.0772,0,.0307-.0772.0766-.169.1074-.4619.2466-.8008.5542-.8008,1.0468,0,.3238.1543.5084.5694.6163a.3225.3225,0,0,1,.3086.3232.4447.4447,0,0,1-.462.4A.9956.9956,0,0,1,51.835,66.0008Zm1.9091,0A1.6713,1.6713,0,0,1,55.13,64.492c.0771,0,.1387.0308.1387.0772,0,.0307-.0616.0766-.1543.1074-.462.2466-.8155.57-.8155,1.0468,0,.3238.169.5084.585.6163a.3328.3328,0,0,1,.3076.3232.4716.4716,0,0,1-.4775.4A1.0072,1.0072,0,0,1,53.7441,66.0008Z"/><path class="cls-4" d="M56.2852,65.1541c.3544,0,1.0009.0615,1.3554.0615.4922,0,1.1543-.0615,1.4317-.0615.23,0,.2929.0615.2929.0923,0,.0923-.1386.1387-.3086.1694-.3691.0459-.539.2461-.539.4312a2.3109,2.3109,0,0,0,.1855.7236c.2764.8159,2.1553,5.6812,2.5088,6.4048.0156.0459.0615.0923.0772.0308.2461-.5083,2.0478-5.1119,2.31-5.8506a4.4662,4.4662,0,0,0,.3076-1.2163c0-.354-.2919-.4468-.7539-.57-.1543-.0151-.2617-.0766-.2617-.123,0-.0615.0772-.1079.3076-.1079.3389,0,.9551.0771,1.2784.0771.3535,0,.7695-.0615,1.0156-.0615.2,0,.2617.0308.2617.0615,0,.0616-.0615.1387-.3076.1846-.585.1694-.8164.4468-1.293,1.5244-.2929.6621-1.1855,2.8638-2.6484,6.4048-.3545.8931-.5547,1.4473-.6162,1.6782-.03.1075-.0918.1846-.1231.1846-.0918,0-.123-.123-.1845-.3232-.5079-1.5245-2.8487-7.4517-3.4336-8.7759a1.0223,1.0223,0,0,0-.8623-.6929c-.1846-.0308-.292-.0923-.292-.1538S56.1475,65.1541,56.2852,65.1541Z"/><path class="cls-4" d="M69.1738,65.1077a6.5032,6.5032,0,0,0,.4,1.2935c1.0781,2.8638,1.9092,4.9575,2.8633,7.1284.3857.9082.5391,1.0469.9238,1.1392.1856.0307.2617.0922.2617.1386,0,.0772-.1376.1079-.2763.1079-.293,0-.5391-.0463-1.34-.0463-.5693,0-1.1543.0615-1.5244.0615-.1689,0-.2617-.0308-.2617-.1079,0-.0616.1387-.1231.293-.1382.6152-.0928.708-.3545.6924-.6929-.03-.2617-.5538-1.6323-1.0772-2.9868-.0469-.1079-.1387-.1851-.2-.1851-.5849.0308-2.5254.0308-2.8642.0308-.0772,0-.169.1694-.23.2925-.1387.3389-.585,1.478-.8008,2.2324-.1689.5855-.1689.8779,0,1.0474a1.2092,1.2092,0,0,0,.6465.2617c.1543.0459.2314.1074.2314.1538,0,.0771-.1386.1079-.3086.1079-.292,0-.9238-.0771-1.4775-.0771-.3848,0-.6777.0771-1.0469.0771-.17,0-.2617-.0308-.2617-.1079s.1533-.1079.3076-.1387c.708-.1386.8467-.2768,1.4317-1.57.4463-.9546,1.8017-4.3262,2.6943-6.62a1.0813,1.0813,0,0,0,.0928-.4312c0-.0615.0156-.1543.0459-.1694a1.4623,1.4623,0,0,0,.5547-.8008c.03-.0615.0459-.1538.1074-.1538S69.1436,65.0154,69.1738,65.1077Zm.6162,5.0655c-.6162-1.74-1.0322-2.7251-1.2627-3.2486-.0459-.123-.0771-.0771-.123.0308-.3691.8774-1.001,2.6479-1.2168,3.2793-.0146.0307-.0146.1387.0469.1387.292.0151.6767.0151,1.2158.0151a7.3471,7.3471,0,0,0,1.34-.0615A.2309.2309,0,0,0,69.79,70.1732Z"/><path class="cls-4" d="M72.625,65.1541c.3545,0,1.001.0615,1.3545.0615.4932,0,1.1553-.0615,1.4316-.0615.2315,0,.293.0615.293.0923,0,.0923-.1387.1387-.3076.1694-.37.0459-.5391.2461-.5391.4312a2.3287,2.3287,0,0,0,.1846.7236c.2773.8159,2.1553,5.6812,2.51,6.4048.0156.0459.0615.0923.0771.0308.2461-.5083,2.0479-5.1119,2.31-5.8506a4.5075,4.5075,0,0,0,.3076-1.2163c0-.354-.293-.4468-.7549-.57-.1533-.0151-.2617-.0766-.2617-.123,0-.0615.0771-.1079.3086-.1079.3389,0,.9541.0771,1.2773.0771.3545,0,.77-.0615,1.0166-.0615.2,0,.2618.0308.2618.0615,0,.0616-.0616.1387-.3086.1846-.585.1694-.8155.4468-1.293,1.5244-.292.6621-1.1856,2.8638-2.6484,6.4048-.3536.8931-.5538,1.4473-.6153,1.6782-.0312.1075-.0928.1846-.123.1846-.0928,0-.1231-.123-.1846-.3232-.5088-1.5245-2.8486-7.4517-3.4336-8.7759A1.0235,1.0235,0,0,0,72.625,65.4c-.1846-.0308-.293-.0923-.293-.1538S72.4863,65.1541,72.625,65.1541Z"/><path class="cls-4" d="M82.5264,65.1541c.3545,0,1.0009.0615,1.3554.0615.4922,0,1.1543-.0615,1.4317-.0615.23,0,.2929.0615.2929.0923,0,.0923-.1386.1387-.3085.1694-.3692.0459-.5391.2461-.5391.4312a2.3109,2.3109,0,0,0,.1855.7236c.2764.8159,2.1553,5.6812,2.5088,6.4048.0157.0459.0615.0923.0772.0308.2461-.5083,2.0478-5.1119,2.31-5.8506a4.4671,4.4671,0,0,0,.3077-1.2163c0-.354-.292-.4468-.7539-.57-.1543-.0151-.2618-.0766-.2618-.123,0-.0615.0772-.1079.3077-.1079.3388,0,.955.0771,1.2783.0771.3535,0,.77-.0615,1.0156-.0615.2,0,.2617.0308.2617.0615,0,.0616-.0615.1387-.3076.1846-.585.1694-.8164.4468-1.293,1.5244-.2929.6621-1.1855,2.8638-2.6484,6.4048-.3545.8931-.5547,1.4473-.6162,1.6782-.03.1075-.0918.1846-.1231.1846-.0918,0-.123-.123-.1845-.3232-.5078-1.5245-2.8487-7.4517-3.4336-8.7759a1.0223,1.0223,0,0,0-.8623-.6929c-.1846-.0308-.292-.0923-.292-.1538S82.3887,65.1541,82.5264,65.1541Z"/><path class="cls-4" d="M96.2471,70.2811a.7778.7778,0,0,0-.1533.5693,30.3439,30.3439,0,0,0,.0771,3.3105.5437.5437,0,0,0,.4922.5235c.2314.0459.3389.0766.3389.1538,0,.0464-.0928.0923-.2315.0923-.4307,0-.831-.0615-1.2773-.0615-.4776,0-.708.0615-1.001.0615-.169,0-.2461-.0308-.2461-.0923s.0615-.0923.2461-.1387c.4463-.1079.5547-.1538.5693-.7387.0469-.6163.0625-2.0323.0625-4.4805,0-2.3247.03-3.2642,0-3.8491-.0156-.4927-.124-.5386-.4619-.7237-.0625-.0459-.1084-.0766-.1084-.123s.0928-.0923.2617-.1387a6.35,6.35,0,0,0,1.1241-.37.3378.3378,0,0,1,.1543-.0615c.0458,0,.0917.1079.0771.3237-.0156.4155-.0771,5.1885-.0615,5.4809,0,.0616.0459.0767.0615.0459a5.0582,5.0582,0,0,1,.9238-.6313,2.4166,2.4166,0,0,1,1.0772-.2617,1.6393,1.6393,0,0,1,1.3857.6929,2.9686,2.9686,0,0,1,.3389,1.6474c.0156,1.1548.0156,2.1094.03,2.6943,0,.3082.0615.4161.5234.4927.2.0464.2471.0772.2471.1387s-.1084.1079-.2471.1079c-.3994,0-.6924-.0771-1.1084-.0771-.5234,0-.6465.0615-1,.0615-.1856,0-.2471-.0459-.2471-.0923,0-.0615.0772-.0923.2315-.1231.415-.0922.4463-.2.5078-.6469.0312-.354.0615-1.0313.0615-2.6323a2.4654,2.4654,0,0,0-.23-1.1548,1.1524,1.1524,0,0,0-1.0625-.57A1.8624,1.8624,0,0,0,96.2471,70.2811Z"/><path class="cls-4" d="M104.917,69.9578a3.7148,3.7148,0,0,1,.2158,1.4009c0,.57-.0459,2.0322-.0459,2.4326a.5275.5275,0,0,0,.5693.585.9782.9782,0,0,0,.4463-.1387c.0928-.0459.1543,0,.0928.1387a1.2979,1.2979,0,0,1-1.1855.6621,1.0343,1.0343,0,0,1-.9082-.6929.0543.0543,0,0,0-.0772-.0156,2.1548,2.1548,0,0,1-1.5088.6929,1.2768,1.2768,0,0,1-1.2314-1.3238,1.0855,1.0855,0,0,1,.5537-.8779c.37-.2,1.77-.6157,2.0937-.7388a.2916.2916,0,0,0,.2-.2309,5.1364,5.1364,0,0,0,.0313-.7085c0-.6309-.1084-1.062-.37-1.2622a1.1722,1.1722,0,0,0-.6465-.2466,1.0589,1.0589,0,0,0-.6153.1851.6155.6155,0,0,0-.2314.3691,1.5751,1.5751,0,0,0-.0156.293.1884.1884,0,0,1-.0615.123,3.2937,3.2937,0,0,1-.7237.3389c-.0761.0151-.1533-.0772-.1533-.1387,0-.1079.1074-.2466.292-.4619a4.0069,4.0069,0,0,1,1.17-.8931,2.0706,2.0706,0,0,1,.9238-.2773A1.2618,1.2618,0,0,1,104.917,69.9578Zm-1.0313,4.2339a.6345.6345,0,0,0,.169-.37,10.91,10.91,0,0,0,.0771-1.4629c0-.0151-.03-.0923-.0615-.0767a8.6474,8.6474,0,0,0-1.416.5235.7966.7966,0,0,0-.3848.77.8941.8941,0,0,0,.9239.8623A1.0541,1.0541,0,0,0,103.8857,74.1917Z"/><path class="cls-4" d="M107.9053,70.3577c0,.647.5849,1.0161.97,1.2471,1.001.647,1.4014,1.0317,1.4014,1.8169a1.5817,1.5817,0,0,1-.8008,1.2934,2.56,2.56,0,0,1-1.2315.3384,3.1427,3.1427,0,0,1-1.2168-.2768c-.123-.0464-.23-.1538-.23-.2466,0-.2153-.0313-.6-.0459-.77-.0313-.2.0146-.2466.0459-.2466.0459,0,.0927,0,.2.2925a1.4976,1.4976,0,0,0,.6465.8315,1.18,1.18,0,0,0,.6933.1846,1.0547,1.0547,0,0,0,1-1.0313c0-.5849-.4-.9087-1.0156-1.2934-.6621-.4312-1.2783-1.0005-1.2783-1.6783a1.46,1.46,0,0,1,.5849-1.2163,1.9931,1.9931,0,0,1,1.294-.4311,3.78,3.78,0,0,1,1.0469.1694.2534.2534,0,0,1,.0771.1387c.0146.1694.0762.4775.0918.7236,0,.1695-.03.2466-.0772.2466-.0615,0-.0917-.0771-.1386-.1851a1.1682,1.1682,0,0,0-.3692-.6313,1.2622,1.2622,0,0,0-.7236-.231A.8973.8973,0,0,0,107.9053,70.3577Z"/><path class="cls-4" d="M114.08,70.1268c0-.1075-.0147-.1846-.0762-.2-.0771,0-.2471,0-.4316-.0152-.1075-.0156-.2-.0922-.2-.123,0-.0464.0771-.0923.1845-.1543s.2315-.1382.37-.231a.2986.2986,0,0,0,.1533-.2153,9.8288,9.8288,0,0,1,.2617-2.5249,3.5464,3.5464,0,0,1,1.5557-2.0478,2.52,2.52,0,0,1,1.3857-.4156c.6309,0,1.0469.2617,1.0469.4927a.7571.7571,0,0,1-.3848.5078.2785.2785,0,0,1-.3086-.0307,1.82,1.82,0,0,0-1.0928-.5235c-.6933,0-1.2314.4468-1.3857,2.0943-.0459.477-.0771,1.57-.0771,2.0473a4.4344,4.4344,0,0,0,.0156.4927.1206.1206,0,0,0,.123.0923c.1387,0,1.4473-.0308,1.6162-.0308.0616,0,.1241.0923.1241.2774,0,.2153-.0313.2768-.2159.2768-.2461,0-1.3554-.0307-1.57-.0307-.0468,0-.0771.1235-.0771.1386,0,.57.03,3.3716.0459,3.8184.0459.5849.17.708.3232.7544.1231.0464.293.0464.4932.0923.1846.0463.2773.0771.2773.1386,0,.0772-.1084.1079-.247.1079-.4463,0-.6924-.0463-1.4776-.0463-.3545,0-.6933.0463-.9551.0615-.1386,0-.23-.0308-.23-.0923s.1074-.1079.3076-.1538c.37-.0928.4463-.3081.4463-.8623Z"/><path class="cls-4" d="M123.1191,72.0823a2.9483,2.9483,0,0,1-2.9248,2.9712,2.9359,2.9359,0,0,1-1.8789-5.2343,3.1612,3.1612,0,0,1,1.8477-.647A2.89,2.89,0,0,1,123.1191,72.0823Zm-4.8037-.2158a3.5272,3.5272,0,0,0,.6465,2.1094,1.8311,1.8311,0,0,0,1.4473.8159,1.5225,1.5225,0,0,0,.9707-.3848,3.0678,3.0678,0,0,0,.6465-2.0629c0-1.4629-.7393-2.91-2.0938-2.91C119.1465,69.4339,118.3154,70.2654,118.3154,71.8665Z"/><path class="cls-4" d="M124.876,74.4534a1.6143,1.6143,0,0,1-.293-.9394c0-.5078,0-3.11-.03-3.3716a.6008.6008,0,0,0-.3388-.5083c-.1387-.0923-.1846-.1382-.1846-.1846s.0762-.0771.2461-.0771a5.3967,5.3967,0,0,0,1.293-.2c.0468-.0152.0927.0771.0771.1694-.0459.8779-.0615,2.9717-.0459,3.68a1.7073,1.7073,0,0,0,.2305,1.0161,1.1313,1.1313,0,0,0,.8623.3853,1.7269,1.7269,0,0,0,1.3086-.4927.9433.9433,0,0,0,.2773-.7085c.0313-.4155.0313-1.0161.0313-1.57,0-.231-.0157-.9546-.0157-1.355-.0156-.5234-.17-.6-.6777-.708-.1689-.0308-.2461-.0772-.2461-.1231,0-.062.1387-.0927.2305-.0927h.6465A8.1384,8.1384,0,0,0,129.31,69.28c.0468,0,.0771.0615.0615.1694-.0762.7237-.1074,2.2632-.1074,4.0493a5.0824,5.0824,0,0,0,.0312.7852c.03.1538.0762.1846.1992.1694a4.3171,4.3171,0,0,1,.6319-.1386.185.185,0,0,1,.1845.1694c0,.0615-.1386.0923-.2929.123a6.9468,6.9468,0,0,0-1.585.4156c-.123.0615-.1543.0464-.1855,0s-.03-.1231-.03-.2925c0-.1538.0156-.4927.0156-.6006,0-.0459-.0156-.1538-.0469-.1074a4.4276,4.4276,0,0,1-1.0615.7544,2.6441,2.6441,0,0,1-.9092.2309A1.5119,1.5119,0,0,1,124.876,74.4534Z"/><path class="cls-4" d="M135.6084,69.6961a3.2045,3.2045,0,0,1,.4922,2.0166c0,.8159.0156.9395.0156,1.709.0156,1.0469.0615,1.1392.4776,1.2471.1386.0615.23.0922.23.1538,0,.0927-.123.1079-.2763.1079-.2,0-.6475-.0615-.9854-.0615-.5234,0-.7236.0615-.9551.0615-.1386,0-.2461-.0308-.2461-.0923s.0928-.1231.292-.1694c.37-.0923.4317-.2.4317-.6465V71.9285c0-1.247-.1075-1.6167-.4932-1.9092a1.3659,1.3659,0,0,0-.877-.2924,1.8418,1.8418,0,0,0-1.2011.4926.7986.7986,0,0,0-.1846.462c0,.1845.0156.97.0156,1.8935a12.6557,12.6557,0,0,0,.0918,1.6167c.0469.3384.2315.4155.4776.4927.1845.0459.2617.0766.2617.1538,0,.0923-.1543.0923-.3076.0923-.1231,0-.878-.0615-1.2325-.0615-.2,0-.5234.0307-.8154.0307-.17,0-.293-.0307-.293-.1079,0-.0615.1387-.123.3233-.1538.3848-.0771.4473-.1846.4619-.4927.0313-1.1084.0313-2.5249.0313-3.7719,0-.1539-.0313-.3233-.4-.5235-.0928-.0615-.1231-.0923-.1231-.1387,0-.0307.0772-.0771.2158-.123a5.8048,5.8048,0,0,0,1.2159-.5234c.0459-.0157.123.0459.1074.123a7.0731,7.0731,0,0,0-.03.8159c0,.0308.0459.0772.0771.0464a5.296,5.296,0,0,1,1.0928-.6929,2.0767,2.0767,0,0,1,.9082-.185A1.5708,1.5708,0,0,1,135.6084,69.6961Z"/><path class="cls-4" d="M141.8457,69.3265c.03.0151.0762-.0464.0762-.0772,0-.2768-.0147-3.0024-.03-3.8183a.4135.4135,0,0,0-.0615-.2617.8416.8416,0,0,0-.4317-.2461c-.1074-.0308-.1845-.0772-.1845-.1231s.0771-.0928.1845-.1079a6.4888,6.4888,0,0,0,1.3243-.37.5228.5228,0,0,1,.2158-.0772c.0459,0,.0771.0772.0615.2617-.0312.462-.1074,5.4659-.1074,7.0362,0,1.3393.0146,2.4018.03,2.8022a.1364.1364,0,0,0,.1083.1387,4.0391,4.0391,0,0,0,.7237-.1694c.0918-.0308.1377.0151.1377.0615,0,.1079-.1074.2466-.3848.2925a8.6442,8.6442,0,0,0-1.6006.4c-.0615.0151-.1084-.0616-.1084-.108a4.5842,4.5842,0,0,0,.0313-.6313c0-.0308-.0313-.0615-.0615-.0308a2.8905,2.8905,0,0,1-1.7559.7237,2.5124,2.5124,0,0,1-1.6318-.6465,2.9183,2.9183,0,0,1-.8-2.063,3.0657,3.0657,0,0,1,1.3388-2.54,3.4613,3.4613,0,0,1,1.9092-.585A4.2579,4.2579,0,0,1,141.8457,69.3265Zm-2.2939.4155a2.7309,2.7309,0,0,0-.8477,2.2324c0,1.6631.9395,2.5249,1.8789,2.5249a1.6048,1.6048,0,0,0,1.0928-.4,1.0372,1.0372,0,0,0,.17-.5693,21.4386,21.4386,0,0,0-.0156-2.9717,1.0355,1.0355,0,0,0-.1387-.37,1.7147,1.7147,0,0,0-1.37-.708A1.1333,1.1333,0,0,0,139.5518,69.742Z"/><path class="cls-4" d="M58.0557,82.97a9.4662,9.4662,0,0,0,1.956-.4,1.6223,1.6223,0,0,1,.3389-.1079c.03,0,.0615.0157.0615.1079,0,.2-.0156,1.57-.0469,2.5713-.0146,1.293.0157,4.5264.0469,5.1885.0459.9546.1231,1.0469.77,1.1548.169.0308.2461.0923.2461.1538s-.0918.1079-.292.1079c-.7851,0-1.2627-.0771-1.8017-.0771-.7549,0-1.0469.0771-1.586.0771-.1386,0-.2617-.0308-.2617-.1235,0-.0615.0928-.0923.2461-.1231.7237-.123.8623-.2617.8936-1.17.0459-.4775.0771-1.3086.0771-3.9414,0-1.8628-.0156-2.3711-.0469-2.7559a.3745.3745,0,0,0-.2-.3388,2.3236,2.3236,0,0,0-.3848-.0923c-.0918-.0156-.23-.0615-.23-.1231C57.8408,83.0316,57.9326,82.9852,58.0557,82.97Z"/><path class="cls-4" d="M64.709,82.97a9.4438,9.4438,0,0,0,1.9551-.4,1.6218,1.6218,0,0,1,.3388-.1079c.0313,0,.0616.0157.0616.1079,0,.2-.0157,1.57-.0459,2.5713-.0157,1.293.0156,4.5264.0459,5.1885.0459.9546.123,1.0469.77,1.1548.17.0308.2471.0923.2471.1538s-.0928.1079-.293.1079c-.7852,0-1.2627-.0771-1.8008-.0771-.7549,0-1.0478.0771-1.5859.0771-.1387,0-.2618-.0308-.2618-.1235,0-.0615.0918-.0923.2461-.1231.7237-.123.8623-.2617.8926-1.17.0469-.4775.0772-1.3086.0772-3.9414,0-1.8628-.0157-2.3711-.0459-2.7559a.3765.3765,0,0,0-.2-.3388,2.3483,2.3483,0,0,0-.3848-.0923c-.0928-.0156-.2314-.0615-.2314-.1231C64.4932,83.0316,64.5859,82.9852,64.709,82.97Z"/><path class="cls-4" d="M73.5938,88.4974a2.7271,2.7271,0,0,0,.6474,1.8935A2.0359,2.0359,0,0,0,75.58,90.93a1.9432,1.9432,0,0,0,1.4941-.5234c.0762-.0616.1377-.0616.1377,0a.5429.5429,0,0,1-.123.2773,2.574,2.574,0,0,1-2.1709,1.1392,2.8329,2.8329,0,0,1-1.7705-5.0191,3.8383,3.8383,0,0,1,2.2636-.8774,2.3594,2.3594,0,0,1,1.5088.4155.4182.4182,0,0,1,.1846.2925.5691.5691,0,0,1-.4922.6006.6064.6064,0,0,1-.2617-.1387,6.8789,6.8789,0,0,0-.9707-.7236,1.1887,1.1887,0,0,0-.5694-.1231C74.3945,86.2493,73.5938,86.7576,73.5938,88.4974Z"/><path class="cls-4" d="M83.9727,88.8358a3.0806,3.0806,0,0,1-1.2012,2.4174,3.2577,3.2577,0,0,1-1.8477.6,2.9772,2.9772,0,0,1-3.0947-2.94,2.83,2.83,0,0,1,1.0938-2.2788,3.135,3.135,0,0,1,1.9707-.708A2.9213,2.9213,0,0,1,83.9727,88.8358Zm-4.5108-.3384a4.6187,4.6187,0,0,0,.4766,2.2632,1.4907,1.4907,0,0,0,1.1709.8466.9144.9144,0,0,0,.708-.354,3.6419,3.6419,0,0,0,.5078-2.0942c0-1.7549-.4922-2.9712-1.57-2.9712C80.0928,86.1878,79.4619,87.1575,79.4619,88.4974Z"/><path class="cls-4" d="M90.0557,86.45a2.73,2.73,0,0,1,.539,1.94c.0157.893.0313,1.0468.0313,1.9091.0156.9546.0918,1.0777.5078,1.1856.0771.0308.1689.0615.1689.1382,0,.062-.0761.0927-.2148.0927-.3545,0-.8623-.0463-1.17-.0463A12.1241,12.1241,0,0,0,88.64,91.73c-.1542,0-.2617-.0459-.2617-.1079s.0928-.1074.2305-.1382c.416-.1235.4932-.231.4932-.5855V88.6356c0-1.1856-.0928-1.5088-.462-1.8013a1.2262,1.2262,0,0,0-.7236-.2153,1.3835,1.3835,0,0,0-.831.2924.462.462,0,0,0-.1543.3233c0,.2925.0156,1.0161.0156,1.8012.0156.9546.0459,1.7247.0615,1.9092a.52.52,0,0,0,.4307.5235c.1845.0464.247.0771.247.1538,0,.0927-.17.1079-.2773.1079-.1543,0-1.0322-.0615-1.3857-.0615-.2,0-.6006.0307-1.0625.0307-.169,0-.293-.0464-.293-.123,0-.0615.1387-.1231.2773-.1538.4317-.0772.4619-.2.4776-.5547.0312-.8926.0459-2.2324.0459-3.6489,0-.1539-.0459-.2769-.3535-.4927-.1387-.0923-.1231-.1231-.1231-.1538,0-.0459.0762-.0923.2149-.1231a7.8651,7.8651,0,0,0,1.6318-.6313c.0469-.0152.124.0464.124.123a5.97,5.97,0,0,0-.0312.77c0,.0308.0459.0464.0771.0152a4.4175,4.4175,0,0,1,.9082-.6,2.2322,2.2322,0,0,1,.9082-.2A1.5939,1.5939,0,0,1,90.0557,86.45Z"/><path class="cls-4" d="M92.6133,91.1146a1.92,1.92,0,0,1-.1846-.9546V87.0037a.2646.2646,0,0,0-.1084-.2617,1.0418,1.0418,0,0,0-.2461-.0923c-.123-.0307-.2-.0771-.2-.1538,0-.0464.0772-.1235.2461-.2158a5.073,5.073,0,0,0,1.4473-1.0933c.2314-.2309.3388-.1694.3388-.0923,0,.108-.03.7544-.0156.8775,0,.0464.0156.1543.0772.1543.2929-.0156,1.3242-.0464,1.57-.0308.0312,0,.123.1074.123.2769,0,.3388-.1074.354-.1689.354H94.1377c-.1856,0-.2158.062-.2158.1387,0,.3388-.0157,2.8022,0,3.2026a1.1022,1.1022,0,0,0,.1689.708.9524.9524,0,0,0,.7393.3389,1.2363,1.2363,0,0,0,.708-.1851c.1543-.0923.2-.0459.2,0,0,.0928-.0772.2158-.3233.416a2.12,2.12,0,0,1-1.3857.4619A1.51,1.51,0,0,1,92.6133,91.1146Z"/><path class="cls-4" d="M100.1426,86.5574a2.76,2.76,0,0,1,.3847,1.54c0,.7388-.03,2.0322-.03,2.4326a.4976.4976,0,0,0,.5078.4927.8418.8418,0,0,0,.4316-.1236c.0615-.0459.1231.0621.0762.1543a1.5757,1.5757,0,0,1-1.416.8,1.1105,1.1105,0,0,1-1.0313-.7236c0-.0151-.0468-.0308-.0771-.0151a1.9642,1.9642,0,0,1-1.4932.708,1.3254,1.3254,0,0,1-1.2471-1.3853,1.1046,1.1046,0,0,1,.5694-.9546c.4-.2,1.6777-.5239,2.0937-.6928a.3071.3071,0,0,0,.2-.231,6.006,6.006,0,0,0,.0157-.7393,1.3692,1.3692,0,0,0-.3389-1.1084.9452.9452,0,0,0-.6006-.2617,1.16,1.16,0,0,0-.5391.1387.375.375,0,0,0-.1533.2617c0,.0767.0147.3076.0147.4463a.2786.2786,0,0,1-.0918.1231,5.3617,5.3617,0,0,1-.94.4926c-.0918.0157-.1846-.0923-.1846-.1689a1.2613,1.2613,0,0,1,.4-.647,4.26,4.26,0,0,1,1.17-.8467,2.6267,2.6267,0,0,1,1.0312-.3232A1.4837,1.4837,0,0,1,100.1426,86.5574ZM98.8955,90.93a.6316.6316,0,0,0,.1387-.3076,14.6433,14.6433,0,0,0,.0771-1.54c0-.0156-.03-.1079-.0927-.0922a5.27,5.27,0,0,0-.9854.3847.84.84,0,0,0-.4463.8.8767.8767,0,0,0,.832.9395A.6118.6118,0,0,0,98.8955,90.93Z"/><path class="cls-4" d="M102.1152,86.619c0-.0464.0918-.108.2-.1231a4.8343,4.8343,0,0,0,1.4-.5547.5316.5316,0,0,1,.2774-.1074c.0615,0,.0771.0767.0771.1538,0,.1694,0,.5542-.0156.708,0,.0772.0156.1387.0771.0772a2.9458,2.9458,0,0,1,1.878-.8316,1.5876,1.5876,0,0,1,1.4785.97.074.074,0,0,0,.1074.0152,2.95,2.95,0,0,1,2.0322-.97,1.6115,1.6115,0,0,1,1.54,1.1392,4.9893,4.9893,0,0,1,.1845,1.4321c.0157.5078.0459,1.7242.0616,2.2476s.1689.6157.4463.6621c.1542.0464.246.1079.246.1387,0,.0766-.0918.1386-.2919.1386-.17,0-.8008-.0463-1.1553-.0463-.3692,0-.9229.0615-1.1543.0615-.2,0-.2774-.0308-.2774-.1079s.1231-.1231.2315-.1538c.3232-.0772.415-.2461.415-.6929a21.0653,21.0653,0,0,0-.1074-3.0327c-.1387-.7857-.5391-1.0474-1.14-1.0474a1.4709,1.4709,0,0,0-.9385.4.5369.5369,0,0,0-.0615.3081c.0918.6006.0918,3.0176.1074,3.4331.0459.4312.0927.5235.4306.6162.1543.0616.2315.1075.2315.169s-.1074.0927-.2315.0927c-.5234,0-.7539-.0463-1.4472-.0463-.3535,0-.7852.0463-.9541.0463-.2158,0-.2617-.0307-.2617-.0927,0-.0459.0615-.1074.2158-.1538.3232-.0772.4619-.2.4619-.57l.0459-2.4633c0-.816-.0459-1.1392-.3545-1.4781a1.1012,1.1012,0,0,0-.7852-.3076,1.2412,1.2412,0,0,0-.8769.3384.9638.9638,0,0,0-.1231.2622c-.0156.2-.0312.5234-.0312,1.1851a22.1967,22.1967,0,0,0,.0771,2.6328c.03.2158.1075.3081.4.3852.169.0616.23.1075.23.1538,0,.0772-.1074.1079-.23.1079-.2773,0-.8623-.0463-1.2314-.0463-.6475,0-.9238.0463-1.294.0463-.1386,0-.2461-.0463-.2461-.1079,0-.0771.0928-.1079.2774-.1538.3848-.0927.4765-.2309.4922-.5083.0312-.2461.0468-2.0937.0468-2.6479,0-.3853.0147-.7852-.0156-1.0318,0-.1538-.0771-.2924-.3086-.4619-.0918-.0771-.123-.1079-.123-.1845Z"/><path class="cls-4" d="M113.0645,86.4031a6.9617,6.9617,0,0,0,1.5087-.4619,1.374,1.374,0,0,1,.2305-.0923c.0459,0,.0772.0464.0615.2159-.03.3232-.03,1.1084-.03,1.7548,0,1.7247,0,2.9561.03,3.1871a.466.466,0,0,0,.416.4775c.169.0459.2149.0923.2149.1538,0,.0771-.1074.1079-.23.1079-.2617,0-.6162-.0771-1.2627-.0771-.6767,0-1.0312.0307-1.2011.0307-.1377,0-.2618-.0464-.2618-.1079,0-.0766.0928-.1074.2774-.1382.4-.0927.5088-.2929.5088-.8315,0-.4619.0459-3.1406.0459-3.2949,0-.2925,0-.354-.4-.6314-.0772-.0615-.1231-.1074-.1231-.1689C112.8486,86.4959,112.8945,86.45,113.0645,86.4031Zm1.832-2.4477a.7372.7372,0,0,1-.7549.77.6961.6961,0,0,1-.6465-.708.7365.7365,0,0,1,.7237-.7851A.7247.7247,0,0,1,114.8965,83.9554Z"/><path class="cls-4" d="M121.3633,86.45a2.735,2.735,0,0,1,.539,1.94c.0157.893.03,1.0468.03,1.9091.0156.9546.0928,1.0777.5088,1.1856.0762.0308.169.0615.169.1382,0,.062-.0772.0927-.2159.0927-.3535,0-.8623-.0463-1.17-.0463a12.088,12.088,0,0,0-1.2773.0615c-.1543,0-.2627-.0459-.2627-.1079s.0927-.1074.2314-.1382c.416-.1235.4922-.231.4922-.5855V88.6356c0-1.1856-.0918-1.5088-.4609-1.8013a1.23,1.23,0,0,0-.7237-.2153,1.3844,1.3844,0,0,0-.832.2924.4615.4615,0,0,0-.1533.3233c0,.2925.0146,1.0161.0146,1.8012.0157.9546.0469,1.7247.0616,1.9092a.52.52,0,0,0,.4316.5235c.1846.0464.2461.0771.2461.1538,0,.0927-.169.1079-.2774.1079-.1533,0-1.0312-.0615-1.3857-.0615-.2,0-.6006.0307-1.0615.0307-.17,0-.293-.0464-.293-.123,0-.0615.1387-.1231.2774-.1538.4306-.0772.4619-.2.4765-.5547.0313-.8926.0469-2.2324.0469-3.6489,0-.1539-.0469-.2769-.3545-.4927-.1387-.0923-.123-.1231-.123-.1538,0-.0459.0771-.0923.2158-.1231a7.8651,7.8651,0,0,0,1.6318-.6313c.0459-.0152.1231.0464.1231.123a5.9792,5.9792,0,0,0-.03.77c0,.0308.0459.0464.0762.0152a4.42,4.42,0,0,1,.9091-.6,2.2285,2.2285,0,0,1,.9082-.2A1.5937,1.5937,0,0,1,121.3633,86.45Z"/><path class="cls-4" d="M127.1074,86.5574a2.76,2.76,0,0,1,.3848,1.54c0,.7388-.03,2.0322-.03,2.4326a.4977.4977,0,0,0,.5078.4927.8418.8418,0,0,0,.4317-.1236c.0615-.0459.123.0621.0761.1543a1.5756,1.5756,0,0,1-1.416.8A1.11,1.11,0,0,1,126.03,91.13c0-.0151-.0469-.0308-.0772-.0151a1.964,1.964,0,0,1-1.4931.708,1.3254,1.3254,0,0,1-1.2471-1.3853,1.1045,1.1045,0,0,1,.5693-.9546c.4-.2,1.6778-.5239,2.0938-.6928a.3075.3075,0,0,0,.2-.231,6.0245,6.0245,0,0,0,.0156-.7393,1.3688,1.3688,0,0,0-.3389-1.1084.945.945,0,0,0-.6006-.2617,1.16,1.16,0,0,0-.539.1387.3743.3743,0,0,0-.1533.2617c0,.0767.0146.3076.0146.4463a.2786.2786,0,0,1-.0918.1231,5.3607,5.3607,0,0,1-.9394.4926c-.0918.0157-.1846-.0923-.1846-.1689a1.2613,1.2613,0,0,1,.4-.647,4.2578,4.2578,0,0,1,1.17-.8467,2.6275,2.6275,0,0,1,1.0313-.3232A1.4835,1.4835,0,0,1,127.1074,86.5574ZM125.86,90.93a.6325.6325,0,0,0,.1386-.3076,14.6078,14.6078,0,0,0,.0772-1.54c0-.0156-.03-.1079-.0928-.0922a5.2726,5.2726,0,0,0-.9854.3847.84.84,0,0,0-.4462.8.8766.8766,0,0,0,.832.9395A.6119.6119,0,0,0,125.86,90.93Z"/><path class="cls-4" d="M134.1445,86.45a2.73,2.73,0,0,1,.5391,1.94c.0156.893.0312,1.0468.0312,1.9091.0157.9546.0918,1.0777.5079,1.1856.0771.0308.1689.0615.1689.1382,0,.062-.0762.0927-.2148.0927-.3545,0-.8623-.0463-1.17-.0463a12.1232,12.1232,0,0,0-1.2783.0615c-.1543,0-.2617-.0459-.2617-.1079s.0928-.1074.2305-.1382c.416-.1235.4931-.231.4931-.5855V88.6356c0-1.1856-.0927-1.5088-.4619-1.8013a1.2264,1.2264,0,0,0-.7236-.2153,1.3838,1.3838,0,0,0-.8311.2924.4624.4624,0,0,0-.1543.3233c0,.2925.0157,1.0161.0157,1.8012.0156.9546.0459,1.7247.0615,1.9092a.52.52,0,0,0,.4306.5235c.1846.0464.2471.0771.2471.1538,0,.0927-.17.1079-.2773.1079-.1543,0-1.0323-.0615-1.3858-.0615-.2,0-.6006.0307-1.0625.0307-.1689,0-.2929-.0464-.2929-.123,0-.0615.1386-.1231.2773-.1538.4316-.0772.4619-.2.4775-.5547.0313-.8926.0459-2.2324.0459-3.6489,0-.1539-.0459-.2769-.3535-.4927-.1386-.0923-.123-.1231-.123-.1538,0-.0459.0761-.0923.2148-.1231a7.864,7.864,0,0,0,1.6319-.6313c.0468-.0152.124.0464.124.123a5.9875,5.9875,0,0,0-.0313.77c0,.0308.0459.0464.0772.0152a4.4175,4.4175,0,0,1,.9082-.6,2.2315,2.2315,0,0,1,.9082-.2A1.5935,1.5935,0,0,1,134.1445,86.45Z"/><path class="cls-4" d="M136.7021,91.1146a1.9208,1.9208,0,0,1-.1845-.9546V87.0037a.2646.2646,0,0,0-.1084-.2617,1.0418,1.0418,0,0,0-.2461-.0923c-.1231-.0307-.2-.0771-.2-.1538,0-.0464.0771-.1235.2461-.2158a5.0714,5.0714,0,0,0,1.4472-1.0933c.2315-.2309.3389-.1694.3389-.0923,0,.108-.03.7544-.0156.8775,0,.0464.0156.1543.0771.1543.293-.0156,1.3243-.0464,1.57-.0308.0312,0,.123.1074.123.2769,0,.3388-.1074.354-.1689.354h-1.3545c-.1856,0-.2159.062-.2159.1387,0,.3388-.0156,2.8022,0,3.2026a1.1021,1.1021,0,0,0,.169.708.9523.9523,0,0,0,.7392.3389,1.2364,1.2364,0,0,0,.7081-.1851c.1542-.0923.2-.0459.2,0,0,.0928-.0771.2158-.3232.416a2.12,2.12,0,0,1-1.3857.4619A1.5106,1.5106,0,0,1,136.7021,91.1146Z"/><path class="cls-4" d="M141.6768,87.0037c0,.6006.5234.8931,1.1543,1.2935.97.6465,1.34,1.0469,1.34,1.832a1.7178,1.7178,0,0,1-.709,1.2935,3.013,3.013,0,0,1-1.5088.4306,4.2671,4.2671,0,0,1-1.3388-.2617c-.1084-.0459-.2618-.1846-.2618-.2925-.0156-.2153-.0615-.6928-.0771-.8466-.0156-.2.0156-.3082.0771-.3082.0459,0,.1075.0464.2.3238a1.9348,1.9348,0,0,0,.6465.9233,1.141,1.141,0,0,0,.77.2.9217.9217,0,0,0,.9238-.8618c0-.4468-.3233-.77-1.1084-1.2627a2.2856,2.2856,0,0,1-1.2471-1.8013,1.5849,1.5849,0,0,1,.7539-1.37,2.3143,2.3143,0,0,1,1.31-.37,3.5465,3.5465,0,0,1,1.2.2.2023.2023,0,0,1,.0928.1538c0,.1538.0615.4311.0771.8315.0147.1695-.0312.2461-.0928.2461s-.0927-.0766-.1386-.2a1.4133,1.4133,0,0,0-.3848-.708,1.2849,1.2849,0,0,0-.8008-.2773A.8864.8864,0,0,0,141.6768,87.0037Z"/><path class="cls-4" d="M56.7783,103.2191a7.6491,7.6491,0,0,0,1.1084-.4.6256.6256,0,0,1,.23-.1075c.0469,0,.0771.0459.0615.2159-.03.3076-.03,1.247-.03,2.2324,0,1.293,0,2.4326.03,2.6943.0313.3076.1856.3848.4317.4463.1542.03.23.0615.23.1231,0,.0771-.123.1074-.2461.1074-.1386,0-.708-.0615-1.124-.0615-.5078,0-.7539.0312-.9238.0312-.1074,0-.2149-.0312-.2149-.0928s.0762-.1074.292-.1386c.3389-.0918.4776-.2149.4932-.8467.0146-.4619.0459-3.2637.0459-3.418,0-.2148-.0156-.3076-.4463-.5391-.0772-.0458-.123-.0917-.123-.123C56.5938,103.2962,56.64,103.25,56.7783,103.2191Zm1.5391-2.51a.5858.5858,0,0,1-.5694.585.5478.5478,0,0,1-.5078-.5694.57.57,0,0,1,.5391-.6006A.5629.5629,0,0,1,58.3174,100.7093Z"/><path class="cls-4" d="M64.4766,103.2962a3.2108,3.2108,0,0,1,.4931,2.0166c0,.8164.0157.94.0157,1.709.0146,1.0469.0615,1.14.4765,1.2471.1387.0615.2315.0927.2315.1543,0,.0927-.1231.1074-.2774.1074-.2,0-.6465-.0615-.9853-.0615-.5235,0-.7237.0615-.9541.0615-.1387,0-.2471-.03-.2471-.0918s.0928-.1231.293-.17c.3691-.0918.4306-.2.4306-.6465v-2.0938c0-1.247-.1074-1.6162-.4922-1.9092a1.371,1.371,0,0,0-.8779-.2919,1.8368,1.8368,0,0,0-1.2.4921.7953.7953,0,0,0-.1855.462c0,.1845.0156.97.0156,1.8935a12.5391,12.5391,0,0,0,.0928,1.6172c.0459.3379.23.415.4765.4922.1856.0459.2617.0771.2617.1543,0,.0918-.1533.0918-.3076.0918-.123,0-.8769-.0615-1.2314-.0615-.2,0-.5235.0312-.8164.0312-.169,0-.292-.0312-.292-.1084,0-.0615.1387-.123.3232-.1533.3848-.0772.4463-.1846.4619-.4932.03-1.1084.03-2.5244.03-3.7715,0-.1543-.03-.3232-.4-.5234-.0918-.0615-.123-.0928-.123-.1387,0-.0312.0771-.0771.2158-.123a5.8351,5.8351,0,0,0,1.2168-.5235c.0459-.0156.123.0459.1074.1231a7.062,7.062,0,0,0-.0312.8154c0,.0313.0468.0772.0771.0469a5.2809,5.2809,0,0,1,1.0938-.6934,2.0894,2.0894,0,0,1,.9082-.1845A1.57,1.57,0,0,1,64.4766,103.2962Z"/><path class="cls-4" d="M74.6406,105.6829a2.9483,2.9483,0,0,1-2.9248,2.9707,2.9359,2.9359,0,0,1-1.8789-5.2343,3.161,3.161,0,0,1,1.8477-.6465A2.89,2.89,0,0,1,74.6406,105.6829Zm-4.8037-.2158a3.5282,3.5282,0,0,0,.6465,2.1094,1.8318,1.8318,0,0,0,1.4473.8154,1.5225,1.5225,0,0,0,.9707-.3848,3.0659,3.0659,0,0,0,.6465-2.0625c0-1.4628-.7393-2.91-2.0938-2.91C70.668,103.0345,69.8369,103.8655,69.8369,105.4671Z"/><path class="cls-4" d="M76.3975,108.054a1.6158,1.6158,0,0,1-.293-.9394c0-.5078,0-3.11-.03-3.3721a.5991.5991,0,0,0-.3388-.5078c-.1387-.0928-.1846-.1387-.1846-.1846s.0762-.0771.2461-.0771a5.42,5.42,0,0,0,1.2929-.2c.0469-.0157.0928.0771.0772.1689-.0459.8779-.0615,2.9717-.0459,3.68a1.7081,1.7081,0,0,0,.2305,1.0166,1.1326,1.1326,0,0,0,.8623.3848,1.7265,1.7265,0,0,0,1.3086-.4922.9445.9445,0,0,0,.2773-.709c.0313-.415.0313-1.0156.0313-1.57,0-.2305-.0157-.9541-.0157-1.3545-.0156-.5234-.17-.6006-.6777-.708-.1689-.0313-.2461-.0772-.2461-.1231,0-.0625.1387-.0927.2305-.0927h.6465a8.0958,8.0958,0,0,0,1.0625-.0928c.0468,0,.0771.0615.0615.17-.0762.7236-.1074,2.2627-.1074,4.0488a5.08,5.08,0,0,0,.0312.7852c.03.1543.0762.1846.1992.17a4.2543,4.2543,0,0,1,.6319-.1387.1847.1847,0,0,1,.1845.169c0,.0615-.1386.0928-.2929.123a6.9264,6.9264,0,0,0-1.585.4161c-.123.0615-.1543.0459-.1855,0s-.03-.1231-.03-.293c0-.1533.0156-.4922.0156-.6,0-.0469-.0156-.1543-.0469-.1084a4.4476,4.4476,0,0,1-1.0615.7549,2.6438,2.6438,0,0,1-.9092.23A1.5128,1.5128,0,0,1,76.3975,108.054Z"/><path class="cls-4" d="M84.1436,103.8968a.88.88,0,0,0-.2618.5391,8.7542,8.7542,0,0,0-.0156.9384c0,1.14.0313,1.9405.0615,2.2637.0616.4775.2461.585.8321.6465.2148.0312.292.0615.292.1387s-.1387.1074-.3692.1074c-.293,0-.8008-.0615-1.4472-.0615a8.2938,8.2938,0,0,0-.9395.0927c-.1846,0-.2617-.0312-.2617-.0927,0-.0459.1074-.1231.23-.1534a.6363.6363,0,0,0,.5547-.6318c.0313-.2617.0459-1.1387.0459-2.1553V103.82c0-.1074-.1074-.1543-.4-.4-.1074-.0772-.123-.1231-.123-.1543s.0928-.0918.2314-.1377a4.6733,4.6733,0,0,0,.9854-.37.4862.4862,0,0,1,.2305-.0771c.0312,0,.0615.0615.0615.2158,0,.17-.0147.7549-.0147,1.001,0,.0459.03.0615.0762.0156a2.5139,2.5139,0,0,1,1.6631-1.1084.898.898,0,0,1,.5391.1992.27.27,0,0,1,.1074.2159,1.0443,1.0443,0,0,1-.3389.5234c-.1377.123-.2.1387-.2461.1387a.706.706,0,0,1-.2773-.1075,1.0693,1.0693,0,0,0-.5381-.1845A1.0516,1.0516,0,0,0,84.1436,103.8968Z"/><path class="cls-4" d="M88.9941,98.7542c.3545.0151,1.294.0615,1.7862.0615.0615,0,.1386.0616.2.2154.6621,1.4629,2.833,5.7739,3.8027,7.59.0459.0928.0772.0312.1387-.0615.9082-1.7393,2.8633-5.542,3.2334-6.2969a13.2007,13.2007,0,0,0,.4619-1.2471c.0156-.0307.0771-.2.1533-.2.4316,0,1.2471-.0923,1.6787-.0923.1543,0,.2461.0308.2461.0923s-.123.1231-.2305.1387c-.9082.2153-.9707.3848-1.0166,1.293-.03.5234-.0459,2.3711-.0459,3.1416,0,1.6777.0616,3.2021.0918,3.6943.0625.8936.2315,1.0322.8321,1.2168.1386.0459.2461.0918.2461.169,0,.0615-.0928.0927-.2774.0927-.292,0-1.124-.0927-1.539-.0927-.6319,0-1.0469.0312-1.2784.0312-.1543,0-.3232-.0156-.3232-.123,0-.0616.1543-.1231.3076-.1387.6475-.17.7549-.416.8008-1.6934.0459-.832.0459-4.958.0459-5.65,0-.1543-.0459-.1543-.0762-.0615-1.0322,2.0625-2.9258,5.7578-3.665,7.4053-.0762.1846-.1377.2773-.2305.2773-.0771,0-.1846-.247-.3232-.539-.7237-1.5557-2.7715-5.835-3.3565-7.02-.0771-.1387-.1074-.1387-.1386.0761-.0616.8936-.2305,4.8809-.2305,5.5127a3.8829,3.8829,0,0,0,.0918,1.1231.9026.9026,0,0,0,.7851.6162c.17.0312.2618.0928.2618.1543,0,.0918-.1387.123-.3077.1074-.1845-.0156-.7392-.0771-1.2929-.0771s-.9707.0927-1.1241.0927c-.2,0-.2773-.0312-.2773-.1084,0-.0459.0615-.1074.2773-.1533a1.1553,1.1553,0,0,0,.8311-.4932,4.3773,4.3773,0,0,0,.3232-1.6621c.0928-.9091.3077-4.3261.3077-5.3115,0-.9243-.0918-1.14-.3536-1.4477a1.312,1.312,0,0,0-.8466-.4c-.1387-.0308-.2461-.0923-.2461-.1543S88.8555,98.7386,88.9941,98.7542Z"/><path class="cls-4" d="M110.29,99.2928a.2718.2718,0,0,1,.1543.2617c-.03.37.0459,1.0317.0459,1.186s-.0615.2461-.0918.2461c-.0615,0-.1084-.0771-.1386-.2a2.4013,2.4013,0,0,0-.7393-1.2319,3.5292,3.5292,0,0,0-2.3555-.77,3.7135,3.7135,0,0,0-2.6787,1.2007,5.5607,5.5607,0,0,0-1.17,3.5722,5.8332,5.8332,0,0,0,1.416,3.7256,3.6753,3.6753,0,0,0,2.6328,1.14,3.2674,3.2674,0,0,0,1.8321-.4307,2.7582,2.7582,0,0,0,1.1855-1.51c.0615-.1992.0928-.2617.1543-.2617s.0918.1387.0918.2315a11.0561,11.0561,0,0,1-.2148,1.2158.414.414,0,0,1-.1543.2314,5.5841,5.5841,0,0,1-3.002.8467,5.3,5.3,0,0,1-4.0029-1.6318,5.3806,5.3806,0,0,1-1.294-3.4024,4.9123,4.9123,0,0,1,1.7246-3.896,5.5361,5.5361,0,0,1,3.587-1.2778A7.1108,7.1108,0,0,1,110.29,99.2928Z"/><path class="cls-4" d="M112.0166,98.7386c.4775,0,.9707.0771,1.3857.0771.4776,0,.9082-.0615,1.2627-.0615.1846,0,.2461.0308.2461.0767,0,.0771-.0918.1235-.2148.1543-.6318.123-.6621.2153-.709,1.2778-.0146.2617-.03,1.6787-.03,3.0791,0,1.4629.0157,3.0029.03,3.2949a2.8621,2.8621,0,0,0,.2158,1.2168c.169.23.585.3848,1.8321.3848a6.7663,6.7663,0,0,0,1.3554-.0772c.3379-.0615.6768-.4463.9854-1.0009.1074-.1846.1845-.2461.2461-.2461s.0459.23-.0313.4306c-.0459.1231-.3388.9707-.4,1.0782a.366.366,0,0,1-.3232.1543c-.1533,0-1.3242.0146-2.0781-.0313-.77-.03-1.8789-.0771-2.417-.0771-.4776,0-1.1709.0771-1.3858.0771-.1845,0-.3232-.0156-.3232-.1074,0-.0615.1387-.1084.2764-.1231.6621-.124.7548-.3388.8007-.8164.0616-.6162.0616-1.6318.0616-3.7568,0-2.0938-.0147-3.1563-.0459-3.68-.0459-.8774-.0928-.97-.7539-1.0933-.1856-.0307-.2315-.0766-.2315-.1386C111.7705,98.785,111.8633,98.7386,112.0166,98.7386Z"/><path class="cls-4" d="M123.1973,102.9271c.1377,0,.2617.03.2617.1074,0,.0459-.1543.1074-.2617.123-.37.0616-.3545.2-.293.4463.23.709.8926,2.4639,1.2471,3.3262.0156.0459.0771.0615.0927.0146.2461-.5234.9239-2.0166,1.0772-2.417.0156-.0771.0615-.1845.0312-.2617-.0771-.2-.1845-.4463-.2617-.6308a.8182.8182,0,0,0-.5849-.5078c-.1387-.0313-.2159-.0616-.2159-.1241s.0772-.0918.23-.0918c.3233,0,.7236.0459,1.0469.0459.4472,0,.6318-.03.9092-.03.1689,0,.23.03.23.0761,0,.0625-.1074.1241-.23.1543-.3545.0772-.4473.1387-.2618.6162.169.4766.9854,2.709,1.2,3.1866.0469.0771.0772.0156.0772,0,.1846-.4.9238-2.1553,1.1084-2.6787a3.5255,3.5255,0,0,0,.2471-.7393c0-.1387-.0625-.2773-.462-.3848-.2-.0615-.247-.1074-.247-.1543,0-.0615.0927-.0918.2-.0918.2617,0,.539.0459.7851.0459.1543,0,.5391-.0459.77-.0459.1377,0,.2149.03.2149.0918s-.0459.0928-.2764.1543c-.2773.0772-.4619.293-.6621.708-.2773.5547-.7393,1.6172-1.2168,2.71-.2617.6309-.5391,1.3086-.7236,1.8018-.0918.2461-.1543.292-.2.292-.0615,0-.1074-.0616-.169-.2774-.0771-.2148-.1845-.5234-.37-1.0469-.292-.831-.6152-1.709-.9238-2.5244-.0147-.0459-.0459-.0771-.0762,0-.1387.292-.7851,1.709-1.001,2.2481-.2314.5078-.37.8613-.539,1.3086-.0772.2148-.1543.292-.2158.292s-.1075-.1075-.1534-.2774c-.0771-.2148-.17-.585-.4316-1.3232-.2774-.7549-1.1543-3.0332-1.3242-3.3262a.879.879,0,0,0-.6768-.6006c-.123-.03-.2158-.0762-.2158-.123,0-.0918.1074-.1231.2773-.1231.2,0,.6621.0615,1.0928.0615C122.5811,102.9573,122.8887,102.9271,123.1973,102.9271Z"/><path class="cls-4" d="M133.93,103.5579a3.7193,3.7193,0,0,1,.2158,1.4014c0,.5693-.0469,2.0322-.0469,2.4326a.528.528,0,0,0,.57.585.9879.9879,0,0,0,.4463-.1387c.0918-.0459.1534,0,.0918.1387a1.2968,1.2968,0,0,1-1.1855.6621,1.0342,1.0342,0,0,1-.9082-.6934.0548.0548,0,0,0-.0772-.0156,2.1515,2.1515,0,0,1-1.5088.6934,1.2776,1.2776,0,0,1-1.2314-1.3243,1.0867,1.0867,0,0,1,.5547-.8779c.3691-.2,1.7705-.6152,2.0937-.7383a.2928.2928,0,0,0,.2-.2314,5.2969,5.2969,0,0,0,.03-.708c0-.6309-.1074-1.0625-.3691-1.2627a1.1778,1.1778,0,0,0-.6465-.2461,1.0607,1.0607,0,0,0-.6162.1846.6145.6145,0,0,0-.2305.37,1.563,1.563,0,0,0-.0156.292.1918.1918,0,0,1-.0615.123,3.3154,3.3154,0,0,1-.7237.3389c-.0771.0156-.1543-.0772-.1543-.1387,0-.1074.1084-.2461.293-.4619a3.9825,3.9825,0,0,1,1.17-.8926,2.0693,2.0693,0,0,1,.9238-.2773A1.2613,1.2613,0,0,1,133.93,103.5579Zm-1.0313,4.2344a.6385.6385,0,0,0,.169-.37,11.0775,11.0775,0,0,0,.0771-1.4629c0-.0147-.0312-.0918-.0615-.0762a8.5661,8.5661,0,0,0-1.417.5235.796.796,0,0,0-.3848.77.8944.8944,0,0,0,.9239.8623A1.0615,1.0615,0,0,0,132.8984,107.7923Z"/><path class="cls-4" d="M136.2559,107.9a1.732,1.732,0,0,1-.1846-.8779v-3.1865c0-.17-.0156-.2774-.0772-.3086a2.522,2.522,0,0,0-.3691-.0918c-.123-.0313-.2-.0772-.2-.1387,0-.0312.0156-.0771.1846-.1543a3.2847,3.2847,0,0,0,1.2627-1.0312c.1386-.1543.2461-.1231.2461-.0459,0,.1386-.03.5693-.0157.7539,0,.0468.0157.1386.0772.1386.2773,0,1.5547-.0459,1.8789-.0459.03,0,.0918.1075.0918.2159,0,.2617-.0772.3847-.1543.3847-.5381,0-1.293-.0156-1.709-.0156-.1846,0-.2148.0459-.2148.1387,0,.2617.0156,2.6787.03,3.1562a1.5755,1.5755,0,0,0,.17.8311,1.1357,1.1357,0,0,0,.9541.416,1.4989,1.4989,0,0,0,.8466-.2315c.1084-.0761.1543-.0615.1543,0,0,.0928-.1386.2471-.3388.4a2.112,2.112,0,0,1-1.2471.4A1.4273,1.4273,0,0,1,136.2559,107.9Z"/><path class="cls-4" d="M144.2783,104.3431a.18.18,0,0,1-.1543.1689c-.123-.0146-2.124-.0459-2.4785-.0459h-.831c-.0313,0-.1084.0772-.1387.1231a2.1178,2.1178,0,0,0-.1231.8467,2.76,2.76,0,0,0,.708,1.8632,2.08,2.08,0,0,0,1.54.6309,1.962,1.962,0,0,0,1.4619-.4922c.123-.123.1846-.0928.1846-.0156a.5856.5856,0,0,1-.1534.2461,2.7227,2.7227,0,0,1-2.1406.9707,2.4874,2.4874,0,0,1-1.832-.7852,3.012,3.012,0,0,1-.7383-2.0635,3.2105,3.2105,0,0,1,.8926-2.248,2.8649,2.8649,0,0,1,1.9248-.7695A1.776,1.776,0,0,1,144.2783,104.3431Zm-3.1406-.7852a1.3542,1.3542,0,0,0-.3232.6309.0653.0653,0,0,0,.0615.0615l2.001-.0146c.3388,0,.37-.17.37-.3086a.9928.9928,0,0,0-.2159-.6465,1.081,1.081,0,0,0-.77-.292A1.597,1.597,0,0,0,141.1377,103.5579Z"/><path class="cls-4" d="M147.0049,103.8968a.88.88,0,0,0-.2617.5391,8.7247,8.7247,0,0,0-.0157.9384c0,1.14.0313,1.9405.0616,2.2637.0615.4775.2461.585.832.6465.2148.0312.292.0615.292.1387s-.1387.1074-.3692.1074c-.2929,0-.8007-.0615-1.4472-.0615a8.2938,8.2938,0,0,0-.94.0927c-.1845,0-.2617-.0312-.2617-.0927,0-.0459.1074-.1231.2305-.1534a.6365.6365,0,0,0,.5547-.6318c.0312-.2617.0459-1.1387.0459-2.1553V103.82c0-.1074-.1075-.1543-.4-.4-.1074-.0772-.1231-.1231-.1231-.1543s.0928-.0918.2315-.1377a4.6745,4.6745,0,0,0,.9853-.37.4862.4862,0,0,1,.23-.0771c.0312,0,.0615.0615.0615.2158,0,.17-.0146.7549-.0146,1.001,0,.0459.03.0615.0761.0156a2.5139,2.5139,0,0,1,1.6631-1.1084.898.898,0,0,1,.5391.1992.27.27,0,0,1,.1074.2159,1.0443,1.0443,0,0,1-.3389.5234c-.1377.123-.2.1387-.2461.1387a.7066.7066,0,0,1-.2773-.1075,1.0687,1.0687,0,0,0-.5381-.1845A1.0518,1.0518,0,0,0,147.0049,103.8968Z"/><path class="cls-4" d="M57.2861,124.7005a1.7356,1.7356,0,0,1-.1845-.8779V120.636c0-.17-.0157-.2773-.0772-.3085a2.5254,2.5254,0,0,0-.3691-.0918c-.1231-.0313-.2-.0772-.2-.1387,0-.0313.0156-.0772.1845-.1543a3.2834,3.2834,0,0,0,1.2627-1.0313c.1387-.1543.2461-.123.2461-.0459,0,.1377-.03.5694-.0156.7539,0,.0459.0156.1387.0772.1387.2773,0,1.5546-.0459,1.8789-.0459.03,0,.0918.1074.0918.2149,0,.2617-.0772.3847-.1543.3847-.5381,0-1.293-.0146-1.709-.0146-.1846,0-.2149.0459-.2149.1387,0,.2617.0157,2.6787.03,3.1562a1.5758,1.5758,0,0,0,.17.8311,1.1386,1.1386,0,0,0,.9541.416,1.4993,1.4993,0,0,0,.8467-.2315c.1084-.0771.1543-.0615.1543,0,0,.0928-.1387.2461-.3389.4a2.1121,2.1121,0,0,1-1.247.4A1.4275,1.4275,0,0,1,57.2861,124.7005Z"/><path class="cls-4" d="M65.31,121.1439a.1805.1805,0,0,1-.1543.1689c-.1231-.0156-2.125-.0459-2.4785-.0459h-.8321c-.03,0-.1074.0772-.1386.1231a2.1325,2.1325,0,0,0-.1231.8466,2.7641,2.7641,0,0,0,.708,1.8633,2.081,2.081,0,0,0,1.54.6309,1.97,1.97,0,0,0,1.4628-.4922c.1231-.1231.1846-.0928.1846-.0156a.58.58,0,0,1-.1543.2461,2.7184,2.7184,0,0,1-2.14.97,2.4839,2.4839,0,0,1-1.8321-.7852,3.0082,3.0082,0,0,1-.7392-2.0625,3.2089,3.2089,0,0,1,.8926-2.248,2.865,2.865,0,0,1,1.9248-.77A1.7771,1.7771,0,0,1,65.31,121.1439Zm-3.1416-.7852a1.35,1.35,0,0,0-.3233.6309.0662.0662,0,0,0,.0615.0615l2.002-.0156c.3389,0,.3691-.169.3691-.3077a.9918.9918,0,0,0-.2148-.6464,1.0779,1.0779,0,0,0-.77-.293A1.5983,1.5983,0,0,0,62.168,120.3587Z"/><path class="cls-4" d="M67.3115,120.7591c0,.6465.585,1.0156.97,1.2471,1.001.6464,1.4014,1.0312,1.4014,1.8164a1.58,1.58,0,0,1-.8008,1.2929,2.5548,2.5548,0,0,1-1.2314.3389,3.1252,3.1252,0,0,1-1.2168-.2773c-.1231-.0459-.23-.1534-.23-.2461,0-.2159-.0312-.6006-.0459-.77-.0312-.2.0147-.2461.0459-.2461.0459,0,.0928,0,.2.292a1.5034,1.5034,0,0,0,.6465.8321,1.1841,1.1841,0,0,0,.6934.1845,1.0554,1.0554,0,0,0,1-1.0322c0-.5849-.4-.9082-1.0157-1.293-.6621-.4306-1.2783-1.0009-1.2783-1.6777a1.4594,1.4594,0,0,1,.585-1.2168,1.995,1.995,0,0,1,1.2939-.4307,3.7809,3.7809,0,0,1,1.0469.169.2559.2559,0,0,1,.0771.1387c.0147.1689.0762.4775.0918.7236,0,.1689-.03.2461-.0771.2461-.0615,0-.0918-.0772-.1387-.1846a1.1658,1.1658,0,0,0-.3691-.6308,1.2629,1.2629,0,0,0-.7236-.2315A.8975.8975,0,0,0,67.3115,120.7591Z"/><path class="cls-4" d="M71.2852,124.7005a1.7337,1.7337,0,0,1-.1856-.8779V120.636c0-.17-.0146-.2773-.0762-.3085a2.5416,2.5416,0,0,0-.37-.0918c-.123-.0313-.2-.0772-.2-.1387,0-.0313.0157-.0772.1856-.1543A3.2755,3.2755,0,0,0,71.9,118.9114c.1387-.1543.2471-.123.2471-.0459,0,.1377-.0313.5694-.0157.7539,0,.0459.0157.1387.0772.1387.2764,0,1.5547-.0459,1.8779-.0459.0313,0,.0928.1074.0928.2149,0,.2617-.0772.3847-.1543.3847-.5391,0-1.293-.0146-1.709-.0146-.1846,0-.2158.0459-.2158.1387,0,.2617.0156,2.6787.0312,3.1562a1.5784,1.5784,0,0,0,.169.8311,1.1416,1.1416,0,0,0,.9551.416,1.5017,1.5017,0,0,0,.8466-.2315c.1075-.0771.1534-.0615.1534,0,0,.0928-.1377.2461-.3379.4a2.1147,2.1147,0,0,1-1.2471.4A1.4263,1.4263,0,0,1,71.2852,124.7005Z"/><path class="cls-4" d="M75.9668,120.7591c0,.6465.585,1.0156.97,1.2471,1.001.6464,1.4,1.0312,1.4,1.8164a1.5794,1.5794,0,0,1-.8,1.2929,2.5559,2.5559,0,0,1-1.2324.3389,3.1245,3.1245,0,0,1-1.2158-.2773c-.1231-.0459-.2315-.1534-.2315-.2461,0-.2159-.03-.6006-.0459-.77-.03-.2.0156-.2461.0459-.2461.0469,0,.0928,0,.2.292a1.5082,1.5082,0,0,0,.6475.8321,1.1811,1.1811,0,0,0,.6924.1845,1.0561,1.0561,0,0,0,1.0009-1.0322c0-.5849-.4-.9082-1.0166-1.293-.6621-.4306-1.2773-1.0009-1.2773-1.6777a1.4594,1.4594,0,0,1,.585-1.2168,1.992,1.992,0,0,1,1.2929-.4307,3.7684,3.7684,0,0,1,1.0469.169.25.25,0,0,1,.0771.1387c.0157.1689.0772.4775.0928.7236,0,.1689-.0312.2461-.0771.2461-.0616,0-.0928-.0772-.1387-.1846a1.1732,1.1732,0,0,0-.3691-.6308,1.268,1.268,0,0,0-.7237-.2315A.897.897,0,0,0,75.9668,120.7591Z"/><path class="cls-4" d="M80.709,125.1927a1.62,1.62,0,0,1-1.3389,1.5088c-.0928.0156-.17,0-.17-.0459s.0615-.0772.1387-.1074a1.175,1.175,0,0,0,.8164-1.0625.454.454,0,0,0-.4-.462c-.2617-.0615-.4932-.1386-.4932-.4775a.543.543,0,0,1,.5547-.5078C80.2939,124.0384,80.709,124.4847,80.709,125.1927Z"/><path class="cls-4" d="M84.5439,124.7005a1.7348,1.7348,0,0,1-.1855-.8779V120.636c0-.17-.0146-.2773-.0762-.3085a2.5416,2.5416,0,0,0-.37-.0918c-.123-.0313-.2-.0772-.2-.1387,0-.0313.0156-.0772.1856-.1543a3.2755,3.2755,0,0,0,1.2617-1.0313c.1387-.1543.247-.123.247-.0459,0,.1377-.0312.5694-.0156.7539,0,.0459.0156.1387.0772.1387.2763,0,1.5547-.0459,1.8779-.0459.0313,0,.0928.1074.0928.2149,0,.2617-.0772.3847-.1543.3847-.5391,0-1.293-.0146-1.709-.0146-.1846,0-.2158.0459-.2158.1387,0,.2617.0156,2.6787.0312,3.1562a1.5774,1.5774,0,0,0,.169.8311,1.1416,1.1416,0,0,0,.955.416,1.5019,1.5019,0,0,0,.8467-.2315c.1075-.0771.1533-.0615.1533,0,0,.0928-.1376.2461-.3378.4a2.1147,2.1147,0,0,1-1.2471.4A1.4266,1.4266,0,0,1,84.5439,124.7005Z"/><path class="cls-4" d="M89.6865,120.6819a.7786.7786,0,0,0-.1533.5694,30.3562,30.3562,0,0,0,.0772,3.3105.5433.5433,0,0,0,.4921.5235c.2315.0459.3389.0771.3389.1533,0,.0469-.0928.0928-.2314.0928-.4307,0-.8311-.0616-1.2774-.0616-.4775,0-.708.0616-1.001.0616-.1689,0-.2461-.03-.2461-.0928s.0616-.0918.2461-.1377c.4463-.1084.5547-.1543.5694-.7393.0469-.6162.0625-2.0322.0625-4.48,0-2.3252.03-3.2647,0-3.85-.0156-.4922-.124-.5381-.4619-.7237-.0625-.0459-.1084-.0761-.1084-.123s.0927-.0918.2617-.1387a6.3559,6.3559,0,0,0,1.124-.3691.3392.3392,0,0,1,.1543-.0616c.0459,0,.0918.1075.0772.3233-.0157.416-.0772,5.1885-.0616,5.4814,0,.0616.0459.0772.0616.0459a5.0294,5.0294,0,0,1,.9238-.6308,2.41,2.41,0,0,1,1.0771-.2618,1.6392,1.6392,0,0,1,1.3858.6924,2.97,2.97,0,0,1,.3388,1.6475c.0157,1.1553.0157,2.1094.03,2.6943,0,.3076.0615.416.5234.4932.2.0459.2471.0762.2471.1377s-.1084.1084-.2471.1084c-.3994,0-.6923-.0772-1.1084-.0772-.5234,0-.6464.0616-1,.0616-.1855,0-.247-.0459-.247-.0928,0-.0615.0771-.0918.2314-.1231.4151-.0918.4463-.2.5078-.6464.0313-.3536.0616-1.0313.0616-2.6329a2.4664,2.4664,0,0,0-.23-1.1543,1.1523,1.1523,0,0,0-1.0625-.5693A1.8629,1.8629,0,0,0,89.6865,120.6819Z"/><path class="cls-4" d="M98.3564,120.3587a3.7133,3.7133,0,0,1,.2159,1.4c0,.57-.0459,2.0322-.0459,2.4326a.5279.5279,0,0,0,.5693.5859.9845.9845,0,0,0,.4463-.1386c.0928-.0469.1543,0,.0928.1386a1.2982,1.2982,0,0,1-1.1856.6612,1.0333,1.0333,0,0,1-.9082-.6924.0532.0532,0,0,0-.0771-.0156,2.1534,2.1534,0,0,1-1.5088.6933A1.2769,1.2769,0,0,1,94.7236,124.1a1.0847,1.0847,0,0,1,.5537-.8779c.37-.2,1.7706-.6152,2.0938-.7393a.2906.2906,0,0,0,.2-.23,5.1526,5.1526,0,0,0,.0312-.708c0-.6319-.1084-1.0625-.37-1.2627a1.1675,1.1675,0,0,0-.6465-.2461,1.0587,1.0587,0,0,0-.6152.1845.6137.6137,0,0,0-.2314.3692,1.5585,1.5585,0,0,0-.0157.2929.1893.1893,0,0,1-.0615.1231,3.3189,3.3189,0,0,1-.7236.3389c-.0762.0156-.1533-.0772-.1533-.1387,0-.1074.1074-.2461.2919-.4619a4.0188,4.0188,0,0,1,1.17-.8936,2.0665,2.0665,0,0,1,.9238-.2764A1.2613,1.2613,0,0,1,98.3564,120.3587Zm-1.0312,4.2334a.6328.6328,0,0,0,.1689-.3691,10.9131,10.9131,0,0,0,.0772-1.4629c0-.0157-.03-.0918-.0615-.0772a8.741,8.741,0,0,0-1.416.5235.7977.7977,0,0,0-.3848.77.8944.8944,0,0,0,.9238.8623A1.0527,1.0527,0,0,0,97.3252,124.5921Z"/><path class="cls-4" d="M100.6826,124.7005a1.7355,1.7355,0,0,1-.1846-.8779V120.636c0-.17-.0156-.2773-.0771-.3085a2.5254,2.5254,0,0,0-.3691-.0918c-.1231-.0313-.2-.0772-.2-.1387,0-.0313.0156-.0772.1845-.1543a3.2834,3.2834,0,0,0,1.2627-1.0313c.1387-.1543.2461-.123.2461-.0459,0,.1377-.03.5694-.0156.7539,0,.0459.0156.1387.0771.1387.2774,0,1.5547-.0459,1.879-.0459.03,0,.0917.1074.0917.2149,0,.2617-.0771.3847-.1542.3847-.5381,0-1.293-.0146-1.709-.0146-.1846,0-.2149.0459-.2149.1387,0,.2617.0156,2.6787.03,3.1562a1.5747,1.5747,0,0,0,.17.8311,1.1386,1.1386,0,0,0,.9541.416,1.4993,1.4993,0,0,0,.8467-.2315c.1084-.0771.1543-.0615.1543,0,0,.0928-.1387.2461-.3389.4a2.1121,2.1121,0,0,1-1.247.4A1.4274,1.4274,0,0,1,100.6826,124.7005Z"/><path class="cls-4" d="M111.585,120.3431a2.677,2.677,0,0,1,.6308,1.7861,3.1529,3.1529,0,0,1-2.0625,3.0635,2.68,2.68,0,0,1-1.1084.2314,3.4736,3.4736,0,0,1-.8935-.123c-.0616-.0156-.1231.0762-.1387.1377a21.2037,21.2037,0,0,0-.0147,2.2793,4.9,4.9,0,0,0,.1075,1.2314c.0927.293.3545.3692.7695.4307.1387.0469.2158.0771.2158.1387s-.1074.1084-.3076.1084c-.2314,0-.77-.0616-1.3242-.0616-.5088,0-1.001.1075-1.1856.1075s-.2773-.0459-.2773-.0928c0-.0615.0615-.1074.293-.1533.538-.1543.6308-.3389.6611-.708.0156-.2627.0469-.9239.0469-2.1094,0-1.57-.0313-4.9121-.0469-5.3125-.03-.6309-.03-.7237-.3848-.9229-.0918-.0468-.1533-.0927-.1533-.1386,0-.0616.0772-.1084.2-.1387a7.7213,7.7213,0,0,0,1.1387-.5391.4216.4216,0,0,1,.2314-.1074c.03,0,.0615.0459.0615.1377,0,.0771-.0312.5244-.0312.6621,0,.0313.0312.0928.0771.0469a3.02,3.02,0,0,1,1.879-.709A2.269,2.269,0,0,1,111.585,120.3431Zm-1.2315,4.4492a2.8227,2.8227,0,0,0,.8623-2.2168,2.7734,2.7734,0,0,0-.7392-1.9707,1.6552,1.6552,0,0,0-1.1856-.4619,1.9965,1.9965,0,0,0-1.124.3076c-.1074.0771-.1543.123-.169.3389-.0468.3847-.0312,2.8174,0,3.1406a1.1912,1.1912,0,0,0,.1231.3857,1.7222,1.7222,0,0,0,1.4932.7539A1.139,1.139,0,0,0,110.3535,124.7923Z"/><path class="cls-4" d="M119.1465,122.4827a2.9487,2.9487,0,0,1-2.9258,2.9717,2.936,2.936,0,0,1-1.8779-5.2344,3.159,3.159,0,0,1,1.8476-.6465A2.8891,2.8891,0,0,1,119.1465,122.4827Zm-4.8037-.2148a3.5233,3.5233,0,0,0,.6465,2.1094,1.829,1.829,0,0,0,1.4472.8154,1.52,1.52,0,0,0,.97-.3848,3.0687,3.0687,0,0,0,.6465-2.0635c0-1.4619-.7392-2.9091-2.0937-2.9091C115.1738,119.8353,114.3428,120.6663,114.3428,122.2679Z"/><path class="cls-4" d="M121.2109,120.7591c0,.6465.585,1.0156.97,1.2471,1.0009.6464,1.4,1.0312,1.4,1.8164a1.5792,1.5792,0,0,1-.8,1.2929,2.5556,2.5556,0,0,1-1.2324.3389,3.1245,3.1245,0,0,1-1.2158-.2773c-.123-.0459-.2314-.1534-.2314-.2461,0-.2159-.03-.6006-.0459-.77-.03-.2.0156-.2461.0459-.2461.0468,0,.0927,0,.2.292a1.5085,1.5085,0,0,0,.6474.8321,1.1813,1.1813,0,0,0,.6924.1845,1.0562,1.0562,0,0,0,1.001-1.0322c0-.5849-.4-.9082-1.0166-1.293-.6621-.4306-1.2774-1.0009-1.2774-1.6777a1.4594,1.4594,0,0,1,.585-1.2168,1.9921,1.9921,0,0,1,1.293-.4307,3.7669,3.7669,0,0,1,1.0468.169.25.25,0,0,1,.0772.1387c.0156.1689.0771.4775.0928.7236,0,.1689-.0313.2461-.0772.2461-.0615,0-.0928-.0772-.1387-.1846a1.1719,1.1719,0,0,0-.3691-.6308,1.2674,1.2674,0,0,0-.7236-.2315A.897.897,0,0,0,121.2109,120.7591Z"/><path class="cls-4" d="M129.2949,121.1439a.18.18,0,0,1-.1543.1689c-.123-.0156-2.125-.0459-2.4785-.0459h-.832c-.03,0-.1074.0772-.1387.1231a2.1329,2.1329,0,0,0-.123.8466,2.7641,2.7641,0,0,0,.708,1.8633,2.081,2.081,0,0,0,1.54.6309,1.97,1.97,0,0,0,1.4629-.4922c.123-.1231.1846-.0928.1846-.0156a.5816.5816,0,0,1-.1543.2461,2.7186,2.7186,0,0,1-2.14.97,2.4837,2.4837,0,0,1-1.832-.7852,3.0083,3.0083,0,0,1-.7393-2.0625,3.2089,3.2089,0,0,1,.8926-2.248,2.865,2.865,0,0,1,1.9248-.77A1.7771,1.7771,0,0,1,129.2949,121.1439Zm-3.1416-.7852a1.3508,1.3508,0,0,0-.3232.6309.0661.0661,0,0,0,.0615.0615l2.002-.0156c.3388,0,.3691-.169.3691-.3077a.9918.9918,0,0,0-.2148-.6464,1.0782,1.0782,0,0,0-.7706-.293A1.5986,1.5986,0,0,0,126.1533,120.3587Z"/><path class="cls-4" d="M58.2559,137.4818a.7775.7775,0,0,0-.1534.5693,30.3562,30.3562,0,0,0,.0772,3.3105.5434.5434,0,0,0,.4922.5235c.2314.0459.3388.0771.3388.1533,0,.0469-.0927.0928-.2314.0928-.4307,0-.8311-.0616-1.2773-.0616-.4776,0-.7081.0616-1.001.0616-.169,0-.2461-.03-.2461-.0928s.0615-.0918.2461-.1377c.4463-.1084.5547-.1543.5693-.7393.0469-.6162.0625-2.0322.0625-4.48,0-2.3252.03-3.2637,0-3.8487-.0156-.4931-.124-.539-.4619-.7236-.0625-.0469-.1084-.0771-.1084-.123s.0928-.0928.2617-.1387a6.3446,6.3446,0,0,0,1.124-.37.3392.3392,0,0,1,.1543-.0616c.0459,0,.0918.1084.0772.3233-.0156.416-.0772,5.1885-.0615,5.4814,0,.0616.0459.0772.0615.0459a5.0328,5.0328,0,0,1,.9238-.6308,2.41,2.41,0,0,1,1.0772-.2617,1.6389,1.6389,0,0,1,1.3857.6923,2.97,2.97,0,0,1,.3389,1.6475c.0156,1.1553.0156,2.1094.03,2.6943,0,.3076.0616.416.5235.4932.2.0459.2471.0762.2471.1377s-.1084.1084-.2471.1084c-.3994,0-.6924-.0772-1.1084-.0772-.5235,0-.6465.0616-1,.0616-.1856,0-.2471-.0459-.2471-.0928,0-.0615.0772-.0918.2315-.1231.415-.0918.4462-.2.5078-.6464.0312-.3536.0615-1.0313.0615-2.6329a2.4657,2.4657,0,0,0-.23-1.1542,1.1521,1.1521,0,0,0-1.0625-.5694A1.8621,1.8621,0,0,0,58.2559,137.4818Z"/><path class="cls-4" d="M68.0967,137.9437a.1805.1805,0,0,1-.1543.1689c-.1231-.0156-2.125-.0459-2.4785-.0459h-.8321c-.03,0-.1074.0772-.1386.1231a2.1325,2.1325,0,0,0-.1231.8466,2.7641,2.7641,0,0,0,.708,1.8633,2.0812,2.0812,0,0,0,1.54.6309,1.97,1.97,0,0,0,1.4629-.4922c.123-.1231.1845-.0928.1845-.0156a.58.58,0,0,1-.1543.2461,2.7184,2.7184,0,0,1-2.14.97,2.4839,2.4839,0,0,1-1.8321-.7852,3.0082,3.0082,0,0,1-.7392-2.0625,3.2089,3.2089,0,0,1,.8926-2.248,2.8649,2.8649,0,0,1,1.9248-.7695A1.777,1.777,0,0,1,68.0967,137.9437Zm-3.1416-.7852a1.3506,1.3506,0,0,0-.3233.6309.0662.0662,0,0,0,.0616.0615l2.0019-.0156c.3389,0,.3692-.169.3692-.3077a.9914.9914,0,0,0-.2149-.6464,1.0779,1.0779,0,0,0-.77-.293A1.5983,1.5983,0,0,0,64.9551,137.1585Z"/><path class="cls-4" d="M72.6387,137.1585a3.7134,3.7134,0,0,1,.2158,1.4c0,.57-.0459,2.0332-.0459,2.4326a.5273.5273,0,0,0,.5693.585.9814.9814,0,0,0,.4463-.1377c.0928-.0469.1543,0,.0928.1377a1.2971,1.2971,0,0,1-1.1856.6621,1.0333,1.0333,0,0,1-.9082-.6924.0533.0533,0,0,0-.0771-.0156,2.1533,2.1533,0,0,1-1.5088.6933A1.2769,1.2769,0,0,1,69.0059,140.9a1.0845,1.0845,0,0,1,.5537-.8779c.37-.2,1.77-.6152,2.0937-.7393a.29.29,0,0,0,.2-.23,5.1363,5.1363,0,0,0,.0313-.708c0-.6319-.1084-1.0625-.37-1.2627a1.1675,1.1675,0,0,0-.6464-.2461,1.0588,1.0588,0,0,0-.6153.1845.6137.6137,0,0,0-.2314.3692,1.5684,1.5684,0,0,0-.0156.2929.1894.1894,0,0,1-.0616.1231,3.3189,3.3189,0,0,1-.7236.3389c-.0762.0156-.1533-.0772-.1533-.1387,0-.1074.1074-.2461.292-.4619a3.9953,3.9953,0,0,1,1.17-.8926,2.0564,2.0564,0,0,1,.9238-.2773A1.2613,1.2613,0,0,1,72.6387,137.1585Zm-1.0313,4.2334a.6334.6334,0,0,0,.169-.3691,10.9338,10.9338,0,0,0,.0771-1.4629c0-.0156-.03-.0918-.0615-.0772a8.741,8.741,0,0,0-1.416.5235.7977.7977,0,0,0-.3848.77.8944.8944,0,0,0,.9238.8623A1.0523,1.0523,0,0,0,71.6074,141.3919Z"/><path class="cls-4" d="M76.0732,138.3284c0,1.94.0157,2.6631.0313,2.9561.0156.416.1074.5234.5391.6006.0918.0156.2.0615.2.1074,0,.0615-.1084.1084-.3086.1084-.2461,0-.8008-.0313-1.0625-.0313-.4,0-.8.0313-1.0313.0313-.1846,0-.2617-.0156-.2617-.0928s.0771-.0928.2773-.1387c.3848-.0771.4776-.2158.5391-.8925.03-.57.0918-3.1719.1074-5.02,0-1.247.0156-2.51,0-3.1865,0-.3389-.03-.416-.4306-.6621-.1084-.0615-.1543-.0928-.1543-.1387s.0927-.0927.23-.123a8.0073,8.0073,0,0,0,1.1553-.3545.64.64,0,0,1,.1846-.0459c.0312,0,.0459.0918.0459.1689,0,.1075-.0616,2.7715-.0616,5.0811Z"/><path class="cls-4" d="M78.3223,141.5a1.7337,1.7337,0,0,1-.1856-.8779v-3.1865c0-.17-.0146-.2774-.0762-.3086a2.5416,2.5416,0,0,0-.37-.0918c-.123-.0313-.2-.0772-.2-.1387,0-.0313.0157-.0772.1856-.1543a3.2748,3.2748,0,0,0,1.2617-1.0313c.1387-.1543.2471-.123.2471-.0468,0,.1386-.0313.57-.0157.7549,0,.0458.0157.1386.0772.1386.2764,0,1.5547-.0459,1.8779-.0459.0313,0,.0928.1074.0928.2149,0,.2617-.0772.3847-.1543.3847-.5391,0-1.293-.0146-1.709-.0146-.1846,0-.2158.0459-.2158.1387,0,.2617.0156,2.6787.0312,3.1562a1.5784,1.5784,0,0,0,.169.8311,1.1414,1.1414,0,0,0,.9551.416,1.5017,1.5017,0,0,0,.8466-.2315c.1075-.0771.1534-.0615.1534,0,0,.0928-.1377.2461-.3379.4a2.1147,2.1147,0,0,1-1.2471.4A1.4263,1.4263,0,0,1,78.3223,141.5Z"/><path class="cls-4" d="M83.4648,137.4818a.7781.7781,0,0,0-.1533.5693,30.3562,30.3562,0,0,0,.0772,3.3105.5434.5434,0,0,0,.4922.5235c.2314.0459.3388.0771.3388.1533,0,.0469-.0927.0928-.2314.0928-.4307,0-.8311-.0616-1.2774-.0616-.4775,0-.708.0616-1.0009.0616-.169,0-.2461-.03-.2461-.0928s.0615-.0918.2461-.1377c.4462-.1084.5546-.1543.5693-.7393.0469-.6162.0625-2.0322.0625-4.48,0-2.3252.03-3.2637,0-3.8487-.0156-.4931-.124-.539-.4619-.7236-.0625-.0469-.1084-.0771-.1084-.123s.0928-.0928.2617-.1387a6.3474,6.3474,0,0,0,1.124-.37.3392.3392,0,0,1,.1543-.0616c.0459,0,.0918.1084.0772.3233-.0157.416-.0772,5.1885-.0616,5.4814,0,.0616.0459.0772.0616.0459a5.0294,5.0294,0,0,1,.9238-.6308,2.41,2.41,0,0,1,1.0771-.2617,1.6391,1.6391,0,0,1,1.3858.6923,2.97,2.97,0,0,1,.3389,1.6475c.0156,1.1553.0156,2.1094.03,2.6943,0,.3076.0616.416.5235.4932.2.0459.247.0762.247.1377s-.1084.1084-.247.1084c-.3994,0-.6924-.0772-1.1084-.0772-.5235,0-.6465.0616-1,.0616-.1856,0-.2471-.0459-.2471-.0928,0-.0615.0771-.0918.2314-.1231.4151-.0918.4463-.2.5079-.6464.0312-.3536.0615-1.0313.0615-2.6329a2.4657,2.4657,0,0,0-.23-1.1542,1.1521,1.1521,0,0,0-1.0625-.5694A1.8625,1.8625,0,0,0,83.4648,137.4818Z"/><path class="cls-4" d="M92.7363,137.4974a.88.88,0,0,0-.2617.5381,8.7794,8.7794,0,0,0-.0156.9394c0,1.14.0312,1.94.0615,2.2637.0615.4765.2461.5849.832.6465.2149.03.292.0615.292.1386s-.1386.1075-.3691.1075c-.293,0-.8008-.0616-1.4473-.0616a8.2824,8.2824,0,0,0-.9394.0928c-.1846,0-.2617-.0312-.2617-.0928,0-.0459.1074-.123.23-.1543a.6345.6345,0,0,0,.5547-.6308c.0313-.2617.0459-1.14.0459-2.1553V137.42c0-.1084-.1074-.1543-.4-.4-.1074-.0771-.123-.123-.123-.1543s.0927-.0918.2314-.1386a4.62,4.62,0,0,0,.9854-.3692.4859.4859,0,0,1,.23-.0771c.0313,0,.0616.0615.0616.2158,0,.1689-.0147.7539-.0147,1.001,0,.0459.03.0615.0762.0146a2.5168,2.5168,0,0,1,1.6631-1.1084.8992.8992,0,0,1,.539.2.2681.2681,0,0,1,.1075.2158,1.0489,1.0489,0,0,1-.3389.5235c-.1377.123-.2.1387-.2461.1387a.7005.7005,0,0,1-.2774-.1084,1.0775,1.0775,0,0,0-.538-.1846A1.0483,1.0483,0,0,0,92.7363,137.4974Z"/><path class="cls-4" d="M95.6162,136.82a7.6419,7.6419,0,0,0,1.1084-.4.6256.6256,0,0,1,.2305-.1075c.0469,0,.0771.0459.0615.2149-.03.3086-.03,1.247-.03,2.2324,0,1.2939,0,2.4326.03,2.6943.0313.3086.1855.3858.4316.4473.1543.03.2305.0615.2305.123,0,.0772-.123.1075-.2461.1075-.1387,0-.708-.0616-1.124-.0616-.5078,0-.7539.0313-.9238.0313-.1075,0-.2149-.0313-.2149-.0928s.0762-.1074.292-.1387c.3389-.0927.4776-.2158.4932-.8466.0146-.4619.0459-3.2637.0459-3.418,0-.2158-.0156-.3076-.4463-.5391-.0772-.0459-.1231-.0918-.1231-.123C95.4316,136.8968,95.4775,136.85,95.6162,136.82Zm1.5391-2.51a.5857.5857,0,0,1-.5694.5849.5477.5477,0,0,1-.5078-.5693.5706.5706,0,0,1,.5391-.6006A.5629.5629,0,0,1,97.1553,134.31Z"/><path class="cls-4" d="M99.5273,137.5589c0,.6465.585,1.0156.97,1.2471,1.0009.6465,1.4013,1.0312,1.4013,1.8164a1.58,1.58,0,0,1-.8007,1.2929,2.5552,2.5552,0,0,1-1.2315.3389,3.1252,3.1252,0,0,1-1.2168-.2773c-.123-.0459-.2305-.1534-.2305-.2461,0-.2158-.0312-.6006-.0459-.77-.0312-.2.0147-.2461.0459-.2461.0459,0,.0928,0,.2.292a1.503,1.503,0,0,0,.6465.8321,1.1843,1.1843,0,0,0,.6934.1845,1.0553,1.0553,0,0,0,1-1.0322c0-.5849-.4-.9082-1.0156-1.293-.6622-.4306-1.2784-1.0009-1.2784-1.6777a1.4594,1.4594,0,0,1,.585-1.2168,1.995,1.995,0,0,1,1.2939-.4306,3.7815,3.7815,0,0,1,1.0469.1689.2561.2561,0,0,1,.0772.1387c.0146.1689.0761.4775.0918.7236,0,.1689-.03.2461-.0772.2461-.0615,0-.0918-.0772-.1387-.1846a1.1658,1.1658,0,0,0-.3691-.6308,1.2626,1.2626,0,0,0-.7236-.2315A.8975.8975,0,0,0,99.5273,137.5589Z"/><path class="cls-4" d="M106.9033,136.5579c.3389,0,.9541-.0771,1.3545-.0771.17,0,.2315.0459.2315.0927,0,.03-.0469.0918-.2315.1231a2.7444,2.7444,0,0,0-1.416.6768c-.4.3085-1.1553.955-1.4473,1.2324-.0312.03,0,.0771.0157.1074.4619.5391,1.57,1.7246,2.2939,2.4639a1.9883,1.9883,0,0,0,1.1084.7236c.1387.03.2305.0762.2305.1377,0,.0928-.1387.1084-.2618.1084-.5234,0-1.1083-.0772-1.7089-.0772-.2618,0-.4619.0157-.6924.0157-.17,0-.2774,0-.2774-.0928,0-.0772.0772-.1074.3545-.169.2618-.0615.292-.2.1534-.416-.3233-.3691-1.4161-1.5244-1.878-1.9863-.123-.123-.2314-.2305-.2929-.2305-.0459,0-.0616.0918-.0616.1534-.0146.2773-.03.7861-.0146,1.6328,0,.7382.123.7851.6.8925.1543.0459.2314.0772.2314.1387,0,.0772-.123.1074-.2929.1074-.4307,0-.7539-.0459-1.1543-.0459-.4932,0-.8164.0459-1.001.0459-.1533,0-.2461-.0459-.2461-.1074,0-.0459.0928-.0928.2-.1074.4775-.124.585-.2617.6152-.77.0625-1.124.0772-2.417.0772-3.6182.0156-1.2.0615-3.1709.0615-4.372a2.5976,2.5976,0,0,0-.0615-.7081c-.03-.123-.169-.2158-.3535-.3085-.0772-.0459-.1387-.0762-.1387-.1075,0-.0615.0918-.0927.2461-.1386a9.3145,9.3145,0,0,0,1.0928-.3692.71.71,0,0,1,.247-.0771c.0147,0,.0459.0459.0459.123-.0312.5078-.0771,1.8633-.0771,3.002,0,.4775-.0772,2.51-.0772,4.2031,0,.17.0313.2471.0772.2471a.7756.7756,0,0,0,.3076-.17,13.184,13.184,0,0,0,1.6631-1.539.557.557,0,0,0,.17-.2774c0-.0927-.1084-.1845-.4473-.2461-.1386-.0156-.2617-.0615-.2617-.123s.1084-.1084.2471-.1084C106.38,136.5423,106.7334,136.5579,106.9033,136.5579Z"/><path class="cls-4" d="M110.4463,137.5589c0,.6465.5849,1.0156.97,1.2471,1.001.6465,1.4,1.0312,1.4,1.8164a1.5794,1.5794,0,0,1-.8,1.2929,2.5559,2.5559,0,0,1-1.2324.3389,3.1245,3.1245,0,0,1-1.2158-.2773c-.1231-.0459-.2315-.1534-.2315-.2461,0-.2158-.03-.6006-.0459-.77-.03-.2.0156-.2461.0459-.2461.0469,0,.0928,0,.2.292a1.5079,1.5079,0,0,0,.6475.8321,1.1811,1.1811,0,0,0,.6924.1845,1.0561,1.0561,0,0,0,1.0009-1.0322c0-.5849-.4-.9082-1.0166-1.293-.6621-.4306-1.2773-1.0009-1.2773-1.6777a1.46,1.46,0,0,1,.5849-1.2168,1.9925,1.9925,0,0,1,1.293-.4306,3.7691,3.7691,0,0,1,1.0469.1689.25.25,0,0,1,.0771.1387c.0157.1689.0772.4775.0928.7236,0,.1689-.0312.2461-.0771.2461-.0616,0-.0928-.0772-.1387-.1846a1.1732,1.1732,0,0,0-.3691-.6308,1.268,1.268,0,0,0-.7237-.2315A.897.897,0,0,0,110.4463,137.5589Z"/><path class="cls-4" d="M113.7109,141.5765a.7.7,0,0,1,.6924-.6924.6491.6491,0,0,1,.6162.6777.6625.6625,0,0,1-.6621.6924A.6774.6774,0,0,1,113.7109,141.5765Z"/><path class="cls-4" d="M116.8516,132.8011a1.6707,1.6707,0,0,1-1.3858,1.4932c-.0918,0-.1387-.03-.1387-.0762,0-.0313.0616-.0772.1543-.124a1.2315,1.2315,0,0,0,.8165-1.0313c0-.3076-.17-.5078-.586-.6006-.1533-.0459-.3076-.1387-.3076-.3232a.4581.4581,0,0,1,.4619-.4307A1.0275,1.0275,0,0,1,116.8516,132.8011Zm1.9248,0a1.6717,1.6717,0,0,1-1.3858,1.4932c-.0771,0-.1386-.03-.1386-.0762,0-.0313.0927-.0772.1542-.124a1.2058,1.2058,0,0,0,.8155-1.0157c0-.3232-.169-.5234-.585-.6162a.36.36,0,0,1-.292-.3232.4519.4519,0,0,1,.4766-.4307A1.0235,1.0235,0,0,1,118.7764,132.8011Z"/><circle class="cls-2" cx="287.0214" cy="141.1607" r="1.6035"/><path class="cls-2" d="M286.9821,135.5607c-.5581,1.4787,1.2827,2.4227-.1793,3.928"/><path class="cls-2" d="M286.9821,142.8328c-.5581,1.4786,1.2827,2.4227-.1793,3.9279"/><path class="cls-2" d="M292.6214,141.1921c-1.4787-.5581-2.4227,1.2827-3.928-.1793"/><path class="cls-2" d="M285.3493,141.1921c-1.4786-.5581-2.4227,1.2827-3.9279-.1793"/><path class="cls-2" d="M290.9534,137.1731c-1.44.651-.8061,2.62-2.9043,2.6507"/><path class="cls-2" d="M285.8112,142.3153c-1.44.6509-.806,2.62-2.9042,2.6507"/><path class="cls-2" d="M290.959,145.1427c-.651-1.44-2.62-.8061-2.6507-2.9042"/><path class="cls-2" d="M285.8168,140.0006c-.6509-1.44-2.62-.8061-2.6506-2.9043"/><path class="cls-4" d="M295.9551,135.9759a12.7045,12.7045,0,0,0,1.4785-.0459,11.5111,11.5111,0,0,1,1.5088-.1231c1.6777,0,3.0635.754,3.0635,2.4786a1.97,1.97,0,0,1-.6465,1.3857,4.0023,4.0023,0,0,1-.8311.5078c-.0928.0459-.0312.0928.0147.1231a4.7967,4.7967,0,0,1,1.34.77,2.4127,2.4127,0,0,1,.8164,1.8779,2.6014,2.6014,0,0,1-1.7246,2.4639,4.604,4.604,0,0,1-1.8633.3232c-.2617,0-.5693,0-1.1855-.0156-.6309-.0313-.9854-.0313-1.3242-.0313h-.77c-.23,0-.3232-.0615-.3232-.1074,0-.0771.1084-.1074.2461-.1387.6162-.0615.8467-.3232.8935-.8779.0459-.415.0459-2.6172.0459-4.3262,0-.831-.0156-2.6171-.03-3.2177-.0313-.5537-.1387-.6768-.7549-.8155-.1846-.0312-.2305-.0927-.2305-.123C295.6787,136.0218,295.8018,135.9759,295.9551,135.9759ZM300.79,141.38a2.1474,2.1474,0,0,0-2.0791-.8926c-.3076,0-.6.0147-.7539.03-.0771.0156-.123.1074-.1386.1846a23.4058,23.4058,0,0,0,.0459,2.91,3.7921,3.7921,0,0,0,.2158,1.2774,1.5481,1.5481,0,0,0,1.3545.5859,1.9155,1.9155,0,0,0,.8623-.2158,2.2061,2.2061,0,0,0,1.0937-2.1407A2.6586,2.6586,0,0,0,300.79,141.38Zm-2.2021-5.3115a2.5188,2.5188,0,0,0-.6006.0615c-.0615.0156-.1377.2-.1377.2461-.0312.2773-.0469,2.4023-.0312,3.5722,0,.0616.0312.2149.1689.2149a4.7245,4.7245,0,0,0,1.0469.0156,1.9393,1.9393,0,0,0,1.7715-1.8476A2.1052,2.1052,0,0,0,298.5879,136.0687Z"/><path class="cls-4" d="M303.9941,140.3948a7.5827,7.5827,0,0,0,1.1084-.4.6206.6206,0,0,1,.2315-.1074c.0459,0,.0762.0459.0615.2149-.0312.3086-.0312,1.247-.0312,2.2324,0,1.2939,0,2.4326.0312,2.6943.03.3086.1846.3858.4307.4473.1543.03.2314.0615.2314.123,0,.0772-.124.1075-.2471.1075-.1386,0-.708-.0616-1.124-.0616-.5078,0-.7539.0313-.9228.0313-.1084,0-.2158-.0313-.2158-.0928s.0771-.1074.2919-.1387c.3389-.0927.4776-.2158.4932-.8466.0156-.462.0459-3.2637.0459-3.418,0-.2158-.0156-.3076-.4463-.5391-.0771-.0459-.123-.0918-.123-.123C303.81,140.472,303.8555,140.4251,303.9941,140.3948Zm1.54-2.51a.5864.5864,0,0,1-.57.5849.5477.5477,0,0,1-.5078-.5693.5706.5706,0,0,1,.539-.6006A.5637.5637,0,0,1,305.5342,137.8851Z"/><path class="cls-4" d="M312.8623,142.8577a2.9486,2.9486,0,0,1-2.9248,2.9717,2.936,2.936,0,0,1-1.8789-5.2344,3.1642,3.1642,0,0,1,1.8476-.6465A2.8885,2.8885,0,0,1,312.8623,142.8577Zm-4.8037-.2148a3.5246,3.5246,0,0,0,.6475,2.1094,1.829,1.829,0,0,0,1.4472.8154,1.52,1.52,0,0,0,.97-.3848,3.0687,3.0687,0,0,0,.6465-2.0635c0-1.4619-.7392-2.9091-2.0937-2.9091C308.8906,140.21,308.0586,141.0413,308.0586,142.6429Z"/><path class="cls-4" d="M315.4053,141.9036c0,1.9395.0156,2.6631.0312,2.9561.0147.416.1074.5234.5381.6006.0928.0156.2.0615.2.1074,0,.0615-.1074.1084-.3076.1084-.2461,0-.8008-.0313-1.0625-.0313-.4,0-.8008.0313-1.0313.0313-.1845,0-.2617-.0156-.2617-.0928s.0772-.0928.2774-.1387c.3847-.0771.4765-.2158.538-.8925.0313-.57.0928-3.1719.1084-5.02,0-1.247.0157-2.51,0-3.1865,0-.3389-.0312-.416-.4316-.6621-.1074-.0615-.1533-.0928-.1533-.1387s.0918-.0927.2305-.123a8.0451,8.0451,0,0,0,1.1552-.3545.64.64,0,0,1,.1846-.0459c.03,0,.0459.0918.0459.1689,0,.1084-.0615,2.7715-.0615,5.0811Z"/><path class="cls-4" d="M322.8418,142.8577a2.9487,2.9487,0,0,1-2.9248,2.9717,2.936,2.936,0,0,1-1.8789-5.2344,3.1642,3.1642,0,0,1,1.8476-.6465A2.8885,2.8885,0,0,1,322.8418,142.8577Zm-4.8037-.2148a3.5252,3.5252,0,0,0,.6474,2.1094,1.8293,1.8293,0,0,0,1.4473.8154,1.5221,1.5221,0,0,0,.97-.3848,3.0687,3.0687,0,0,0,.6465-2.0635c0-1.4619-.7392-2.9091-2.0937-2.9091C318.87,140.21,318.0381,141.0413,318.0381,142.6429Z"/><path class="cls-4" d="M327.8008,140.2562a1.1248,1.1248,0,0,0,.539.0771c.293,0,.9082-.0312,1.14-.0312.0762,0,.1387.1543.1387.3388,0,.1543-.1084.2774-.17.2774-.2158,0-.7695-.0313-.9394-.0313a.1386.1386,0,0,0-.0918.0928c0,.1074.03.3545.03.6309a2.5458,2.5458,0,0,1-.97,2.0791,2.12,2.12,0,0,1-1.2011.4,3.7717,3.7717,0,0,1-.6465-.0771.2935.2935,0,0,0-.1846.0459,2.3874,2.3874,0,0,0-.5391.5078.49.49,0,0,0-.1689.3389c0,.4931.6309.6465,1.4316.6465.4776,0,1.3243-.0459,1.7549-.0459a1.59,1.59,0,0,1,1.7246,1.7089,3.1089,3.1089,0,0,1-1.7246,2.51,3.6713,3.6713,0,0,1-1.8623.5078c-1.2324,0-2.2636-.5849-2.2636-1.7246a.9827.9827,0,0,1,.2773-.6621c.1074-.123.6777-.8467.9853-1.1846.0157-.0312.03-.124-.0156-.1386-.4306-.0928-1.247-.6319-1.247-1.2471a.1919.1919,0,0,1,.0927-.1543,6.7429,6.7429,0,0,0,1.2774-1.14c.0156-.0147,0-.0772-.03-.0918a2.325,2.325,0,0,1-1.1856-1.9249,1.8588,1.8588,0,0,1,.6465-1.4775,2.3671,2.3671,0,0,1,1.6319-.6318A3.474,3.474,0,0,1,327.8008,140.2562Zm-2.5713,8.9912a2.1033,2.1033,0,0,0,1.4629.4619,2.3948,2.3948,0,0,0,1.4316-.3692,2.0547,2.0547,0,0,0,.8321-1.5859c0-.6465-.4-1.2168-1.3858-1.2168-.5849,0-1.34.0156-1.7558.0313a.948.948,0,0,0-.5235.1386,1.9474,1.9474,0,0,0-.6621,1.37A1.5763,1.5763,0,0,0,325.23,149.2474Zm.1387-8.8369a2.148,2.148,0,0,0-.4151,1.3545,2.7947,2.7947,0,0,0,.4766,1.6474,1.2582,1.2582,0,0,0,.9551.4463c.708,0,1.17-.8467,1.17-1.5547a2.7551,2.7551,0,0,0-.4776-1.7246,1.0821,1.0821,0,0,0-.9238-.5234A1.1563,1.1563,0,0,0,325.3682,140.4105Z"/><path class="cls-4" d="M330.4355,140.3948a7.5827,7.5827,0,0,0,1.1084-.4.6206.6206,0,0,1,.2315-.1074c.0459,0,.0762.0459.0615.2149-.0312.3086-.0312,1.247-.0312,2.2324,0,1.2939,0,2.4326.0312,2.6943.03.3086.1846.3858.4307.4473.1543.03.2314.0615.2314.123,0,.0772-.124.1075-.247.1075-.1387,0-.7081-.0616-1.1241-.0616-.5078,0-.7539.0313-.9228.0313-.1084,0-.2158-.0313-.2158-.0928s.0771-.1074.2919-.1387c.3389-.0927.4776-.2158.4932-.8466.0156-.462.0459-3.2637.0459-3.418,0-.2158-.0156-.3076-.4463-.5391-.0771-.0459-.123-.0918-.123-.123C330.251,140.472,330.2969,140.4251,330.4355,140.3948Zm1.54-2.51a.5864.5864,0,0,1-.57.5849.5477.5477,0,0,1-.5078-.5693.5706.5706,0,0,1,.539-.6006A.5637.5637,0,0,1,331.9756,137.8851Z"/><path class="cls-4" d="M334.4238,142.596a2.5888,2.5888,0,0,0,.77,2.002,2.1911,2.1911,0,0,0,1.4316.539,2.07,2.07,0,0,0,1.6016-.5849c.03-.0313.1074-.0469.1074,0a.4024.4024,0,0,1-.1231.2461,2.6635,2.6635,0,0,1-2.125,1.0156,2.8062,2.8062,0,0,1-1.9238-.7539,2.9,2.9,0,0,1-.7705-2.0781,2.9422,2.9422,0,0,1,.94-2.1407,3.376,3.376,0,0,1,2.2783-.8926,2.3434,2.3434,0,0,1,1.4013.3848.3546.3546,0,0,1,.2159.292.5264.5264,0,0,1-.3848.4932.4714.4714,0,0,1-.2617-.1543,4.2575,4.2575,0,0,0-.8623-.6309,1.3767,1.3767,0,0,0-.585-.123C335.4854,140.21,334.4238,140.8255,334.4238,142.596Z"/><path class="cls-4" d="M342.7393,140.7337a3.7348,3.7348,0,0,1,.2148,1.4c0,.57-.0459,2.0322-.0459,2.4326a.528.528,0,0,0,.5693.5859.9911.9911,0,0,0,.4473-.1386c.0918-.0469.1533,0,.0918.1386a1.297,1.297,0,0,1-1.1855.6612,1.0331,1.0331,0,0,1-.9082-.6924.0533.0533,0,0,0-.0772-.0156,2.1533,2.1533,0,0,1-1.5088.6933,1.2775,1.2775,0,0,1-1.2314-1.3242,1.0867,1.0867,0,0,1,.5537-.8779c.37-.2,1.7715-.6152,2.0947-.7393a.29.29,0,0,0,.2-.23,5.3044,5.3044,0,0,0,.03-.708c0-.6319-.1074-1.0625-.3692-1.2627a1.17,1.17,0,0,0-.6464-.2461,1.06,1.06,0,0,0-.6163.1845.6182.6182,0,0,0-.2314.3692,1.6631,1.6631,0,0,0-.0147.2929.194.194,0,0,1-.0615.1231,3.3623,3.3623,0,0,1-.7236.3389c-.0772.0156-.1543-.0772-.1543-.1387,0-.1074.1074-.2461.293-.4619a3.9927,3.9927,0,0,1,1.17-.8936,2.063,2.063,0,0,1,.9238-.2764A1.2625,1.2625,0,0,1,342.7393,140.7337Zm-1.0323,4.2334a.6391.6391,0,0,0,.17-.3691,11.09,11.09,0,0,0,.0771-1.4629c0-.0157-.0312-.0918-.0625-.0772a8.7754,8.7754,0,0,0-1.416.5235.7977.7977,0,0,0-.3848.77.8944.8944,0,0,0,.9238.8623A1.0523,1.0523,0,0,0,341.707,144.9671Z"/><path class="cls-4" d="M346.1729,141.9036c0,1.9395.0156,2.6631.0312,2.9561.0147.416.1074.5234.5381.6006.0928.0156.2.0615.2.1074,0,.0615-.1074.1084-.3076.1084-.2461,0-.8008-.0313-1.0625-.0313-.4,0-.8008.0313-1.0313.0313-.1846,0-.2617-.0156-.2617-.0928s.0771-.0928.2773-.1387c.3848-.0771.4766-.2158.5381-.8925.0313-.57.0928-3.1719.1084-5.02,0-1.247.0157-2.51,0-3.1865,0-.3389-.0312-.416-.4316-.6621-.1074-.0615-.1533-.0928-.1533-.1387s.0918-.0927.23-.123a8.0467,8.0467,0,0,0,1.1553-.3545.64.64,0,0,1,.1846-.0459c.03,0,.0459.0918.0459.1689,0,.1084-.0615,2.7715-.0615,5.0811Z"/><rect class="cls-1" x="284.9841" y="155.2146" width="3.0492" height="8.8065" rx="1.089" transform="translate(108.0741 -115.5661) rotate(27.9171)"/><path class="cls-4" d="M296.1152,154.4232c.5078,0,.8467.0615,1.3086.0615.5078,0,.9854-.0615,1.3242-.0615.1377,0,.2305.03.2305.0771,0,.0615-.0615.1231-.2305.1387-.6162.0918-.6474.3232-.6777.9541-.0459.7695-.0312,2.5556-.0312,3.5107,0,2.2627.0312,3.5567.0615,4.0176.0469.5859.1387.6934.5849.8008.2159.0469.2618.0928.2618.17s-.1075.0918-.292.0918c-.2461,0-.6309-.0459-1.0782-.0459-.7695,0-1.2158.0771-1.5087.0771-.1387,0-.2461-.0312-.2461-.1083,0-.0459.0771-.0918.3388-.1534.5694-.123.6621-.37.6778-1.2929.03-.8936.0146-5.1426.0146-5.8662a12.8409,12.8409,0,0,0-.0615-1.4786c-.0615-.5078-.2149-.5693-.7383-.6923-.1084-.0313-.17-.0772-.17-.1231S295.9766,154.4232,296.1152,154.4232Z"/><path class="cls-4" d="M305.03,158.9651a3.2168,3.2168,0,0,1,.4922,2.0167c0,.8164.0156.9394.0156,1.7089.0156,1.0469.0615,1.14.4775,1.2471.1387.0615.2305.0928.2305.1543,0,.0918-.1231.1074-.2773.1074-.2,0-.6465-.0615-.9854-.0615-.5234,0-.7236.0615-.9541.0615-.1387,0-.2461-.03-.2461-.0927s.0918-.1231.292-.169c.37-.0928.4316-.2.4316-.6465v-2.0937c0-1.2471-.1084-1.6172-.4931-1.9092a1.3687,1.3687,0,0,0-.877-.293,1.8423,1.8423,0,0,0-1.2012.4932.7935.7935,0,0,0-.1845.4619c0,.1846.0146.97.0146,1.8936a12.5024,12.5024,0,0,0,.0928,1.6162c.0459.3388.2305.416.4775.4931.1846.0459.2618.0772.2618.1534,0,.0927-.1543.0927-.3086.0927-.1231,0-.877-.0615-1.2315-.0615-.2,0-.5234.0313-.8154.0313-.17,0-.293-.0313-.293-.1084,0-.0616.1387-.1231.3233-.1534.3847-.0771.4463-.1855.4619-.4931.0312-1.1084.0312-2.5254.0312-3.7725,0-.1533-.0312-.3232-.4-.5234-.0927-.0616-.123-.0918-.123-.1377,0-.0313.0762-.0772.2148-.124a5.7363,5.7363,0,0,0,1.2168-.5235c.0459-.0146.1231.0469.1074.1231a6.8883,6.8883,0,0,0-.03.8164c0,.0312.0459.0771.0761.0459a5.3416,5.3416,0,0,1,1.0938-.6924,2.0755,2.0755,0,0,1,.9082-.1846A1.5725,1.5725,0,0,1,305.03,158.9651Z"/><path class="cls-4" d="M313.2227,161.3509a2.9487,2.9487,0,0,1-2.9248,2.9717,2.936,2.936,0,0,1-1.879-5.2344,3.1645,3.1645,0,0,1,1.8477-.6465A2.8886,2.8886,0,0,1,313.2227,161.3509Zm-4.8038-.2149a3.5244,3.5244,0,0,0,.6475,2.1094,1.8289,1.8289,0,0,0,1.4473.8155,1.5225,1.5225,0,0,0,.97-.3848,3.0687,3.0687,0,0,0,.6465-2.0635c0-1.4619-.7393-2.9092-2.0938-2.9092C309.251,158.7034,308.4189,159.5345,308.4189,161.136Z"/><path class="cls-4" d="M316.3955,159.5657a.886.886,0,0,0-.2617.5381,9.0261,9.0261,0,0,0-.0156.9395c0,1.14.0312,1.94.0615,2.2636.0615.4766.2471.585.832.6465.2149.03.292.0616.292.1387s-.1387.1074-.3691.1074c-.293,0-.8008-.0615-1.4473-.0615a8.2824,8.2824,0,0,0-.9394.0928c-.1846,0-.2618-.0313-.2618-.0928,0-.0459.1084-.123.2315-.1543a.6346.6346,0,0,0,.5537-.6309c.0312-.2617.0469-1.14.0469-2.1552v-1.709c0-.1084-.1084-.1543-.4-.4-.1084-.0772-.1231-.1231-.1231-.1543s.0918-.0918.2305-.1387a4.6115,4.6115,0,0,0,.9853-.3691.4866.4866,0,0,1,.2315-.0772c.03,0,.0615.0616.0615.2159,0,.1689-.0156.7539-.0156,1.0009,0,.0459.03.0616.0771.0147a2.5152,2.5152,0,0,1,1.6621-1.1084.8963.8963,0,0,1,.5391.2.2691.2691,0,0,1,.1084.2158,1.0551,1.0551,0,0,1-.3389.5234c-.1386.1231-.2.1387-.247.1387a.6914.6914,0,0,1-.2764-.1084,1.085,1.085,0,0,0-.5391-.1846A1.0488,1.0488,0,0,0,316.3955,159.5657Z"/><path class="cls-4" d="M323.1406,158.7493a1.1237,1.1237,0,0,0,.5391.0772c.293,0,.9082-.0313,1.14-.0313.0762,0,.1387.1543.1387.3389,0,.1543-.1084.2773-.17.2773-.2158,0-.7695-.0312-.94-.0312a.1388.1388,0,0,0-.0918.0928c0,.1074.03.3545.03.6308a2.5457,2.5457,0,0,1-.97,2.0791,2.12,2.12,0,0,1-1.2012.4,3.7817,3.7817,0,0,1-.6465-.0771.2919.2919,0,0,0-.1845.0459,2.383,2.383,0,0,0-.5391.5078.49.49,0,0,0-.169.3388c0,.4932.6309.6465,1.4317.6465.4775,0,1.3242-.0459,1.7549-.0459a1.59,1.59,0,0,1,1.7246,1.709,3.109,3.109,0,0,1-1.7246,2.51,3.6726,3.6726,0,0,1-1.8623.5078c-1.2325,0-2.2637-.585-2.2637-1.7246a.983.983,0,0,1,.2773-.6621c.1075-.1231.6778-.8467.9854-1.1846.0156-.0312.03-.124-.0156-.1387-.4307-.0927-1.2471-.6318-1.2471-1.247a.1917.1917,0,0,1,.0928-.1543,6.7423,6.7423,0,0,0,1.2773-1.14c.0156-.0146,0-.0771-.03-.0918a2.3247,2.3247,0,0,1-1.1855-1.9248,1.8583,1.8583,0,0,1,.6465-1.4775,2.3666,2.3666,0,0,1,1.6318-.6319A3.4753,3.4753,0,0,1,323.1406,158.7493Zm-2.5713,8.9912a2.103,2.103,0,0,0,1.4629.462,2.3958,2.3958,0,0,0,1.4317-.3692,2.0551,2.0551,0,0,0,.832-1.5859c0-.6465-.4-1.2168-1.3857-1.2168-.585,0-1.34.0156-1.7559.0312a.9484.9484,0,0,0-.5234.1387,1.9466,1.9466,0,0,0-.6621,1.37A1.5759,1.5759,0,0,0,320.5693,167.7405Zm.1387-8.8369a2.1487,2.1487,0,0,0-.415,1.3545,2.7956,2.7956,0,0,0,.4765,1.6475,1.2585,1.2585,0,0,0,.9551.4463c.708,0,1.17-.8467,1.17-1.5547a2.7549,2.7549,0,0,0-.4775-1.7246,1.0824,1.0824,0,0,0-.9238-.5235A1.1572,1.1572,0,0,0,320.708,158.9036Z"/><path class="cls-4" d="M329.2393,159.2269a3.7348,3.7348,0,0,1,.2148,1.4c0,.57-.0459,2.0332-.0459,2.4326a.5273.5273,0,0,0,.5693.5849.9883.9883,0,0,0,.4473-.1377c.0918-.0468.1533,0,.0918.1377a1.2958,1.2958,0,0,1-1.1855.6621,1.033,1.033,0,0,1-.9082-.6923.0534.0534,0,0,0-.0772-.0157,2.153,2.153,0,0,1-1.5088.6934,1.2775,1.2775,0,0,1-1.2314-1.3242,1.0869,1.0869,0,0,1,.5537-.878c.37-.2,1.7715-.6152,2.0947-.7392a.2906.2906,0,0,0,.2-.2305,5.3029,5.3029,0,0,0,.03-.708c0-.6318-.1074-1.0625-.3692-1.2627a1.17,1.17,0,0,0-.6464-.2461,1.0591,1.0591,0,0,0-.6163.1846.6183.6183,0,0,0-.2314.3691,1.6649,1.6649,0,0,0-.0147.293.194.194,0,0,1-.0615.1231,3.3566,3.3566,0,0,1-.7236.3388c-.0772.0156-.1543-.0771-.1543-.1387,0-.1074.1074-.246.293-.4619a3.9692,3.9692,0,0,1,1.17-.8925,2.0532,2.0532,0,0,1,.9238-.2774A1.2624,1.2624,0,0,1,329.2393,159.2269ZM328.207,163.46a.6394.6394,0,0,0,.17-.3692,11.0875,11.0875,0,0,0,.0771-1.4629c0-.0156-.0312-.0918-.0625-.0771a8.774,8.774,0,0,0-1.416.5234.7979.7979,0,0,0-.3848.77.8944.8944,0,0,0,.9238.8623A1.0522,1.0522,0,0,0,328.207,163.46Z"/><path class="cls-4" d="M336.1992,158.9651a3.2162,3.2162,0,0,1,.4922,2.0167c0,.8164.0156.9394.0156,1.7089.0157,1.0469.0616,1.14.4776,1.2471.1386.0615.23.0928.23.1543,0,.0918-.123.1074-.2773.1074-.2,0-.6465-.0615-.9854-.0615-.5234,0-.7236.0615-.9541.0615-.1386,0-.2461-.03-.2461-.0927s.0918-.1231.292-.169c.37-.0928.4317-.2.4317-.6465v-2.0937c0-1.2471-.1084-1.6172-.4932-1.9092a1.3693,1.3693,0,0,0-.8779-.293,1.8419,1.8419,0,0,0-1.2.4932.7937.7937,0,0,0-.1846.4619c0,.1846.0147.97.0147,1.8936a12.5327,12.5327,0,0,0,.0927,1.6162c.0459.3388.23.416.4776.4931.1846.0459.2617.0772.2617.1534,0,.0927-.1543.0927-.3086.0927-.123,0-.8769-.0615-1.2314-.0615-.2,0-.5235.0313-.8155.0313-.17,0-.2929-.0313-.2929-.1084,0-.0616.1386-.1231.3232-.1534.3848-.0771.4463-.1855.4619-.4931.0313-1.1084.0313-2.5254.0313-3.7725,0-.1533-.0313-.3232-.4-.5234-.0928-.0616-.1231-.0918-.1231-.1377,0-.0313.0762-.0772.2149-.124a5.7385,5.7385,0,0,0,1.2168-.5235c.0459-.0146.123.0469.1074.1231a6.8876,6.8876,0,0,0-.03.8164c0,.0312.0459.0771.0762.0459a5.3412,5.3412,0,0,1,1.0937-.6924,2.0758,2.0758,0,0,1,.9082-.1846A1.5725,1.5725,0,0,1,336.1992,158.9651Z"/><path class="cls-4" d="M338.6953,158.888a7.587,7.587,0,0,0,1.1084-.4.6206.6206,0,0,1,.2315-.1074c.0459,0,.0761.0459.0615.2148-.0313.3086-.0313,1.2471-.0313,2.2325,0,1.2939,0,2.4326.0313,2.6943.03.3086.1845.3857.4306.4473.1543.03.2315.0615.2315.123,0,.0772-.124.1074-.2471.1074-.1387,0-.708-.0615-1.124-.0615-.5078,0-.7539.0313-.9229.0313-.1084,0-.2158-.0313-.2158-.0928s.0772-.1074.292-.1387c.3389-.0928.4776-.2158.4932-.8467.0156-.4619.0459-3.2636.0459-3.4179,0-.2159-.0156-.3077-.4463-.5391-.0772-.0459-.1231-.0918-.1231-.1231C338.5107,158.9651,338.5566,158.9183,338.6953,158.888Zm1.54-2.51a.5865.5865,0,0,1-.57.585.5477.5477,0,0,1-.5078-.5693.5706.5706,0,0,1,.5391-.6006A.5636.5636,0,0,1,340.2354,156.3782Z"/><path class="cls-4" d="M342.9912,161.0892a2.5887,2.5887,0,0,0,.7695,2.0019,2.1909,2.1909,0,0,0,1.4317.5391,2.069,2.069,0,0,0,1.6015-.585c.03-.0312.1075-.0468.1075,0a.3963.3963,0,0,1-.1231.2461,2.6632,2.6632,0,0,1-2.125,1.0156,2.806,2.806,0,0,1-1.9238-.7539,2.8994,2.8994,0,0,1-.77-2.0781,2.9423,2.9423,0,0,1,.9394-2.1406,3.3765,3.3765,0,0,1,2.2784-.8926,2.3434,2.3434,0,0,1,1.4013.3848.3544.3544,0,0,1,.2158.292.5263.5263,0,0,1-.3847.4931.4708.4708,0,0,1-.2617-.1543,4.2529,4.2529,0,0,0-.8623-.6308,1.3772,1.3772,0,0,0-.585-.1231C344.0527,158.7034,342.9912,159.3187,342.9912,161.0892Z"/></svg>