<svg id="Layer_1" data-name="Layer 1" xmlns="http://www.w3.org/2000/svg" viewBox="0 0 399 200"><defs><style>.cls-1,.cls-2,.cls-3{fill:none;stroke:#222f3c;stroke-width:0.5px;}.cls-1,.cls-3{stroke-miterlimit:10;}.cls-2,.cls-3{stroke-linecap:round;}.cls-2{stroke-linejoin:round;}.cls-4{fill:#333838;}</style></defs><path class="cls-1" d="M220.0912,122.8358c0-13.4743,24.3975-42.8027,24.3975-42.8027s24.3974,29.3284,24.3974,42.8027a24.3975,24.3975,0,0,1-48.7949,0Z"/><rect class="cls-1" x="246.3826" y="120.9119" width="2.6469" height="7.6445" rx="0.9453" transform="translate(236.8686 401.8613) rotate(-114.4884)"/><rect class="cls-1" x="239.2625" y="115.1024" width="2.6469" height="7.6445" rx="0.9453" transform="translate(404.7395 331.241) rotate(-154.0134)"/><rect class="cls-1" x="245.8096" y="107.7842" width="2.6469" height="7.6445" rx="0.9453" transform="translate(512.1207 54.054) rotate(143.4421)"/><circle class="cls-2" cx="237.0743" cy="104.4421" r="1.3629"/><path class="cls-2" d="M237.1077,99.6821c.4744,1.2569-1.09,2.0593.1524,3.3388"/><path class="cls-2" d="M237.1077,105.8634c.4744,1.2568-1.09,2.0592.1524,3.3387"/><path class="cls-2" d="M232.3143,104.4688c1.2569-.4744,2.0593,1.09,3.3388-.1524"/><path class="cls-2" d="M238.4956,104.4688c1.2568-.4744,2.0593,1.09,3.3387-.1524"/><path class="cls-2" d="M233.7321,101.0527c1.2242.5533.6852,2.2271,2.4686,2.2531"/><path class="cls-2" d="M238.1029,105.4235c1.2242.5533.6852,2.2271,2.4687,2.2531"/><path class="cls-2" d="M233.7274,107.8268c.5533-1.2241,2.227-.6852,2.2531-2.4686"/><path class="cls-2" d="M238.0982,103.456c.5533-1.2241,2.2271-.6852,2.2531-2.4686"/><circle class="cls-2" cx="230.1885" cy="115.9761" r="1.3629"/><path class="cls-2" d="M230.2219,111.2161c.4743,1.2569-1.09,2.0593.1524,3.3388"/><path class="cls-2" d="M230.2219,117.3974c.4743,1.2568-1.09,2.0592.1524,3.3387"/><path class="cls-2" d="M225.4285,116.0028c1.2568-.4744,2.0592,1.09,3.3387-.1524"/><path class="cls-2" d="M231.61,116.0028c1.2569-.4744,2.0593,1.09,3.3388-.1524"/><path class="cls-2" d="M226.8463,112.5867c1.2241.5533.6851,2.2271,2.4686,2.2531"/><path class="cls-2" d="M231.2171,116.9575c1.2241.5533.6851,2.2271,2.4686,2.2531"/><path class="cls-2" d="M226.8415,119.3608c.5533-1.2241,2.2271-.6852,2.2531-2.4686"/><path class="cls-2" d="M231.2123,114.99c.5533-1.2241,2.2271-.6852,2.2531-2.4686"/><circle class="cls-2" cx="258.3396" cy="130.6186" r="1.3629"/><path class="cls-2" d="M258.373,125.8586c.4743,1.2568-1.09,2.0593.1524,3.3387"/><path class="cls-2" d="M258.373,132.04c.4743,1.2568-1.09,2.0592.1524,3.3387"/><path class="cls-2" d="M253.58,130.6453c1.2568-.4744,2.0592,1.09,3.3387-.1524"/><path class="cls-2" d="M259.7608,130.6453c1.2569-.4744,2.0593,1.09,3.3388-.1524"/><path class="cls-2" d="M254.9974,127.2292c1.2241.5533.6851,2.227,2.4686,2.253"/><path class="cls-2" d="M259.3682,131.6c1.2241.5533.6851,2.227,2.4686,2.2531"/><path class="cls-2" d="M254.9926,134.0033c.5533-1.2241,2.2271-.6852,2.2531-2.4686"/><path class="cls-2" d="M259.3634,129.6325c.5533-1.2241,2.2271-.6852,2.2531-2.4686"/><circle class="cls-2" cx="232.9572" cy="131.3129" r="1.3629"/><path class="cls-2" d="M232.9906,126.5529c.4744,1.2568-1.09,2.0592.1524,3.3387"/><path class="cls-2" d="M232.9906,132.7341c.4744,1.2568-1.09,2.0593.1524,3.3388"/><path class="cls-2" d="M228.1972,131.34c1.2569-.4743,2.0593,1.09,3.3388-.1524"/><path class="cls-2" d="M234.3785,131.34c1.2568-.4743,2.0593,1.09,3.3387-.1524"/><path class="cls-2" d="M229.615,127.9234c1.2241.5533.6852,2.2271,2.4686,2.2531"/><path class="cls-2" d="M233.9858,132.2942c1.2241.5533.6852,2.2271,2.4686,2.2531"/><path class="cls-2" d="M229.61,134.6975c.5534-1.2241,2.2271-.6851,2.2531-2.4686"/><path class="cls-2" d="M233.9811,130.3267c.5533-1.2241,2.227-.6851,2.253-2.4686"/><circle class="cls-2" cx="245.4544" cy="137.4967" r="1.3629"/><path class="cls-2" d="M245.4878,132.7367c.4743,1.2568-1.09,2.0593.1524,3.3387"/><path class="cls-2" d="M245.4878,138.918c.4743,1.2568-1.09,2.0592.1524,3.3387"/><path class="cls-2" d="M240.6944,137.5234c1.2568-.4744,2.0592,1.09,3.3387-.1524"/><path class="cls-2" d="M246.8756,137.5234c1.2569-.4744,2.0593,1.09,3.3388-.1524"/><path class="cls-2" d="M242.1122,134.1073c1.2241.5533.6851,2.227,2.4686,2.253"/><path class="cls-2" d="M246.483,138.4781c1.2241.5533.6851,2.227,2.4686,2.2531"/><path class="cls-2" d="M242.1074,140.8814c.5533-1.2241,2.2271-.6852,2.2531-2.4686"/><path class="cls-2" d="M246.4782,136.5106c.5533-1.2241,2.2271-.6852,2.2531-2.4686"/><circle class="cls-2" cx="257.1602" cy="115.0696" r="1.3629"/><path class="cls-2" d="M257.1936,110.31c.4743,1.2568-1.09,2.0593.1524,3.3387"/><path class="cls-2" d="M257.1936,116.4908c.4743,1.2569-1.09,2.0593.1524,3.3388"/><path class="cls-2" d="M252.4,115.0962c1.2568-.4743,2.0593,1.09,3.3387-.1523"/><path class="cls-2" d="M258.5814,115.0962c1.2569-.4743,2.0593,1.09,3.3388-.1523"/><path class="cls-2" d="M253.818,111.68c1.2241.5533.6851,2.2271,2.4686,2.2531"/><path class="cls-2" d="M258.1888,116.051c1.2241.5533.6852,2.227,2.4686,2.253"/><path class="cls-2" d="M253.8132,118.4543c.5533-1.2241,2.2271-.6852,2.2531-2.4686"/><path class="cls-2" d="M258.184,114.0835c.5533-1.2242,2.2271-.6852,2.2531-2.4686"/><circle class="cls-2" cx="249.3668" cy="99.9271" r="1.3629"/><path class="cls-2" d="M249.4,95.1671c.4744,1.2568-1.09,2.0593.1524,3.3387"/><path class="cls-2" d="M249.4,101.3484c.4744,1.2568-1.09,2.0592.1524,3.3387"/><path class="cls-2" d="M244.6068,99.9538c1.2568-.4744,2.0593,1.09,3.3388-.1524"/><path class="cls-2" d="M250.7881,99.9538c1.2568-.4744,2.0592,1.09,3.3387-.1524"/><path class="cls-2" d="M246.0246,96.5377c1.2241.5533.6852,2.227,2.4686,2.253"/><path class="cls-2" d="M250.3954,100.9085c1.2241.5533.6852,2.227,2.4686,2.253"/><path class="cls-2" d="M246.02,103.3118c.5533-1.2241,2.2271-.6852,2.2531-2.4686"/><path class="cls-2" d="M250.3906,98.941c.5534-1.2242,2.2271-.6852,2.2531-2.4686"/><path class="cls-2" d="M167.317,124.7327h-5.44a1.26,1.26,0,0,1-1.2605-1.26v-3.73a1.26,1.26,0,0,1,1.2605-1.26h14.3119"/><line class="cls-2" x1="159.4006" y1="158.8456" x2="163.234" y2="158.8456"/><line class="cls-2" x1="164.2177" y1="135.1083" x2="164.2177" y2="126.3761"/><line class="cls-2" x1="162.8869" y1="158.8456" x2="158.0315" y2="158.8456"/><line class="cls-2" x1="155.9096" y1="155.6067" x2="155.9267" y2="155.5647"/><line class="cls-2" x1="155.9267" y1="155.5647" x2="164.2047" y2="135.2803"/><path class="cls-2" d="M155.91,155.6067a2.3427,2.3427,0,0,0,2.17,3.2358"/><path class="cls-2" d="M155.91,155.6067l.0171-.042"/><line class="cls-2" x1="162.8869" y1="158.8456" x2="158.0315" y2="158.8456"/><line class="cls-2" x1="155.9096" y1="155.6067" x2="155.9267" y2="155.5647"/><line class="cls-2" x1="155.9267" y1="155.5647" x2="164.2047" y2="135.2803"/><path class="cls-2" d="M155.91,155.6067a2.3427,2.3427,0,0,0,2.17,3.2358"/><path class="cls-2" d="M155.91,155.6067l.0171-.042"/><path class="cls-2" d="M176.6428,128.52h7.5746a1.2127,1.2127,0,0,0,1.1586-1.26v-3.73a1.2127,1.2127,0,0,0-1.1586-1.2605H169.7746a1.2127,1.2127,0,0,0-1.1586,1.2605v3.73a1.2127,1.2127,0,0,0,1.1586,1.26h2.4989"/><line class="cls-2" x1="171.481" y1="140.2958" x2="171.481" y2="131.5636"/><line class="cls-2" x1="187.3282" y1="164.0331" x2="165.2947" y2="164.0331"/><line class="cls-2" x1="163.1728" y1="160.7942" x2="163.19" y2="160.7522"/><line class="cls-2" x1="163.19" y1="160.7522" x2="171.468" y2="140.4678"/><path class="cls-2" d="M163.1728,160.7942a2.3429,2.3429,0,0,0,2.17,3.2358"/><path class="cls-2" d="M163.1728,160.7942l.0172-.042"/><line class="cls-2" x1="182.511" y1="140.2958" x2="182.511" y2="131.5636"/><line class="cls-2" x1="165.6418" y1="164.0331" x2="188.6973" y2="164.0331"/><line class="cls-2" x1="190.8192" y1="160.7942" x2="190.802" y2="160.7522"/><line class="cls-2" x1="190.802" y1="160.7522" x2="182.524" y2="140.4678"/><path class="cls-2" d="M190.8192,160.7942a2.3429,2.3429,0,0,1-2.17,3.2358"/><path class="cls-2" d="M190.8192,160.7942l-.0172-.042"/><line class="cls-2" x1="165.6418" y1="164.0331" x2="188.6973" y2="164.0331"/><line class="cls-2" x1="190.8192" y1="160.7942" x2="190.802" y2="160.7522"/><line class="cls-2" x1="190.802" y1="160.7522" x2="182.524" y2="140.4678"/><path class="cls-2" d="M190.8192,160.7942a2.3429,2.3429,0,0,1-2.17,3.2358"/><path class="cls-2" d="M190.8192,160.7942l-.0172-.042"/><line class="cls-1" x1="178.7903" y1="133.6787" x2="182.5924" y2="133.6787"/><line class="cls-1" x1="178.7903" y1="131.5001" x2="182.5924" y2="131.5001"/><line class="cls-1" x1="178.7903" y1="135.8825" x2="182.5924" y2="135.8825"/><line class="cls-1" x1="178.7903" y1="138.0863" x2="182.5924" y2="138.0863"/><line class="cls-1" x1="178.7903" y1="140.2901" x2="182.5924" y2="140.2901"/><path class="cls-1" d="M170.61,152.9814c0-1.2506,2.2645-3.9728,2.2645-3.9728s2.2645,2.7222,2.2645,3.9728a2.2645,2.2645,0,0,1-4.529,0Z"/><path class="cls-1" d="M175.335,158.5866c0-1.2506,2.2645-3.9728,2.2645-3.9728s2.2645,2.7222,2.2645,3.9728a2.2645,2.2645,0,0,1-4.529,0Z"/><path class="cls-1" d="M176.5876,150.5594c0-1.2507,2.2645-3.9729,2.2645-3.9729s2.2645,2.7222,2.2645,3.9729a2.2645,2.2645,0,1,1-4.529,0Z"/><line class="cls-3" x1="180.8659" y1="149.3799" x2="221.5922" y2="132.5799"/><circle class="cls-2" cx="287.283" cy="141.0831" r="1.6035"/><path class="cls-2" d="M287.2437,135.4831c-.558,1.4786,1.2827,2.4226-.1793,3.9279"/><path class="cls-2" d="M287.2437,142.7551c-.558,1.4787,1.2827,2.4227-.1793,3.928"/><path class="cls-2" d="M292.883,141.1144c-1.4786-.558-2.4226,1.2827-3.9279-.1793"/><path class="cls-2" d="M285.611,141.1144c-1.4787-.558-2.4227,1.2827-3.928-.1793"/><path class="cls-2" d="M291.215,137.0955c-1.44.6509-.806,2.62-2.9042,2.6507"/><path class="cls-2" d="M286.0729,142.2376c-1.44.651-.8061,2.62-2.9042,2.6507"/><path class="cls-2" d="M291.2206,145.065c-.6509-1.44-2.62-.806-2.6506-2.9042"/><path class="cls-2" d="M286.0785,139.9229c-.6509-1.44-2.62-.8061-2.6507-2.9042"/><path class="cls-4" d="M296.2168,135.8978a12.7045,12.7045,0,0,0,1.4785-.0459,11.4938,11.4938,0,0,1,1.5088-.1231c1.6777,0,3.0635.7539,3.0635,2.4785a1.97,1.97,0,0,1-.6465,1.3858,4.004,4.004,0,0,1-.8311.5078c-.0927.0459-.0312.0928.0157.123a4.8238,4.8238,0,0,1,1.3388.7705,2.413,2.413,0,0,1,.8164,1.878,2.6011,2.6011,0,0,1-1.7246,2.4638,4.6035,4.6035,0,0,1-1.8633.3233c-.2617,0-.5693,0-1.1855-.0156-.6309-.0313-.9854-.0313-1.3232-.0313h-.7705c-.2305,0-.3233-.0615-.3233-.1074,0-.0772.1074-.1074.2461-.1387.6162-.0615.8477-.3232.8936-.8779.0459-.4151.0459-2.6172.0459-4.3262,0-.831-.0157-2.6172-.03-3.2178-.0313-.5537-.1387-.6767-.7549-.8154-.1846-.0312-.2305-.0928-.2305-.123C295.94,135.9437,296.0635,135.8978,296.2168,135.8978Zm4.835,5.4043a2.1474,2.1474,0,0,0-2.0791-.8926c-.3077,0-.6.0146-.7539.03-.0772.0156-.1231.1074-.1387.1845a23.446,23.446,0,0,0,.0459,2.91,3.7907,3.7907,0,0,0,.2158,1.2773,1.5479,1.5479,0,0,0,1.3545.586,1.9154,1.9154,0,0,0,.8623-.2159,2.2059,2.2059,0,0,0,1.0937-2.1406A2.659,2.659,0,0,0,301.0518,141.3021Zm-2.2022-5.3116a2.5175,2.5175,0,0,0-.6006.0616c-.0615.0156-.1377.2-.1377.2461-.0312.2773-.0468,2.4023-.0312,3.5722,0,.0615.0312.2149.1689.2149a4.7366,4.7366,0,0,0,1.0469.0156,1.94,1.94,0,0,0,1.7715-1.8477A2.1053,2.1053,0,0,0,298.85,135.9905Z"/><path class="cls-4" d="M304.2559,140.3167a7.5912,7.5912,0,0,0,1.1084-.4.62.62,0,0,1,.2314-.1074c.0459,0,.0762.0459.0615.2148-.0312.3086-.0312,1.2471-.0312,2.2325,0,1.2939,0,2.4326.0312,2.6943.03.3086.1846.3857.4307.4473.1543.03.2314.0615.2314.123,0,.0772-.124.1074-.247.1074-.1387,0-.708-.0615-1.1241-.0615-.5078,0-.7539.0313-.9238.0313-.1074,0-.2148-.0313-.2148-.0928s.0771-.1074.292-.1387c.3388-.0928.4775-.2158.4931-.8467.0157-.4619.0459-3.2636.0459-3.4179,0-.2159-.0156-.3076-.4463-.5391-.0771-.0459-.123-.0918-.123-.123C304.0713,140.3939,304.1172,140.347,304.2559,140.3167Zm1.54-2.51a.5864.5864,0,0,1-.57.585.5477.5477,0,0,1-.5078-.5693.5712.5712,0,0,1,.539-.6006A.5636.5636,0,0,1,305.7959,137.8069Z"/><path class="cls-4" d="M313.124,142.78a2.9486,2.9486,0,0,1-2.9248,2.9717,2.936,2.936,0,0,1-1.8789-5.2344,3.1642,3.1642,0,0,1,1.8477-.6465A2.8885,2.8885,0,0,1,313.124,142.78Zm-4.8037-.2148a3.5244,3.5244,0,0,0,.6475,2.1093,1.8289,1.8289,0,0,0,1.4472.8155,1.5226,1.5226,0,0,0,.97-.3848,3.0694,3.0694,0,0,0,.6464-2.0635c0-1.4619-.7392-2.9092-2.0937-2.9092C309.1523,140.1321,308.32,140.9632,308.32,142.5648Z"/><path class="cls-4" d="M315.667,141.8255c0,1.9395.0156,2.6631.0312,2.9561.0147.416.1075.5234.5381.6005.0928.0157.2.0616.2.1075,0,.0615-.1074.1084-.3076.1084-.2461,0-.8008-.0313-1.0625-.0313-.4,0-.8008.0313-1.0312.0313-.1846,0-.2618-.0157-.2618-.0928s.0772-.0928.2774-.1387c.3847-.0771.4765-.2158.5381-.8926.0312-.57.0927-3.1718.1084-5.0195,0-1.2471.0156-2.51,0-3.1865,0-.3389-.0313-.416-.4317-.6621-.1074-.0615-.1533-.0928-.1533-.1387s.0918-.0928.2305-.123a8.0412,8.0412,0,0,0,1.1552-.3545.6371.6371,0,0,1,.1846-.0459c.03,0,.0459.0918.0459.1689,0,.1084-.0615,2.7715-.0615,5.0811Z"/><path class="cls-4" d="M323.1035,142.78a2.9486,2.9486,0,0,1-2.9248,2.9717,2.936,2.936,0,0,1-1.8789-5.2344,3.1642,3.1642,0,0,1,1.8477-.6465A2.8885,2.8885,0,0,1,323.1035,142.78Zm-4.8037-.2148a3.5244,3.5244,0,0,0,.6475,2.1093,1.8289,1.8289,0,0,0,1.4472.8155,1.52,1.52,0,0,0,.97-.3848,3.0694,3.0694,0,0,0,.6464-2.0635c0-1.4619-.7392-2.9092-2.0937-2.9092C319.1318,140.1321,318.3,140.9632,318.3,142.5648Z"/><path class="cls-4" d="M328.0625,140.178a1.1235,1.1235,0,0,0,.5391.0772c.2929,0,.9082-.0313,1.14-.0313.0762,0,.1387.1543.1387.3389,0,.1543-.1084.2773-.17.2773-.2159,0-.77-.0312-.9395-.0312a.1386.1386,0,0,0-.0918.0928c0,.1074.03.3545.03.6308a2.5458,2.5458,0,0,1-.97,2.0791,2.12,2.12,0,0,1-1.2012.4,3.7817,3.7817,0,0,1-.6465-.0771.2931.2931,0,0,0-.1846.0459,2.3848,2.3848,0,0,0-.539.5078.49.49,0,0,0-.169.3389c0,.4931.6309.6464,1.4317.6464.4775,0,1.3242-.0459,1.7548-.0459a1.59,1.59,0,0,1,1.7247,1.709,3.107,3.107,0,0,1-1.7247,2.51,3.6723,3.6723,0,0,1-1.8623.5078c-1.2324,0-2.2636-.585-2.2636-1.7246a.9832.9832,0,0,1,.2773-.6621c.1074-.1231.6777-.8467.9854-1.1846.0156-.0312.03-.124-.0157-.1387-.4306-.0927-1.247-.6318-1.247-1.247a.1919.1919,0,0,1,.0927-.1543,6.7432,6.7432,0,0,0,1.2774-1.14c.0156-.0146,0-.0771-.03-.0918a2.3247,2.3247,0,0,1-1.1855-1.9248,1.8583,1.8583,0,0,1,.6465-1.4775,2.3665,2.3665,0,0,1,1.6318-.6319A3.4753,3.4753,0,0,1,328.0625,140.178Zm-2.5713,8.9913a2.1033,2.1033,0,0,0,1.4629.4619,2.3953,2.3953,0,0,0,1.4316-.3692,2.0547,2.0547,0,0,0,.8321-1.5859c0-.6465-.4-1.2168-1.3858-1.2168-.5849,0-1.34.0156-1.7558.0312a.9493.9493,0,0,0-.5235.1387,1.9472,1.9472,0,0,0-.6621,1.37A1.5764,1.5764,0,0,0,325.4912,149.1693Zm.1387-8.837a2.1482,2.1482,0,0,0-.4151,1.3545,2.7948,2.7948,0,0,0,.4766,1.6475,1.2583,1.2583,0,0,0,.9551.4463c.708,0,1.17-.8467,1.17-1.5547a2.7557,2.7557,0,0,0-.4775-1.7246,1.0824,1.0824,0,0,0-.9239-.5235A1.1568,1.1568,0,0,0,325.63,140.3323Z"/><path class="cls-4" d="M330.6973,140.3167a7.5912,7.5912,0,0,0,1.1084-.4.62.62,0,0,1,.2314-.1074c.0459,0,.0762.0459.0615.2148-.0312.3086-.0312,1.2471-.0312,2.2325,0,1.2939,0,2.4326.0312,2.6943.03.3086.1846.3857.4307.4473.1543.03.2314.0615.2314.123,0,.0772-.124.1074-.247.1074-.1387,0-.708-.0615-1.1241-.0615-.5078,0-.7539.0313-.9238.0313-.1074,0-.2148-.0313-.2148-.0928s.0771-.1074.292-.1387c.3388-.0928.4775-.2158.4931-.8467.0157-.4619.0459-3.2636.0459-3.4179,0-.2159-.0156-.3076-.4463-.5391-.0771-.0459-.123-.0918-.123-.123C330.5127,140.3939,330.5586,140.347,330.6973,140.3167Zm1.54-2.51a.5864.5864,0,0,1-.57.585.5477.5477,0,0,1-.5078-.5693.5712.5712,0,0,1,.539-.6006A.5636.5636,0,0,1,332.2373,137.8069Z"/><path class="cls-4" d="M334.6855,142.5179a2.5887,2.5887,0,0,0,.77,2.0019,2.1907,2.1907,0,0,0,1.4316.5391,2.0694,2.0694,0,0,0,1.6016-.585c.03-.0312.1074-.0468.1074,0a.3966.3966,0,0,1-.123.2461,2.6636,2.6636,0,0,1-2.125,1.0157,2.8067,2.8067,0,0,1-1.9239-.7539,2.9,2.9,0,0,1-.7705-2.0782,2.9424,2.9424,0,0,1,.94-2.1406,3.376,3.376,0,0,1,2.2783-.8926,2.344,2.344,0,0,1,1.4014.3848.3546.3546,0,0,1,.2158.292.5264.5264,0,0,1-.3848.4931.4708.4708,0,0,1-.2617-.1543,4.254,4.254,0,0,0-.8623-.6308,1.3769,1.3769,0,0,0-.585-.1231C335.7471,140.1321,334.6855,140.7474,334.6855,142.5179Z"/><path class="cls-4" d="M343.001,140.6556a3.7348,3.7348,0,0,1,.2148,1.4c0,.57-.0459,2.0322-.0459,2.4326a.528.528,0,0,0,.5694.5859.9923.9923,0,0,0,.4472-.1386c.0918-.0469.1533,0,.0918.1386a1.297,1.297,0,0,1-1.1855.6612,1.0331,1.0331,0,0,1-.9082-.6924.0534.0534,0,0,0-.0772-.0157,2.153,2.153,0,0,1-1.5088.6934,1.2775,1.2775,0,0,1-1.2314-1.3242,1.0865,1.0865,0,0,1,.5537-.8779c.37-.2,1.7715-.6153,2.0947-.7393a.2905.2905,0,0,0,.2-.23,5.3029,5.3029,0,0,0,.03-.708c0-.6318-.1074-1.0625-.3691-1.2627a1.17,1.17,0,0,0-.6465-.2461,1.0586,1.0586,0,0,0-.6162.1846.6184.6184,0,0,0-.2315.3691,1.6762,1.6762,0,0,0-.0146.293.1941.1941,0,0,1-.0616.1231,3.3566,3.3566,0,0,1-.7236.3388c-.0771.0157-.1543-.0771-.1543-.1386,0-.1075.1074-.2461.293-.462a3.9921,3.9921,0,0,1,1.17-.8935,2.063,2.063,0,0,1,.9238-.2764A1.2623,1.2623,0,0,1,343.001,140.6556Zm-1.0322,4.2334a.64.64,0,0,0,.17-.3692,11.0875,11.0875,0,0,0,.0771-1.4629c0-.0156-.0312-.0918-.0625-.0771a8.774,8.774,0,0,0-1.416.5234.7979.7979,0,0,0-.3848.77.8943.8943,0,0,0,.9239.8623A1.0526,1.0526,0,0,0,341.9688,144.889Z"/><path class="cls-4" d="M346.4346,141.8255c0,1.9395.0156,2.6631.0312,2.9561.0147.416.1074.5234.5381.6005.0928.0157.2.0616.2.1075,0,.0615-.1074.1084-.3076.1084-.2461,0-.8008-.0313-1.0625-.0313-.4,0-.8008.0313-1.0313.0313-.1845,0-.2617-.0157-.2617-.0928s.0772-.0928.2774-.1387c.3847-.0771.4765-.2158.538-.8926.0313-.57.0928-3.1718.1084-5.0195,0-1.2471.0157-2.51,0-3.1865,0-.3389-.0312-.416-.4316-.6621-.1074-.0615-.1533-.0928-.1533-.1387s.0918-.0928.2305-.123a8.0451,8.0451,0,0,0,1.1552-.3545.6371.6371,0,0,1,.1846-.0459c.03,0,.0459.0918.0459.1689,0,.1084-.0615,2.7715-.0615,5.0811Z"/><rect class="cls-1" x="285.2458" y="155.1369" width="3.0492" height="8.8065" rx="1.089" transform="translate(108.0682 -115.6977) rotate(27.9171)"/><path class="cls-4" d="M296.376,154.345c.5078,0,.8467.0616,1.3086.0616.5078,0,.9853-.0616,1.3242-.0616.1377,0,.2305.03.2305.0772,0,.0615-.0616.123-.2305.1387-.6162.0917-.6475.3232-.6777.9541-.0459.77-.0313,2.5556-.0313,3.5107,0,2.2627.0313,3.5566.0615,4.0176.0469.5859.1387.6933.585.8008.2158.0468.2617.0927.2617.17s-.1074.0918-.292.0918c-.2461,0-.6308-.0459-1.0781-.0459-.7695,0-1.2158.0771-1.5088.0771-.1387,0-.2461-.0312-.2461-.1084,0-.0459.0772-.0918.3389-.1533.5693-.123.6621-.37.6777-1.293.03-.8935.0147-5.1425.0147-5.8662a12.8062,12.8062,0,0,0-.0616-1.4785c-.0615-.5078-.2148-.5693-.7382-.6924-.1084-.0312-.17-.0771-.17-.123S296.2373,154.345,296.376,154.345Z"/><path class="cls-4" d="M305.291,158.887a3.216,3.216,0,0,1,.4922,2.0166c0,.8164.0156.9395.0156,1.709.0157,1.0469.0616,1.14.4776,1.2471.1386.0615.23.0928.23.1543,0,.0918-.123.1074-.2773.1074-.2,0-.6465-.0615-.9854-.0615-.5234,0-.7236.0615-.9541.0615-.1386,0-.2461-.03-.2461-.0928s.0918-.123.292-.1689c.37-.0928.4317-.2.4317-.6465v-2.0938c0-1.247-.1084-1.6171-.4932-1.9091a1.3684,1.3684,0,0,0-.8769-.293,1.8423,1.8423,0,0,0-1.2012.4932.7934.7934,0,0,0-.1846.4619c0,.1845.0147.97.0147,1.8935a12.5294,12.5294,0,0,0,.0927,1.6162c.0459.3389.2305.4161.4776.4932.1845.0459.2617.0772.2617.1533,0,.0928-.1543.0928-.3086.0928-.123,0-.8769-.0615-1.2314-.0615-.2,0-.5235.0312-.8155.0312-.17,0-.2929-.0312-.2929-.1084,0-.0615.1386-.123.3232-.1533.3848-.0771.4463-.1855.4619-.4932.0313-1.1084.0313-2.5253.0313-3.7724,0-.1533-.0313-.3233-.4-.5235-.0928-.0615-.1231-.0918-.1231-.1377,0-.0312.0762-.0771.2149-.124a5.7383,5.7383,0,0,0,1.2168-.5234c.0459-.0147.123.0469.1074.123a6.8893,6.8893,0,0,0-.03.8164c0,.0313.0459.0772.0762.0459a5.336,5.336,0,0,1,1.0937-.6923,2.0758,2.0758,0,0,1,.9082-.1846A1.5725,1.5725,0,0,1,305.291,158.887Z"/><path class="cls-4" d="M313.4834,161.2728a2.9483,2.9483,0,0,1-2.9248,2.9716A2.9359,2.9359,0,0,1,308.68,159.01a3.1635,3.1635,0,0,1,1.8476-.6465A2.8884,2.8884,0,0,1,313.4834,161.2728Zm-4.8037-.2149a3.5252,3.5252,0,0,0,.6474,2.1094,1.8293,1.8293,0,0,0,1.4473.8154,1.522,1.522,0,0,0,.97-.3847,3.069,3.069,0,0,0,.6465-2.0635c0-1.4619-.7392-2.9092-2.0937-2.9092C309.5117,158.6253,308.68,159.4564,308.68,161.0579Z"/><path class="cls-4" d="M316.6562,159.4876a.8863.8863,0,0,0-.2617.5381,9.0514,9.0514,0,0,0-.0156.9394c0,1.14.0313,1.94.0615,2.2637.0616.4766.2471.585.8321.6465.2148.03.292.0615.292.1387s-.1387.1074-.3692.1074c-.293,0-.8008-.0615-1.4473-.0615a8.2939,8.2939,0,0,0-.9394.0927c-.1846,0-.2617-.0312-.2617-.0927,0-.0459.1084-.1231.2314-.1543a.6346.6346,0,0,0,.5537-.6309c.0313-.2617.0469-1.14.0469-2.1553v-1.7089c0-.1084-.1084-.1543-.4-.4-.1084-.0772-.123-.1231-.123-.1543s.0918-.0918.23-.1387a4.6231,4.6231,0,0,0,.9854-.3691.4852.4852,0,0,1,.2314-.0772c.03,0,.0616.0615.0616.2158,0,.169-.0157.7539-.0157,1.001,0,.0459.03.0615.0772.0147a2.515,2.515,0,0,1,1.6621-1.1084.8965.8965,0,0,1,.5391.2.2693.2693,0,0,1,.1084.2158,1.0551,1.0551,0,0,1-.3389.5234c-.1387.1231-.2.1387-.2471.1387a.6919.6919,0,0,1-.2764-.1084,1.085,1.085,0,0,0-.539-.1846A1.0488,1.0488,0,0,0,316.6562,159.4876Z"/><path class="cls-4" d="M323.4014,158.6712a1.1245,1.1245,0,0,0,.539.0772c.293,0,.9082-.0313,1.14-.0313.0761,0,.1387.1543.1387.3389,0,.1543-.1084.2773-.17.2773-.2158,0-.77-.0312-.9394-.0312a.1386.1386,0,0,0-.0918.0927c0,.1075.03.3545.03.6309a2.5458,2.5458,0,0,1-.97,2.0791,2.1193,2.1193,0,0,1-1.2011.4,3.77,3.77,0,0,1-.6465-.0772.2933.2933,0,0,0-.1846.0459,2.388,2.388,0,0,0-.5391.5079.49.49,0,0,0-.1689.3388c0,.4932.6309.6465,1.4316.6465.4776,0,1.3243-.0459,1.7549-.0459a1.59,1.59,0,0,1,1.7246,1.709,3.109,3.109,0,0,1-1.7246,2.51,3.6723,3.6723,0,0,1-1.8623.5078c-1.2324,0-2.2637-.585-2.2637-1.7246a.9828.9828,0,0,1,.2774-.6622c.1074-.123.6777-.8466.9853-1.1845.0157-.0313.03-.124-.0156-.1387-.4307-.0928-1.2471-.6318-1.2471-1.2471a.1923.1923,0,0,1,.0928-.1543,6.7426,6.7426,0,0,0,1.2774-1.14c.0156-.0147,0-.0772-.03-.0918a2.3247,2.3247,0,0,1-1.1856-1.9248,1.859,1.859,0,0,1,.6465-1.4776,2.3671,2.3671,0,0,1,1.6319-.6318A3.4749,3.4749,0,0,1,323.4014,158.6712Zm-2.5713,8.9912a2.1028,2.1028,0,0,0,1.4629.4619,2.3953,2.3953,0,0,0,1.4316-.3691,2.0552,2.0552,0,0,0,.832-1.5859c0-.6465-.4-1.2168-1.3857-1.2168-.585,0-1.34.0156-1.7559.0312a.9484.9484,0,0,0-.5234.1387,1.947,1.947,0,0,0-.6621,1.37A1.5762,1.5762,0,0,0,320.83,167.6624Zm.1387-8.8369a2.1482,2.1482,0,0,0-.4151,1.3545,2.7953,2.7953,0,0,0,.4766,1.6475,1.2584,1.2584,0,0,0,.9551.4462c.708,0,1.17-.8466,1.17-1.5546a2.7554,2.7554,0,0,0-.4776-1.7247,1.0824,1.0824,0,0,0-.9238-.5234A1.1568,1.1568,0,0,0,320.9688,158.8255Z"/><path class="cls-4" d="M329.5,159.1487a3.7352,3.7352,0,0,1,.2148,1.4c0,.57-.0459,2.0332-.0459,2.4327a.5273.5273,0,0,0,.5694.5849.9883.9883,0,0,0,.4472-.1377c.0918-.0469.1534,0,.0918.1377a1.2957,1.2957,0,0,1-1.1855.6621,1.0332,1.0332,0,0,1-.9082-.6924.0534.0534,0,0,0-.0772-.0156,2.1529,2.1529,0,0,1-1.5087.6934,1.2776,1.2776,0,0,1-1.2315-1.3242,1.0869,1.0869,0,0,1,.5537-.878c.37-.2,1.7715-.6152,2.0947-.7392a.2906.2906,0,0,0,.2-.23,5.3044,5.3044,0,0,0,.03-.708c0-.6318-.1074-1.0625-.3691-1.2627a1.17,1.17,0,0,0-.6465-.2461,1.0588,1.0588,0,0,0-.6162.1846.6189.6189,0,0,0-.2315.3691,1.6756,1.6756,0,0,0-.0146.293.194.194,0,0,1-.0615.123,3.3558,3.3558,0,0,1-.7237.3389c-.0771.0156-.1543-.0772-.1543-.1387,0-.1074.1075-.2461.293-.4619a3.9715,3.9715,0,0,1,1.17-.8926,2.0542,2.0542,0,0,1,.9239-.2773A1.2622,1.2622,0,0,1,329.5,159.1487Zm-1.0322,4.2334a.6391.6391,0,0,0,.17-.3691,11.0875,11.0875,0,0,0,.0771-1.4629c0-.0156-.0312-.0918-.0625-.0771a8.7774,8.7774,0,0,0-1.416.5234.798.798,0,0,0-.3847.77.8944.8944,0,0,0,.9238.8623A1.0527,1.0527,0,0,0,328.4678,163.3821Z"/><path class="cls-4" d="M336.46,158.887a3.2161,3.2161,0,0,1,.4921,2.0166c0,.8164.0157.9395.0157,1.709.0156,1.0469.0615,1.14.4775,1.2471.1387.0615.2305.0928.2305.1543,0,.0918-.1231.1074-.2774.1074-.2,0-.6464-.0615-.9853-.0615-.5235,0-.7236.0615-.9541.0615-.1387,0-.2461-.03-.2461-.0928s.0918-.123.292-.1689c.37-.0928.4316-.2.4316-.6465v-2.0938c0-1.247-.1084-1.6171-.4931-1.9091a1.37,1.37,0,0,0-.878-.293,1.8419,1.8419,0,0,0-1.2.4932.7932.7932,0,0,0-.1845.4619c0,.1845.0146.97.0146,1.8935a12.499,12.499,0,0,0,.0928,1.6162c.0459.3389.2305.4161.4775.4932.1846.0459.2617.0772.2617.1533,0,.0928-.1543.0928-.3085.0928-.1231,0-.877-.0615-1.2315-.0615-.2,0-.5234.0312-.8154.0312-.17,0-.293-.0312-.293-.1084,0-.0615.1387-.123.3232-.1533.3848-.0771.4463-.1855.462-.4932.0312-1.1084.0312-2.5253.0312-3.7724,0-.1533-.0312-.3233-.4-.5235-.0928-.0615-.123-.0918-.123-.1377,0-.0312.0761-.0771.2148-.124a5.7361,5.7361,0,0,0,1.2168-.5234c.0459-.0147.1231.0469.1074.123a6.8687,6.8687,0,0,0-.03.8164c0,.0313.0459.0772.0761.0459a5.3365,5.3365,0,0,1,1.0938-.6923,2.0755,2.0755,0,0,1,.9082-.1846A1.5727,1.5727,0,0,1,336.46,158.887Z"/><path class="cls-4" d="M338.9561,158.81a7.5912,7.5912,0,0,0,1.1084-.4.618.618,0,0,1,.2314-.1074c.0459,0,.0762.0459.0615.2148-.0312.3086-.0312,1.2471-.0312,2.2324,0,1.294,0,2.4326.0312,2.6944.03.3086.1846.3857.4307.4472.1543.03.2314.0616.2314.1231,0,.0771-.124.1074-.247.1074-.1387,0-.708-.0615-1.1241-.0615-.5078,0-.7539.0312-.9228.0312-.1084,0-.2158-.0312-.2158-.0927s.0771-.1075.292-.1387c.3388-.0928.4775-.2158.4931-.8467.0156-.4619.0459-3.2637.0459-3.418,0-.2158-.0156-.3076-.4463-.539-.0771-.0459-.123-.0918-.123-.1231C338.7715,158.887,338.8174,158.84,338.9561,158.81Zm1.54-2.51a.5865.5865,0,0,1-.57.585.5477.5477,0,0,1-.5078-.5694.5707.5707,0,0,1,.539-.6006A.5637.5637,0,0,1,340.4961,156.3Z"/><path class="cls-4" d="M343.252,161.011a2.5888,2.5888,0,0,0,.7695,2.002,2.1912,2.1912,0,0,0,1.4316.5391,2.0694,2.0694,0,0,0,1.6016-.585c.03-.0312.1074-.0469.1074,0a.3968.3968,0,0,1-.123.2461,2.6639,2.6639,0,0,1-2.125,1.0156,2.8063,2.8063,0,0,1-1.9239-.7539,2.9,2.9,0,0,1-.7705-2.0781,2.9424,2.9424,0,0,1,.94-2.1406,3.376,3.376,0,0,1,2.2783-.8926,2.344,2.344,0,0,1,1.4014.3848.3545.3545,0,0,1,.2158.2919.5264.5264,0,0,1-.3848.4932.4708.4708,0,0,1-.2617-.1543,4.25,4.25,0,0,0-.8623-.6308,1.3766,1.3766,0,0,0-.585-.1231C344.3135,158.6253,343.252,159.2405,343.252,161.011Z"/><path class="cls-4" d="M52.0967,65.9236a1.6316,1.6316,0,0,1,1.37-1.5087c.0771,0,.1387,0,.1387.0771,0,.0308-.0772.0767-.17.1074-.4619.2466-.8.5542-.8,1.0469,0,.3237.1534.5083.5694.6162a.3218.3218,0,0,1,.3076.3233.4446.4446,0,0,1-.4619.4A.9948.9948,0,0,1,52.0967,65.9236Zm1.9092,0a1.6711,1.6711,0,0,1,1.3857-1.5087c.0762,0,.1387.0307.1387.0771,0,.0308-.0625.0767-.1543.1074-.4619.2466-.8164.57-.8164,1.0469,0,.3237.17.5083.5849.6162a.3338.3338,0,0,1,.3086.3233.4723.4723,0,0,1-.4775.4A1.0071,1.0071,0,0,1,54.0059,65.9236Z"/><path class="cls-4" d="M56.5469,65.077c.3545,0,1.001.0615,1.3545.0615.4931,0,1.1552-.0615,1.4316-.0615.2315,0,.293.0615.293.0923,0,.0922-.1387.1386-.3076.1694-.37.0459-.5391.2461-.5391.4311a2.3292,2.3292,0,0,0,.1846.7237c.2773.8159,2.1552,5.6811,2.51,6.4048.0157.0459.0616.0922.0772.0307.2461-.5083,2.0478-5.1118,2.31-5.8506a4.5067,4.5067,0,0,0,.3076-1.2163c0-.354-.293-.4468-.7549-.57-.1533-.0151-.2617-.0767-.2617-.123,0-.0616.0771-.108.3086-.108.3388,0,.9541.0772,1.2773.0772.3545,0,.77-.0615,1.0166-.0615.2,0,.2617.0307.2617.0615,0,.0615-.0615.1387-.3086.1846-.5849.1694-.8154.4467-1.2929,1.5244-.292.6621-1.1856,2.8637-2.6485,6.4048-.3535.893-.5537,1.4472-.6152,1.6782-.0313.1074-.0928.1846-.1231.1846-.0927,0-.123-.1231-.1845-.3233-.5088-1.5244-2.8487-7.4517-3.4336-8.7759a1.0234,1.0234,0,0,0-.8623-.6928c-.1846-.0308-.293-.0923-.293-.1538S56.4082,65.077,56.5469,65.077Z"/><path class="cls-4" d="M69.4355,65.0306a6.5026,6.5026,0,0,0,.4,1.2934c1.0772,2.8638,1.9092,4.9576,2.8633,7.1285.3848.9082.5391,1.0468.9238,1.1391.1846.0308.2618.0923.2618.1387,0,.0771-.1387.1079-.2774.1079-.292,0-.539-.0464-1.3388-.0464-.57,0-1.1553.0615-1.5245.0615-.17,0-.2617-.0307-.2617-.1079,0-.0615.1387-.123.292-.1382.6162-.0927.708-.3545.6934-.6928-.0313-.2618-.5547-1.6324-1.0782-2.9868-.0458-.108-.1386-.1851-.2-.1851-.585.0308-2.5245.0308-2.8633.0308-.0772,0-.17.1694-.2315.2924-.1386.3389-.5849,1.4781-.8008,2.2325-.1689.5854-.1689.8779,0,1.0473a1.21,1.21,0,0,0,.6475.2617c.1533.0459.23.1075.23.1538,0,.0772-.1387.108-.3076.108-.293,0-.9239-.0772-1.4786-.0772-.3847,0-.6767.0772-1.0468.0772-.169,0-.2618-.0308-.2618-.108s.1543-.1079.3086-.1386c.7081-.1387.8467-.2769,1.4317-1.57.4463-.9546,1.8008-4.3262,2.6943-6.62a1.0746,1.0746,0,0,0,.0918-.4311c0-.0615.0156-.1543.0469-.1694a1.4662,1.4662,0,0,0,.5537-.8008c.0313-.0615.0459-.1538.1084-.1538S69.4043,64.9383,69.4355,65.0306Zm.6153,5.0654c-.6153-1.74-1.0313-2.7251-1.2617-3.2485-.0469-.1231-.0772-.0772-.1241.0307-.3691.8775-1,2.648-1.2158,3.2793-.0156.0308-.0156.1387.0459.1387.293.0151.6778.0151,1.2168.0151a7.3364,7.3364,0,0,0,1.3389-.0615A.2246.2246,0,0,0,70.0508,70.096Z"/><path class="cls-4" d="M72.8857,65.077c.3545,0,1.001.0615,1.3555.0615.4922,0,1.1543-.0615,1.4317-.0615.23,0,.2929.0615.2929.0923,0,.0922-.1387.1386-.3086.1694-.3691.0459-.539.2461-.539.4311a2.3113,2.3113,0,0,0,.1855.7237c.2764.8159,2.1553,5.6811,2.5088,6.4048.0156.0459.0615.0922.0771.0307.2461-.5083,2.0479-5.1118,2.31-5.8506a4.4691,4.4691,0,0,0,.3076-1.2163c0-.354-.292-.4468-.7539-.57-.1543-.0151-.2617-.0767-.2617-.123,0-.0616.0772-.108.3076-.108.3389,0,.9551.0772,1.2783.0772.3536,0,.77-.0615,1.0157-.0615.2,0,.2617.0307.2617.0615,0,.0615-.0615.1387-.3076.1846-.585.1694-.8164.4467-1.293,1.5244-.293.6621-1.1855,2.8637-2.6484,6.4048-.3545.893-.5547,1.4472-.6162,1.6782-.03.1074-.0918.1846-.1231.1846-.0918,0-.123-.1231-.1846-.3233-.5078-1.5244-2.8486-7.4517-3.4336-8.7759a1.022,1.022,0,0,0-.8623-.6928c-.1845-.0308-.2919-.0923-.2919-.1538S72.748,65.077,72.8857,65.077Z"/><path class="cls-4" d="M82.7881,65.077c.3545,0,1.001.0615,1.3545.0615.4931,0,1.1553-.0615,1.4316-.0615.2315,0,.293.0615.293.0923,0,.0922-.1387.1386-.3076.1694-.37.0459-.5391.2461-.5391.4311a2.3292,2.3292,0,0,0,.1846.7237c.2773.8159,2.1553,5.6811,2.51,6.4048.0157.0459.0616.0922.0772.0307.2461-.5083,2.0478-5.1118,2.31-5.8506a4.5067,4.5067,0,0,0,.3076-1.2163c0-.354-.293-.4468-.7549-.57-.1533-.0151-.2617-.0767-.2617-.123,0-.0616.0771-.108.3086-.108.3388,0,.9541.0772,1.2773.0772.3545,0,.77-.0615,1.0166-.0615.2,0,.2617.0307.2617.0615,0,.0615-.0615.1387-.3086.1846-.5849.1694-.8154.4467-1.2929,1.5244-.292.6621-1.1856,2.8637-2.6485,6.4048-.3535.893-.5537,1.4472-.6152,1.6782-.0312.1074-.0928.1846-.123.1846-.0928,0-.1231-.1231-.1846-.3233-.5088-1.5244-2.8486-7.4517-3.4336-8.7759a1.0234,1.0234,0,0,0-.8623-.6928c-.1846-.0308-.293-.0923-.293-.1538S82.6494,65.077,82.7881,65.077Z"/><path class="cls-4" d="M96.5088,70.2039a.7722.7722,0,0,0-.1543.5694,30.734,30.734,0,0,0,.0771,3.31.5445.5445,0,0,0,.4932.5234c.23.0459.3379.0767.3379.1538,0,.0464-.0918.0923-.23.0923-.4306,0-.831-.0615-1.2783-.0615-.4766,0-.708.0615-1,.0615-.17,0-.2471-.0307-.2471-.0923s.0616-.0922.2471-.1386c.4463-.1079.5537-.1538.5693-.7388.0459-.6162.0616-2.0322.0616-4.4805,0-2.3247.0312-3.2641,0-3.8491-.0157-.4927-.1231-.5386-.4619-.7236-.0616-.0459-.1075-.0767-.1075-.1231s.0918-.0922.2617-.1386a6.4058,6.4058,0,0,0,1.1241-.37.3355.3355,0,0,1,.1533-.0615c.0469,0,.0928.1079.0771.3237-.0156.4156-.0771,5.1885-.0615,5.481,0,.0615.0459.0767.0615.0459a5.0892,5.0892,0,0,1,.9239-.6313,2.4207,2.4207,0,0,1,1.0781-.2618,1.6418,1.6418,0,0,1,1.3857.6929,2.9713,2.9713,0,0,1,.3379,1.6475c.0157,1.1547.0157,2.1093.0313,2.6943,0,.3081.0615.416.5234.4927.2.0464.2461.0771.2461.1386s-.1074.108-.2461.108c-.4,0-.6933-.0772-1.1084-.0772-.5234,0-.6465.0615-1.001.0615-.1845,0-.2461-.0459-.2461-.0923,0-.0615.0772-.0922.2305-.123.416-.0923.4463-.2.5088-.647.03-.354.0615-1.0312.0615-2.6323a2.4663,2.4663,0,0,0-.2314-1.1548,1.1527,1.1527,0,0,0-1.0625-.57A1.8586,1.8586,0,0,0,96.5088,70.2039Z"/><path class="cls-4" d="M105.1787,69.8807a3.7145,3.7145,0,0,1,.2158,1.4009c0,.57-.0468,2.0322-.0468,2.4326a.5277.5277,0,0,0,.57.5849.9833.9833,0,0,0,.4463-.1386c.0918-.0459.1533,0,.0918.1386a1.2958,1.2958,0,0,1-1.1856.6621,1.0344,1.0344,0,0,1-.9082-.6928.054.054,0,0,0-.0771-.0157,2.153,2.153,0,0,1-1.5088.6929,1.2774,1.2774,0,0,1-1.2315-1.3237,1.0857,1.0857,0,0,1,.5547-.8779c.3692-.2,1.77-.6158,2.0938-.7388a.2919.2919,0,0,0,.2-.231,5.32,5.32,0,0,0,.03-.7085c0-.6308-.1074-1.062-.3691-1.2622a1.1749,1.1749,0,0,0-.6465-.2466,1.0615,1.0615,0,0,0-.6162.1851.6146.6146,0,0,0-.2305.3691,1.5756,1.5756,0,0,0-.0156.293.1933.1933,0,0,1-.0615.1231,3.3312,3.3312,0,0,1-.7237.3388c-.0771.0152-.1543-.0771-.1543-.1386,0-.108.1084-.2466.293-.462a3.9935,3.9935,0,0,1,1.17-.893,2.07,2.07,0,0,1,.9239-.2774A1.2617,1.2617,0,0,1,105.1787,69.8807Zm-1.0312,4.2339a.6407.6407,0,0,0,.1689-.37,11.0782,11.0782,0,0,0,.0772-1.4629c0-.0151-.0313-.0922-.0616-.0766a8.6565,8.6565,0,0,0-1.417.5234.7969.7969,0,0,0-.3847.77.8941.8941,0,0,0,.9238.8623A1.0593,1.0593,0,0,0,104.1475,74.1146Z"/><path class="cls-4" d="M108.167,70.2806c0,.647.585,1.0161.97,1.247,1.001.647,1.4,1.0318,1.4,1.8169a1.5811,1.5811,0,0,1-.8,1.2935,2.5619,2.5619,0,0,1-1.2324.3384,3.14,3.14,0,0,1-1.2158-.2769c-.1231-.0464-.2315-.1538-.2315-.2466,0-.2153-.03-.6-.0459-.7695-.03-.2.0156-.2466.0459-.2466.0469,0,.0928,0,.2.2925a1.5035,1.5035,0,0,0,.6475.8316,1.1775,1.1775,0,0,0,.6924.1845,1.0555,1.0555,0,0,0,1.0009-1.0312c0-.585-.4-.9087-1.0166-1.2935-.6621-.4311-1.2773-1.0005-1.2773-1.6782a1.46,1.46,0,0,1,.5849-1.2163,1.99,1.99,0,0,1,1.293-.4312,3.7614,3.7614,0,0,1,1.0469.1695.2471.2471,0,0,1,.0771.1386c.0157.1695.0772.4776.0928.7237,0,.1694-.0312.2466-.0771.2466-.0616,0-.0928-.0772-.1387-.1851a1.1747,1.1747,0,0,0-.3691-.6314,1.2686,1.2686,0,0,0-.7237-.2309A.8968.8968,0,0,0,108.167,70.2806Z"/><path class="cls-4" d="M114.3418,70.05c0-.1074-.0156-.1845-.0772-.2-.0771,0-.246,0-.4306-.0151-.1084-.0156-.2-.0923-.2-.1231,0-.0463.0762-.0922.1846-.1543s.23-.1381.3691-.2309a.2978.2978,0,0,0,.1543-.2153,9.8283,9.8283,0,0,1,.2617-2.5249,3.5447,3.5447,0,0,1,1.5547-2.0479,2.52,2.52,0,0,1,1.3857-.4155c.6309,0,1.0469.2617,1.0469.4927a.7545.7545,0,0,1-.3847.5078.2771.2771,0,0,1-.3077-.0308,1.82,1.82,0,0,0-1.0937-.5234c-.6924,0-1.2315.4467-1.3858,2.0942-.0459.4771-.0761,1.57-.0761,2.0474a4.7336,4.7336,0,0,0,.0146.4926.1219.1219,0,0,0,.124.0923c.1377,0,1.4463-.0307,1.6163-.0307.0615,0,.123.0923.123.2773,0,.2153-.0312.2769-.2158.2769-.2461,0-1.3545-.0308-1.57-.0308-.0459,0-.0772.1235-.0772.1387,0,.57.0313,3.3716.0469,3.8183.0459.585.1689.708.3232.7544.1231.0464.292.0464.4922.0923.1846.0464.2774.0772.2774.1387,0,.0771-.1075.1079-.2461.1079-.4463,0-.6934-.0464-1.4785-.0464-.3536,0-.6924.0464-.9541.0615-.1387,0-.2315-.0307-.2315-.0923s.1084-.1079.3086-.1538c.3691-.0927.4463-.3081.4463-.8623Z"/><path class="cls-4" d="M123.38,72.0052a2.9487,2.9487,0,0,1-2.9248,2.9712,2.936,2.936,0,0,1-1.8789-5.2344,3.1618,3.1618,0,0,1,1.8476-.647A2.89,2.89,0,0,1,123.38,72.0052Zm-4.8037-.2158a3.5269,3.5269,0,0,0,.6465,2.1093,1.831,1.831,0,0,0,1.4472.816,1.5228,1.5228,0,0,0,.9707-.3848,3.0682,3.0682,0,0,0,.6465-2.063c0-1.4629-.7392-2.91-2.0937-2.91C119.4072,69.3568,118.5762,70.1883,118.5762,71.7894Z"/><path class="cls-4" d="M125.1367,74.3763a1.6143,1.6143,0,0,1-.292-.9395c0-.5078,0-3.11-.0312-3.3716a.5991.5991,0,0,0-.3389-.5083c-.1387-.0922-.1846-.1381-.1846-.1845s.0772-.0772.2461-.0772a5.4066,5.4066,0,0,0,1.294-.2c.0459-.0151.0918.0772.0771.1695-.0468.8779-.0625,2.9716-.0468,3.68a1.6972,1.6972,0,0,0,.2314,1.0161,1.1317,1.1317,0,0,0,.8623.3852,1.7278,1.7278,0,0,0,1.3086-.4927.9434.9434,0,0,0,.2764-.7085c.0312-.4155.0312-1.0161.0312-1.57,0-.2309-.0156-.9546-.0156-1.3549-.0156-.5235-.169-.6-.6768-.7081-.17-.0307-.247-.0771-.247-.123,0-.062.1386-.0928.2314-.0928h.6465a8.1768,8.1768,0,0,0,1.0625-.0923c.0459,0,.0771.0616.0615.1695-.0771.7236-.1084,2.2632-.1084,4.0493a5.0656,5.0656,0,0,0,.0313.7851c.0312.1539.0771.1846.2.1695a4.3359,4.3359,0,0,1,.6308-.1387.1854.1854,0,0,1,.1856.1694c0,.0616-.1387.0923-.293.1231a6.95,6.95,0,0,0-1.5859.4155c-.1231.0615-.1543.0464-.1846,0s-.0313-.123-.0313-.2925c0-.1538.0157-.4926.0157-.6,0-.0459-.0157-.1539-.0459-.1075a4.4346,4.4346,0,0,1-1.0625.7544,2.6327,2.6327,0,0,1-.9082.231A1.5142,1.5142,0,0,1,125.1367,74.3763Z"/><path class="cls-4" d="M135.8691,69.619a3.21,3.21,0,0,1,.4932,2.0166c0,.8159.0156.9394.0156,1.7089.0147,1.0469.0616,1.1392.4766,1.2471.1387.0615.2314.0923.2314.1538,0,.0928-.123.1079-.2773.1079-.2,0-.6465-.0615-.9854-.0615-.5234,0-.7236.0615-.9541.0615-.1386,0-.247-.0307-.247-.0923s.0927-.123.2929-.1694c.3692-.0923.4307-.2.4307-.6465V71.8514c0-1.2471-.1074-1.6167-.4922-1.9092a1.3679,1.3679,0,0,0-.8779-.2925,1.8372,1.8372,0,0,0-1.2.4927.7939.7939,0,0,0-.1856.4619c0,.1846.0157.97.0157,1.8936a12.5678,12.5678,0,0,0,.0927,1.6167c.0459.3383.23.4155.4766.4926.1856.0459.2617.0767.2617.1538,0,.0923-.1533.0923-.3076.0923-.123,0-.8769-.0615-1.2314-.0615-.2,0-.5235.0308-.8164.0308-.169,0-.292-.0308-.292-.1079,0-.0616.1386-.1231.3232-.1538.3848-.0772.4463-.1846.4619-.4927.03-1.1084.03-2.5249.03-3.772,0-.1538-.03-.3232-.4-.5234-.0918-.0616-.123-.0923-.123-.1387,0-.0308.0771-.0772.2158-.1231a5.7848,5.7848,0,0,0,1.2168-.5234c.0459-.0156.123.0459.1074.1231a7.0863,7.0863,0,0,0-.0313.8159c0,.0307.0469.0771.0772.0464a5.3,5.3,0,0,1,1.0937-.6929,2.0769,2.0769,0,0,1,.9082-.1851A1.57,1.57,0,0,1,135.8691,69.619Z"/><path class="cls-4" d="M142.1064,69.2493c.0313.0152.0772-.0464.0772-.0771,0-.2769-.0156-3.0025-.0313-3.8184a.4074.4074,0,0,0-.0615-.2617.8391.8391,0,0,0-.4306-.2461c-.1075-.0308-.1846-.0771-.1846-.123s.0771-.0928.1846-.1079a6.4811,6.4811,0,0,0,1.3242-.37.519.519,0,0,1,.2148-.0771c.0469,0,.0772.0771.0625.2617-.0312.4619-.1084,5.4658-.1084,7.0361,0,1.3394.0156,2.4019.0313,2.8023a.1365.1365,0,0,0,.1074.1386,4,4,0,0,0,.7236-.1694c.0928-.0308.1387.0151.1387.0615,0,.1079-.1074.2466-.3848.2925a8.6712,8.6712,0,0,0-1.6015.4c-.0616.0151-.1075-.0615-.1075-.1079a4.5738,4.5738,0,0,0,.03-.6314c0-.0307-.03-.0615-.0615-.0307a2.8886,2.8886,0,0,1-1.7549.7236,2.5106,2.5106,0,0,1-1.6318-.6465,2.9185,2.9185,0,0,1-.8008-2.063,3.064,3.064,0,0,1,1.34-2.54,3.46,3.46,0,0,1,1.9092-.5849A4.2568,4.2568,0,0,1,142.1064,69.2493Zm-2.2939.4156a2.7338,2.7338,0,0,0-.8467,2.2324c0,1.6631.94,2.5249,1.878,2.5249a1.6051,1.6051,0,0,0,1.0937-.4,1.0464,1.0464,0,0,0,.1689-.5693,21.284,21.284,0,0,0-.0156-2.9717.9977.9977,0,0,0-.1387-.37,1.7137,1.7137,0,0,0-1.37-.708A1.1364,1.1364,0,0,0,139.8125,69.6649Z"/><path class="cls-4" d="M58.3174,82.8929a9.4438,9.4438,0,0,0,1.9551-.4,1.6157,1.6157,0,0,1,.3388-.1079c.0313,0,.0616.0156.0616.1079,0,.2-.0157,1.57-.0459,2.5713-.0157,1.293.0156,4.5263.0459,5.1885.0459.9545.123,1.0468.77,1.1547.17.0308.2471.0923.2471.1539s-.0928.1079-.293.1079c-.7852,0-1.2627-.0772-1.8008-.0772-.7549,0-1.0478.0772-1.5859.0772-.1387,0-.2618-.0308-.2618-.1236,0-.0615.0918-.0923.2461-.123.7237-.1231.8623-.2617.8926-1.17.0469-.4776.0772-1.3086.0772-3.9414,0-1.8628-.0157-2.3711-.0459-2.7559a.3767.3767,0,0,0-.2-.3389,2.3483,2.3483,0,0,0-.3848-.0923c-.0928-.0156-.2314-.0615-.2314-.123C58.1016,82.9544,58.1943,82.908,58.3174,82.8929Z"/><path class="cls-4" d="M69.1885,86.9422c0,2.6787-.8008,3.9722-1.57,4.48a2.205,2.205,0,0,1-1.2159.354c-2.0937,0-2.8486-2.7559-2.8486-4.5415,0-2.4175.6309-3.8955,1.8633-4.6035a2.1248,2.1248,0,0,1,1.0312-.2466C68.542,82.3846,69.1885,85.1868,69.1885,86.9422Zm-3.3711-3.9414a8.3623,8.3623,0,0,0-.586,3.6641c0,2.51.3243,4.896,1.2627,4.896.2159,0,.4463-.0923.6621-.7544a13.91,13.91,0,0,0,.3848-3.4952c0-2.3554-.4-4.6958-1.2158-4.6958A.6165.6165,0,0,0,65.8174,83.0008Z"/><path class="cls-4" d="M73.8555,88.42a2.7271,2.7271,0,0,0,.6465,1.8936,2.0379,2.0379,0,0,0,1.34.5386,1.94,1.94,0,0,0,1.4932-.5235c.0771-.0615.1386-.0615.1386,0a.5515.5515,0,0,1-.123.2774A2.5768,2.5768,0,0,1,75.18,91.7454a2.8323,2.8323,0,0,1-1.77-5.019,3.8323,3.8323,0,0,1,2.2627-.8775,2.3565,2.3565,0,0,1,1.5088.4156.4164.4164,0,0,1,.1855.2924.5691.5691,0,0,1-.4932.6006.6179.6179,0,0,1-.2617-.1386,6.8646,6.8646,0,0,0-.97-.7237,1.19,1.19,0,0,0-.57-.123C74.6562,86.1722,73.8555,86.6805,73.8555,88.42Z"/><path class="cls-4" d="M84.2334,88.7586a3.0831,3.0831,0,0,1-1.2,2.4175,3.26,3.26,0,0,1-1.8477.6,2.9774,2.9774,0,0,1-3.0947-2.94,2.8324,2.8324,0,0,1,1.0928-2.2789,3.139,3.139,0,0,1,1.9707-.708A2.9213,2.9213,0,0,1,84.2334,88.7586ZM79.7227,88.42A4.6189,4.6189,0,0,0,80.2,90.6834a1.4893,1.4893,0,0,0,1.17.8467.9115.9115,0,0,0,.708-.354,3.64,3.64,0,0,0,.5088-2.0943c0-1.7548-.4931-2.9711-1.5713-2.9711C80.3545,86.1107,79.7227,87.08,79.7227,88.42Z"/><path class="cls-4" d="M90.3174,86.3724a2.7349,2.7349,0,0,1,.539,1.94c.0157.8931.03,1.0469.03,1.9092.0156.9546.0928,1.0776.5088,1.1855.0762.0308.169.0616.169.1382,0,.062-.0772.0928-.2159.0928-.3535,0-.8623-.0464-1.17-.0464a12.088,12.088,0,0,0-1.2773.0615c-.1543,0-.2627-.0459-.2627-.1079s.0927-.1074.2314-.1382c.416-.1235.4922-.2309.4922-.5854V88.5584c0-1.1855-.0918-1.5088-.4609-1.8013a1.23,1.23,0,0,0-.7237-.2153,1.3844,1.3844,0,0,0-.832.2925.4613.4613,0,0,0-.1533.3232c0,.2925.0146,1.0161.0146,1.8013.0157.9546.0469,1.7246.0616,1.9092a.52.52,0,0,0,.4316.5234c.1846.0464.2461.0772.2461.1538,0,.0928-.169.1079-.2774.1079-.1533,0-1.0312-.0615-1.3857-.0615-.2,0-.6006.0308-1.0615.0308-.17,0-.293-.0464-.293-.1231,0-.0615.1387-.123.2774-.1538.4306-.0771.4619-.2.4765-.5547.0313-.8925.0469-2.2324.0469-3.6489,0-.1538-.0469-.2768-.3545-.4927-.1387-.0923-.123-.123-.123-.1538,0-.0459.0771-.0923.2158-.123A7.859,7.859,0,0,0,87.1,85.741c.0459-.0151.1231.0464.1231.1231a5.9785,5.9785,0,0,0-.03.77c0,.0308.0459.0464.0762.0151a4.42,4.42,0,0,1,.9091-.6,2.23,2.23,0,0,1,.9082-.2A1.5934,1.5934,0,0,1,90.3174,86.3724Z"/><path class="cls-4" d="M92.874,91.0374a1.92,1.92,0,0,1-.1845-.9546V86.9266a.2659.2659,0,0,0-.1075-.2617,1.0356,1.0356,0,0,0-.2461-.0923c-.124-.0308-.2-.0772-.2-.1538,0-.0464.0762-.1236.2461-.2159A5.0847,5.0847,0,0,0,93.8291,85.11c.2305-.231.3389-.1695.3389-.0923,0,.1079-.0313.7544-.0157.8774,0,.0464.0157.1543.0772.1543.292-.0156,1.3242-.0464,1.57-.0307a.3.3,0,0,1,.1231.2768c0,.3389-.1075.354-.169.354H94.3984c-.1845,0-.2158.062-.2158.1387,0,.3389-.0146,2.8022,0,3.2026a1.1009,1.1009,0,0,0,.17.708.9508.9508,0,0,0,.7393.3389,1.2383,1.2383,0,0,0,.708-.185c.1533-.0923.2-.0459.2,0,0,.0927-.0771.2158-.3232.416a2.1211,2.1211,0,0,1-1.3858.4619A1.511,1.511,0,0,1,92.874,91.0374Z"/><path class="cls-4" d="M100.4043,86.48a2.7681,2.7681,0,0,1,.3848,1.54c0,.7388-.0313,2.0323-.0313,2.4327a.4984.4984,0,0,0,.5088.4926.8386.8386,0,0,0,.4307-.1235c.0615-.0459.123.062.0771.1543a1.5759,1.5759,0,0,1-1.416.8,1.1119,1.1119,0,0,1-1.0322-.7236c0-.0152-.0459-.0308-.0772-.0152a1.9623,1.9623,0,0,1-1.4931.708A1.326,1.326,0,0,1,96.5088,90.36a1.1065,1.1065,0,0,1,.5693-.9546c.4-.2,1.6787-.5239,2.0948-.6929a.3089.3089,0,0,0,.2-.2309,6.1968,6.1968,0,0,0,.0147-.7393,1.3692,1.3692,0,0,0-.3389-1.1084.9426.9426,0,0,0-.6-.2617,1.1606,1.1606,0,0,0-.539.1386.3789.3789,0,0,0-.1543.2618c0,.0766.0156.3076.0156.4463a.2747.2747,0,0,1-.0928.123,5.3551,5.3551,0,0,1-.9385.4927.1851.1851,0,0,1-.1855-.169,1.2614,1.2614,0,0,1,.4-.6469,4.2629,4.2629,0,0,1,1.1709-.8467,2.621,2.621,0,0,1,1.0312-.3233A1.4835,1.4835,0,0,1,100.4043,86.48Zm-1.2471,4.3721a.6407.6407,0,0,0,.1387-.3077,14.8965,14.8965,0,0,0,.0771-1.54c0-.0156-.0312-.1079-.0927-.0923a5.2451,5.2451,0,0,0-.9854.3848.8381.8381,0,0,0-.4463.8.876.876,0,0,0,.8311.9394A.6152.6152,0,0,0,99.1572,90.8524Z"/><path class="cls-4" d="M102.376,86.5418c0-.0464.0928-.1079.2-.123a4.8522,4.8522,0,0,0,1.4013-.5547.5311.5311,0,0,1,.2764-.1074c.0625,0,.0772.0766.0772.1538,0,.1694,0,.5542-.0147.708,0,.0771.0147.1386.0762.0771a2.951,2.951,0,0,1,1.8789-.8315,1.5863,1.5863,0,0,1,1.4775.97.075.075,0,0,0,.1084.0151,2.9459,2.9459,0,0,1,2.0322-.97,1.611,1.611,0,0,1,1.5391,1.1392,4.9537,4.9537,0,0,1,.1846,1.4321c.0156.5078.0469,1.7241.0615,2.2475s.17.6158.4473.6622c.1533.0463.2461.1079.2461.1386,0,.0767-.0928.1387-.293.1387-.169,0-.8-.0464-1.1543-.0464-.3691,0-.9238.0615-1.1543.0615-.2,0-.2773-.0307-.2773-.1079s.123-.123.23-.1538c.3233-.0771.416-.2461.416-.6929a21.0509,21.0509,0,0,0-.1074-3.0327c-.1387-.7856-.539-1.0473-1.14-1.0473a1.474,1.474,0,0,0-.9395.4.5452.5452,0,0,0-.0615.3081c.0928.6006.0928,3.0175.1084,3.4331.0459.4311.0918.5234.4307.6162.1543.0615.23.1074.23.1689s-.1074.0928-.23.0928c-.5235,0-.7549-.0464-1.4473-.0464-.3545,0-.7852.0464-.9541.0464-.2158,0-.2627-.0308-.2627-.0928,0-.0459.0625-.1074.2158-.1538.3233-.0771.4619-.2.4619-.57l.0459-2.4634c0-.8159-.0459-1.1391-.3535-1.478a1.1007,1.1007,0,0,0-.7851-.3076,1.2442,1.2442,0,0,0-.878.3383,1.0238,1.0238,0,0,0-.123.2623c-.0156.2-.03.5234-.03,1.185a22.3192,22.3192,0,0,0,.0762,2.6328c.0312.2158.1084.3081.4.3853.17.0615.2314.1074.2314.1538,0,.0771-.1084.1079-.2314.1079-.2774,0-.8623-.0464-1.2315-.0464-.6465,0-.9238.0464-1.2929.0464-.1387,0-.2471-.0464-.2471-.1079,0-.0772.0928-.1079.2773-.1538.3848-.0928.4776-.231.4932-.5083.03-.2461.0459-2.0938.0459-2.648,0-.3852.0156-.7851-.0156-1.0317,0-.1538-.0772-.2925-.3077-.4619-.0927-.0772-.123-.1079-.123-.1846Z"/><path class="cls-4" d="M113.3252,86.326a6.9682,6.9682,0,0,0,1.5088-.4619,1.3393,1.3393,0,0,1,.2314-.0923c.0459,0,.0762.0464.0616.2158-.0313.3233-.0313,1.1084-.0313,1.7549,0,1.7246,0,2.956.0313,3.187a.4649.4649,0,0,0,.415.4775c.17.0459.2158.0923.2158.1539,0,.0771-.1074.1079-.2314.1079-.2618,0-.6153-.0772-1.2618-.0772-.6777,0-1.0322.0308-1.2011.0308-.1387,0-.2617-.0464-.2617-.1079,0-.0767.0927-.1075.2773-.1382.4-.0928.5078-.293.5078-.8316,0-.4619.0459-3.1406.0459-3.2949,0-.2925,0-.354-.4-.6313-.0762-.0616-.123-.1075-.123-.169C113.1094,86.4188,113.1562,86.3724,113.3252,86.326Zm1.832-2.4478a.7371.7371,0,0,1-.7539.77.6969.6969,0,0,1-.6474-.708.7365.7365,0,0,1,.7236-.7852A.724.724,0,0,1,115.1572,83.8782Z"/><path class="cls-4" d="M121.624,86.3724a2.73,2.73,0,0,1,.5391,1.94c.0156.8931.0312,1.0469.0312,1.9092.0157.9546.0918,1.0776.5078,1.1855.0772.0308.169.0616.169.1382,0,.062-.0762.0928-.2149.0928-.3544,0-.8623-.0464-1.17-.0464a12.1232,12.1232,0,0,0-1.2783.0615c-.1543,0-.2617-.0459-.2617-.1079s.0928-.1074.2305-.1382c.416-.1235.4931-.2309.4931-.5854V88.5584c0-1.1855-.0928-1.5088-.4619-1.8013a1.2264,1.2264,0,0,0-.7236-.2153,1.3838,1.3838,0,0,0-.8311.2925.4621.4621,0,0,0-.1543.3232c0,.2925.0156,1.0161.0156,1.8013.0157.9546.0459,1.7246.0616,1.9092a.52.52,0,0,0,.4306.5234c.1846.0464.2471.0772.2471.1538,0,.0928-.17.1079-.2773.1079-.1543,0-1.0323-.0615-1.3858-.0615-.2,0-.6006.0308-1.0625.0308-.1689,0-.2929-.0464-.2929-.1231,0-.0615.1386-.123.2773-.1538.4316-.0771.4619-.2.4775-.5547.0313-.8925.0459-2.2324.0459-3.6489,0-.1538-.0459-.2768-.3535-.4927-.1387-.0923-.123-.123-.123-.1538,0-.0459.0761-.0923.2148-.123a7.8545,7.8545,0,0,0,1.6318-.6314c.0469-.0151.1241.0464.1241.1231a5.9687,5.9687,0,0,0-.0313.77c0,.0308.0459.0464.0772.0151a4.4175,4.4175,0,0,1,.9082-.6,2.2331,2.2331,0,0,1,.9082-.2A1.5932,1.5932,0,0,1,121.624,86.3724Z"/><path class="cls-4" d="M127.3691,86.48a2.7673,2.7673,0,0,1,.3848,1.54c0,.7388-.0312,2.0323-.0312,2.4327a.4984.4984,0,0,0,.5087.4926.8384.8384,0,0,0,.4307-.1235c.0615-.0459.1231.062.0772.1543a1.5761,1.5761,0,0,1-1.4161.8,1.1121,1.1121,0,0,1-1.0322-.7236c0-.0152-.0459-.0308-.0771-.0152a1.9624,1.9624,0,0,1-1.4932.708,1.326,1.326,0,0,1-1.2471-1.3852,1.1064,1.1064,0,0,1,.5694-.9546c.4-.2,1.6787-.5239,2.0947-.6929a.3092.3092,0,0,0,.2-.2309,6.1954,6.1954,0,0,0,.0146-.7393,1.3692,1.3692,0,0,0-.3388-1.1084.943.943,0,0,0-.6-.2617,1.1613,1.1613,0,0,0-.5391.1386.3793.3793,0,0,0-.1543.2618c0,.0766.0156.3076.0156.4463a.2751.2751,0,0,1-.0927.123,5.3622,5.3622,0,0,1-.9385.4927.1851.1851,0,0,1-.1856-.169,1.2614,1.2614,0,0,1,.4-.6469,4.2645,4.2645,0,0,1,1.1709-.8467,2.6214,2.6214,0,0,1,1.0313-.3233A1.4832,1.4832,0,0,1,127.3691,86.48Zm-1.247,4.3721a.6407.6407,0,0,0,.1386-.3077,14.8888,14.8888,0,0,0,.0772-1.54c0-.0156-.0313-.1079-.0928-.0923a5.2472,5.2472,0,0,0-.9853.3848.8379.8379,0,0,0-.4463.8.8759.8759,0,0,0,.831.9394A.6154.6154,0,0,0,126.1221,90.8524Z"/><path class="cls-4" d="M134.4062,86.3724a2.7344,2.7344,0,0,1,.5391,1.94c.0156.8931.03,1.0469.03,1.9092.0156.9546.0928,1.0776.5088,1.1855.0761.0308.1689.0616.1689.1382,0,.062-.0771.0928-.2158.0928-.3535,0-.8623-.0464-1.17-.0464a12.0912,12.0912,0,0,0-1.2774.0615c-.1543,0-.2627-.0459-.2627-.1079s.0928-.1074.2315-.1382c.416-.1235.4922-.2309.4922-.5854V88.5584c0-1.1855-.0918-1.5088-.461-1.8013a1.23,1.23,0,0,0-.7236-.2153,1.3842,1.3842,0,0,0-.832.2925.461.461,0,0,0-.1534.3232c0,.2925.0147,1.0161.0147,1.8013.0156.9546.0469,1.7246.0615,1.9092a.52.52,0,0,0,.4317.5234c.1845.0464.2461.0772.2461.1538,0,.0928-.169.1079-.2774.1079-.1533,0-1.0312-.0615-1.3857-.0615-.2,0-.6006.0308-1.0616.0308-.17,0-.2929-.0464-.2929-.1231,0-.0615.1386-.123.2773-.1538.4307-.0771.4619-.2.4766-.5547.0312-.8925.0469-2.2324.0469-3.6489,0-.1538-.0469-.2768-.3545-.4927-.1387-.0923-.1231-.123-.1231-.1538,0-.0459.0772-.0923.2158-.123a7.8579,7.8579,0,0,0,1.6319-.6314c.0459-.0151.123.0464.123.1231a5.9966,5.9966,0,0,0-.03.77c0,.0308.0459.0464.0762.0151a4.4228,4.4228,0,0,1,.9092-.6,2.23,2.23,0,0,1,.9082-.2A1.5932,1.5932,0,0,1,134.4062,86.3724Z"/><path class="cls-4" d="M136.9629,91.0374a1.9191,1.9191,0,0,1-.1846-.9546V86.9266a.2659.2659,0,0,0-.1074-.2617,1.0373,1.0373,0,0,0-.2461-.0923c-.124-.0308-.2-.0772-.2-.1538,0-.0464.0762-.1236.2461-.2159A5.086,5.086,0,0,0,137.918,85.11c.23-.231.3388-.1695.3388-.0923,0,.1079-.0312.7544-.0156.8774,0,.0464.0156.1543.0772.1543.292-.0156,1.3242-.0464,1.57-.0307a.3006.3006,0,0,1,.123.2768c0,.3389-.1074.354-.1689.354h-1.3555c-.1846,0-.2158.062-.2158.1387,0,.3389-.0147,2.8022,0,3.2026a1.1009,1.1009,0,0,0,.17.708.9508.9508,0,0,0,.7393.3389,1.2383,1.2383,0,0,0,.708-.185c.1533-.0923.2-.0459.2,0,0,.0927-.0772.2158-.3233.416a2.1207,2.1207,0,0,1-1.3857.4619A1.5109,1.5109,0,0,1,136.9629,91.0374Z"/><path class="cls-4" d="M141.9375,86.9266c0,.6006.5234.893,1.1543,1.2934.9707.6465,1.34,1.0469,1.34,1.8321a1.7169,1.7169,0,0,1-.708,1.2934,3.0129,3.0129,0,0,1-1.5088.4307,4.268,4.268,0,0,1-1.34-.2617c-.1074-.0459-.2617-.1846-.2617-.2925-.0156-.2153-.0615-.6929-.0772-.8467-.0146-.2.0157-.3081.0772-.3081.0469,0,.1084.0464.2.3237a1.94,1.94,0,0,0,.6465.9234,1.1427,1.1427,0,0,0,.77.2.9217.9217,0,0,0,.9238-.8619c0-.4467-.3242-.77-1.1094-1.2626a2.2855,2.2855,0,0,1-1.247-1.8013,1.5837,1.5837,0,0,1,.7548-1.37,2.31,2.31,0,0,1,1.3086-.37,3.5528,3.5528,0,0,1,1.2012.2.2042.2042,0,0,1,.0918.1538c0,.1539.0615.4312.0771.8316.0157.1694-.03.2461-.0918.2461s-.0927-.0767-.1386-.2a1.4125,1.4125,0,0,0-.3848-.708,1.285,1.285,0,0,0-.8008-.2774A.8874.8874,0,0,0,141.9375,86.9266Z"/><path class="cls-4" d="M57.0391,103.1419a7.71,7.71,0,0,0,1.1084-.4.6307.6307,0,0,1,.2314-.1084c.0459,0,.0772.0469.0615.2158-.0312.3077-.0312,1.2471-.0312,2.2325,0,1.2929,0,2.4326.0312,2.6943.03.3076.1846.3848.4307.4463.1543.0312.2314.0615.2314.123,0,.0772-.123.1084-.2461.1084-.1386,0-.7089-.0615-1.124-.0615-.5088,0-.7549.03-.9238.03-.1084,0-.2158-.03-.2158-.0918s.0771-.1084.2929-.1387c.3379-.0928.4766-.2158.4922-.8467.0157-.4619.0459-3.2646.0459-3.4179,0-.2159-.0146-.3086-.4463-.5391-.0771-.0459-.123-.0928-.123-.123C56.8545,103.2181,56.9,103.1722,57.0391,103.1419Zm1.54-2.51a.5864.5864,0,0,1-.57.585.5484.5484,0,0,1-.5078-.5693.5709.5709,0,0,1,.539-.6006A.5629.5629,0,0,1,58.5791,100.6321Z"/><path class="cls-4" d="M64.7383,103.2181a3.2085,3.2085,0,0,1,.4922,2.0176c0,.8154.0156.9384.0156,1.7089.0156,1.0469.0615,1.1387.4775,1.2471.1387.0615.23.0918.23.1533,0,.0928-.123.1084-.2764.1084-.2,0-.6474-.0615-.9853-.0615-.5235,0-.7236.0615-.9551.0615-.1387,0-.2461-.0312-.2461-.0927s.0928-.1231.292-.169c.37-.0928.4316-.2.4316-.6465v-2.0937c0-1.2481-.1074-1.6172-.4931-1.9092a1.3636,1.3636,0,0,0-.877-.293,1.8419,1.8419,0,0,0-1.2011.4932.7969.7969,0,0,0-.1846.4609c0,.1856.0156.9707.0156,1.8946a12.6523,12.6523,0,0,0,.0918,1.6162c.0469.3388.2315.416.4775.4931.1846.0459.2618.0762.2618.1534,0,.0927-.1543.0927-.3077.0927-.123,0-.8779-.0615-1.2324-.0615-.2,0-.5234.03-.8154.03-.17,0-.293-.03-.293-.1074,0-.0616.1387-.1231.3233-.1543.3847-.0772.4472-.1846.4619-.4922.0312-1.1084.0312-2.5254.0312-3.7725,0-.1533-.0312-.3232-.4-.5234-.0927-.0615-.123-.0918-.123-.1387,0-.03.0771-.0771.2158-.123a5.75,5.75,0,0,0,1.2158-.5235c.0459-.0156.1231.0459.1075.1231a7.0767,7.0767,0,0,0-.03.8164c0,.03.0459.0771.0771.0459a5.3105,5.3105,0,0,1,1.0928-.6924,2.0778,2.0778,0,0,1,.9082-.1856A1.574,1.574,0,0,1,64.7383,103.2181Z"/><path class="cls-4" d="M74.9023,105.6048a2.9485,2.9485,0,0,1-2.9257,2.9717,2.936,2.936,0,0,1-1.878-5.2344,3.16,3.16,0,0,1,1.8477-.6475A2.89,2.89,0,0,1,74.9023,105.6048Zm-4.8037-.2158a3.52,3.52,0,0,0,.6465,2.1094,1.8278,1.8278,0,0,0,1.4473.8164,1.5257,1.5257,0,0,0,.97-.3848,3.071,3.071,0,0,0,.6465-2.0635c0-1.4629-.7393-2.91-2.0938-2.91C70.93,102.9564,70.0986,103.7884,70.0986,105.389Z"/><path class="cls-4" d="M76.6582,107.9759a1.6121,1.6121,0,0,1-.292-.9395c0-.5078,0-3.1093-.0312-3.3711a.6.6,0,0,0-.3389-.5087c-.1387-.0918-.1846-.1377-.1846-.1846s.0772-.0772.2461-.0772a5.3812,5.3812,0,0,0,1.294-.2c.0459-.0146.0918.0772.0771.17-.0469.8779-.0625,2.9716-.0469,3.68a1.6969,1.6969,0,0,0,.2315,1.0156,1.13,1.13,0,0,0,.8623.3857,1.7286,1.7286,0,0,0,1.3086-.4931.942.942,0,0,0,.2763-.7081c.0313-.416.0313-1.0166.0313-1.57,0-.2314-.0156-.955-.0156-1.3554-.0157-.5235-.169-.6006-.6768-.708-.17-.03-.2471-.0772-.2471-.1231,0-.0615.1387-.0928.2315-.0928H80.03a8.22,8.22,0,0,0,1.0625-.0918c.0459,0,.0771.0616.0615.169-.0772.7236-.1084,2.2637-.1084,4.05a5.0852,5.0852,0,0,0,.0312.7851c.0313.1534.0772.1846.2.169a4.4043,4.4043,0,0,1,.6309-.1387.1858.1858,0,0,1,.1856.17c0,.0616-.1387.0918-.293.1231a6.9192,6.9192,0,0,0-1.586.415c-.123.0616-.1543.0469-.1845,0s-.0313-.123-.0313-.292c0-.1543.0156-.4931.0156-.6006,0-.0458-.0156-.1542-.0458-.1074a4.4151,4.4151,0,0,1-1.0626.7539,2.6329,2.6329,0,0,1-.9082.2315A1.5132,1.5132,0,0,1,76.6582,107.9759Z"/><path class="cls-4" d="M84.4043,103.8187a.89.89,0,0,0-.2617.539,9.0525,9.0525,0,0,0-.0147.94c0,1.14.03,1.9394.0616,2.2627.0615.4775.246.5849.831.6474.2158.03.293.0616.293.1377s-.1387.1084-.37.1084c-.292,0-.8008-.0615-1.4473-.0615a8.3475,8.3475,0,0,0-.9385.0918c-.1855,0-.2617-.03-.2617-.0918,0-.0469.1074-.123.23-.1543a.6378.6378,0,0,0,.5547-.6308c.03-.2618.0459-1.14.0459-2.1553v-1.709c0-.1084-.1084-.1543-.4-.4-.1075-.0771-.1231-.124-.1231-.1543s.0918-.0928.2305-.1387a4.647,4.647,0,0,0,.9853-.3691.49.49,0,0,1,.2315-.0772c.03,0,.0615.0616.0615.2159,0,.1689-.0156.7539-.0156,1,0,.0468.0312.0615.0771.0156a2.5113,2.5113,0,0,1,1.6631-1.1084.8935.8935,0,0,1,.5381.2.2694.2694,0,0,1,.1084.2158,1.0593,1.0593,0,0,1-.3389.5234c-.1386.1231-.2.1387-.2461.1387a.688.688,0,0,1-.2773-.1084,1.0818,1.0818,0,0,0-.5391-.1846A1.0541,1.0541,0,0,0,84.4043,103.8187Z"/><path class="cls-4" d="M89.2559,98.6771c.3535.0151,1.2929.0615,1.7861.0615.0615,0,.1377.0615.2.2153.6611,1.4629,2.832,5.7739,3.8027,7.59.0459.0917.0762.03.1387-.0616.9082-1.74,2.8633-5.5429,3.2324-6.2968a12.6675,12.6675,0,0,0,.4619-1.2471c.0157-.0308.0772-.2.1543-.2.4307,0,1.2471-.0923,1.6778-.0923.1543,0,.247.0308.247.0923s-.123.123-.2314.1387c-.9082.2153-.97.3847-1.0156,1.2929-.0313.5235-.0469,2.3711-.0469,3.1407,0,1.6787.0615,3.2021.0928,3.6953.0615.8925.23,1.0312.831,1.2158.1387.0469.2471.0928.2471.17,0,.0615-.0928.0918-.2774.0918-.2929,0-1.124-.0918-1.54-.0918-.6309,0-1.0469.03-1.2773.03-.1543,0-.3233-.0147-.3233-.1231,0-.0615.1533-.123.3076-.1386.6465-.169.7539-.4151.8008-1.6934.0459-.8311.0459-4.957.0459-5.65,0-.1543-.0459-.1543-.0771-.0615-1.0313,2.0635-2.9248,5.7578-3.6641,7.4053-.0771.1845-.1387.2773-.2314.2773-.0762,0-.1846-.2461-.3233-.5391-.7236-1.5546-2.77-5.8349-3.3564-7.02-.0762-.1386-.1075-.1386-.1377.0772-.0615.8926-.2315,4.8808-.2315,5.5117a3.8491,3.8491,0,0,0,.0928,1.124.9028.9028,0,0,0,.7852.6162c.1689.03.2617.0918.2617.1534,0,.0927-.1387.123-.3086.1084-.1846-.0157-.7383-.0772-1.293-.0772s-.97.0918-1.124.0918c-.2,0-.2774-.03-.2774-.1074,0-.0459.0625-.1074.2774-.1543a1.1571,1.1571,0,0,0,.832-.4922,4.426,4.426,0,0,0,.3233-1.6631c.0918-.9082.3076-4.3262.3076-5.3115,0-.9234-.0928-1.1392-.3545-1.4468a1.3081,1.3081,0,0,0-.8467-.4c-.1387-.0307-.2461-.0923-.2461-.1543S89.1172,98.6614,89.2559,98.6771Z"/><path class="cls-4" d="M110.5518,99.2156a.2758.2758,0,0,1,.1543.2618,11.6126,11.6126,0,0,0,.0459,1.185c0,.1543-.0616.2471-.0928.2471-.0615,0-.1074-.0772-.1387-.2a2.4065,2.4065,0,0,0-.7383-1.2319,3.5314,3.5314,0,0,0-2.3564-.77,3.7151,3.7151,0,0,0-2.6787,1.2007,5.559,5.559,0,0,0-1.17,3.5723,5.8369,5.8369,0,0,0,1.417,3.7256,3.6758,3.6758,0,0,0,2.6319,1.1386,3.2709,3.2709,0,0,0,1.833-.4306,2.7638,2.7638,0,0,0,1.1855-1.5088c.0616-.2.0918-.2617.1534-.2617s.0927.1386.0927.23a10.8048,10.8048,0,0,1-.2158,1.2168.4059.4059,0,0,1-.1543.2305,5.5852,5.5852,0,0,1-3.0019.8477,5.2974,5.2974,0,0,1-4.003-1.6329,5.3853,5.3853,0,0,1-1.2929-3.4023,4.909,4.909,0,0,1,1.7236-3.895,5.5361,5.5361,0,0,1,3.5879-1.2779A7.1133,7.1133,0,0,1,110.5518,99.2156Z"/><path class="cls-4" d="M112.2783,98.6614c.4776,0,.97.0772,1.3858.0772.4765,0,.9082-.0615,1.2617-.0615.1855,0,.2471.0307.2471.0766,0,.0772-.0928.1236-.2159.1543-.6308.1231-.6621.2154-.708,1.2779-.0156.2617-.0312,1.6777-.0312,3.0791,0,1.4628.0156,3.0019.0312,3.2949a2.84,2.84,0,0,0,.2158,1.2158c.169.2314.585.3848,1.8321.3848a6.7634,6.7634,0,0,0,1.3545-.0772c.3388-.0615.6777-.4463.9853-1,.1074-.1855.1846-.2471.2461-.2471s.0469.2315-.03.4317c-.0468.123-.3388.97-.4,1.0771a.3645.3645,0,0,1-.3232.1543c-.1543,0-1.3242.0157-2.0791-.03-.77-.0313-1.8779-.0772-2.417-.0772-.4775,0-1.17.0772-1.3857.0772-.1846,0-.3233-.0157-.3233-.1084,0-.0616.1387-.1075.2774-.1231.6621-.123.7539-.3389.8008-.8154.0615-.6162.0615-1.6328.0615-3.7569,0-2.0937-.0156-3.1562-.0459-3.68-.0469-.8775-.0928-.97-.7549-1.0933-.1846-.0308-.23-.0767-.23-.1387C112.0322,98.7078,112.124,98.6614,112.2783,98.6614Z"/><path class="cls-4" d="M123.458,102.8489c.1387,0,.2617.0313.2617.1075,0,.0468-.1543.1084-.2617.124-.3691.0615-.3545.2-.292.4463.2305.708.8926,2.4629,1.2471,3.3252.0146.0459.0762.0615.0918.0156.2461-.5234.9238-2.0166,1.0781-2.417.0147-.0771.0615-.1846.03-.2617-.0772-.2-.1846-.4463-.2617-.6319a.8206.8206,0,0,0-.585-.5078c-.1387-.03-.2158-.0615-.2158-.123s.0771-.0928.2314-.0928c.3233,0,.7237.0469,1.0469.0469.4463,0,.6309-.0313.9082-.0313.17,0,.2315.0313.2315.0772,0,.0615-.1084.123-.2315.1543-.3535.0762-.4463.1377-.2617.6152.17.4776.9853,2.71,1.2012,3.1875.0459.0772.0771.0147.0771,0,.1846-.4.9238-2.1553,1.1084-2.68a3.4969,3.4969,0,0,0,.2461-.7383c0-.1386-.0615-.2773-.4619-.3847-.2-.0615-.2461-.1084-.2461-.1543,0-.0615.0918-.0928.2-.0928.2617,0,.539.0469.7851.0469.1534,0,.5391-.0469.77-.0469.1386,0,.2158.0313.2158.0928s-.0459.0928-.2773.1543c-.2774.0762-.462.292-.6622.708-.2773.5537-.7392,1.6162-1.2158,2.71-.2617.6308-.539,1.3085-.7236,1.8007-.0928.2461-.1543.293-.2.293-.0615,0-.1084-.0615-.17-.2773-.0772-.2159-.1846-.5235-.3692-1.0469-.2929-.8311-.6162-1.709-.9238-2.5254-.0156-.0459-.0459-.0772-.0771,0-.1387.293-.7852,1.709-1.001,2.248-.2305.5079-.3692.8623-.5381,1.3086-.0772.2159-.1543.293-.2158.293s-.1084-.1084-.1543-.2773c-.0772-.2159-.169-.585-.4307-1.3243-.2773-.7539-1.1553-3.0332-1.3242-3.3252a.8773.8773,0,0,0-.6777-.6c-.1231-.0313-.2149-.0772-.2149-.1231,0-.0928.1074-.123.2764-.123.2,0,.6621.0615,1.0937.0615C122.8418,102.88,123.15,102.8489,123.458,102.8489Z"/><path class="cls-4" d="M134.19,103.4808a3.71,3.71,0,0,1,.2158,1.4c0,.57-.0458,2.0322-.0458,2.4326a.5272.5272,0,0,0,.5693.5849.9737.9737,0,0,0,.4463-.1386c.0928-.0459.1543,0,.0928.1386a1.2971,1.2971,0,0,1-1.1856.6622,1.0347,1.0347,0,0,1-.9082-.6924.0533.0533,0,0,0-.0771-.0157,2.1562,2.1562,0,0,1-1.5088.6924,1.2767,1.2767,0,0,1-1.2315-1.3232,1.0845,1.0845,0,0,1,.5537-.8779c.37-.2,1.77-.6163,2.0938-.7393a.2907.2907,0,0,0,.2-.23,5.1659,5.1659,0,0,0,.0312-.709c0-.6308-.1084-1.0615-.37-1.2617a1.1692,1.1692,0,0,0-.6465-.247,1.0593,1.0593,0,0,0-.6152.1855.6143.6143,0,0,0-.2315.3691,1.57,1.57,0,0,0-.0156.293.19.19,0,0,1-.0615.1231,3.3134,3.3134,0,0,1-.7236.3388c-.0762.0147-.1534-.0771-.1534-.1386,0-.1084.1075-.2471.292-.462a4.017,4.017,0,0,1,1.17-.8935,2.0692,2.0692,0,0,1,.9238-.2774A1.262,1.262,0,0,1,134.19,103.4808Zm-1.0312,4.2334a.6331.6331,0,0,0,.1689-.3692,10.9109,10.9109,0,0,0,.0772-1.4629c0-.0156-.03-.0927-.0615-.0771a8.7438,8.7438,0,0,0-1.4161.5234.7975.7975,0,0,0-.3847.77.8937.8937,0,0,0,.9238.8623A1.052,1.052,0,0,0,133.1592,107.7142Z"/><path class="cls-4" d="M136.5176,107.8216a1.73,1.73,0,0,1-.1856-.877v-3.1875c0-.1689-.0146-.2763-.0761-.3076a2.54,2.54,0,0,0-.37-.0927c-.123-.03-.2-.0762-.2-.1387,0-.03.0157-.0762.1856-.1533a3.2832,3.2832,0,0,0,1.2617-1.0313c.1387-.1543.2471-.124.2471-.0469,0,.1387-.0313.57-.0156.7549,0,.0459.0156.1387.0771.1387.2764,0,1.5547-.0469,1.8779-.0469.0313,0,.0928.1084.0928.2158,0,.2618-.0771.3848-.1543.3848-.539,0-1.293-.0156-1.709-.0156-.1845,0-.2158.0468-.2158.1386,0,.2618.0156,2.68.0313,3.1563a1.5789,1.5789,0,0,0,.1689.832,1.1407,1.1407,0,0,0,.9551.4151,1.5121,1.5121,0,0,0,.8467-.2305c.1074-.0772.1533-.0615.1533,0,0,.0918-.1377.2461-.3379.4a2.1147,2.1147,0,0,1-1.2471.4A1.4254,1.4254,0,0,1,136.5176,107.8216Z"/><path class="cls-4" d="M144.54,104.2659a.1814.1814,0,0,1-.1543.169c-.123-.0156-2.125-.0459-2.4785-.0459h-.832c-.03,0-.1074.0771-.1387.123a2.1322,2.1322,0,0,0-.123.8467,2.7661,2.7661,0,0,0,.708,1.8633,2.0809,2.0809,0,0,0,1.54.6308,1.9661,1.9661,0,0,0,1.4629-.4931c.1231-.1231.1846-.0918.1846-.0147a.58.58,0,0,1-.1543.2461,2.7185,2.7185,0,0,1-2.14.97,2.4837,2.4837,0,0,1-1.832-.7852,3.0082,3.0082,0,0,1-.7392-2.0625,3.2075,3.2075,0,0,1,.8925-2.2481,2.8661,2.8661,0,0,1,1.9248-.7705A1.7779,1.7779,0,0,1,144.54,104.2659Zm-3.1416-.7851a1.351,1.351,0,0,0-.3232.6308.067.067,0,0,0,.0615.0616l2.002-.0157c.3388,0,.3691-.1689.3691-.3076a.9921.9921,0,0,0-.2148-.6465,1.0779,1.0779,0,0,0-.77-.2929A1.5986,1.5986,0,0,0,141.3984,103.4808Z"/><path class="cls-4" d="M147.2656,103.8187a.89.89,0,0,0-.2617.539,9.0561,9.0561,0,0,0-.0146.94c0,1.14.03,1.9394.0615,2.2627.0615.4775.2461.5849.831.6474.2159.03.293.0616.293.1377s-.1387.1084-.37.1084c-.292,0-.8008-.0615-1.4473-.0615a8.3475,8.3475,0,0,0-.9385.0918c-.1855,0-.2617-.03-.2617-.0918,0-.0469.1074-.123.2305-.1543a.6378.6378,0,0,0,.5547-.6308c.03-.2618.0459-1.14.0459-2.1553v-1.709c0-.1084-.1084-.1543-.4-.4-.1074-.0771-.1231-.124-.1231-.1543s.0918-.0928.2305-.1387a4.6479,4.6479,0,0,0,.9854-.3691.4892.4892,0,0,1,.2314-.0772c.03,0,.0615.0616.0615.2159,0,.1689-.0156.7539-.0156,1,0,.0468.0313.0615.0772.0156a2.5109,2.5109,0,0,1,1.663-1.1084.8935.8935,0,0,1,.5381.2.2691.2691,0,0,1,.1084.2158,1.06,1.06,0,0,1-.3388.5234c-.1387.1231-.2.1387-.2461.1387a.6881.6881,0,0,1-.2774-.1084,1.0818,1.0818,0,0,0-.539-.1846A1.0542,1.0542,0,0,0,147.2656,103.8187Z"/><path class="cls-4" d="M57.5479,124.6224a1.7339,1.7339,0,0,1-.1856-.878v-3.1865c0-.17-.0146-.2773-.0762-.3086a2.5681,2.5681,0,0,0-.37-.0918c-.123-.0312-.2-.0771-.2-.1386,0-.0313.0156-.0772.1856-.1543a3.2755,3.2755,0,0,0,1.2617-1.0313c.1387-.1543.2471-.123.2471-.0459,0,.1377-.0313.5694-.0157.7539,0,.0459.0157.1387.0772.1387.2763,0,1.5547-.0459,1.8779-.0459.0313,0,.0928.1074.0928.2148,0,.2618-.0772.3848-.1543.3848-.5391,0-1.293-.0146-1.709-.0146-.1846,0-.2158.0459-.2158.1386,0,.2617.0156,2.6787.0312,3.1563a1.5779,1.5779,0,0,0,.169.831,1.1414,1.1414,0,0,0,.9551.416,1.5019,1.5019,0,0,0,.8466-.2314c.1075-.0771.1534-.0615.1534,0,0,.0928-.1377.2461-.3379.4a2.1147,2.1147,0,0,1-1.2471.4A1.4263,1.4263,0,0,1,57.5479,124.6224Z"/><path class="cls-4" d="M65.57,121.0657a.18.18,0,0,1-.1543.169c-.123-.0156-2.124-.0459-2.4785-.0459h-.8311c-.0312,0-.1084.0771-.1386.123a2.1147,2.1147,0,0,0-.1231.8467,2.7593,2.7593,0,0,0,.708,1.8633,2.08,2.08,0,0,0,1.54.6308,1.9661,1.9661,0,0,0,1.4619-.4921c.123-.1231.1846-.0928.1846-.0157a.5856.5856,0,0,1-.1534.2461,2.7219,2.7219,0,0,1-2.1406.97,2.4837,2.4837,0,0,1-1.832-.7852,3.0077,3.0077,0,0,1-.7383-2.0625,3.2089,3.2089,0,0,1,.8926-2.248,2.865,2.865,0,0,1,1.9248-.77A1.7761,1.7761,0,0,1,65.57,121.0657Zm-3.1406-.7851a1.35,1.35,0,0,0-.3233.6308.0654.0654,0,0,0,.0616.0616l2.0009-.0157c.3389,0,.37-.1689.37-.3076a.993.993,0,0,0-.2159-.6465,1.0771,1.0771,0,0,0-.77-.2929A1.5984,1.5984,0,0,0,62.43,120.2806Z"/><path class="cls-4" d="M67.5732,120.681c0,.6465.585,1.0156.97,1.247,1.0009.6465,1.4,1.0313,1.4,1.8164a1.5794,1.5794,0,0,1-.8,1.293,2.5573,2.5573,0,0,1-1.2325.3389,3.123,3.123,0,0,1-1.2158-.2774c-.123-.0459-.2314-.1533-.2314-.2461,0-.2158-.03-.6-.0459-.77-.03-.2.0156-.2461.0459-.2461.0468,0,.0927,0,.2.292a1.5079,1.5079,0,0,0,.6474.832,1.1807,1.1807,0,0,0,.6924.1846,1.0562,1.0562,0,0,0,1.001-1.0322c0-.585-.4-.9082-1.0166-1.293-.6621-.4306-1.2774-1.001-1.2774-1.6777a1.4594,1.4594,0,0,1,.585-1.2168,1.9921,1.9921,0,0,1,1.293-.4307,3.7631,3.7631,0,0,1,1.0468.169.25.25,0,0,1,.0772.1386c.0156.169.0771.4776.0928.7237,0,.1689-.0313.2461-.0772.2461-.0615,0-.0928-.0772-.1387-.1846a1.1722,1.1722,0,0,0-.3691-.6309,1.2682,1.2682,0,0,0-.7236-.2314A.897.897,0,0,0,67.5732,120.681Z"/><path class="cls-4" d="M71.5459,124.6224a1.7357,1.7357,0,0,1-.1846-.878v-3.1865c0-.17-.0156-.2773-.0771-.3086a2.55,2.55,0,0,0-.3692-.0918c-.123-.0312-.2-.0771-.2-.1386,0-.0313.0157-.0772.1846-.1543a3.2834,3.2834,0,0,0,1.2627-1.0313c.1387-.1543.2461-.123.2461-.0459,0,.1377-.03.5694-.0156.7539,0,.0459.0156.1387.0771.1387.2774,0,1.5547-.0459,1.8789-.0459.03,0,.0918.1074.0918.2148,0,.2618-.0771.3848-.1543.3848-.5381,0-1.2929-.0146-1.709-.0146-.1845,0-.2148.0459-.2148.1386,0,.2617.0156,2.6787.03,3.1563a1.5743,1.5743,0,0,0,.17.831,1.1383,1.1383,0,0,0,.9541.416,1.5,1.5,0,0,0,.8467-.2314c.1084-.0771.1543-.0615.1543,0,0,.0928-.1387.2461-.3389.4a2.1124,2.1124,0,0,1-1.2471.4A1.4274,1.4274,0,0,1,71.5459,124.6224Z"/><path class="cls-4" d="M76.2275,120.681c0,.6465.585,1.0156.97,1.247,1.0009.6465,1.4013,1.0313,1.4013,1.8164a1.58,1.58,0,0,1-.8007,1.293,2.5566,2.5566,0,0,1-1.2315.3389,3.1237,3.1237,0,0,1-1.2168-.2774c-.123-.0459-.23-.1533-.23-.2461,0-.2158-.0312-.6-.0459-.77-.0312-.2.0147-.2461.0459-.2461.0459,0,.0928,0,.2.292a1.5028,1.5028,0,0,0,.6465.832,1.1837,1.1837,0,0,0,.6934.1846,1.0554,1.0554,0,0,0,1-1.0322c0-.585-.4-.9082-1.0156-1.293-.6622-.4306-1.2784-1.001-1.2784-1.6777a1.4594,1.4594,0,0,1,.585-1.2168,1.995,1.995,0,0,1,1.2939-.4307,3.7771,3.7771,0,0,1,1.0469.169.2558.2558,0,0,1,.0772.1386c.0146.169.0761.4776.0918.7237,0,.1689-.03.2461-.0772.2461-.0615,0-.0918-.0772-.1387-.1846a1.166,1.166,0,0,0-.3691-.6309,1.2633,1.2633,0,0,0-.7236-.2314A.8975.8975,0,0,0,76.2275,120.681Z"/><path class="cls-4" d="M80.9707,125.1146a1.6209,1.6209,0,0,1-1.34,1.5088c-.0918.0156-.169,0-.169-.0459s.0615-.0772.1387-.1075a1.1737,1.1737,0,0,0,.8154-1.0625.4531.4531,0,0,0-.4-.4619c-.2617-.0615-.4922-.1387-.4922-.4775a.543.543,0,0,1,.5547-.5078C80.5547,123.96,80.9707,124.4066,80.9707,125.1146Z"/><path class="cls-4" d="M84.8047,124.6224a1.7347,1.7347,0,0,1-.1846-.878v-3.1865c0-.17-.0156-.2773-.0771-.3086a2.5537,2.5537,0,0,0-.3692-.0918c-.123-.0312-.2-.0771-.2-.1386,0-.0313.0157-.0772.1846-.1543a3.2834,3.2834,0,0,0,1.2627-1.0313c.1387-.1543.2461-.123.2461-.0459,0,.1377-.03.5694-.0156.7539,0,.0459.0156.1387.0771.1387.2774,0,1.5547-.0459,1.8789-.0459.03,0,.0918.1074.0918.2148,0,.2618-.0771.3848-.1543.3848-.5381,0-1.2929-.0146-1.709-.0146-.1845,0-.2148.0459-.2148.1386,0,.2617.0156,2.6787.03,3.1563a1.5743,1.5743,0,0,0,.17.831,1.1383,1.1383,0,0,0,.9541.416,1.5,1.5,0,0,0,.8467-.2314c.1084-.0771.1543-.0615.1543,0,0,.0928-.1387.2461-.3389.4a2.1124,2.1124,0,0,1-1.2471.4A1.4273,1.4273,0,0,1,84.8047,124.6224Z"/><path class="cls-4" d="M89.9482,120.6038a.7726.7726,0,0,0-.1543.5694,30.6811,30.6811,0,0,0,.0772,3.3105.5442.5442,0,0,0,.4932.5234c.23.0459.3378.0772.3378.1534,0,.0468-.0917.0927-.23.0927-.4307,0-.8311-.0615-1.2783-.0615-.4766,0-.708.0615-1,.0615-.17,0-.2471-.03-.2471-.0927s.0615-.0918.2471-.1377c.4462-.1084.5537-.1543.5693-.7393.0459-.6162.0615-2.0322.0615-4.4805,0-2.3252.0313-3.2636,0-3.8486-.0156-.4932-.123-.5391-.4619-.7236-.0615-.0459-.1074-.0772-.1074-.1231s.0918-.0927.2617-.1386a6.3973,6.3973,0,0,0,1.124-.37.3362.3362,0,0,1,.1533-.0615c.0469,0,.0928.1084.0772.3242-.0156.4151-.0772,5.1875-.0615,5.4805,0,.0615.0459.0772.0615.0459a5.0726,5.0726,0,0,1,.9238-.6309,2.4154,2.4154,0,0,1,1.0781-.2617,1.6414,1.6414,0,0,1,1.3858.6924,2.9732,2.9732,0,0,1,.3379,1.6475c.0156,1.1552.0156,2.1093.0312,2.6943,0,.3076.0616.416.5235.4932.2.0459.2461.0761.2461.1377s-.1075.1084-.2461.1084c-.4,0-.6934-.0772-1.1084-.0772-.5235,0-.6465.0615-1.001.0615-.1846,0-.2461-.0459-.2461-.0927,0-.0616.0771-.0918.23-.1231.416-.0918.4463-.2.5088-.6465.03-.3535.0615-1.0312.0615-2.6328a2.4671,2.4671,0,0,0-.2315-1.1543,1.1522,1.1522,0,0,0-1.0625-.5693A1.8585,1.8585,0,0,0,89.9482,120.6038Z"/><path class="cls-4" d="M98.6182,120.2806a3.7134,3.7134,0,0,1,.2158,1.4c0,.57-.0469,2.0322-.0469,2.4326a.5282.5282,0,0,0,.57.5859.9889.9889,0,0,0,.4463-.1386c.0918-.0469.1533,0,.0918.1386a1.2959,1.2959,0,0,1-1.1855.6612,1.0331,1.0331,0,0,1-.9082-.6924.0533.0533,0,0,0-.0772-.0157,2.1511,2.1511,0,0,1-1.5088.6934,1.2775,1.2775,0,0,1-1.2314-1.3242,1.0848,1.0848,0,0,1,.5547-.8779c.3691-.2,1.77-.6153,2.0937-.7393a.2905.2905,0,0,0,.2-.2305,5.3029,5.3029,0,0,0,.03-.708c0-.6318-.1074-1.0625-.3692-1.2627a1.17,1.17,0,0,0-.6464-.2461,1.0612,1.0612,0,0,0-.6163.1846.6125.6125,0,0,0-.23.3691,1.57,1.57,0,0,0-.0156.293.1941.1941,0,0,1-.0616.1231,3.3566,3.3566,0,0,1-.7236.3388c-.0772.0157-.1543-.0771-.1543-.1386,0-.1075.1084-.2461.293-.462a4.005,4.005,0,0,1,1.17-.8935,2.0665,2.0665,0,0,1,.9238-.2764A1.2613,1.2613,0,0,1,98.6182,120.2806Zm-1.0313,4.2334a.64.64,0,0,0,.169-.3692,11.0875,11.0875,0,0,0,.0771-1.4629c0-.0156-.0312-.0918-.0615-.0771a8.7468,8.7468,0,0,0-1.417.5234.7979.7979,0,0,0-.3848.77.8943.8943,0,0,0,.9239.8623A1.0568,1.0568,0,0,0,97.5869,124.514Z"/><path class="cls-4" d="M100.9443,124.6224a1.735,1.735,0,0,1-.1855-.878v-3.1865c0-.17-.0147-.2773-.0762-.3086a2.5681,2.5681,0,0,0-.37-.0918c-.123-.0312-.2-.0771-.2-.1386,0-.0313.0156-.0772.1856-.1543a3.2755,3.2755,0,0,0,1.2617-1.0313c.1386-.1543.247-.123.247-.0459,0,.1377-.0312.5694-.0156.7539,0,.0459.0156.1387.0772.1387.2763,0,1.5547-.0459,1.8779-.0459.0312,0,.0928.1074.0928.2148,0,.2618-.0772.3848-.1543.3848-.5391,0-1.293-.0146-1.709-.0146-.1846,0-.2158.0459-.2158.1386,0,.2617.0156,2.6787.0312,3.1563a1.5769,1.5769,0,0,0,.169.831,1.1412,1.1412,0,0,0,.955.416,1.5023,1.5023,0,0,0,.8467-.2314c.1074-.0771.1533-.0615.1533,0,0,.0928-.1377.2461-.3379.4a2.1144,2.1144,0,0,1-1.247.4A1.4266,1.4266,0,0,1,100.9443,124.6224Z"/><path class="cls-4" d="M111.8457,120.265a2.6781,2.6781,0,0,1,.6318,1.7861,3.1524,3.1524,0,0,1-2.0634,3.0635,2.6749,2.6749,0,0,1-1.1084.2314,3.4588,3.4588,0,0,1-.8926-.123c-.0615-.0157-.1231.0761-.1387.1377a21.3968,21.3968,0,0,0-.0156,2.2793,4.9551,4.9551,0,0,0,.1074,1.2314c.0928.293.3545.3691.77.4307.1387.0468.2149.0771.2149.1386s-.1075.1084-.3077.1084c-.23,0-.7695-.0615-1.3242-.0615-.5078,0-1.0009.1074-1.1855.1074s-.2764-.0459-.2764-.0927c0-.0616.0615-.1075.292-.1534.5391-.1543.6309-.3388.6621-.708.0156-.2627.0459-.9238.0459-2.1093,0-1.57-.03-4.9122-.0459-5.3125-.0312-.6309-.0312-.7237-.3848-.9229-.0927-.0469-.1542-.0928-.1542-.1387,0-.0615.0771-.1084.2-.1386a7.7332,7.7332,0,0,0,1.14-.5391.4158.4158,0,0,1,.2305-.1074c.0312,0,.0615.0459.0615.1377,0,.0771-.03.5244-.03.6621,0,.0312.03.0928.0772.0469a3.0155,3.0155,0,0,1,1.8779-.709A2.267,2.267,0,0,1,111.8457,120.265Zm-1.2314,4.4492a2.82,2.82,0,0,0,.8623-2.2168,2.7735,2.7735,0,0,0-.7393-1.9707,1.6532,1.6532,0,0,0-1.1855-.4619,1.9982,1.9982,0,0,0-1.1241.3076c-.1074.0771-.1533.123-.1689.3388-.0459.3848-.03,2.8174,0,3.1407a1.2159,1.2159,0,0,0,.123.3857,1.7235,1.7235,0,0,0,1.4932.7539A1.1394,1.1394,0,0,0,110.6143,124.7142Z"/><path class="cls-4" d="M119.4072,122.4046a2.9486,2.9486,0,0,1-2.9248,2.9717,2.936,2.936,0,0,1-1.8789-5.2344,3.1617,3.1617,0,0,1,1.8477-.6465A2.8891,2.8891,0,0,1,119.4072,122.4046Zm-4.8037-.2148a3.53,3.53,0,0,0,.6465,2.1093,1.8317,1.8317,0,0,0,1.4473.8155,1.523,1.523,0,0,0,.9707-.3848,3.0693,3.0693,0,0,0,.6465-2.0635c0-1.4619-.7393-2.9092-2.0938-2.9092C115.4346,119.7571,114.6035,120.5882,114.6035,122.19Z"/><path class="cls-4" d="M121.4717,120.681c0,.6465.5849,1.0156.97,1.247,1.001.6465,1.4014,1.0313,1.4014,1.8164a1.58,1.58,0,0,1-.8008,1.293,2.5563,2.5563,0,0,1-1.2315.3389,3.1236,3.1236,0,0,1-1.2167-.2774c-.1231-.0459-.2305-.1533-.2305-.2461,0-.2158-.0313-.6-.0459-.77-.0313-.2.0146-.2461.0459-.2461.0459,0,.0928,0,.2.292a1.5019,1.5019,0,0,0,.6465.832,1.1834,1.1834,0,0,0,.6933.1846,1.0553,1.0553,0,0,0,1-1.0322c0-.585-.4-.9082-1.0156-1.293-.6621-.4306-1.2783-1.001-1.2783-1.6777a1.46,1.46,0,0,1,.5849-1.2168,1.9953,1.9953,0,0,1,1.294-.4307,3.7785,3.7785,0,0,1,1.0469.169.2563.2563,0,0,1,.0771.1386c.0147.169.0762.4776.0918.7237,0,.1689-.03.2461-.0771.2461-.0616,0-.0918-.0772-.1387-.1846a1.1668,1.1668,0,0,0-.3692-.6309,1.2631,1.2631,0,0,0-.7236-.2314A.8975.8975,0,0,0,121.4717,120.681Z"/><path class="cls-4" d="M129.5557,121.0657a.1806.1806,0,0,1-.1543.169c-.1231-.0156-2.1241-.0459-2.4785-.0459h-.8311c-.0313,0-.1084.0771-.1387.123a2.1169,2.1169,0,0,0-.123.8467,2.7593,2.7593,0,0,0,.708,1.8633,2.0794,2.0794,0,0,0,1.54.6308,1.9658,1.9658,0,0,0,1.4619-.4921c.1231-.1231.1846-.0928.1846-.0157a.585.585,0,0,1-.1533.2461,2.7219,2.7219,0,0,1-2.1406.97,2.4837,2.4837,0,0,1-1.8321-.7852,3.0077,3.0077,0,0,1-.7382-2.0625,3.2087,3.2087,0,0,1,.8925-2.248,2.8652,2.8652,0,0,1,1.9248-.77A1.7762,1.7762,0,0,1,129.5557,121.0657Zm-3.1407-.7851a1.351,1.351,0,0,0-.3232.6308.0654.0654,0,0,0,.0615.0616l2.001-.0157c.3389,0,.37-.1689.37-.3076a.9934.9934,0,0,0-.2158-.6465,1.0771,1.0771,0,0,0-.77-.2929A1.5986,1.5986,0,0,0,126.415,120.2806Z"/><path class="cls-4" d="M58.5176,137.4036a.7722.7722,0,0,0-.1543.5694,30.734,30.734,0,0,0,.0771,3.31.5441.5441,0,0,0,.4932.5234c.23.0459.3379.0772.3379.1534,0,.0468-.0918.0927-.2305.0927-.4306,0-.831-.0615-1.2783-.0615-.4766,0-.708.0615-1,.0615-.17,0-.2471-.03-.2471-.0927s.0615-.0918.2471-.1377c.4463-.1084.5537-.1543.5693-.7393.0459-.6162.0616-2.0322.0616-4.4805,0-2.3252.0312-3.2636,0-3.8486-.0157-.4932-.1231-.5391-.462-.7236-.0615-.0469-.1074-.0772-.1074-.1231s.0918-.0927.2617-.1386a6.4015,6.4015,0,0,0,1.1241-.37.3355.3355,0,0,1,.1533-.0615c.0469,0,.0928.1084.0771.3233-.0156.416-.0771,5.1884-.0615,5.4814,0,.0615.0459.0772.0615.0459a5.07,5.07,0,0,1,.9239-.6309,2.4154,2.4154,0,0,1,1.0781-.2617,1.6414,1.6414,0,0,1,1.3857.6924,2.9722,2.9722,0,0,1,.3379,1.6475c.0156,1.1552.0156,2.1093.0313,2.6943,0,.3076.0615.416.5234.4932.2.0459.2461.0761.2461.1377s-.1074.1084-.2461.1084c-.4,0-.6934-.0772-1.1084-.0772-.5234,0-.6465.0615-1.001.0615-.1845,0-.2461-.0459-.2461-.0927,0-.0616.0772-.0918.23-.1231.416-.0918.4463-.2.5088-.6465.03-.3535.0615-1.0312.0615-2.6328a2.4683,2.4683,0,0,0-.2314-1.1543,1.1523,1.1523,0,0,0-1.0625-.5693A1.8585,1.8585,0,0,0,58.5176,137.4036Z"/><path class="cls-4" d="M68.3574,137.8655a.18.18,0,0,1-.1543.169c-.123-.0156-2.124-.0459-2.4785-.0459h-.831c-.0313,0-.1084.0771-.1387.123a2.1147,2.1147,0,0,0-.1231.8467,2.76,2.76,0,0,0,.708,1.8633,2.08,2.08,0,0,0,1.54.6309,1.966,1.966,0,0,0,1.4619-.4922c.123-.1231.1846-.0928.1846-.0157a.5856.5856,0,0,1-.1534.2461,2.7217,2.7217,0,0,1-2.1406.97,2.4837,2.4837,0,0,1-1.832-.7852,3.0077,3.0077,0,0,1-.7383-2.0625,3.2089,3.2089,0,0,1,.8926-2.248,2.865,2.865,0,0,1,1.9248-.77A1.7761,1.7761,0,0,1,68.3574,137.8655Zm-3.1406-.7851a1.35,1.35,0,0,0-.3232.6308.0654.0654,0,0,0,.0615.0616l2.001-.0157c.3388,0,.37-.1689.37-.3076a.9936.9936,0,0,0-.2158-.6465,1.0774,1.0774,0,0,0-.77-.2929A1.5984,1.5984,0,0,0,65.2168,137.08Z"/><path class="cls-4" d="M72.9,137.08a3.7134,3.7134,0,0,1,.2158,1.4c0,.57-.0469,2.0332-.0469,2.4326a.5276.5276,0,0,0,.57.585.9848.9848,0,0,0,.4463-.1377c.0918-.0469.1534,0,.0918.1377a1.2948,1.2948,0,0,1-1.1855.6621,1.0332,1.0332,0,0,1-.9082-.6924.0532.0532,0,0,0-.0772-.0156,2.1514,2.1514,0,0,1-1.5088.6933,1.2775,1.2775,0,0,1-1.2314-1.3242,1.0848,1.0848,0,0,1,.5547-.8779c.3691-.2,1.7705-.6153,2.0937-.7393a.2905.2905,0,0,0,.2-.2305,5.3029,5.3029,0,0,0,.03-.708c0-.6318-.1074-1.0625-.3691-1.2627a1.17,1.17,0,0,0-.6465-.2461,1.0607,1.0607,0,0,0-.6162.1846.6126.6126,0,0,0-.2305.3692,1.5684,1.5684,0,0,0-.0156.2929.1945.1945,0,0,1-.0615.1231,3.3572,3.3572,0,0,1-.7237.3388c-.0771.0157-.1543-.0771-.1543-.1386,0-.1075.1084-.2461.293-.462a3.982,3.982,0,0,1,1.17-.8925,2.0567,2.0567,0,0,1,.9238-.2774A1.2613,1.2613,0,0,1,72.9,137.08Zm-1.0313,4.2334a.6384.6384,0,0,0,.169-.3692,11.0869,11.0869,0,0,0,.0771-1.4628c0-.0157-.0312-.0918-.0615-.0772a8.76,8.76,0,0,0-1.417.5234.7979.7979,0,0,0-.3847.77.8943.8943,0,0,0,.9238.8624A1.0569,1.0569,0,0,0,71.8691,141.3138Z"/><path class="cls-4" d="M76.335,138.25c0,1.9395.0156,2.6631.03,2.9561.0157.416.1084.5234.5391.6005.0928.0157.2.0616.2.1075,0,.0615-.1074.1084-.3076.1084-.2461,0-.8008-.0313-1.0625-.0313-.4,0-.8008.0313-1.0313.0313-.1855,0-.2617-.0157-.2617-.0928s.0762-.0928.2764-.1387c.3857-.0771.4775-.2158.539-.8926.0313-.57.0928-3.1718.1084-5.0195,0-1.2471.0147-2.51,0-3.1865,0-.3389-.0312-.416-.4316-.6621-.1074-.0615-.1543-.0928-.1543-.1387s.0928-.0928.2314-.123a7.9916,7.9916,0,0,0,1.1543-.3545.6524.6524,0,0,1,.1856-.0459c.03,0,.0459.0918.0459.1689,0,.1074-.0615,2.7715-.0615,5.0811Z"/><path class="cls-4" d="M78.583,141.4222a1.7355,1.7355,0,0,1-.1846-.8779v-3.1866c0-.17-.0156-.2773-.0771-.3086a2.55,2.55,0,0,0-.3692-.0918c-.123-.0312-.2-.0771-.2-.1386,0-.0313.0156-.0772.1845-.1543a3.2834,3.2834,0,0,0,1.2627-1.0313c.1387-.1543.2461-.123.2461-.0469,0,.1387-.03.57-.0156.7549,0,.0459.0156.1387.0771.1387.2774,0,1.5547-.0459,1.8789-.0459.03,0,.0918.1074.0918.2148,0,.2618-.0771.3848-.1543.3848-.538,0-1.2929-.0146-1.7089-.0146-.1846,0-.2149.0459-.2149.1386,0,.2618.0156,2.6787.03,3.1563a1.5743,1.5743,0,0,0,.17.831,1.1384,1.1384,0,0,0,.9541.4161,1.4993,1.4993,0,0,0,.8467-.2315c.1084-.0771.1543-.0615.1543,0,0,.0928-.1387.2461-.3389.4a2.1121,2.1121,0,0,1-1.247.4A1.4274,1.4274,0,0,1,78.583,141.4222Z"/><path class="cls-4" d="M83.7266,137.4036a.7722.7722,0,0,0-.1543.5694,30.6686,30.6686,0,0,0,.0771,3.31.5441.5441,0,0,0,.4932.5234c.23.0459.3379.0772.3379.1534,0,.0468-.0918.0927-.2305.0927-.4307,0-.8311-.0615-1.2783-.0615-.4766,0-.708.0615-1,.0615-.17,0-.2471-.03-.2471-.0927s.0615-.0918.2471-.1377c.4463-.1084.5537-.1543.5693-.7393.0459-.6162.0615-2.0322.0615-4.4805,0-2.3252.0313-3.2636,0-3.8486-.0156-.4932-.123-.5391-.4619-.7236-.0615-.0469-.1074-.0772-.1074-.1231s.0918-.0927.2617-.1386a6.3973,6.3973,0,0,0,1.124-.37.3361.3361,0,0,1,.1534-.0615c.0468,0,.0927.1084.0771.3233-.0156.416-.0771,5.1884-.0615,5.4814,0,.0615.0459.0772.0615.0459a5.0726,5.0726,0,0,1,.9238-.6309,2.4162,2.4162,0,0,1,1.0782-.2617,1.6414,1.6414,0,0,1,1.3857.6924,2.9722,2.9722,0,0,1,.3379,1.6475c.0156,1.1552.0156,2.1093.0312,2.6943,0,.3076.0616.416.5235.4932.2.0459.2461.0761.2461.1377s-.1074.1084-.2461.1084c-.4,0-.6934-.0772-1.1084-.0772-.5234,0-.6465.0615-1.001.0615-.1846,0-.2461-.0459-.2461-.0927,0-.0616.0772-.0918.23-.1231.416-.0918.4463-.2.5088-.6465.03-.3535.0615-1.0312.0615-2.6328a2.4683,2.4683,0,0,0-.2314-1.1543,1.1523,1.1523,0,0,0-1.0625-.5693A1.8585,1.8585,0,0,0,83.7266,137.4036Z"/><path class="cls-4" d="M92.9971,137.4193a.88.88,0,0,0-.2617.538,8.7523,8.7523,0,0,0-.0157.94c0,1.14.0313,1.94.0615,2.2637.0616.4765.2461.5849.8321.6464.2148.03.292.0616.292.1387s-.1387.1074-.3692.1074c-.2929,0-.8007-.0615-1.4472-.0615a8.2852,8.2852,0,0,0-.9395.0928c-.1846,0-.2617-.0313-.2617-.0928,0-.0459.1074-.123.2305-.1543a.6347.6347,0,0,0,.5547-.6308c.0312-.2618.0459-1.14.0459-2.1553v-1.709c0-.1084-.1075-.1543-.4-.4-.1075-.0771-.1231-.123-.1231-.1543s.0928-.0918.2315-.1387a4.6135,4.6135,0,0,0,.9853-.3691.4862.4862,0,0,1,.2305-.0771c.0312,0,.0615.0615.0615.2158,0,.1689-.0146.7539-.0146,1.001,0,.0458.03.0615.0761.0146a2.5171,2.5171,0,0,1,1.6631-1.1084.8986.8986,0,0,1,.5391.2.2683.2683,0,0,1,.1074.2158,1.0486,1.0486,0,0,1-.3389.5235c-.1377.123-.2.1386-.2461.1386a.6985.6985,0,0,1-.2773-.1084,1.0786,1.0786,0,0,0-.5381-.1845A1.0483,1.0483,0,0,0,92.9971,137.4193Z"/><path class="cls-4" d="M95.877,136.7415a7.5912,7.5912,0,0,0,1.1084-.4.62.62,0,0,1,.2314-.1074c.0459,0,.0771.0459.0615.2148-.0312.3086-.0312,1.2471-.0312,2.2325,0,1.2939,0,2.4326.0312,2.6943.03.3086.1846.3857.4307.4473.1543.03.2314.0615.2314.123,0,.0772-.123.1074-.2461.1074-.1386,0-.7089-.0615-1.124-.0615-.5088,0-.7549.0313-.9238.0313-.1084,0-.2158-.0313-.2158-.0928s.0771-.1074.2929-.1387c.3379-.0928.4766-.2158.4922-.8467.0156-.4619.0459-3.2636.0459-3.4179,0-.2158-.0146-.3076-.4463-.5391-.0771-.0459-.123-.0918-.123-.123C95.6924,136.8187,95.7383,136.7718,95.877,136.7415Zm1.54-2.51a.5864.5864,0,0,1-.57.5849.5484.5484,0,0,1-.5078-.5693.5712.5712,0,0,1,.539-.6006A.563.563,0,0,1,97.417,134.2318Z"/><path class="cls-4" d="M99.7891,137.4808c0,.6465.5849,1.0156.97,1.247,1.001.6465,1.4,1.0313,1.4,1.8165a1.5794,1.5794,0,0,1-.8,1.2929,2.557,2.557,0,0,1-1.2324.3389,3.1231,3.1231,0,0,1-1.2159-.2774c-.123-.0459-.2314-.1533-.2314-.2461,0-.2158-.03-.6005-.0459-.7695-.03-.2.0156-.2461.0459-.2461.0469,0,.0928,0,.2.292a1.5079,1.5079,0,0,0,.6474.832,1.1809,1.1809,0,0,0,.6924.1846,1.0562,1.0562,0,0,0,1.001-1.0322c0-.585-.4-.9082-1.0166-1.293-.6621-.4306-1.2773-1.001-1.2773-1.6777a1.46,1.46,0,0,1,.5849-1.2168,1.9923,1.9923,0,0,1,1.293-.4307,3.7646,3.7646,0,0,1,1.0469.169.25.25,0,0,1,.0771.1386c.0156.169.0772.4776.0928.7237,0,.1689-.0313.2461-.0772.2461-.0615,0-.0927-.0772-.1386-.1846a1.173,1.173,0,0,0-.3692-.6309,1.2682,1.2682,0,0,0-.7236-.2314A.8969.8969,0,0,0,99.7891,137.4808Z"/><path class="cls-4" d="M107.1641,136.48c.3388,0,.955-.0772,1.3554-.0772.169,0,.2305.0459.2305.0928,0,.03-.0459.0918-.2305.1231a2.75,2.75,0,0,0-1.417.6767c-.4.3086-1.1543.9551-1.4472,1.2324-.03.03,0,.0772.0156.1075.4619.539,1.57,1.7246,2.2939,2.4638a1.9917,1.9917,0,0,0,1.1084.7237c.1387.03.2315.0761.2315.1377,0,.0927-.1387.1084-.2617.1084-.5235,0-1.1084-.0772-1.709-.0772-.2617,0-.4619.0156-.6934.0156-.1689,0-.2763,0-.2763-.0927,0-.0772.0761-.1075.3535-.169.2617-.0615.2929-.2.1543-.416-.3233-.3691-1.417-1.5244-1.8789-1.9863-.1231-.1231-.2305-.2305-.292-.2305-.0459,0-.0616.0918-.0616.1533-.0156.2774-.0312.7862-.0156,1.6328,0,.7383.1231.7852.6006.8926.1543.0459.2305.0772.2305.1387,0,.0771-.1231.1074-.292.1074-.4317,0-.7549-.0459-1.1553-.0459-.4922,0-.8154.0459-1,.0459-.1543,0-.2471-.0459-.2471-.1074,0-.0459.0928-.0928.2-.1074.4776-.1241.585-.2617.6162-.77.0616-1.1241.0772-2.417.0772-3.6182.0156-1.2.0615-3.1709.0615-4.3721a2.6382,2.6382,0,0,0-.0615-.708c-.0313-.123-.17-.2158-.3545-.3086-.0771-.0459-.1387-.0761-.1387-.1074,0-.0615.0928-.0928.2471-.1387a9.4582,9.4582,0,0,0,1.0928-.3691.7.7,0,0,1,.2461-.0772c.0156,0,.0459.0459.0459.1231-.03.5078-.0762,1.8633-.0762,3.0019,0,.4776-.0772,2.51-.0772,4.2032,0,.17.03.247.0772.247a.7744.7744,0,0,0,.3076-.17,13.1844,13.1844,0,0,0,1.6631-1.539.5615.5615,0,0,0,.1689-.2774c0-.0928-.1074-.1846-.4462-.2461-.1387-.0156-.2618-.0615-.2618-.123s.1075-.1084.2461-.1084C106.6406,136.4642,106.9951,136.48,107.1641,136.48Z"/><path class="cls-4" d="M110.707,137.4808c0,.6465.585,1.0156.97,1.247,1.0009.6465,1.4013,1.0313,1.4013,1.8165a1.58,1.58,0,0,1-.8008,1.2929,2.5559,2.5559,0,0,1-1.2314.3389,3.1237,3.1237,0,0,1-1.2168-.2774c-.123-.0459-.23-.1533-.23-.2461,0-.2158-.0312-.6005-.0459-.7695-.0312-.2.0147-.2461.0459-.2461.0459,0,.0928,0,.2.292a1.5028,1.5028,0,0,0,.6465.832,1.1837,1.1837,0,0,0,.6934.1846,1.0554,1.0554,0,0,0,1-1.0322c0-.585-.4-.9082-1.0157-1.293-.6621-.4306-1.2783-1.001-1.2783-1.6777a1.4594,1.4594,0,0,1,.585-1.2168,1.995,1.995,0,0,1,1.2939-.4307,3.7771,3.7771,0,0,1,1.0469.169.2558.2558,0,0,1,.0772.1386c.0146.169.0761.4776.0918.7237,0,.1689-.03.2461-.0772.2461-.0615,0-.0918-.0772-.1387-.1846a1.166,1.166,0,0,0-.3691-.6309,1.2636,1.2636,0,0,0-.7236-.2314A.8975.8975,0,0,0,110.707,137.4808Z"/><path class="cls-4" d="M113.9717,141.4984a.6994.6994,0,0,1,.6924-.6924.6491.6491,0,0,1,.6162.6777.662.662,0,0,1-.6621.6924A.6781.6781,0,0,1,113.9717,141.4984Z"/><path class="cls-4" d="M117.1133,132.723a1.6716,1.6716,0,0,1-1.3858,1.4931c-.0927,0-.1386-.03-.1386-.0761,0-.0313.0615-.0772.1533-.1241a1.2313,1.2313,0,0,0,.8164-1.0312c0-.3076-.169-.5078-.585-.6006-.1543-.0459-.3076-.1387-.3076-.3232a.4575.4575,0,0,1,.4619-.4307A1.0281,1.0281,0,0,1,117.1133,132.723Zm1.9238,0a1.6707,1.6707,0,0,1-1.3857,1.4931c-.0762,0-.1377-.03-.1377-.0761,0-.0313.0918-.0772.1533-.1241A1.2052,1.2052,0,0,0,118.4834,133c0-.3232-.17-.5234-.585-.6162a.3606.3606,0,0,1-.2929-.3232.4521.4521,0,0,1,.4775-.4307A1.0234,1.0234,0,0,1,119.0371,132.723Z"/></svg>