<svg id="Layer_1" data-name="Layer 1" xmlns="http://www.w3.org/2000/svg" viewBox="0 0 399 200"><defs><style>.cls-1,.cls-3,.cls-4{fill:none;stroke-linecap:round;}.cls-1,.cls-3{stroke:#222f3c;}.cls-1,.cls-4{stroke-linejoin:round;}.cls-1{stroke-width:0.5px;}.cls-2{fill:#333838;}.cls-3{stroke-miterlimit:10;}.cls-3,.cls-4{stroke-width:0.4px;}.cls-4{stroke:#231f20;}</style></defs><line class="cls-1" x1="220.1809" y1="121.5277" x2="210.9961" y2="121.5277"/><line class="cls-1" x1="247.5217" y1="121.5277" x2="238.337" y2="121.5277"/><line class="cls-1" x1="237.3365" y1="118.0212" x2="247.5217" y2="118.0212"/><line class="cls-1" x1="210.9961" y1="118.0212" x2="221.1815" y2="118.0212"/><line class="cls-1" x1="216.4154" y1="143.1779" x2="218.7478" y2="143.1779"/><line class="cls-1" x1="228.0927" y1="143.1779" x2="230.4251" y2="143.1779"/><line class="cls-1" x1="239.7701" y1="143.1779" x2="242.1025" y2="143.1779"/><line class="cls-1" x1="222.254" y1="146.3507" x2="224.5864" y2="146.3507"/><line class="cls-1" x1="233.9314" y1="146.3507" x2="236.2638" y2="146.3507"/><polyline class="cls-1" points="210.996 138.802 217.083 136.465 223.171 138.802 227.506 137.138 227.506 131.16"/><polyline class="cls-1" points="247.522 138.802 241.435 136.465 235.347 138.802 231.012 137.138 231.012 131.162"/><circle class="cls-1" cx="229.2589" cy="122.2246" r="9.1044" transform="translate(28.6044 287.2588) rotate(-67.5)"/><polyline class="cls-1" points="222.906 128.744 210.996 128.744 210.996 149.738 247.522 149.738 247.522 128.744 235.611 128.744"/><path class="cls-1" d="M225.5333,123.8269c0-2.0576,3.7256-6.5362,3.7256-6.5362s3.7256,4.4786,3.7256,6.5362a3.7256,3.7256,0,1,1-7.4512,0Z"/><polyline class="cls-1" points="255.011 113.56 251.348 113.56 249.469 115.24 247.694 115.24 247.694 123.998 249.469 123.998 251.348 125.679 255.011 125.679"/><path class="cls-2" d="M274.6367,138.9471c.37,0,1.001.0615,1.4629.0615.3389,0,.708-.0312,1.0313-.0312.2158,0,.3076.0468.3076.1084,0,.0771-.0918.123-.2764.1533-.4316.0771-.4316.2617-.3232.539.6465,1.6016,2.1709,4.8809,3.2177,7.1905.0459.1074.1075.0771.1534,0,.4316-.878.8007-1.6475,1.2168-2.6328a.43.43,0,0,0,.03-.1846c-.2461-.585-1.2773-2.9258-1.6162-3.6651-.4463-.9541-.5693-1.1386-1.0469-1.2617-.246-.0468-.3232-.1084-.3232-.1855,0-.0459.0918-.0918.292-.0918.4473,0,.7393.0615,1.2939.0615s.9082-.0615,1.2618-.0615c.1543,0,.2617.03.2617.0918,0,.0771-.0918.124-.292.17-.416.0771-.5693.2617-.3389.8311.2461.6464.708,1.6933,1.2168,2.8642.0147.03.0762.0459.1231-.0312.3691-.7539.6923-1.4629,1.0156-2.2168.4775-1.1241.4619-1.2784-.2-1.4317-.2774-.0615-.3233-.123-.3233-.1855,0-.0459.0928-.0762.2774-.0762.3848,0,.6309.0459,1.0312.0459.5391,0,.7852-.0615,1.14-.0615.1846,0,.2617.0156.2617.0771,0,.0772-.0771.1231-.293.169-.5693.123-.8623.4463-1.37,1.34-.4.77-1.1543,2.294-1.416,2.7715a.2654.2654,0,0,0,.0156.1846c.3848.9082,1.0616,2.3711,1.585,3.5254.0615.1074.1084.0771.1387,0,.7392-1.6016,2.6025-5.9121,2.9257-7.0518.0772-.3379.0616-.6-.4462-.7539-.2471-.0771-.3389-.1074-.3389-.17s.0459-.0918.2617-.0918c.4,0,.6152.0615,1.0772.0615.4316,0,.8466-.0615,1.124-.0615.2,0,.2773.0156.2773.0771s-.0771.1231-.3545.169c-.6465.17-.9238.4931-1.8935,2.6787-.97,2.125-2.2168,5.0351-2.9248,6.7285-.1084.2617-.1543.3545-.2315.3545-.1074,0-.1689-.1084-.2617-.3545-.3232-.94-1.2-2.8486-1.6474-3.834-.03-.0615-.0772-.0615-.1075-.0146-.5849,1.1386-1.4013,2.94-1.74,3.833-.0918.2461-.1846.37-.2461.37-.0918,0-.123-.0928-.2305-.37-.2-.5078-.6777-1.6319-.8779-2.0938-.8467-1.9551-1.8779-4.2334-2.6016-5.7431-.5546-1.2-.6777-1.4776-1.2627-1.5547-.1845-.0156-.3232-.0772-.3232-.1387C274.3291,139.0086,274.4365,138.9471,274.6367,138.9471Z"/><path class="cls-2" d="M290.8828,143.7508a3.7347,3.7347,0,0,1,.2149,1.4c0,.57-.0459,2.0322-.0459,2.4326a.5279.5279,0,0,0,.5693.5859.9918.9918,0,0,0,.4473-.1386c.0918-.0469.1533,0,.0918.1386a1.2971,1.2971,0,0,1-1.1856.6612,1.0332,1.0332,0,0,1-.9082-.6924.0532.0532,0,0,0-.0771-.0156,2.1536,2.1536,0,0,1-1.5088.6933,1.2775,1.2775,0,0,1-1.2315-1.3242,1.0865,1.0865,0,0,1,.5537-.8779c.37-.2,1.7715-.6153,2.0948-.7393a.2907.2907,0,0,0,.2-.2305,5.32,5.32,0,0,0,.03-.708c0-.6318-.1074-1.0625-.3691-1.2627a1.17,1.17,0,0,0-.6465-.246,1.0589,1.0589,0,0,0-.6162.1845.6188.6188,0,0,0-.2315.3692,1.6743,1.6743,0,0,0-.0146.2929.194.194,0,0,1-.0615.1231,3.355,3.355,0,0,1-.7237.3388c-.0771.0157-.1543-.0771-.1543-.1386,0-.1074.1075-.2461.293-.4619a3.9909,3.9909,0,0,1,1.17-.8936,2.0634,2.0634,0,0,1,.9239-.2764A1.2623,1.2623,0,0,1,290.8828,143.7508Zm-1.0322,4.2334a.6391.6391,0,0,0,.17-.3691,11.086,11.086,0,0,0,.0772-1.4629c0-.0157-.0313-.0918-.0625-.0772a8.7843,8.7843,0,0,0-1.4161.5234.7981.7981,0,0,0-.3847.7706.8944.8944,0,0,0,.9238.8623A1.0527,1.0527,0,0,0,289.8506,147.9842Z"/><path class="cls-2" d="M293.208,148.0926a1.7355,1.7355,0,0,1-.1846-.8779v-3.1866c0-.17-.0156-.2773-.0771-.3086a2.55,2.55,0,0,0-.3692-.0918c-.123-.0312-.2-.0771-.2-.1386,0-.0313.0156-.0772.1845-.1543a3.2762,3.2762,0,0,0,1.2627-1.0313c.1387-.1543.2461-.123.2461-.0459,0,.1377-.03.5694-.0146.7539,0,.0459.0146.1387.0761.1387.2774,0,1.5557-.0459,1.8789-.0459.03,0,.0918.1074.0918.2149,0,.2617-.0761.3847-.1533.3847-.539,0-1.2939-.0146-1.709-.0146-.1845,0-.2158.0459-.2158.1386,0,.2618.0156,2.6788.0313,3.1563a1.5772,1.5772,0,0,0,.1689.831,1.14,1.14,0,0,0,.9541.4161,1.5034,1.5034,0,0,0,.8477-.2315c.1074-.0771.1533-.0615.1533,0,0,.0928-.1387.2461-.3389.4a2.11,2.11,0,0,1-1.247.4A1.4274,1.4274,0,0,1,293.208,148.0926Z"/><path class="cls-2" d="M301.2314,144.5359a.18.18,0,0,1-.1543.169c-.123-.0156-2.125-.0459-2.4785-.0459h-.831c-.0313,0-.1084.0771-.1387.123a2.1131,2.1131,0,0,0-.124.8467,2.76,2.76,0,0,0,.709,1.8633,2.0773,2.0773,0,0,0,1.539.6309,1.9668,1.9668,0,0,0,1.4629-.4922c.1231-.1231.1846-.0928.1846-.0156a.5855.5855,0,0,1-.1533.246,2.7216,2.7216,0,0,1-2.1407.97,2.4837,2.4837,0,0,1-1.832-.7852,3.0082,3.0082,0,0,1-.7392-2.0625,3.21,3.21,0,0,1,.8935-2.248,2.8625,2.8625,0,0,1,1.9238-.77A1.7764,1.7764,0,0,1,301.2314,144.5359Zm-3.1406-.7851a1.3412,1.3412,0,0,0-.3232.6309.0654.0654,0,0,0,.0615.0615l2.001-.0156c.3388,0,.3691-.169.3691-.3077a.9923.9923,0,0,0-.2148-.6465,1.0783,1.0783,0,0,0-.77-.2929A1.5966,1.5966,0,0,0,298.0908,143.7508Z"/><path class="cls-2" d="M303.958,144.09a.8856.8856,0,0,0-.2617.538,9.0261,9.0261,0,0,0-.0156.94c0,1.14.0312,1.94.0615,2.2637.0615.4765.2471.5849.832.6465.2149.03.292.0615.292.1386s-.1387.1074-.3691.1074c-.293,0-.8008-.0615-1.4473-.0615a8.2824,8.2824,0,0,0-.9394.0928c-.1846,0-.2618-.0313-.2618-.0928,0-.0459.1084-.123.2315-.1543a.6345.6345,0,0,0,.5537-.6308c.0312-.2617.0469-1.14.0469-2.1553v-1.709c0-.1084-.1084-.1543-.4-.4-.1084-.0771-.1231-.123-.1231-.1543s.0918-.0918.2305-.1386a4.6712,4.6712,0,0,0,.9853-.3692.4862.4862,0,0,1,.2315-.0771c.03,0,.0615.0615.0615.2158,0,.1689-.0156.7539-.0156,1.001,0,.0459.03.0615.0771.0146a2.5152,2.5152,0,0,1,1.6621-1.1084.8969.8969,0,0,1,.5391.2.268.268,0,0,1,.1074.2158,1.0522,1.0522,0,0,1-.3379.5235c-.1386.123-.2.1386-.247.1386a.6919.6919,0,0,1-.2764-.1084,1.0848,1.0848,0,0,0-.5391-.1845A1.0483,1.0483,0,0,0,303.958,144.09Z"/><path class="cls-2" d="M285.1611,156.2859a.2725.2725,0,0,1,.1534.2618c-.03.3691.0468,1.0312.0468,1.1855s-.0615.2461-.0927.2461c-.0616,0-.1075-.0771-.1387-.2a2.3954,2.3954,0,0,0-.7393-1.2314,3.5274,3.5274,0,0,0-2.3554-.77,3.714,3.714,0,0,0-2.6788,1.2011,5.5592,5.5592,0,0,0-1.17,3.5723,5.834,5.834,0,0,0,1.416,3.7256,3.6768,3.6768,0,0,0,2.6329,1.14,3.2641,3.2641,0,0,0,1.832-.4316,2.7559,2.7559,0,0,0,1.1855-1.5088c.0616-.2.0928-.2617.1543-.2617s.0918.1387.0918.2314a11.0282,11.0282,0,0,1-.2148,1.2158.4173.4173,0,0,1-.1543.2315,5.5847,5.5847,0,0,1-3.002.8467,5.3,5.3,0,0,1-4.0029-1.6319,5.3887,5.3887,0,0,1-1.2939-3.4033,4.9094,4.9094,0,0,1,1.7246-3.8945,5.5336,5.5336,0,0,1,3.5879-1.2783A7.1084,7.1084,0,0,1,285.1611,156.2859Z"/><path class="cls-2" d="M290.06,160.5506a3.7348,3.7348,0,0,1,.2148,1.4c0,.57-.0459,2.0332-.0459,2.4326a.5273.5273,0,0,0,.5694.585.9883.9883,0,0,0,.4472-.1377c.0918-.0469.1533,0,.0918.1377a1.296,1.296,0,0,1-1.1855.6621,1.0331,1.0331,0,0,1-.9082-.6924.0533.0533,0,0,0-.0772-.0156,2.1533,2.1533,0,0,1-1.5088.6933,1.2775,1.2775,0,0,1-1.2314-1.3242,1.0865,1.0865,0,0,1,.5537-.8779c.37-.2,1.7715-.6153,2.0947-.7393a.2905.2905,0,0,0,.2-.23,5.3051,5.3051,0,0,0,.03-.7081c0-.6318-.1074-1.0625-.3692-1.2627a1.17,1.17,0,0,0-.6464-.246,1.0592,1.0592,0,0,0-.6162.1845.6184.6184,0,0,0-.2315.3692,1.6743,1.6743,0,0,0-.0146.2929.1941.1941,0,0,1-.0616.1231,3.3566,3.3566,0,0,1-.7236.3388c-.0771.0157-.1543-.0771-.1543-.1386,0-.1074.1074-.2461.293-.4619a3.968,3.968,0,0,1,1.17-.8926,2.0532,2.0532,0,0,1,.9238-.2774A1.2624,1.2624,0,0,1,290.06,160.5506Zm-1.0323,4.2334a.6391.6391,0,0,0,.17-.3691,11.09,11.09,0,0,0,.0771-1.4629c0-.0157-.0312-.0918-.0625-.0772a8.7754,8.7754,0,0,0-1.416.5235.7977.7977,0,0,0-.3848.77.8944.8944,0,0,0,.9239.8623A1.0522,1.0522,0,0,0,289.0273,164.784Z"/><path class="cls-2" d="M296.7119,160.2889a3.2159,3.2159,0,0,1,.4922,2.0166c0,.8164.0156.9394.0156,1.709.0157,1.0468.0615,1.14.4776,1.247.1386.0616.23.0928.23.1543,0,.0918-.123.1075-.2773.1075-.2,0-.6465-.0616-.9854-.0616-.5234,0-.7236.0616-.9541.0616-.1386,0-.2461-.03-.2461-.0928s.0918-.1231.292-.169c.37-.0927.4317-.2.4317-.6464v-2.0938c0-1.2471-.1084-1.6172-.4932-1.9092a1.37,1.37,0,0,0-.8779-.2929,1.8417,1.8417,0,0,0-1.2.4931.7937.7937,0,0,0-.1846.4619c0,.1846.0147.97.0147,1.8936a12.5294,12.5294,0,0,0,.0927,1.6162c.0459.3389.2305.416.4776.4932.1845.0459.2617.0771.2617.1533,0,.0928-.1543.0928-.3086.0928-.123,0-.8769-.0616-1.2314-.0616-.2,0-.5235.0313-.8155.0313-.17,0-.2929-.0313-.2929-.1084,0-.0615.1386-.1231.3232-.1533.3848-.0772.4463-.1856.4619-.4932.0313-1.1084.0313-2.5254.0313-3.7725,0-.1533-.0313-.3232-.4-.5234-.0928-.0615-.1231-.0918-.1231-.1377,0-.0312.0762-.0771.2149-.124a5.7334,5.7334,0,0,0,1.2168-.5235c.0459-.0146.123.0469.1074.1231a6.8884,6.8884,0,0,0-.03.8164c0,.0312.0459.0771.0762.0459a5.3412,5.3412,0,0,1,1.0937-.6924,2.0758,2.0758,0,0,1,.9082-.1846A1.5725,1.5725,0,0,1,296.7119,160.2889Z"/><path class="cls-2" d="M302.21,160.5506a3.7348,3.7348,0,0,1,.2148,1.4c0,.57-.0459,2.0332-.0459,2.4326a.5273.5273,0,0,0,.5693.585.9883.9883,0,0,0,.4473-.1377c.0918-.0469.1533,0,.0918.1377a1.296,1.296,0,0,1-1.1855.6621,1.0331,1.0331,0,0,1-.9082-.6924.0533.0533,0,0,0-.0772-.0156,2.1533,2.1533,0,0,1-1.5088.6933,1.2775,1.2775,0,0,1-1.2314-1.3242,1.0865,1.0865,0,0,1,.5537-.8779c.37-.2,1.7715-.6153,2.0947-.7393a.2905.2905,0,0,0,.2-.23,5.3051,5.3051,0,0,0,.03-.7081c0-.6318-.1074-1.0625-.3692-1.2627a1.1707,1.1707,0,0,0-.6464-.246,1.06,1.06,0,0,0-.6163.1845.6182.6182,0,0,0-.2314.3692,1.6631,1.6631,0,0,0-.0147.2929.194.194,0,0,1-.0615.1231,3.3566,3.3566,0,0,1-.7236.3388c-.0772.0157-.1543-.0771-.1543-.1386,0-.1074.1074-.2461.293-.4619a3.968,3.968,0,0,1,1.17-.8926,2.0532,2.0532,0,0,1,.9238-.2774A1.2624,1.2624,0,0,1,302.21,160.5506Zm-1.0323,4.2334a.6391.6391,0,0,0,.17-.3691,11.09,11.09,0,0,0,.0771-1.4629c0-.0157-.0312-.0918-.0625-.0772a8.7754,8.7754,0,0,0-1.416.5235.7977.7977,0,0,0-.3848.77.8944.8944,0,0,0,.9239.8623A1.0522,1.0522,0,0,0,301.1777,164.784Z"/><path class="cls-2" d="M305.6436,161.7205c0,1.94.0156,2.6631.0312,2.9561.0147.416.1074.5234.5381.6006.0928.0156.2.0615.2.1074,0,.0615-.1074.1084-.3076.1084-.2461,0-.8008-.0313-1.0625-.0313-.4,0-.8008.0313-1.0313.0313-.1846,0-.2617-.0156-.2617-.0928s.0771-.0928.2773-.1387c.3848-.0771.4766-.2158.5381-.8925.0313-.57.0928-3.1719.1084-5.02,0-1.247.0157-2.51,0-3.1865,0-.3389-.0312-.416-.4316-.6621-.1074-.0615-.1533-.0928-.1533-.1387s.0918-.0928.23-.123a8.0467,8.0467,0,0,0,1.1553-.3545.64.64,0,0,1,.1846-.0459c.03,0,.0459.0918.0459.1689,0,.1075-.0615,2.7715-.0615,5.0811Z"/><line class="cls-1" x1="322.0126" y1="111.1962" x2="260.6019" y2="111.1962"/><line class="cls-1" x1="260.6019" y1="128.1114" x2="322.0126" y2="128.1114"/><line class="cls-1" x1="260.6019" y1="128.1114" x2="322.0126" y2="128.1114"/><polyline class="cls-3" points="285.006 120.027 285.531 121.021 284.955 122.066"/><polyline class="cls-3" points="284.954 122.093 285.48 123.087 284.903 124.132"/><polyline class="cls-3" points="285.058 117.951 285.583 118.945 285.007 119.99"/><polyline class="cls-3" points="282.716 117.251 283.241 118.245 282.665 119.29"/><polyline class="cls-3" points="282.664 119.317 283.189 120.311 282.613 121.356"/><polyline class="cls-3" points="282.767 115.175 283.293 116.169 282.717 117.214"/><polyline class="cls-3" points="290.575 120.027 291.101 121.021 290.524 122.066"/><polyline class="cls-3" points="290.524 122.093 291.049 123.087 290.473 124.132"/><polyline class="cls-3" points="290.627 117.951 291.152 118.945 290.576 119.99"/><polyline class="cls-3" points="288.285 117.251 288.811 118.245 288.234 119.29"/><polyline class="cls-3" points="288.234 119.317 288.759 120.311 288.183 121.356"/><polyline class="cls-3" points="288.337 115.175 288.862 116.169 288.286 117.214"/><polyline class="cls-3" points="296.145 120.027 296.67 121.021 296.094 122.066"/><polyline class="cls-3" points="296.093 122.093 296.619 123.087 296.042 124.132"/><polyline class="cls-3" points="296.197 117.951 296.722 118.945 296.146 119.99"/><polyline class="cls-3" points="293.855 117.251 294.38 118.245 293.804 119.29"/><polyline class="cls-3" points="293.803 119.317 294.328 120.311 293.752 121.356"/><polyline class="cls-3" points="293.906 115.175 294.432 116.169 293.856 117.214"/><polyline class="cls-3" points="299.424 117.251 299.95 118.245 299.373 119.29"/><polyline class="cls-3" points="299.373 119.317 299.898 120.311 299.322 121.356"/><polyline class="cls-3" points="299.476 115.175 300.001 116.169 299.425 117.214"/><path class="cls-2" d="M210.67,62.6736c.37,0,1.001.0616,1.4629.0616.3389,0,.708-.0308,1.0313-.0308.2158,0,.3076.0459.3076.1079,0,.0767-.0918.1231-.2764.1538-.4316.0772-.4316.2617-.3232.5386.6465,1.6016,2.1709,4.8809,3.2177,7.19.0459.1075.1075.0767.1534,0,.4316-.8779.8007-1.6474,1.2168-2.6328a.4317.4317,0,0,0,.03-.185c-.2461-.585-1.2773-2.9253-1.6162-3.6641-.4463-.9546-.5693-1.1392-1.0469-1.2627-.246-.0459-.3232-.1074-.3232-.1846,0-.0464.0918-.0923.292-.0923.4473,0,.7393.0616,1.2939.0616s.9082-.0616,1.2618-.0616c.1543,0,.2617.0308.2617.0923,0,.0772-.0918.1231-.292.1695-.416.0766-.5693.2617-.3389.831.2461.647.708,1.6939,1.2168,2.8638.0147.0307.0762.0464.1231-.0308.3691-.7544.6923-1.4624,1.0156-2.2168.4775-1.124.4619-1.2778-.2-1.4321-.2773-.0615-.3232-.123-.3232-.1846,0-.0464.0927-.0771.2773-.0771.3848,0,.6309.0464,1.0312.0464.5391,0,.7852-.0616,1.14-.0616.1846,0,.2617.0152.2617.0767,0,.0772-.0771.1235-.293.1694-.5693.1236-.8623.4468-1.37,1.34-.4.7695-1.1543,2.2939-1.416,2.771a.2665.2665,0,0,0,.0156.185c.3848.9082,1.0616,2.3706,1.585,3.5254.0615.1079.1084.0772.1387,0,.7392-1.601,2.6025-5.9121,2.9258-7.0512.0771-.3389.0615-.6006-.4463-.7544-.2471-.0772-.3389-.1079-.3389-.1695s.0459-.0923.2617-.0923c.4,0,.6152.0616,1.0772.0616.4316,0,.8466-.0616,1.124-.0616.2,0,.2773.0152.2773.0767s-.0771.1235-.3545.1694c-.6464.1695-.9238.4927-1.8935,2.6792-.97,2.1245-2.2168,5.0342-2.9248,6.7281-.1084.2617-.1543.354-.2315.354-.1074,0-.1689-.1079-.2617-.354-.3232-.9395-1.2-2.8482-1.6474-3.8335-.03-.062-.0772-.062-.1075-.0157-.5849,1.1392-1.4013,2.941-1.74,3.8335-.0918.2466-.1846.37-.2461.37-.0918,0-.123-.0923-.2305-.37-.2-.5078-.6777-1.6318-.8779-2.0937-.8467-1.9551-1.8779-4.2339-2.6016-5.7427-.5546-1.2007-.6777-1.478-1.2627-1.5552-.1845-.0151-.3232-.0766-.3232-.1386C210.3623,62.7352,210.47,62.6736,210.67,62.6736Z"/><path class="cls-2" d="M226.916,67.4774a3.7352,3.7352,0,0,1,.2149,1.4008c0,.57-.0459,2.0323-.0459,2.4327a.5274.5274,0,0,0,.5693.5849.9858.9858,0,0,0,.4473-.1387c.0918-.0459.1533,0,.0918.1387a1.2969,1.2969,0,0,1-1.1856.6621,1.0344,1.0344,0,0,1-.9082-.6928.0541.0541,0,0,0-.0771-.0157,2.1548,2.1548,0,0,1-1.5088.6929,1.2774,1.2774,0,0,1-1.2315-1.3237,1.0878,1.0878,0,0,1,.5537-.878c.37-.2,1.7715-.6157,2.0948-.7387a.292.292,0,0,0,.2-.231,5.3219,5.3219,0,0,0,.03-.7085c0-.6308-.1074-1.062-.3691-1.2622a1.1749,1.1749,0,0,0-.6465-.2466,1.06,1.06,0,0,0-.6162.1851.62.62,0,0,0-.2314.3691,1.67,1.67,0,0,0-.0147.293.1923.1923,0,0,1-.0615.123,3.3273,3.3273,0,0,1-.7237.3389c-.0771.0151-.1542-.0771-.1542-.1387,0-.1079.1074-.2465.2929-.4619a3.9806,3.9806,0,0,1,1.17-.893,2.0668,2.0668,0,0,1,.9239-.2774A1.2626,1.2626,0,0,1,226.916,67.4774Zm-1.0322,4.2338a.6408.6408,0,0,0,.17-.37,11.0782,11.0782,0,0,0,.0772-1.4629c0-.0151-.0313-.0923-.0625-.0766a8.68,8.68,0,0,0-1.4161.5234.7967.7967,0,0,0-.3847.7695.8941.8941,0,0,0,.9238.8623A1.0541,1.0541,0,0,0,225.8838,71.7112Z"/><path class="cls-2" d="M229.2412,71.8187a1.7324,1.7324,0,0,1-.1846-.8775v-3.187c0-.1694-.0156-.2768-.0771-.3081a2.5273,2.5273,0,0,0-.3691-.0923c-.1231-.0307-.2-.0766-.2-.1382,0-.0312.0156-.0771.1845-.1543a3.28,3.28,0,0,0,1.2627-1.0312c.1387-.1543.2461-.1235.2461-.0464,0,.1387-.03.57-.0146.7544,0,.0464.0146.1387.0761.1387.2774,0,1.5557-.0464,1.8789-.0464.03,0,.0918.1079.0918.2158,0,.2617-.0761.3848-.1533.3848-.539,0-1.2939-.0157-1.709-.0157-.1845,0-.2158.0464-.2158.1387,0,.2617.0156,2.6792.0313,3.1563a1.5784,1.5784,0,0,0,.1689.8315,1.1378,1.1378,0,0,0,.9541.4155,1.5083,1.5083,0,0,0,.8477-.2309c.1074-.0772.1533-.0615.1533,0,0,.0923-.1387.2466-.3389.4a2.11,2.11,0,0,1-1.247.4A1.4271,1.4271,0,0,1,229.2412,71.8187Z"/><path class="cls-2" d="M237.2646,68.2625a.1809.1809,0,0,1-.1542.169c-.1231-.0152-2.125-.0459-2.4786-.0459h-.831c-.0313,0-.1084.0771-.1387.123a2.1111,2.1111,0,0,0-.124.8467,2.761,2.761,0,0,0,.709,1.8633,2.0772,2.0772,0,0,0,1.539.6308,1.9634,1.9634,0,0,0,1.4629-.4926c.1231-.1231.1846-.0923.1846-.0152a.585.585,0,0,1-.1533.2461,2.7223,2.7223,0,0,1-2.1407.97,2.4858,2.4858,0,0,1-1.832-.7851,3.0107,3.0107,0,0,1-.7392-2.063,3.21,3.21,0,0,1,.8935-2.2481,2.8627,2.8627,0,0,1,1.9238-.77A1.7768,1.7768,0,0,1,237.2646,68.2625Zm-3.1406-.7851a1.3435,1.3435,0,0,0-.3232.6308.0657.0657,0,0,0,.0615.0615l2.001-.0151c.3388,0,.3691-.1694.3691-.3081a.9921.9921,0,0,0-.2148-.6465,1.08,1.08,0,0,0-.77-.2925A1.5961,1.5961,0,0,0,234.124,67.4774Z"/><path class="cls-2" d="M239.9912,67.8157a.8881.8881,0,0,0-.2617.5391,9.0094,9.0094,0,0,0-.0156.939c0,1.14.0312,1.94.0615,2.2631.0615.4776.2471.5855.832.647.2149.0308.292.0615.292.1382s-.1387.1079-.3691.1079c-.293,0-.8008-.0615-1.4473-.0615a8.3258,8.3258,0,0,0-.9394.0923c-.1846,0-.2618-.0308-.2618-.0923,0-.0464.1084-.1231.2315-.1538a.6364.6364,0,0,0,.5537-.6314c.0312-.2617.0469-1.1391.0469-2.1552v-1.709c0-.1079-.1084-.1543-.4-.4-.1084-.0772-.1231-.1231-.1231-.1543s.0918-.0923.23-.1382a4.6716,4.6716,0,0,0,.9853-.37.4866.4866,0,0,1,.2315-.0772c.03,0,.0615.0615.0615.2158,0,.1695-.0156.7544-.0156,1.0005,0,.0464.03.0616.0771.0157a2.5124,2.5124,0,0,1,1.6622-1.1089.8962.8962,0,0,1,.539.2.2685.2685,0,0,1,.1074.2158,1.0517,1.0517,0,0,1-.3379.5234c-.1386.1231-.2.1387-.247.1387a.6953.6953,0,0,1-.2764-.1079,1.08,1.08,0,0,0-.5391-.1846A1.0523,1.0523,0,0,0,239.9912,67.8157Z"/><path class="cls-2" d="M217.5518,78.1194a2.5892,2.5892,0,0,0,1.2627-.1689c.0615-.0464.1084-.062.123-.0312a.3417.3417,0,0,1,.0156.2,4.8506,4.8506,0,0,0-.0459,1.1705c0,.2309-.0771.3383-.123.3383-.0615,0-.1084-.1381-.124-.2153a1.4227,1.4227,0,0,0-.2764-.7236c-.1387-.1231-.3389-.1846-1.417-.1846-.4766,0-1.2471,0-1.4932.0308-.0771.0151-.0927.1381-.0927.2461,0,.57-.03,4.8037-.03,4.8037-.0156.8623.0459,2.7715.0918,3.2485.0625.5234.2158.6313.7392.7852.1846.0463.2618.0771.2618.1538,0,.0927-.1075.1079-.3077.1079-.3545,0-.831-.0923-1.4472-.0923-.7852,0-1.2471.0923-1.4932.0923-.2,0-.2773-.0615-.2773-.1387,0-.0615.1386-.1074.3076-.1382.7392-.1079.832-.3545.8779-1.0625.1074-1.4936.1074-7.6211.0772-7.8364-.0157-.1387-.0616-.1851-.1084-.1851a9.4588,9.4588,0,0,0-1.1543-.0459,12.0328,12.0328,0,0,0-1.3086.0616c-.293.0615-.4932.2461-.708.8466-.0772.1846-.1543.2618-.2159.2618s-.0615-.1231-.0459-.231a9.0356,9.0356,0,0,0,.2-1.3242c.0147-.1231.0147-.2.0918-.231.0313-.0151.0772.0157.1231.0616a.8408.8408,0,0,0,.4932.1542c.246.0152,1.77.0616,3.3564.0616Z"/><path class="cls-2" d="M219.74,83.2156a.8881.8881,0,0,0-.2617.5391,9.0094,9.0094,0,0,0-.0156.939c0,1.14.0312,1.94.0615,2.2631.0615.4776.2471.585.832.647.2149.0308.292.0615.292.1382s-.1386.1079-.3691.1079c-.293,0-.8008-.0615-1.4473-.0615a8.3258,8.3258,0,0,0-.9394.0923c-.1846,0-.2617-.0308-.2617-.0923,0-.0464.1084-.1231.2314-.1538a.6364.6364,0,0,0,.5537-.6314c.0313-.2617.0469-1.1391.0469-2.1552V83.139c0-.1079-.1084-.1543-.4-.4-.1084-.0772-.123-.1235-.123-.1543s.0917-.0923.23-.1382a4.6746,4.6746,0,0,0,.9854-.37.486.486,0,0,1,.2314-.0772c.03,0,.0615.0616.0615.2158,0,.1695-.0156.7544-.0156,1,0,.0464.03.0616.0772.0157a2.5112,2.5112,0,0,1,1.6621-1.1084.8956.8956,0,0,1,.539.2.27.27,0,0,1,.1084.2158,1.0555,1.0555,0,0,1-.3388.5234c-.1387.1231-.2.1387-.2471.1387a.6953.6953,0,0,1-.2764-.1079,1.08,1.08,0,0,0-.539-.1846A1.0524,1.0524,0,0,0,219.74,83.2156Z"/><path class="cls-2" d="M226.8232,83.6624a.1809.1809,0,0,1-.1543.169c-.123-.0152-2.125-.0459-2.4785-.0459h-.831c-.0313,0-.1084.0771-.1387.123a2.1128,2.1128,0,0,0-.124.8467,2.761,2.761,0,0,0,.709,1.8633,2.0772,2.0772,0,0,0,1.539.6308,1.9634,1.9634,0,0,0,1.4629-.4926c.1231-.1231.1846-.0923.1846-.0152a.585.585,0,0,1-.1533.2461,2.7223,2.7223,0,0,1-2.1407.97,2.4858,2.4858,0,0,1-1.832-.7851,3.0107,3.0107,0,0,1-.7392-2.063,3.21,3.21,0,0,1,.8935-2.2481,2.8625,2.8625,0,0,1,1.9238-.77A1.7768,1.7768,0,0,1,226.8232,83.6624Zm-3.1406-.7851a1.3435,1.3435,0,0,0-.3232.6308.0657.0657,0,0,0,.0615.0615l2.001-.0151c.3388,0,.3691-.1694.3691-.3081a.9921.9921,0,0,0-.2148-.6465,1.08,1.08,0,0,0-.77-.2925A1.5959,1.5959,0,0,0,223.6826,82.8773Z"/><path class="cls-2" d="M231.3672,82.8773a3.7353,3.7353,0,0,1,.2148,1.4008c0,.57-.0459,2.0323-.0459,2.4327a.5275.5275,0,0,0,.5694.5849.9851.9851,0,0,0,.4472-.1387c.0918-.0459.1534,0,.0918.1387a1.2968,1.2968,0,0,1-1.1855.6621,1.0344,1.0344,0,0,1-.9082-.6928.0542.0542,0,0,0-.0772-.0157,2.1544,2.1544,0,0,1-1.5088.6929,1.2773,1.2773,0,0,1-1.2314-1.3237,1.0878,1.0878,0,0,1,.5537-.878c.37-.2,1.7715-.6157,2.0947-.7387a.2919.2919,0,0,0,.2-.231,5.3075,5.3075,0,0,0,.03-.7085c0-.6308-.1074-1.062-.3691-1.2622a1.1752,1.1752,0,0,0-.6465-.2466,1.0593,1.0593,0,0,0-.6162.1851.62.62,0,0,0-.2315.37,1.6724,1.6724,0,0,0-.0146.2925.1928.1928,0,0,1-.0615.123,3.33,3.33,0,0,1-.7237.3389c-.0771.0151-.1543-.0771-.1543-.1387,0-.1079.1074-.2465.293-.4619a3.9806,3.9806,0,0,1,1.17-.893,2.0661,2.0661,0,0,1,.9238-.2774A1.2627,1.2627,0,0,1,231.3672,82.8773Zm-1.0322,4.2338a.6392.6392,0,0,0,.17-.37,11.0819,11.0819,0,0,0,.0771-1.4629c0-.0151-.0312-.0923-.0625-.0766a8.683,8.683,0,0,0-1.416.5234.7966.7966,0,0,0-.3847.77.894.894,0,0,0,.9238.8623A1.0541,1.0541,0,0,0,230.335,87.1111Z"/><path class="cls-2" d="M233.6924,87.2186a1.7313,1.7313,0,0,1-.1846-.8775v-3.187c0-.1694-.0156-.2768-.0771-.3081a2.5292,2.5292,0,0,0-.3692-.0923c-.123-.0307-.2-.0766-.2-.1386,0-.0308.0157-.0767.1846-.1539a3.28,3.28,0,0,0,1.2627-1.0312c.1387-.1543.2461-.1235.2461-.0464,0,.1387-.03.57-.0147.7544,0,.0464.0147.1387.0762.1387.2774,0,1.5557-.0464,1.8789-.0464.03,0,.0918.1079.0918.2158,0,.2617-.0762.3848-.1533.3848-.5391,0-1.294-.0157-1.709-.0157-.1846,0-.2158.0464-.2158.1387,0,.2617.0156,2.6792.0312,3.1563a1.5791,1.5791,0,0,0,.169.8315,1.1378,1.1378,0,0,0,.9541.4155,1.5079,1.5079,0,0,0,.8476-.2309c.1075-.0767.1534-.0615.1534,0,0,.0923-.1387.2466-.3389.4a2.11,2.11,0,0,1-1.2471.4A1.4269,1.4269,0,0,1,233.6924,87.2186Z"/><path class="cls-2" d="M237.3271,82.6922c0-.0459.0616-.0771.1846-.1079a3.0628,3.0628,0,0,0,1.0469-.4614.4436.4436,0,0,1,.23-.0928c.0468,0,.0771.0615.0771.1543,0,.1689-.0156.6,0,.7544,0,.0615.0156.1382.0772.0923a3.2372,3.2372,0,0,1,1.9091-.8931,1.5758,1.5758,0,0,1,1.5391.97.1036.1036,0,0,0,.1084.0308,3.0872,3.0872,0,0,1,2.1094-1.0474,1.5871,1.5871,0,0,1,1.5547,1.14,5.0242,5.0242,0,0,1,.1845,1.4472c.0157.5078.0469,1.6783.0616,2.2168.0156.5083.1084.6157.4462.6778.2159.0459.2774.0922.2774.1381,0,.0772-.0772.108-.2617.108-.169,0-.708-.0308-1.0625-.0308-.3692,0-.708.0464-.9385.0464-.2,0-.3086-.0308-.3086-.0928,0-.0767.1387-.123.2617-.1538.4473-.0923.5235-.231.5235-.6929a19.5381,19.5381,0,0,0-.1075-3.0483,1.1924,1.1924,0,0,0-1.2929-1.1548,1.9227,1.9227,0,0,0-1.3086.57.7513.7513,0,0,0-.1084.4927c.0312.4312.0771,2.7866.1084,3.2021.0459.4312.0918.5391.4765.6314.17.0615.2471.0771.2471.1387s-.0928.0923-.2617.0923c-.2774,0-.7393-.0308-1.1856-.0308-.3388,0-.7089.0308-.8779.0308s-.2461-.0308-.2461-.0923c0-.0464.0772-.1079.2774-.1538.3232-.0621.4765-.1387.4765-.5083l.0156-2.4634c0-.8467-.0771-1.2007-.3847-1.54a1.1766,1.1766,0,0,0-.94-.3388,1.7419,1.7419,0,0,0-1.1543.4467.5579.5579,0,0,0-.1845.3692,9.42,9.42,0,0,0-.0616,1.0469c0,1.14.0616,2.2172.0918,2.4946a.5256.5256,0,0,0,.4932.5078c.1689.0308.2305.0771.2305.123,0,.0772-.1231.108-.2305.108-.293,0-.8008-.0308-1.17-.0308-.4776,0-.8008.0308-1.001.0308-.1387,0-.2773-.0464-.2773-.108s.0927-.1074.3076-.1381c.4775-.108.4775-.2774.5088-.462.0615-.3237.0615-1.5708.0615-2.4633,0-.57.0146-.9546-.0156-1.2471a.582.582,0,0,0-.3545-.5391c-.1075-.0615-.1387-.0923-.1387-.1694Z"/><path class="cls-2" d="M252.5723,83.6624a.181.181,0,0,1-.1543.169c-.1231-.0152-2.125-.0459-2.4785-.0459h-.8311c-.0313,0-.1084.0771-.1387.123a2.1169,2.1169,0,0,0-.123.8467,2.76,2.76,0,0,0,.708,1.8633,2.0773,2.0773,0,0,0,1.5391.6308,1.9633,1.9633,0,0,0,1.4628-.4926c.1231-.1231.1846-.0923.1846-.0152a.585.585,0,0,1-.1533.2461,2.7223,2.7223,0,0,1-2.1406.97,2.4859,2.4859,0,0,1-1.8321-.7851,3.0107,3.0107,0,0,1-.7392-2.063,3.21,3.21,0,0,1,.8935-2.2481,2.863,2.863,0,0,1,1.9239-.77A1.7769,1.7769,0,0,1,252.5723,83.6624Zm-3.1407-.7851a1.3435,1.3435,0,0,0-.3232.6308.0657.0657,0,0,0,.0615.0615l2.001-.0151c.3389,0,.3691-.1694.3691-.3081a.9921.9921,0,0,0-.2148-.6465,1.08,1.08,0,0,0-.77-.2925A1.5961,1.5961,0,0,0,249.4316,82.8773Z"/><path class="cls-2" d="M258.2852,82.6151a3.2191,3.2191,0,0,1,.4921,2.017c0,.816.0157.939.0157,1.709.0156,1.0469.0615,1.1392.4775,1.2471.1387.0615.23.0923.23.1538,0,.0928-.1231.1079-.2774.1079-.2,0-.6465-.0615-.9853-.0615-.5235,0-.7237.0615-.9541.0615-.1387,0-.2461-.0307-.2461-.0923s.0918-.123.292-.1694c.37-.0923.4316-.2.4316-.6465V84.848c0-1.2476-.1084-1.6167-.4931-1.9092a1.3656,1.3656,0,0,0-.877-.2925,1.8415,1.8415,0,0,0-1.2012.4927.7921.7921,0,0,0-.1845.4614c0,.1851.0146.97.0146,1.894a12.5357,12.5357,0,0,0,.0928,1.6167c.0459.3384.23.4156.4775.4927.1846.0459.2617.0767.2617.1538,0,.0923-.1543.0923-.3086.0923-.123,0-.8769-.0615-1.2314-.0615-.2,0-.5234.0308-.8154.0308-.17,0-.293-.0308-.293-.108,0-.0615.1387-.123.3232-.1538.3848-.0771.4463-.1845.462-.4926.0312-1.1084.0312-2.5249.0312-3.772,0-.1538-.0312-.3233-.4-.5235-.0928-.0615-.123-.0922-.123-.1386,0-.0308.0761-.0772.2148-.1231a5.7877,5.7877,0,0,0,1.2168-.5234c.0459-.0156.1231.0459.1074.123a6.857,6.857,0,0,0-.03.816c0,.0307.0459.0771.0761.0463a5.3235,5.3235,0,0,1,1.0938-.6928,2.0838,2.0838,0,0,1,.9082-.1851A1.5741,1.5741,0,0,1,258.2852,82.6151Z"/><path class="cls-2" d="M260.9033,87.2186a1.7325,1.7325,0,0,1-.1845-.8775v-3.187c0-.1694-.0157-.2768-.0772-.3081a2.5273,2.5273,0,0,0-.3691-.0923c-.1231-.0307-.2-.0766-.2-.1386,0-.0308.0156-.0767.1845-.1539A3.28,3.28,0,0,0,261.52,81.43c.1387-.1543.2461-.1235.2461-.0464,0,.1387-.03.57-.0146.7544,0,.0464.0146.1387.0761.1387.2774,0,1.5557-.0464,1.879-.0464.03,0,.0918.1079.0918.2158,0,.2617-.0762.3848-.1534.3848-.539,0-1.2939-.0157-1.709-.0157-.1845,0-.2158.0464-.2158.1387,0,.2617.0157,2.6792.0313,3.1563a1.5784,1.5784,0,0,0,.1689.8315,1.1378,1.1378,0,0,0,.9541.4155,1.5083,1.5083,0,0,0,.8477-.2309c.1074-.0767.1533-.0615.1533,0,0,.0923-.1387.2466-.3389.4a2.11,2.11,0,0,1-1.247.4A1.4271,1.4271,0,0,1,260.9033,87.2186Z"/><path class="cls-2" d="M216.9668,93.4886c.3232,0,.4316.0771.4316.185.03.2154.0772.8926.1075,1.0777.0312.1538,0,.2925-.0772.2925-.0615,0-.1074-.1079-.1846-.3081a1.248,1.248,0,0,0-1.1543-.8775c-.4931-.0464-1.1552-.0464-2.5556-.0464-.1084,0-.2158.2-.2158.2774-.0157.4311-.0459,2.2016-.0157,3.9721a.1886.1886,0,0,0,.1387.1846c1.57,0,2.31-.0151,2.5557-.0459.2158-.0307.4306-.0771.6621-.6006.0771-.1538.123-.2153.1689-.2153.0615,0,.0928.0767.0772.231-.0157.1694-.0772.6308-.0772.9545a7.2917,7.2917,0,0,0,.0615.7388c0,.2-.03.2617-.1074.2617-.0615,0-.123-.123-.2158-.3388-.123-.3384-.2764-.4927-.4619-.5386a16.4113,16.4113,0,0,0-2.6631-.0772.3059.3059,0,0,0-.1543.2c-.0146.2774.0156,2.6792.0469,3.3716.0146.5855.1074.6778.8154.8472.1231.0307.2158.0766.2158.1382,0,.0927-.17.1079-.3232.1079-.2158,0-.8779-.0923-1.5088-.0923-.585,0-.97.0615-1.1855.0615-.1387,0-.2461-.0307-.2461-.1079,0-.0615.0761-.1074.2763-.1538.585-.123.6621-.2461.6934-.8159.0459-.5083.0459-2.417.0459-4.1109,0-1.6318,0-2.5712-.0459-3.51-.0313-.5542-.0772-.6929-.6318-.8316-.1377-.0307-.2461-.0766-.2461-.1538,0-.0615.0927-.0923.2314-.0923.1846,0,1.0313.0616,1.709.0616C214.75,93.535,216.3818,93.4886,216.9668,93.4886Z"/><path class="cls-2" d="M221.3105,98.2772a3.7332,3.7332,0,0,1,.2149,1.4008c0,.57-.0459,2.0323-.0459,2.4327a.5275.5275,0,0,0,.5693.5849.9851.9851,0,0,0,.4473-.1387c.0918-.0459.1533,0,.0918.1387a1.2968,1.2968,0,0,1-1.1856.6621,1.0345,1.0345,0,0,1-.9082-.6928.0541.0541,0,0,0-.0771-.0157,2.1544,2.1544,0,0,1-1.5088.6929,1.2773,1.2773,0,0,1-1.2314-1.3237,1.0878,1.0878,0,0,1,.5537-.878c.37-.2,1.7715-.6157,2.0947-.7387a.292.292,0,0,0,.2-.231,5.3045,5.3045,0,0,0,.03-.7085c0-.6308-.1075-1.062-.3692-1.2622a1.1749,1.1749,0,0,0-.6465-.2466,1.06,1.06,0,0,0-.6162.1851.62.62,0,0,0-.2314.3691,1.67,1.67,0,0,0-.0147.293.1923.1923,0,0,1-.0615.123,3.329,3.329,0,0,1-.7236.3389c-.0772.0151-.1543-.0771-.1543-.1387,0-.1079.1074-.2465.2929-.4619a3.9822,3.9822,0,0,1,1.17-.893,2.0661,2.0661,0,0,1,.9238-.2774A1.2626,1.2626,0,0,1,221.3105,98.2772Zm-1.0322,4.2338a.64.64,0,0,0,.17-.37,11.0782,11.0782,0,0,0,.0772-1.4629c0-.0151-.0313-.0923-.0625-.0766a8.68,8.68,0,0,0-1.416.5234.7966.7966,0,0,0-.3848.77.8941.8941,0,0,0,.9238.8623A1.0537,1.0537,0,0,0,220.2783,102.511Z"/><path class="cls-2" d="M224.0986,100.14a2.5888,2.5888,0,0,0,.77,2.0014,2.188,2.188,0,0,0,1.4316.5386,2.0657,2.0657,0,0,0,1.6016-.585c.03-.0307.1074-.0459.1074,0a.404.404,0,0,1-.1231.2466,2.6622,2.6622,0,0,1-2.125,1.0161,2.8044,2.8044,0,0,1-1.9238-.7544,2.9,2.9,0,0,1-.7705-2.0786,2.9417,2.9417,0,0,1,.94-2.14,3.3762,3.3762,0,0,1,2.2783-.8931,2.3431,2.3431,0,0,1,1.4013.3853.3545.3545,0,0,1,.2159.2925.5263.5263,0,0,1-.3848.4926.4708.4708,0,0,1-.2617-.1543,4.2529,4.2529,0,0,0-.8623-.6308,1.3854,1.3854,0,0,0-.585-.1236C225.16,97.7532,224.0986,98.3694,224.0986,100.14Z"/><path class="cls-2" d="M228.9492,97.9383a7.6457,7.6457,0,0,0,1.1084-.4.6257.6257,0,0,1,.2315-.1079c.0459,0,.0761.0464.0615.2158-.0313.3076-.0313,1.2471-.0313,2.2324,0,1.293,0,2.4327.0313,2.6944.03.3076.1846.3847.4306.4463.1543.0307.2315.0615.2315.123,0,.0772-.124.1079-.2471.1079-.1386,0-.708-.0615-1.124-.0615-.5078,0-.7539.0308-.9238.0308-.1074,0-.2149-.0308-.2149-.0923s.0772-.1079.292-.1387c.3389-.0923.4776-.2153.4932-.8467.0156-.4619.0459-3.2641.0459-3.418,0-.2158-.0156-.3081-.4463-.539-.0772-.0459-.1231-.0923-.1231-.1231C228.7646,98.0154,228.8105,97.9691,228.9492,97.9383Zm1.54-2.51a.5866.5866,0,0,1-.57.585.5477.5477,0,0,1-.5078-.5693.5713.5713,0,0,1,.5391-.6006A.5636.5636,0,0,1,230.4893,95.4285Z"/><path class="cls-2" d="M233.5068,99.4471c0,1.94.0157,2.6636.0313,2.956.0146.4156.1074.5235.5381.6006.0927.0152.2.0615.2.1074,0,.0616-.1075.108-.3076.108-.2461,0-.8008-.0308-1.0626-.0308-.4,0-.8007.0308-1.0312.0308-.1846,0-.2617-.0152-.2617-.0923s.0771-.0923.2773-.1387c.3848-.0772.4766-.2153.5381-.8931.0313-.5693.0928-3.1714.1084-5.019,0-1.2471.0156-2.51,0-3.187,0-.3389-.0312-.4156-.4316-.6621-.1075-.0616-.1534-.0923-.1534-.1382s.0918-.0928.2305-.1236a7.9617,7.9617,0,0,0,1.1553-.354.6394.6394,0,0,1,.1846-.0463c.03,0,.0459.0927.0459.1694,0,.1079-.0616,2.7715-.0616,5.081Z"/><path class="cls-2" d="M235.4629,97.9383a7.65,7.65,0,0,0,1.1084-.4.6256.6256,0,0,1,.2314-.1079c.0459,0,.0762.0464.0616.2158-.0313.3076-.0313,1.2471-.0313,2.2324,0,1.293,0,2.4327.0313,2.6944.03.3076.1845.3847.4306.4463.1543.0307.2315.0615.2315.123,0,.0772-.1241.1079-.2471.1079-.1387,0-.708-.0615-1.124-.0615-.5078,0-.7539.0308-.9239.0308-.1074,0-.2148-.0308-.2148-.0923s.0772-.1079.292-.1387c.3389-.0923.4775-.2153.4932-.8467.0156-.4619.0459-3.2641.0459-3.418,0-.2158-.0157-.3081-.4463-.539-.0772-.0459-.1231-.0923-.1231-.1231C235.2783,98.0154,235.3242,97.9691,235.4629,97.9383Zm1.54-2.51a.5865.5865,0,0,1-.57.585.5477.5477,0,0,1-.5078-.5693.5713.5713,0,0,1,.5391-.6006A.5635.5635,0,0,1,237.0029,95.4285Z"/><path class="cls-2" d="M238.9736,102.6185a1.7325,1.7325,0,0,1-.1845-.8775V98.554c0-.1694-.0157-.2768-.0772-.3081a2.5273,2.5273,0,0,0-.3691-.0923c-.1231-.0307-.2-.0766-.2-.1382,0-.0312.0156-.0771.1845-.1543A3.28,3.28,0,0,0,239.59,96.83c.1387-.1543.2461-.1235.2461-.0464,0,.1387-.03.57-.0146.7544,0,.0464.0146.1387.0762.1387.2773,0,1.5556-.0464,1.8789-.0464.03,0,.0918.1079.0918.2158,0,.2617-.0762.3848-.1534.3848-.539,0-1.2939-.0157-1.7089-.0157-.1846,0-.2159.0464-.2159.1387,0,.2617.0157,2.6792.0313,3.1563a1.5794,1.5794,0,0,0,.1689.8315,1.1378,1.1378,0,0,0,.9541.4155,1.5083,1.5083,0,0,0,.8477-.2309c.1074-.0772.1533-.0615.1533,0,0,.0923-.1387.2466-.3389.4a2.11,2.11,0,0,1-1.247.4A1.4272,1.4272,0,0,1,238.9736,102.6185Z"/><path class="cls-2" d="M244.4258,97.63c.1533,0,.2617.0464.2617.1079s-.1084.1079-.2.123c-.3389.108-.37.1851-.2314.585.2.5391,1.0468,2.6177,1.3554,3.2642.03.0615.0762.0464.0918,0,.2-.5235,1.0625-2.7408,1.1856-3.0948a1.1517,1.1517,0,0,0,.0771-.4462c0-.108-.0771-.231-.3388-.3082-.2305-.0459-.2774-.0922-.2774-.1386,0-.0616.0772-.0923.2158-.0923.1846,0,.5078.0464.7393.0464.2773,0,.4775-.0464.708-.0464.0928,0,.1846.0156.1846.0615s-.0616.1079-.2149.1543c-.3086.0923-.4619.2-.709.7695-.1845.3853-1.1386,2.7559-1.37,3.3413-.1845.5079-.3232.8619-.6465,1.6934-.3691.8936-.9541,2.4941-1.17,3.0176a2.102,2.102,0,0,1-.293.57.58.58,0,0,1-.5078.2617.5121.5121,0,0,1-.5078-.5088.4546.4546,0,0,1,.4307-.4463c.1084,0,.2.0313.3086.0313a.372.372,0,0,0,.3994-.2617c.1543-.3233.6006-1.586,1.124-2.9258a.6627.6627,0,0,0-.0146-.4927c-.0928-.2466-1.2168-3.0947-1.9092-4.6035a.8258.8258,0,0,0-.5547-.4155c-.1846-.0464-.2773-.1079-.2773-.1543,0-.0767.1386-.1074.247-.1074.2764,0,.708.0615,1.0772.0615C243.8252,97.6766,244.2256,97.63,244.4258,97.63Z"/><path class="cls-1" d="M102.9873,87.5216a1.9275,1.9275,0,0,0-1.69,1.8391l-.0393.7354-.5828-.4487a5.5536,5.5536,0,0,0-4.3608-.85"/><path class="cls-1" d="M102.0833,96.11a1.9274,1.9274,0,0,0-1.69,1.839l-.0393.7355-.5828-.4487a5.5543,5.5543,0,0,0-4.3608-.85"/><path class="cls-1" d="M112.9912,97.2313a1.9275,1.9275,0,0,0-1.69,1.839l-.0392.7355-.5829-.4488a5.5543,5.5543,0,0,0-4.3607-.85"/><line class="cls-1" x1="76.9874" y1="127.1771" x2="151.2139" y2="127.1771"/><line class="cls-1" x1="152.5976" y1="119.9153" x2="203.5576" y2="119.9153"/><line class="cls-1" x1="135.3771" y1="113.9231" x2="135.3771" y2="116.9992"/><line class="cls-1" x1="122.7373" y1="122.069" x2="122.7373" y2="127.1473"/><line class="cls-1" x1="145.2017" y1="122.069" x2="145.2017" y2="127.1473"/><rect class="cls-1" x="132.4186" y="120.5758" width="5.9732" height="6.6051" rx="1"/><line class="cls-1" x1="108.0052" y1="122.069" x2="108.0052" y2="127.1473"/><polyline class="cls-1" points="110.207 119.985 124.654 119.985 135.315 107.918 116.349 107.918 105.688 119.985"/><line class="cls-1" x1="135.4131" y1="107.9348" x2="146.074" y2="120.002"/><line class="cls-1" x1="150.3724" y1="106.694" x2="150.3724" y2="109.7701"/><line class="cls-1" x1="160.1971" y1="114.6723" x2="160.1971" y2="119.7506"/><rect class="cls-1" x="147.4139" y="113.3187" width="5.9732" height="6.6051" rx="1"/><polyline class="cls-1" points="139.649 112.756 150.31 100.689 131.344 100.689 124.883 107.872"/><line class="cls-1" x1="150.4085" y1="100.7057" x2="161.0693" y2="112.7729"/><line class="cls-1" x1="76.9874" y1="127.1771" x2="151.2139" y2="127.1771"/><line class="cls-1" x1="166.9073" y1="102.3066" x2="166.9073" y2="104.7248"/><path class="cls-1" d="M166.74,112.7948h2.0529a.5283.5283,0,0,0,.5283-.5283v-4.1358a.5283.5283,0,0,0-.5283-.5283h-3.6392a.5283.5283,0,0,0-.5283.5283v2.357"/><polyline class="cls-1" points="172.894 104.48 167.154 97.635 182.055 97.635 187.131 103.278"/><line class="cls-1" x1="167.0764" y1="97.648" x2="158.7008" y2="107.1286"/><path class="cls-1" d="M93.4789,114.7179a3.1319,3.1319,0,0,0-6.233,0,2.9541,2.9541,0,0,0-.0031,5.7643c-.0014.036-.0057.0713-.0057.1077a3.1284,3.1284,0,0,0,6.2507,0c0-.0364-.0044-.0717-.0058-.1077"/><line class="cls-1" x1="90.399" y1="118.4476" x2="92.8461" y2="116.2388"/><line class="cls-1" x1="90.2271" y1="119.7423" x2="88.1284" y2="116.9846"/><line class="cls-1" x1="90.2964" y1="116.7591" x2="90.2964" y2="127.2178"/><path class="cls-1" d="M93.55,114.7179a3.1319,3.1319,0,0,1,6.233,0,2.954,2.954,0,0,1,.0031,5.7643c.0014.036.0057.0713.0057.1077a3.1284,3.1284,0,0,1-6.2506,0c0-.0364.0043-.0717.0057-.1077"/><line class="cls-1" x1="96.6303" y1="118.4476" x2="94.1832" y2="116.2388"/><line class="cls-1" x1="96.8023" y1="119.7423" x2="98.9009" y2="116.9846"/><line class="cls-1" x1="96.7329" y1="116.7591" x2="96.7329" y2="127.2178"/><path class="cls-4" d="M187.1863,140.0273a.1528.1528,0,0,0,.1528-.1527V125.3961a.1529.1529,0,0,0-.1528-.1528H175.1554a.1532.1532,0,0,0-.0823.0241c-.1205.0772-2.9248,1.8927-3.8011,4.2275a2.41,2.41,0,0,1-1.6018-.51,1.8889,1.8889,0,0,1-.5544-1.4656"/><path class="cls-4" d="M175.2881,140.0273a.1528.1528,0,0,0,.1528-.1527v-3.8022"/><path class="cls-4" d="M168.4379,129.7934l-2.7424,4.1136a.1525.1525,0,0,0-.0256.0847V135.85a.1527.1527,0,0,0,.1527.1527h6.2608v3.8723a.1528.1528,0,0,0,.1528.1527h1.5923a.1528.1528,0,0,0,.1528-.1527v-3.8281h2.2281"/><path class="cls-4" d="M184.0064,138.3924v1.4862a.1488.1488,0,0,0,.1488.1487h1.5508a.1488.1488,0,0,0,.1488-.1487v-3.8771"/><path class="cls-4" d="M175.2881,136.042h5.6867a2.5665,2.5665,0,0,0,2.5625,2.4991"/><path class="cls-4" d="M188.9683,132.3552v-1.1574a.1528.1528,0,0,0-.0447-.108l-.5229-.5229v-3.8291"/><path class="cls-4" d="M168.2131,131.9128a.1529.1529,0,0,0,.1528.1528h.9118a.1528.1528,0,0,0,.1527-.1528"/><line class="cls-4" x1="178.0747" y1="140.0273" x2="188.8156" y2="140.0273"/><path class="cls-4" d="M165.67,139.8746a.1527.1527,0,0,0,.1527.1527h10.1118"/><line class="cls-4" x1="156.3118" y1="138.5138" x2="156.3118" y2="139.8509"/><line class="cls-4" x1="157.8159" y1="136.6946" x2="157.8159" y2="139.8509"/><line class="cls-4" x1="159.4209" y1="138.5138" x2="159.4209" y2="139.8509"/><line class="cls-4" x1="153.1809" y1="138.5138" x2="153.1809" y2="139.8509"/><line class="cls-4" x1="154.685" y1="136.6946" x2="154.685" y2="139.8509"/><line class="cls-4" x1="156.29" y1="138.5138" x2="156.29" y2="139.8509"/><line class="cls-4" x1="162.5475" y1="138.5138" x2="162.5475" y2="139.8509"/><line class="cls-4" x1="164.0517" y1="136.6946" x2="164.0517" y2="139.8509"/><line class="cls-4" x1="165.6567" y1="138.5138" x2="165.6567" y2="139.8509"/><line class="cls-4" x1="159.4166" y1="138.5138" x2="159.4166" y2="139.8509"/><line class="cls-4" x1="160.9207" y1="136.6946" x2="160.9207" y2="139.8509"/><line class="cls-4" x1="162.5257" y1="138.5138" x2="162.5257" y2="139.8509"/><path class="cls-1" d="M182.8316,106.5015a4.16,4.16,0,0,0-8.2792,0,3.9238,3.9238,0,0,0-.0042,7.6566"/><path class="cls-1" d="M182.82,106.5015a3.9238,3.9238,0,0,1,.0041,7.6566"/><line class="cls-1" x1="178.7406" y1="110.9527" x2="181.991" y2="108.0188"/><line class="cls-1" x1="178.5122" y1="112.6725" x2="175.7246" y2="111.3288"/><line class="cls-1" x1="178.6044" y1="108.7099" x2="178.6044" y2="119.9839"/><path class="cls-1" d="M147.5133,87.6274h15.4226a1.95,1.95,0,0,0,1.53-1.9814,2.0244,2.0244,0,0,0-2.2019-1.9814h-.9211c.2233,0,.3517-1.04.3517-1.6042a3.7416,3.7416,0,0,0-6.28-2.7614,3.8722,3.8722,0,0,0-5.1053-1.5545,5.1983,5.1983,0,0,0-9.3889,3.1086,4.5517,4.5517,0,0,0,.8123,2.8115"/><path class="cls-1" d="M152.604,77.3907c-.5166-3.5612,1.759-8.1263,6.2885-8.9068a7.71,7.71,0,0,1,8.9068,6.2884c.779,4.52-2.7423,8.2025-6.2884,8.9069"/></svg>