<svg id="Layer_1" data-name="Layer 1" xmlns="http://www.w3.org/2000/svg" viewBox="0 0 399 200"><defs><style>.cls-1{fill:#333838;}.cls-2,.cls-3,.cls-4,.cls-6{fill:none;stroke:#222f3c;}.cls-2,.cls-4{stroke-linecap:round;}.cls-2,.cls-4,.cls-6{stroke-linejoin:round;}.cls-2,.cls-3,.cls-6{stroke-width:0.5px;}.cls-3{stroke-miterlimit:10;}.cls-4{stroke-width:0.25px;}.cls-5{fill:#222f3c;}</style></defs><path class="cls-1" d="M181.5415,81.1224c.0391.01.1172.1469.1274.1963,0,.1269.0977.8813.0977.9209,0,.1464-.0293.2446-.0879.2446a.3614.3614,0,0,1-.2842-.2349,1.6338,1.6338,0,0,0-.4214-.6958,1.1459,1.1459,0,0,0-.7836-.2744,1.0187,1.0187,0,0,0-.9991,1.0191c0,.5781.4312.8916,1.3125,1.45,1.2051.7348,1.44,1.3618,1.44,1.9594a1.74,1.74,0,0,1-.8618,1.44A2.9054,2.9054,0,0,1,179.71,87.5a3.7144,3.7144,0,0,1-1.4107-.2544.8425.8425,0,0,1-.2549-.2842,5.5238,5.5238,0,0,1-.1665-1.0483c0-.0684.108-.2056.1568-.2056.0786,0,.2353.2349.3823.5386a1.56,1.56,0,0,0,1.3613.9014,1.0126,1.0126,0,0,0,1.0191-.98c0-.4116-.2056-.8032-1.107-1.3911-.999-.6563-1.538-1.1953-1.538-2.0669a1.69,1.69,0,0,1,.5976-1.2837,2.2666,2.2666,0,0,1,1.5576-.47A6.9817,6.9817,0,0,1,181.5415,81.1224Z"/><path class="cls-1" d="M187.93,81.1126a6.3438,6.3438,0,0,0,.7051.147c.0688,0,.1469.1177.1469.2646.01.2744.0293.6172.0493.9014.01.2056-.059.3721-.1669.3721-.0489,0-.1368-.1177-.1861-.2647a1.4741,1.4741,0,0,0-.4111-.6953,2.2685,2.2685,0,0,0-1.45-.5684c-1.5576,0-2.292,1.2344-2.292,2.7237a3.7438,3.7438,0,0,0,.333,1.6553,2.4312,2.4312,0,0,0,2.1943,1.46,2.0638,2.0638,0,0,0,.95-.2256,2.2038,2.2038,0,0,0,.8521-.8911c.1177-.2158.1865-.3037.2646-.3037.1079,0,.1079.2544.0786.3623a4.625,4.625,0,0,1-.2939.8521.8083.8083,0,0,1-.353.3134,5.23,5.23,0,0,1-1.7139.2842,3.9476,3.9476,0,0,1-2.88-1.1069,3.2288,3.2288,0,0,1-.8227-2.2041,3.1081,3.1081,0,0,1,1.0776-2.3511,4.1453,4.1453,0,0,1,2.645-.8818A5.5394,5.5394,0,0,1,187.93,81.1126Z"/><path class="cls-1" d="M191.9688,83.9144c.666,0,1.9594-.0391,2.9877-.0391.0391,0,.0782-.0981.0879-.2451a16.2059,16.2059,0,0,0-.0195-1.6553c-.0391-.3525-.0879-.4507-.48-.5586-.1377-.039-.2842-.0976-.2842-.1958,0-.0683.0977-.1274.3233-.1274.1269,0,.8525.0293,1.1064.0293.3135,0,.9307-.0391,1.0488-.0391.1856,0,.3038.0488.3038.1275,0,.0981-.0889.1567-.3135.2153-.3526.0786-.4121.2353-.4317.5195-.0488.46-.0781,1.3418-.0781,2.7329,0,.96.0293,1.4693.0391,1.793.01.3818.1084.4111.5.5386.1758.0586.2744.1274.2744.2055,0,.1079-.1377.1372-.3135.1372-.167,0-.6953-.0293-.9892-.0293-.2159,0-1,.0489-1.1954.0489-.2353,0-.333-.0489-.333-.1372s.127-.1665.2647-.2056c.48-.1274.499-.2056.5478-.9307.0293-.3916.0391-1.3125.02-1.5771,0-.0879-.0391-.1275-.0782-.1275-.7832,0-2.7919-.0292-2.9877-.01a.1959.1959,0,0,0-.1275.147c-.0195.3623,0,1.4106.01,1.7241.01.46.0688.6074.47.7251.206.0586.3433.1372.3433.2446.01.0981-.1866.1274-.3135.1274-.0689,0-.8819-.0293-1.2246-.0293-.2256,0-.7251.0391-1.0581.0391-.2549,0-.3428-.0488-.3428-.1274,0-.1075.1079-.1665.2744-.2154.4307-.1176.519-.2251.5679-.6367.039-.3916.0883-1.8515.0883-3.1933,0-.294.02-.833,0-1.2247-.02-.3232-.1079-.4311-.4311-.5292-.2251-.0684-.333-.1368-.333-.2154,0-.0981.1274-.1372.3037-.1372.2646,0,.8032.0391,1.0581.0391.4111,0,.8521-.0293,1.0874-.0293.2056,0,.3233.039.3233.1274,0,.1079-.1275.1665-.3335.2154-.4112.0883-.44.2744-.45.6762-.02.3526-.0591,1.4888-.03,1.6748C191.8608,83.8655,191.9,83.9144,191.9688,83.9144Z"/><path class="cls-1" d="M204.7256,84.13a3.2373,3.2373,0,0,1-1.2344,2.6645,3.7015,3.7015,0,0,1-2.1455.7051,3.449,3.449,0,0,1-2.5464-1.0483,3.2339,3.2339,0,0,1-.8428-2.2432,3.07,3.07,0,0,1,1.2637-2.5469,3.6759,3.6759,0,0,1,2.0864-.7055,3.2454,3.2454,0,0,1,3.415,3.0664C204.7235,84.0581,204.7249,84.094,204.7256,84.13Zm-4.76-2.3316a3.05,3.05,0,0,0-.6855,2.1944c0,1.5083.92,3.1445,2.35,3.1445a1.4,1.4,0,0,0,.999-.4018,3.3583,3.3583,0,0,0,.7549-2.3018,3.8059,3.8059,0,0,0-1.02-2.606,2.16,2.16,0,0,0-1.293-.5288,1.7181,1.7181,0,0,0-1.1057.5Z"/><path class="cls-1" d="M212.5459,84.13a3.2373,3.2373,0,0,1-1.2344,2.6645,3.7017,3.7017,0,0,1-2.1455.7051,3.45,3.45,0,0,1-2.5469-1.0483,3.2339,3.2339,0,0,1-.8427-2.2432,3.07,3.07,0,0,1,1.2636-2.5469,3.6777,3.6777,0,0,1,2.087-.7055,3.2454,3.2454,0,0,1,3.4149,3.0665C212.5438,84.0581,212.5452,84.0941,212.5459,84.13Zm-4.7607-2.3316A3.05,3.05,0,0,0,207.1,83.993c0,1.5083.9209,3.1445,2.3506,3.1445a1.4,1.4,0,0,0,.999-.4018,3.3585,3.3585,0,0,0,.7549-2.3018,3.8069,3.8069,0,0,0-1.02-2.606,2.16,2.16,0,0,0-1.293-.5288,1.72,1.72,0,0,0-1.1063.4995Z"/><path class="cls-1" d="M213.7148,81.1028c.2647,0,.6963.02.98.02.3828,0,1.0586-.0391,1.294-.0391.2246,0,.3037.0488.3037.1177,0,.0884-.1182.1567-.2158.186-.5293.1275-.6074.2744-.6172.3921-.0684.49-.0684,1.479-.0684,2.9287,0,.6763.01,1.48.0489,1.8125.0195.2349.3134.3721.3525.3819a6.2877,6.2877,0,0,0,.8125.0493,3.9736,3.9736,0,0,0,.706-.0493.5923.5923,0,0,0,.3038-.1372,3.8681,3.8681,0,0,0,.6171-.7637.3978.3978,0,0,1,.2647-.1963c.0684,0,.0781.1079.0391.2646-.1084.3428-.2549.8819-.3135,1.1558a.4546.4546,0,0,1-.2256.1665c-.1476,0-1.0186-.0684-3.0078-.0684-.47,0-1.1455.0586-1.4492.0586-.1769,0-.2941-.039-.2941-.1269,0-.0689.088-.1568.2451-.1865.5381-.0977.627-.274.6758-.7051.0195-.2451.0487-1.2735.0487-2.6841,0-.95,0-1.3325-.01-1.6558-.01-.333-.0585-.49-.51-.5976-.1855-.0488-.2744-.1172-.2744-.186C213.4209,81.1424,213.5391,81.1028,213.7148,81.1028Z"/><path class="cls-2" d="M216.9872,124.7083a.6045.6045,0,0,0,.6028-.6059v-2.9289a.857.857,0,0,0-.8542-.858h-6.4026V97.8463a.8569.8569,0,0,0-.8541-.858H186.3707a.8564.8564,0,0,0-.8535.858v22.4692H179.114a.8564.8564,0,0,0-.8535.858v2.9289a.6039.6039,0,0,0,.6019.6059h.0008"/><line class="cls-2" x1="197.9252" y1="120.2362" x2="197.9252" y2="97.2119"/><path class="cls-3" d="M200.0485,50.438a12.6348,12.6348,0,0,0,4.0968-.7869,8.569,8.569,0,0,1,2.6193-.5655,4.9209,4.9209,0,0,1,2.6844.8811.6506.6506,0,0,0,.9958-.5512V42.428a.65.65,0,0,0-.3529-.5789,3.4975,3.4975,0,0,0-1.6331-.3709,11.1287,11.1287,0,0,0-3.0313.6157,13.5141,13.5141,0,0,1-3.8641.7408h0a6.6615,6.6615,0,0,1-3.1915-.8022.6657.6657,0,0,0-.6409.0184.6566.6566,0,0,0-.3136.5574V55.9849"/><polyline class="cls-2" points="151.788 82.251 151.788 77.723 197.408 55.683 244.062 77.767 244.062 82.312"/><polyline class="cls-2" points="156.402 124.374 156.402 80.625 197.46 60.788 239.448 80.665 239.448 124.429"/><line class="cls-2" x1="269.5405" y1="124.7687" x2="269.5405" y2="115.9993"/><line class="cls-2" x1="269.5405" y1="124.7687" x2="273.7681" y2="124.7687"/><line class="cls-2" x1="265.1774" y1="124.7687" x2="265.1774" y2="115.9993"/><line class="cls-2" x1="265.1774" y1="124.7687" x2="260.9498" y2="124.7687"/><path class="cls-2" d="M279.2386,87.415a16.8,16.8,0,0,0-3.785-2.8409H259.2644a16.8,16.8,0,1,0,19.9742,2.8409Z"/><line class="cls-2" x1="268.102" y1="99.9641" x2="271.1961" y2="102.8384"/><line class="cls-2" x1="265.2974" y1="101.4401" x2="266.6163" y2="100.1213"/><circle class="cls-2" cx="267.4747" cy="99.5336" r="0.7"/><circle class="cls-4" cx="267.3591" cy="99.2944" r="14"/><path class="cls-2" d="M279.2386,111.1739a8.4282,8.4282,0,0,0,11.9188,0"/><path class="cls-2" d="M292.6418,109.6881a1.0411,1.0411,0,1,0,.0009.0009Z"/><path class="cls-2" d="M252.7609,107.576a8.4282,8.4282,0,0,0-11.3342-3.6872"/><path class="cls-2" d="M239.5546,104.8418a1.0573,1.0573,0,1,0,0-.0006Z"/><line class="cls-2" x1="292.6194" y1="109.4451" x2="304.6591" y2="91.1556"/><polyline class="cls-2" points="275.822 77.659 284.159 74.905 267.359 69.171 250.559 74.905 258.95 77.659"/><path class="cls-2" d="M275.7591,74.9046v9.6316h-16.8V74.9144c0-.8022,3.7606-1.453,8.4-1.453s8.4.6508,8.4,1.453Z"/><path class="cls-2" d="M250.5591,74.9046v4.6137"/><path class="cls-5" d="M266.8405,110.3772a.5125.5125,0,0,1,.4622-.5581l.0278-.0019h0a.527.527,0,0,1,.5462.4894h0a.5227.5227,0,0,1-.4824.56l-.0076,0h-.028A.5119.5119,0,0,1,266.8405,110.3772Zm-5.1518-1.0259a.53.53,0,0,1-.3363-.6583h0a.5275.5275,0,0,1,.6647-.3382l.0073.0025h0a.5285.5285,0,0,1,.3363.6577h0a.5249.5249,0,0,1-.5038.3643h0a.7154.7154,0,0,1-.1682-.028Zm10.714-.241a.5216.5216,0,0,1,.244-.6961l.0082-.0039h0a.5252.5252,0,0,1,.6992.2506l0,0,.0007.0015h0a.5292.5292,0,0,1-.2522.6856h0a.4378.4378,0,0,1-.2235.0561h0a.5291.5291,0,0,1-.4765-.2943Zm-15.1109-4.0693a.5248.5248,0,0,1,.1962-.7137h0a.5417.5417,0,0,1,.728.21h0a.5416.5416,0,0,1-.21.7137h0a.5667.5667,0,0,1-.2523.07h0A.5694.5694,0,0,1,257.2918,105.041Zm19.453.2446a.5113.5113,0,0,1-.2994-.6582h0l.0054-.0138h0a.5109.5109,0,0,1,.654-.3069l0,0,.0323.0129h0a.5223.5223,0,0,1,.2939.6719h0a.5271.5271,0,0,1-.49.3357h0A.45.45,0,0,1,276.7448,105.2856Zm-20.927-5.9541h0a.5337.5337,0,0,1,.4621-.5886h0a.5412.5412,0,0,1,.5879.4621h0a.54.54,0,0,1-.4621.5879h-.07a.5372.5372,0,0,1-.5179-.4614Zm22.2289-.0594h0a.5293.5293,0,0,1,.5175-.5325h0a.5327.5327,0,0,1,.5325.5325h0a.5293.5293,0,0,1-.5325.5175h0A.5257.5257,0,0,1,278.0467,99.2721Zm-20.5022-5.0994a.5169.5169,0,0,1-.1169-.7215l.0048-.0065h0a.5162.5162,0,0,1,.7207-.1169h0l.0073.0054h0a.5049.5049,0,0,1,.1315.7017l-.0194.0264h0a.5133.5133,0,0,1-.42.2235h0a.5178.5178,0,0,1-.3081-.1121Zm18.9763-.097h0a.5332.5332,0,0,1,.1121-.7424h0a.5372.5372,0,0,1,.7417.1258h0a.5206.5206,0,0,1-.1229.7259l0,0-.0028.002h0a.476.476,0,0,1-.3083.0984h0A.5179.5179,0,0,1,276.5208,94.0757Zm-15.11-4.0868a.5358.5358,0,0,1,.1538-.728h0a.5233.5233,0,0,1,.7226.1593v0l.0054.0087h0a.5283.5283,0,0,1-.1681.7274h0a.6316.6316,0,0,1-.28.07h0a.5152.5152,0,0,1-.4339-.2375Zm11.2426.1926a.5238.5238,0,0,1-.1727-.72l.0047-.0077h0a.5349.5349,0,0,1,.7279-.1538h0a.5365.5365,0,0,1,.1684.728h0a.56.56,0,0,1-.4485.2379h0a.5051.5051,0,0,1-.28-.0841Zm-5.3644-1.34a.5234.5234,0,0,1-.4213-.6086v0l.0013-.0072h0a.5266.5266,0,0,1,.6146-.42h.0014a.5451.5451,0,0,1,.42.6159h0a.54.54,0,0,1-.5318.42Z"/><path class="cls-6" d="M265.3249,93.8983a1.93,1.93,0,0,1-3.8057,0"/><path class="cls-6" d="M273.5143,93.8983a1.93,1.93,0,0,1-3.8057,0"/><line class="cls-2" x1="142.2755" y1="124.7687" x2="323.4237" y2="124.7687"/><polygon class="cls-3" points="126.511 152.207 126.511 159.32 130.45 159.32 130.912 152.207 126.511 152.207"/><polygon class="cls-3" points="115.69 152.207 116.153 159.32 120.092 159.32 120.092 152.207 115.69 152.207"/><path class="cls-3" d="M134.7482,110.8133c-.431-.1075-.8483-.2232-1.2067-.3482-3.602-1.2564-5.7535-3.11-6.7228-5.1917-1.9754,2.7632-6.4706,4.6942-11.7057,4.6942a27.6255,27.6255,0,0,1-3.0142-.1784,10.7213,10.7213,0,0,0-.4323,3.0093,11.6452,11.6452,0,0,0,23.2693,0A10.7512,10.7512,0,0,0,134.7482,110.8133Z"/><path class="cls-3" d="M126.5107,159.32h4.37a1.648,1.648,0,0,1,1.6478,1.6478v.6591h-6.0179V159.32Z"/><path class="cls-3" d="M120.0915,161.6274h-6.0179v-.6591a1.6477,1.6477,0,0,1,1.6478-1.6478h4.37v2.3069Z"/><polyline class="cls-3" points="123.283 146.94 123.283 152.207 132.127 152.207 132.127 139.412 114.475 139.412 114.475 152.207 123.319 152.207 123.319 146.998"/><path class="cls-3" d="M111.6665,112.7985c0-.1259.0056-.2505.01-.3753a2.1122,2.1122,0,0,0,.1907,4.22h.51"/><path class="cls-3" d="M134.2253,116.6432h.51a2.1122,2.1122,0,0,0,.1907-4.22h0c.0043.1248.01.2494.01.3753"/><path class="cls-3" d="M130.1214,113.6635a1.305,1.305,0,0,1-2.6077,0"/><path class="cls-3" d="M119.0886,113.6635a1.3051,1.3051,0,0,1-2.6078,0"/><path class="cls-3" d="M121.0946,118.9885a2.2085,2.2085,0,0,0,4.4131,0"/><path class="cls-3" d="M136.8005,128.9527a12.2406,12.2406,0,0,0-6.1532-5.8626,3.27,3.27,0,0,0-1.1909-.4408,2.0511,2.0511,0,0,0-.4271-.0467c-.0211,0-.0418.0018-.0627.0024-.0164,0-.0323-.0024-.0488-.0024h-.071a12.1,12.1,0,0,1-11.0913,0h-.0711c-.0165,0-.0323.0022-.0488.0024-.0209-.0006-.0416-.0024-.0626-.0024a2.0528,2.0528,0,0,0-.4272.0467,3.2714,3.2714,0,0,0-1.1909.4408,12.241,12.241,0,0,0-6.1532,5.8626c-.1035.2128-.1982.4279-.2883.6442l3.932.8763a8.2952,8.2952,0,0,1,1.0295-1.5739v10.522h17.6525v-10.522a8.2819,8.2819,0,0,1,1.0294,1.5739l3.932-.8763C136.9988,129.3806,136.904,129.1655,136.8005,128.9527Z"/><path class="cls-3" d="M123.3011,97.2271a12.7839,12.7839,0,0,0-13.0334,12.2921c-.0011.068-.0054.1352-.0054.2034a12.0253,12.0253,0,0,0,.3908,3.041,2.2572,2.2572,0,0,1,1.0233-.341,10.7076,10.7076,0,0,1,.4224-2.6334,27.6757,27.6757,0,0,0,3.0142.1785c5.2351,0,9.73-1.9311,11.7057-4.6944.9693,2.0823,3.1207,3.9354,6.7228,5.1918.3584.125.7757.2407,1.2067.3482a10.7384,10.7384,0,0,1,.1776,1.6093,2.2576,2.2576,0,0,1,1.0233.341,12.1747,12.1747,0,0,0,.3908-3.041A12.7759,12.7759,0,0,0,123.3011,97.2271Z"/><path class="cls-3" d="M134.1375,136.3077a2.2723,2.2723,0,0,1,.9788-.2215,2.2178,2.2178,0,0,1,1.9591,1.1441,11.1329,11.1329,0,0,0-.421-7.5366l-3.056.6811A8.3167,8.3167,0,0,1,134.1375,136.3077Z"/><ellipse class="cls-3" cx="135.1163" cy="138.2008" rx="2.2066" ry="2.1146"/><path class="cls-3" d="M108.6185,135.429a3.2623,3.2623,0,0,0-1.1835-.2317,8.67,8.67,0,0,0,2.4808-5.5294l3.0525.6956A11.3526,11.3526,0,0,1,109.84,137.29,2.1067,2.1067,0,0,0,108.6185,135.429Z"/><ellipse class="cls-3" cx="107.6351" cy="137.322" rx="2.2066" ry="2.1146"/><path class="cls-3" d="M102.18,110.5361c-3.602-1.2564-5.7535-3.11-6.7228-5.1917-1.9754,2.7633-6.4705,4.6943-11.7057,4.6943a17.3418,17.3418,0,0,1-2.9658-.3418,10.7146,10.7146,0,0,0-.4807,3.1726,11.6452,11.6452,0,0,0,23.2693,0,10.761,10.761,0,0,0-.1922-2.01A11.42,11.42,0,0,1,102.18,110.5361Z"/><path class="cls-3" d="M95.1491,159.32h4.37a1.6478,1.6478,0,0,1,1.6478,1.6478v.6591H95.1491Z"/><path class="cls-3" d="M88.73,161.6274H82.7121v-.6591a1.6476,1.6476,0,0,1,1.6476-1.6478h4.37v2.3069Z"/><polygon class="cls-3" points="95.149 152.292 95.149 159.32 99.088 159.32 99.545 152.292 95.149 152.292"/><polygon class="cls-3" points="84.331 152.245 84.791 159.32 88.73 159.32 88.73 152.245 84.331 152.245"/><polygon class="cls-3" points="83.113 139.456 82.222 152.221 101.657 152.221 100.766 139.456 83.113 139.456"/><path class="cls-3" d="M97.6677,122.6737a2.06,2.06,0,0,1,.4272.0466,3.27,3.27,0,0,1,1.1908.4408,12.5559,12.5559,0,0,1,3.27,2.0786,25.7074,25.7074,0,0,0,2.5526-9.3359,2.2362,2.2362,0,0,1-1.7347.81h-.5108"/><path class="cls-3" d="M81.0163,116.7143h-.5108a2.2362,2.2362,0,0,1-1.7372-.8138,25.72,25.72,0,0,0,2.5552,9.3392,12.5559,12.5559,0,0,1,3.27-2.0786,3.27,3.27,0,0,1,1.1909-.4408"/><path class="cls-3" d="M86.2741,122.676c.0164,0,.0324-.0023.0488-.0023h.0712"/><path class="cls-3" d="M80.3049,112.87c0-.1259.0056-.25.01-.3753a2.1122,2.1122,0,0,0,.1907,4.22"/><path class="cls-3" d="M103.3737,116.7143a2.1122,2.1122,0,0,0,.1907-4.22h0c.0043.1249.01.2494.01.3753"/><path class="cls-3" d="M98.76,114.9841a1.305,1.305,0,0,0-2.6077,0"/><path class="cls-3" d="M87.727,114.9841a1.305,1.305,0,0,0-2.6077,0"/><path class="cls-3" d="M89.7329,119.06a2.2086,2.2086,0,0,0,4.4132,0"/><path class="cls-3" d="M83.7518,110.0391c5.2352,0,9.73-1.931,11.7057-4.6943.9693,2.0822,3.1208,3.9353,6.7228,5.1917a11.4191,11.4191,0,0,0,1.2021.3232,10.8585,10.8585,0,0,1,.183,1.635,2.2134,2.2134,0,0,1,1.729,1.0661c.0434-.8043.0671-1.5752.0776-2.2926.0055-.3781.008-.7429.008-1.09,0-7.1135-6.0177-12.88-13.44-12.88a13.2166,13.2166,0,0,0-13.4012,11.9474c-.023.3083-.0388.6186-.0388.9326,0,1.0059.0181,2.1539.0846,3.3837a2.2131,2.2131,0,0,1,1.7279-1.0674,10.7245,10.7245,0,0,1,.4735-2.7975"/><path class="cls-3" d="M80.1244,136.1572a2.2723,2.2723,0,0,1,.9788.2215,8.3161,8.3161,0,0,1,.5391-5.9329l-3.056-.6811a11.1329,11.1329,0,0,0-.421,7.5366A2.2178,2.2178,0,0,1,80.1244,136.1572Z"/><ellipse class="cls-3" cx="80.1244" cy="138.2718" rx="2.2066" ry="2.1146"/><path class="cls-3" d="M105.439,129.0238a12.2406,12.2406,0,0,0-6.1533-5.8627,3.27,3.27,0,0,0-1.1908-.4408,2.06,2.06,0,0,0-.4272-.0466c-.021,0-.0418.0017-.0626.0023-.0165,0-.0324-.0023-.0488-.0023h-.0712a12.1,12.1,0,0,1-11.0911,0h-.0712c-.0164,0-.0324.0021-.0488.0023-.0209-.0006-.0416-.0023-.0626-.0023a2.0585,2.0585,0,0,0-.4271.0466,3.2714,3.2714,0,0,0-1.1909.4408,12.241,12.241,0,0,0-6.1533,5.8627c-.1035.2127-.1982.4278-.2883.6441l3.932.8763a8.2817,8.2817,0,0,1,1.0295-1.5738v10.56h17.6525V128.97a8.2817,8.2817,0,0,1,1.0295,1.5738l3.932-.8763C105.6372,129.4516,105.5425,129.2365,105.439,129.0238Z"/><path class="cls-3" d="M107.8456,135.3064a8.67,8.67,0,0,1-2.4808-5.5294l-3.0524.6956a11.3532,11.3532,0,0,0,3.1281,6.9265"/><line class="cls-2" x1="57.9412" y1="161.6522" x2="150.5945" y2="161.6522"/><path class="cls-2" d="M34.8907,132.5706v3.3371a.6336.6336,0,0,0,.0112.1108l-3.2182,5.9335a.6129.6129,0,0,0-.0718.2733,10.0647,10.0647,0,1,0,6.8488,9.5356c0-.22-.01-.4364-.0236-.6527l5.3531-.0574a.6326.6326,0,0,0,.6051-.5347,20.7014,20.7014,0,0,1,2.3262-6.2075,13.9337,13.9337,0,0,1,10.2433-7.3306m.05-1.3176H36.1272M58.99,141.59a10.0778,10.0778,0,1,0,1.6848.1439.6065.6065,0,0,0-.031-.1012l-2.345-5.594a.6312.6312,0,0,0-.0487-.091v-7.7738a.618.618,0,0,0-.3379-.5508l-5.3731-2.7312M38.2784,149.851h-.0017a10.1,10.1,0,0,0-5.59-7.1932.63.63,0,0,0,.0838-.1168"/><path class="cls-2" d="M51.5011,151.6561a7.4893,7.4893,0,1,0,7.4893-7.4893h0A7.4977,7.4977,0,0,0,51.5011,151.6561Z"/><path class="cls-2" d="M28.397,159.0742a7.3817,7.3817,0,1,0-7.3819-7.3815h0A7.39,7.39,0,0,0,28.397,159.0742Z"/><line class="cls-2" x1="31.1833" y1="131.7052" x2="39.0932" y2="131.7052"/><path class="cls-2" d="M57.844,151.6509a1.1465,1.1465,0,1,0,1.1464-1.1466h0A1.1476,1.1476,0,0,0,57.844,151.6509Z"/><path class="cls-2" d="M28.3947,152.7972a1.1465,1.1465,0,1,0-1.1463-1.1467h0A1.1483,1.1483,0,0,0,28.3947,152.7972Z"/><path class="cls-2" d="M137.5589,136.997s14.4209-3.8459,40.87-12.1821"/><line class="cls-2" x1="197.1114" y1="124.7761" x2="138.6452" y2="147.7824"/><line class="cls-2" x1="217.6877" y1="124.7792" x2="150.7497" y2="161.5163"/><path class="cls-1" d="M293.8418,36.6385a1.6318,1.6318,0,0,1,1.37-1.5088c.0772,0,.1387,0,.1387.0771,0,.0308-.0772.0767-.169.1075-.4619.2466-.8007.5542-.8007,1.0468,0,.3238.1533.5083.5693.6163a.3217.3217,0,0,1,.3076.3232.4445.4445,0,0,1-.4619.4.9947.9947,0,0,1-.9556-1.0325v0Zm1.9092,0a1.6712,1.6712,0,0,1,1.3857-1.5088c.0772,0,.1387.0308.1387.0771,0,.0308-.0615.0767-.1543.1075-.4619.2466-.8154.57-.8154,1.0468,0,.3238.1689.5083.5849.6163a.3336.3336,0,0,1,.3076.3232.4722.4722,0,0,1-.4775.4,1.0071,1.0071,0,0,1-.9706-1.0423Z"/><path class="cls-1" d="M298.3848,35.7918c.37,0,1.0009.0615,1.4629.0615.3388,0,.708-.0307,1.0312-.0307.2158,0,.3076.0459.3076.1079,0,.0766-.0918.123-.2763.1538-.4317.0771-.4317.2617-.3233.5386.6465,1.6015,2.1709,4.8808,3.2178,7.19.0459.1074.1073.0767.1532,0,.4317-.8779.8009-1.6475,1.2168-2.6328a.43.43,0,0,0,.03-.1851c-.2461-.5849-1.2775-2.9253-1.6163-3.664-.4462-.9546-.5694-1.1392-1.0469-1.2627-.2461-.0459-.3232-.1075-.3232-.1846,0-.0464.0917-.0923.2919-.0923.4473,0,.7393.0615,1.294.0615s.9082-.0615,1.2617-.0615c.1543,0,.2617.0308.2617.0923,0,.0771-.0918.123-.292.1694-.416.0767-.5693.2617-.3388.8316.2461.6465.708,1.6933,1.2168,2.8633.0146.0307.0761.0463.123-.0308.3691-.7544.6924-1.4624,1.0156-2.2168.4776-1.124.4619-1.2778-.2-1.4321-.2773-.0616-.3232-.1231-.3232-.1846,0-.0464.0928-.0772.2773-.0772.3848,0,.6309.0464,1.0313.0464.5391,0,.7851-.0615,1.14-.0615.1846,0,.2618.0151.2618.0767,0,.0771-.0772.1235-.293.1694-.5693.1235-.8623.4468-1.37,1.3394-.4.77-1.1543,2.2944-1.416,2.7714a.2645.2645,0,0,0,.0156.1846c.3847.9087,1.0615,2.3711,1.5849,3.5259.0616.1079.1084.0771.1387,0,.7393-1.6011,2.6026-5.9121,2.9258-7.0513.0771-.3388.0615-.6006-.4462-.7544-.2472-.0771-.3389-.1079-.3389-.1694s.0459-.0923.2619-.0923c.4,0,.6152.0615,1.077.0615.4317,0,.8468-.0615,1.1239-.0615.2,0,.2774.0151.2774.0767s-.0772.1235-.3544.1694c-.6466.1694-.9238.4927-1.8935,2.6792-.97,2.1245-2.2168,5.0342-2.9248,6.728-.1084.2617-.1543.354-.2315.354-.1073,0-.1691-.1079-.2616-.354-.3233-.9394-1.2-2.8481-1.6475-3.8335-.03-.062-.0772-.062-.1074-.0156-.585,1.1392-1.4014,2.9409-1.74,3.8335-.0918.2466-.1845.37-.2461.37-.0918,0-.123-.0923-.23-.37-.2-.5078-.6778-1.6318-.878-2.0937-.8466-1.9551-1.8779-4.2339-2.6015-5.7427-.5547-1.2012-.6777-1.478-1.2627-1.5552-.1846-.0151-.3233-.0767-.3233-.1382C298.0771,35.8533,298.1846,35.7918,298.3848,35.7918Z"/><path class="cls-1" d="M315.832,41.3807a.1809.1809,0,0,1-.1543.1689c-.123-.0151-2.125-.0459-2.4785-.0459h-.831c-.0313,0-.1084.0772-.1387.1231a2.1141,2.1141,0,0,0-.1231.8466,2.76,2.76,0,0,0,.7081,1.8633,2.0773,2.0773,0,0,0,1.539.6309,1.9632,1.9632,0,0,0,1.4629-.4927c.1231-.123.1846-.0923.1846-.0151a.5862.5862,0,0,1-.1533.2461,2.7221,2.7221,0,0,1-2.1407.97,2.4853,2.4853,0,0,1-1.832-.7852,3.01,3.01,0,0,1-.7393-2.063,3.21,3.21,0,0,1,.8936-2.248,2.8626,2.8626,0,0,1,1.9238-.77A1.7769,1.7769,0,0,1,315.832,41.3807Zm-3.1406-.7852a1.3435,1.3435,0,0,0-.3232.6309.0657.0657,0,0,0,.0615.0615l2.001-.0151c.3388,0,.3691-.1695.3691-.3081a.9917.9917,0,0,0-.2148-.6465,1.08,1.08,0,0,0-.77-.2925A1.5959,1.5959,0,0,0,312.6914,40.5955Z"/><path class="cls-1" d="M319.1133,40.4105c0-.0459.0615-.0772.1846-.1079a3.0624,3.0624,0,0,0,1.0468-.4615.4439.4439,0,0,1,.2305-.0927c.0469,0,.0771.0615.0771.1542,0,.169-.0156.6,0,.7544,0,.0616.0157.1382.0772.0923a3.2376,3.2376,0,0,1,1.9092-.893,1.5752,1.5752,0,0,1,1.539.97.1037.1037,0,0,0,.1084.0307,3.0878,3.0878,0,0,1,2.1094-1.0473,1.587,1.587,0,0,1,1.5547,1.14,5.026,5.026,0,0,1,.1846,1.4473c.0156.5078.0468,1.6782.0615,2.2168.0156.5083.1084.6157.4463.6777.2158.0459.2773.0923.2773.1382,0,.0772-.0771.1079-.2617.1079-.1689,0-.708-.0307-1.0625-.0307-.3691,0-.708.0463-.9385.0463-.2,0-.3086-.0307-.3086-.0927,0-.0767.1387-.1231.2618-.1538.4472-.0923.5235-.231.5235-.6929a19.5726,19.5726,0,0,0-.1073-3.0484,1.1927,1.1927,0,0,0-1.2256-1.1585c-.0226.0006-.045.0019-.0674.0038a1.9227,1.9227,0,0,0-1.3086.57.7517.7517,0,0,0-.1084.4927c.0313.4311.0772,2.7866.1084,3.2021.0459.4312.0918.5391.4766.6314.17.0615.247.0771.247.1386s-.0928.0923-.2617.0923c-.2773,0-.7392-.0307-1.1855-.0307-.3389,0-.708.0307-.878.0307s-.2461-.0307-.2461-.0923c0-.0464.0772-.1079.2774-.1538.3232-.062.4766-.1387.4766-.5083l.0156-2.4634c0-.8466-.0772-1.2006-.3848-1.54a1.1765,1.1765,0,0,0-.9394-.3389,1.741,1.741,0,0,0-1.1543.4468.5572.5572,0,0,0-.1846.3691,9.4891,9.4891,0,0,0-.0615,1.0469c0,1.14.0615,2.2173.0918,2.4946a.5256.5256,0,0,0,.4931.5079c.169.0307.23.0771.23.123,0,.0772-.123.1079-.23.1079-.2929,0-.8008-.0307-1.1709-.0307-.4765,0-.8.0307-1,.0307-.1386,0-.2773-.0464-.2773-.1079s.0928-.1074.3076-.1382c.4775-.1079.4775-.2773.5088-.4619.0615-.3237.0615-1.5708.0615-2.4634,0-.57.0147-.9546-.0156-1.247a.5818.5818,0,0,0-.3545-.5391c-.1074-.0615-.1387-.0923-.1387-.1694Z"/><path class="cls-1" d="M329.877,40.2567a7.6762,7.6762,0,0,0,1.1084-.4.6229.6229,0,0,1,.2314-.1079c.0459,0,.0762.0463.0615.2158-.0312.3076-.0312,1.247-.0312,2.2324,0,1.293,0,2.4326.0312,2.6943.03.3076.1846.3848.4307.4463.1543.0308.2314.0615.2314.1231,0,.0771-.124.1079-.247.1079-.1387,0-.708-.0615-1.1241-.0615-.5078,0-.7539.0307-.9238.0307-.1074,0-.2148-.0307-.2148-.0923s.0771-.1079.292-.1386c.3388-.0923.4775-.2154.4931-.8467.0156-.4619.0459-3.2642.0459-3.418,0-.2153-.0156-.3081-.4463-.5391-.0771-.0459-.123-.0922-.123-.123C329.6924,40.3333,329.7383,40.2874,329.877,40.2567Zm1.54-2.51a.5864.5864,0,0,1-.57.5849.5478.5478,0,0,1-.5078-.5693.571.571,0,0,1,.539-.6006.5637.5637,0,0,1,.5388.5852Z"/><path class="cls-1" d="M333.7881,40.9954c0,.647.5849,1.0161.9707,1.2471,1,.647,1.4,1.0317,1.4,1.8169a1.58,1.58,0,0,1-.8008,1.2934,2.5535,2.5535,0,0,1-1.2314.3384,3.1379,3.1379,0,0,1-1.216-.2768c-.1229-.0464-.2315-.1543-.2315-.2466,0-.2153-.03-.6-.0459-.77-.0313-.2.0156-.2466.0459-.2466.0459,0,.0928,0,.2.2925a1.5013,1.5013,0,0,0,.6466.8315,1.18,1.18,0,0,0,.6933.1846,1.0556,1.0556,0,0,0,1.001-1.0313c0-.5849-.4-.9087-1.0166-1.2934-.6621-.4312-1.2783-1-1.2783-1.6783a1.46,1.46,0,0,1,.5859-1.2163,1.9874,1.9874,0,0,1,1.293-.4311,3.7651,3.7651,0,0,1,1.0469.1694.2534.2534,0,0,1,.0771.1387c.0156.1694.0772.4775.0918.7236,0,.1694-.03.2466-.0762.2466-.0625,0-.0927-.0772-.1386-.1851a1.1713,1.1713,0,0,0-.37-.6313,1.2625,1.2625,0,0,0-.7236-.231.8974.8974,0,0,0-.9249.8689C333.7857,40.9379,333.7862,40.9667,333.7881,40.9954Z"/><path class="cls-1" d="M338.1611,40.9954c0,.647.585,1.0161.9707,1.2471,1,.647,1.4,1.0317,1.4,1.8169a1.58,1.58,0,0,1-.8008,1.2934,2.5535,2.5535,0,0,1-1.2314.3384,3.137,3.137,0,0,1-1.2158-.2768c-.1231-.0464-.2315-.1543-.2315-.2466,0-.2153-.03-.6-.0459-.77-.0312-.2.0157-.2466.0459-.2466.0459,0,.0928,0,.2.2925a1.5024,1.5024,0,0,0,.6465.8315,1.18,1.18,0,0,0,.6934.1846,1.0557,1.0557,0,0,0,1.001-1.0313c0-.5849-.4-.9087-1.0167-1.2934-.6621-.4312-1.2783-1-1.2783-1.6783a1.46,1.46,0,0,1,.586-1.2163,1.9873,1.9873,0,0,1,1.2929-.4311,3.7645,3.7645,0,0,1,1.0469.1694.253.253,0,0,1,.0772.1387c.0156.1694.0771.4775.0918.7236,0,.1694-.03.2466-.0762.2466-.0625,0-.0928-.0772-.1387-.1851a1.1691,1.1691,0,0,0-.37-.6313,1.2627,1.2627,0,0,0-.7236-.231.8975.8975,0,0,0-.9249.8691C338.1588,40.938,338.1592,40.9668,338.1611,40.9954Z"/><path class="cls-1" d="M344.4141,44.9368a1.7312,1.7312,0,0,1-.1846-.8774v-3.187c0-.1695-.0156-.2769-.0772-.3081a2.5061,2.5061,0,0,0-.3691-.0923c-.123-.0308-.2-.0767-.2-.1387,0-.0307.0156-.0766.1846-.1538a3.2848,3.2848,0,0,0,1.2627-1.0312c.1386-.1543.2461-.1236.2461-.0464,0,.1386-.03.57-.0149.7544,0,.0463.0149.1386.0763.1386.2774,0,1.5556-.0464,1.8789-.0464.03,0,.0918.108.0918.2159,0,.2617-.0762.3847-.1532.3847-.5391,0-1.294-.0156-1.7091-.0156-.1847,0-.2157.0464-.2157.1387,0,.2617.0155,2.6792.031,3.1562a1.5808,1.5808,0,0,0,.1691.8316,1.1375,1.1375,0,0,0,.9541.4155,1.5085,1.5085,0,0,0,.8476-.231c.1073-.0766.1532-.0615.1532,0,0,.0923-.1386.2466-.3388.4a2.1119,2.1119,0,0,1-1.2471.4A1.4267,1.4267,0,0,1,344.4141,44.9368Z"/><path class="cls-1" d="M349.5576,40.9188a.7725.7725,0,0,0-.1543.5693,30.3634,30.3634,0,0,0,.0772,3.31.544.544,0,0,0,.4922.5235c.2314.0459.3388.0766.3388.1538,0,.0464-.0918.0923-.23.0923-.4317,0-.8321-.0615-1.2784-.0615-.4775,0-.708.0615-1.0009.0615-.169,0-.2461-.0308-.2461-.0923s.0615-.0923.2461-.1387c.4472-.1079.5546-.1538.57-.7388.0459-.6162.0615-2.0322.0615-4.48,0-2.3247.03-3.2642,0-3.8491-.0156-.4927-.1231-.5386-.4619-.7237-.0615-.0459-.1084-.0766-.1084-.123s.0928-.0923.2617-.1387a6.3947,6.3947,0,0,0,1.124-.3691.3351.3351,0,0,1,.1543-.062c.0458,0,.0928.1079.0772.3237-.0157.4155-.0772,5.1885-.0617,5.4809,0,.0616.0459.0767.0617.0459a5.0508,5.0508,0,0,1,.9238-.6313,2.4187,2.4187,0,0,1,1.077-.2617,1.64,1.64,0,0,1,1.3858.6928,2.97,2.97,0,0,1,.3389,1.6475c.0155,1.1548.0155,2.1094.0311,2.6943,0,.3081.0615.4156.5235.4927.2.0464.246.0772.246.1387s-.1073.1079-.246.1079c-.4,0-.6933-.0771-1.1084-.0771-.5235,0-.6474.0615-1.0008.0615-.1846,0-.2461-.0459-.2461-.0923,0-.0615.0761-.0923.23-.1231.4161-.0927.4463-.2.5079-.6469.0312-.354.0615-1.0313.0615-2.6324a2.4681,2.4681,0,0,0-.23-1.1547,1.1526,1.1526,0,0,0-1.0625-.57A1.8584,1.8584,0,0,0,349.5576,40.9188Z"/><path class="cls-1" d="M359.3975,41.3807a.1809.1809,0,0,1-.1543.1689c-.1231-.0151-2.125-.0459-2.4786-.0459h-.831c-.0313,0-.1084.0772-.1387.1231a2.1142,2.1142,0,0,0-.124.8466,2.7607,2.7607,0,0,0,.709,1.8633,2.0773,2.0773,0,0,0,1.539.6309,1.9632,1.9632,0,0,0,1.4629-.4927c.1231-.123.1846-.0923.1846-.0151a.5862.5862,0,0,1-.1533.2461,2.7219,2.7219,0,0,1-2.1406.97,2.4857,2.4857,0,0,1-1.8321-.7852,3.0108,3.0108,0,0,1-.7392-2.063,3.21,3.21,0,0,1,.8935-2.248,2.863,2.863,0,0,1,1.9239-.77A1.7769,1.7769,0,0,1,359.3975,41.3807Zm-3.1407-.7852a1.3435,1.3435,0,0,0-.3232.6309.0657.0657,0,0,0,.0615.0615l2.001-.0151c.3389,0,.3691-.1695.3691-.3081a.9917.9917,0,0,0-.2148-.6465,1.08,1.08,0,0,0-.77-.2925A1.5959,1.5959,0,0,0,356.2568,40.5955Z"/><path class="cls-1" d="M360.3232,40.4105c0-.0459.0616-.0772.1846-.1079a3.0628,3.0628,0,0,0,1.0469-.4615.4431.4431,0,0,1,.23-.0927c.0468,0,.0771.0615.0771.1542,0,.169-.0156.6,0,.7544,0,.0616.0156.1382.0772.0923a3.2376,3.2376,0,0,1,1.9091-.893,1.5756,1.5756,0,0,1,1.5391.97.1035.1035,0,0,0,.1084.0307,3.0875,3.0875,0,0,1,2.1094-1.047,1.5871,1.5871,0,0,1,1.5547,1.14,5.0225,5.0225,0,0,1,.1845,1.4473c.0157.5078.0469,1.6782.0615,2.2168.0157.5083.1084.6157.4463.6777.2159.0459.2774.0923.2774.1382,0,.0772-.0772.1079-.2617.1079-.169,0-.708-.0307-1.0625-.0307-.3692,0-.708.0463-.9385.0463-.2,0-.3086-.0307-.3086-.0927,0-.0767.1387-.1231.2617-.1538.4473-.0923.5235-.231.5235-.6929a19.5481,19.5481,0,0,0-.1075-3.0484,1.1924,1.1924,0,0,0-1.2254-1.1585h0q-.0337.0009-.0675.0038a1.9223,1.9223,0,0,0-1.3086.57.7505.7505,0,0,0-.1084.4927c.0312.4311.0771,2.7866.1084,3.2021.0459.4312.0918.5391.4765.6314.17.0615.2471.0771.2471.1386s-.0928.0923-.2617.0923c-.2774,0-.7393-.0307-1.1856-.0307-.3388,0-.709.0307-.8779.0307s-.2461-.0307-.2461-.0923c0-.0464.0772-.1079.2774-.1538.3232-.062.4765-.1387.4765-.5083l.0156-2.4634c0-.8466-.0771-1.2006-.3847-1.54a1.1766,1.1766,0,0,0-.94-.3389,1.742,1.742,0,0,0-1.1543.4468.5571.5571,0,0,0-.1845.3691,9.39,9.39,0,0,0-.0616,1.0469c0,1.14.0616,2.2173.0918,2.4946a.5257.5257,0,0,0,.4932.5079c.1689.0307.2305.0771.2305.123,0,.0772-.1232.1079-.2305.1079-.293,0-.8009-.0307-1.17-.0307-.4776,0-.8008.0307-1.001.0307-.1387,0-.2773-.0464-.2773-.1079s.0927-.1074.3076-.1382c.4775-.1079.4775-.2773.5088-.4619.0615-.3237.0615-1.5708.0615-2.4634,0-.57.0146-.9546-.0156-1.247a.5818.5818,0,0,0-.3545-.5391c-.1075-.0615-.1387-.0923-.1387-.1694Z"/><path class="cls-1" d="M301.6641,61.8909a1.6138,1.6138,0,0,1-.293-.9394c0-.5078,0-3.11-.03-3.3716a.5992.5992,0,0,0-.3388-.5083c-.1387-.0923-.1846-.1382-.1846-.1846s.0771-.0771.2461-.0771a5.395,5.395,0,0,0,1.2929-.2c.0469-.0152.0928.0771.0772.1694-.0459.8779-.0615,2.9717-.0459,3.68a1.7077,1.7077,0,0,0,.2305,1.0161,1.1314,1.1314,0,0,0,.8623.3853,1.7255,1.7255,0,0,0,1.3086-.4927.943.943,0,0,0,.2773-.7085c.0313-.4155.0313-1.0161.0313-1.57,0-.231-.0157-.9546-.0157-1.355-.0156-.5234-.1689-.6006-.6777-.708-.1689-.0308-.2461-.0772-.2461-.1231,0-.062.1387-.0927.2315-.0927h.6466a8.1671,8.1671,0,0,0,1.0625-.0923c.0459,0,.0762.0615.0616.1694-.0772.7237-.1084,2.2632-.1084,4.0493a5.0736,5.0736,0,0,0,.0312.7852c.03.1538.0772.1846.2.1694a4.2775,4.2775,0,0,1,.6309-.1386.1849.1849,0,0,1,.1845.1694c0,.0615-.1386.0923-.292.123a6.93,6.93,0,0,0-1.5859.4156c-.123.0615-.1543.0464-.1846,0s-.0312-.1231-.0312-.2925c0-.1538.0156-.4927.0156-.6,0-.0464-.0156-.1543-.0459-.1079a4.4356,4.4356,0,0,1-1.0625.7544,2.64,2.64,0,0,1-.9082.2309A1.5141,1.5141,0,0,1,301.6641,61.8909Z"/><path class="cls-1" d="M312.6592,57.38a2.6774,2.6774,0,0,1,.6308,1.7861,3.1531,3.1531,0,0,1-2.0634,3.0635,2.6744,2.6744,0,0,1-1.1084.231,3.4738,3.4738,0,0,1-.8926-.1231c-.0615-.0151-.1231.0772-.1387.1387a21.3763,21.3763,0,0,0-.0156,2.2783,4.9306,4.9306,0,0,0,.1084,1.2319c.0918.2925.3535.37.7695.4312.1387.0459.2158.0771.2158.1387s-.1084.1074-.3086.1074c-.23,0-.7695-.0615-1.3242-.0615-.5078,0-1,.1079-1.1845.1079s-.2774-.0464-.2774-.0923c0-.0615.0615-.1079.292-.1543.5391-.1538.6318-.3384.6621-.708.0156-.2617.0469-.9238.0469-2.1094,0-1.57-.0313-4.9111-.0469-5.3115-.03-.6314-.03-.7236-.3848-.9238-.0917-.0464-.1542-.0923-.1542-.1387,0-.0615.0771-.1074.2-.1387a7.6508,7.6508,0,0,0,1.14-.5386.4177.4177,0,0,1,.2315-.1079c.03,0,.0617.0464.0617.1387,0,.0772-.0314.5234-.0314.6621,0,.0308.0314.0923.0773.0459a3.0181,3.0181,0,0,1,1.8779-.708A2.27,2.27,0,0,1,312.6592,57.38Zm-1.2324,4.45a2.8214,2.8214,0,0,0,.8623-2.2173,2.7724,2.7724,0,0,0-.7383-1.9707,1.6547,1.6547,0,0,0-1.1856-.4619,1.99,1.99,0,0,0-1.124.3081c-.1084.0767-.1543.1231-.17.3384-.0459.3852-.03,2.8179,0,3.1411a1.2422,1.2422,0,0,0,.123.3848,1.7226,1.7226,0,0,0,1.4942.7544,1.1408,1.1408,0,0,0,.7384-.2775Z"/><path class="cls-1" d="M317.2334,61.7366a1.7323,1.7323,0,0,1-.1846-.8774v-3.187c0-.1695-.0156-.2769-.0771-.3081a2.5232,2.5232,0,0,0-.3692-.0923c-.123-.0308-.2-.0767-.2-.1387,0-.0307.0157-.0766.1846-.1538a3.2825,3.2825,0,0,0,1.2627-1.0312c.1387-.1543.2461-.1236.2461-.0464,0,.1386-.03.57-.0146.7544,0,.0464.0146.1386.0761.1386.2774,0,1.5557-.0463,1.8789-.0463.03,0,.0918.1079.0918.2158,0,.2617-.0761.3847-.1533.3847-.5391,0-1.2939-.0156-1.709-.0156-.1845,0-.2158.0464-.2158.1387,0,.2617.0156,2.6792.0313,3.1562a1.5816,1.5816,0,0,0,.1689.8316,1.1382,1.1382,0,0,0,.9541.4155,1.5086,1.5086,0,0,0,.8477-.231c.1074-.0766.1533-.0615.1533,0,0,.0923-.1387.2466-.3389.4a2.11,2.11,0,0,1-1.2471.4A1.427,1.427,0,0,1,317.2334,61.7366Z"/><path class="cls-1" d="M326.4727,59.52a2.9569,2.9569,0,1,1-4.8038-2.2631,3.1635,3.1635,0,0,1,1.8477-.647,2.8894,2.8894,0,0,1,2.9554,2.8216Q326.473,59.4758,326.4727,59.52Zm-4.8038-.2158a3.5219,3.5219,0,0,0,.6475,2.1094,1.8284,1.8284,0,0,0,1.4473.8159,1.5226,1.5226,0,0,0,.97-.3848,3.0679,3.0679,0,0,0,.6465-2.0629c0-1.4629-.7393-2.91-2.0938-2.91-.7854,0-1.6175.8311-1.6175,2.4322Z"/><path class="cls-1" d="M330.4775,54.639c-.1533.1694-.1992.185-.2148.185-.0772,0-.0928-.0922-.0156-.2158a2.8842,2.8842,0,0,1,2.4013-1.5088A1.7746,1.7746,0,0,1,334.57,54.714v0l.0035.0484c0,.9082-.6308,1.5088-1.5244,2.0322a.0433.0433,0,0,0,.0313.0767h.1689a2.4581,2.4581,0,0,1,1.57.6313,2.1426,2.1426,0,0,1,.6162,1.6324,4.0389,4.0389,0,0,1-2.4325,3.3559,4.54,4.54,0,0,1-1.8934.5542c-.5547,0-1.3086-.2768-1.3086-.708a.9814.9814,0,0,1,.4306-.477.19.19,0,0,1,.2.0151,2.5237,2.5237,0,0,0,1.586.6157,1.7058,1.7058,0,0,0,1.124-.3847,2.5625,2.5625,0,0,0,.8467-1.9859,2.601,2.601,0,0,0-.6924-1.8476,1.5938,1.5938,0,0,0-1.1709-.5083,2.3918,2.3918,0,0,0-.6466.1235c-.1532.0459-.2616.0767-.2616,0a.25.25,0,0,1,.1387-.2158,7.3211,7.3211,0,0,0,.6777-.3848,1.9031,1.9031,0,0,0,1.124-1.7554c0-1.0161-.5547-1.601-1.34-1.601A1.75,1.75,0,0,0,330.4775,54.639Z"/><path class="cls-1" d="M340.626,57.5491a.5381.5381,0,0,0-.1543.4c-.0156,1.4932.0312,3.0791.0771,3.6026.0459.2924.1231.4926.4922.57.17.0307.2774.0766.2774.1382,0,.0464-.0918.1235-.2774.1235-.4463,0-1.0615-.0771-1.3232-.0771-.6621,0-.8623.0615-1.2324.0615-.169,0-.2764-.0459-.2764-.1079s.0615-.1075.2461-.1538c.4306-.0923.4922-.2.5078-.6929.0312-.5386.0459-2.0015.0459-4.1108,0-2.3091.0156-3.418-.0147-3.9258-.0312-.4927-.0771-.5235-.4619-.7085-.0615-.0459-.1084-.0923-.1084-.1382,0-.0615.0928-.1079.2617-.1543a11.0507,11.0507,0,0,0,1.586-.4927.7612.7612,0,0,1,.2-.0615c.0459,0,.0928.0464.0928.2925,0,.2309-.0928,4.9424-.0772,5.1733,0,.0308.0459.0767.0772.0459a4.0306,4.0306,0,0,1,.831-.5386,2.17,2.17,0,0,1,.9395-.2309,1.714,1.714,0,0,1,1.4472.6621,2.6362,2.6362,0,0,1,.3848,1.6162c.0156,1.0317.0156,1.9707.03,2.7563,0,.2618.0468.4463.4619.5235.2.0459.2617.0766.2617.1538s-.1689.1079-.2617.1079c-.4619,0-.6465-.0771-1.2471-.0771-.7695,0-.8.0615-1.2773.0615-.1846,0-.2461-.0615-.2461-.1079,0-.0616.0761-.0923.23-.1231.4463-.123.462-.2617.5079-.77.0312-.3545.0615-1.1548.0615-2.4175a3.1189,3.1189,0,0,0-.2-1.2471.9956.9956,0,0,0-.9385-.5078A1.4151,1.4151,0,0,0,340.626,57.5491Z"/><path class="cls-1" d="M351.7275,59.4734a3.0807,3.0807,0,0,1-1.2011,2.4175,3.2574,3.2574,0,0,1-1.8467.6,2.9765,2.9765,0,0,1-3.0925-2.8558v0c-.0012-.028-.002-.056-.0022-.084a2.83,2.83,0,0,1,1.0927-2.2788,3.1372,3.1372,0,0,1,1.9707-.708,2.9211,2.9211,0,0,1,3.0748,2.7589v0Q351.7274,59.3983,351.7275,59.4734Zm-4.5107-.3383a4.6108,4.6108,0,0,0,.4775,2.2632,1.49,1.49,0,0,0,1.17.8466.9112.9112,0,0,0,.708-.354,3.6427,3.6427,0,0,0,.5078-2.0942c0-1.7549-.4921-2.9712-1.57-2.9712C347.8477,56.8255,347.2168,57.7952,347.2168,59.1351Z"/><path class="cls-1" d="M353.377,61.8909a1.6666,1.6666,0,0,1-.3077-1.0781c-.0156-.5078-.0312-2.956-.0459-3.2329-.0156-.3081-.1084-.3848-.3545-.5234-.123-.0772-.1689-.1387-.1689-.1851s.0918-.0767.2305-.0767a8.1988,8.1988,0,0,0,1.7861-.2c.0615-.0156.0918.0923.0918.17-.0459.8774-.0615,2.7866-.0459,3.71a1.6253,1.6253,0,0,0,.2.939,1.0189,1.0189,0,0,0,.8164.3389,1.1978,1.1978,0,0,0,.8467-.3081.7527.7527,0,0,0,.2-.585c.03-.4927.0459-1.2622.0459-1.6475,0-.2309,0-1.0932-.03-1.4931-.0469-.5235-.1084-.6006-.5546-.6778-.1846-.0307-.2774-.0923-.2774-.1382,0-.0771.1543-.1079.2617-.1079h.8008c.5547,0,1.0469-.1386,1.247-.1386.0459,0,.0774.0771.0774.1694-.0615.5542-.0774,2.5864-.0774,3.9106a6.0662,6.0662,0,0,0,.0315.9239.17.17,0,0,0,.1846.1538c.1532-.0308.3847-.0923.5234-.1079a.2146.2146,0,0,1,.2.2c0,.0771-.1846.1079-.3389.1386a9.4,9.4,0,0,0-1.8789.4463c-.123.0464-.1846.0308-.2148,0a.554.554,0,0,1-.0314-.2461c0-.1538.0156-.4311.0156-.5849,0-.0772-.0156-.1236-.0459-.0923a3.96,3.96,0,0,1-.9551.6616,2.4717,2.4717,0,0,1-1.0156.2158A1.4673,1.4673,0,0,1,353.377,61.8909Z"/><path class="cls-1" d="M361.707,57.826a.6423.6423,0,0,0-.1689.3545,10.2186,10.2186,0,0,0-.0313,1.1855c0,1.0928.0313,1.74.0625,2.0938.0616.4619.169.5693.7383.6465.2158.0307.2774.0771.2774.1538s-.1231.1079-.3233.1079c-.4306,0-.708-.0615-1.4472-.0615-.9239,0-.9083.0771-1.2784.0771-.1992,0-.292-.0464-.292-.1079s.0616-.1387.2305-.1694c.3545-.0772.4775-.2.5234-.6314.0157-.2617.0313-1.1391.0469-2.1553,0-.97.0156-1.37,0-1.5551,0-.0923-.0469-.1231-.4-.4312-.0927-.0766-.123-.1074-.123-.1538s.1074-.1079.1689-.1387a7.9354,7.9354,0,0,0,1.4785-.5078.5187.5187,0,0,1,.2618-.0923c.03,0,.0761.0923.0761.169,0,.2773-.03.7085-.03,1.0473,0,.0767.0615.0923.0771.0459.4307-.57.9854-1.124,1.5859-1.124a.8646.8646,0,0,1,.5079.1543c.1543.1074.2158.1846.2158.3076a1.5764,1.5764,0,0,1-.4619.7393c-.1543.1538-.2315.1846-.3086.1846a.4361.4361,0,0,1-.2617-.1079,1.2467,1.2467,0,0,0-.6006-.2461A.7222.7222,0,0,0,361.707,57.826Z"/><path class="cls-1" d="M365.5586,57.6414c0,.6006.5234.8931,1.1543,1.2935.97.6465,1.34,1.0469,1.34,1.832a1.7152,1.7152,0,0,1-.708,1.293,3.0111,3.0111,0,0,1-1.5088.4311,4.2683,4.2683,0,0,1-1.34-.2617c-.1074-.0459-.2617-.1846-.2617-.2925-.0156-.2153-.0615-.6928-.0772-.8467-.0156-.2.0157-.3081.0772-.3081.0459,0,.1074.0464.2.3238a1.9335,1.9335,0,0,0,.6465.9233,1.14,1.14,0,0,0,.7695.2.9216.9216,0,0,0,.9238-.8618c0-.4468-.3232-.77-1.1084-1.2627a2.286,2.286,0,0,1-1.2471-1.8013,1.5843,1.5843,0,0,1,.7549-1.37,2.3112,2.3112,0,0,1,1.3086-.37,3.5452,3.5452,0,0,1,1.2.2.203.203,0,0,1,.0928.1538c0,.1538.0614.4311.077.8315.0156.1695-.0311.2461-.0928.2461s-.0918-.0766-.1387-.2a1.398,1.398,0,0,0-.3848-.708,1.2851,1.2851,0,0,0-.8008-.2773A.8861.8861,0,0,0,365.5586,57.6414Z"/><path class="cls-1" d="M301.1406,73.8568a7.66,7.66,0,0,0,1.1084-.4.6244.6244,0,0,1,.2315-.108c.0459,0,.0761.0464.0615.2159-.0313.3076-.0313,1.247-.0313,2.2324,0,1.293,0,2.4326.0313,2.6943.03.3076.1846.3848.4307.4463.1543.0308.2314.0615.2314.1231,0,.0771-.124.1079-.2471.1079-.1386,0-.708-.0615-1.124-.0615-.5078,0-.7539.0307-.9238.0307-.1074,0-.2149-.0307-.2149-.0923s.0772-.1079.292-.1386c.3389-.0923.4776-.2154.4932-.8467.0156-.4619.0459-3.2642.0459-3.418,0-.2158-.0156-.3081-.4463-.5391-.0771-.0459-.123-.0922-.123-.123C300.9561,73.9339,301.002,73.8875,301.1406,73.8568Zm1.54-2.51a.5864.5864,0,0,1-.57.5849.5476.5476,0,0,1-.5079-.5693.5713.5713,0,0,1,.5391-.6006.5637.5637,0,0,1,.5389.5852Z"/><path class="cls-1" d="M308.84,73.9339a3.2167,3.2167,0,0,1,.4922,2.0166c0,.8159.0157.9395.0157,1.709.0156,1.0469.0615,1.1391.4775,1.2471.1387.0615.2305.0922.2305.1538,0,.0927-.1231.1079-.2774.1079-.2,0-.6465-.0615-.9853-.0615-.5235,0-.7237.0615-.9541.0615-.1387,0-.2461-.0308-.2461-.0923s.0918-.1231.292-.1694c.37-.0923.4316-.2.4316-.6465V76.1663c0-1.247-.1084-1.6167-.4932-1.9092a1.3662,1.3662,0,0,0-.8769-.2924,1.8412,1.8412,0,0,0-1.2012.4926.7925.7925,0,0,0-.1846.462c0,.1845.0147.97.0147,1.8935a12.5514,12.5514,0,0,0,.0928,1.6167c.0459.3384.23.4155.4775.4927.1846.0459.2617.0766.2617.1538,0,.0923-.1543.0923-.3086.0923-.123,0-.8769-.0615-1.2314-.0615-.2,0-.5234.0307-.8154.0307-.17,0-.293-.0307-.293-.1079,0-.0615.1387-.123.3232-.1538.3848-.0772.4463-.1846.4619-.4927.0313-1.1084.0313-2.5249.0313-3.772,0-.1538-.0313-.3232-.4-.5234-.0928-.0615-.1228-.0923-.1228-.1387,0-.0307.0761-.0771.2148-.123a5.796,5.796,0,0,0,1.2168-.5234c.0459-.0157.1229.0458.1074.123a6.8593,6.8593,0,0,0-.03.8159c0,.0308.0459.0772.0762.0464a5.3208,5.3208,0,0,1,1.0938-.6929,2.0757,2.0757,0,0,1,.9082-.185A1.5726,1.5726,0,0,1,308.84,73.9339Z"/><path class="cls-1" d="M316.6172,74.1956a3.7374,3.7374,0,0,1,.2148,1.4009c0,.57-.0459,2.0322-.0459,2.4326a.5275.5275,0,0,0,.4645.5836.5329.5329,0,0,0,.1049.0014.9848.9848,0,0,0,.4472-.1387c.0918-.0459.1534,0,.0918.1387a1.2966,1.2966,0,0,1-1.1855.6621,1.0345,1.0345,0,0,1-.9082-.6929.0543.0543,0,0,0-.0747-.0173l-.0025.0017a2.1551,2.1551,0,0,1-1.5088.6929,1.2776,1.2776,0,0,1-1.2315-1.3217v-.0021a1.0876,1.0876,0,0,1,.5537-.8779c.37-.2,1.7715-.6157,2.0947-.7388a.2916.2916,0,0,0,.2-.2309,5.3053,5.3053,0,0,0,.03-.7085c0-.6309-.1074-1.062-.3691-1.2622a1.1756,1.1756,0,0,0-.6465-.2466,1.06,1.06,0,0,0-.6162.185.62.62,0,0,0-.2315.3692,1.679,1.679,0,0,0-.0146.293.193.193,0,0,1-.0615.123,3.3417,3.3417,0,0,1-.7237.3389c-.0771.0151-.1543-.0772-.1543-.1387,0-.1079.1074-.2466.293-.4619a3.9822,3.9822,0,0,1,1.17-.8931,2.0671,2.0671,0,0,1,.9238-.2773A1.2629,1.2629,0,0,1,316.6172,74.1956ZM315.585,78.43a.6407.6407,0,0,0,.17-.37,11.0873,11.0873,0,0,0,.0771-1.4629c0-.0152-.0312-.0923-.0625-.0767a8.6848,8.6848,0,0,0-1.416.5235.7962.7962,0,0,0-.3847.77.8941.8941,0,0,0,.9238.8623A1.0551,1.0551,0,0,0,315.585,78.43Z"/><path class="cls-1" d="M322.1611,73.5643c.1387,0,.2618.0307.2618.1074,0,.0464-.1534.1079-.2618.1235-.3691.0616-.3535.2-.292.4463.2305.7085.8926,2.4634,1.2471,3.3257.0156.0459.0772.0615.0918.0151.2471-.5234.9238-2.0166,1.0781-2.417.0157-.0771.0616-.1845.03-.2617-.0762-.2-.1846-.4463-.2617-.6313a.819.819,0,0,0-.585-.5078c-.1386-.0308-.2148-.0616-.2148-.1236s.0762-.0923.2305-.0923c.3232,0,.7236.0464,1.0468.0464.4463,0,.6319-.0307.9082-.0307.17,0,.2315.0307.2315.0766,0,.062-.1084.1236-.2315.1543-.3535.0767-.4463.1387-.2617.6157.17.4771.9854,2.71,1.2012,3.1871.0459.0771.0771.0151.0771,0,.1846-.4.9239-2.1553,1.1084-2.6787a3.508,3.508,0,0,0,.2461-.7393c0-.1387-.0615-.2774-.4619-.3848-.2-.0615-.2461-.1079-.2461-.1543,0-.0615.0928-.0923.2-.0923.2617,0,.5391.0464.7852.0464.1543,0,.539-.0464.7695-.0464.1387,0,.2158.0308.2158.0923s-.0459.0928-.2773.1543c-.2764.0767-.4619.2925-.6621.708-.2764.5542-.7383,1.6167-1.2159,2.71-.2617.6309-.539,1.3086-.7236,1.8013-.0928.2461-.1543.2924-.2.2924-.0615,0-.1074-.0615-.1691-.2773-.0772-.2153-.1856-.5234-.37-1.0469-.2919-.831-.6152-1.709-.9237-2.5249-.0156-.0464-.0459-.0771-.0771,0-.1387.2925-.7852,1.709-1,2.2481-.2315.5078-.37.8618-.5391,1.3086-.0771.2153-.1543.2924-.2158.2924s-.1074-.1079-.1543-.2773c-.0762-.2153-.1689-.585-.4307-1.3237-.2773-.7544-1.1543-3.0332-1.3242-3.3257a.877.877,0,0,0-.6777-.6006c-.1231-.0308-.2149-.0767-.2149-.123,0-.0923.1075-.1231.2774-.1231.1992,0,.6611.0615,1.0928.0615C321.5459,73.595,321.8535,73.5643,322.1611,73.5643Z"/><path class="cls-1" d="M333.85,74.9808a.1809.1809,0,0,1-.1543.1689c-.123-.0151-2.125-.0459-2.4785-.0459h-.8311c-.0312,0-.1084.0772-.1386.1231a2.1141,2.1141,0,0,0-.1231.8466,2.7606,2.7606,0,0,0,.708,1.8633,2.0779,2.0779,0,0,0,1.5391.6309,1.9632,1.9632,0,0,0,1.4629-.4927c.123-.123.1846-.0923.1846-.0151a.5854.5854,0,0,1-.1534.2461,2.7222,2.7222,0,0,1-2.1406.97,2.4853,2.4853,0,0,1-1.832-.7852,3.01,3.01,0,0,1-.7393-2.063,3.21,3.21,0,0,1,.8936-2.248,2.8626,2.8626,0,0,1,1.9238-.77A1.7768,1.7768,0,0,1,333.85,74.9808Zm-3.1406-.7852a1.3427,1.3427,0,0,0-.3233.6309.0658.0658,0,0,0,.0616.0615l2.0009-.0151c.3389,0,.3692-.1695.3692-.3081a.991.991,0,0,0-.2149-.6465,1.08,1.08,0,0,0-.77-.2925,1.595,1.595,0,0,0-1.1234.57Z"/><path class="cls-1" d="M339.4082,74.9808a.1809.1809,0,0,1-.1543.1689c-.123-.0151-2.125-.0459-2.4785-.0459h-.8311c-.0312,0-.1084.0772-.1386.1231a2.1141,2.1141,0,0,0-.1231.8466,2.7606,2.7606,0,0,0,.708,1.8633,2.0779,2.0779,0,0,0,1.5391.6309,1.9632,1.9632,0,0,0,1.4629-.4927c.123-.123.1845-.0923.1845-.0151a.5836.5836,0,0,1-.1533.2461,2.7222,2.7222,0,0,1-2.1406.97,2.4854,2.4854,0,0,1-1.832-.7852,3.01,3.01,0,0,1-.7393-2.063,3.21,3.21,0,0,1,.8936-2.248,2.8626,2.8626,0,0,1,1.9238-.77A1.7768,1.7768,0,0,1,339.4082,74.9808Zm-3.1406-.7852a1.3427,1.3427,0,0,0-.3233.6309.0658.0658,0,0,0,.0616.0615l2.0009-.0151c.3389,0,.3692-.1695.3692-.3081a.991.991,0,0,0-.2149-.6465,1.08,1.08,0,0,0-.77-.2925A1.5955,1.5955,0,0,0,336.2676,74.1956Z"/><path class="cls-1" d="M344.4141,73.595c.3379,0,.9541-.0771,1.3545-.0771.1689,0,.23.0464.23.0923,0,.0307-.0459.0927-.23.1235a2.7415,2.7415,0,0,0-1.4161.6772c-.4.3082-1.1552.9546-1.4472,1.2315-.0313.0312,0,.0771.0146.1079.4619.5391,1.57,1.7246,2.294,2.4634a1.988,1.988,0,0,0,1.1093.7236c.1377.0308.2305.0772.2305.1387,0,.0923-.1387.1079-.2617.1079-.5234,0-1.1084-.0771-1.709-.0771-.2617,0-.4619.0156-.6924.0156-.17,0-.2773,0-.2773-.0928,0-.0767.0769-.1074.3533-.1689.2617-.0621.293-.2.1543-.4161-.3232-.37-1.4159-1.5239-1.8779-1.9858-.1231-.1235-.2315-.231-.293-.231-.0459,0-.0615.0923-.0615.1539-.0155.2773-.03.7851-.0155,1.6318,0,.7392.1231.7851.6.8931.1543.0463.2316.0771.2316.1386,0,.0772-.1232.1079-.293.1079-.4306,0-.7539-.0463-1.1542-.0463-.4932,0-.8165.0463-1.0011.0463-.1543,0-.246-.0463-.246-.1079,0-.0464.0917-.0923.2-.1079.4766-.123.585-.2617.6153-.7695.0615-1.124.077-2.4175.077-3.6182.0155-1.2012.0614-3.1719.0614-4.3725a2.64,2.64,0,0,0-.0614-.7085c-.03-.1231-.169-.2154-.3544-.3077-.0762-.0463-.1377-.0771-.1377-.1079,0-.0615.0918-.0922.2461-.1386a9.46,9.46,0,0,0,1.0928-.3692.7148.7148,0,0,1,.246-.0771c.0156,0,.047.0459.047.123-.0314.5083-.0773,1.8628-.0773,3.0025,0,.477-.077,2.5092-.077,4.2031,0,.1694.0311.2461.077.2461a.7725.7725,0,0,0,.3075-.1694,13.1486,13.1486,0,0,0,1.6631-1.54.5586.5586,0,0,0,.169-.2769c0-.0922-.1075-.185-.4463-.2465-.1387-.0152-.2616-.0616-.2616-.1231s.1073-.1079.246-.1079C343.8906,73.5794,344.2441,73.595,344.4141,73.595Z"/><path class="cls-1" d="M346.9082,78.6141a.7.7,0,0,1,.6934-.6929.6484.6484,0,0,1,.6152.6772.6618.6618,0,0,1-.63.6922h0l-.0321.0007A.6779.6779,0,0,1,346.9082,78.6141Z"/><path class="cls-1" d="M350.05,69.8382a1.6715,1.6715,0,0,1-1.3857,1.4936c-.0918,0-.1377-.0307-.1377-.0771,0-.0308.0615-.0771.1533-.123a1.2331,1.2331,0,0,0,.8164-1.0318c0-.3076-.17-.5078-.585-.6006-.1543-.0459-.3086-.1382-.3086-.3232a.4582.4582,0,0,1,.462-.4312,1.0278,1.0278,0,0,1,.9866,1.0674v0Zm1.9248,0a1.6715,1.6715,0,0,1-1.3857,1.4936c-.0772,0-.1387-.0307-.1387-.0771,0-.0308.0928-.0771.1543-.123a1.2055,1.2055,0,0,0,.8154-1.0162c0-.3232-.1689-.5234-.5849-.6162a.3589.3589,0,0,1-.292-.3232.4522.4522,0,0,1,.472-.4315h.0055a1.024,1.024,0,0,1,.9542,1.0892v.0041Z"/></svg>