<svg id="Layer_1" data-name="Layer 1" xmlns="http://www.w3.org/2000/svg" viewBox="0 0 399 200"><defs><style>.cls-1,.cls-2,.cls-3,.cls-6,.cls-7{fill:none;}.cls-1,.cls-3,.cls-6,.cls-7{stroke:#222f3c;}.cls-1,.cls-2,.cls-6,.cls-7{stroke-linecap:round;}.cls-1,.cls-2{stroke-linejoin:round;}.cls-1,.cls-6{stroke-width:0.5px;}.cls-2{stroke:#231f20;}.cls-2,.cls-3,.cls-7{stroke-width:0.4px;}.cls-3,.cls-6,.cls-7{stroke-miterlimit:10;}.cls-4{fill:#333838;}.cls-5{fill:#222f3c;}</style></defs><line class="cls-1" x1="89.7323" y1="128.2828" x2="163.9588" y2="128.2828"/><line class="cls-1" x1="165.3424" y1="121.021" x2="216.3024" y2="121.021"/><line class="cls-1" x1="148.1219" y1="115.0288" x2="148.1219" y2="118.1049"/><line class="cls-1" x1="135.4821" y1="123.1747" x2="135.4821" y2="128.253"/><line class="cls-1" x1="157.9466" y1="123.1747" x2="157.9466" y2="128.253"/><rect class="cls-1" x="145.1635" y="121.6815" width="5.9732" height="6.6051" rx="1"/><line class="cls-1" x1="120.75" y1="123.1747" x2="120.75" y2="128.253"/><polyline class="cls-1" points="122.952 121.091 137.399 121.091 148.06 109.024 129.093 109.024 118.433 121.091"/><line class="cls-1" x1="148.158" y1="109.0405" x2="158.8188" y2="121.1078"/><line class="cls-1" x1="163.1173" y1="107.7997" x2="163.1173" y2="110.8758"/><line class="cls-1" x1="172.9419" y1="115.778" x2="172.9419" y2="120.8563"/><rect class="cls-1" x="160.1588" y="114.4244" width="5.9732" height="6.6051" rx="1"/><polyline class="cls-1" points="152.394 113.862 163.055 101.795 144.089 101.795 137.628 108.978"/><line class="cls-1" x1="163.1533" y1="101.8114" x2="173.8142" y2="113.8786"/><line class="cls-1" x1="89.7323" y1="128.2828" x2="163.9588" y2="128.2828"/><line class="cls-1" x1="179.6521" y1="103.4123" x2="179.6521" y2="105.8306"/><path class="cls-1" d="M179.4846,113.9005h2.0529a.5282.5282,0,0,0,.5282-.5282v-4.1359a.5282.5282,0,0,0-.5282-.5283h-3.6392a.5283.5283,0,0,0-.5283.5283v2.357"/><polyline class="cls-1" points="185.639 105.586 179.899 98.741 194.799 98.741 199.876 104.384"/><line class="cls-1" x1="179.8213" y1="98.7537" x2="171.4456" y2="108.2344"/><path class="cls-1" d="M106.2238,115.8236a3.1319,3.1319,0,0,0-6.233,0,2.954,2.954,0,0,0-.0031,5.7643c-.0014.0361-.0058.0713-.0058.1077a3.1284,3.1284,0,0,0,6.2507,0c0-.0364-.0043-.0716-.0057-.1077"/><line class="cls-1" x1="103.1439" y1="119.5533" x2="105.5909" y2="117.3445"/><line class="cls-1" x1="102.9719" y1="120.848" x2="100.8733" y2="118.0903"/><line class="cls-1" x1="103.0413" y1="117.8648" x2="103.0413" y2="128.3235"/><path class="cls-1" d="M106.2952,115.8236a3.1319,3.1319,0,0,1,6.2331,0,2.9541,2.9541,0,0,1,.0031,5.7643c.0014.0361.0057.0713.0057.1077a3.1284,3.1284,0,0,1-6.2507,0c0-.0364.0044-.0716.0057-.1077"/><line class="cls-1" x1="109.3752" y1="119.5533" x2="106.9281" y2="117.3445"/><line class="cls-1" x1="109.5471" y1="120.848" x2="111.6458" y2="118.0903"/><line class="cls-1" x1="109.4777" y1="117.8648" x2="109.4777" y2="128.3235"/><path class="cls-2" d="M196.2121,141.133a.1527.1527,0,0,1-.1527-.1527V126.5018a.1528.1528,0,0,1,.1527-.1528H208.243a.1532.1532,0,0,1,.0824.0241c.12.0772,2.9248,1.8927,3.8011,4.2275a2.4093,2.4093,0,0,0,1.6017-.51,1.8886,1.8886,0,0,0,.5545-1.4656"/><path class="cls-2" d="M208.11,141.133a.1528.1528,0,0,1-.1528-.1527v-3.8022"/><path class="cls-2" d="M214.9606,130.8991l2.7423,4.1136a.1518.1518,0,0,1,.0257.0847v1.8579a.1528.1528,0,0,1-.1528.1527h-6.2607V140.98a.1528.1528,0,0,1-.1528.1527H209.57a.1528.1528,0,0,1-.1528-.1527v-3.8281h-2.2281"/><path class="cls-2" d="M199.3921,139.4981v1.4862a.1488.1488,0,0,1-.1488.1487h-1.5508a.1488.1488,0,0,1-.1488-.1487v-3.8771"/><path class="cls-2" d="M208.11,137.1478h-5.6867a2.5665,2.5665,0,0,1-2.5625,2.4991"/><path class="cls-2" d="M194.43,133.4609v-1.1574a.153.153,0,0,1,.0447-.108l.5229-.5229v-3.8291"/><path class="cls-2" d="M215.1853,133.0186a.1527.1527,0,0,1-.1527.1527h-.9118a.1528.1528,0,0,1-.1528-.1527"/><line class="cls-2" x1="205.3238" y1="141.133" x2="194.5829" y2="141.133"/><path class="cls-2" d="M217.7286,140.98a.1528.1528,0,0,1-.1528.1527H207.4641"/><line class="cls-2" x1="227.0867" y1="139.6195" x2="227.0867" y2="140.9566"/><line class="cls-2" x1="225.5826" y1="137.8003" x2="225.5826" y2="140.9566"/><line class="cls-2" x1="223.9775" y1="139.6195" x2="223.9775" y2="140.9566"/><line class="cls-2" x1="230.2176" y1="139.6195" x2="230.2176" y2="140.9566"/><line class="cls-2" x1="228.7135" y1="137.8003" x2="228.7135" y2="140.9566"/><line class="cls-2" x1="227.1085" y1="139.6195" x2="227.1085" y2="140.9566"/><line class="cls-2" x1="220.8509" y1="139.6195" x2="220.8509" y2="140.9566"/><line class="cls-2" x1="219.3468" y1="137.8003" x2="219.3468" y2="140.9566"/><line class="cls-2" x1="217.7418" y1="139.6195" x2="217.7418" y2="140.9566"/><line class="cls-2" x1="223.9819" y1="139.6195" x2="223.9819" y2="140.9566"/><line class="cls-2" x1="222.4778" y1="137.8003" x2="222.4778" y2="140.9566"/><line class="cls-2" x1="220.8728" y1="139.6195" x2="220.8728" y2="140.9566"/><path class="cls-3" d="M79.8427,121.378c.928.8583.7366,2.6364.6372,3.3838l2.73-.0172a5.4868,5.4868,0,0,1,.9656-1.7993,2.9039,2.9039,0,0,0,.7461-1.5611c-.0289-1.2042-1.6406-4.8993-1.6569-4.9365a.2686.2686,0,0,1,.3732-.3444c2.821,1.5157,4.67,6.1429,4.7472,6.3391a.2685.2685,0,0,1-.25.3672,3.3689,3.3689,0,0,0-3.3651,3.3653.2688.2688,0,0,1-.2688.2687H78.337a.2688.2688,0,0,1-.2688-.2687,3.3652,3.3652,0,1,0-6.73,0"/><path class="cls-3" d="M74.7032,128.7953a2.62,2.62,0,1,1,2.6205-2.62A2.6234,2.6234,0,0,1,74.7032,128.7953Z"/><path class="cls-3" d="M74.7032,127.4327a1.2578,1.2578,0,1,1,1.2578-1.2578A1.2592,1.2592,0,0,1,74.7032,127.4327Z"/><path class="cls-3" d="M88.1348,128.7953a2.62,2.62,0,1,1,2.6205-2.62A2.6234,2.6234,0,0,1,88.1348,128.7953Z"/><path class="cls-3" d="M88.1348,127.4327a1.2578,1.2578,0,1,1,1.2578-1.2578A1.2592,1.2592,0,0,1,88.1348,127.4327Z"/><path class="cls-3" d="M78.8379,122.7616H71.4315a1.27,1.27,0,0,1,0-2.4955h7.4064a1.27,1.27,0,0,1,0,2.4955Z"/><line class="cls-3" x1="87.1665" y1="122.9168" x2="88.3878" y2="126.0845"/><line class="cls-3" x1="74.699" y1="122.6934" x2="74.699" y2="126.1749"/><line class="cls-3" x1="81.6403" y1="116.0714" x2="83.5103" y2="116.0714"/><path class="cls-1" d="M195.5765,107.6072a4.16,4.16,0,0,0-8.2793,0,3.9238,3.9238,0,0,0-.0041,7.6566"/><path class="cls-1" d="M195.5651,107.6072a3.9238,3.9238,0,0,1,.0041,7.6566"/><line class="cls-1" x1="191.4855" y1="112.0584" x2="194.7359" y2="109.1245"/><line class="cls-1" x1="191.2571" y1="113.7782" x2="188.4694" y2="112.4345"/><line class="cls-1" x1="191.3492" y1="109.8156" x2="191.3492" y2="121.0896"/><path class="cls-1" d="M123.6726,81.6869H108.25a1.95,1.95,0,0,1-1.53-1.9813,2.0244,2.0244,0,0,1,2.2019-1.9814h.9211c-.2233,0-.3517-1.04-.3517-1.6043a3.7416,3.7416,0,0,1,6.28-2.7613,3.8722,3.8722,0,0,1,5.1053-1.5545,5.1983,5.1983,0,0,1,9.3889,3.1085,4.552,4.552,0,0,1-.8123,2.8116"/><path class="cls-1" d="M139.6094,80.2093a2.8729,2.8729,0,0,1-4.8222,2.12,2.973,2.973,0,0,1-3.92,1.1936,3.9914,3.9914,0,0,1-7.2091-2.3868,3.4951,3.4951,0,0,1,.6238-2.1588"/><path class="cls-1" d="M143.4505,75.0872a5.2887,5.2887,0,0,1-5.2887,5.2888"/><path class="cls-1" d="M168.7458,67.8351a2.0244,2.0244,0,0,1-2.2019,1.9814h-.9211c.2233,0,.3516,1.04.3516,1.6042a3.7415,3.7415,0,0,1-6.28,2.7613,3.8724,3.8724,0,0,1-5.1053,1.5546A5.1984,5.1984,0,0,1,145.2,72.628a4.5517,4.5517,0,0,1,.8124-2.8115"/><path class="cls-1" d="M135.8565,67.3314a2.8729,2.8729,0,0,1,4.8222-2.12,2.9733,2.9733,0,0,1,3.92-1.1936,3.9914,3.9914,0,0,1,7.2091,2.3869,3.4946,3.4946,0,0,1-.6238,2.1587"/><path class="cls-1" d="M137.3041,77.7422a5.2888,5.2888,0,0,1,0-10.5775"/><line class="cls-1" x1="121.7488" y1="85.6689" x2="121.7488" y2="88.695"/><line class="cls-1" x1="125.3181" y1="87.9104" x2="125.3181" y2="90.7124"/><line class="cls-1" x1="118.1795" y1="88.9663" x2="118.1795" y2="91.9924"/><line class="cls-1" x1="121.7488" y1="91.2078" x2="121.7488" y2="94.0098"/><line class="cls-1" x1="111.1962" y1="83.0307" x2="111.1962" y2="86.0568"/><line class="cls-1" x1="114.7654" y1="85.2723" x2="114.7654" y2="88.0742"/><line class="cls-1" x1="107.6269" y1="86.3281" x2="107.6269" y2="89.3542"/><line class="cls-1" x1="111.1962" y1="88.5697" x2="111.1962" y2="91.3717"/><line class="cls-1" x1="158.8382" y1="77.5992" x2="158.8382" y2="80.6253"/><line class="cls-1" x1="162.4075" y1="79.8408" x2="162.4075" y2="82.6427"/><line class="cls-1" x1="155.2689" y1="80.8966" x2="155.2689" y2="83.9227"/><line class="cls-1" x1="158.8382" y1="83.1382" x2="158.8382" y2="85.9402"/><line class="cls-1" x1="145.337" y1="80.7029" x2="145.337" y2="83.729"/><line class="cls-1" x1="148.9063" y1="82.9445" x2="148.9063" y2="85.7465"/><line class="cls-1" x1="141.7678" y1="84.0003" x2="141.7678" y2="87.0265"/><line class="cls-1" x1="145.337" y1="86.2419" x2="145.337" y2="89.0439"/><path class="cls-4" d="M225.3887,83.9881c0,2.6787-.8,3.9722-1.57,4.48a2.205,2.205,0,0,1-1.2159.354c-2.0937,0-2.8486-2.7559-2.8486-4.5415,0-2.4175.6318-3.8955,1.8633-4.6035a2.1248,2.1248,0,0,1,1.0312-.2466C224.7422,79.4305,225.3887,82.2327,225.3887,83.9881Zm-3.3711-3.9414a8.3675,8.3675,0,0,0-.585,3.6641c0,2.51.3233,4.896,1.2627,4.896.2149,0,.4463-.0923.6611-.7544a13.8511,13.8511,0,0,0,.3858-3.4952c0-2.3554-.4-4.6958-1.2168-4.6958A.6165.6165,0,0,0,222.0176,80.0467Z"/><path class="cls-4" d="M226.5293,87.9446a.8618.8618,0,0,1,.8477-.8774.83.83,0,0,1,.8154.8623.8342.8342,0,1,1-1.6631.0151Z"/><path class="cls-4" d="M230.749,79.9388a9.4565,9.4565,0,0,0,1.9551-.4,1.6162,1.6162,0,0,1,.3389-.1079c.03,0,.0615.0156.0615.1079,0,.2-.0156,1.57-.0459,2.5713-.0156,1.2929.0146,4.5263.0459,5.1885.0459.9545.123,1.0468.7695,1.1547.17.0308.2461.0923.2461.1539s-.0918.1079-.292.1079c-.7851,0-1.2627-.0772-1.8017-.0772-.7539,0-1.0469.0772-1.586.0772-.1377,0-.2617-.0308-.2617-.1236,0-.0615.0928-.0923.2471-.123.7236-.1231.8613-.2617.8926-1.17.0459-.4776.0771-1.3086.0771-3.9414,0-1.8628-.0156-2.3711-.0459-2.7559a.3763.3763,0,0,0-.2-.3389,2.3577,2.3577,0,0,0-.3857-.0923c-.0918-.0156-.2305-.0615-.2305-.123C230.5332,80,230.626,79.9539,230.749,79.9388Z"/><path class="cls-4" d="M238.1416,79.0457c.585.0156,1.5859.0772,2.417.0772.0615,0,.1387.123.1846.2153.5234,1.2163,2.6943,5.62,3.2334,6.605.0312.0923.0771.0464.1074-.0156.4316-.77,2.2793-4.5723,2.6181-5.3267a12.82,12.82,0,0,0,.4766-1.2471c0-.0307.1084-.2309.1856-.2309.6923,0,1.1543-.0928,2.0937-.0928.2,0,.2764.0464.2764.1079,0,.0771-.1377.1387-.2461.1543-.8926.1846-.9238.3848-.97,1.2314-.0313.6158-.0313,2.1861-.0313,2.941,0,1.6777.0772,3.2177.1084,3.7412.0615.8774.2158,1.062.8467,1.247.1387.0459.2461.0923.2461.169,0,.062-.1074.1079-.2774.1079-.5537,0-1.2314-.0923-1.832-.0923s-1.3545.0464-1.57.0464c-.1074,0-.2774-.0156-.2774-.1235,0-.0616.1543-.1382.2618-.169.6318-.1387.7236-.4775.77-1.6631.0459-.8007.0615-4.5263.0615-5.373,0-.0615-.0469-.1694-.0772-.0464-1.0166,2.1094-2.6787,5.5581-3.2792,7.0054-.1231.2461-.1846.354-.2774.354s-.1689-.231-.2461-.4c-.5547-1.3237-2.7871-6.2505-3.1875-7.02-.0615-.1387-.0918-.1538-.123.0771-.0616.6465-.2,4.2954-.2,5.3579a5.2526,5.2526,0,0,0,.0615,1.062c.0615.354.3545.585.8164.6778.1543.0307.2461.0923.2461.1538,0,.1079-.1387.1387-.292.123-.2773.0157-.8164-.0615-1.34-.0615-.4922,0-.9239.0772-1.1084.0772-.2315,0-.293-.0308-.293-.1079,0-.0464.0469-.108.2617-.17.4473-.123.6777-.2153.832-.4463a3.8,3.8,0,0,0,.3536-1.6938c.0927-.8775.2929-4.0029.2929-5.1885,0-.9082-.0459-1.1084-.3388-1.4165a1.2781,1.2781,0,0,0-.8008-.3691c-.1074-.0308-.2461-.0928-.2461-.1695S238.0488,79.0457,238.1416,79.0457Z"/><path class="cls-4" d="M250.708,83.3719a6.9682,6.9682,0,0,0,1.5088-.4619,1.3706,1.3706,0,0,1,.2305-.0923c.0468,0,.0771.0464.0615.2158-.03.3233-.03,1.1084-.03,1.7549,0,1.7246,0,2.956.03,3.187a.4666.4666,0,0,0,.416.4775c.169.0459.2158.0923.2158.1539,0,.0771-.1084.1079-.2314.1079-.2617,0-.6153-.0772-1.2627-.0772-.6768,0-1.0313.0308-1.2.0308-.1387,0-.2617-.0464-.2617-.1079,0-.0767.0918-.1075.2763-.1382.4-.0928.5088-.293.5088-.8316,0-.4619.0459-3.1406.0459-3.2949,0-.2925,0-.354-.4-.6313-.0771-.0616-.123-.1075-.123-.169C250.4922,83.4647,250.5381,83.4183,250.708,83.3719Zm1.832-2.4478a.7373.7373,0,0,1-.7548.77.6961.6961,0,0,1-.6465-.708.7365.7365,0,0,1,.7236-.7852A.7246.7246,0,0,1,252.54,80.9241Z"/><path class="cls-4" d="M255.958,84.8963c0,2.0015.0147,2.6172.03,2.8945.0156.4927.1084.5542.5088.6465.0918.0156.1992.0615.1992.1387,0,.0615-.1533.1079-.3076.1079-.4619,0-1.0772-.0464-1.3086-.0464-.416,0-.7393.0308-1.1543.0308-.1543,0-.2774-.0308-.2774-.1079s.1075-.1075.23-.1382c.416-.0772.5088-.1695.5391-.8316.0312-.6313.0927-3.4951.1084-4.9731,0-.8467.0146-2.4785,0-3.002,0-.3545-.0772-.4619-.4317-.6469-.1074-.0616-.1543-.1231-.1543-.169s.0928-.0928.2315-.1235a8.78,8.78,0,0,0,1.5547-.4312.6655.6655,0,0,1,.2158-.0615c.03,0,.0615.0923.0615.1694,0,.108-.0459,2.6792-.0459,5.3423Z"/><path class="cls-4" d="M262.2715,84.5574a.2318.2318,0,0,1-.1846.2159c-.17-.0157-2.0791-.0464-2.4941-.0464h-.5547c-.0459,0-.1074.0771-.1387.123a2.363,2.363,0,0,0-.0771.6314,2.5258,2.5258,0,0,0,.6777,1.8169,2.0738,2.0738,0,0,0,2.7715.1386c.1074-.1235.1689-.0927.1689-.0156s-.03.1231-.1074.231a2.7238,2.7238,0,0,1-2.2637,1.17,2.54,2.54,0,0,1-1.9091-.8,3.0632,3.0632,0,0,1-.7383-2.0786,3.1428,3.1428,0,0,1,1.0312-2.3555,2.9038,2.9038,0,0,1,1.878-.6929A1.8117,1.8117,0,0,1,262.2715,84.5574Zm-2.9561-.9389a1.8256,1.8256,0,0,0-.3388.7851c0,.0308.0312.0923.0771.0923l1.4629-.0151c.415,0,.4463-.231.4463-.37a1.1964,1.1964,0,0,0-.2158-.7392.7679.7679,0,0,0-.5694-.2617A1.1978,1.1978,0,0,0,259.3154,83.6185Z"/><path class="cls-4" d="M221.2627,99.8953c.1387,0,.2617.0308.2617.1074,0,.0464-.1533.108-.2617.1236-.3691.0615-.3535.2-.292.4463.2305.708.8926,2.4629,1.2471,3.3252.0156.0459.0771.0615.0918.0156.247-.5234.9238-2.0166,1.0781-2.417.0156-.0771.0615-.1846.03-.2617-.0762-.2-.1846-.4463-.2618-.6314a.8192.8192,0,0,0-.5849-.5078c-.1387-.0307-.2149-.0615-.2149-.1235s.0762-.0923.2305-.0923c.3233,0,.7236.0464,1.0469.0464.4463,0,.6318-.0308.9082-.0308.17,0,.2314.0308.2314.0767,0,.062-.1074.1235-.2314.1543-.3535.0766-.4463.1382-.2617.6152.17.4776.9853,2.71,1.2011,3.1875.0459.0772.0772.0147.0772,0,.1846-.4.9238-2.1553,1.1084-2.68a3.4876,3.4876,0,0,0,.2461-.7383c0-.1386-.0615-.2773-.4619-.3847-.2-.0615-.2461-.1079-.2461-.1543,0-.0615.0928-.0923.2-.0923.2617,0,.539.0464.7851.0464.1543,0,.5391-.0464.77-.0464.1386,0,.2158.0308.2158.0923s-.0459.0928-.2774.1543c-.2773.0766-.4619.2925-.6621.708-.2763.5537-.7383,1.6162-1.2158,2.71-.2617.6308-.5391,1.3085-.7236,1.8007-.0928.2461-.1543.293-.2.293-.0615,0-.1074-.0615-.169-.2773-.0771-.2159-.1855-.5235-.37-1.0469-.292-.8311-.6152-1.709-.9238-2.5254-.0156-.0459-.0459-.0772-.0772,0-.1386.293-.7851,1.709-1,2.248-.2314.5079-.37.8623-.539,1.3086-.0772.2159-.1543.293-.2158.293s-.1075-.1084-.1543-.2773c-.0762-.2159-.169-.585-.4307-1.3243-.2773-.7539-1.1543-3.0332-1.3242-3.3252a.8772.8772,0,0,0-.6778-.6005c-.123-.0308-.2148-.0767-.2148-.1231,0-.0923.1074-.123.2773-.123.1993,0,.6612.0615,1.0928.0615C220.6475,99.9261,220.9551,99.8953,221.2627,99.8953Z"/><path class="cls-4" d="M231.9961,100.5267a3.7314,3.7314,0,0,1,.2148,1.4c0,.57-.0459,2.0322-.0459,2.4326a.5273.5273,0,0,0,.5694.5849.98.98,0,0,0,.4472-.1386c.0918-.0459.1534,0,.0918.1386a1.2958,1.2958,0,0,1-1.1855.6622,1.0347,1.0347,0,0,1-.9082-.6924.0534.0534,0,0,0-.0772-.0157,2.1558,2.1558,0,0,1-1.5087.6924,1.2772,1.2772,0,0,1-1.2315-1.3232,1.0865,1.0865,0,0,1,.5537-.8779c.37-.2,1.7715-.6163,2.0947-.7393a.2905.2905,0,0,0,.2-.2305,5.3181,5.3181,0,0,0,.03-.709c0-.6308-.1074-1.0615-.3691-1.2617a1.1749,1.1749,0,0,0-.6465-.2466,1.0593,1.0593,0,0,0-.6162.1851.62.62,0,0,0-.2315.3691,1.6762,1.6762,0,0,0-.0146.293.1945.1945,0,0,1-.0615.1231,3.3572,3.3572,0,0,1-.7237.3388c-.0771.0147-.1543-.0771-.1543-.1386,0-.1084.1074-.2471.293-.462a3.9806,3.9806,0,0,1,1.17-.893,2.0661,2.0661,0,0,1,.9238-.2774A1.2627,1.2627,0,0,1,231.9961,100.5267Zm-1.0322,4.2334a.6394.6394,0,0,0,.17-.3692,11.0875,11.0875,0,0,0,.0771-1.4629c0-.0156-.0312-.0927-.0625-.0771a8.7774,8.7774,0,0,0-1.416.5234.7975.7975,0,0,0-.3847.77.8937.8937,0,0,0,.9238.8623A1.052,1.052,0,0,0,230.9639,104.76Z"/><path class="cls-4" d="M235.4307,101.6966c0,1.9394.0156,2.6631.0312,2.956.0147.4151.1074.5235.5381.6006.0928.0147.2.0616.2.1075,0,.0615-.1074.1074-.3076.1074-.2461,0-.8008-.03-1.0625-.03-.4,0-.8008.03-1.0313.03-.1845,0-.2617-.0147-.2617-.0918s.0772-.0928.2774-.1387c.3847-.0771.4765-.2158.538-.8935.0313-.5694.0928-3.1709.1084-5.0186,0-1.2471.0157-2.5093,0-3.187,0-.3389-.0312-.4155-.4316-.6621-.1074-.0615-.1533-.0923-.1533-.1387s.0918-.0923.23-.123a7.9828,7.9828,0,0,0,1.1553-.354.6534.6534,0,0,1,.1846-.0464c.03,0,.0459.0927.0459.1694,0,.1079-.0615,2.7715-.0615,5.0811Z"/><path class="cls-4" d="M241.2207,99.9261c.3379,0,.9541-.0772,1.3545-.0772.1689,0,.2305.0464.2305.0923,0,.0308-.0459.0928-.2305.1236a2.7438,2.7438,0,0,0-1.416.6767c-.4.3086-1.1553.9551-1.4473,1.2315-.0312.0312,0,.0771.0147.1084.4619.539,1.57,1.7246,2.2939,2.4629a1.9831,1.9831,0,0,0,1.1094.7236c.1377.0312.2305.0771.2305.1387,0,.0927-.1387.1084-.2618.1084-.5234,0-1.1084-.0772-1.709-.0772-.2617,0-.4619.0156-.6923.0156-.17,0-.2774,0-.2774-.0927,0-.0772.0772-.1075.3535-.17.2618-.0615.293-.1992.1543-.415-.3232-.37-1.416-1.5244-1.8779-1.9863-.123-.1231-.2314-.2305-.293-.2305-.0459,0-.0615.0918-.0615.1533-.0156.2774-.03.7852-.0156,1.6319,0,.7392.123.7851.6006.8935.1543.0459.2314.0772.2314.1387,0,.0771-.123.1074-.2929.1074-.4307,0-.754-.0459-1.1543-.0459-.4932,0-.8165.0459-1.001.0459-.1543,0-.2461-.0459-.2461-.1074,0-.0469.0918-.0928.2-.1084.4765-.1231.5849-.2617.6152-.7695.0615-1.1241.0772-2.417.0772-3.6182.0156-1.2007.0615-3.1714.0615-4.3721A2.6472,2.6472,0,0,0,237.71,95.8c-.03-.123-.169-.2153-.3545-.3076-.0762-.0464-.1377-.0771-.1377-.1079,0-.0615.0918-.0923.2461-.1387a9.4667,9.4667,0,0,0,1.0927-.3691.7181.7181,0,0,1,.2461-.0772c.0157,0,.0469.0464.0469.1231-.0312.5083-.0771,1.8628-.0771,3.0024,0,.4771-.0772,2.5093-.0772,4.2027,0,.17.0313.2461.0772.2461a.77.77,0,0,0,.3076-.169,13.1881,13.1881,0,0,0,1.6631-1.54.5554.5554,0,0,0,.1689-.2764c0-.0923-.1074-.1851-.4463-.2466-.1387-.0151-.2617-.0615-.2617-.123s.1074-.1079.2461-.1079C240.6973,99.9105,241.0508,99.9261,241.2207,99.9261Z"/><path class="cls-4" d="M245.3018,102.4818c-.1387-1.4317-.4776-3.9258-.5079-4.88-.0156-.4619.2618-1.14.6778-1.14.4463,0,.6924.5391.6924,1.0777,0,.7085-.4463,4.0957-.5079,4.8955-.0312.3242-.0927.4619-.17.4619C245.3945,102.8968,245.333,102.805,245.3018,102.4818Zm-.5079,2.4326a.74.74,0,0,1,.7081-.7237c.4619,0,.6162.5235.6162.7383a.6677.6677,0,0,1-.6162.6621A.6945.6945,0,0,1,244.7939,104.9144Z"/><path class="cls-5" d="M261.05,120.8616a.4948.4948,0,0,1,.5-.5h0a.5016.5016,0,0,1,.5.5h0a.5087.5087,0,0,1-.5.5h0A.5015.5015,0,0,1,261.05,120.8616Zm-3,0a.4948.4948,0,0,1,.5-.5h0a.5016.5016,0,0,1,.5.5h0a.5087.5087,0,0,1-.5.5h0A.5015.5015,0,0,1,258.05,120.8616Zm-3,0a.4948.4948,0,0,1,.5-.5h0a.5016.5016,0,0,1,.5.5h0a.5087.5087,0,0,1-.5.5h0A.5015.5015,0,0,1,255.05,120.8616Zm-3,0a.4927.4927,0,0,1,.49-.5h0a.5038.5038,0,0,1,.51.5h0a.5107.5107,0,0,1-.51.5h0A.5.5,0,0,1,252.05,120.8616Zm-3.01,0a.5032.5032,0,0,1,.51-.5h0a.5016.5016,0,0,1,.5.5h0a.5087.5087,0,0,1-.5.5h0A.51.51,0,0,1,249.04,120.8616Zm-2.99,0a.4948.4948,0,0,1,.5-.5h0a.5016.5016,0,0,1,.5.5h0a.5087.5087,0,0,1-.5.5h0A.5015.5015,0,0,1,246.05,120.8616Zm-3,0a.4948.4948,0,0,1,.5-.5h0a.5016.5016,0,0,1,.5.5h0a.5087.5087,0,0,1-.5.5h0A.5015.5015,0,0,1,243.05,120.8616Zm-3,0a.4948.4948,0,0,1,.5-.5h0a.5016.5016,0,0,1,.5.5h0a.5087.5087,0,0,1-.5.5h0A.5015.5015,0,0,1,240.05,120.8616Zm-3,0a.4948.4948,0,0,1,.5-.5h0a.5016.5016,0,0,1,.5.5h0a.5087.5087,0,0,1-.5.5h0A.5015.5015,0,0,1,237.05,120.8616Zm-3,0a.4948.4948,0,0,1,.5-.5h0a.5016.5016,0,0,1,.5.5h0a.5087.5087,0,0,1-.5.5h0A.5015.5015,0,0,1,234.05,120.8616Zm-3,0a.4948.4948,0,0,1,.5-.5h0a.5016.5016,0,0,1,.5.5h0a.5087.5087,0,0,1-.5.5h0A.5015.5015,0,0,1,231.05,120.8616Zm-3,0a.4948.4948,0,0,1,.5-.5h0a.5016.5016,0,0,1,.5.5h0a.5087.5087,0,0,1-.5.5h0A.5015.5015,0,0,1,228.05,120.8616Zm-3,0a.4948.4948,0,0,1,.5-.5h0a.5016.5016,0,0,1,.5.5h0a.5087.5087,0,0,1-.5.5h0A.5015.5015,0,0,1,225.05,120.8616Zm-3,0a.4948.4948,0,0,1,.5-.5h0a.5016.5016,0,0,1,.5.5h0a.5087.5087,0,0,1-.5.5h0A.5015.5015,0,0,1,222.05,120.8616Zm-3,0a.4948.4948,0,0,1,.5-.5h0a.5016.5016,0,0,1,.5.5h0a.5087.5087,0,0,1-.5.5h0A.5015.5015,0,0,1,219.05,120.8616Z"/><polyline class="cls-6" points="260.706 116.37 265.283 120.948 260.706 125.526"/><path class="cls-4" d="M281.2236,139.84c.37,0,1.001.0616,1.4629.0616.3389,0,.708-.0313,1.0313-.0313.2158,0,.3076.0469.3076.1084,0,.0772-.0918.1231-.2764.1533-.4316.0772-.4316.2618-.3232.5391.6465,1.6016,2.1709,4.8809,3.2178,7.19.0459.1075.1074.0772.1533,0,.4316-.8779.8008-1.6474,1.2168-2.6328a.43.43,0,0,0,.03-.1845c-.246-.585-1.2773-2.9258-1.6162-3.6651-.4463-.9541-.5693-1.1387-1.0468-1.2617-.2461-.0469-.3233-.1084-.3233-.1856,0-.0459.0918-.0918.292-.0918.4473,0,.7393.0616,1.294.0616s.9082-.0616,1.2617-.0616c.1543,0,.2617.03.2617.0918,0,.0772-.0918.1241-.292.17-.416.0771-.5693.2617-.3389.831.2461.6465.708,1.6934,1.2168,2.8643.0147.03.0762.0459.1231-.0313.3691-.7539.6924-1.4629,1.0156-2.2168.4775-1.124.4619-1.2783-.2-1.4316-.2773-.0615-.3232-.1231-.3232-.1856,0-.0459.0927-.0761.2773-.0761.3848,0,.6309.0459,1.0313.0459.539,0,.7851-.0616,1.14-.0616.1846,0,.2617.0157.2617.0772,0,.0771-.0771.123-.2929.1689-.5694.1231-.8623.4463-1.37,1.34-.4.77-1.1543,2.2939-1.416,2.7715a.2651.2651,0,0,0,.0156.1845c.3848.9082,1.0616,2.3711,1.585,3.5254.0615.1075.1084.0772.1387,0,.7392-1.6015,2.6025-5.9121,2.9258-7.0517.0771-.3379.0615-.6-.4463-.7539-.2471-.0772-.3389-.1075-.3389-.17s.0459-.0918.2617-.0918c.4,0,.6153.0616,1.0772.0616.4316,0,.8467-.0616,1.124-.0616.2,0,.2773.0157.2773.0772s-.0771.123-.3545.1689c-.6464.17-.9238.4932-1.8935,2.6788-.97,2.125-2.2168,5.0351-2.9248,6.7285-.1084.2617-.1543.3545-.2315.3545-.1074,0-.1689-.1084-.2617-.3545-.3232-.94-1.2-2.8487-1.6474-3.834-.03-.0615-.0772-.0615-.1075-.0147-.5849,1.1387-1.4013,2.94-1.74,3.833-.0918.2461-.1846.37-.2461.37-.0918,0-.123-.0928-.2305-.37-.2-.5078-.6777-1.6318-.8779-2.0937-.8467-1.9551-1.8779-4.2344-2.6015-5.7432-.5547-1.2-.6778-1.4775-1.2627-1.5547-.1846-.0156-.3233-.0771-.3233-.1386C280.916,139.9017,281.0234,139.84,281.2236,139.84Z"/><path class="cls-4" d="M297.47,144.6439a3.7347,3.7347,0,0,1,.2149,1.4c0,.57-.0459,2.0332-.0459,2.4326a.5272.5272,0,0,0,.5693.5849.9883.9883,0,0,0,.4473-.1377c.0918-.0468.1533,0,.0918.1377a1.296,1.296,0,0,1-1.1856.6621,1.0334,1.0334,0,0,1-.9082-.6923.0533.0533,0,0,0-.0771-.0157,2.1531,2.1531,0,0,1-1.5088.6934,1.2775,1.2775,0,0,1-1.2315-1.3242,1.0871,1.0871,0,0,1,.5537-.878c.37-.2,1.7715-.6152,2.0948-.7392a.2908.2908,0,0,0,.2-.2305,5.321,5.321,0,0,0,.03-.708c0-.6318-.1074-1.0625-.3691-1.2627a1.17,1.17,0,0,0-.6465-.2461,1.059,1.059,0,0,0-.6162.1846.6183.6183,0,0,0-.2314.3691,1.6649,1.6649,0,0,0-.0147.293.1935.1935,0,0,1-.0615.123,3.3527,3.3527,0,0,1-.7236.3389c-.0772.0156-.1543-.0771-.1543-.1387,0-.1074.1074-.2461.2929-.4619a3.9717,3.9717,0,0,1,1.17-.8926,2.0542,2.0542,0,0,1,.9238-.2773A1.2621,1.2621,0,0,1,297.47,144.6439Zm-1.0322,4.2334a.6394.6394,0,0,0,.17-.3692,11.0837,11.0837,0,0,0,.0772-1.4629c0-.0156-.0313-.0918-.0625-.0771a8.774,8.774,0,0,0-1.416.5234.7979.7979,0,0,0-.3848.77.8944.8944,0,0,0,.9238.8623A1.0524,1.0524,0,0,0,296.4375,148.8773Z"/><path class="cls-4" d="M299.7949,148.9857a1.7358,1.7358,0,0,1-.1845-.878v-3.1865c0-.17-.0157-.2773-.0772-.3086a2.5385,2.5385,0,0,0-.3691-.0918c-.1231-.0312-.2-.0771-.2-.1387,0-.0312.0156-.0771.1845-.1543a3.2759,3.2759,0,0,0,1.2627-1.0312c.1387-.1543.2461-.1231.2461-.0469,0,.1387-.03.57-.0146.7549,0,.0459.0146.1387.0762.1387.2773,0,1.5556-.0459,1.8789-.0459.03,0,.0918.1074.0918.2148,0,.2617-.0762.3848-.1534.3848-.539,0-1.2939-.0147-1.709-.0147-.1845,0-.2158.0459-.2158.1387,0,.2617.0157,2.6787.0313,3.1563a1.5785,1.5785,0,0,0,.1689.831,1.14,1.14,0,0,0,.9541.416,1.5035,1.5035,0,0,0,.8477-.2314c.1074-.0772.1533-.0615.1533,0,0,.0928-.1387.2461-.3389.4a2.11,2.11,0,0,1-1.247.4A1.4276,1.4276,0,0,1,299.7949,148.9857Z"/><path class="cls-4" d="M307.8184,145.429a.1806.1806,0,0,1-.1543.169c-.1231-.0157-2.125-.0459-2.4786-.0459h-.831c-.0313,0-.1084.0771-.1387.123a2.1128,2.1128,0,0,0-.124.8467,2.76,2.76,0,0,0,.709,1.8633,2.0772,2.0772,0,0,0,1.539.6308,1.9664,1.9664,0,0,0,1.4629-.4922c.1231-.123.1846-.0927.1846-.0156a.585.585,0,0,1-.1533.2461,2.7218,2.7218,0,0,1-2.1406.97,2.484,2.484,0,0,1-1.8321-.7851,3.0084,3.0084,0,0,1-.7392-2.0625,3.21,3.21,0,0,1,.8935-2.2481,2.8625,2.8625,0,0,1,1.9239-.7695A1.7765,1.7765,0,0,1,307.8184,145.429Zm-3.1407-.7851a1.3414,1.3414,0,0,0-.3232.6308.0653.0653,0,0,0,.0615.0615l2.001-.0156c.3389,0,.3691-.1689.3691-.3076a.9921.9921,0,0,0-.2148-.6465,1.0779,1.0779,0,0,0-.7705-.293A1.5968,1.5968,0,0,0,304.6777,144.6439Z"/><path class="cls-4" d="M310.5449,144.9827a.8858.8858,0,0,0-.2617.5381,9.0254,9.0254,0,0,0-.0156.9395c0,1.14.0312,1.94.0615,2.2636.0615.4766.2471.585.832.6465.2149.03.292.0615.292.1387s-.1386.1074-.3691.1074c-.293,0-.8008-.0615-1.4473-.0615a8.2824,8.2824,0,0,0-.9394.0928c-.1846,0-.2618-.0313-.2618-.0928,0-.0459.1084-.1231.2315-.1543a.6346.6346,0,0,0,.5537-.6309c.0313-.2617.0469-1.14.0469-2.1552v-1.709c0-.1084-.1084-.1543-.4-.4-.1084-.0772-.1231-.1231-.1231-.1543s.0918-.0918.2305-.1387a4.62,4.62,0,0,0,.9854-.3691.486.486,0,0,1,.2314-.0772c.03,0,.0615.0616.0615.2159,0,.1689-.0156.7539-.0156,1.0009,0,.0459.03.0616.0772.0147a2.5148,2.5148,0,0,1,1.6621-1.1084.8962.8962,0,0,1,.539.2.2678.2678,0,0,1,.1074.2158,1.052,1.052,0,0,1-.3378.5234c-.1387.1231-.2.1387-.2471.1387a.6919.6919,0,0,1-.2764-.1084,1.085,1.085,0,0,0-.539-.1846A1.0488,1.0488,0,0,0,310.5449,144.9827Z"/><path class="cls-4" d="M291.748,157.179a.2724.2724,0,0,1,.1534.2617c-.03.3692.0468,1.0313.0468,1.1856s-.0615.2461-.0927.2461c-.0616,0-.1075-.0772-.1387-.2a2.3951,2.3951,0,0,0-.7393-1.2315,3.5279,3.5279,0,0,0-2.3554-.77,3.7137,3.7137,0,0,0-2.6787,1.2012,5.5582,5.5582,0,0,0-1.17,3.5723,5.8337,5.8337,0,0,0,1.4161,3.7256,3.6764,3.6764,0,0,0,2.6328,1.14,3.2638,3.2638,0,0,0,1.832-.4316,2.7554,2.7554,0,0,0,1.1855-1.5088c.0616-.2.0928-.2617.1543-.2617s.0918.1386.0918.2314a11.0282,11.0282,0,0,1-.2148,1.2158.4173.4173,0,0,1-.1543.2315,5.5847,5.5847,0,0,1-3.002.8466A5.3,5.3,0,0,1,284.7119,165a5.3887,5.3887,0,0,1-1.2939-3.4033,4.9092,4.9092,0,0,1,1.7246-3.8945,5.5337,5.5337,0,0,1,3.5879-1.2784A7.1078,7.1078,0,0,1,291.748,157.179Z"/><path class="cls-4" d="M296.6465,161.4437a3.7348,3.7348,0,0,1,.2148,1.4c0,.57-.0459,2.0322-.0459,2.4326a.528.528,0,0,0,.5694.5859.9914.9914,0,0,0,.4472-.1387c.0918-.0468.1534,0,.0918.1387a1.2969,1.2969,0,0,1-1.1855.6611,1.0331,1.0331,0,0,1-.9082-.6923.0534.0534,0,0,0-.0772-.0157,2.153,2.153,0,0,1-1.5088.6934,1.2775,1.2775,0,0,1-1.2314-1.3242,1.0869,1.0869,0,0,1,.5537-.878c.37-.2,1.7715-.6152,2.0947-.7392a.2906.2906,0,0,0,.2-.2305,5.3036,5.3036,0,0,0,.03-.708c0-.6318-.1074-1.0625-.3691-1.2627a1.17,1.17,0,0,0-.6465-.2461,1.0586,1.0586,0,0,0-.6162.1846.6184.6184,0,0,0-.2315.3691,1.6762,1.6762,0,0,0-.0146.293.1936.1936,0,0,1-.0616.123,3.3505,3.3505,0,0,1-.7236.3389c-.0771.0156-.1543-.0771-.1543-.1387,0-.1074.1074-.246.293-.4619a3.9921,3.9921,0,0,1,1.17-.8935,2.063,2.063,0,0,1,.9238-.2764A1.2623,1.2623,0,0,1,296.6465,161.4437Zm-1.0322,4.2334a.6394.6394,0,0,0,.17-.3692,11.0875,11.0875,0,0,0,.0771-1.4629c0-.0156-.0312-.0918-.0625-.0771a8.7774,8.7774,0,0,0-1.416.5234.7979.7979,0,0,0-.3848.77.8944.8944,0,0,0,.9239.8623A1.0526,1.0526,0,0,0,295.6143,165.6771Z"/><path class="cls-4" d="M303.2988,161.1819a3.216,3.216,0,0,1,.4922,2.0166c0,.8165.0156.94.0156,1.709.0157,1.0469.0616,1.14.4776,1.2471.1387.0615.23.0928.23.1543,0,.0918-.123.1074-.2773.1074-.2,0-.6465-.0615-.9853-.0615-.5235,0-.7237.0615-.9541.0615-.1387,0-.2461-.03-.2461-.0928s.0918-.123.292-.1689c.37-.0928.4316-.2.4316-.6465v-2.0937c0-1.2471-.1084-1.6172-.4932-1.9092a1.3691,1.3691,0,0,0-.8779-.293,1.8419,1.8419,0,0,0-1.2.4932.7937.7937,0,0,0-.1846.4619c0,.1846.0147.97.0147,1.8936a12.5024,12.5024,0,0,0,.0928,1.6162c.0459.3388.23.416.4775.4931.1846.0459.2617.0772.2617.1533,0,.0928-.1543.0928-.3086.0928-.123,0-.8769-.0615-1.2314-.0615-.2,0-.5235.0312-.8155.0312-.17,0-.2929-.0312-.2929-.1084,0-.0615.1386-.123.3232-.1533.3848-.0771.4463-.1855.4619-.4931.0313-1.1084.0313-2.5254.0313-3.7725,0-.1533-.0313-.3232-.4-.5234-.0928-.0616-.1231-.0918-.1231-.1377,0-.0313.0762-.0772.2149-.1241a5.731,5.731,0,0,0,1.2168-.5234c.0459-.0146.123.0469.1074.1231a6.8876,6.8876,0,0,0-.03.8164c0,.0312.0459.0771.0762.0459a5.3389,5.3389,0,0,1,1.0938-.6924,2.0752,2.0752,0,0,1,.9082-.1846A1.5724,1.5724,0,0,1,303.2988,161.1819Z"/><path class="cls-4" d="M308.7969,161.4437a3.7348,3.7348,0,0,1,.2148,1.4c0,.57-.0459,2.0322-.0459,2.4326a.528.528,0,0,0,.5694.5859.9914.9914,0,0,0,.4472-.1387c.0918-.0468.1533,0,.0918.1387a1.2969,1.2969,0,0,1-1.1855.6611,1.033,1.033,0,0,1-.9082-.6923.0534.0534,0,0,0-.0772-.0157,2.153,2.153,0,0,1-1.5088.6934,1.2775,1.2775,0,0,1-1.2314-1.3242,1.0869,1.0869,0,0,1,.5537-.878c.37-.2,1.7715-.6152,2.0947-.7392a.2906.2906,0,0,0,.2-.2305,5.3036,5.3036,0,0,0,.03-.708c0-.6318-.1074-1.0625-.3691-1.2627a1.17,1.17,0,0,0-.6465-.2461,1.0586,1.0586,0,0,0-.6162.1846.6184.6184,0,0,0-.2315.3691,1.6762,1.6762,0,0,0-.0146.293.1936.1936,0,0,1-.0616.123,3.3527,3.3527,0,0,1-.7236.3389c-.0771.0156-.1543-.0771-.1543-.1387,0-.1074.1074-.246.293-.4619a3.9921,3.9921,0,0,1,1.17-.8935,2.063,2.063,0,0,1,.9238-.2764A1.2623,1.2623,0,0,1,308.7969,161.4437Zm-1.0323,4.2334a.6394.6394,0,0,0,.17-.3692,11.0875,11.0875,0,0,0,.0771-1.4629c0-.0156-.0312-.0918-.0625-.0771a8.774,8.774,0,0,0-1.416.5234.7979.7979,0,0,0-.3848.77.8944.8944,0,0,0,.9239.8623A1.0521,1.0521,0,0,0,307.7646,165.6771Z"/><path class="cls-4" d="M312.2305,162.6136c0,1.9394.0156,2.6631.0312,2.956.0147.4161.1074.5235.5381.6006.0928.0157.2.0616.2.1074,0,.0616-.1074.1084-.3076.1084-.2461,0-.8008-.0312-1.0625-.0312-.4,0-.8008.0312-1.0313.0312-.1845,0-.2617-.0156-.2617-.0927s.0772-.0928.2774-.1387c.3847-.0771.4765-.2158.538-.8926.0313-.57.0928-3.1719.1084-5.0195,0-1.2471.0157-2.51,0-3.1865,0-.3389-.0312-.416-.4316-.6621-.1074-.0616-.1533-.0928-.1533-.1387s.0918-.0928.23-.1231a8.0175,8.0175,0,0,0,1.1553-.3545.64.64,0,0,1,.1846-.0458c.03,0,.0459.0917.0459.1689,0,.1084-.0615,2.7715-.0615,5.0811Z"/><line class="cls-1" x1="328.6012" y1="112.0888" x2="267.1904" y2="112.0888"/><line class="cls-1" x1="267.1904" y1="129.0041" x2="328.6012" y2="129.0041"/><line class="cls-1" x1="267.1904" y1="129.0041" x2="328.6012" y2="129.0041"/><polyline class="cls-7" points="291.594 120.92 292.12 121.914 291.543 122.959"/><polyline class="cls-7" points="291.543 122.986 292.068 123.98 291.492 125.025"/><polyline class="cls-7" points="291.646 118.844 292.171 119.838 291.595 120.883"/><polyline class="cls-7" points="289.304 118.144 289.83 119.138 289.253 120.183"/><polyline class="cls-7" points="289.253 120.21 289.778 121.204 289.202 122.249"/><polyline class="cls-7" points="289.356 116.068 289.881 117.062 289.305 118.107"/><polyline class="cls-7" points="297.164 120.92 297.689 121.914 297.113 122.959"/><polyline class="cls-7" points="297.112 122.986 297.638 123.98 297.061 125.025"/><polyline class="cls-7" points="297.216 118.844 297.741 119.838 297.165 120.883"/><polyline class="cls-7" points="294.874 118.144 295.399 119.138 294.823 120.183"/><polyline class="cls-7" points="294.822 120.21 295.348 121.204 294.771 122.249"/><polyline class="cls-7" points="294.925 116.068 295.451 117.062 294.875 118.107"/><polyline class="cls-7" points="302.733 120.92 303.259 121.914 302.682 122.959"/><polyline class="cls-7" points="302.682 122.986 303.207 123.98 302.631 125.025"/><polyline class="cls-7" points="302.785 118.844 303.311 119.838 302.734 120.883"/><polyline class="cls-7" points="300.443 118.144 300.969 119.138 300.392 120.183"/><polyline class="cls-7" points="300.392 120.21 300.917 121.204 300.341 122.249"/><polyline class="cls-7" points="300.495 116.068 301.02 117.062 300.444 118.107"/><polyline class="cls-7" points="306.013 118.144 306.538 119.138 305.962 120.183"/><polyline class="cls-7" points="305.961 120.21 306.487 121.204 305.91 122.249"/><polyline class="cls-7" points="306.065 116.068 306.59 117.062 306.014 118.107"/></svg>