<svg id="Layer_1" data-name="Layer 1" xmlns="http://www.w3.org/2000/svg" viewBox="0 0 399 200"><defs><style>.cls-1,.cls-2,.cls-3,.cls-5{fill:none;stroke-linecap:round;}.cls-1,.cls-2,.cls-5{stroke:#222f3c;}.cls-1,.cls-2,.cls-3{stroke-linejoin:round;}.cls-1{stroke-width:0.5px;}.cls-2,.cls-3,.cls-5{stroke-width:0.4px;}.cls-3{stroke:#231f20;}.cls-4{fill:#333838;}.cls-5{stroke-miterlimit:10;}</style></defs><line class="cls-1" x1="243.0661" y1="121.5273" x2="233.8814" y2="121.5273"/><line class="cls-1" x1="270.4069" y1="121.5273" x2="261.2222" y2="121.5273"/><line class="cls-1" x1="260.2217" y1="118.0209" x2="270.4069" y2="118.0209"/><line class="cls-1" x1="233.8814" y1="118.0209" x2="244.0667" y2="118.0209"/><line class="cls-1" x1="239.3006" y1="143.1776" x2="241.633" y2="143.1776"/><line class="cls-1" x1="250.978" y1="143.1776" x2="253.3103" y2="143.1776"/><line class="cls-1" x1="262.6553" y1="143.1776" x2="264.9877" y2="143.1776"/><line class="cls-1" x1="245.1393" y1="146.3504" x2="247.4717" y2="146.3504"/><line class="cls-1" x1="256.8166" y1="146.3504" x2="259.149" y2="146.3504"/><polyline class="cls-1" points="233.881 138.802 239.969 136.464 246.056 138.802 250.391 137.137 250.391 131.16"/><polyline class="cls-1" points="270.407 138.802 264.32 136.464 258.233 138.802 253.897 137.137 253.897 131.162"/><circle class="cls-1" cx="252.1441" cy="122.2243" r="9.1044" transform="translate(42.7322 308.4018) rotate(-67.5)"/><polyline class="cls-1" points="245.792 128.743 233.881 128.743 233.881 149.738 270.407 149.738 270.407 128.743 258.497 128.743"/><path class="cls-1" d="M248.4185,123.8266c0-2.0576,3.7257-6.5362,3.7257-6.5362s3.7256,4.4786,3.7256,6.5362a3.7257,3.7257,0,0,1-7.4513,0Z"/><polyline class="cls-1" points="277.896 113.559 274.234 113.559 272.354 115.24 270.58 115.24 270.58 123.998 272.354 123.998 274.234 125.679 277.896 125.679"/><line class="cls-1" x1="93.3654" y1="127.2166" x2="160.5919" y2="127.2166"/><line class="cls-1" x1="161.9756" y1="119.9548" x2="226.9458" y2="119.9548"/><path class="cls-1" d="M100.7932,109.7a5.0815,5.0815,0,0,1,4.76-4.487,4.3813,4.3813,0,0,1,4.4531,4.0321,4.2209,4.2209,0,0,1,.0044,8.2364c.002.0515.0082.1019.0082.1538a4.47,4.47,0,0,1-8.9314,0c0-.0519.0061-.1023.0081-.1538"/><line class="cls-1" x1="105.5004" y1="114.5742" x2="102.0039" y2="111.4181"/><line class="cls-1" x1="105.7462" y1="116.4243" x2="108.7449" y2="112.4838"/><line class="cls-1" x1="105.647" y1="112.1616" x2="105.647" y2="127.1057"/><line class="cls-1" x1="144.7551" y1="113.9626" x2="144.7551" y2="117.0388"/><line class="cls-1" x1="132.1153" y1="122.1085" x2="132.1153" y2="127.1869"/><line class="cls-1" x1="154.5798" y1="122.1085" x2="154.5798" y2="127.1869"/><rect class="cls-1" x="141.7966" y="120.6153" width="5.9732" height="6.6051" rx="1"/><line class="cls-1" x1="117.3832" y1="122.1085" x2="117.3832" y2="127.1869"/><polyline class="cls-1" points="119.585 120.025 134.032 120.025 144.693 107.958 125.727 107.958 115.066 120.025"/><line class="cls-1" x1="144.7912" y1="107.9743" x2="155.452" y2="120.0416"/><line class="cls-1" x1="159.7504" y1="106.7335" x2="159.7504" y2="109.8096"/><line class="cls-1" x1="169.5751" y1="114.7118" x2="169.5751" y2="119.7901"/><rect class="cls-1" x="156.792" y="113.3582" width="5.9732" height="6.6051" rx="1"/><polyline class="cls-1" points="149.027 112.796 159.688 100.728 140.722 100.728 134.261 107.911"/><line class="cls-1" x1="159.7865" y1="100.7452" x2="170.4473" y2="112.8124"/><line class="cls-1" x1="78.3574" y1="127.2166" x2="160.5919" y2="127.2166"/><line class="cls-1" x1="185.8061" y1="106.6714" x2="185.8061" y2="109.7476"/><line class="cls-1" x1="198.446" y1="114.8173" x2="198.446" y2="119.8957"/><line class="cls-1" x1="175.9815" y1="114.8173" x2="175.9815" y2="119.8957"/><rect class="cls-1" x="182.7914" y="113.3241" width="5.9732" height="6.6051" rx="1" transform="translate(371.556 233.2533) rotate(-180)"/><line class="cls-1" x1="213.1781" y1="114.8173" x2="213.1781" y2="119.8957"/><polyline class="cls-1" points="210.976 112.734 196.529 112.734 185.869 100.666 204.835 100.666 215.495 112.734"/><line class="cls-1" x1="185.7701" y1="100.6831" x2="175.1093" y2="112.7504"/><line class="cls-1" x1="171.0623" y1="97.0695" x2="171.0623" y2="99.5597"/><path class="cls-1" d="M170.89,107.87h2.114a.5441.5441,0,0,0,.544-.544v-4.2591a.5441.5441,0,0,0-.544-.544h-3.7476a.5441.5441,0,0,0-.544.544v2.4272"/><polyline class="cls-1" points="179.743 101.977 171.113 92.208 186.467 92.208 191.697 98.023"/><line class="cls-1" x1="171.0331" y1="92.2217" x2="164.0579" y2="100.3355"/><path class="cls-1" d="M101.2477,111.5128a3.9075,3.9075,0,0,0-7.7767,0,3.6856,3.6856,0,0,0-.0039,7.1918c-.0017.045-.0071.089-.0071.1344a3.9032,3.9032,0,0,0,7.7987,0c0-.0454-.0054-.0894-.0071-.1344"/><line class="cls-1" x1="97.405" y1="116.1661" x2="100.4581" y2="113.4103"/><line class="cls-1" x1="97.1905" y1="117.7815" x2="94.5721" y2="114.3408"/><line class="cls-1" x1="97.277" y1="114.0595" x2="97.277" y2="127.1083"/><path class="cls-2" d="M120.8837,146.795h-4.1231a.1252.1252,0,0,1-.08-.0287l-2.6068-2.1546a.1253.1253,0,0,1-.0455-.0966v-2.3675a.1253.1253,0,0,1,.01-.0482l.7083-1.7052-.0255-3.4923h-2.4025a.1254.1254,0,0,1-.0887-.214l.6817-.6817a.1253.1253,0,0,1,.0477-.03l.4675-.1616.9882-.9253a.1258.1258,0,0,1,.0857-.0338h2.2589a.1254.1254,0,0,1,.1254.1254l.0012,6.5093h1.35a13.6393,13.6393,0,0,1,4.566.7847l1.6352.5791a.1255.1255,0,0,1,.0835.1182v.665a.1253.1253,0,0,1-.05.1l-1.8021,1.3514-1.6963,1.67A.1253.1253,0,0,1,120.8837,146.795Zm-3.9977-4.31v.79"/><line class="cls-2" x1="119.8786" y1="146.8156" x2="119.8786" y2="149.1616"/><polyline class="cls-2" points="117.328 149.226 118.883 148.163 118.883 147.454"/><polyline class="cls-2" points="116.919 143.299 118.462 144.922 121.886 144.922"/><line class="cls-2" x1="114.7058" y1="137.4522" x2="113.1402" y2="137.4522"/><path class="cls-2" d="M114.6292,134.842V133.24a.1255.1255,0,0,1,.1254-.1254h.5866a.1254.1254,0,0,1,.0887.0367l.449.449h.3422a.1257.1257,0,0,1,.0887.0368l.38.38a.1255.1255,0,0,1,.0368.0887v.7363"/><path class="cls-2" d="M114.7186,139.5471h-.9126a.1253.1253,0,0,1-.1254-.1254v-.8248a.1241.1241,0,0,1,.0073-.0422l.4026-1.0847"/><line class="cls-2" x1="106.6201" y1="149.2423" x2="127.5302" y2="149.2423"/><line class="cls-2" x1="112.0994" y1="149.1616" x2="112.0994" y2="147.9997"/><line class="cls-2" x1="112.9954" y1="148.6647" x2="112.9954" y2="149.1616"/><line class="cls-2" x1="113.8775" y1="149.1616" x2="113.8775" y2="147.4543"/><line class="cls-2" x1="121.8881" y1="149.24" x2="121.8881" y2="148.6706"/><line class="cls-2" x1="122.7496" y1="149.1904" x2="122.7496" y2="148.0894"/><path class="cls-2" d="M103.1691,146.7589l-1.6963-1.67-1.8021-1.3514a.1253.1253,0,0,1-.05-.1v-.665a.1255.1255,0,0,1,.0836-.1182l1.6351-.5791a13.6393,13.6393,0,0,1,4.566-.7847h1.35l.0012-6.5093a.1254.1254,0,0,1,.1254-.1254H109.64a.1258.1258,0,0,1,.0857.0338l.9882.9253.4675.1616a.1253.1253,0,0,1,.0477.03l.6817.6817a.1253.1253,0,0,1-.0887.214H109.42l-.0255,3.4923.7083,1.7052a.1253.1253,0,0,1,.01.0482v2.3675a.1253.1253,0,0,1-.0455.0966l-2.6067,2.1546a.1257.1257,0,0,1-.08.0287h-4.1231A.1253.1253,0,0,1,103.1691,146.7589Zm4.0857-3.4838v-.79"/><line class="cls-2" x1="104.2623" y1="146.8156" x2="104.2623" y2="149.1616"/><polyline class="cls-2" points="106.813 149.226 105.258 148.163 105.258 147.454"/><polyline class="cls-2" points="107.221 143.299 105.679 144.922 102.255 144.922"/><line class="cls-2" x1="109.435" y1="137.4522" x2="111.0007" y2="137.4522"/><path class="cls-2" d="M109.5116,134.842V133.24a.1255.1255,0,0,0-.1254-.1254H108.8a.1254.1254,0,0,0-.0887.0367l-.449.449H107.92a.1257.1257,0,0,0-.0887.0368l-.38.38a.1255.1255,0,0,0-.0368.0887v.7363"/><path class="cls-2" d="M109.4222,139.5471h.9126a.1253.1253,0,0,0,.1254-.1254v-.8248a.1241.1241,0,0,0-.0073-.0422L110.05,137.47"/><line class="cls-2" x1="117.5207" y1="149.2423" x2="96.6107" y2="149.2423"/><line class="cls-2" x1="112.0414" y1="149.1616" x2="112.0414" y2="147.9997"/><line class="cls-2" x1="111.1454" y1="148.6647" x2="111.1454" y2="149.1616"/><line class="cls-2" x1="110.2633" y1="149.1616" x2="110.2633" y2="147.4543"/><line class="cls-2" x1="102.2527" y1="149.24" x2="102.2527" y2="148.6706"/><line class="cls-2" x1="101.3912" y1="149.1904" x2="101.3912" y2="148.0894"/><path class="cls-2" d="M141.2272,153.7088h-4.123a.1257.1257,0,0,1-.08-.0287l-2.6067-2.1546a.1255.1255,0,0,1-.0455-.0966v-2.3675a.1271.1271,0,0,1,.01-.0482l.7084-1.7052-.0255-3.4923H132.662a.1253.1253,0,0,1-.0887-.214l.6817-.6817a.1253.1253,0,0,1,.0477-.03l.4675-.1616.9882-.9253a.1258.1258,0,0,1,.0857-.0338h2.2589a.1255.1255,0,0,1,.1254.1254l.0012,6.5092h1.35a13.6408,13.6408,0,0,1,4.5659.7847l1.6352.5792a.1254.1254,0,0,1,.0835.1182v.665a.1252.1252,0,0,1-.05.1l-1.8021,1.3515-1.6964,1.67A.1252.1252,0,0,1,141.2272,153.7088Zm-3.9976-4.31v.79"/><line class="cls-2" x1="140.2221" y1="153.7294" x2="140.2221" y2="156.0754"/><polyline class="cls-2" points="137.672 156.14 139.226 155.076 139.226 154.368"/><polyline class="cls-2" points="137.263 150.213 138.805 151.835 142.23 151.835"/><line class="cls-2" x1="135.0494" y1="144.366" x2="133.4837" y2="144.366"/><path class="cls-2" d="M134.9728,141.7558v-1.6023a.1254.1254,0,0,1,.1254-.1254h.5866a.1256.1256,0,0,1,.0887.0367l.449.449h.3422a.1254.1254,0,0,1,.0887.0368l.38.38a.1254.1254,0,0,1,.0367.0887v.7363"/><path class="cls-2" d="M135.0622,146.4609H134.15a.1254.1254,0,0,1-.1254-.1254v-.8248a.1241.1241,0,0,1,.0073-.0422l.4025-1.0847"/><line class="cls-2" x1="129.5128" y1="156.1561" x2="147.8737" y2="156.1561"/><line class="cls-2" x1="132.443" y1="156.0754" x2="132.443" y2="154.9135"/><line class="cls-2" x1="133.339" y1="155.5785" x2="133.339" y2="156.0754"/><line class="cls-2" x1="134.2211" y1="156.0754" x2="134.2211" y2="154.3681"/><line class="cls-2" x1="142.2317" y1="156.1537" x2="142.2317" y2="155.5844"/><line class="cls-2" x1="143.0932" y1="156.1042" x2="143.0932" y2="155.0032"/><path class="cls-3" d="M61.3627,127.3782a5.15,5.15,0,1,1,5.15-5.15A5.1559,5.1559,0,0,1,61.3627,127.3782Z"/><path class="cls-3" d="M76.6382,127.3782a3.9168,3.9168,0,1,1,3.9169-3.9167A3.9212,3.9212,0,0,1,76.6382,127.3782Z"/><path class="cls-3" d="M61.3627,119.1161a3.1112,3.1112,0,1,1-2.6231,1.4368"/><path class="cls-3" d="M76.6382,125.3452a1.8839,1.8839,0,1,1,1.8839-1.8837A1.8859,1.8859,0,0,1,76.6382,125.3452Z"/><line class="cls-3" x1="72.8869" y1="124.5881" x2="65.9483" y2="124.5881"/><line class="cls-3" x1="72.7664" y1="122.8752" x2="70.4176" y2="122.8466"/><path class="cls-3" d="M70.4307,122.8466a.1842.1842,0,0,1-.1841-.1841v-4.7479a.1841.1841,0,0,1,.1841-.1841H80.744a1.1241,1.1241,0,0,1,1.123,1.1228v3.6692a1.1244,1.1244,0,0,1-1.123,1.1231H80.54"/><path class="cls-3" d="M56.1943,122.8818h-.9692a1.1243,1.1243,0,0,1-1.1229-1.1231v-6.126a1.1242,1.1242,0,0,1,1.1229-1.123h1.1714"/><path class="cls-3" d="M58.9519,114.51h3.82a1.1293,1.1293,0,0,1,1.0492.7227"/><path class="cls-3" d="M75.6593,117.7305H74.2528a.1727.1727,0,0,1-.1841-.1582v-1.9361a.1726.1726,0,0,1,.1841-.1582h1.4065a.1726.1726,0,0,1,.1841.1582v1.9361A.1727.1727,0,0,1,75.6593,117.7305Z"/><line class="cls-3" x1="74.772" y1="115.4755" x2="74.772" y2="113.4605"/><line class="cls-3" x1="78.1062" y1="115.6621" x2="78.1062" y2="117.7101"/><line class="cls-3" x1="69.3807" y1="116.8505" x2="70.2568" y2="117.7317"/><line class="cls-3" x1="70.2983" y1="115.941" x2="68.2058" y2="118.0335"/><polyline class="cls-3" points="63.304 113.773 65.005 118.235 66.926 118.235"/><line class="cls-3" x1="71.2997" y1="120.4779" x2="71.2997" y2="119.0511"/><line class="cls-3" x1="72.1355" y1="120.4779" x2="72.1355" y2="119.0511"/><line class="cls-3" x1="72.9713" y1="120.4779" x2="72.9713" y2="119.0511"/><path class="cls-1" d="M133.9166,85.5239H118.4939a1.9505,1.9505,0,0,1-1.53-1.9814,2.0244,2.0244,0,0,1,2.2018-1.9814h.9212c-.2233,0-.3517-1.04-.3517-1.6042a3.7416,3.7416,0,0,1,6.28-2.7614,3.8722,3.8722,0,0,1,5.1053-1.5545A5.1983,5.1983,0,0,1,140.51,78.75a4.5511,4.5511,0,0,1-.8124,2.8115"/><path class="cls-1" d="M130.8828,75.2872c-.5167-3.5612,1.7589-8.1263,6.2885-8.9068a7.71,7.71,0,0,1,8.9068,6.2885c.7789,4.52-2.7423,8.2024-6.2884,8.9068"/><path class="cls-1" d="M149.8533,84.0462a2.8728,2.8728,0,0,1-4.8221,2.12,2.9734,2.9734,0,0,1-3.92,1.1936,3.9914,3.9914,0,0,1-7.209-2.3869,3.494,3.494,0,0,1,.6238-2.1587"/><path class="cls-1" d="M148.4058,73.6354a5.2888,5.2888,0,0,1,0,10.5775"/><path class="cls-4" d="M297.5215,138.9476c.37,0,1.001.0615,1.4629.0615.3388,0,.708-.0313,1.0312-.0313.2158,0,.3076.0469.3076.1084,0,.0772-.0918.1231-.2763.1534-.4317.0771-.4317.2617-.3233.539.6465,1.6016,2.1709,4.8809,3.2178,7.19.0459.1074.1074.0771.1533,0,.4317-.878.8008-1.6475,1.2168-2.6329a.4283.4283,0,0,0,.03-.1845c-.2461-.585-1.2773-2.9258-1.6162-3.6651-.4463-.9541-.5694-1.1386-1.0469-1.2617-.2461-.0469-.3232-.1084-.3232-.1855,0-.0459.0918-.0918.292-.0918.4472,0,.7392.0615,1.2939.0615s.9082-.0615,1.2617-.0615c.1543,0,.2617.03.2617.0918,0,.0771-.0918.124-.2919.17-.4161.0771-.5694.2617-.3389.831.2461.6465.708,1.6934,1.2168,2.8643.0146.03.0762.0459.123-.0312.3692-.754.6924-1.4629,1.0157-2.2168.4775-1.1241.4619-1.2784-.2-1.4317-.2774-.0615-.3233-.123-.3233-.1855,0-.0459.0928-.0762.2774-.0762.3847,0,.6308.0459,1.0312.0459.5391,0,.7852-.0615,1.14-.0615.1845,0,.2617.0156.2617.0771,0,.0772-.0772.1231-.293.169-.5693.123-.8623.4463-1.37,1.34-.4.7695-1.1543,2.294-1.416,2.7715a.2643.2643,0,0,0,.0156.1846c.3848.9082,1.0615,2.3711,1.585,3.5254.0615.1074.1084.0771.1386,0,.7393-1.6016,2.6026-5.9122,2.9258-7.0518.0772-.3379.0615-.6-.4463-.7539-.247-.0772-.3388-.1074-.3388-.17s.0459-.0918.2617-.0918c.4,0,.6152.0615,1.0771.0615.4317,0,.8467-.0615,1.124-.0615.2,0,.2774.0156.2774.0771s-.0772.1231-.3545.169c-.6465.17-.9238.4931-1.8936,2.6787-.97,2.125-2.2168,5.0351-2.9248,6.7285-.1084.2617-.1543.3545-.2314.3545-.1074,0-.1689-.1084-.2617-.3545-.3233-.94-1.2-2.8486-1.6475-3.834-.03-.0615-.0771-.0615-.1074-.0146-.585,1.1386-1.4014,2.94-1.74,3.833-.0918.2461-.1846.37-.2461.37-.0918,0-.1231-.0928-.2305-.37-.2-.5078-.6777-1.6319-.8779-2.0938-.8467-1.9551-1.878-4.2344-2.6016-5.7431-.5547-1.2-.6777-1.4776-1.2627-1.5547-.1846-.0157-.3232-.0772-.3232-.1387C297.2139,139.0091,297.3213,138.9476,297.5215,138.9476Z"/><path class="cls-4" d="M313.7676,143.7513a3.7348,3.7348,0,0,1,.2148,1.4c0,.57-.0459,2.0332-.0459,2.4326a.5273.5273,0,0,0,.5694.585.9883.9883,0,0,0,.4472-.1377c.0918-.0469.1533,0,.0918.1377a1.296,1.296,0,0,1-1.1855.6621,1.0331,1.0331,0,0,1-.9082-.6924.0533.0533,0,0,0-.0772-.0156,2.1533,2.1533,0,0,1-1.5088.6933,1.2775,1.2775,0,0,1-1.2314-1.3242,1.0865,1.0865,0,0,1,.5537-.8779c.37-.2,1.7715-.6153,2.0947-.7393a.2905.2905,0,0,0,.2-.2305,5.3029,5.3029,0,0,0,.03-.708c0-.6318-.1074-1.0625-.3691-1.2627a1.17,1.17,0,0,0-.6465-.2461,1.0586,1.0586,0,0,0-.6162.1846.6184.6184,0,0,0-.2315.3692,1.6743,1.6743,0,0,0-.0146.2929.1941.1941,0,0,1-.0616.1231,3.3566,3.3566,0,0,1-.7236.3388c-.0771.0157-.1543-.0771-.1543-.1386,0-.1075.1074-.2461.293-.462a3.9692,3.9692,0,0,1,1.17-.8925,2.0532,2.0532,0,0,1,.9238-.2774A1.2623,1.2623,0,0,1,313.7676,143.7513Zm-1.0322,4.2334a.64.64,0,0,0,.17-.3692,11.0875,11.0875,0,0,0,.0771-1.4629c0-.0156-.0312-.0917-.0625-.0771a8.7835,8.7835,0,0,0-1.416.5234.7979.7979,0,0,0-.3848.7705.8944.8944,0,0,0,.9239.8624A1.0527,1.0527,0,0,0,312.7354,147.9847Z"/><path class="cls-4" d="M316.0928,148.0931a1.7347,1.7347,0,0,1-.1846-.878v-3.1865c0-.17-.0156-.2773-.0771-.3086a2.5537,2.5537,0,0,0-.3692-.0918c-.123-.0312-.2-.0771-.2-.1386,0-.0313.0156-.0772.1846-.1543a3.277,3.277,0,0,0,1.2627-1.0313c.1387-.1543.2461-.123.2461-.0469,0,.1387-.03.57-.0147.7549,0,.0459.0147.1387.0762.1387.2773,0,1.5557-.0459,1.8789-.0459.03,0,.0918.1074.0918.2148,0,.2618-.0762.3848-.1533.3848-.5391,0-1.294-.0146-1.709-.0146-.1846,0-.2158.0459-.2158.1386,0,.2617.0156,2.6787.0312,3.1563a1.5779,1.5779,0,0,0,.169.831,1.14,1.14,0,0,0,.9541.4161,1.503,1.503,0,0,0,.8476-.2315c.1075-.0771.1534-.0615.1534,0,0,.0928-.1387.2461-.3389.4a2.11,2.11,0,0,1-1.2471.4A1.4273,1.4273,0,0,1,316.0928,148.0931Z"/><path class="cls-4" d="M324.1162,144.5364a.18.18,0,0,1-.1543.169c-.123-.0156-2.125-.0459-2.4785-.0459h-.8311c-.0312,0-.1084.0771-.1386.123a2.1106,2.1106,0,0,0-.1241.8467,2.76,2.76,0,0,0,.709,1.8633,2.0777,2.0777,0,0,0,1.5391.6309,1.9671,1.9671,0,0,0,1.4629-.4922c.123-.1231.1846-.0928.1846-.0157a.5856.5856,0,0,1-.1534.2461,2.7219,2.7219,0,0,1-2.1406.97,2.4837,2.4837,0,0,1-1.832-.7852,3.0083,3.0083,0,0,1-.7393-2.0625,3.21,3.21,0,0,1,.8936-2.248,2.8623,2.8623,0,0,1,1.9238-.77A1.7764,1.7764,0,0,1,324.1162,144.5364Zm-3.1406-.7851a1.3408,1.3408,0,0,0-.3233.6308.0654.0654,0,0,0,.0616.0616l2.0009-.0157c.3389,0,.3692-.1689.3692-.3076a.9918.9918,0,0,0-.2149-.6465,1.0779,1.0779,0,0,0-.7705-.2929A1.5964,1.5964,0,0,0,320.9756,143.7513Z"/><path class="cls-4" d="M326.8428,144.09a.8855.8855,0,0,0-.2617.5381,9.0225,9.0225,0,0,0-.0157.94c0,1.14.0313,1.94.0616,2.2637.0615.4765.247.5849.832.6464.2148.03.292.0616.292.1387s-.1387.1074-.3692.1074c-.2929,0-.8007-.0615-1.4472-.0615a8.2852,8.2852,0,0,0-.94.0928c-.1846,0-.2617-.0313-.2617-.0928,0-.0459.1084-.123.2314-.1543a.6347.6347,0,0,0,.5538-.6308c.0312-.2618.0468-1.14.0468-2.1553v-1.709c0-.1084-.1084-.1543-.4-.4-.1084-.0771-.123-.123-.123-.1543s.0918-.0918.2305-.1387a4.6135,4.6135,0,0,0,.9853-.3691.4858.4858,0,0,1,.2315-.0771c.03,0,.0615.0615.0615.2158,0,.1689-.0156.7539-.0156,1.0009,0,.0459.03.0616.0771.0147a2.5152,2.5152,0,0,1,1.6621-1.1084.8963.8963,0,0,1,.5391.2.2683.2683,0,0,1,.1074.2158,1.0522,1.0522,0,0,1-.3379.5235c-.1387.123-.2.1386-.2471.1386a.6917.6917,0,0,1-.2763-.1084,1.0852,1.0852,0,0,0-.5391-.1845A1.0486,1.0486,0,0,0,326.8428,144.09Z"/><path class="cls-4" d="M308.0459,156.2864a.2725.2725,0,0,1,.1533.2618c-.03.3691.0469,1.0312.0469,1.1855s-.0615.2461-.0928.2461c-.0615,0-.1074-.0772-.1387-.2a2.3953,2.3953,0,0,0-.7392-1.2314,3.5275,3.5275,0,0,0-2.3555-.7706,3.7139,3.7139,0,0,0-2.6787,1.2012,5.5592,5.5592,0,0,0-1.17,3.5723,5.8334,5.8334,0,0,0,1.416,3.7256,3.6768,3.6768,0,0,0,2.6328,1.14,3.2638,3.2638,0,0,0,1.832-.4316,2.756,2.756,0,0,0,1.1856-1.5088c.0615-.2.0928-.2617.1543-.2617s.0918.1386.0918.2314a11.0269,11.0269,0,0,1-.2149,1.2158.4163.4163,0,0,1-.1543.2315,5.5844,5.5844,0,0,1-3.0019.8467,5.3,5.3,0,0,1-4.0029-1.6319,5.3888,5.3888,0,0,1-1.294-3.4033A4.91,4.91,0,0,1,301.44,156.81a5.5336,5.5336,0,0,1,3.5879-1.2783A7.1085,7.1085,0,0,1,308.0459,156.2864Z"/><path class="cls-4" d="M312.9443,160.5511a3.7327,3.7327,0,0,1,.2149,1.4c0,.57-.0459,2.0322-.0459,2.4326a.528.528,0,0,0,.5693.5859.9911.9911,0,0,0,.4473-.1386c.0918-.0469.1533,0,.0918.1386a1.297,1.297,0,0,1-1.1856.6612,1.0333,1.0333,0,0,1-.9082-.6924.0532.0532,0,0,0-.0771-.0156,2.1533,2.1533,0,0,1-1.5088.6933,1.2776,1.2776,0,0,1-1.2315-1.3242,1.0866,1.0866,0,0,1,.5538-.8779c.37-.2,1.7714-.6153,2.0947-.7393a.2907.2907,0,0,0,.2-.23,5.3029,5.3029,0,0,0,.03-.708c0-.6318-.1075-1.0625-.3692-1.2627a1.17,1.17,0,0,0-.6465-.2461,1.059,1.059,0,0,0-.6162.1846.6182.6182,0,0,0-.2314.3692,1.6631,1.6631,0,0,0-.0147.2929.194.194,0,0,1-.0615.1231,3.3566,3.3566,0,0,1-.7236.3388c-.0772.0157-.1543-.0771-.1543-.1386,0-.1075.1074-.2461.2929-.4619a3.9925,3.9925,0,0,1,1.17-.8936,2.063,2.063,0,0,1,.9238-.2764A1.2621,1.2621,0,0,1,312.9443,160.5511Zm-1.0322,4.2334a.6391.6391,0,0,0,.17-.3692,11.0831,11.0831,0,0,0,.0772-1.4628c0-.0157-.0313-.0918-.0625-.0772a8.7835,8.7835,0,0,0-1.416.5234.798.798,0,0,0-.3848.7706.8944.8944,0,0,0,.9238.8623A1.0525,1.0525,0,0,0,311.9121,164.7845Z"/><path class="cls-4" d="M319.5967,160.2894a3.2163,3.2163,0,0,1,.4922,2.0166c0,.8164.0156.9394.0156,1.709.0156,1.0468.0615,1.14.4775,1.247.1387.0615.2305.0928.2305.1543,0,.0918-.123.1074-.2773.1074-.2,0-.6465-.0615-.9854-.0615-.5234,0-.7236.0615-.9541.0615-.1387,0-.2461-.03-.2461-.0927s.0918-.1231.292-.169c.37-.0927.4316-.2.4316-.6465v-2.0937c0-1.2471-.1084-1.6172-.4931-1.9092a1.37,1.37,0,0,0-.878-.293,1.8415,1.8415,0,0,0-1.2.4932.7937.7937,0,0,0-.1846.4619c0,.1846.0146.97.0146,1.8936a12.5418,12.5418,0,0,0,.0928,1.6162c.0459.3389.2305.416.4775.4931.1846.0459.2618.0772.2618.1534,0,.0927-.1543.0927-.3086.0927-.1231,0-.877-.0615-1.2315-.0615-.2,0-.5234.0313-.8154.0313-.17,0-.293-.0313-.293-.1084,0-.0616.1387-.1231.3233-.1533.3847-.0772.4463-.1856.4619-.4932.0312-1.1084.0312-2.5254.0312-3.7725,0-.1533-.0312-.3232-.4-.5234-.0927-.0615-.123-.0918-.123-.1377,0-.0313.0762-.0772.2148-.124a5.7312,5.7312,0,0,0,1.2168-.5235c.0459-.0146.1231.0469.1075.1231a6.8672,6.8672,0,0,0-.03.8164c0,.0312.0459.0771.0762.0459a5.3385,5.3385,0,0,1,1.0937-.6924,2.0755,2.0755,0,0,1,.9082-.1846A1.5722,1.5722,0,0,1,319.5967,160.2894Z"/><path class="cls-4" d="M325.0947,160.5511a3.7347,3.7347,0,0,1,.2149,1.4c0,.57-.0459,2.0322-.0459,2.4326a.5279.5279,0,0,0,.5693.5859.9911.9911,0,0,0,.4473-.1386c.0918-.0469.1533,0,.0918.1386a1.2971,1.2971,0,0,1-1.1856.6612,1.0333,1.0333,0,0,1-.9082-.6924.0532.0532,0,0,0-.0771-.0156,2.1534,2.1534,0,0,1-1.5088.6933,1.2775,1.2775,0,0,1-1.2315-1.3242,1.0868,1.0868,0,0,1,.5537-.8779c.37-.2,1.7715-.6153,2.0948-.7393a.2907.2907,0,0,0,.2-.23,5.32,5.32,0,0,0,.03-.708c0-.6318-.1074-1.0625-.3691-1.2627a1.17,1.17,0,0,0-.6465-.2461,1.059,1.059,0,0,0-.6162.1846.6182.6182,0,0,0-.2314.3692,1.6631,1.6631,0,0,0-.0147.2929.194.194,0,0,1-.0615.1231,3.3566,3.3566,0,0,1-.7236.3388c-.0772.0157-.1543-.0771-.1543-.1386,0-.1075.1074-.2461.2929-.4619a3.9912,3.9912,0,0,1,1.17-.8936,2.063,2.063,0,0,1,.9238-.2764A1.2621,1.2621,0,0,1,325.0947,160.5511Zm-1.0322,4.2334a.6391.6391,0,0,0,.17-.3692,11.0831,11.0831,0,0,0,.0772-1.4628c0-.0157-.0313-.0918-.0625-.0772a8.7835,8.7835,0,0,0-1.416.5234.798.798,0,0,0-.3848.7706.8944.8944,0,0,0,.9238.8623A1.0525,1.0525,0,0,0,324.0625,164.7845Z"/><path class="cls-4" d="M328.5283,161.721c0,1.94.0156,2.6631.0313,2.9561.0146.416.1074.5234.5381.6005.0927.0157.2.0616.2.1075,0,.0615-.1075.1084-.3077.1084-.2461,0-.8007-.0313-1.0625-.0313-.4,0-.8007.0313-1.0312.0313-.1846,0-.2617-.0157-.2617-.0928s.0771-.0928.2773-.1387c.3848-.0771.4766-.2158.5381-.8926.0312-.57.0928-3.1718.1084-5.02,0-1.2471.0156-2.51,0-3.1865,0-.3389-.0313-.416-.4316-.6621-.1075-.0615-.1534-.0928-.1534-.1387s.0918-.0928.2305-.123a8.0467,8.0467,0,0,0,1.1553-.3545.6364.6364,0,0,1,.1845-.0459c.03,0,.0459.0918.0459.1689,0,.1084-.0615,2.7715-.0615,5.0811Z"/><line class="cls-1" x1="344.8978" y1="111.1958" x2="283.4871" y2="111.1958"/><line class="cls-1" x1="283.4871" y1="128.1111" x2="344.8978" y2="128.1111"/><line class="cls-1" x1="283.4871" y1="128.1111" x2="344.8978" y2="128.1111"/><polyline class="cls-5" points="307.891 120.027 308.416 121.021 307.84 122.066"/><polyline class="cls-5" points="307.839 122.093 308.365 123.087 307.789 124.132"/><polyline class="cls-5" points="307.943 117.951 308.468 118.945 307.892 119.99"/><polyline class="cls-5" points="305.601 117.251 306.126 118.245 305.55 119.29"/><polyline class="cls-5" points="305.549 119.317 306.075 120.311 305.498 121.356"/><polyline class="cls-5" points="305.653 115.175 306.178 116.169 305.602 117.214"/><polyline class="cls-5" points="313.46 120.027 313.986 121.021 313.41 122.066"/><polyline class="cls-5" points="313.409 122.093 313.934 123.087 313.358 124.132"/><polyline class="cls-5" points="313.512 117.951 314.038 118.945 313.461 119.99"/><polyline class="cls-5" points="311.17 117.251 311.696 118.245 311.119 119.29"/><polyline class="cls-5" points="311.119 119.317 311.644 120.311 311.068 121.356"/><polyline class="cls-5" points="311.222 115.175 311.748 116.169 311.171 117.214"/><polyline class="cls-5" points="319.03 120.027 319.555 121.021 318.979 122.066"/><polyline class="cls-5" points="318.978 122.093 319.504 123.087 318.928 124.132"/><polyline class="cls-5" points="319.082 117.951 319.607 118.945 319.031 119.99"/><polyline class="cls-5" points="316.74 117.251 317.265 118.245 316.689 119.29"/><polyline class="cls-5" points="316.688 119.317 317.214 120.311 316.637 121.356"/><polyline class="cls-5" points="316.792 115.175 317.317 116.169 316.741 117.214"/><polyline class="cls-5" points="322.309 117.251 322.835 118.245 322.258 119.29"/><polyline class="cls-5" points="322.258 119.317 322.783 120.311 322.207 121.356"/><polyline class="cls-5" points="322.361 115.175 322.887 116.169 322.31 117.214"/><path class="cls-4" d="M233.5557,62.6727c.3691,0,1.0009.0615,1.4629.0615.3388,0,.708-.0308,1.0312-.0308.2158,0,.3076.0459.3076.1079,0,.0767-.0918.1231-.2763.1538-.4317.0772-.4317.2618-.3233.5386.6465,1.6016,2.1709,4.8809,3.2178,7.19.0459.1074.1074.0766.1533,0,.4316-.878.8008-1.6475,1.2168-2.6329a.43.43,0,0,0,.03-.185c-.2461-.585-1.2774-2.9253-1.6162-3.6641-.4463-.9546-.5694-1.1391-1.0469-1.2627-.2461-.0459-.3233-.1074-.3233-.1845,0-.0464.0918-.0923.292-.0923.4473,0,.7393.0615,1.294.0615s.9082-.0615,1.2617-.0615c.1543,0,.2617.0307.2617.0923,0,.0771-.0918.123-.292.1694-.416.0766-.5693.2617-.3388.831.2461.647.708,1.6939,1.2168,2.8638.0146.0308.0761.0464.123-.0308.3691-.7543.6924-1.4624,1.0156-2.2167.4776-1.1241.4619-1.2779-.2-1.4322-.2773-.0615-.3232-.123-.3232-.1845,0-.0464.0928-.0772.2773-.0772.3848,0,.6309.0464,1.0313.0464.5391,0,.7851-.0615,1.14-.0615.1846,0,.2618.0151.2618.0766,0,.0772-.0772.1236-.293.1695-.5693.1235-.8623.4467-1.37,1.34-.4.7695-1.1543,2.294-1.416,2.771a.2656.2656,0,0,0,.0156.1851c.3847.9082,1.0615,2.3706,1.5849,3.5254.0616.1079.1084.0771.1387,0,.7393-1.6011,2.6026-5.9122,2.9258-7.0513.0771-.3389.0615-.6006-.4463-.7544-.2471-.0772-.3389-.1079-.3389-.1694s.0459-.0923.2618-.0923c.4,0,.6152.0615,1.0771.0615.4316,0,.8467-.0615,1.124-.0615.2,0,.2774.0151.2774.0766s-.0772.1236-.3545.1695c-.6465.1694-.9238.4926-1.8936,2.6792-.97,2.1245-2.2168,5.0341-2.9248,6.728-.1084.2617-.1543.354-.2314.354-.1074,0-.169-.1079-.2617-.354-.3233-.9395-1.2-2.8482-1.6475-3.8335-.03-.062-.0772-.062-.1074-.0156-.585,1.1391-1.4014,2.9409-1.74,3.8335-.0918.2465-.1845.37-.2461.37-.0918,0-.123-.0923-.23-.37-.2-.5078-.6778-1.6319-.878-2.0938-.8466-1.9551-1.8779-4.2339-2.6015-5.7427-.5547-1.2006-.6778-1.478-1.2627-1.5551-.1846-.0152-.3233-.0767-.3233-.1387C233.248,62.7342,233.3555,62.6727,233.5557,62.6727Z"/><path class="cls-4" d="M249.8018,67.4764a3.7359,3.7359,0,0,1,.2148,1.4009c0,.57-.0459,2.0322-.0459,2.4326a.5274.5274,0,0,0,.5693.5849.9861.9861,0,0,0,.4473-.1386c.0918-.0459.1533,0,.0918.1386a1.2968,1.2968,0,0,1-1.1855.6621,1.0342,1.0342,0,0,1-.9082-.6928.0542.0542,0,0,0-.0772-.0157,2.1544,2.1544,0,0,1-1.5088.6929,1.2773,1.2773,0,0,1-1.2314-1.3237,1.0874,1.0874,0,0,1,.5537-.8779c.37-.2,1.7715-.6158,2.0947-.7388a.2917.2917,0,0,0,.2-.231,5.303,5.303,0,0,0,.03-.7085c0-.6308-.1074-1.062-.3692-1.2622a1.1749,1.1749,0,0,0-.6465-.2466,1.06,1.06,0,0,0-.6162.1851.62.62,0,0,0-.2314.3691,1.6708,1.6708,0,0,0-.0147.293.1928.1928,0,0,1-.0615.1231,3.3329,3.3329,0,0,1-.7236.3388c-.0772.0152-.1543-.0771-.1543-.1386,0-.108.1074-.2466.293-.462a3.9806,3.9806,0,0,1,1.17-.893,2.0661,2.0661,0,0,1,.9238-.2774A1.2628,1.2628,0,0,1,249.8018,67.4764ZM248.77,71.71a.6408.6408,0,0,0,.17-.37,11.0819,11.0819,0,0,0,.0771-1.4629c0-.0151-.0312-.0922-.0625-.0766a8.68,8.68,0,0,0-1.416.5234.7968.7968,0,0,0-.3848.77.8941.8941,0,0,0,.9238.8623A1.0542,1.0542,0,0,0,248.77,71.71Z"/><path class="cls-4" d="M252.127,71.8177a1.7313,1.7313,0,0,1-.1846-.8775v-3.187c0-.1694-.0156-.2768-.0772-.3081a2.5369,2.5369,0,0,0-.3691-.0923c-.1231-.0307-.2-.0766-.2-.1381,0-.0313.0156-.0772.1846-.1543a3.2823,3.2823,0,0,0,1.2627-1.0313c.1386-.1543.2461-.1235.2461-.0464,0,.1387-.03.57-.0147.7544,0,.0464.0147.1387.0762.1387.2773,0,1.5556-.0464,1.8789-.0464.03,0,.0918.1079.0918.2158,0,.2617-.0762.3848-.1533.3848-.5391,0-1.294-.0156-1.709-.0156-.1846,0-.2158.0464-.2158.1386,0,.2618.0156,2.6792.0312,3.1563a1.5778,1.5778,0,0,0,.169.8315,1.1376,1.1376,0,0,0,.9541.4156,1.508,1.508,0,0,0,.8476-.231c.1074-.0771.1533-.0615.1533,0,0,.0923-.1386.2466-.3388.4a2.1127,2.1127,0,0,1-1.2471.4A1.4268,1.4268,0,0,1,252.127,71.8177Z"/><path class="cls-4" d="M260.15,68.2615a.181.181,0,0,1-.1543.169c-.1231-.0152-2.125-.0459-2.4785-.0459h-.8311c-.0312,0-.1084.0771-.1386.123a2.1133,2.1133,0,0,0-.1231.8467,2.76,2.76,0,0,0,.708,1.8633,2.0776,2.0776,0,0,0,1.5391.6308,1.9632,1.9632,0,0,0,1.4629-.4926c.123-.1231.1845-.0923.1845-.0152a.585.585,0,0,1-.1533.2461,2.7223,2.7223,0,0,1-2.1406.97,2.4854,2.4854,0,0,1-1.832-.7851,3.01,3.01,0,0,1-.7393-2.063,3.21,3.21,0,0,1,.8936-2.248,2.8626,2.8626,0,0,1,1.9238-.77A1.7768,1.7768,0,0,1,260.15,68.2615Zm-3.1406-.7851a1.343,1.343,0,0,0-.3233.6308.0658.0658,0,0,0,.0615.0616l2.001-.0152c.3389,0,.3692-.1694.3692-.3081a.9917.9917,0,0,0-.2149-.6465,1.08,1.08,0,0,0-.7705-.2924A1.5957,1.5957,0,0,0,257.01,67.4764Z"/><path class="cls-4" d="M262.877,67.8148a.8881.8881,0,0,0-.2618.539,9.0379,9.0379,0,0,0-.0156.939c0,1.14.0313,1.94.0615,2.2632.0616.4775.2471.5854.8321.6469.2148.0308.292.0616.292.1382s-.1387.1079-.3692.1079c-.293,0-.8008-.0615-1.4472-.0615a8.3285,8.3285,0,0,0-.94.0923c-.1846,0-.2617-.0308-.2617-.0923,0-.0464.1084-.123.2314-.1538a.6362.6362,0,0,0,.5537-.6313c.0313-.2618.0469-1.1392.0469-2.1553v-1.709c0-.1079-.1084-.1543-.4-.4-.1084-.0771-.123-.123-.123-.1543s.0918-.0923.23-.1382a4.6671,4.6671,0,0,0,.9854-.37.4864.4864,0,0,1,.2314-.0772c.03,0,.0616.0616.0616.2159,0,.1694-.0157.7544-.0157,1.0005,0,.0463.03.0615.0772.0156a2.5122,2.5122,0,0,1,1.6621-1.1089.8965.8965,0,0,1,.5391.2.27.27,0,0,1,.1084.2158,1.0551,1.0551,0,0,1-.3389.5234c-.1387.1231-.2.1387-.2471.1387a.6946.6946,0,0,1-.2763-.1079,1.0808,1.0808,0,0,0-.5391-.1846A1.0515,1.0515,0,0,0,262.877,67.8148Z"/><path class="cls-4" d="M240.4375,78.1185A2.5885,2.5885,0,0,0,241.7,77.95c.0615-.0464.1074-.062.123-.0312a.3418.3418,0,0,1,.0157.2,4.8387,4.8387,0,0,0-.0459,1.17c0,.2309-.0772.3384-.1231.3384-.0615,0-.1084-.1382-.124-.2154a1.4218,1.4218,0,0,0-.2764-.7236c-.1386-.1231-.3388-.1846-1.417-.1846-.4765,0-1.247,0-1.4931.0308-.0772.0151-.0928.1382-.0928.2461,0,.57-.03,4.8037-.03,4.8037-.0156.8623.0459,2.7715.0918,3.2485.0625.5235.2158.6314.7393.7852.1846.0464.2617.0771.2617.1538,0,.0928-.1074.1079-.3076.1079-.3545,0-.8311-.0923-1.4473-.0923-.7851,0-1.2471.0923-1.4931.0923-.2,0-.2774-.0615-.2774-.1387,0-.0615.1387-.1074.3076-.1382.7393-.1079.8321-.3544.878-1.0625.1074-1.4936.1074-7.621.0771-7.8364-.0156-.1387-.0615-.185-.1084-.185a9.4351,9.4351,0,0,0-1.1543-.0459,12.0406,12.0406,0,0,0-1.3086.0615c-.293.0615-.4931.2461-.708.8467-.0771.1845-.1543.2617-.2158.2617s-.0615-.1231-.0459-.231a9.0356,9.0356,0,0,0,.2-1.3242c.0146-.123.0146-.2.0918-.2309.0312-.0152.0771.0156.123.0615a.842.842,0,0,0,.4932.1543c.2461.0151,1.77.0615,3.3564.0615Z"/><path class="cls-4" d="M242.626,83.2147a.8873.8873,0,0,0-.2617.539,9.0064,9.0064,0,0,0-.0157.939c0,1.14.0313,1.94.0616,2.2632.0615.4775.247.5849.832.6469.2148.0308.292.0616.292.1382s-.1387.1079-.3692.1079c-.2929,0-.8007-.0615-1.4472-.0615a8.3285,8.3285,0,0,0-.94.0923c-.1845,0-.2617-.0308-.2617-.0923,0-.0464.1084-.123.2314-.1538a.6363.6363,0,0,0,.5538-.6313c.0312-.2618.0468-1.1392.0468-2.1553V83.138c0-.1079-.1084-.1543-.4-.4-.1084-.0771-.123-.1235-.123-.1543s.0918-.0923.2305-.1382a4.6682,4.6682,0,0,0,.9853-.37.4858.4858,0,0,1,.2315-.0771c.03,0,.0615.0615.0615.2158,0,.1694-.0156.7544-.0156,1,0,.0463.03.0615.0771.0156a2.5117,2.5117,0,0,1,1.6621-1.1084.8957.8957,0,0,1,.5391.2.2689.2689,0,0,1,.1074.2158,1.0522,1.0522,0,0,1-.3379.5235c-.1387.123-.2.1386-.2471.1386a.6951.6951,0,0,1-.2763-.1079,1.08,1.08,0,0,0-.5391-.1846A1.052,1.052,0,0,0,242.626,83.2147Z"/><path class="cls-4" d="M249.709,83.6614a.181.181,0,0,1-.1543.169c-.1231-.0152-2.125-.0459-2.4785-.0459h-.8311c-.0312,0-.1084.0771-.1387.123a2.1173,2.1173,0,0,0-.123.8467,2.76,2.76,0,0,0,.708,1.8633,2.0775,2.0775,0,0,0,1.5391.6309,1.9633,1.9633,0,0,0,1.4629-.4927c.123-.1231.1845-.0923.1845-.0152a.585.585,0,0,1-.1533.2461,2.7223,2.7223,0,0,1-2.1406.97,2.4854,2.4854,0,0,1-1.832-.7851,3.01,3.01,0,0,1-.7393-2.063,3.21,3.21,0,0,1,.8935-2.248,2.863,2.863,0,0,1,1.9239-.77A1.7768,1.7768,0,0,1,249.709,83.6614Zm-3.1406-.7851a1.343,1.343,0,0,0-.3233.6308.0658.0658,0,0,0,.0615.0616l2.001-.0152c.3389,0,.3692-.1694.3692-.3081a.9918.9918,0,0,0-.2149-.6465,1.08,1.08,0,0,0-.7705-.2924A1.5955,1.5955,0,0,0,246.5684,82.8763Z"/><path class="cls-4" d="M254.2529,82.8763a3.7358,3.7358,0,0,1,.2149,1.4009c0,.57-.0459,2.0322-.0459,2.4326a.5274.5274,0,0,0,.5693.5849.9848.9848,0,0,0,.4473-.1386c.0918-.0459.1533,0,.0918.1386a1.2968,1.2968,0,0,1-1.1856.6621,1.0345,1.0345,0,0,1-.9082-.6928.054.054,0,0,0-.0771-.0156,2.1549,2.1549,0,0,1-1.5088.6928,1.2774,1.2774,0,0,1-1.2315-1.3237,1.0875,1.0875,0,0,1,.5538-.8779c.37-.2,1.7714-.6158,2.0947-.7388a.2919.2919,0,0,0,.2-.231,5.3242,5.3242,0,0,0,.03-.7085c0-.6308-.1074-1.062-.3691-1.2622a1.1747,1.1747,0,0,0-.6465-.2465,1.06,1.06,0,0,0-.6162.185.62.62,0,0,0-.2314.37,1.6617,1.6617,0,0,0-.0147.2925.1928.1928,0,0,1-.0615.1231,3.3329,3.3329,0,0,1-.7236.3388c-.0772.0152-.1543-.0771-.1543-.1386,0-.1079.1074-.2466.2929-.462a3.9809,3.9809,0,0,1,1.17-.893,2.0661,2.0661,0,0,1,.9238-.2774A1.2626,1.2626,0,0,1,254.2529,82.8763ZM253.2207,87.11a.64.64,0,0,0,.17-.37,11.0782,11.0782,0,0,0,.0772-1.4629c0-.0151-.0313-.0922-.0625-.0766a8.689,8.689,0,0,0-1.416.5234.7968.7968,0,0,0-.3848.77.8941.8941,0,0,0,.9238.8623A1.0544,1.0544,0,0,0,253.2207,87.11Z"/><path class="cls-4" d="M256.5781,87.2176a1.7325,1.7325,0,0,1-.1845-.8775v-3.187c0-.1694-.0157-.2768-.0772-.3081a2.54,2.54,0,0,0-.3691-.0923c-.1231-.0307-.2-.0766-.2-.1386,0-.0308.0156-.0767.1845-.1538a3.2808,3.2808,0,0,0,1.2627-1.0313c.1387-.1543.2461-.1235.2461-.0464,0,.1387-.03.57-.0146.7544,0,.0464.0146.1387.0762.1387.2773,0,1.5556-.0464,1.8789-.0464.03,0,.0918.1079.0918.2158,0,.2617-.0762.3848-.1534.3848-.539,0-1.2939-.0156-1.7089-.0156-.1846,0-.2159.0464-.2159.1386,0,.2618.0157,2.6792.0313,3.1563a1.5791,1.5791,0,0,0,.1689.8315,1.1379,1.1379,0,0,0,.9541.4156,1.5082,1.5082,0,0,0,.8477-.231c.1074-.0767.1533-.0615.1533,0,0,.0923-.1387.2466-.3389.4a2.1121,2.1121,0,0,1-1.247.4A1.4269,1.4269,0,0,1,256.5781,87.2176Z"/><path class="cls-4" d="M260.2129,82.6912c0-.0459.0615-.0771.1846-.1079a3.0612,3.0612,0,0,0,1.0468-.4614.4439.4439,0,0,1,.2305-.0928c.0469,0,.0772.0615.0772.1543,0,.169-.0157.6,0,.7544,0,.0615.0156.1382.0771.0923a3.2375,3.2375,0,0,1,1.9092-.8931,1.5755,1.5755,0,0,1,1.539.97.1036.1036,0,0,0,.1084.0308,3.0876,3.0876,0,0,1,2.1094-1.0474,1.5871,1.5871,0,0,1,1.5547,1.14,5.0239,5.0239,0,0,1,.1846,1.4473c.0156.5078.0468,1.6782.0615,2.2167.0156.5083.1084.6158.4463.6778.2158.0459.2773.0923.2773.1382,0,.0771-.0771.1079-.2617.1079-.1689,0-.708-.0308-1.0625-.0308-.3691,0-.708.0464-.9385.0464-.2,0-.3086-.0308-.3086-.0928,0-.0766.1387-.123.2618-.1538.4472-.0923.5234-.2309.5234-.6929a19.5589,19.5589,0,0,0-.1074-3.0483,1.1926,1.1926,0,0,0-1.293-1.1548,1.9227,1.9227,0,0,0-1.3086.57.7521.7521,0,0,0-.1084.4927c.0313.4312.0772,2.7866.1084,3.2022.0459.4311.0918.539.4766.6313.17.0615.247.0772.247.1387s-.0927.0923-.2617.0923c-.2773,0-.7392-.0308-1.1855-.0308-.3389,0-.708.0308-.8779.0308s-.2461-.0308-.2461-.0923c0-.0464.0771-.1079.2773-.1538.3232-.062.4766-.1387.4766-.5083l.0156-2.4634c0-.8467-.0772-1.2007-.3848-1.5395a1.1762,1.1762,0,0,0-.9394-.3389,1.7415,1.7415,0,0,0-1.1543.4468.5577.5577,0,0,0-.1846.3691,9.4545,9.4545,0,0,0-.0615,1.0469c0,1.14.0615,2.2173.0918,2.4946a.5254.5254,0,0,0,.4931.5078c.169.0308.2305.0772.2305.1231,0,.0771-.123.1079-.2305.1079-.2929,0-.8007-.0308-1.1709-.0308-.4765,0-.8.0308-1,.0308-.1386,0-.2773-.0464-.2773-.1079s.0928-.1075.3076-.1382c.4776-.1079.4776-.2774.5088-.4619.0615-.3238.0615-1.5708.0615-2.4634,0-.57.0147-.9546-.0156-1.2471a.5816.5816,0,0,0-.3545-.539c-.1074-.0616-.1387-.0923-.1387-.1695Z"/><path class="cls-4" d="M275.458,83.6614a.1809.1809,0,0,1-.1543.169c-.123-.0152-2.125-.0459-2.4785-.0459h-.8311c-.0312,0-.1084.0771-.1386.123a2.1109,2.1109,0,0,0-.1241.8467,2.7608,2.7608,0,0,0,.709,1.8633,2.0777,2.0777,0,0,0,1.5391.6309,1.9633,1.9633,0,0,0,1.4629-.4927c.123-.1231.1846-.0923.1846-.0152a.5856.5856,0,0,1-.1534.2461,2.7223,2.7223,0,0,1-2.1406.97,2.4854,2.4854,0,0,1-1.832-.7851,3.0105,3.0105,0,0,1-.7393-2.063,3.21,3.21,0,0,1,.8936-2.248,2.8626,2.8626,0,0,1,1.9238-.77A1.7768,1.7768,0,0,1,275.458,83.6614Zm-3.1406-.7851a1.343,1.343,0,0,0-.3233.6308.0658.0658,0,0,0,.0616.0616l2.0009-.0152c.3389,0,.3692-.1694.3692-.3081a.9918.9918,0,0,0-.2149-.6465,1.08,1.08,0,0,0-.77-.2924A1.5957,1.5957,0,0,0,272.3174,82.8763Z"/><path class="cls-4" d="M281.1709,82.6141a3.2192,3.2192,0,0,1,.4922,2.0171c0,.8159.0156.9389.0156,1.7089.0156,1.0469.0615,1.1392.4775,1.2471.1387.0615.2305.0923.2305.1538,0,.0928-.123.1079-.2773.1079-.2,0-.6465-.0615-.9854-.0615-.5234,0-.7236.0615-.9541.0615-.1387,0-.2461-.0307-.2461-.0922s.0918-.1231.292-.1695c.37-.0923.4317-.2.4317-.6465V84.847c0-1.2476-.1084-1.6167-.4932-1.9092a1.3661,1.3661,0,0,0-.8779-.2925,1.8411,1.8411,0,0,0-1.2.4927.7923.7923,0,0,0-.1846.4614c0,.1851.0146.97.0146,1.8941a12.5786,12.5786,0,0,0,.0928,1.6167c.0459.3383.23.4155.4776.4926.1845.0459.2617.0767.2617.1539,0,.0922-.1543.0922-.3086.0922-.1231,0-.877-.0615-1.2315-.0615-.2,0-.5234.0308-.8154.0308-.17,0-.293-.0308-.293-.1079,0-.0616.1387-.1231.3233-.1538.3848-.0772.4463-.1846.4619-.4927.0312-1.1084.0312-2.5249.0312-3.772,0-.1538-.0312-.3232-.4-.5234-.0928-.0616-.1231-.0923-.1231-.1387,0-.0308.0762-.0771.2149-.123a5.7924,5.7924,0,0,0,1.2168-.5235c.0459-.0156.123.0459.1074.1231a6.8538,6.8538,0,0,0-.03.8159c0,.0307.0459.0771.0762.0464a5.3239,5.3239,0,0,1,1.0937-.6929,2.0841,2.0841,0,0,1,.9082-.1851A1.5739,1.5739,0,0,1,281.1709,82.6141Z"/><path class="cls-4" d="M283.7891,87.2176a1.7313,1.7313,0,0,1-.1846-.8775v-3.187c0-.1694-.0156-.2768-.0772-.3081a2.5369,2.5369,0,0,0-.3691-.0923c-.123-.0307-.2-.0766-.2-.1386,0-.0308.0156-.0767.1846-.1538a3.2823,3.2823,0,0,0,1.2627-1.0313c.1386-.1543.2461-.1235.2461-.0464,0,.1387-.03.57-.0147.7544,0,.0464.0147.1387.0762.1387.2773,0,1.5557-.0464,1.8789-.0464.03,0,.0918.1079.0918.2158,0,.2617-.0762.3848-.1533.3848-.5391,0-1.294-.0156-1.709-.0156-.1846,0-.2158.0464-.2158.1386,0,.2618.0156,2.6792.0312,3.1563a1.5778,1.5778,0,0,0,.169.8315,1.1378,1.1378,0,0,0,.9541.4156,1.5078,1.5078,0,0,0,.8476-.231c.1074-.0767.1533-.0615.1533,0,0,.0923-.1386.2466-.3388.4a2.1127,2.1127,0,0,1-1.2471.4A1.4268,1.4268,0,0,1,283.7891,87.2176Z"/><path class="cls-4" d="M239.8525,93.4876c.3233,0,.4317.0772.4317.1851.03.2153.0771.8925.1074,1.0776.0313.1538,0,.2925-.0771.2925-.0616,0-.1075-.1079-.1846-.3081a1.2481,1.2481,0,0,0-1.1543-.8775c-.4932-.0463-1.1553-.0463-2.5557-.0463-.1084,0-.2158.2-.2158.2773-.0156.4311-.0459,2.2017-.0156,3.9722a.1885.1885,0,0,0,.1386.1845c1.57,0,2.31-.0151,2.5557-.0459.2158-.0307.4307-.0771.6621-.6006.0772-.1538.1231-.2153.169-.2153.0615,0,.0927.0767.0771.231-.0156.1694-.0771.6308-.0771.9546a7.2628,7.2628,0,0,0,.0615.7387c0,.2-.03.2618-.1074.2618-.0616,0-.1231-.1231-.2159-.3389-.123-.3384-.2763-.4927-.4619-.5386a16.4227,16.4227,0,0,0-2.6631-.0771.3056.3056,0,0,0-.1542.2c-.0147.2773.0156,2.68.0468,3.372.0147.585.1074.6778.8155.8467.123.0313.2158.0772.2158.1387,0,.0928-.17.1074-.3233.1074-.2158,0-.8779-.0918-1.5088-.0918-.5849,0-.97.0615-1.1855.0615-.1387,0-.2461-.0312-.2461-.1084,0-.0615.0762-.1074.2764-.1533.5849-.123.6621-.2461.6933-.8164.0459-.5078.0459-2.417.0459-4.1108,0-1.6319,0-2.5713-.0459-3.51-.0312-.5542-.0771-.6929-.6318-.8315-.1377-.0308-.2461-.0767-.2461-.1538,0-.0616.0928-.0923.2314-.0923.1846,0,1.0313.0615,1.709.0615C237.6357,93.534,239.2676,93.4876,239.8525,93.4876Z"/><path class="cls-4" d="M244.1963,98.2762a3.7359,3.7359,0,0,1,.2148,1.4009c0,.57-.0459,2.0322-.0459,2.4326a.5273.5273,0,0,0,.5694.5849.98.98,0,0,0,.4472-.1386c.0918-.0459.1534,0,.0918.1386a1.2959,1.2959,0,0,1-1.1855.6622,1.0347,1.0347,0,0,1-.9082-.6924.0534.0534,0,0,0-.0772-.0157,2.1559,2.1559,0,0,1-1.5088.6924,1.2772,1.2772,0,0,1-1.2314-1.3232,1.0865,1.0865,0,0,1,.5537-.8779c.37-.2,1.7715-.6163,2.0947-.7393a.2917.2917,0,0,0,.2-.231,5.303,5.303,0,0,0,.03-.7085c0-.6308-.1074-1.062-.3691-1.2622a1.1747,1.1747,0,0,0-.6465-.2465,1.0591,1.0591,0,0,0-.6162.185.62.62,0,0,0-.2315.3692,1.68,1.68,0,0,0-.0146.2929.1933.1933,0,0,1-.0615.1231,3.3334,3.3334,0,0,1-.7237.3388c-.0771.0152-.1543-.0771-.1543-.1386,0-.1079.1074-.2466.293-.462a3.9806,3.9806,0,0,1,1.17-.893,2.0661,2.0661,0,0,1,.9238-.2774A1.2627,1.2627,0,0,1,244.1963,98.2762Zm-1.0322,4.2339a.6394.6394,0,0,0,.17-.3692,11.0875,11.0875,0,0,0,.0771-1.4629c0-.0156-.0312-.0927-.0625-.0771a8.7394,8.7394,0,0,0-1.416.5234.7973.7973,0,0,0-.3847.77.8937.8937,0,0,0,.9238.8623A1.052,1.052,0,0,0,243.1641,102.51Z"/><path class="cls-4" d="M246.9844,100.139a2.59,2.59,0,0,0,.7695,2.0019,2.19,2.19,0,0,0,1.4316.5381,2.0659,2.0659,0,0,0,1.6016-.5849c.03-.03.1074-.0459.1074,0a.4.4,0,0,1-.123.247,2.6636,2.6636,0,0,1-2.125,1.0157,2.8061,2.8061,0,0,1-1.9238-.754,2.9019,2.9019,0,0,1-.7706-2.0791,2.9423,2.9423,0,0,1,.94-2.14,3.3762,3.3762,0,0,1,2.2783-.8931,2.3434,2.3434,0,0,1,1.4014.3853.3546.3546,0,0,1,.2158.2925.526.526,0,0,1-.3848.4926.4711.4711,0,0,1-.2617-.1542,4.2482,4.2482,0,0,0-.8623-.6309,1.3848,1.3848,0,0,0-.5849-.1235C248.0459,97.7523,246.9844,98.3685,246.9844,100.139Z"/><path class="cls-4" d="M251.835,97.9373a7.65,7.65,0,0,0,1.1084-.4.6256.6256,0,0,1,.2314-.1079c.0459,0,.0762.0464.0615.2158-.0312.3077-.0312,1.2471-.0312,2.2325,0,1.2929,0,2.4326.0312,2.6943.03.3076.1846.3848.4307.4463.1543.0312.2314.0615.2314.123,0,.0772-.124.1084-.247.1084-.1387,0-.708-.0615-1.1241-.0615-.5078,0-.7539.03-.9228.03-.1084,0-.2158-.03-.2158-.0918s.0771-.1084.292-.1387c.3388-.0928.4775-.2158.4931-.8467.0157-.4619.0459-3.2646.0459-3.4184,0-.2158-.0156-.3081-.4463-.5391-.0771-.0459-.123-.0923-.123-.123C251.65,98.0145,251.6963,97.9681,251.835,97.9373Zm1.54-2.51a.5864.5864,0,0,1-.57.5849.5477.5477,0,0,1-.5078-.5693.5706.5706,0,0,1,.539-.6006A.5636.5636,0,0,1,253.375,95.4276Z"/><path class="cls-4" d="M256.3926,99.4461c0,1.94.0156,2.6636.0312,2.9565.0147.4151.1074.5235.5381.6006.0928.0147.2.0616.2.1075,0,.0615-.1074.1074-.3076.1074-.2461,0-.8008-.03-1.0625-.03-.4,0-.8008.03-1.0313.03-.1845,0-.2617-.0147-.2617-.0918s.0772-.0928.2774-.1387c.3847-.0771.4765-.2158.5381-.8935.0312-.5694.0927-3.1714.1084-5.0191,0-1.2471.0156-2.51,0-3.187,0-.3389-.0313-.4155-.4317-.6621-.1074-.0615-.1533-.0923-.1533-.1382s.0918-.0928.2305-.1235a7.9851,7.9851,0,0,0,1.1552-.354.637.637,0,0,1,.1846-.0464c.03,0,.0459.0928.0459.1694,0,.1079-.0615,2.7715-.0615,5.0811Z"/><path class="cls-4" d="M258.3486,97.9373a7.6457,7.6457,0,0,0,1.1084-.4.6257.6257,0,0,1,.2315-.1079c.0459,0,.0761.0464.0615.2158-.0312.3077-.0312,1.2471-.0312,2.2325,0,1.2929,0,2.4326.0312,2.6943.03.3076.1846.3848.4307.4463.1543.0312.2314.0615.2314.123,0,.0772-.124.1084-.2471.1084-.1386,0-.708-.0615-1.124-.0615-.5078,0-.7539.03-.9228.03-.1084,0-.2159-.03-.2159-.0918s.0772-.1084.292-.1387c.3389-.0928.4776-.2158.4932-.8467.0156-.4619.0459-3.2646.0459-3.4184,0-.2158-.0156-.3081-.4463-.5391-.0771-.0459-.123-.0923-.123-.123C258.1641,98.0145,258.21,97.9681,258.3486,97.9373Zm1.54-2.51a.5864.5864,0,0,1-.57.5849.5477.5477,0,0,1-.5079-.5693.5706.5706,0,0,1,.5391-.6006A.5637.5637,0,0,1,259.8887,95.4276Z"/><path class="cls-4" d="M261.8594,102.6175a1.7306,1.7306,0,0,1-.1846-.877V98.553c0-.1694-.0156-.2768-.0771-.3081a2.5424,2.5424,0,0,0-.3692-.0923c-.123-.0307-.2-.0766-.2-.1381,0-.0313.0156-.0772.1846-.1543a3.2816,3.2816,0,0,0,1.2627-1.0313c.1387-.1543.2461-.1235.2461-.0464,0,.1387-.03.57-.0147.7544,0,.0464.0147.1387.0762.1387.2773,0,1.5557-.0464,1.8789-.0464.03,0,.0918.1079.0918.2158,0,.2618-.0762.3848-.1533.3848-.5391,0-1.294-.0156-1.709-.0156-.1846,0-.2158.0464-.2158.1386,0,.2618.0156,2.68.0312,3.1563a1.58,1.58,0,0,0,.169.832,1.1388,1.1388,0,0,0,.9541.4151,1.5126,1.5126,0,0,0,.8476-.2305c.1075-.0772.1534-.0615.1534,0,0,.0918-.1387.2461-.3389.4a2.1124,2.1124,0,0,1-1.2471.4A1.4262,1.4262,0,0,1,261.8594,102.6175Z"/><path class="cls-4" d="M267.3115,97.6292c.1533,0,.2617.0464.2617.1079s-.1084.1079-.2.1231c-.3388.1079-.37.185-.2314.5849.2.5391,1.0469,2.6177,1.3555,3.2642.03.0615.0761.0469.0918,0,.2-.5234,1.0625-2.7407,1.1855-3.0947a1.1511,1.1511,0,0,0,.0772-.4463c0-.1079-.0772-.231-.3389-.3081-.2305-.0459-.2773-.0923-.2773-.1387,0-.0615.0771-.0923.2158-.0923.1845,0,.5078.0464.7392.0464.2774,0,.4776-.0464.708-.0464.0928,0,.1846.0156.1846.0615s-.0615.1079-.2148.1543c-.3086.0923-.462.2-.709.77-.1846.3852-1.1387,2.7558-1.37,3.3418-.1846.5078-.3233.8613-.6465,1.6933-.3692.8926-.9541,2.4942-1.17,3.0176a2.12,2.12,0,0,1-.293.5693.578.578,0,0,1-.5078.2618.5119.5119,0,0,1-.5078-.5079.4538.4538,0,0,1,.4306-.4462c.1084,0,.2.03.3086.03a.3709.3709,0,0,0,.3994-.2617c.1543-.3232.6006-1.5859,1.1241-2.9248a.664.664,0,0,0-.0147-.4932c-.0928-.2461-1.2168-3.0947-1.9092-4.6035a.8256.8256,0,0,0-.5547-.4155c-.1845-.0464-.2773-.1079-.2773-.1543,0-.0767.1387-.1074.2471-.1074.2763,0,.708.0615,1.0771.0615C266.7109,97.6756,267.1113,97.6292,267.3115,97.6292Z"/></svg>