<svg id="Layer_1" data-name="Layer 1" xmlns="http://www.w3.org/2000/svg" viewBox="0 0 399 200"><defs><style>.cls-1,.cls-3,.cls-4{fill:none;stroke:#222f3c;stroke-width:0.5px;}.cls-1,.cls-4{stroke-linecap:round;}.cls-1{stroke-linejoin:round;}.cls-2{fill:#333838;}.cls-3,.cls-4{stroke-miterlimit:10;}</style></defs><circle class="cls-1" cx="286.8337" cy="141.1616" r="1.6035"/><path class="cls-1" d="M286.7944,135.5616c-.558,1.4786,1.2827,2.4227-.1793,3.9279"/><path class="cls-1" d="M286.7944,142.8336c-.558,1.4787,1.2827,2.4227-.1793,3.928"/><path class="cls-1" d="M292.4337,141.1929c-1.4786-.558-2.4226,1.2828-3.9279-.1792"/><path class="cls-1" d="M285.1617,141.1929c-1.4787-.558-2.4227,1.2828-3.928-.1792"/><path class="cls-1" d="M290.7657,137.174c-1.44.651-.806,2.62-2.9042,2.6507"/><path class="cls-1" d="M285.6236,142.3161c-1.44.651-.8061,2.62-2.9042,2.6507"/><path class="cls-1" d="M290.7713,145.1436c-.6509-1.44-2.62-.8061-2.6507-2.9043"/><path class="cls-1" d="M285.6292,140.0014c-.6509-1.44-2.62-.806-2.6507-2.9042"/><path class="cls-2" d="M295.7676,135.9769a12.7045,12.7045,0,0,0,1.4785-.0459,11.4938,11.4938,0,0,1,1.5088-.1231c1.6777,0,3.0635.7539,3.0635,2.4785a1.97,1.97,0,0,1-.6465,1.3858,4.0066,4.0066,0,0,1-.8311.5078c-.0928.0469-.0312.0928.0156.123a4.823,4.823,0,0,1,1.3389.77,2.413,2.413,0,0,1,.8164,1.878,2.6011,2.6011,0,0,1-1.7246,2.4638,4.6035,4.6035,0,0,1-1.8633.3233c-.2617,0-.5693,0-1.1855-.0156-.6309-.0313-.9854-.0313-1.3233-.0313h-.7705c-.23,0-.3232-.0615-.3232-.1074,0-.0772.1074-.1074.2461-.1387.6162-.0615.8476-.3232.8935-.8779.0459-.4151.0459-2.6172.0459-4.3262,0-.831-.0156-2.6172-.03-3.2178-.0313-.5537-.1387-.6767-.7549-.8154-.1846-.0312-.2305-.0928-.2305-.123C295.4912,136.0228,295.6143,135.9769,295.7676,135.9769Zm4.8349,5.4043a2.1472,2.1472,0,0,0-2.0791-.8926c-.3076,0-.6.0146-.7539.03-.0771.0156-.123.1074-.1386.1845a23.4071,23.4071,0,0,0,.0459,2.91,3.7907,3.7907,0,0,0,.2158,1.2773,1.5479,1.5479,0,0,0,1.3545.586,1.9157,1.9157,0,0,0,.8623-.2159,2.2059,2.2059,0,0,0,1.0937-2.1406A2.6586,2.6586,0,0,0,300.6025,141.3812ZM298.4,136.07a2.5175,2.5175,0,0,0-.6006.0616c-.0615.0156-.1377.2-.1377.2461-.0312.2773-.0469,2.4023-.0312,3.5722,0,.0615.0312.2149.1689.2149a4.7365,4.7365,0,0,0,1.0469.0156,1.94,1.94,0,0,0,1.7715-1.8477A2.1053,2.1053,0,0,0,298.4,136.07Z"/><path class="cls-2" d="M303.8066,140.3958a7.5827,7.5827,0,0,0,1.1084-.4.6206.6206,0,0,1,.2315-.1074c.0459,0,.0762.0459.0615.2148-.0312.3086-.0312,1.2471-.0312,2.2325,0,1.2939,0,2.4326.0312,2.6943.03.3086.1846.3857.4307.4473.1543.03.2314.0615.2314.123,0,.0772-.124.1074-.2471.1074-.1386,0-.708-.0615-1.124-.0615-.5078,0-.7539.0313-.9238.0313-.1074,0-.2148-.0313-.2148-.0928s.0771-.1074.2919-.1387c.3389-.0928.4776-.2158.4932-.8467.0156-.4619.0459-3.2636.0459-3.4179,0-.2159-.0156-.3076-.4463-.5391-.0771-.0459-.123-.0918-.123-.123C303.6221,140.473,303.668,140.4261,303.8066,140.3958Zm1.54-2.51a.5864.5864,0,0,1-.57.585.5477.5477,0,0,1-.5078-.5693.5712.5712,0,0,1,.539-.6006A.5636.5636,0,0,1,305.3467,137.886Z"/><path class="cls-2" d="M312.6748,142.8587A2.9486,2.9486,0,0,1,309.75,145.83a2.936,2.936,0,0,1-1.8789-5.2344,3.1642,3.1642,0,0,1,1.8477-.6465A2.8885,2.8885,0,0,1,312.6748,142.8587Zm-4.8037-.2148a3.5244,3.5244,0,0,0,.6475,2.1093,1.8289,1.8289,0,0,0,1.4472.8155,1.5221,1.5221,0,0,0,.97-.3848,3.0687,3.0687,0,0,0,.6465-2.0635c0-1.4619-.7392-2.9092-2.0937-2.9092C308.7031,140.2112,307.8711,141.0423,307.8711,142.6439Z"/><path class="cls-2" d="M315.2178,141.9046c0,1.94.0156,2.6631.0312,2.9561.0147.416.1074.5234.5381.6.0928.0157.2.0616.2.1075,0,.0615-.1074.1084-.3076.1084-.2461,0-.8008-.0313-1.0625-.0313-.4,0-.8008.0313-1.0313.0313-.1845,0-.2617-.0157-.2617-.0928s.0772-.0928.2774-.1387c.3847-.0771.4765-.2158.538-.8926.0313-.57.0928-3.1718.1084-5.0195,0-1.2471.0157-2.51,0-3.1865,0-.3389-.0312-.416-.4316-.6621-.1074-.0615-.1533-.0928-.1533-.1387s.0918-.0928.2305-.123a8.0451,8.0451,0,0,0,1.1552-.3545.6371.6371,0,0,1,.1846-.0459c.03,0,.0459.0918.0459.1689,0,.1074-.0615,2.7715-.0615,5.0811Z"/><path class="cls-2" d="M322.6543,142.8587A2.9486,2.9486,0,0,1,319.73,145.83a2.936,2.936,0,0,1-1.8789-5.2344,3.1642,3.1642,0,0,1,1.8476-.6465A2.8885,2.8885,0,0,1,322.6543,142.8587Zm-4.8037-.2148a3.5249,3.5249,0,0,0,.6474,2.1093,1.8292,1.8292,0,0,0,1.4473.8155,1.52,1.52,0,0,0,.97-.3848,3.0687,3.0687,0,0,0,.6465-2.0635c0-1.4619-.7392-2.9092-2.0937-2.9092C318.6826,140.2112,317.8506,141.0423,317.8506,142.6439Z"/><path class="cls-2" d="M327.6133,140.2571a1.1233,1.1233,0,0,0,.539.0772c.293,0,.9082-.0313,1.14-.0313.0762,0,.1387.1543.1387.3389,0,.1543-.1084.2774-.17.2774-.2158,0-.7695-.0313-.9394-.0313a.1386.1386,0,0,0-.0918.0928c0,.1074.03.3545.03.6308a2.5456,2.5456,0,0,1-.97,2.0791,2.1193,2.1193,0,0,1-1.2011.4,3.7717,3.7717,0,0,1-.6465-.0771.2935.2935,0,0,0-.1846.0459,2.3827,2.3827,0,0,0-.539.5078.49.49,0,0,0-.169.3389c0,.4931.6309.6464,1.4316.6464.4776,0,1.3243-.0459,1.7549-.0459a1.59,1.59,0,0,1,1.7246,1.709,3.1069,3.1069,0,0,1-1.7246,2.51,3.6723,3.6723,0,0,1-1.8623.5078c-1.2324,0-2.2636-.585-2.2636-1.7246a.9827.9827,0,0,1,.2773-.6621c.1074-.1231.6777-.8467.9853-1.1846.0157-.0312.03-.124-.0156-.1387-.4306-.0927-1.247-.6318-1.247-1.247a.1919.1919,0,0,1,.0927-.1543,6.7432,6.7432,0,0,0,1.2774-1.14c.0156-.0146,0-.0771-.03-.0918a2.3248,2.3248,0,0,1-1.1856-1.9248,1.8587,1.8587,0,0,1,.6465-1.4775,2.3666,2.3666,0,0,1,1.6319-.6318A3.4757,3.4757,0,0,1,327.6133,140.2571Zm-2.5713,8.9913a2.1033,2.1033,0,0,0,1.4629.4619,2.3955,2.3955,0,0,0,1.4316-.3692,2.0547,2.0547,0,0,0,.8321-1.5859c0-.6465-.4-1.2168-1.3858-1.2168-.5849,0-1.34.0156-1.7558.0312a.9486.9486,0,0,0-.5235.1387,1.9472,1.9472,0,0,0-.6621,1.37A1.5764,1.5764,0,0,0,325.042,149.2484Zm.1387-8.837a2.1482,2.1482,0,0,0-.4151,1.3545,2.7948,2.7948,0,0,0,.4766,1.6475,1.2582,1.2582,0,0,0,.9551.4463c.708,0,1.17-.8467,1.17-1.5547a2.7551,2.7551,0,0,0-.4776-1.7246,1.0822,1.0822,0,0,0-.9238-.5235A1.1568,1.1568,0,0,0,325.1807,140.4114Z"/><path class="cls-2" d="M330.248,140.3958a7.5827,7.5827,0,0,0,1.1084-.4.6206.6206,0,0,1,.2315-.1074c.0459,0,.0762.0459.0615.2148-.0312.3086-.0312,1.2471-.0312,2.2325,0,1.2939,0,2.4326.0312,2.6943.03.3086.1846.3857.4307.4473.1543.03.2314.0615.2314.123,0,.0772-.124.1074-.247.1074-.1387,0-.7081-.0615-1.1241-.0615-.5078,0-.7539.0313-.9238.0313-.1074,0-.2148-.0313-.2148-.0928s.0771-.1074.292-.1387c.3388-.0928.4775-.2158.4931-.8467.0156-.4619.0459-3.2636.0459-3.4179,0-.2159-.0156-.3076-.4463-.5391-.0771-.0459-.123-.0918-.123-.123C330.0635,140.473,330.1094,140.4261,330.248,140.3958Zm1.54-2.51a.5864.5864,0,0,1-.57.585.5477.5477,0,0,1-.5078-.5693.5712.5712,0,0,1,.539-.6006A.5636.5636,0,0,1,331.7881,137.886Z"/><path class="cls-2" d="M334.2363,142.597a2.5883,2.5883,0,0,0,.77,2.0019,2.19,2.19,0,0,0,1.4316.5391,2.0694,2.0694,0,0,0,1.6016-.585c.03-.0312.1074-.0468.1074,0a.3963.3963,0,0,1-.1231.2461,2.6632,2.6632,0,0,1-2.125,1.0157,2.8067,2.8067,0,0,1-1.9238-.7539,2.9,2.9,0,0,1-.7705-2.0782,2.942,2.942,0,0,1,.94-2.1406,3.376,3.376,0,0,1,2.2783-.8926,2.3434,2.3434,0,0,1,1.4013.3848.3546.3546,0,0,1,.2159.292.5263.5263,0,0,1-.3848.4931.4708.4708,0,0,1-.2617-.1543,4.2568,4.2568,0,0,0-.8623-.6308,1.3769,1.3769,0,0,0-.585-.1231C335.2979,140.2112,334.2363,140.8265,334.2363,142.597Z"/><path class="cls-2" d="M342.5518,140.7347a3.7348,3.7348,0,0,1,.2148,1.4c0,.57-.0459,2.0332-.0459,2.4326a.5272.5272,0,0,0,.5693.5849.988.988,0,0,0,.4473-.1376c.0918-.0469.1533,0,.0918.1376a1.2959,1.2959,0,0,1-1.1855.6622,1.0331,1.0331,0,0,1-.9082-.6924.0533.0533,0,0,0-.0772-.0156,2.1533,2.1533,0,0,1-1.5088.6933,1.2775,1.2775,0,0,1-1.2314-1.3242,1.0865,1.0865,0,0,1,.5537-.8779c.37-.2,1.7715-.6153,2.0947-.7393a.2905.2905,0,0,0,.2-.2305,5.3029,5.3029,0,0,0,.03-.708c0-.6318-.1074-1.0625-.3692-1.2627a1.17,1.17,0,0,0-.6465-.2461,1.059,1.059,0,0,0-.6162.1846.6183.6183,0,0,0-.2314.3691,1.6649,1.6649,0,0,0-.0147.293.194.194,0,0,1-.0615.1231,3.3566,3.3566,0,0,1-.7236.3388c-.0772.0157-.1543-.0771-.1543-.1386,0-.1075.1074-.2461.293-.462a3.9692,3.9692,0,0,1,1.17-.8925,2.0532,2.0532,0,0,1,.9238-.2774A1.2624,1.2624,0,0,1,342.5518,140.7347Zm-1.0323,4.2334a.6391.6391,0,0,0,.17-.3692,11.0875,11.0875,0,0,0,.0771-1.4629c0-.0156-.0312-.0917-.0625-.0771a8.774,8.774,0,0,0-1.416.5234.7979.7979,0,0,0-.3848.77.8943.8943,0,0,0,.9238.8623A1.0522,1.0522,0,0,0,341.52,144.9681Z"/><path class="cls-2" d="M345.9854,141.9046c0,1.94.0156,2.6631.0312,2.9561.0146.416.1074.5234.5381.6.0928.0157.2.0616.2.1075,0,.0615-.1074.1084-.3076.1084-.2461,0-.8008-.0313-1.0625-.0313-.4,0-.8008.0313-1.0313.0313-.1846,0-.2617-.0157-.2617-.0928s.0771-.0928.2773-.1387c.3848-.0771.4766-.2158.5381-.8926.0313-.57.0928-3.1718.1084-5.0195,0-1.2471.0156-2.51,0-3.1865,0-.3389-.0312-.416-.4316-.6621-.1074-.0615-.1533-.0928-.1533-.1387s.0918-.0928.23-.123a8.0467,8.0467,0,0,0,1.1553-.3545.6371.6371,0,0,1,.1846-.0459c.03,0,.0459.0918.0459.1689,0,.1074-.0615,2.7715-.0615,5.0811Z"/><rect class="cls-3" x="284.7964" y="155.2154" width="3.0492" height="8.8065" rx="1.089" transform="translate(108.0529 -115.4783) rotate(27.9171)"/><path class="cls-2" d="M295.9268,154.4241c.5078,0,.8466.0616,1.3086.0616.5078,0,.9853-.0616,1.3242-.0616.1377,0,.23.03.23.0772,0,.0615-.0615.123-.23.1387-.6162.0918-.6475.3232-.6778.9541-.0459.7695-.0312,2.5556-.0312,3.5107,0,2.2627.0312,3.5557.0615,4.0176.0469.5859.1387.6933.585.8008.2158.0468.2617.0927.2617.17s-.1074.0918-.292.0918c-.2461,0-.6309-.0459-1.0781-.0459-.77,0-1.2158.0771-1.5088.0771-.1387,0-.2461-.0312-.2461-.1084,0-.0459.0771-.0918.3389-.1533.5693-.123.6621-.37.6777-1.2939.03-.8926.0146-5.1416.0146-5.8653a12.8146,12.8146,0,0,0-.0615-1.4785c-.0615-.5078-.2148-.5693-.7383-.6924-.1084-.0312-.17-.0771-.17-.123S295.7881,154.4241,295.9268,154.4241Z"/><path class="cls-2" d="M304.8418,158.9661a3.216,3.216,0,0,1,.4922,2.0166c0,.8164.0156.94.0156,1.709.0156,1.0469.0615,1.14.4775,1.2471.1387.0615.2305.0928.2305.1543,0,.0918-.123.1074-.2773.1074-.2,0-.6465-.0615-.9854-.0615-.5234,0-.7236.0615-.9541.0615-.1387,0-.2461-.03-.2461-.0928s.0918-.123.292-.1689c.37-.0928.4317-.2.4317-.6465v-2.0938c0-1.247-.1084-1.6171-.4932-1.9091a1.3685,1.3685,0,0,0-.877-.293,1.8422,1.8422,0,0,0-1.2011.4932.7934.7934,0,0,0-.1846.4619c0,.1845.0146.97.0146,1.8935a12.54,12.54,0,0,0,.0928,1.6162c.0459.3389.2305.4161.4776.4932.1845.0459.2617.0772.2617.1533,0,.0928-.1543.0928-.3086.0928-.1231,0-.877-.0615-1.2315-.0615-.2,0-.5234.0312-.8154.0312-.17,0-.293-.0312-.293-.1084,0-.0615.1387-.123.3233-.1533.3848-.0771.4463-.1855.4619-.4932.0312-1.1084.0312-2.5253.0312-3.7724,0-.1533-.0312-.3233-.4-.5235-.0928-.0615-.1231-.0918-.1231-.1376,0-.0313.0762-.0772.2149-.1241a5.7405,5.7405,0,0,0,1.2168-.5234c.0458-.0147.123.0469.1074.123a6.8681,6.8681,0,0,0-.03.8164c0,.0313.0459.0772.0762.0459a5.336,5.336,0,0,1,1.0937-.6923,2.0758,2.0758,0,0,1,.9082-.1846A1.5725,1.5725,0,0,1,304.8418,158.9661Z"/><path class="cls-2" d="M313.0342,161.3519a2.9485,2.9485,0,0,1-2.9248,2.9716,2.9359,2.9359,0,0,1-1.8789-5.2343,3.1632,3.1632,0,0,1,1.8476-.6465A2.8885,2.8885,0,0,1,313.0342,161.3519Zm-4.8037-.2149a3.5252,3.5252,0,0,0,.6474,2.1094,1.8293,1.8293,0,0,0,1.4473.8154,1.5222,1.5222,0,0,0,.97-.3847,3.069,3.069,0,0,0,.6465-2.0635c0-1.4619-.7393-2.9092-2.0937-2.9092C309.0625,158.7044,308.2305,159.5355,308.2305,161.137Z"/><path class="cls-2" d="M316.207,159.5667a.8858.8858,0,0,0-.2617.5381,9.0248,9.0248,0,0,0-.0156.9395c0,1.14.0312,1.94.0615,2.2636.0615.4766.2471.585.832.6465.2149.03.292.0615.292.1387s-.1386.1074-.3691.1074c-.293,0-.8008-.0615-1.4473-.0615a8.2824,8.2824,0,0,0-.9394.0928c-.1846,0-.2617-.0313-.2617-.0928,0-.0459.1084-.1231.2314-.1543a.6347.6347,0,0,0,.5537-.6309c.0313-.2617.0469-1.14.0469-2.1553V159.49c0-.1084-.1084-.1543-.4-.4-.1084-.0772-.1231-.1231-.1231-.1543s.0918-.0918.2305-.1387a4.674,4.674,0,0,0,.9854-.3691.4849.4849,0,0,1,.2314-.0772c.03,0,.0615.0615.0615.2158,0,.169-.0156.7539-.0156,1.001,0,.0459.03.0615.0772.0147a2.5148,2.5148,0,0,1,1.6621-1.1084.8962.8962,0,0,1,.539.2.269.269,0,0,1,.1084.2158,1.0555,1.0555,0,0,1-.3388.5234c-.1387.1231-.2.1387-.2471.1387a.6919.6919,0,0,1-.2764-.1084,1.085,1.085,0,0,0-.539-.1846A1.0488,1.0488,0,0,0,316.207,159.5667Z"/><path class="cls-2" d="M322.9521,158.75a1.125,1.125,0,0,0,.5391.0772c.293,0,.9082-.0313,1.14-.0313.0761,0,.1386.1543.1386.3389,0,.1543-.1084.2773-.17.2773-.2158,0-.7695-.0312-.9394-.0312a.1386.1386,0,0,0-.0918.0927c0,.1075.03.3545.03.6309a2.5457,2.5457,0,0,1-.97,2.0791,2.1193,2.1193,0,0,1-1.2012.4,3.771,3.771,0,0,1-.6465-.0772.2932.2932,0,0,0-.1845.0459,2.3859,2.3859,0,0,0-.5391.5079.4893.4893,0,0,0-.1689.3388c0,.4932.6308.6465,1.4316.6465.4776,0,1.3242-.0459,1.7549-.0459a1.59,1.59,0,0,1,1.7246,1.709,3.109,3.109,0,0,1-1.7246,2.51,3.6723,3.6723,0,0,1-1.8623.5078c-1.2324,0-2.2637-.585-2.2637-1.7246a.9828.9828,0,0,1,.2774-.6622c.1074-.123.6777-.8466.9853-1.1845.0156-.0313.03-.124-.0156-.1387-.4307-.0928-1.2471-.6318-1.2471-1.2471a.192.192,0,0,1,.0928-.1543,6.7387,6.7387,0,0,0,1.2773-1.14c.0157-.0147,0-.0772-.03-.0918a2.3247,2.3247,0,0,1-1.1856-1.9248,1.8583,1.8583,0,0,1,.6465-1.4775,2.3666,2.3666,0,0,1,1.6318-.6319A3.474,3.474,0,0,1,322.9521,158.75Zm-2.5712,8.9912a2.1027,2.1027,0,0,0,1.4629.4619,2.3955,2.3955,0,0,0,1.4316-.3691,2.0552,2.0552,0,0,0,.832-1.5859c0-.6465-.4-1.2168-1.3857-1.2168-.585,0-1.34.0156-1.7559.0312a.9484.9484,0,0,0-.5234.1387,1.9466,1.9466,0,0,0-.6621,1.37A1.5762,1.5762,0,0,0,320.3809,167.7415Zm.1386-8.8369a2.1487,2.1487,0,0,0-.415,1.3545,2.7953,2.7953,0,0,0,.4766,1.6475,1.2584,1.2584,0,0,0,.955.4462c.708,0,1.17-.8466,1.17-1.5546a2.7554,2.7554,0,0,0-.4776-1.7247,1.0824,1.0824,0,0,0-.9238-.5234A1.1572,1.1572,0,0,0,320.52,158.9046Z"/><path class="cls-2" d="M329.0508,159.2278a3.7352,3.7352,0,0,1,.2148,1.4c0,.57-.0459,2.0323-.0459,2.4327a.528.528,0,0,0,.5694.5859.9914.9914,0,0,0,.4472-.1387c.0918-.0469.1533,0,.0918.1387a1.2969,1.2969,0,0,1-1.1855.6611,1.0331,1.0331,0,0,1-.9082-.6924.0534.0534,0,0,0-.0772-.0156,2.153,2.153,0,0,1-1.5088.6934,1.2776,1.2776,0,0,1-1.2314-1.3242,1.0869,1.0869,0,0,1,.5537-.878c.37-.2,1.7715-.6152,2.0947-.7392a.2906.2906,0,0,0,.2-.2305,5.3044,5.3044,0,0,0,.03-.708c0-.6318-.1074-1.0625-.3691-1.2627a1.17,1.17,0,0,0-.6465-.2461,1.0586,1.0586,0,0,0-.6162.1846.6184.6184,0,0,0-.2315.3691,1.6756,1.6756,0,0,0-.0146.293.1936.1936,0,0,1-.0616.123,3.3527,3.3527,0,0,1-.7236.3389c-.0771.0156-.1543-.0772-.1543-.1387,0-.1074.1074-.2461.293-.4619a3.9921,3.9921,0,0,1,1.17-.8935,2.063,2.063,0,0,1,.9238-.2764A1.2623,1.2623,0,0,1,329.0508,159.2278Zm-1.0322,4.2334a.6391.6391,0,0,0,.17-.3691,11.0875,11.0875,0,0,0,.0771-1.4629c0-.0156-.0312-.0918-.0625-.0771a8.7774,8.7774,0,0,0-1.416.5234.7978.7978,0,0,0-.3848.77.8944.8944,0,0,0,.9239.8623A1.0527,1.0527,0,0,0,328.0186,163.4612Z"/><path class="cls-2" d="M336.0107,158.9661a3.2154,3.2154,0,0,1,.4922,2.0166c0,.8164.0157.94.0157,1.709.0156,1.0469.0615,1.14.4775,1.2471.1387.0615.2305.0928.2305.1543,0,.0918-.1231.1074-.2774.1074-.2,0-.6465-.0615-.9853-.0615-.5235,0-.7237.0615-.9541.0615-.1387,0-.2461-.03-.2461-.0928s.0918-.123.292-.1689c.37-.0928.4316-.2.4316-.6465v-2.0938c0-1.247-.1084-1.6171-.4932-1.9091a1.3691,1.3691,0,0,0-.8779-.293,1.8419,1.8419,0,0,0-1.2.4932.7934.7934,0,0,0-.1846.4619c0,.1845.0147.97.0147,1.8935a12.499,12.499,0,0,0,.0928,1.6162c.0459.3389.23.4161.4775.4932.1846.0459.2617.0772.2617.1533,0,.0928-.1543.0928-.3086.0928-.123,0-.8769-.0615-1.2314-.0615-.2,0-.5235.0312-.8154.0312-.17,0-.293-.0312-.293-.1084,0-.0615.1387-.123.3232-.1533.3848-.0771.4463-.1855.4619-.4932.0313-1.1084.0313-2.5253.0313-3.7724,0-.1533-.0313-.3233-.4-.5235-.0928-.0615-.123-.0918-.123-.1376,0-.0313.0761-.0772.2148-.1241a5.7361,5.7361,0,0,0,1.2168-.5234c.0459-.0147.123.0469.1074.123a6.8893,6.8893,0,0,0-.03.8164c0,.0313.0459.0772.0762.0459a5.3365,5.3365,0,0,1,1.0938-.6923,2.0755,2.0755,0,0,1,.9082-.1846A1.5724,1.5724,0,0,1,336.0107,158.9661Z"/><path class="cls-2" d="M338.5068,158.889a7.5827,7.5827,0,0,0,1.1084-.4.6188.6188,0,0,1,.2315-.1074c.0459,0,.0762.0459.0615.2148-.0312.3086-.0312,1.2471-.0312,2.2324,0,1.294,0,2.4326.0312,2.6944.03.3086.1846.3857.4307.4472.1543.03.2314.0616.2314.1231,0,.0771-.124.1074-.2471.1074-.1386,0-.708-.0615-1.124-.0615-.5078,0-.7539.0312-.9228.0312-.1084,0-.2159-.0312-.2159-.0927s.0772-.1075.292-.1387c.3389-.0928.4776-.2158.4932-.8467.0156-.4619.0459-3.2637.0459-3.418,0-.2158-.0156-.3076-.4463-.539-.0771-.0459-.123-.0918-.123-.1231C338.3223,158.9661,338.3682,158.9193,338.5068,158.889Zm1.54-2.51a.5865.5865,0,0,1-.57.585.5477.5477,0,0,1-.5078-.5694.5705.5705,0,0,1,.539-.6005A.5636.5636,0,0,1,340.0469,156.3792Z"/><path class="cls-2" d="M342.8027,161.09a2.5884,2.5884,0,0,0,.77,2.002,2.1912,2.1912,0,0,0,1.4316.5391,2.0694,2.0694,0,0,0,1.6016-.585c.03-.0312.1074-.0469.1074,0a.3965.3965,0,0,1-.1231.2461,2.6635,2.6635,0,0,1-2.125,1.0156,2.8062,2.8062,0,0,1-1.9238-.7539,2.9,2.9,0,0,1-.77-2.0781,2.942,2.942,0,0,1,.9395-2.1406,3.376,3.376,0,0,1,2.2783-.8926,2.3434,2.3434,0,0,1,1.4013.3848.3546.3546,0,0,1,.2159.2919.5264.5264,0,0,1-.3848.4932.4708.4708,0,0,1-.2617-.1543,4.2529,4.2529,0,0,0-.8623-.6308,1.3769,1.3769,0,0,0-.585-.1231C343.8643,158.7044,342.8027,159.32,342.8027,161.09Z"/><path class="cls-3" d="M219.6419,122.9144c0-13.4744,24.3975-42.8028,24.3975-42.8028s24.3974,29.3284,24.3974,42.8028a24.3975,24.3975,0,0,1-48.7949,0Z"/><circle class="cls-1" cx="255.3769" cy="115.7237" r="1.3629"/><path class="cls-1" d="M255.3435,110.9637c-.4744,1.2568,1.09,2.0593-.1524,3.3387"/><path class="cls-1" d="M255.3435,117.1449c-.4744,1.2569,1.09,2.0593-.1524,3.3388"/><path class="cls-1" d="M260.1369,115.75c-1.2569-.4743-2.0593,1.09-3.3388-.1524"/><path class="cls-1" d="M253.9556,115.75c-1.2568-.4743-2.0593,1.09-3.3387-.1524"/><path class="cls-1" d="M258.7191,112.3342c-1.2241.5533-.6852,2.2271-2.4686,2.2531"/><path class="cls-1" d="M254.3483,116.705c-1.2242.5533-.6852,2.2271-2.4686,2.2531"/><path class="cls-1" d="M258.7238,119.1084c-.5533-1.2242-2.227-.6852-2.253-2.4686"/><path class="cls-1" d="M254.353,114.7376c-.5533-1.2242-2.227-.6852-2.2531-2.4687"/><rect class="cls-3" x="237.0203" y="97.5759" width="2.6469" height="7.6445" rx="0.9453" transform="translate(161.329 -145.9034) rotate(49.6561)"/><rect class="cls-3" x="242.9071" y="122.0394" width="2.6469" height="7.6445" rx="0.9453" transform="translate(496.4175 16.8136) rotate(129.352)"/><rect class="cls-3" x="249.67" y="98.6466" width="2.6469" height="7.6445" rx="0.9453" transform="translate(521.5545 119.6244) rotate(161.4202)"/><circle class="cls-1" cx="232.099" cy="131.0871" r="1.3629"/><path class="cls-1" d="M232.0656,126.3271c-.4743,1.2568,1.09,2.0592-.1524,3.3387"/><path class="cls-1" d="M232.0656,132.5083c-.4743,1.2569,1.09,2.0593-.1524,3.3388"/><path class="cls-1" d="M236.859,131.1137c-1.2568-.4743-2.0593,1.09-3.3388-.1524"/><path class="cls-1" d="M230.6777,131.1137c-1.2568-.4743-2.0592,1.09-3.3387-.1524"/><path class="cls-1" d="M235.4412,127.6976c-1.2241.5533-.6852,2.2271-2.4686,2.2531"/><path class="cls-1" d="M231.07,132.0684c-1.2241.5533-.6852,2.2271-2.4686,2.2531"/><path class="cls-1" d="M235.446,134.4718c-.5533-1.2242-2.2271-.6852-2.2531-2.4687"/><path class="cls-1" d="M231.0752,130.1009c-.5533-1.2241-2.2271-.6851-2.2531-2.4686"/><circle class="cls-1" cx="256.9287" cy="129.5352" r="1.3629"/><path class="cls-1" d="M256.8953,124.7752c-.4743,1.2568,1.09,2.0593-.1524,3.3388"/><path class="cls-1" d="M256.8953,130.9565c-.4743,1.2568,1.09,2.0592-.1524,3.3387"/><path class="cls-1" d="M261.6887,129.5619c-1.2568-.4744-2.0592,1.09-3.3387-.1524"/><path class="cls-1" d="M255.5075,129.5619c-1.2569-.4744-2.0593,1.09-3.3388-.1524"/><path class="cls-1" d="M260.2709,126.1458c-1.2241.5533-.6851,2.2271-2.4686,2.2531"/><path class="cls-1" d="M255.9,130.5166c-1.2241.5533-.6851,2.2271-2.4686,2.2531"/><path class="cls-1" d="M260.2757,132.92c-.5533-1.2241-2.2271-.6852-2.2531-2.4686"/><path class="cls-1" d="M255.9049,128.5491c-.5533-1.2241-2.2271-.6852-2.2531-2.4686"/><circle class="cls-1" cx="242.9633" cy="113.0565" r="1.3629"/><path class="cls-1" d="M242.93,108.2965c-.4743,1.2569,1.09,2.0593-.1524,3.3388"/><path class="cls-1" d="M242.93,114.4778c-.4743,1.2568,1.09,2.0593-.1524,3.3387"/><path class="cls-1" d="M247.7233,113.0832c-1.2568-.4744-2.0593,1.09-3.3388-.1524"/><path class="cls-1" d="M241.542,113.0832c-1.2568-.4744-2.0592,1.09-3.3387-.1524"/><path class="cls-1" d="M246.3055,109.6671c-1.2241.5533-.6852,2.2271-2.4686,2.2531"/><path class="cls-1" d="M241.9347,114.0379c-1.2241.5533-.6852,2.2271-2.4686,2.2531"/><path class="cls-1" d="M246.31,116.4412c-.5533-1.2241-2.2271-.6852-2.2531-2.4686"/><path class="cls-1" d="M241.94,112.07c-.5533-1.2241-2.2271-.6852-2.2531-2.4686"/><circle class="cls-1" cx="230.6679" cy="117.3487" r="1.3629"/><path class="cls-1" d="M230.6345,112.5887c-.4744,1.2569,1.09,2.0593-.1524,3.3388"/><path class="cls-1" d="M230.6345,118.77c-.4744,1.2568,1.09,2.0593-.1524,3.3387"/><path class="cls-1" d="M235.4279,117.3754c-1.2569-.4743-2.0593,1.09-3.3388-.1524"/><path class="cls-1" d="M229.2466,117.3754c-1.2568-.4743-2.0593,1.09-3.3387-.1524"/><path class="cls-1" d="M234.01,113.9593c-1.2241.5533-.6852,2.2271-2.4686,2.2531"/><path class="cls-1" d="M229.6393,118.33c-1.2242.5533-.6852,2.2271-2.4686,2.2531"/><path class="cls-1" d="M234.0148,120.7334c-.5533-1.2241-2.227-.6851-2.253-2.4686"/><path class="cls-1" d="M229.644,116.3626c-.5533-1.2241-2.2271-.6852-2.2531-2.4686"/><circle class="cls-1" cx="246.2118" cy="138.066" r="1.4591"/><path class="cls-1" d="M246.1761,132.97c-.5078,1.3455,1.1672,2.2045-.1632,3.5742"/><path class="cls-1" d="M246.1761,139.5876c-.5078,1.3454,1.1672,2.2045-.1632,3.5742"/><path class="cls-1" d="M251.3076,138.0946c-1.3455-.5078-2.2045,1.1672-3.5742-.1632"/><path class="cls-1" d="M244.69,138.0946c-1.3455-.5078-2.2045,1.1672-3.5742-.1632"/><path class="cls-1" d="M249.79,134.4375c-1.3105.5923-.7335,2.3842-2.6427,2.412"/><path class="cls-1" d="M245.1107,139.1166c-1.3105.5924-.7335,2.3842-2.6428,2.4121"/><path class="cls-1" d="M249.7949,141.69c-.5923-1.3105-2.3842-.7335-2.412-2.6428"/><path class="cls-1" d="M245.1158,137.01c-.5923-1.31-2.3842-.7335-2.412-2.6428"/><path class="cls-1" d="M166.8677,124.8112h-5.44a1.26,1.26,0,0,1-1.2605-1.26v-3.73a1.26,1.26,0,0,1,1.2605-1.26h14.3119"/><line class="cls-1" x1="158.9513" y1="158.9242" x2="162.7847" y2="158.9242"/><line class="cls-1" x1="163.7684" y1="135.1868" x2="163.7684" y2="126.4546"/><line class="cls-1" x1="162.4376" y1="158.9242" x2="157.5822" y2="158.9242"/><line class="cls-1" x1="155.4603" y1="155.6852" x2="155.4774" y2="155.6432"/><line class="cls-1" x1="155.4774" y1="155.6432" x2="163.7554" y2="135.3588"/><path class="cls-1" d="M155.46,155.6852a2.3427,2.3427,0,0,0,2.17,3.2358"/><path class="cls-1" d="M155.46,155.6852l.0171-.042"/><line class="cls-1" x1="162.4376" y1="158.9242" x2="157.5822" y2="158.9242"/><line class="cls-1" x1="155.4603" y1="155.6852" x2="155.4774" y2="155.6432"/><line class="cls-1" x1="155.4774" y1="155.6432" x2="163.7554" y2="135.3588"/><path class="cls-1" d="M155.46,155.6852a2.3427,2.3427,0,0,0,2.17,3.2358"/><path class="cls-1" d="M155.46,155.6852l.0171-.042"/><path class="cls-1" d="M176.1935,128.5987h7.5746a1.2127,1.2127,0,0,0,1.1586-1.26v-3.73a1.2126,1.2126,0,0,0-1.1586-1.26H169.3253a1.2126,1.2126,0,0,0-1.1586,1.26v3.73a1.2127,1.2127,0,0,0,1.1586,1.26h2.4989"/><line class="cls-1" x1="171.0317" y1="140.3743" x2="171.0317" y2="131.6421"/><line class="cls-1" x1="186.8789" y1="164.1116" x2="164.8454" y2="164.1116"/><line class="cls-1" x1="162.7235" y1="160.8727" x2="162.7407" y2="160.8307"/><line class="cls-1" x1="162.7407" y1="160.8307" x2="171.0187" y2="140.5463"/><path class="cls-1" d="M162.7235,160.8727a2.3429,2.3429,0,0,0,2.17,3.2358"/><path class="cls-1" d="M162.7235,160.8727l.0172-.042"/><line class="cls-1" x1="182.0617" y1="140.3743" x2="182.0617" y2="131.6421"/><line class="cls-1" x1="165.1925" y1="164.1116" x2="188.2479" y2="164.1116"/><line class="cls-1" x1="190.3699" y1="160.8727" x2="190.3527" y2="160.8307"/><line class="cls-1" x1="190.3527" y1="160.8307" x2="182.0747" y2="140.5463"/><path class="cls-1" d="M190.37,160.8727a2.3429,2.3429,0,0,1-2.17,3.2358"/><path class="cls-1" d="M190.37,160.8727l-.0172-.042"/><line class="cls-1" x1="165.1925" y1="164.1116" x2="188.2479" y2="164.1116"/><line class="cls-1" x1="190.3699" y1="160.8727" x2="190.3527" y2="160.8307"/><line class="cls-1" x1="190.3527" y1="160.8307" x2="182.0747" y2="140.5463"/><path class="cls-1" d="M190.37,160.8727a2.3429,2.3429,0,0,1-2.17,3.2358"/><path class="cls-1" d="M190.37,160.8727l-.0172-.042"/><line class="cls-3" x1="178.341" y1="133.7572" x2="182.1431" y2="133.7572"/><line class="cls-3" x1="178.341" y1="131.5786" x2="182.1431" y2="131.5786"/><line class="cls-3" x1="178.341" y1="135.961" x2="182.1431" y2="135.961"/><line class="cls-3" x1="178.341" y1="138.1648" x2="182.1431" y2="138.1648"/><line class="cls-3" x1="178.341" y1="140.3686" x2="182.1431" y2="140.3686"/><path class="cls-3" d="M170.1605,153.06c0-1.2506,2.2645-3.9728,2.2645-3.9728s2.2645,2.7222,2.2645,3.9728a2.2645,2.2645,0,1,1-4.529,0Z"/><path class="cls-3" d="M174.8857,158.6652c0-1.2507,2.2645-3.9729,2.2645-3.9729s2.2645,2.7222,2.2645,3.9729a2.2645,2.2645,0,0,1-4.529,0Z"/><path class="cls-3" d="M176.1383,150.6379c0-1.2507,2.2645-3.9729,2.2645-3.9729s2.2645,2.7222,2.2645,3.9729a2.2645,2.2645,0,1,1-4.529,0Z"/><line class="cls-4" x1="180.4166" y1="149.4584" x2="221.1429" y2="132.6584"/><path class="cls-2" d="M51.8052,66.0008a1.6318,1.6318,0,0,1,1.37-1.5088c.0772,0,.1387,0,.1387.0772,0,.0307-.0772.0766-.1695.1074-.4619.2466-.8.5542-.8,1.0468,0,.3238.1538.5084.5693.6163a.3221.3221,0,0,1,.3081.3232.4446.4446,0,0,1-.4619.4A.9952.9952,0,0,1,51.8052,66.0008Zm1.9092,0A1.6712,1.6712,0,0,1,55.1,64.492c.0767,0,.1382.0308.1382.0772,0,.0307-.0615.0766-.1538.1074-.4619.2466-.8159.57-.8159,1.0468,0,.3238.1694.5084.5849.6163a.3332.3332,0,0,1,.3081.3232.4719.4719,0,0,1-.4775.4A1.0071,1.0071,0,0,1,53.7144,66.0008Z"/><path class="cls-2" d="M56.2554,65.1541c.3545,0,1.001.0615,1.355.0615.4926,0,1.1548-.0615,1.4316-.0615.231,0,.293.0615.293.0923,0,.0923-.1387.1387-.3081.1694-.37.0459-.5391.2461-.5391.4312a2.3188,2.3188,0,0,0,.1851.7236c.2768.8159,2.1552,5.6812,2.5092,6.4048.0157.0459.0616.0923.0772.0308.2461-.5083,2.0478-5.1119,2.31-5.8506a4.4887,4.4887,0,0,0,.3076-1.2163c0-.354-.2925-.4468-.7544-.57-.1538-.0151-.2617-.0766-.2617-.123,0-.0615.0771-.1079.3081-.1079.3388,0,.9546.0771,1.2778.0771.354,0,.77-.0615,1.0161-.0615.2,0,.2617.0308.2617.0615,0,.0616-.0615.1387-.3081.1846-.5849.1694-.8159.4468-1.2929,1.5244-.2925.6621-1.1856,2.8638-2.6485,6.4048-.354.8931-.5542,1.4473-.6157,1.6782-.0308.1075-.0923.1846-.123.1846-.0923,0-.1231-.123-.1846-.3232-.5083-1.5245-2.8486-7.4517-3.4336-8.7759a1.0228,1.0228,0,0,0-.8623-.6929c-.1846-.0308-.2925-.0923-.2925-.1538S56.1172,65.1541,56.2554,65.1541Z"/><path class="cls-2" d="M69.1441,65.1077a6.5032,6.5032,0,0,0,.4,1.2935c1.0776,2.8638,1.9086,4.9575,2.8632,7.1284.3853.9082.5391,1.0469.9239,1.1392.185.0307.2617.0922.2617.1386,0,.0772-.1382.1079-.2769.1079-.2925,0-.539-.0463-1.3393-.0463-.57,0-1.1548.0615-1.5244.0615-.1695,0-.2618-.0308-.2618-.1079,0-.0616.1387-.1231.2925-.1382.6157-.0928.708-.3545.6929-.6929-.0308-.2617-.5542-1.6323-1.0776-2.9868-.0464-.1079-.1387-.1851-.2-.1851-.585.0308-2.5249.0308-2.8638.0308-.0772,0-.1694.1694-.231.2925-.1386.3389-.5849,1.478-.8008,2.2324-.1689.5855-.1689.8779,0,1.0474a1.2093,1.2093,0,0,0,.647.2617c.1538.0459.231.1074.231.1538,0,.0771-.1387.1079-.3081.1079-.2925,0-.9239-.0771-1.4781-.0771-.3847,0-.6772.0771-1.0468.0771-.1695,0-.2617-.0308-.2617-.1079s.1538-.1079.3081-.1387c.708-.1386.8466-.2768,1.4316-1.57.4463-.9546,1.8013-4.3262,2.6943-6.62a1.0773,1.0773,0,0,0,.0923-.4312c0-.0615.0156-.1543.0464-.1694a1.4638,1.4638,0,0,0,.5542-.8008c.0308-.0615.0459-.1538.1079-.1538S69.1133,65.0154,69.1441,65.1077Zm.6157,5.0655c-.6157-1.74-1.0318-2.7251-1.2627-3.2486-.0459-.123-.0767-.0771-.1231.0308-.3691.8774-1,2.6479-1.2163,3.2793-.0151.0307-.0151.1387.0464.1387.2925.0151.6773.0151,1.2163.0151A7.3427,7.3427,0,0,0,69.76,70.327.2281.2281,0,0,0,69.76,70.1732Z"/><path class="cls-2" d="M72.5947,65.1541c.3545,0,1.001.0615,1.355.0615.4927,0,1.1548-.0615,1.4317-.0615.2309,0,.2929.0615.2929.0923,0,.0923-.1386.1387-.3081.1694-.37.0459-.539.2461-.539.4312a2.3207,2.3207,0,0,0,.185.7236c.2769.8159,2.1553,5.6812,2.5093,6.4048.0156.0459.0615.0923.0772.0308.246-.5083,2.0478-5.1119,2.31-5.8506a4.5037,4.5037,0,0,0,.3076-1.2163c0-.354-.2924-.4468-.7544-.57-.1538-.0151-.2617-.0766-.2617-.123,0-.0615.0772-.1079.3081-.1079.3389,0,.9546.0771,1.2779.0771.354,0,.77-.0615,1.0161-.0615.2,0,.2617.0308.2617.0615,0,.0616-.0615.1387-.3081.1846-.585.1694-.8159.4468-1.293,1.5244-.2925.6621-1.1855,2.8638-2.6484,6.4048-.354.8931-.5542,1.4473-.6157,1.6782-.0308.1075-.0923.1846-.1231.1846-.0923,0-.123-.123-.1846-.3232-.5083-1.5245-2.8486-7.4517-3.4336-8.7759a1.0227,1.0227,0,0,0-.8623-.6929c-.1845-.0308-.2924-.0923-.2924-.1538S72.4566,65.1541,72.5947,65.1541Z"/><path class="cls-2" d="M82.4966,65.1541c.3545,0,1.001.0615,1.355.0615.4927,0,1.1548-.0615,1.4316-.0615.231,0,.293.0615.293.0923,0,.0923-.1387.1387-.3081.1694-.37.0459-.5391.2461-.5391.4312a2.3188,2.3188,0,0,0,.1851.7236c.2768.8159,2.1553,5.6812,2.5093,6.4048.0156.0459.0615.0923.0771.0308.2461-.5083,2.0479-5.1119,2.31-5.8506a4.4887,4.4887,0,0,0,.3076-1.2163c0-.354-.2925-.4468-.7544-.57-.1538-.0151-.2617-.0766-.2617-.123,0-.0615.0771-.1079.3081-.1079.3389,0,.9546.0771,1.2778.0771.354,0,.7695-.0615,1.0161-.0615.2,0,.2617.0308.2617.0615,0,.0616-.0615.1387-.3081.1846-.5849.1694-.8159.4468-1.2929,1.5244-.2925.6621-1.1856,2.8638-2.6485,6.4048-.354.8931-.5542,1.4473-.6157,1.6782-.0307.1075-.0923.1846-.123.1846-.0923,0-.1231-.123-.1846-.3232-.5083-1.5245-2.8486-7.4517-3.4336-8.7759a1.0228,1.0228,0,0,0-.8623-.6929c-.1846-.0308-.2925-.0923-.2925-.1538S82.3584,65.1541,82.4966,65.1541Z"/><path class="cls-2" d="M96.2173,70.2811a.7749.7749,0,0,0-.1538.5693,30.5694,30.5694,0,0,0,.0771,3.3105.5442.5442,0,0,0,.4927.5235c.231.0459.3384.0766.3384.1538,0,.0464-.0923.0923-.231.0923-.4311,0-.831-.0615-1.2778-.0615-.477,0-.708.0615-1.0005.0615-.1694,0-.2466-.0308-.2466-.0923s.0616-.0923.2466-.1387c.4463-.1079.5542-.1538.5694-.7387.0463-.6163.062-2.0323.062-4.4805,0-2.3247.0307-3.2642,0-3.8491-.0157-.4927-.1236-.5386-.4619-.7237-.0621-.0459-.108-.0766-.108-.123s.0923-.0923.2618-.1387a6.38,6.38,0,0,0,1.124-.37.3366.3366,0,0,1,.1538-.0615c.0464,0,.0923.1079.0771.3237-.0156.4155-.0771,5.1885-.0615,5.4809,0,.0616.0459.0767.0615.0459a5.0767,5.0767,0,0,1,.9239-.6313,2.4184,2.4184,0,0,1,1.0776-.2617,1.64,1.64,0,0,1,1.3857.6929,2.9692,2.9692,0,0,1,.3384,1.6474c.0157,1.1548.0157,2.1094.0308,2.6943,0,.3082.0615.4161.5234.4927.2.0464.2466.0772.2466.1387s-.1079.1079-.2466.1079c-.4,0-.6928-.0771-1.1084-.0771-.5234,0-.6465.0615-1.0005.0615-.185,0-.2465-.0459-.2465-.0923,0-.0615.0771-.0923.2309-.1231.4155-.0922.4463-.2.5083-.6469.0308-.354.0615-1.0313.0615-2.6323a2.4657,2.4657,0,0,0-.2309-1.1548,1.1526,1.1526,0,0,0-1.0625-.57A1.86,1.86,0,0,0,96.2173,70.2811Z"/><path class="cls-2" d="M104.8872,69.9578a3.7248,3.7248,0,0,1,.2158,1.4009c0,.57-.0463,2.0322-.0463,2.4326a.5276.5276,0,0,0,.57.585.9807.9807,0,0,0,.4463-.1387c.0923-.0459.1538,0,.0923.1387a1.2971,1.2971,0,0,1-1.1856.6621,1.0345,1.0345,0,0,1-.9082-.6929.0541.0541,0,0,0-.0771-.0156,2.1552,2.1552,0,0,1-1.5088.6929,1.2771,1.2771,0,0,1-1.2315-1.3238,1.086,1.086,0,0,1,.5542-.8779c.37-.2,1.77-.6157,2.0938-.7388a.2918.2918,0,0,0,.2-.2309,5.2359,5.2359,0,0,0,.0307-.7085c0-.6309-.1079-1.062-.37-1.2622a1.1736,1.1736,0,0,0-.6465-.2466,1.06,1.06,0,0,0-.6157.1851.6146.6146,0,0,0-.231.3691,1.5751,1.5751,0,0,0-.0156.293.19.19,0,0,1-.0615.123,3.3122,3.3122,0,0,1-.7236.3389c-.0767.0151-.1539-.0772-.1539-.1387,0-.1079.108-.2466.2925-.4619a4,4,0,0,1,1.17-.8931,2.0709,2.0709,0,0,1,.9239-.2773A1.2616,1.2616,0,0,1,104.8872,69.9578Zm-1.0312,4.2339a.6375.6375,0,0,0,.1689-.37,10.9923,10.9923,0,0,0,.0772-1.4629c0-.0151-.0308-.0923-.0616-.0767a8.6543,8.6543,0,0,0-1.4165.5235.7967.7967,0,0,0-.3847.77.8941.8941,0,0,0,.9238.8623A1.0569,1.0569,0,0,0,103.856,74.1917Z"/><path class="cls-2" d="M107.8755,70.3577c0,.647.585,1.0161.97,1.2471,1.001.647,1.4009,1.0317,1.4009,1.8169a1.5813,1.5813,0,0,1-.8,1.2934,2.56,2.56,0,0,1-1.2319.3384,3.1416,3.1416,0,0,1-1.2163-.2768c-.1231-.0464-.231-.1538-.231-.2466,0-.2153-.0307-.6-.0459-.77-.0307-.2.0152-.2466.0459-.2466.0464,0,.0928,0,.2.2925a1.5,1.5,0,0,0,.647.8315,1.1791,1.1791,0,0,0,.6929.1846,1.0552,1.0552,0,0,0,1-1.0313c0-.5849-.4-.9087-1.0161-1.2934-.6621-.4312-1.2778-1.0005-1.2778-1.6783a1.46,1.46,0,0,1,.585-1.2163,1.9913,1.9913,0,0,1,1.2934-.4311,3.7727,3.7727,0,0,1,1.0469.1694.25.25,0,0,1,.0771.1387c.0152.1694.0767.4775.0923.7236,0,.1695-.0307.2466-.0771.2466-.0615,0-.0923-.0771-.1387-.1851a1.17,1.17,0,0,0-.37-.6313,1.2624,1.2624,0,0,0-.7232-.231A.8971.8971,0,0,0,107.8755,70.3577Z"/><path class="cls-2" d="M114.05,70.1268c0-.1075-.0151-.1846-.0766-.2-.0772,0-.2466,0-.4312-.0152-.1079-.0156-.2-.0922-.2-.123,0-.0464.0767-.0923.1846-.1543s.2309-.1382.37-.231a.2981.2981,0,0,0,.1538-.2153,9.8333,9.8333,0,0,1,.2617-2.5249,3.5456,3.5456,0,0,1,1.5552-2.0478,2.52,2.52,0,0,1,1.3857-.4156c.6309,0,1.0469.2617,1.0469.4927a.7555.7555,0,0,1-.3847.5078.2777.2777,0,0,1-.3081-.0307,1.82,1.82,0,0,0-1.0933-.5235c-.6929,0-1.2315.4468-1.3858,2.0943-.0459.477-.0766,1.57-.0766,2.0473a4.5806,4.5806,0,0,0,.0151.4927.1211.1211,0,0,0,.1231.0923c.1386,0,1.4472-.0308,1.6167-.0308.0615,0,.1235.0923.1235.2774,0,.2153-.0312.2768-.2158.2768-.2461,0-1.355-.0307-1.57-.0307-.0464,0-.0772.1235-.0772.1386,0,.57.0308,3.3716.0464,3.8184.0459.5849.1694.708.3233.7544.123.0464.2924.0464.4926.0923.1846.0463.2774.0771.2774.1386,0,.0772-.1079.1079-.2466.1079-.4463,0-.6929-.0463-1.478-.0463-.354,0-.6929.0463-.9546.0615-.1387,0-.231-.0308-.231-.0923s.1079-.1079.3081-.1538c.37-.0928.4463-.3081.4463-.8623Z"/><path class="cls-2" d="M123.0894,72.0823a2.9485,2.9485,0,0,1-2.9253,2.9712,2.9359,2.9359,0,0,1-1.8784-5.2343,3.16,3.16,0,0,1,1.8476-.647A2.89,2.89,0,0,1,123.0894,72.0823Zm-4.8037-.2158a3.5243,3.5243,0,0,0,.6464,2.1094,1.83,1.83,0,0,0,1.4473.8159,1.5211,1.5211,0,0,0,.97-.3848,3.0678,3.0678,0,0,0,.6465-2.0629c0-1.4629-.7392-2.91-2.0937-2.91C119.1167,69.4339,118.2857,70.2654,118.2857,71.8665Z"/><path class="cls-2" d="M124.8457,74.4534a1.6145,1.6145,0,0,1-.2925-.9394c0-.5078,0-3.11-.0307-3.3716a.6.6,0,0,0-.3389-.5083c-.1387-.0923-.1846-.1382-.1846-.1846s.0767-.0771.2461-.0771a5.4016,5.4016,0,0,0,1.2935-.2c.0464-.0152.0923.0771.0771.1694-.0463.8779-.062,2.9717-.0463,3.68a1.7021,1.7021,0,0,0,.2309,1.0161,1.1315,1.1315,0,0,0,.8623.3853,1.7275,1.7275,0,0,0,1.3086-.4927.9435.9435,0,0,0,.2769-.7085c.0312-.4155.0312-1.0161.0312-1.57,0-.231-.0156-.9546-.0156-1.355-.0156-.5234-.1694-.6-.6773-.708-.1694-.0308-.2465-.0772-.2465-.1231,0-.062.1386-.0927.2309-.0927h.6465A8.1554,8.1554,0,0,0,129.28,69.28c.0464,0,.0772.0615.0615.1694-.0766.7237-.1079,2.2632-.1079,4.0493a5.0663,5.0663,0,0,0,.0313.7852c.0307.1538.0766.1846.2.1694a4.3251,4.3251,0,0,1,.6313-.1386.1852.1852,0,0,1,.1851.1694c0,.0615-.1387.0923-.293.123a6.9491,6.9491,0,0,0-1.5854.4156c-.1231.0615-.1543.0464-.1851,0s-.0308-.1231-.0308-.2925c0-.1538.0157-.4927.0157-.6006,0-.0459-.0157-.1538-.0464-.1074a4.4331,4.4331,0,0,1-1.062.7544,2.6427,2.6427,0,0,1-.9087.2309A1.513,1.513,0,0,1,124.8457,74.4534Z"/><path class="cls-2" d="M135.5781,69.6961a3.2068,3.2068,0,0,1,.4927,2.0166c0,.8159.0156.9395.0156,1.709.0152,1.0469.0616,1.1392.4771,1.2471.1387.0615.231.0922.231.1538,0,.0927-.1231.1079-.2769.1079-.2,0-.647-.0615-.9854-.0615-.5234,0-.7236.0615-.9545.0615-.1387,0-.2466-.0308-.2466-.0923s.0927-.1231.2925-.1694c.37-.0923.4311-.2.4311-.6465V71.9285c0-1.247-.1074-1.6167-.4927-1.9092a1.367,1.367,0,0,0-.8774-.2924,1.84,1.84,0,0,0-1.2007.4926.7967.7967,0,0,0-.1851.462c0,.1845.0157.97.0157,1.8935a12.585,12.585,0,0,0,.0923,1.6167c.0463.3384.2309.4155.477.4927.1851.0459.2617.0766.2617.1538,0,.0923-.1538.0923-.3076.0923-.123,0-.8779-.0615-1.2319-.0615-.2,0-.5235.0307-.8159.0307-.1695,0-.2925-.0307-.2925-.1079,0-.0615.1386-.123.3232-.1538.3848-.0771.4468-.1846.4619-.4927.0308-1.1084.0308-2.5249.0308-3.7719,0-.1539-.0308-.3233-.4-.5235-.0923-.0615-.123-.0923-.123-.1387,0-.0307.0771-.0771.2158-.123a5.806,5.806,0,0,0,1.2163-.5234c.0459-.0157.123.0459.1074.123a7.0919,7.0919,0,0,0-.0308.8159c0,.0308.0464.0772.0772.0464a5.2956,5.2956,0,0,1,1.0933-.6929,2.0761,2.0761,0,0,1,.9082-.185A1.57,1.57,0,0,1,135.5781,69.6961Z"/><path class="cls-2" d="M141.8154,69.3265c.0308.0151.0767-.0464.0767-.0772,0-.2768-.0151-3.0024-.0308-3.8183a.41.41,0,0,0-.0615-.2617.8417.8417,0,0,0-.4311-.2461c-.1075-.0308-.1846-.0772-.1846-.1231s.0771-.0928.1846-.1079a6.4893,6.4893,0,0,0,1.3242-.37.5211.5211,0,0,1,.2153-.0772c.0464,0,.0772.0772.062.2617-.0312.462-.1079,5.4659-.1079,7.0362,0,1.3393.0152,2.4018.0308,2.8022a.1365.1365,0,0,0,.1079.1387,4.02,4.02,0,0,0,.7236-.1694c.0923-.0308.1382.0151.1382.0615,0,.1079-.1074.2466-.3848.2925a8.6491,8.6491,0,0,0-1.601.4c-.0616.0151-.1079-.0616-.1079-.108A4.5925,4.5925,0,0,0,141.8,74.33c0-.0308-.0307-.0615-.0615-.0308a2.8892,2.8892,0,0,1-1.7554.7237,2.5116,2.5116,0,0,1-1.6318-.6465,2.9184,2.9184,0,0,1-.8-2.063,3.0646,3.0646,0,0,1,1.3394-2.54,3.4594,3.4594,0,0,1,1.9091-.585A4.2563,4.2563,0,0,1,141.8154,69.3265Zm-2.2939.4155a2.7324,2.7324,0,0,0-.8472,2.2324c0,1.6631.94,2.5249,1.8785,2.5249a1.6047,1.6047,0,0,0,1.0932-.4,1.0416,1.0416,0,0,0,.1694-.5693,21.3611,21.3611,0,0,0-.0156-2.9717,1.0167,1.0167,0,0,0-.1386-.37,1.7144,1.7144,0,0,0-1.37-.708A1.1344,1.1344,0,0,0,139.5215,69.742Z"/><path class="cls-2" d="M62.3677,85.6951a7.2223,7.2223,0,0,1-3.3408,5.9273,5.3172,5.3172,0,0,1-2.1245.893c-.1236,0-.1695-.0151-.1695-.0459,0-.0615.0616-.1079.2-.1694a5.9275,5.9275,0,0,0,2.1709-1.8476,7.8477,7.8477,0,0,0,1.6162-4.542c0-1.37-.4926-3.11-1.709-3.11a.9393.9393,0,0,0-.6.2461,1.7546,1.7546,0,0,0-.5391,1.3706c0,1.6475.9853,2.3247,1.74,2.3247a1.674,1.674,0,0,0,.7544-.2c.0772-.0459.1538-.0615.1538.0156a.62.62,0,0,1-.2153.3384,2.6655,2.6655,0,0,1-1.74.8008,2.09,2.09,0,0,1-2.0479-2.2481,2.9285,2.9285,0,0,1,1.5859-2.5864,2.9637,2.9637,0,0,1,1.5088-.4C61.5518,82.4617,62.3677,84.2943,62.3677,85.6951Z"/><path class="cls-2" d="M66.9116,88.4974a2.727,2.727,0,0,0,.647,1.8935,2.037,2.037,0,0,0,1.3394.5386,1.9415,1.9415,0,0,0,1.4936-.5234c.0767-.0616.1382-.0616.1382,0a.5475.5475,0,0,1-.123.2773,2.5753,2.5753,0,0,1-2.1709,1.1392,2.8327,2.8327,0,0,1-1.7706-5.0191,3.8363,3.8363,0,0,1,2.2632-.8774,2.3582,2.3582,0,0,1,1.5088.4155.4173.4173,0,0,1,.1851.2925.5691.5691,0,0,1-.4927.6006.6117.6117,0,0,1-.2617-.1387,6.8752,6.8752,0,0,0-.97-.7236,1.19,1.19,0,0,0-.57-.1231C67.7124,86.2493,66.9116,86.7576,66.9116,88.4974Z"/><path class="cls-2" d="M77.29,88.8358a3.0819,3.0819,0,0,1-1.2007,2.4174,3.2587,3.2587,0,0,1-1.8477.6,2.9772,2.9772,0,0,1-3.0947-2.94A2.831,2.831,0,0,1,72.24,86.6341a3.137,3.137,0,0,1,1.9707-.708A2.9213,2.9213,0,0,1,77.29,88.8358Zm-4.5108-.3384a4.6191,4.6191,0,0,0,.4771,2.2632,1.49,1.49,0,0,0,1.17.8466.9129.9129,0,0,0,.708-.354,3.6407,3.6407,0,0,0,.5083-2.0942c0-1.7549-.4927-2.9712-1.5708-2.9712C73.41,86.1878,72.7788,87.1575,72.7788,88.4974Z"/><path class="cls-2" d="M83.3731,86.45a2.7326,2.7326,0,0,1,.539,1.94c.0157.893.0308,1.0468.0308,1.9091.0156.9546.0923,1.0777.5083,1.1856.0766.0308.1689.0615.1689.1382,0,.062-.0766.0927-.2153.0927-.354,0-.8623-.0463-1.17-.0463a12.11,12.11,0,0,0-1.2779.0615c-.1542,0-.2622-.0459-.2622-.1079s.0928-.1074.231-.1382c.416-.1235.4927-.231.4927-.5855V88.6356c0-1.1856-.0923-1.5088-.4615-1.8013a1.2282,1.2282,0,0,0-.7236-.2153,1.3838,1.3838,0,0,0-.8315.2924.4616.4616,0,0,0-.1538.3233c0,.2925.0151,1.0161.0151,1.8012.0156.9546.0464,1.7247.0615,1.9092a.52.52,0,0,0,.4312.5235c.1845.0464.2466.0771.2466.1538,0,.0927-.1695.1079-.2774.1079-.1538,0-1.0317-.0615-1.3857-.0615-.2,0-.6006.0307-1.062.0307-.1695,0-.293-.0464-.293-.123,0-.0615.1387-.1231.2773-.1538.4312-.0772.462-.2.4771-.5547.0312-.8926.0464-2.2324.0464-3.6489,0-.1539-.0464-.2769-.354-.4927-.1387-.0923-.1231-.1231-.1231-.1538,0-.0459.0767-.0923.2154-.1231a7.8651,7.8651,0,0,0,1.6318-.6313c.0464-.0152.1235.0464.1235.123a5.9753,5.9753,0,0,0-.0307.77c0,.0308.0459.0464.0766.0152a4.42,4.42,0,0,1,.9087-.6,2.23,2.23,0,0,1,.9082-.2A1.5939,1.5939,0,0,1,83.3731,86.45Z"/><path class="cls-2" d="M85.9307,91.1146a1.92,1.92,0,0,1-.1846-.9546V87.0037a.2653.2653,0,0,0-.1079-.2617,1.0507,1.0507,0,0,0-.2461-.0923c-.1235-.0307-.2-.0771-.2-.1538,0-.0464.0767-.1235.2461-.2158a5.08,5.08,0,0,0,1.4473-1.0933c.2309-.2309.3388-.1694.3388-.0923,0,.108-.0307.7544-.0156.8775,0,.0464.0156.1543.0772.1543.2924-.0156,1.3242-.0464,1.57-.0308a.3.3,0,0,1,.123.2769c0,.3388-.1074.354-.1689.354h-1.355c-.1851,0-.2158.062-.2158.1387,0,.3388-.0152,2.8022,0,3.2026a1.1018,1.1018,0,0,0,.1694.708.9518.9518,0,0,0,.7393.3389,1.2374,1.2374,0,0,0,.708-.1851c.1538-.0923.2-.0459.2,0,0,.0928-.0772.2158-.3233.416a2.12,2.12,0,0,1-1.3857.4619A1.5107,1.5107,0,0,1,85.9307,91.1146Z"/><path class="cls-2" d="M93.46,86.5574a2.7644,2.7644,0,0,1,.3847,1.54c0,.7388-.0307,2.0322-.0307,2.4326a.498.498,0,0,0,.5083.4927.84.84,0,0,0,.4311-.1236c.0616-.0459.1231.0621.0767.1543a1.5757,1.5757,0,0,1-1.416.8,1.1113,1.1113,0,0,1-1.0318-.7236c0-.0151-.0463-.0308-.0771-.0151a1.9634,1.9634,0,0,1-1.4932.708,1.3257,1.3257,0,0,1-1.247-1.3853,1.1055,1.1055,0,0,1,.5693-.9546c.4-.2,1.6782-.5239,2.0942-.6928a.309.309,0,0,0,.2-.231,6.1,6.1,0,0,0,.0152-.7393,1.3692,1.3692,0,0,0-.3389-1.1084.944.944,0,0,0-.6-.2617,1.16,1.16,0,0,0-.5391.1387.3772.3772,0,0,0-.1538.2617c0,.0767.0152.3076.0152.4463a.2767.2767,0,0,1-.0923.1231,5.3567,5.3567,0,0,1-.939.4926.1848.1848,0,0,1-.185-.1689,1.2616,1.2616,0,0,1,.4-.647,4.2637,4.2637,0,0,1,1.1705-.8467,2.6242,2.6242,0,0,1,1.0312-.3232A1.4837,1.4837,0,0,1,93.46,86.5574ZM92.2129,90.93a.6361.6361,0,0,0,.1387-.3076,14.7852,14.7852,0,0,0,.0771-1.54c0-.0156-.0312-.1079-.0927-.0922a5.2568,5.2568,0,0,0-.9854.3847.8388.8388,0,0,0-.4463.8.8763.8763,0,0,0,.8316.9395A.6134.6134,0,0,0,92.2129,90.93Z"/><path class="cls-2" d="M95.4321,86.619c0-.0464.0923-.108.2-.1231a4.8409,4.8409,0,0,0,1.4013-.5547.5318.5318,0,0,1,.2769-.1074c.062,0,.0771.0767.0771.1538,0,.1694,0,.5542-.0151.708,0,.0772.0151.1387.0766.0772a2.9483,2.9483,0,0,1,1.8785-.8316,1.5869,1.5869,0,0,1,1.478.97.0745.0745,0,0,0,.1079.0152,2.9468,2.9468,0,0,1,2.0322-.97,1.6113,1.6113,0,0,1,1.54,1.1392,4.9712,4.9712,0,0,1,.1846,1.4321c.0156.5078.0463,1.7242.0615,2.2476s.1694.6157.4468.6621c.1538.0464.246.1079.246.1387,0,.0766-.0922.1386-.2924.1386-.1695,0-.8-.0463-1.1548-.0463-.3692,0-.9234.0615-1.1543.0615-.2,0-.2774-.0308-.2774-.1079s.1231-.1231.231-.1538c.3232-.0772.4155-.2461.4155-.6929a21.0653,21.0653,0,0,0-.1074-3.0327c-.1387-.7857-.5391-1.0474-1.14-1.0474a1.4726,1.4726,0,0,0-.939.4.541.541,0,0,0-.0615.3081c.0923.6006.0923,3.0176.1079,3.4331.0459.4312.0923.5235.4306.6162.1543.0616.231.1075.231.169s-.1074.0927-.231.0927c-.5234,0-.7544-.0463-1.4472-.0463-.354,0-.7852.0463-.9541.0463-.2158,0-.2622-.0307-.2622-.0927,0-.0459.062-.1074.2158-.1538.3232-.0772.4619-.2.4619-.57l.0459-2.4633c0-.816-.0459-1.1392-.354-1.4781a1.1012,1.1012,0,0,0-.7852-.3076,1.2424,1.2424,0,0,0-.8774.3384.9944.9944,0,0,0-.1231.2622c-.0156.2-.0307.5234-.0307,1.1851a22.2646,22.2646,0,0,0,.0766,2.6328c.0308.2158.108.3081.4.3852.1695.0616.231.1075.231.1538,0,.0772-.1079.1079-.231.1079-.2773,0-.8623-.0463-1.2319-.0463-.6465,0-.9233.0463-1.293.0463-.1386,0-.2465-.0463-.2465-.1079,0-.0771.0927-.1079.2773-.1538.3848-.0927.477-.2309.4927-.5083.0307-.2461.0464-2.0937.0464-2.6479,0-.3853.0151-.7852-.0157-1.0318,0-.1538-.0771-.2924-.3081-.4619-.0923-.0771-.123-.1079-.123-.1845Z"/><path class="cls-2" d="M106.3809,86.4031a6.9606,6.9606,0,0,0,1.5093-.4619,1.353,1.353,0,0,1,.2309-.0923c.0459,0,.0767.0464.0615.2159-.0307.3232-.0307,1.1084-.0307,1.7548,0,1.7247,0,2.9561.0307,3.1871a.4656.4656,0,0,0,.4156.4775c.1694.0459.2153.0923.2153.1538,0,.0771-.1074.1079-.231.1079-.2617,0-.6157-.0771-1.2622-.0771-.6772,0-1.0317.0307-1.2011.0307-.1382,0-.2618-.0464-.2618-.1079,0-.0766.0928-.1074.2774-.1382.4-.0927.5083-.2929.5083-.8315,0-.4619.0459-3.1406.0459-3.2949,0-.2925,0-.354-.4-.6314-.0767-.0615-.1231-.1074-.1231-.1689C106.1655,86.4959,106.2119,86.45,106.3809,86.4031Zm1.8325-2.4477a.7371.7371,0,0,1-.7544.77.6965.6965,0,0,1-.647-.708.7365.7365,0,0,1,.7237-.7851A.7244.7244,0,0,1,108.2134,83.9554Z"/><path class="cls-2" d="M114.68,86.45a2.7326,2.7326,0,0,1,.5391,1.94c.0151.893.0307,1.0468.0307,1.9091.0156.9546.0923,1.0777.5083,1.1856.0767.0308.169.0615.169.1382,0,.062-.0767.0927-.2154.0927-.354,0-.8623-.0463-1.17-.0463a12.1328,12.1328,0,0,0-1.2783.0615c-.1538,0-.2617-.0459-.2617-.1079s.0927-.1074.2309-.1382c.416-.1235.4927-.231.4927-.5855V88.6356c0-1.1856-.0923-1.5088-.4619-1.8013a1.226,1.226,0,0,0-.7232-.2153,1.384,1.384,0,0,0-.8315.2924.462.462,0,0,0-.1538.3233c0,.2925.0151,1.0161.0151,1.8012.0157.9546.0464,1.7247.0616,1.9092a.52.52,0,0,0,.4311.5235c.1846.0464.2466.0771.2466.1538,0,.0927-.1694.1079-.2774.1079-.1538,0-1.0317-.0615-1.3857-.0615-.2,0-.6006.0307-1.062.0307-.1694,0-.293-.0464-.293-.123,0-.0615.1387-.1231.2774-.1538.4311-.0772.4619-.2.477-.5547.0313-.8926.0464-2.2324.0464-3.6489,0-.1539-.0464-.2769-.354-.4927-.1387-.0923-.123-.1231-.123-.1538,0-.0459.0766-.0923.2153-.1231a7.8651,7.8651,0,0,0,1.6318-.6313c.0464-.0152.1236.0464.1236.123a5.9744,5.9744,0,0,0-.0308.77c0,.0308.0459.0464.0767.0152a4.42,4.42,0,0,1,.9086-.6,2.23,2.23,0,0,1,.9082-.2A1.5937,1.5937,0,0,1,114.68,86.45Z"/><path class="cls-2" d="M120.4248,86.5574a2.7645,2.7645,0,0,1,.3848,1.54c0,.7388-.0308,2.0322-.0308,2.4326a.4981.4981,0,0,0,.5083.4927.84.84,0,0,0,.4312-.1236c.0615-.0459.123.0621.0766.1543a1.5756,1.5756,0,0,1-1.416.8,1.111,1.111,0,0,1-1.0317-.7236c0-.0151-.0464-.0308-.0772-.0151a1.9632,1.9632,0,0,1-1.4931.708,1.3257,1.3257,0,0,1-1.2471-1.3853,1.1055,1.1055,0,0,1,.5693-.9546c.4-.2,1.6783-.5239,2.0943-.6928a.3094.3094,0,0,0,.2-.231,6.119,6.119,0,0,0,.0151-.7393,1.3688,1.3688,0,0,0-.3389-1.1084.9438.9438,0,0,0-.6-.2617,1.16,1.16,0,0,0-.539.1387.3765.3765,0,0,0-.1538.2617c0,.0767.0151.3076.0151.4463a.2767.2767,0,0,1-.0923.1231,5.3557,5.3557,0,0,1-.9389.4926.1849.1849,0,0,1-.1851-.1689,1.2613,1.2613,0,0,1,.4-.647,4.263,4.263,0,0,1,1.17-.8467,2.6251,2.6251,0,0,1,1.0313-.3232A1.4835,1.4835,0,0,1,120.4248,86.5574Zm-1.247,4.3721a.637.637,0,0,0,.1386-.3076,14.749,14.749,0,0,0,.0772-1.54c0-.0156-.0313-.1079-.0928-.0922a5.2594,5.2594,0,0,0-.9854.3847.8389.8389,0,0,0-.4462.8.8763.8763,0,0,0,.8315.9395A.6138.6138,0,0,0,119.1778,90.93Z"/><path class="cls-2" d="M127.4619,86.45a2.7321,2.7321,0,0,1,.5391,1.94c.0156.893.0308,1.0468.0308,1.9091.0156.9546.0922,1.0777.5083,1.1856.0766.0308.1689.0615.1689.1382,0,.062-.0767.0927-.2153.0927-.354,0-.8623-.0463-1.17-.0463a12.1068,12.1068,0,0,0-1.2778.0615c-.1543,0-.2622-.0459-.2622-.1079s.0928-.1074.231-.1382c.416-.1235.4926-.231.4926-.5855V88.6356c0-1.1856-.0922-1.5088-.4614-1.8013a1.2282,1.2282,0,0,0-.7236-.2153,1.3843,1.3843,0,0,0-.8316.2924.462.462,0,0,0-.1538.3233c0,.2925.0152,1.0161.0152,1.8012.0156.9546.0464,1.7247.0615,1.9092a.52.52,0,0,0,.4311.5235c.1846.0464.2466.0771.2466.1538,0,.0927-.1694.1079-.2773.1079-.1538,0-1.0318-.0615-1.3858-.0615-.2,0-.6005.0307-1.062.0307-.1694,0-.2929-.0464-.2929-.123,0-.0615.1386-.1231.2773-.1538.4312-.0772.4619-.2.4771-.5547.0312-.8926.0463-2.2324.0463-3.6489,0-.1539-.0463-.2769-.354-.4927-.1386-.0923-.123-.1231-.123-.1538,0-.0459.0767-.0923.2153-.1231a7.864,7.864,0,0,0,1.6319-.6313c.0463-.0152.1235.0464.1235.123a5.9924,5.9924,0,0,0-.0308.77c0,.0308.0459.0464.0767.0152a4.42,4.42,0,0,1,.9087-.6,2.23,2.23,0,0,1,.9082-.2A1.5935,1.5935,0,0,1,127.4619,86.45Z"/><path class="cls-2" d="M130.02,91.1146a1.9208,1.9208,0,0,1-.1845-.9546V87.0037a.2653.2653,0,0,0-.1079-.2617,1.0507,1.0507,0,0,0-.2461-.0923c-.1236-.0307-.2-.0771-.2-.1538,0-.0464.0766-.1235.2461-.2158a5.08,5.08,0,0,0,1.4472-1.0933c.231-.2309.3389-.1694.3389-.0923,0,.108-.0308.7544-.0156.8775,0,.0464.0156.1543.0771.1543.2925-.0156,1.3242-.0464,1.57-.0308a.2994.2994,0,0,1,.1231.2769c0,.3388-.1074.354-.169.354H131.544c-.1851,0-.2159.062-.2159.1387,0,.3388-.0151,2.8022,0,3.2026a1.1017,1.1017,0,0,0,.1695.708.9515.9515,0,0,0,.7392.3389,1.237,1.237,0,0,0,.708-.1851c.1539-.0923.2-.0459.2,0,0,.0928-.0771.2158-.3232.416a2.12,2.12,0,0,1-1.3857.4619A1.5109,1.5109,0,0,1,130.02,91.1146Z"/><path class="cls-2" d="M134.9937,87.0037c0,.6006.5234.8931,1.1543,1.2935.97.6465,1.34,1.0469,1.34,1.832a1.7175,1.7175,0,0,1-.7085,1.2935,3.013,3.013,0,0,1-1.5088.4306,4.2673,4.2673,0,0,1-1.3393-.2617c-.1079-.0459-.2617-.1846-.2617-.2925-.0157-.2153-.0616-.6928-.0772-.8466-.0151-.2.0156-.3082.0772-.3082.0463,0,.1079.0464.2.3238a1.9382,1.9382,0,0,0,.6465.9233,1.1416,1.1416,0,0,0,.77.2.9217.9217,0,0,0,.9238-.8618c0-.4468-.3238-.77-1.1089-1.2627a2.2856,2.2856,0,0,1-1.2471-1.8013,1.5842,1.5842,0,0,1,.7544-1.37,2.3121,2.3121,0,0,1,1.3086-.37,3.5528,3.5528,0,0,1,1.2012.2.2032.2032,0,0,1,.0923.1538c0,.1538.0615.4311.0771.8315.0152.1695-.0307.2461-.0923.2461s-.0927-.0766-.1386-.2a1.4133,1.4133,0,0,0-.3848-.708,1.2849,1.2849,0,0,0-.8008-.2773A.8868.8868,0,0,0,134.9937,87.0037Z"/><path class="cls-2" d="M56.7481,103.2191a7.6361,7.6361,0,0,0,1.1084-.4.6225.6225,0,0,1,.2309-.1075c.0464,0,.0772.0459.0615.2159-.0307.3076-.0307,1.247-.0307,2.2324,0,1.293,0,2.4326.0307,2.6943.0308.3076.1851.3848.4312.4463.1543.03.231.0615.231.1231,0,.0771-.1231.1074-.2461.1074-.1387,0-.7085-.0615-1.1241-.0615-.5083,0-.7544.0312-.9238.0312-.1079,0-.2153-.0312-.2153-.0928s.0766-.1074.2925-.1386c.3383-.0918.477-.2149.4926-.8467.0152-.4619.0459-3.2637.0459-3.418,0-.2148-.0151-.3076-.4463-.5391-.0771-.0458-.123-.0917-.123-.123C56.5635,103.2962,56.6094,103.25,56.7481,103.2191Zm1.5395-2.51a.5861.5861,0,0,1-.57.585.5481.5481,0,0,1-.5078-.5694.5707.5707,0,0,1,.539-.6006A.5629.5629,0,0,1,58.2876,100.7093Z"/><path class="cls-2" d="M64.4468,103.2962a3.2084,3.2084,0,0,1,.4927,2.0166c0,.8164.0156.94.0156,1.709.0151,1.0469.0615,1.14.477,1.2471.1387.0615.231.0927.231.1543,0,.0927-.123.1074-.2769.1074-.2,0-.6469-.0615-.9853-.0615-.5234,0-.7236.0615-.9546.0615-.1387,0-.2466-.03-.2466-.0918s.0923-.1231.2925-.17c.37-.0918.4312-.2.4312-.6465v-2.0938c0-1.247-.1075-1.6162-.4927-1.9092a1.37,1.37,0,0,0-.8775-.2919,1.8387,1.8387,0,0,0-1.2006.4921.7973.7973,0,0,0-.1851.462c0,.1845.0156.97.0156,1.8935a12.6092,12.6092,0,0,0,.0923,1.6172c.0459.3379.231.415.4771.4922.185.0459.2617.0771.2617.1543,0,.0918-.1538.0918-.3076.0918-.1231,0-.8775-.0615-1.232-.0615-.2,0-.5234.0312-.8159.0312-.1694,0-.2925-.0312-.2925-.1084,0-.0615.1387-.123.3233-.1533.3847-.0772.4467-.1846.4619-.4932.0307-1.1084.0307-2.5244.0307-3.7715,0-.1543-.0307-.3232-.4-.5234-.0923-.0615-.1231-.0928-.1231-.1387,0-.0312.0772-.0771.2158-.123a5.8422,5.8422,0,0,0,1.2163-.5235c.0459-.0156.1231.0459.1075.1231a7.065,7.065,0,0,0-.0308.8154c0,.0313.0464.0772.0771.0469a5.2787,5.2787,0,0,1,1.0933-.6934,2.09,2.09,0,0,1,.9082-.1845A1.57,1.57,0,0,1,64.4468,103.2962Z"/><path class="cls-2" d="M74.6109,105.6829a2.9485,2.9485,0,0,1-2.9253,2.9707,2.9359,2.9359,0,0,1-1.8785-5.2343,3.16,3.16,0,0,1,1.8477-.6465A2.89,2.89,0,0,1,74.6109,105.6829Zm-4.8038-.2158a3.5254,3.5254,0,0,0,.6465,2.1094,1.8306,1.8306,0,0,0,1.4473.8154,1.5211,1.5211,0,0,0,.97-.3848,3.0653,3.0653,0,0,0,.6465-2.0625c0-1.4628-.7393-2.91-2.0938-2.91C70.6382,103.0345,69.8071,103.8655,69.8071,105.4671Z"/><path class="cls-2" d="M76.3672,108.054a1.6167,1.6167,0,0,1-.2925-.9394c0-.5078,0-3.11-.0307-3.3721a.5985.5985,0,0,0-.3389-.5078c-.1387-.0928-.1846-.1387-.1846-.1846s.0767-.0771.2461-.0771a5.4272,5.4272,0,0,0,1.2935-.2c.0464-.0157.0923.0771.0771.1689-.0464.8779-.062,2.9717-.0464,3.68a1.7034,1.7034,0,0,0,.231,1.0166,1.1328,1.1328,0,0,0,.8623.3848,1.7271,1.7271,0,0,0,1.3086-.4922.9443.9443,0,0,0,.2768-.709c.0313-.415.0313-1.0156.0313-1.57,0-.2305-.0156-.9541-.0156-1.3545-.0157-.5234-.1695-.6006-.6773-.708-.1694-.0313-.2466-.0772-.2466-.1231,0-.0625.1387-.0927.231-.0927h.6465a8.1127,8.1127,0,0,0,1.0625-.0928c.0464,0,.0771.0615.0615.17-.0766.7236-.1079,2.2627-.1079,4.0488a5.0635,5.0635,0,0,0,.0313.7852c.0307.1543.0766.1846.2.17a4.2619,4.2619,0,0,1,.6313-.1387.1849.1849,0,0,1,.1851.169c0,.0615-.1387.0928-.293.123a6.9293,6.9293,0,0,0-1.5855.4161c-.123.0615-.1543.0459-.185,0s-.0308-.1231-.0308-.293c0-.1533.0157-.4922.0157-.6,0-.0469-.0157-.1543-.0464-.1084a4.4511,4.4511,0,0,1-1.062.7549,2.6413,2.6413,0,0,1-.9087.23A1.5139,1.5139,0,0,1,76.3672,108.054Z"/><path class="cls-2" d="M84.1133,103.8968a.8829.8829,0,0,0-.2617.5391,8.8746,8.8746,0,0,0-.0152.9384c0,1.14.0308,1.9405.0616,2.2637.0615.4775.2461.585.8315.6465.2153.0312.2925.0615.2925.1387s-.1387.1074-.37.1074c-.2925,0-.8008-.0615-1.4473-.0615a8.2829,8.2829,0,0,0-.939.0927c-.185,0-.2622-.0312-.2622-.0927,0-.0459.1079-.1231.231-.1534a.6372.6372,0,0,0,.5547-.6318c.0307-.2617.0459-1.1387.0459-2.1553V103.82c0-.1074-.1079-.1543-.4-.4-.1074-.0772-.1231-.1231-.1231-.1543s.0923-.0918.231-.1377a4.6641,4.6641,0,0,0,.9853-.37.4876.4876,0,0,1,.231-.0771c.0308,0,.0615.0615.0615.2158,0,.17-.0151.7549-.0151,1.001,0,.0459.0307.0615.0766.0156a2.5128,2.5128,0,0,1,1.6631-1.1084.8955.8955,0,0,1,.5386.1992.27.27,0,0,1,.1079.2159,1.0479,1.0479,0,0,1-.3389.5234c-.1381.123-.2.1387-.246.1387a.7008.7008,0,0,1-.2774-.1075,1.0719,1.0719,0,0,0-.5386-.1845A1.0529,1.0529,0,0,0,84.1133,103.8968Z"/><path class="cls-2" d="M88.9644,98.7542c.354.0151,1.2934.0615,1.7861.0615.0615,0,.1382.0616.2.2154.6616,1.4629,2.8325,5.7739,3.8027,7.59.0459.0928.0767.0312.1387-.0615.9082-1.7393,2.8633-5.542,3.2329-6.2969a12.902,12.902,0,0,0,.4619-1.2471c.0157-.0307.0772-.2.1538-.2.4312,0,1.2471-.0923,1.6783-.0923.1543,0,.2465.0308.2465.0923s-.123.1231-.2309.1387c-.9082.2153-.97.3848-1.0161,1.293-.0308.5234-.0464,2.3711-.0464,3.1416,0,1.6777.0615,3.2021.0923,3.6943.062.8936.2309,1.0322.8315,1.2168.1387.0459.2466.0918.2466.169,0,.0615-.0928.0927-.2773.0927-.2925,0-1.1241-.0927-1.54-.0927-.6313,0-1.0469.0312-1.2778.0312-.1543,0-.3233-.0156-.3233-.123,0-.0616.1538-.1231.3076-.1387.647-.17.7544-.416.8008-1.6934.0459-.832.0459-4.958.0459-5.65,0-.1543-.0459-.1543-.0766-.0615-1.0318,2.0625-2.9253,5.7578-3.6646,7.4053-.0766.1846-.1382.2773-.2309.2773-.0767,0-.1846-.247-.3233-.539-.7236-1.5557-2.771-5.835-3.3564-7.02-.0767-.1387-.1075-.1387-.1382.0761-.0615.8936-.231,4.8809-.231,5.5127a3.8626,3.8626,0,0,0,.0923,1.1231.9022.9022,0,0,0,.7852.6162c.1694.0312.2617.0928.2617.1543,0,.0918-.1387.123-.3081.1074-.1846-.0156-.7388-.0771-1.293-.0771s-.97.0927-1.124.0927c-.2,0-.2774-.0312-.2774-.1084,0-.0459.0621-.1074.2774-.1533a1.1565,1.1565,0,0,0,.8315-.4932,4.3975,4.3975,0,0,0,.3233-1.6621c.0923-.9091.3076-4.3261.3076-5.3115,0-.9243-.0923-1.14-.354-1.4477a1.31,1.31,0,0,0-.8467-.4c-.1387-.0308-.2461-.0923-.2461-.1543S88.8257,98.7386,88.9644,98.7542Z"/><path class="cls-2" d="M110.26,99.2928a.2739.2739,0,0,1,.1543.2617,11.7965,11.7965,0,0,0,.0459,1.186c0,.1543-.0616.2461-.0923.2461-.0615,0-.1079-.0771-.1387-.2a2.4036,2.4036,0,0,0-.7388-1.2319,3.53,3.53,0,0,0-2.3559-.77,3.7142,3.7142,0,0,0-2.6787,1.2007,5.5607,5.5607,0,0,0-1.17,3.5722,5.8336,5.8336,0,0,0,1.4165,3.7256,3.674,3.674,0,0,0,2.6323,1.14,3.2689,3.2689,0,0,0,1.8325-.4307,2.757,2.757,0,0,0,1.1851-1.51c.062-.1992.0927-.2617.1543-.2617s.0922.1387.0922.2315a10.9093,10.9093,0,0,1-.2153,1.2158.413.413,0,0,1-.1543.2314,5.5838,5.5838,0,0,1-3.0019.8467,5.3,5.3,0,0,1-4.003-1.6318,5.3836,5.3836,0,0,1-1.2934-3.4024,4.9117,4.9117,0,0,1,1.7241-3.896,5.5362,5.5362,0,0,1,3.5874-1.2778A7.1109,7.1109,0,0,1,110.26,99.2928Z"/><path class="cls-2" d="M111.9868,98.7386c.4776,0,.97.0771,1.3858.0771.477,0,.9082-.0615,1.2622-.0615.185,0,.2466.0308.2466.0767,0,.0771-.0923.1235-.2154.1543-.6313.123-.6621.2153-.7085,1.2778-.0151.2617-.0307,1.6787-.0307,3.0791,0,1.4629.0156,3.0029.0307,3.2949a2.852,2.852,0,0,0,.2159,1.2168c.1689.23.5849.3848,1.832.3848a6.761,6.761,0,0,0,1.355-.0772c.3383-.0615.6772-.4463.9853-1.0009.1074-.1846.1846-.2461.2461-.2461s.0464.23-.0307.4306c-.0464.1231-.3389.9707-.4,1.0782a.3668.3668,0,0,1-.3233.1543c-.1538,0-1.3242.0146-2.0786-.0313-.7695-.03-1.8784-.0771-2.417-.0771-.4775,0-1.17.0771-1.3857.0771-.1846,0-.3233-.0156-.3233-.1074,0-.0615.1387-.1084.2769-.1231.6621-.124.7544-.3388.8008-.8164.0615-.6162.0615-1.6318.0615-3.7568,0-2.0938-.0151-3.1563-.0459-3.68-.0464-.8774-.0928-.97-.7544-1.0933-.1851-.0307-.231-.0766-.231-.1386C111.7407,98.785,111.833,98.7386,111.9868,98.7386Z"/><path class="cls-2" d="M123.167,102.9271c.1382,0,.2617.03.2617.1074,0,.0459-.1543.1074-.2617.123-.37.0616-.3545.2-.293.4463.231.709.8931,2.4639,1.2476,3.3262.0151.0459.0767.0615.0923.0146.2461-.5234.9238-2.0166,1.0776-2.417.0152-.0771.0615-.1845.0308-.2617-.0772-.2-.1846-.4463-.2617-.6308a.8185.8185,0,0,0-.585-.5078c-.1387-.0313-.2158-.0616-.2158-.1241s.0771-.0918.2309-.0918c.3233,0,.7237.0459,1.0469.0459.4468,0,.6314-.03.9087-.03.1694,0,.231.03.231.0761,0,.0625-.1079.1241-.231.1543-.354.0772-.4468.1387-.2617.6162.1694.4766.9853,2.709,1.2007,3.1866.0464.0771.0771.0156.0771,0,.1846-.4.9238-2.1553,1.1084-2.6787a3.5131,3.5131,0,0,0,.2466-.7393c0-.1387-.062-.2773-.4619-.3848-.2-.0615-.2466-.1074-.2466-.1543,0-.0615.0923-.0918.2-.0918.2617,0,.5391.0459.7852.0459.1538,0,.539-.0459.77-.0459.1382,0,.2153.03.2153.0918s-.0459.0928-.2768.1543c-.2774.0772-.462.293-.6622.708-.2773.5547-.7392,1.6172-1.2163,2.71-.2617.6309-.539,1.3086-.7236,1.8018-.0923.2461-.1543.292-.2.292-.0615,0-.1079-.0616-.1694-.2774-.0772-.2148-.1846-.5234-.37-1.0469-.2924-.831-.6157-1.709-.9238-2.5244-.0151-.0459-.0459-.0771-.0766,0-.1387.292-.7852,1.709-1.001,2.2481-.231.5078-.37.8613-.5386,1.3086-.0771.2148-.1543.292-.2158.292s-.1079-.1075-.1538-.2774c-.0772-.2148-.1695-.585-.4312-1.3232-.2773-.7549-1.1548-3.0332-1.3242-3.3262a.88.88,0,0,0-.6772-.6006c-.1231-.03-.2159-.0762-.2159-.123,0-.0918.1079-.1231.2774-.1231.2,0,.6621.0615,1.0932.0615C122.5508,102.9573,122.8589,102.9271,123.167,102.9271Z"/><path class="cls-2" d="M133.8994,103.5579a3.7191,3.7191,0,0,1,.2159,1.4014c0,.5693-.0464,2.0322-.0464,2.4326a.5278.5278,0,0,0,.57.585.9869.9869,0,0,0,.4463-.1387c.0923-.0459.1538,0,.0923.1387a1.298,1.298,0,0,1-1.1856.6621,1.0337,1.0337,0,0,1-.9082-.6934.0547.0547,0,0,0-.0771-.0156,2.1526,2.1526,0,0,1-1.5088.6934,1.2773,1.2773,0,0,1-1.2315-1.3243,1.0867,1.0867,0,0,1,.5542-.8779c.37-.2,1.77-.6152,2.0938-.7383a.293.293,0,0,0,.2-.2314,5.2284,5.2284,0,0,0,.0307-.708c0-.6309-.1079-1.0625-.37-1.2627a1.1778,1.1778,0,0,0-.6465-.2461,1.06,1.06,0,0,0-.6157.1846.6156.6156,0,0,0-.231.37,1.563,1.563,0,0,0-.0156.292.1891.1891,0,0,1-.0615.123,3.2937,3.2937,0,0,1-.7236.3389c-.0767.0156-.1538-.0772-.1538-.1387,0-.1074.1079-.2461.2924-.4619a3.9879,3.9879,0,0,1,1.17-.8926,2.0689,2.0689,0,0,1,.9238-.2773A1.2612,1.2612,0,0,1,133.8994,103.5579Zm-1.0312,4.2344a.636.636,0,0,0,.1689-.37,10.9868,10.9868,0,0,0,.0772-1.4629c0-.0147-.0308-.0918-.0615-.0762a8.5633,8.5633,0,0,0-1.4166.5235.7962.7962,0,0,0-.3847.77.8944.8944,0,0,0,.9238.8623A1.06,1.06,0,0,0,132.8682,107.7923Z"/><path class="cls-2" d="M136.2261,107.9a1.7316,1.7316,0,0,1-.1851-.8779v-3.1865c0-.17-.0151-.2774-.0766-.3086a2.5372,2.5372,0,0,0-.37-.0918c-.123-.0313-.2-.0772-.2-.1387,0-.0312.0157-.0771.1851-.1543a3.2793,3.2793,0,0,0,1.2622-1.0312c.1387-.1543.2466-.1231.2466-.0459,0,.1386-.0308.5693-.0156.7539,0,.0468.0156.1386.0771.1386.2769,0,1.5547-.0459,1.8784-.0459.0308,0,.0923.1075.0923.2159,0,.2617-.0771.3847-.1543.3847-.5385,0-1.2929-.0156-1.709-.0156-.1845,0-.2153.0459-.2153.1387,0,.2617.0156,2.6787.0308,3.1562a1.5762,1.5762,0,0,0,.1694.8311,1.1374,1.1374,0,0,0,.9546.416,1.501,1.501,0,0,0,.8467-.2315c.1079-.0761.1538-.0615.1538,0,0,.0928-.1382.2471-.3384.4a2.1129,2.1129,0,0,1-1.2471.4A1.4269,1.4269,0,0,1,136.2261,107.9Z"/><path class="cls-2" d="M144.2486,104.3431a.1805.1805,0,0,1-.1543.1689c-.1231-.0146-2.1246-.0459-2.4786-.0459h-.8315c-.0308,0-.1079.0772-.1387.1231a2.1292,2.1292,0,0,0-.123.8467,2.7616,2.7616,0,0,0,.708,1.8632,2.08,2.08,0,0,0,1.54.6309,1.9638,1.9638,0,0,0,1.4624-.4922c.1231-.123.1846-.0928.1846-.0156a.5824.5824,0,0,1-.1538.2461,2.721,2.721,0,0,1-2.14.9707,2.4875,2.4875,0,0,1-1.8321-.7852,3.0122,3.0122,0,0,1-.7387-2.0635,3.21,3.21,0,0,1,.8925-2.248,2.8651,2.8651,0,0,1,1.9248-.7695A1.7766,1.7766,0,0,1,144.2486,104.3431Zm-3.1412-.7852a1.3552,1.3552,0,0,0-.3232.6309.0658.0658,0,0,0,.0615.0615l2.0015-.0146c.3389,0,.37-.17.37-.3086a.9926.9926,0,0,0-.2153-.6465,1.0815,1.0815,0,0,0-.77-.292A1.5972,1.5972,0,0,0,141.1074,103.5579Z"/><path class="cls-2" d="M146.9746,103.8968a.8829.8829,0,0,0-.2617.5391,8.8781,8.8781,0,0,0-.0151.9384c0,1.14.0307,1.9405.0615,2.2637.0615.4775.2461.585.8315.6465.2154.0312.2925.0615.2925.1387s-.1387.1074-.37.1074c-.2925,0-.8008-.0615-1.4473-.0615a8.2773,8.2773,0,0,0-.9389.0927c-.1851,0-.2622-.0312-.2622-.0927,0-.0459.1079-.1231.2309-.1534a.6372.6372,0,0,0,.5547-.6318c.0308-.2617.0459-1.1387.0459-2.1553V103.82c0-.1074-.1079-.1543-.4-.4-.1074-.0772-.123-.1231-.123-.1543s.0922-.0918.2309-.1377a4.665,4.665,0,0,0,.9854-.37.4873.4873,0,0,1,.2309-.0771c.0308,0,.0615.0615.0615.2158,0,.17-.0151.7549-.0151,1.001,0,.0459.0308.0615.0767.0156a2.5123,2.5123,0,0,1,1.6631-1.1084.8954.8954,0,0,1,.5385.1992.27.27,0,0,1,.1079.2159,1.0482,1.0482,0,0,1-.3388.5234c-.1382.123-.2.1387-.2461.1387a.7013.7013,0,0,1-.2774-.1075,1.0719,1.0719,0,0,0-.5385-.1845A1.0529,1.0529,0,0,0,146.9746,103.8968Z"/><path class="cls-2" d="M57.2564,124.7005a1.7341,1.7341,0,0,1-.1851-.8779V120.636c0-.17-.0151-.2773-.0767-.3085a2.5318,2.5318,0,0,0-.37-.0918c-.123-.0313-.2-.0772-.2-.1387,0-.0313.0156-.0772.1851-.1543a3.2794,3.2794,0,0,0,1.2622-1.0313c.1387-.1543.2466-.123.2466-.0459,0,.1377-.0308.5694-.0157.7539,0,.0459.0157.1387.0772.1387.2768,0,1.5547-.0459,1.8784-.0459.0308,0,.0923.1074.0923.2149,0,.2617-.0772.3847-.1543.3847-.5386,0-1.293-.0146-1.709-.0146-.1846,0-.2153.0459-.2153.1387,0,.2617.0156,2.6787.0307,3.1562a1.5769,1.5769,0,0,0,.1695.8311,1.14,1.14,0,0,0,.9546.416,1.5,1.5,0,0,0,.8466-.2315c.108-.0771.1539-.0615.1539,0,0,.0928-.1382.2461-.3384.4a2.1136,2.1136,0,0,1-1.2471.4A1.4268,1.4268,0,0,1,57.2564,124.7005Z"/><path class="cls-2" d="M65.2793,121.1439a.18.18,0,0,1-.1543.1689c-.123-.0156-2.1245-.0459-2.4785-.0459H61.815c-.0308,0-.108.0772-.1387.1231a2.1233,2.1233,0,0,0-.1231.8466,2.7617,2.7617,0,0,0,.708,1.8633,2.0806,2.0806,0,0,0,1.54.6309,1.968,1.968,0,0,0,1.4624-.4922c.123-.1231.1846-.0928.1846-.0156a.5841.5841,0,0,1-.1538.2461,2.72,2.72,0,0,1-2.14.97,2.4837,2.4837,0,0,1-1.832-.7852,3.008,3.008,0,0,1-.7388-2.0625,3.2089,3.2089,0,0,1,.8926-2.248,2.865,2.865,0,0,1,1.9248-.77A1.7766,1.7766,0,0,1,65.2793,121.1439Zm-3.1411-.7852a1.35,1.35,0,0,0-.3232.6309.0657.0657,0,0,0,.0615.0615l2.0014-.0156c.3389,0,.37-.169.37-.3077a.9921.9921,0,0,0-.2154-.6464,1.0775,1.0775,0,0,0-.77-.293A1.5984,1.5984,0,0,0,62.1382,120.3587Z"/><path class="cls-2" d="M67.2818,120.7591c0,.6465.5849,1.0156.97,1.2471,1.001.6464,1.4009,1.0312,1.4009,1.8164a1.58,1.58,0,0,1-.8,1.2929,2.5556,2.5556,0,0,1-1.232.3389,3.1249,3.1249,0,0,1-1.2163-.2773c-.123-.0459-.2309-.1534-.2309-.2461,0-.2159-.0308-.6006-.0459-.77-.0308-.2.0151-.2461.0459-.2461.0464,0,.0927,0,.2.292a1.5057,1.5057,0,0,0,.6469.8321,1.183,1.183,0,0,0,.6929.1845,1.0557,1.0557,0,0,0,1-1.0322c0-.5849-.4-.9082-1.0161-1.293-.6621-.4306-1.2778-1.0009-1.2778-1.6777a1.4594,1.4594,0,0,1,.5849-1.2168,1.9938,1.9938,0,0,1,1.2935-.4307,3.7738,3.7738,0,0,1,1.0468.169.253.253,0,0,1,.0772.1387c.0151.1689.0767.4775.0923.7236,0,.1689-.0308.2461-.0772.2461-.0615,0-.0923-.0772-.1386-.1846a1.1675,1.1675,0,0,0-.37-.6308,1.2619,1.2619,0,0,0-.7231-.2315A.8972.8972,0,0,0,67.2818,120.7591Z"/><path class="cls-2" d="M71.2549,124.7005a1.7351,1.7351,0,0,1-.1851-.8779V120.636c0-.17-.0151-.2773-.0766-.3085a2.5352,2.5352,0,0,0-.37-.0918c-.1231-.0313-.2-.0772-.2-.1387,0-.0313.0156-.0772.185-.1543a3.2787,3.2787,0,0,0,1.2622-1.0313c.1387-.1543.2466-.123.2466-.0459,0,.1377-.0308.5694-.0156.7539,0,.0459.0156.1387.0771.1387.2769,0,1.5547-.0459,1.8784-.0459.0308,0,.0923.1074.0923.2149,0,.2617-.0771.3847-.1543.3847-.5385,0-1.2929-.0146-1.7089-.0146-.1846,0-.2154.0459-.2154.1387,0,.2617.0156,2.6787.0308,3.1562a1.5762,1.5762,0,0,0,.1694.8311,1.14,1.14,0,0,0,.9546.416,1.5007,1.5007,0,0,0,.8467-.2315c.1079-.0771.1538-.0615.1538,0,0,.0928-.1382.2461-.3384.4a2.1136,2.1136,0,0,1-1.2471.4A1.4269,1.4269,0,0,1,71.2549,124.7005Z"/><path class="cls-2" d="M75.9365,120.7591c0,.6465.585,1.0156.97,1.2471,1.0009.6464,1.4008,1.0312,1.4008,1.8164a1.58,1.58,0,0,1-.8,1.2929,2.5559,2.5559,0,0,1-1.232.3389,3.1249,3.1249,0,0,1-1.2163-.2773c-.123-.0459-.2309-.1534-.2309-.2461,0-.2159-.0308-.6006-.0459-.77-.0308-.2.0151-.2461.0459-.2461.0463,0,.0927,0,.2.292a1.5062,1.5062,0,0,0,.647.8321,1.1828,1.1828,0,0,0,.6929.1845,1.0557,1.0557,0,0,0,1.0005-1.0322c0-.5849-.4-.9082-1.0161-1.293-.6621-.4306-1.2779-1.0009-1.2779-1.6777a1.4594,1.4594,0,0,1,.585-1.2168,1.9936,1.9936,0,0,1,1.2935-.4307,3.7738,3.7738,0,0,1,1.0468.169.2522.2522,0,0,1,.0767.1387c.0156.1689.0771.4775.0928.7236,0,.1689-.0308.2461-.0772.2461-.0615,0-.0923-.0772-.1387-.1846a1.1688,1.1688,0,0,0-.3691-.6308,1.2651,1.2651,0,0,0-.7236-.2315A.8973.8973,0,0,0,75.9365,120.7591Z"/><path class="cls-2" d="M80.6792,125.1927a1.62,1.62,0,0,1-1.3393,1.5088c-.0923.0156-.1695,0-.1695-.0459s.0616-.0772.1387-.1074a1.1744,1.1744,0,0,0,.8159-1.0625.4536.4536,0,0,0-.4-.462c-.2617-.0615-.4926-.1386-.4926-.4775a.5429.5429,0,0,1,.5546-.5078C80.2637,124.0384,80.6792,124.4847,80.6792,125.1927Z"/><path class="cls-2" d="M84.5137,124.7005a1.7341,1.7341,0,0,1-.1851-.8779V120.636c0-.17-.0151-.2773-.0766-.3085a2.5372,2.5372,0,0,0-.37-.0918c-.123-.0313-.2-.0772-.2-.1387,0-.0313.0157-.0772.1851-.1543a3.2787,3.2787,0,0,0,1.2622-1.0313c.1387-.1543.2466-.123.2466-.0459,0,.1377-.0308.5694-.0156.7539,0,.0459.0156.1387.0771.1387.2769,0,1.5547-.0459,1.8784-.0459.0308,0,.0923.1074.0923.2149,0,.2617-.0771.3847-.1543.3847-.5386,0-1.2929-.0146-1.709-.0146-.1845,0-.2153.0459-.2153.1387,0,.2617.0156,2.6787.0308,3.1562a1.5762,1.5762,0,0,0,.1694.8311,1.14,1.14,0,0,0,.9546.416,1.501,1.501,0,0,0,.8467-.2315c.1079-.0771.1538-.0615.1538,0,0,.0928-.1382.2461-.3384.4a2.1136,2.1136,0,0,1-1.2471.4A1.4269,1.4269,0,0,1,84.5137,124.7005Z"/><path class="cls-2" d="M89.6568,120.6819a.7751.7751,0,0,0-.1539.5694,30.517,30.517,0,0,0,.0772,3.3105.5438.5438,0,0,0,.4927.5235c.2309.0459.3384.0771.3384.1533,0,.0469-.0923.0928-.231.0928-.4312,0-.8311-.0616-1.2778-.0616-.4771,0-.708.0616-1.0005.0616-.1695,0-.2466-.03-.2466-.0928s.0615-.0918.2466-.1377c.4463-.1084.5542-.1543.5693-.7393.0464-.6162.062-2.0322.062-4.48,0-2.3252.0308-3.2647,0-3.85-.0156-.4922-.1235-.5381-.4619-.7237-.062-.0459-.1079-.0761-.1079-.123s.0923-.0918.2617-.1387a6.3784,6.3784,0,0,0,1.124-.3691.338.338,0,0,1,.1538-.0616c.0464,0,.0923.1075.0772.3233-.0156.416-.0772,5.1885-.0615,5.4814,0,.0616.0459.0772.0615.0459a5.05,5.05,0,0,1,.9238-.6308,2.4119,2.4119,0,0,1,1.0777-.2618,1.64,1.64,0,0,1,1.3857.6924,2.9719,2.9719,0,0,1,.3384,1.6475c.0156,1.1553.0156,2.1094.0307,2.6943,0,.3076.0616.416.5235.4932.2.0459.2466.0762.2466.1377s-.1079.1084-.2466.1084c-.4,0-.6929-.0772-1.1084-.0772-.5235,0-.6465.0616-1,.0616-.1851,0-.2466-.0459-.2466-.0928,0-.0615.0772-.0918.231-.1231.4155-.0918.4463-.2.5083-.6464.0307-.3536.0615-1.0313.0615-2.6329a2.4667,2.4667,0,0,0-.231-1.1543,1.1522,1.1522,0,0,0-1.0625-.5693A1.86,1.86,0,0,0,89.6568,120.6819Z"/><path class="cls-2" d="M98.3267,120.3587a3.7234,3.7234,0,0,1,.2158,1.4c0,.57-.0464,2.0322-.0464,2.4326a.5281.5281,0,0,0,.57.5859.9859.9859,0,0,0,.4463-.1386c.0923-.0469.1538,0,.0923.1386a1.297,1.297,0,0,1-1.1855.6612,1.0331,1.0331,0,0,1-.9082-.6924.0533.0533,0,0,0-.0772-.0156,2.1533,2.1533,0,0,1-1.5088.6933A1.2772,1.2772,0,0,1,94.6934,124.1a1.0848,1.0848,0,0,1,.5542-.8779c.37-.2,1.77-.6152,2.0937-.7393a.29.29,0,0,0,.2-.23,5.2189,5.2189,0,0,0,.0308-.708c0-.6319-.1079-1.0625-.37-1.2627a1.1694,1.1694,0,0,0-.6465-.2461,1.06,1.06,0,0,0-.6158.1845.6135.6135,0,0,0-.2309.3692,1.5684,1.5684,0,0,0-.0156.2929.1917.1917,0,0,1-.0616.1231,3.34,3.34,0,0,1-.7236.3389c-.0767.0156-.1538-.0772-.1538-.1387,0-.1074.1079-.2461.2925-.4619a4.0121,4.0121,0,0,1,1.17-.8936,2.0665,2.0665,0,0,1,.9238-.2764A1.2614,1.2614,0,0,1,98.3267,120.3587Zm-1.0313,4.2334a.6359.6359,0,0,0,.169-.3691,11.0026,11.0026,0,0,0,.0771-1.4629c0-.0157-.0307-.0918-.0615-.0772a8.7446,8.7446,0,0,0-1.4165.5235.7977.7977,0,0,0-.3848.77.8944.8944,0,0,0,.9239.8623A1.0545,1.0545,0,0,0,97.2954,124.5921Z"/><path class="cls-2" d="M100.6528,124.7005a1.7352,1.7352,0,0,1-.185-.8779V120.636c0-.17-.0151-.2773-.0767-.3085a2.5318,2.5318,0,0,0-.37-.0918c-.123-.0313-.2-.0772-.2-.1387,0-.0313.0156-.0772.1851-.1543a3.28,3.28,0,0,0,1.2622-1.0313c.1386-.1543.2466-.123.2466-.0459,0,.1377-.0308.5694-.0157.7539,0,.0459.0157.1387.0772.1387.2768,0,1.5547-.0459,1.8784-.0459.0308,0,.0923.1074.0923.2149,0,.2617-.0772.3847-.1543.3847-.5386,0-1.293-.0146-1.709-.0146-.1846,0-.2153.0459-.2153.1387,0,.2617.0156,2.6787.0307,3.1562a1.5769,1.5769,0,0,0,.1695.8311,1.14,1.14,0,0,0,.9546.416,1.5,1.5,0,0,0,.8466-.2315c.1079-.0771.1538-.0615.1538,0,0,.0928-.1381.2461-.3383.4a2.1138,2.1138,0,0,1-1.2471.4A1.4271,1.4271,0,0,1,100.6528,124.7005Z"/><path class="cls-2" d="M111.5547,120.3431a2.6777,2.6777,0,0,1,.6314,1.7861,3.1528,3.1528,0,0,1-2.063,3.0635,2.6765,2.6765,0,0,1-1.1084.2314,3.4663,3.4663,0,0,1-.8931-.123c-.0615-.0156-.123.0762-.1387.1377a21.2893,21.2893,0,0,0-.0151,2.2793,4.9282,4.9282,0,0,0,.1074,1.2314c.0928.293.3545.3692.77.4307.1387.0469.2154.0771.2154.1387s-.1075.1084-.3077.1084c-.2309,0-.77-.0616-1.3242-.0616-.5083,0-1.0009.1075-1.1855.1075s-.2769-.0459-.2769-.0928c0-.0615.0615-.1074.2925-.1533.5386-.1543.6309-.3389.6616-.708.0157-.2627.0464-.9239.0464-2.1094,0-1.57-.0307-4.9121-.0464-5.3125-.0307-.6309-.0307-.7237-.3847-.9229-.0923-.0468-.1538-.0927-.1538-.1386,0-.0616.0771-.1084.2-.1387a7.722,7.722,0,0,0,1.1392-.5391.419.419,0,0,1,.231-.1074c.0307,0,.0615.0459.0615.1377,0,.0771-.0308.5244-.0308.6621,0,.0313.0308.0928.0772.0469a3.0179,3.0179,0,0,1,1.8784-.709A2.2679,2.2679,0,0,1,111.5547,120.3431Zm-1.2314,4.4492a2.8213,2.8213,0,0,0,.8623-2.2168,2.7735,2.7735,0,0,0-.7393-1.9707,1.6539,1.6539,0,0,0-1.1855-.4619,1.9979,1.9979,0,0,0-1.1241.3076c-.1074.0771-.1538.123-.1689.3389-.0464.3847-.0308,2.8174,0,3.1406a1.2031,1.2031,0,0,0,.123.3857,1.7229,1.7229,0,0,0,1.4932.7539A1.1394,1.1394,0,0,0,110.3233,124.7923Z"/><path class="cls-2" d="M119.1162,122.4827a2.9485,2.9485,0,0,1-2.9253,2.9717,2.936,2.936,0,0,1-1.8784-5.2344,3.16,3.16,0,0,1,1.8477-.6465A2.8891,2.8891,0,0,1,119.1162,122.4827Zm-4.8037-.2148a3.5267,3.5267,0,0,0,.6465,2.1094,1.83,1.83,0,0,0,1.4473.8154,1.5192,1.5192,0,0,0,.97-.3848,3.0655,3.0655,0,0,0,.647-2.0635c0-1.4619-.7393-2.9091-2.0938-2.9091C115.1436,119.8353,114.3125,120.6663,114.3125,122.2679Z"/><path class="cls-2" d="M121.1807,120.7591c0,.6465.5849,1.0156.97,1.2471,1.001.6464,1.4009,1.0312,1.4009,1.8164a1.58,1.58,0,0,1-.8,1.2929,2.5555,2.5555,0,0,1-1.2319.3389,3.1249,3.1249,0,0,1-1.2163-.2773c-.1231-.0459-.231-.1534-.231-.2461,0-.2159-.0308-.6006-.0459-.77-.0308-.2.0151-.2461.0459-.2461.0464,0,.0928,0,.2.292a1.5054,1.5054,0,0,0,.647.8321,1.1825,1.1825,0,0,0,.6928.1845,1.0557,1.0557,0,0,0,1.0005-1.0322c0-.5849-.4-.9082-1.0161-1.293-.6621-.4306-1.2778-1.0009-1.2778-1.6777a1.46,1.46,0,0,1,.5849-1.2168,1.9938,1.9938,0,0,1,1.2935-.4307,3.7753,3.7753,0,0,1,1.0469.169.2526.2526,0,0,1,.0766.1387c.0157.1689.0772.4775.0928.7236,0,.1689-.0308.2461-.0771.2461-.0616,0-.0923-.0772-.1387-.1846a1.17,1.17,0,0,0-.3692-.6308,1.2649,1.2649,0,0,0-.7236-.2315A.8972.8972,0,0,0,121.1807,120.7591Z"/><path class="cls-2" d="M129.2647,121.1439a.1805.1805,0,0,1-.1543.1689c-.1231-.0156-2.1245-.0459-2.4785-.0459H125.8c-.0308,0-.1079.0772-.1387.1231a2.1255,2.1255,0,0,0-.123.8466,2.7617,2.7617,0,0,0,.708,1.8633,2.08,2.08,0,0,0,1.54.6309,1.9678,1.9678,0,0,0,1.4624-.4922c.1231-.1231.1846-.0928.1846-.0156a.583.583,0,0,1-.1538.2461,2.72,2.72,0,0,1-2.14.97,2.4837,2.4837,0,0,1-1.8321-.7852,3.008,3.008,0,0,1-.7387-2.0625,3.2092,3.2092,0,0,1,.8925-2.248,2.8654,2.8654,0,0,1,1.9248-.77A1.7766,1.7766,0,0,1,129.2647,121.1439Zm-3.1411-.7852a1.35,1.35,0,0,0-.3233.6309.0658.0658,0,0,0,.0615.0615l2.0015-.0156c.3389,0,.37-.169.37-.3077a.9925.9925,0,0,0-.2153-.6464,1.0775,1.0775,0,0,0-.77-.293A1.5983,1.5983,0,0,0,126.1236,120.3587Z"/><path class="cls-2" d="M58.2261,137.4818a.7747.7747,0,0,0-.1538.5693,30.5694,30.5694,0,0,0,.0771,3.3105.5438.5438,0,0,0,.4927.5235c.231.0459.3384.0771.3384.1533,0,.0469-.0923.0928-.231.0928-.4311,0-.831-.0616-1.2778-.0616-.4771,0-.708.0616-1,.0616-.1694,0-.2466-.03-.2466-.0928s.0616-.0918.2466-.1377c.4463-.1084.5542-.1543.5693-.7393.0464-.6162.0621-2.0322.0621-4.48,0-2.3252.0307-3.2637,0-3.8487-.0157-.4931-.1236-.539-.462-.7236-.062-.0469-.1079-.0771-.1079-.123s.0923-.0928.2618-.1387a6.3755,6.3755,0,0,0,1.124-.37.3372.3372,0,0,1,.1538-.0616c.0464,0,.0923.1084.0771.3233-.0156.416-.0771,5.1885-.0615,5.4814,0,.0616.0459.0772.0615.0459a5.0511,5.0511,0,0,1,.9239-.6308,2.4118,2.4118,0,0,1,1.0776-.2617,1.64,1.64,0,0,1,1.3857.6923,2.9709,2.9709,0,0,1,.3384,1.6475c.0156,1.1553.0156,2.1094.0308,2.6943,0,.3076.0615.416.5234.4932.2.0459.2466.0762.2466.1377s-.1079.1084-.2466.1084c-.4,0-.6929-.0772-1.1084-.0772-.5234,0-.6465.0616-1,.0616-.185,0-.2466-.0459-.2466-.0928,0-.0615.0772-.0918.231-.1231.4155-.0918.4463-.2.5083-.6464.0308-.3536.0615-1.0313.0615-2.6329a2.4673,2.4673,0,0,0-.2309-1.1542,1.1522,1.1522,0,0,0-1.0625-.5694A1.86,1.86,0,0,0,58.2261,137.4818Z"/><path class="cls-2" d="M68.0664,137.9437a.18.18,0,0,1-.1543.1689c-.123-.0156-2.1245-.0459-2.4785-.0459h-.8315c-.0308,0-.1079.0772-.1387.1231a2.1233,2.1233,0,0,0-.1231.8466,2.7618,2.7618,0,0,0,.7081,1.8633,2.08,2.08,0,0,0,1.54.6309,1.9678,1.9678,0,0,0,1.4624-.4922c.123-.1231.1846-.0928.1846-.0156a.5841.5841,0,0,1-.1538.2461,2.72,2.72,0,0,1-2.14.97,2.4837,2.4837,0,0,1-1.832-.7852,3.008,3.008,0,0,1-.7388-2.0625,3.2089,3.2089,0,0,1,.8926-2.248,2.8649,2.8649,0,0,1,1.9248-.7695A1.7765,1.7765,0,0,1,68.0664,137.9437Zm-3.1411-.7852a1.35,1.35,0,0,0-.3232.6309.0657.0657,0,0,0,.0615.0615l2.0015-.0156c.3388,0,.37-.169.37-.3077a.9925.9925,0,0,0-.2153-.6464,1.0778,1.0778,0,0,0-.77-.293A1.5984,1.5984,0,0,0,64.9253,137.1585Z"/><path class="cls-2" d="M72.6089,137.1585a3.7234,3.7234,0,0,1,.2158,1.4c0,.57-.0464,2.0332-.0464,2.4326a.5275.5275,0,0,0,.57.585.9838.9838,0,0,0,.4463-.1377c.0922-.0469.1538,0,.0922.1377a1.2959,1.2959,0,0,1-1.1855.6621,1.0332,1.0332,0,0,1-.9082-.6924.0534.0534,0,0,0-.0772-.0156,2.1533,2.1533,0,0,1-1.5088.6933A1.2772,1.2772,0,0,1,68.9756,140.9a1.0848,1.0848,0,0,1,.5542-.8779c.37-.2,1.77-.6152,2.0938-.7393a.29.29,0,0,0,.2-.23,5.2189,5.2189,0,0,0,.0308-.708c0-.6319-.1079-1.0625-.37-1.2627a1.1688,1.1688,0,0,0-.6465-.2461,1.06,1.06,0,0,0-.6157.1845.6137.6137,0,0,0-.231.3692,1.5684,1.5684,0,0,0-.0156.2929.1921.1921,0,0,1-.0615.1231,3.341,3.341,0,0,1-.7237.3389c-.0766.0156-.1538-.0772-.1538-.1387,0-.1074.1079-.2461.2925-.4619a3.9889,3.9889,0,0,1,1.17-.8926,2.0564,2.0564,0,0,1,.9239-.2773A1.2613,1.2613,0,0,1,72.6089,137.1585Zm-1.0312,4.2334a.6359.6359,0,0,0,.1689-.3691,11.0026,11.0026,0,0,0,.0771-1.4629c0-.0156-.0307-.0918-.0615-.0772a8.748,8.748,0,0,0-1.4165.5235.7978.7978,0,0,0-.3847.77.8943.8943,0,0,0,.9238.8623A1.055,1.055,0,0,0,71.5777,141.3919Z"/><path class="cls-2" d="M76.0435,138.3284c0,1.94.0156,2.6631.0307,2.9561.0157.416.1079.5234.5391.6006.0923.0156.2.0615.2.1074,0,.0615-.1079.1084-.3081.1084-.2461,0-.8008-.0313-1.0625-.0313-.4,0-.8.0313-1.0313.0313-.185,0-.2617-.0156-.2617-.0928s.0767-.0928.2769-.1387c.3852-.0771.4775-.2158.539-.8925.0308-.57.0923-3.1719.1079-5.02,0-1.247.0152-2.51,0-3.1865,0-.3389-.0307-.416-.4311-.6621-.1079-.0615-.1543-.0928-.1543-.1387s.0928-.0927.231-.123a7.9979,7.9979,0,0,0,1.1547-.3545.648.648,0,0,1,.1851-.0459c.0308,0,.0459.0918.0459.1689,0,.1075-.0615,2.7715-.0615,5.0811Z"/><path class="cls-2" d="M78.292,141.5a1.7352,1.7352,0,0,1-.185-.8779v-3.1865c0-.17-.0152-.2774-.0767-.3086a2.5352,2.5352,0,0,0-.37-.0918c-.1231-.0313-.2-.0772-.2-.1387,0-.0313.0156-.0772.185-.1543a3.2787,3.2787,0,0,0,1.2622-1.0313c.1387-.1543.2466-.123.2466-.0468,0,.1386-.0307.57-.0156.7549,0,.0458.0156.1386.0771.1386.2769,0,1.5547-.0459,1.8785-.0459.0307,0,.0922.1074.0922.2149,0,.2617-.0771.3847-.1543.3847-.5385,0-1.2929-.0146-1.7089-.0146-.1846,0-.2154.0459-.2154.1387,0,.2617.0157,2.6787.0308,3.1562a1.5772,1.5772,0,0,0,.1694.8311,1.14,1.14,0,0,0,.9546.416,1.5007,1.5007,0,0,0,.8467-.2315c.1079-.0771.1538-.0615.1538,0,0,.0928-.1382.2461-.3384.4a2.1133,2.1133,0,0,1-1.247.4A1.427,1.427,0,0,1,78.292,141.5Z"/><path class="cls-2" d="M83.4351,137.4818a.7747.7747,0,0,0-.1538.5693,30.537,30.537,0,0,0,.0771,3.3105.5438.5438,0,0,0,.4927.5235c.2309.0459.3384.0771.3384.1533,0,.0469-.0923.0928-.231.0928-.4311,0-.831-.0616-1.2778-.0616-.4771,0-.708.0616-1.0005.0616-.1694,0-.2466-.03-.2466-.0928s.0615-.0918.2466-.1377c.4463-.1084.5542-.1543.5693-.7393.0464-.6162.062-2.0322.062-4.48,0-2.3252.0308-3.2637,0-3.8487-.0156-.4931-.1235-.539-.4619-.7236-.062-.0469-.1079-.0771-.1079-.123s.0923-.0928.2617-.1387a6.3741,6.3741,0,0,0,1.1241-.37.3372.3372,0,0,1,.1538-.0616c.0464,0,.0923.1084.0771.3233-.0156.416-.0771,5.1885-.0615,5.4814,0,.0616.0459.0772.0615.0459a5.05,5.05,0,0,1,.9238-.6308,2.4126,2.4126,0,0,1,1.0777-.2617,1.64,1.64,0,0,1,1.3857.6923,2.9709,2.9709,0,0,1,.3384,1.6475c.0156,1.1553.0156,2.1094.0308,2.6943,0,.3076.0615.416.5234.4932.2.0459.2466.0762.2466.1377s-.1079.1084-.2466.1084c-.4,0-.6929-.0772-1.1084-.0772-.5234,0-.6465.0616-1,.0616-.185,0-.2466-.0459-.2466-.0928,0-.0615.0772-.0918.231-.1231.4155-.0918.4463-.2.5083-.6464.0308-.3536.0615-1.0313.0615-2.6329a2.4673,2.4673,0,0,0-.2309-1.1542,1.1522,1.1522,0,0,0-1.0625-.5694A1.86,1.86,0,0,0,83.4351,137.4818Z"/><path class="cls-2" d="M92.7061,137.4974a.8823.8823,0,0,0-.2617.5381,8.9,8.9,0,0,0-.0152.9394c0,1.14.0308,1.94.0615,2.2637.0616.4765.2461.5849.8316.6465.2153.03.2925.0615.2925.1386s-.1387.1075-.37.1075c-.2924,0-.8007-.0616-1.4472-.0616a8.2714,8.2714,0,0,0-.939.0928c-.1851,0-.2622-.0312-.2622-.0928,0-.0459.1079-.123.231-.1543a.6353.6353,0,0,0,.5546-.6308c.0308-.2617.0459-1.14.0459-2.1553V137.42c0-.1084-.1079-.1543-.4-.4-.1074-.0771-.123-.123-.123-.1543s.0923-.0918.231-.1386a4.6089,4.6089,0,0,0,.9853-.3692.4876.4876,0,0,1,.231-.0771c.0307,0,.0615.0615.0615.2158,0,.1689-.0151.7539-.0151,1.001,0,.0459.0307.0615.0766.0146a2.5159,2.5159,0,0,1,1.6631-1.1084.8967.8967,0,0,1,.5386.2.2688.2688,0,0,1,.1079.2158,1.0517,1.0517,0,0,1-.3389.5235c-.1382.123-.2.1387-.2461.1387a.695.695,0,0,1-.2773-.1084,1.0811,1.0811,0,0,0-.5386-.1846A1.0492,1.0492,0,0,0,92.7061,137.4974Z"/><path class="cls-2" d="M95.586,136.82a7.6247,7.6247,0,0,0,1.1084-.4.6218.6218,0,0,1,.2309-.1075c.0464,0,.0772.0459.0615.2149-.0307.3086-.0307,1.247-.0307,2.2324,0,1.2939,0,2.4326.0307,2.6943.0308.3086.1851.3858.4312.4473.1543.03.2309.0615.2309.123,0,.0772-.123.1075-.2461.1075-.1386,0-.7084-.0616-1.124-.0616-.5083,0-.7544.0313-.9238.0313-.1079,0-.2153-.0313-.2153-.0928s.0766-.1074.2924-.1387c.3384-.0927.4771-.2158.4927-.8466.0152-.4619.0459-3.2637.0459-3.418,0-.2158-.0151-.3076-.4463-.5391-.0771-.0459-.123-.0918-.123-.123C95.4014,136.8968,95.4473,136.85,95.586,136.82Zm1.54-2.51a.586.586,0,0,1-.57.5849.548.548,0,0,1-.5078-.5693.5709.5709,0,0,1,.539-.6006A.5629.5629,0,0,1,97.1255,134.31Z"/><path class="cls-2" d="M99.4976,137.5589c0,.6465.5849,1.0156.97,1.2471,1.001.6465,1.4009,1.0312,1.4009,1.8164a1.58,1.58,0,0,1-.8,1.2929,2.5555,2.5555,0,0,1-1.2319.3389,3.1257,3.1257,0,0,1-1.2164-.2773c-.123-.0459-.2309-.1534-.2309-.2461,0-.2158-.0308-.6006-.0459-.77-.0308-.2.0151-.2461.0459-.2461.0464,0,.0928,0,.2.292a1.505,1.505,0,0,0,.647.8321,1.1825,1.1825,0,0,0,.6928.1845,1.0557,1.0557,0,0,0,1-1.0322c0-.5849-.4-.9082-1.0161-1.293-.6621-.4306-1.2778-1.0009-1.2778-1.6777a1.46,1.46,0,0,1,.5849-1.2168,1.9938,1.9938,0,0,1,1.2935-.4306,3.776,3.776,0,0,1,1.0469.1689.2534.2534,0,0,1,.0771.1387c.0151.1689.0767.4775.0923.7236,0,.1689-.0308.2461-.0772.2461-.0615,0-.0922-.0772-.1386-.1846a1.1675,1.1675,0,0,0-.37-.6308,1.2619,1.2619,0,0,0-.7231-.2315A.8972.8972,0,0,0,99.4976,137.5589Z"/><path class="cls-2" d="M106.8731,136.5579c.3388,0,.9546-.0771,1.3549-.0771.1695,0,.231.0459.231.0927,0,.03-.0464.0918-.231.1231a2.7474,2.7474,0,0,0-1.4165.6768c-.4.3085-1.1547.955-1.4472,1.2324-.0308.03,0,.0771.0156.1074.4619.5391,1.57,1.7246,2.2939,2.4639a1.99,1.99,0,0,0,1.1084.7236c.1387.03.231.0762.231.1377,0,.0928-.1387.1084-.2617.1084-.5235,0-1.1084-.0772-1.709-.0772-.2617,0-.4619.0157-.6929.0157-.1694,0-.2768,0-.2768-.0928,0-.0772.0766-.1074.354-.169.2617-.0615.2925-.2.1538-.416-.3233-.3691-1.4165-1.5244-1.8784-1.9863-.1231-.123-.231-.2305-.2925-.2305-.0459,0-.0615.0918-.0615.1534-.0152.2773-.0308.7861-.0152,1.6328,0,.7382.1231.7851.6.8925.1543.0459.231.0772.231.1387,0,.0772-.1231.1074-.2925.1074-.4312,0-.7544-.0459-1.1548-.0459-.4927,0-.8159.0459-1.0005.0459-.1538,0-.2466-.0459-.2466-.1074,0-.0459.0928-.0928.2-.1074.4776-.124.585-.2617.6158-.77.062-1.124.0771-2.417.0771-3.6182.0156-1.2.0615-3.1709.0615-4.372a2.6181,2.6181,0,0,0-.0615-.7081c-.0308-.123-.1694-.2158-.354-.3085-.0771-.0459-.1387-.0762-.1387-.1075,0-.0615.0923-.0927.2466-.1386a9.3917,9.3917,0,0,0,1.0928-.3692.7047.7047,0,0,1,.2466-.0771c.0151,0,.0459.0459.0459.123-.0308.5078-.0767,1.8633-.0767,3.002,0,.4775-.0771,2.51-.0771,4.2031,0,.17.0307.2471.0771.2471a.7749.7749,0,0,0,.3076-.17,13.177,13.177,0,0,0,1.6631-1.539.559.559,0,0,0,.1694-.2774c0-.0927-.1079-.1845-.4467-.2461-.1387-.0156-.2617-.0615-.2617-.123s.1079-.1084.2465-.1084C106.35,136.5423,106.7036,136.5579,106.8731,136.5579Z"/><path class="cls-2" d="M110.416,137.5589c0,.6465.585,1.0156.97,1.2471,1.0009.6465,1.4008,1.0312,1.4008,1.8164a1.58,1.58,0,0,1-.8,1.2929,2.5552,2.5552,0,0,1-1.2319.3389,3.1249,3.1249,0,0,1-1.2163-.2773c-.123-.0459-.231-.1534-.231-.2461,0-.2158-.0307-.6006-.0459-.77-.0307-.2.0152-.2461.0459-.2461.0464,0,.0928,0,.2.292a1.5059,1.5059,0,0,0,.647.8321,1.1828,1.1828,0,0,0,.6929.1845,1.0557,1.0557,0,0,0,1.0005-1.0322c0-.5849-.4-.9082-1.0161-1.293-.6621-.4306-1.2779-1.0009-1.2779-1.6777a1.4594,1.4594,0,0,1,.585-1.2168,1.9935,1.9935,0,0,1,1.2934-.4306,3.7746,3.7746,0,0,1,1.0469.1689.2522.2522,0,0,1,.0767.1387c.0156.1689.0771.4775.0928.7236,0,.1689-.0308.2461-.0772.2461-.0615,0-.0923-.0772-.1387-.1846a1.1688,1.1688,0,0,0-.3691-.6308,1.2651,1.2651,0,0,0-.7236-.2315A.8973.8973,0,0,0,110.416,137.5589Z"/><path class="cls-2" d="M113.6807,141.5765a.6994.6994,0,0,1,.6924-.6924.6491.6491,0,0,1,.6162.6777.6623.6623,0,0,1-.6621.6924A.6777.6777,0,0,1,113.6807,141.5765Z"/><path class="cls-2" d="M116.8218,132.8011a1.6712,1.6712,0,0,1-1.3857,1.4932c-.0923,0-.1387-.03-.1387-.0762,0-.0313.0615-.0772.1538-.124a1.2316,1.2316,0,0,0,.8164-1.0313c0-.3076-.1694-.5078-.5855-.6006-.1538-.0459-.3076-.1387-.3076-.3232a.4578.4578,0,0,1,.4619-.4307A1.0278,1.0278,0,0,1,116.8218,132.8011Zm1.9243,0a1.6712,1.6712,0,0,1-1.3857,1.4932c-.0767,0-.1387-.03-.1387-.0762,0-.0313.0928-.0772.1543-.124a1.2056,1.2056,0,0,0,.8159-1.0157c0-.3232-.1694-.5234-.5849-.6162a.36.36,0,0,1-.2925-.3232.452.452,0,0,1,.477-.4307A1.0235,1.0235,0,0,1,118.7461,132.8011Z"/></svg>