<svg id="Layer_1" data-name="Layer 1" xmlns="http://www.w3.org/2000/svg" viewBox="0 0 399 200"><defs><style>.cls-1,.cls-2,.cls-5,.cls-6{fill:none;stroke:#222f3c;stroke-linecap:round;}.cls-1,.cls-2{stroke-linejoin:round;}.cls-1,.cls-5{stroke-width:0.5px;}.cls-2,.cls-6{stroke-width:0.4px;}.cls-3{fill:#222f3c;}.cls-4{fill:#333838;}.cls-5,.cls-6{stroke-miterlimit:10;}</style></defs><circle class="cls-1" cx="113.786" cy="85.8895" r="7.6884"/><line class="cls-1" x1="79.1181" y1="127.4028" x2="146.3446" y2="127.4028"/><line class="cls-1" x1="147.7283" y1="120.141" x2="212.2403" y2="120.141"/><path class="cls-1" d="M86.5458,109.8862a5.0818,5.0818,0,0,1,4.76-4.4871,4.3812,4.3812,0,0,1,4.4531,4.0321,4.2209,4.2209,0,0,1,.0045,8.2364c.002.0515.0081.1019.0081.1539a4.47,4.47,0,0,1-8.9314,0c0-.052.0062-.1024.0082-.1539"/><line class="cls-1" x1="91.2531" y1="114.7604" x2="87.7566" y2="111.6043"/><line class="cls-1" x1="91.4988" y1="116.6105" x2="94.4976" y2="112.67"/><line class="cls-1" x1="91.3997" y1="112.3478" x2="91.3997" y2="127.2919"/><line class="cls-1" x1="130.5078" y1="114.1488" x2="130.5078" y2="117.2249"/><line class="cls-1" x1="117.868" y1="122.2947" x2="117.868" y2="127.373"/><line class="cls-1" x1="140.3324" y1="122.2947" x2="140.3324" y2="127.373"/><rect class="cls-1" x="127.5493" y="120.8015" width="5.9732" height="6.6051" rx="1"/><line class="cls-1" x1="103.1359" y1="122.2947" x2="103.1359" y2="127.373"/><polyline class="cls-1" points="105.337 120.211 119.785 120.211 130.445 108.144 111.479 108.144 100.818 120.211"/><line class="cls-1" x1="130.5438" y1="108.1605" x2="141.2047" y2="120.2277"/><line class="cls-1" x1="145.5031" y1="106.9197" x2="145.5031" y2="109.9958"/><line class="cls-1" x1="155.3278" y1="114.898" x2="155.3278" y2="119.9763"/><rect class="cls-1" x="142.5446" y="113.5444" width="5.9732" height="6.6051" rx="1"/><polyline class="cls-1" points="134.78 112.982 145.441 100.915 126.475 100.915 120.013 108.098"/><line class="cls-1" x1="145.5392" y1="100.9314" x2="156.2" y2="112.9986"/><line class="cls-1" x1="69.7101" y1="127.4028" x2="146.3446" y2="127.4028"/><line class="cls-1" x1="171.5588" y1="106.8576" x2="171.5588" y2="109.9337"/><line class="cls-1" x1="184.1986" y1="115.0035" x2="184.1986" y2="120.0818"/><line class="cls-1" x1="161.7342" y1="115.0035" x2="161.7342" y2="120.0818"/><rect class="cls-1" x="168.5441" y="113.5103" width="5.9732" height="6.6051" rx="1" transform="translate(343.0613 233.6256) rotate(-180)"/><line class="cls-1" x1="198.9307" y1="115.0035" x2="198.9307" y2="120.0818"/><polyline class="cls-1" points="196.729 112.92 182.282 112.92 171.621 100.853 190.587 100.853 201.248 112.92"/><line class="cls-1" x1="171.5228" y1="100.8693" x2="160.8619" y2="112.9365"/><line class="cls-1" x1="156.815" y1="97.2557" x2="156.815" y2="99.7459"/><path class="cls-1" d="M156.6425,108.0561h2.1139a.5439.5439,0,0,0,.544-.544v-4.259a.544.544,0,0,0-.544-.544h-3.7475a.544.544,0,0,0-.544.544V105.68"/><polyline class="cls-1" points="165.496 102.163 156.865 92.394 172.219 92.394 177.45 98.209"/><line class="cls-1" x1="156.7858" y1="92.4079" x2="149.8105" y2="100.5217"/><path class="cls-1" d="M124.03,80.6426a1.9275,1.9275,0,0,1,1.69,1.8391l.0393.7354.5828-.4487a5.5543,5.5543,0,0,1,4.3608-.85"/><path class="cls-1" d="M133.24,86.5013a1.9274,1.9274,0,0,1,1.69,1.839l.0393.7354.5828-.4487a5.5545,5.5545,0,0,1,4.3608-.85"/><path class="cls-1" d="M87,111.699a3.9075,3.9075,0,0,0-7.7767,0,3.6856,3.6856,0,0,0-.0039,7.1918c-.0017.045-.0071.089-.0071.1343a3.9032,3.9032,0,0,0,7.7987,0c0-.0453-.0054-.0893-.0071-.1343"/><line class="cls-1" x1="83.1577" y1="116.3523" x2="86.2108" y2="113.5965"/><line class="cls-1" x1="82.9432" y1="117.9677" x2="80.3247" y2="114.527"/><line class="cls-1" x1="83.0297" y1="114.2457" x2="83.0297" y2="127.2945"/><path class="cls-2" d="M200.4344,137.6367h-4.1231a.1252.1252,0,0,1-.08-.0287l-2.6068-2.1546a.1255.1255,0,0,1-.0455-.0966v-2.3675a.1253.1253,0,0,1,.01-.0482l.7083-1.7052-.0255-3.4923h-2.4025a.1254.1254,0,0,1-.0887-.214l.6817-.6817a.1253.1253,0,0,1,.0477-.03l.4675-.1616.9882-.9253a.1258.1258,0,0,1,.0858-.0338H196.31a.1254.1254,0,0,1,.1254.1254l.0012,6.5092h1.35a13.6418,13.6418,0,0,1,4.566.7847l1.6352.5792a.1255.1255,0,0,1,.0835.1182v.665a.1252.1252,0,0,1-.05.1l-1.8022,1.3515-1.6963,1.67A.1252.1252,0,0,1,200.4344,137.6367Zm-3.9977-4.31v.79"/><line class="cls-2" x1="199.4293" y1="137.6573" x2="199.4293" y2="140.0033"/><polyline class="cls-2" points="196.879 140.068 198.434 139.004 198.434 138.296"/><polyline class="cls-2" points="196.47 134.14 198.012 135.763 201.437 135.763"/><line class="cls-2" x1="194.2565" y1="128.2939" x2="192.6909" y2="128.2939"/><path class="cls-2" d="M194.18,125.6837v-1.6023a.1254.1254,0,0,1,.1254-.1254h.5866a.1254.1254,0,0,1,.0887.0367l.449.449h.3422a.1251.1251,0,0,1,.0887.0368l.38.38a.1255.1255,0,0,1,.0368.0887v.7363"/><path class="cls-2" d="M194.2693,130.3888h-.9126a.1254.1254,0,0,1-.1254-.1254v-.8248a.1241.1241,0,0,1,.0073-.0422l.4026-1.0847"/><line class="cls-2" x1="186.1708" y1="140.084" x2="207.0809" y2="140.084"/><line class="cls-2" x1="191.6501" y1="140.0033" x2="191.6501" y2="138.8414"/><line class="cls-2" x1="192.5461" y1="139.5064" x2="192.5461" y2="140.0033"/><line class="cls-2" x1="193.4282" y1="140.0033" x2="193.4282" y2="138.296"/><line class="cls-2" x1="201.4388" y1="140.0816" x2="201.4388" y2="139.5123"/><line class="cls-2" x1="202.3003" y1="140.0321" x2="202.3003" y2="138.9311"/><path class="cls-2" d="M184.8116,141.4035h-4.1231a.1254.1254,0,0,1-.08-.0287l-2.6067-2.1546a.1251.1251,0,0,1-.0455-.0966v-2.3675a.1271.1271,0,0,1,.01-.0482l.7084-1.7052-.0256-3.4923h-2.4025a.1253.1253,0,0,1-.0886-.214l.6816-.6817a.126.126,0,0,1,.0477-.03l.4675-.1616.9883-.9253a.1256.1256,0,0,1,.0857-.0338h2.2589a.1255.1255,0,0,1,.1254.1254l.0011,6.5092h1.35a13.6414,13.6414,0,0,1,4.566.7847l1.6352.5792a.1255.1255,0,0,1,.0835.1182v.665a.1255.1255,0,0,1-.05.1l-1.8021,1.3514-1.6964,1.67A.1252.1252,0,0,1,184.8116,141.4035Zm-3.9977-4.31v.79"/><line class="cls-2" x1="183.8065" y1="141.4241" x2="183.8065" y2="143.7701"/><polyline class="cls-2" points="181.256 143.835 182.811 142.771 182.811 142.063"/><polyline class="cls-2" points="180.847 137.907 182.39 139.53 185.814 139.53"/><line class="cls-2" x1="178.6338" y1="132.0607" x2="177.0681" y2="132.0607"/><path class="cls-2" d="M178.5571,129.4505v-1.6023a.1255.1255,0,0,1,.1254-.1254h.5867a.1258.1258,0,0,1,.0887.0367l.4489.449h.3423a.125.125,0,0,1,.0886.0368l.38.38a.1254.1254,0,0,1,.0367.0887v.7363"/><path class="cls-2" d="M178.6466,134.1556h-.9127a.1254.1254,0,0,1-.1254-.1254v-.8248a.1242.1242,0,0,1,.0074-.0422l.4025-1.0847"/><line class="cls-2" x1="173.0972" y1="143.8508" x2="191.4581" y2="143.8508"/><line class="cls-2" x1="176.0274" y1="143.7701" x2="176.0274" y2="142.6082"/><line class="cls-2" x1="176.9234" y1="143.2732" x2="176.9234" y2="143.7701"/><line class="cls-2" x1="177.8054" y1="143.7701" x2="177.8054" y2="142.0628"/><line class="cls-2" x1="185.8161" y1="143.8485" x2="185.8161" y2="143.2791"/><line class="cls-2" x1="186.6776" y1="143.7989" x2="186.6776" y2="142.6979"/><path class="cls-3" d="M257.3,120.1116a.5009.5009,0,0,1,.5-.5h0a.5009.5009,0,0,1,.5.5h0a.4954.4954,0,0,1-.5.5h0A.4954.4954,0,0,1,257.3,120.1116Zm-3,0a.5009.5009,0,0,1,.5-.5h0a.5009.5009,0,0,1,.5.5h0a.4954.4954,0,0,1-.5.5h0A.4954.4954,0,0,1,254.3,120.1116Zm-3,0a.5009.5009,0,0,1,.5-.5h0a.5009.5009,0,0,1,.5.5h0a.4954.4954,0,0,1-.5.5h0A.4954.4954,0,0,1,251.3,120.1116Zm-3,0a.5009.5009,0,0,1,.5-.5h0a.5009.5009,0,0,1,.5.5h0a.4954.4954,0,0,1-.5.5h0A.4954.4954,0,0,1,248.3,120.1116Zm-3,0a.5009.5009,0,0,1,.5-.5h0a.5009.5009,0,0,1,.5.5h0a.4954.4954,0,0,1-.5.5h0A.4954.4954,0,0,1,245.3,120.1116Zm-3,0a.5009.5009,0,0,1,.5-.5h0a.5009.5009,0,0,1,.5.5h0a.4954.4954,0,0,1-.5.5h0A.4954.4954,0,0,1,242.3,120.1116Zm-3,0a.5009.5009,0,0,1,.5-.5h0a.5009.5009,0,0,1,.5.5h0a.4954.4954,0,0,1-.5.5h0A.4954.4954,0,0,1,239.3,120.1116Zm-3,0a.5009.5009,0,0,1,.5-.5h0a.5009.5009,0,0,1,.5.5h0a.4954.4954,0,0,1-.5.5h0A.4954.4954,0,0,1,236.3,120.1116Zm-3,0a.5009.5009,0,0,1,.5-.5h0a.5009.5009,0,0,1,.5.5h0a.4954.4954,0,0,1-.5.5h0A.4954.4954,0,0,1,233.3,120.1116Zm-3,0a.5009.5009,0,0,1,.5-.5h0a.5009.5009,0,0,1,.5.5h0a.4954.4954,0,0,1-.5.5h0A.4954.4954,0,0,1,230.3,120.1116Zm-3,0a.5009.5009,0,0,1,.5-.5h0a.5009.5009,0,0,1,.5.5h0a.4954.4954,0,0,1-.5.5h0A.4954.4954,0,0,1,227.3,120.1116Zm-3,0a.5009.5009,0,0,1,.5-.5h0a.5009.5009,0,0,1,.5.5h0a.4954.4954,0,0,1-.5.5h0A.4954.4954,0,0,1,224.3,120.1116Zm-3,0a.5009.5009,0,0,1,.5-.5h0a.5009.5009,0,0,1,.5.5h0a.4954.4954,0,0,1-.5.5h0A.4954.4954,0,0,1,221.3,120.1116Zm-3,0a.5009.5009,0,0,1,.5-.5h0a.5009.5009,0,0,1,.5.5h0a.4954.4954,0,0,1-.5.5h0A.4954.4954,0,0,1,218.3,120.1116Zm-3,0a.5081.5081,0,0,1,.5-.5h0a.5009.5009,0,0,1,.5.5h0a.4954.4954,0,0,1-.5.5h0A.5022.5022,0,0,1,215.3,120.1116Z"/><path class="cls-4" d="M277.48,139.1341c.3691,0,1.001.0615,1.4629.0615.3388,0,.708-.0312,1.0312-.0312.2159,0,.3076.0468.3076.1084,0,.0771-.0917.123-.2763.1533-.4317.0771-.4317.2617-.3233.539.6465,1.6016,2.1709,4.8809,3.2178,7.19.0459.1074.1074.0771.1533,0,.4317-.878.8008-1.6475,1.2168-2.6328a.4285.4285,0,0,0,.03-.1846c-.2461-.585-1.2773-2.9258-1.6162-3.665-.4463-.9541-.5693-1.1387-1.0469-1.2618-.2461-.0468-.3232-.1084-.3232-.1855,0-.0459.0918-.0918.292-.0918.4472,0,.7392.0615,1.2939.0615s.9082-.0615,1.2617-.0615c.1543,0,.2618.03.2618.0918,0,.0771-.0918.124-.292.17-.4161.0772-.5694.2617-.3389.8311.2461.6465.708,1.6933,1.2168,2.8642.0146.03.0762.0459.123-.0312.3692-.7539.6924-1.4629,1.0157-2.2168.4775-1.124.4619-1.2783-.2-1.4317-.2774-.0615-.3233-.123-.3233-.1855,0-.0459.0928-.0762.2774-.0762.3847,0,.6308.0459,1.0312.0459.5391,0,.7852-.0615,1.14-.0615.1845,0,.2617.0156.2617.0771,0,.0772-.0772.1231-.293.169-.5693.123-.8623.4463-1.37,1.34-.4.77-1.1543,2.294-1.416,2.7715a.2654.2654,0,0,0,.0156.1846c.3848.9082,1.0615,2.3711,1.585,3.5254.0615.1074.1084.0771.1386,0,.7393-1.6016,2.6026-5.9121,2.9258-7.0518.0772-.3379.0615-.6-.4463-.7539-.247-.0771-.3388-.1074-.3388-.17s.0459-.0918.2617-.0918c.4,0,.6152.0615,1.0771.0615.4317,0,.8467-.0615,1.1241-.0615.2,0,.2773.0156.2773.0771s-.0771.1231-.3545.169c-.6465.17-.9238.4932-1.8935,2.6787-.97,2.125-2.2168,5.0352-2.9249,6.7285-.1083.2617-.1542.3545-.2314.3545-.1074,0-.1689-.1084-.2617-.3545-.3233-.9394-1.2-2.8486-1.6475-3.834-.03-.0615-.0771-.0615-.1074-.0146-.585,1.1387-1.4014,2.94-1.74,3.833-.0918.2461-.1846.37-.2461.37-.0918,0-.1231-.0928-.2305-.37-.2-.5078-.6777-1.6318-.8779-2.0938-.8467-1.955-1.878-4.2334-2.6016-5.7431-.5547-1.2-.6777-1.4776-1.2627-1.5547-.1846-.0156-.3232-.0772-.3232-.1387C277.1719,139.1956,277.2793,139.1341,277.48,139.1341Z"/><path class="cls-4" d="M293.7256,143.9378a3.7348,3.7348,0,0,1,.2148,1.4c0,.57-.0459,2.0322-.0459,2.4326a.5281.5281,0,0,0,.5694.586.9914.9914,0,0,0,.4472-.1387c.0918-.0469.1534,0,.0918.1387a1.2971,1.2971,0,0,1-1.1855.6611,1.0332,1.0332,0,0,1-.9082-.6924.0534.0534,0,0,0-.0772-.0156,2.1533,2.1533,0,0,1-1.5088.6933,1.2775,1.2775,0,0,1-1.2314-1.3242,1.0867,1.0867,0,0,1,.5537-.8779c.37-.2,1.7715-.6152,2.0947-.7393a.29.29,0,0,0,.2-.23,5.3044,5.3044,0,0,0,.03-.708c0-.6319-.1074-1.0625-.3691-1.2627a1.17,1.17,0,0,0-.6465-.2461,1.0592,1.0592,0,0,0-.6162.1845.6184.6184,0,0,0-.2315.3692,1.6743,1.6743,0,0,0-.0146.2929.1941.1941,0,0,1-.0616.1231,3.36,3.36,0,0,1-.7236.3389c-.0771.0156-.1543-.0772-.1543-.1387,0-.1074.1074-.2461.293-.4619a3.9927,3.9927,0,0,1,1.17-.8936,2.063,2.063,0,0,1,.9238-.2764A1.2624,1.2624,0,0,1,293.7256,143.9378Zm-1.0322,4.2334a.6391.6391,0,0,0,.17-.3691,11.09,11.09,0,0,0,.0771-1.4629c0-.0157-.0312-.0918-.0625-.0772a8.7789,8.7789,0,0,0-1.416.5235.7977.7977,0,0,0-.3848.77.8944.8944,0,0,0,.9239.8623A1.0527,1.0527,0,0,0,292.6934,148.1712Z"/><path class="cls-4" d="M296.0508,148.28a1.7345,1.7345,0,0,1-.1846-.8779v-3.1866c0-.17-.0156-.2773-.0771-.3085a2.5274,2.5274,0,0,0-.3692-.0918c-.123-.0313-.2-.0772-.2-.1387,0-.0313.0157-.0772.1846-.1543a3.2762,3.2762,0,0,0,1.2627-1.0313c.1387-.1543.2461-.123.2461-.0459,0,.1377-.03.5694-.0147.7539,0,.0459.0147.1387.0762.1387.2774,0,1.5557-.0459,1.8789-.0459.03,0,.0918.1074.0918.2149,0,.2617-.0762.3847-.1533.3847-.5391,0-1.294-.0146-1.709-.0146-.1846,0-.2158.0459-.2158.1387,0,.2617.0156,2.6787.0312,3.1562a1.5784,1.5784,0,0,0,.169.8311,1.14,1.14,0,0,0,.9541.416,1.503,1.503,0,0,0,.8476-.2315c.1075-.0771.1534-.0615.1534,0,0,.0928-.1387.2461-.3389.4a2.1124,2.1124,0,0,1-1.2471.4A1.4273,1.4273,0,0,1,296.0508,148.28Z"/><path class="cls-4" d="M304.0742,144.723a.18.18,0,0,1-.1543.1689c-.123-.0156-2.125-.0459-2.4785-.0459h-.831c-.0313,0-.1084.0772-.1387.1231a2.1141,2.1141,0,0,0-.1231.8466,2.7593,2.7593,0,0,0,.708,1.8633,2.0777,2.0777,0,0,0,1.5391.6309,1.967,1.967,0,0,0,1.4629-.4922c.123-.1231.1846-.0928.1846-.0156a.5862.5862,0,0,1-.1534.2461,2.7218,2.7218,0,0,1-2.1406.97,2.4837,2.4837,0,0,1-1.832-.7852,3.0083,3.0083,0,0,1-.7393-2.0625,3.21,3.21,0,0,1,.8936-2.248,2.8623,2.8623,0,0,1,1.9238-.77A1.7764,1.7764,0,0,1,304.0742,144.723Zm-3.1406-.7852a1.34,1.34,0,0,0-.3232.6309.0653.0653,0,0,0,.0615.0615l2.001-.0156c.3388,0,.3691-.169.3691-.3077a.9914.9914,0,0,0-.2149-.6464,1.0778,1.0778,0,0,0-.77-.293A1.5964,1.5964,0,0,0,300.9336,143.9378Z"/><path class="cls-4" d="M306.8008,144.2767a.885.885,0,0,0-.2617.5381,9.02,9.02,0,0,0-.0157.9394c0,1.14.0313,1.94.0616,2.2637.0615.4765.247.5849.832.6465.2148.03.292.0615.292.1386s-.1387.1075-.3692.1075c-.2929,0-.8007-.0616-1.4472-.0616a8.2852,8.2852,0,0,0-.94.0928c-.1845,0-.2617-.0312-.2617-.0928,0-.0459.1084-.123.2315-.1543a.6346.6346,0,0,0,.5537-.6308c.0312-.2617.0468-1.14.0468-2.1553V144.2c0-.1084-.1084-.1543-.4-.4-.1084-.0771-.123-.123-.123-.1543s.0918-.0918.2305-.1386a4.6732,4.6732,0,0,0,.9853-.3692.4858.4858,0,0,1,.2315-.0771c.03,0,.0615.0615.0615.2158,0,.1689-.0156.7539-.0156,1.001,0,.0459.03.0615.0771.0146a2.5152,2.5152,0,0,1,1.6621-1.1084.8969.8969,0,0,1,.5391.2.2694.2694,0,0,1,.1084.2158,1.0553,1.0553,0,0,1-.3389.5235c-.1387.123-.2.1386-.2471.1386a.6917.6917,0,0,1-.2763-.1084,1.0848,1.0848,0,0,0-.5391-.1845A1.0483,1.0483,0,0,0,306.8008,144.2767Z"/><path class="cls-4" d="M288.0039,156.473a.272.272,0,0,1,.1533.2617c-.03.3691.0469,1.0312.0469,1.1855s-.0615.2461-.0928.2461c-.0615,0-.1074-.0771-.1386-.2a2.3961,2.3961,0,0,0-.7393-1.2314,3.5275,3.5275,0,0,0-2.3555-.77,3.7142,3.7142,0,0,0-2.6787,1.2011,5.5592,5.5592,0,0,0-1.17,3.5723,5.8332,5.8332,0,0,0,1.416,3.7256,3.6768,3.6768,0,0,0,2.6328,1.14,3.2642,3.2642,0,0,0,1.8321-.4316,2.756,2.756,0,0,0,1.1855-1.5088c.0615-.2.0928-.2617.1543-.2617s.0928.1387.0928.2314a11.0405,11.0405,0,0,1-.2158,1.2159.4174.4174,0,0,1-.1543.2314,5.585,5.585,0,0,1-3.002.8467,5.3,5.3,0,0,1-4.0029-1.6318,5.3893,5.3893,0,0,1-1.294-3.4034,4.91,4.91,0,0,1,1.7246-3.8945,5.5336,5.5336,0,0,1,3.5879-1.2783A7.1068,7.1068,0,0,1,288.0039,156.473Z"/><path class="cls-4" d="M292.9023,160.7376a3.7327,3.7327,0,0,1,.2149,1.4c0,.57-.0459,2.0332-.0459,2.4326a.5273.5273,0,0,0,.5693.585.9883.9883,0,0,0,.4473-.1377c.0918-.0469.1533,0,.0918.1377a1.2961,1.2961,0,0,1-1.1856.6621,1.0333,1.0333,0,0,1-.9082-.6924.0533.0533,0,0,0-.0771-.0156,2.1533,2.1533,0,0,1-1.5088.6933,1.2775,1.2775,0,0,1-1.2314-1.3242,1.0867,1.0867,0,0,1,.5537-.8779c.37-.2,1.7715-.6152,2.0947-.7393a.2906.2906,0,0,0,.2-.23,5.3044,5.3044,0,0,0,.03-.708c0-.6319-.1075-1.0625-.3692-1.2627a1.17,1.17,0,0,0-.6465-.2461,1.06,1.06,0,0,0-.6162.1845.6182.6182,0,0,0-.2314.3692,1.6631,1.6631,0,0,0-.0147.2929.194.194,0,0,1-.0615.1231,3.3623,3.3623,0,0,1-.7236.3389c-.0772.0156-.1543-.0772-.1543-.1387,0-.1074.1074-.2461.2929-.4619a3.9713,3.9713,0,0,1,1.17-.8926,2.0542,2.0542,0,0,1,.9238-.2773A1.2622,1.2622,0,0,1,292.9023,160.7376ZM291.87,164.971a.6391.6391,0,0,0,.17-.3691,11.086,11.086,0,0,0,.0772-1.4629c0-.0156-.0313-.0918-.0625-.0772a8.7754,8.7754,0,0,0-1.416.5235.7977.7977,0,0,0-.3848.77.8944.8944,0,0,0,.9238.8623A1.0523,1.0523,0,0,0,291.87,164.971Z"/><path class="cls-4" d="M299.5547,160.4759a3.2165,3.2165,0,0,1,.4922,2.0166c0,.8164.0156.9394.0156,1.709.0156,1.0469.0615,1.14.4775,1.247.1387.0616.2305.0928.2305.1543,0,.0918-.123.1075-.2773.1075-.2,0-.6465-.0616-.9854-.0616-.5234,0-.7236.0616-.9541.0616-.1387,0-.2461-.03-.2461-.0928s.0918-.1231.292-.169c.37-.0927.4316-.2.4316-.6464v-2.0938c0-1.2471-.1083-1.6172-.4931-1.9092a1.3692,1.3692,0,0,0-.877-.2929,1.8424,1.8424,0,0,0-1.2011.4931.7939.7939,0,0,0-.1846.4619c0,.1846.0146.97.0146,1.8936a12.54,12.54,0,0,0,.0928,1.6162c.0459.3389.2305.416.4776.4932.1845.0459.2617.0771.2617.1533,0,.0928-.1543.0928-.3086.0928-.1231,0-.877-.0616-1.2315-.0616-.2,0-.5234.0313-.8154.0313-.17,0-.293-.0313-.293-.1084,0-.0615.1387-.1231.3233-.1533.3847-.0772.4463-.1856.4619-.4932.0312-1.1084.0312-2.5254.0312-3.7725,0-.1533-.0312-.3232-.4-.5234-.0927-.0615-.123-.0918-.123-.1377,0-.0312.0762-.0771.2148-.124a5.7361,5.7361,0,0,0,1.2168-.5234c.0459-.0147.1231.0468.1075.123a6.8672,6.8672,0,0,0-.03.8164c0,.0313.0459.0772.0762.0459a5.3385,5.3385,0,0,1,1.0937-.6924,2.0755,2.0755,0,0,1,.9082-.1845A1.5725,1.5725,0,0,1,299.5547,160.4759Z"/><path class="cls-4" d="M305.0527,160.7376a3.7327,3.7327,0,0,1,.2149,1.4c0,.57-.0459,2.0332-.0459,2.4326a.5273.5273,0,0,0,.5693.585.9883.9883,0,0,0,.4473-.1377c.0918-.0469.1533,0,.0918.1377a1.2961,1.2961,0,0,1-1.1856.6621,1.0333,1.0333,0,0,1-.9082-.6924.0533.0533,0,0,0-.0771-.0156,2.1533,2.1533,0,0,1-1.5088.6933,1.2776,1.2776,0,0,1-1.2315-1.3242,1.0868,1.0868,0,0,1,.5538-.8779c.37-.2,1.7714-.6152,2.0947-.7393a.2906.2906,0,0,0,.2-.23,5.3044,5.3044,0,0,0,.03-.708c0-.6319-.1075-1.0625-.3692-1.2627a1.17,1.17,0,0,0-.6465-.2461,1.06,1.06,0,0,0-.6162.1845.6182.6182,0,0,0-.2314.3692,1.6631,1.6631,0,0,0-.0147.2929.194.194,0,0,1-.0615.1231,3.3623,3.3623,0,0,1-.7236.3389c-.0772.0156-.1543-.0772-.1543-.1387,0-.1074.1074-.2461.2929-.4619a3.9713,3.9713,0,0,1,1.17-.8926,2.0542,2.0542,0,0,1,.9238-.2773A1.2622,1.2622,0,0,1,305.0527,160.7376Zm-1.0322,4.2334a.6391.6391,0,0,0,.17-.3691,11.086,11.086,0,0,0,.0772-1.4629c0-.0156-.0313-.0918-.0625-.0772a8.7754,8.7754,0,0,0-1.416.5235.7977.7977,0,0,0-.3848.77.8944.8944,0,0,0,.9238.8623A1.0525,1.0525,0,0,0,304.0205,164.971Z"/><path class="cls-4" d="M308.4863,161.9075c0,1.94.0157,2.6631.0313,2.9561.0146.416.1074.5234.5381.6006.0927.0156.2.0615.2.1074,0,.0615-.1075.1084-.3077.1084-.2461,0-.8007-.0313-1.0625-.0313-.4,0-.8007.0313-1.0312.0313-.1846,0-.2617-.0156-.2617-.0928s.0771-.0928.2773-.1387c.3848-.0771.4766-.2158.5381-.8925.0313-.57.0928-3.1719.1084-5.02,0-1.247.0156-2.51,0-3.1865,0-.3389-.0312-.416-.4316-.6621-.1075-.0615-.1534-.0928-.1534-.1387s.0918-.0927.2305-.123a8.0467,8.0467,0,0,0,1.1553-.3545.64.64,0,0,1,.1846-.0459c.03,0,.0459.0918.0459.1689,0,.1075-.0616,2.7715-.0616,5.0811Z"/><path class="cls-4" d="M224.46,61.9988a.2729.2729,0,0,1,.1533.2618c-.03.37.0469,1.0317.0469,1.1855s-.0616.2466-.0928.2466c-.0615,0-.1074-.0772-.1387-.2a2.4012,2.4012,0,0,0-.7392-1.2319,3.5273,3.5273,0,0,0-2.3555-.77,3.7133,3.7133,0,0,0-2.6787,1.2007,5.56,5.56,0,0,0-1.17,3.5723,5.8345,5.8345,0,0,0,1.416,3.7256,3.678,3.678,0,0,0,2.6328,1.1391,3.2647,3.2647,0,0,0,1.832-.4306,2.7589,2.7589,0,0,0,1.1856-1.5093c.0615-.2.0927-.2617.1543-.2617s.0918.1386.0918.2309a11.0371,11.0371,0,0,1-.2149,1.2163.4116.4116,0,0,1-.1543.231,5.5849,5.5849,0,0,1-3.0019.8472,5.299,5.299,0,0,1-4.003-1.6324,5.3858,5.3858,0,0,1-1.2939-3.4023,4.9106,4.9106,0,0,1,1.7246-3.8955,5.5361,5.5361,0,0,1,3.5879-1.2779A7.1167,7.1167,0,0,1,224.46,61.9988Z"/><path class="cls-4" d="M227.3262,67.4339c0,1.94.0156,2.6636.0312,2.9561.0147.4155.1074.5234.5381.6.0928.0152.2.0616.2.1075,0,.0615-.1074.1079-.3076.1079-.2461,0-.8008-.0308-1.0625-.0308-.4,0-.8008.0308-1.0313.0308-.1845,0-.2617-.0152-.2617-.0923s.0772-.0923.2774-.1387c.3847-.0771.4765-.2153.538-.8931.0313-.5693.0928-3.1713.1084-5.019,0-1.2471.0157-2.51,0-3.187,0-.3389-.0312-.4155-.4316-.6621-.1074-.0615-.1533-.0923-.1533-.1382s.0918-.0928.2305-.1235a7.9851,7.9851,0,0,0,1.1552-.354.637.637,0,0,1,.1846-.0464c.03,0,.0459.0927.0459.1694,0,.1079-.0615,2.7715-.0615,5.0811Z"/><path class="cls-4" d="M234.7627,68.3885a2.9487,2.9487,0,0,1-2.9248,2.9712,2.936,2.936,0,0,1-1.8789-5.2344,3.1644,3.1644,0,0,1,1.8476-.647A2.8893,2.8893,0,0,1,234.7627,68.3885Zm-4.8037-.2158a3.5219,3.5219,0,0,0,.6474,2.1093,1.8285,1.8285,0,0,0,1.4473.816,1.5221,1.5221,0,0,0,.97-.3848,3.0682,3.0682,0,0,0,.6465-2.063c0-1.4629-.7392-2.91-2.0937-2.91C230.791,65.74,229.959,66.5716,229.959,68.1727Z"/><path class="cls-4" d="M236.8271,66.6639c0,.647.585,1.0161.9708,1.247,1,.647,1.4,1.0318,1.4,1.8169a1.58,1.58,0,0,1-.8007,1.2935,2.5555,2.5555,0,0,1-1.2315.3384,3.1358,3.1358,0,0,1-1.2158-.2769c-.1231-.0464-.2314-.1538-.2314-.2466,0-.2153-.03-.6-.0459-.77-.0313-.2.0156-.2466.0459-.2466.0458,0,.0927,0,.2.2925a1.503,1.503,0,0,0,.6465.8316,1.1806,1.1806,0,0,0,.6934.1845,1.0556,1.0556,0,0,0,1.001-1.0312c0-.585-.4-.9087-1.0166-1.2935-.6621-.4311-1.2784-1.0005-1.2784-1.6782a1.46,1.46,0,0,1,.586-1.2163,1.9873,1.9873,0,0,1,1.293-.4312,3.76,3.76,0,0,1,1.0468.1695.2527.2527,0,0,1,.0772.1386c.0156.1695.0771.4776.0918.7237,0,.1694-.03.2466-.0762.2466-.0625,0-.0928-.0772-.1387-.1851a1.1691,1.1691,0,0,0-.37-.6314,1.2632,1.2632,0,0,0-.7236-.2309A.8974.8974,0,0,0,236.8271,66.6639Z"/><path class="cls-4" d="M244.9121,67.0491a.1809.1809,0,0,1-.1543.169c-.123-.0152-2.125-.0459-2.4785-.0459h-.8311c-.0312,0-.1084.0771-.1386.123a2.1133,2.1133,0,0,0-.1231.8467,2.76,2.76,0,0,0,.708,1.8633,2.0776,2.0776,0,0,0,1.5391.6308,1.9632,1.9632,0,0,0,1.4629-.4926c.123-.1231.1846-.0923.1846-.0152a.5856.5856,0,0,1-.1534.2461,2.7223,2.7223,0,0,1-2.1406.97,2.4854,2.4854,0,0,1-1.832-.7851,3.0105,3.0105,0,0,1-.7393-2.063,3.21,3.21,0,0,1,.8936-2.248,2.8626,2.8626,0,0,1,1.9238-.77A1.7768,1.7768,0,0,1,244.9121,67.0491Zm-3.1406-.7851a1.343,1.343,0,0,0-.3233.6308.0658.0658,0,0,0,.0616.0616l2.0009-.0152c.3389,0,.3692-.1694.3692-.3081a.9917.9917,0,0,0-.2149-.6465,1.08,1.08,0,0,0-.77-.2924A1.5957,1.5957,0,0,0,241.7715,66.264Z"/><path class="cls-4" d="M248.793,70.6053a1.7313,1.7313,0,0,1-.1846-.8775v-3.187c0-.1694-.0156-.2768-.0772-.3081a2.5369,2.5369,0,0,0-.3691-.0923c-.123-.0307-.2-.0766-.2-.1381,0-.0313.0156-.0772.1846-.1543a3.2823,3.2823,0,0,0,1.2627-1.0313c.1387-.1543.2461-.1235.2461-.0464,0,.1387-.03.57-.0147.7544,0,.0464.0147.1387.0762.1387.2773,0,1.5557-.0464,1.8789-.0464.03,0,.0918.1079.0918.2158,0,.2617-.0762.3848-.1533.3848-.5391,0-1.294-.0156-1.709-.0156-.1846,0-.2158.0464-.2158.1386,0,.2618.0156,2.6792.0312,3.1563a1.5778,1.5778,0,0,0,.169.8315,1.1378,1.1378,0,0,0,.9541.4156,1.5078,1.5078,0,0,0,.8476-.231c.1075-.0771.1533-.0615.1533,0,0,.0923-.1386.2466-.3388.4a2.1124,2.1124,0,0,1-1.2471.4A1.4268,1.4268,0,0,1,248.793,70.6053Z"/><path class="cls-4" d="M258.0322,68.3885a2.9485,2.9485,0,0,1-2.9248,2.9712,2.936,2.936,0,0,1-1.8789-5.2344,3.1644,3.1644,0,0,1,1.8477-.647A2.8893,2.8893,0,0,1,258.0322,68.3885Zm-4.8037-.2158a3.5214,3.5214,0,0,0,.6475,2.1093,1.8282,1.8282,0,0,0,1.4472.816,1.5226,1.5226,0,0,0,.97-.3848,3.0687,3.0687,0,0,0,.6465-2.063c0-1.4629-.7393-2.91-2.0938-2.91C254.0605,65.74,253.2285,66.5716,253.2285,68.1727Z"/><path class="cls-4" d="M221.58,83.3255c0,2.6787-.8,3.9722-1.57,4.48a2.205,2.205,0,0,1-1.2159.354c-2.0937,0-2.8486-2.7559-2.8486-4.5415,0-2.4175.6318-3.8955,1.8633-4.6035a2.1248,2.1248,0,0,1,1.0312-.2466C220.9336,78.7679,221.58,81.57,221.58,83.3255Zm-3.3711-3.9414a8.3675,8.3675,0,0,0-.585,3.6641c0,2.51.3233,4.896,1.2617,4.896.2159,0,.4473-.0923.6622-.7544a13.8569,13.8569,0,0,0,.3857-3.4952c0-2.3554-.4-4.6958-1.2168-4.6958A.6165.6165,0,0,0,218.209,79.3841Z"/><path class="cls-4" d="M222.7207,87.282a.8616.8616,0,0,1,.8467-.8774.83.83,0,0,1,.8164.8623.8342.8342,0,1,1-1.6631.0151Z"/><path class="cls-4" d="M226.94,79.2762a9.4692,9.4692,0,0,0,1.9551-.4,1.6162,1.6162,0,0,1,.3389-.1079c.03,0,.0615.0156.0615.1079,0,.2-.0156,1.57-.0459,2.5713-.0156,1.293.0146,4.5263.0459,5.1885.0459.9545.123,1.0468.77,1.1547.17.0308.2461.0923.2461.1539s-.0918.1079-.292.1079c-.7851,0-1.2627-.0772-1.8017-.0772-.7539,0-1.0469.0772-1.586.0772-.1386,0-.2617-.0308-.2617-.1236,0-.0615.0928-.0923.2471-.123.7236-.1231.8623-.2617.8926-1.17.0459-.4776.0771-1.3086.0771-3.9414,0-1.8628-.0156-2.3711-.0459-2.7559a.3763.3763,0,0,0-.2-.3389,2.3577,2.3577,0,0,0-.3857-.0923c-.0918-.0156-.23-.0615-.23-.123C226.7246,79.3377,226.8174,79.2913,226.94,79.2762Z"/><path class="cls-4" d="M234.333,78.3831c.585.0156,1.5859.0772,2.417.0772.0615,0,.1387.123.1846.2153.5234,1.2163,2.6943,5.62,3.2334,6.605.0312.0923.0771.0464.1084-.0156.4306-.77,2.2783-4.5723,2.6172-5.3267a12.84,12.84,0,0,0,.4765-1.2471c0-.0307.1084-.2309.1856-.2309.6923,0,1.1543-.0928,2.0937-.0928.2,0,.2764.0464.2764.1079,0,.0772-.1377.1387-.2461.1543-.8926.1846-.9238.3848-.97,1.2314-.0313.6158-.0313,2.1861-.0313,2.941,0,1.6777.0772,3.2177.1084,3.7412.0615.8774.2158,1.062.8467,1.247.1387.0459.2461.0923.2461.169,0,.062-.1074.1079-.2774.1079-.5537,0-1.2314-.0923-1.832-.0923s-1.3545.0464-1.57.0464c-.1074,0-.2773-.0156-.2773-.1235,0-.0616.1542-.1382.2617-.169.6318-.1387.7236-.4775.77-1.6631.0459-.8007.0615-4.5263.0615-5.373,0-.0615-.0469-.1694-.0771-.0464-1.0166,2.1094-2.6788,5.5581-3.2793,7.0054-.1231.2461-.1846.354-.2774.354s-.1689-.231-.2461-.4c-.5547-1.3237-2.7871-6.2505-3.1875-7.02-.0615-.1387-.0918-.1538-.123.0771-.0616.6465-.2,4.2954-.2,5.3579a5.2526,5.2526,0,0,0,.0615,1.062c.0615.3541.3545.585.8164.6778.1543.0307.2461.0923.2461.1538,0,.1079-.1387.1387-.292.123-.2773.0157-.8164-.0615-1.34-.0615-.4922,0-.9239.0772-1.1084.0772-.2315,0-.293-.0308-.293-.1079,0-.0464.0469-.108.2617-.1695.4473-.123.6777-.2153.832-.4463a3.8,3.8,0,0,0,.3536-1.6938c.0927-.8775.2929-4.0029.2929-5.1885,0-.9082-.0459-1.1084-.3388-1.4165a1.2779,1.2779,0,0,0-.8008-.3691c-.1074-.0308-.2461-.0928-.2461-.1695S234.24,78.3831,234.333,78.3831Z"/><path class="cls-4" d="M246.8994,82.7093a6.9682,6.9682,0,0,0,1.5088-.4619,1.3706,1.3706,0,0,1,.2305-.0923c.0468,0,.0771.0464.0615.2158-.03.3233-.03,1.1084-.03,1.7549,0,1.7246,0,2.956.03,3.187a.4666.4666,0,0,0,.416.4775c.169.0459.2158.0923.2158.1539,0,.0771-.1084.1079-.2314.1079-.2617,0-.6152-.0772-1.2627-.0772-.6768,0-1.0313.0308-1.2.0308-.1387,0-.2617-.0464-.2617-.1079,0-.0767.0918-.1075.2773-.1382.3994-.0928.5078-.293.5078-.8316,0-.4619.0459-3.1406.0459-3.2949,0-.2925,0-.354-.4-.6313-.0771-.0616-.123-.1075-.123-.169C246.6836,82.8021,246.73,82.7557,246.8994,82.7093Zm1.832-2.4478a.7373.7373,0,0,1-.7548.77.6961.6961,0,0,1-.6465-.708.7365.7365,0,0,1,.7236-.7852A.7246.7246,0,0,1,248.7314,80.2615Z"/><path class="cls-4" d="M252.1494,84.2337c0,2.0015.0156,2.6172.03,2.8945.0156.4927.1084.5542.5088.6465.0918.0156.1992.0615.1992.1387,0,.0615-.1533.1079-.3076.1079-.4619,0-1.0772-.0464-1.3086-.0464-.416,0-.7393.0308-1.1543.0308-.1543,0-.2774-.0308-.2774-.1079s.1075-.1075.2305-.1382c.416-.0772.5088-.1695.5391-.8316.0312-.6313.0927-3.4951.1084-4.9731,0-.8467.0146-2.4785,0-3.002,0-.3545-.0772-.4619-.4317-.6469-.1074-.0616-.1543-.1231-.1543-.169s.0928-.0927.2315-.1235a8.78,8.78,0,0,0,1.5547-.4312.6655.6655,0,0,1,.2158-.0615c.0312,0,.0615.0923.0615.1694,0,.108-.0459,2.6792-.0459,5.3423Z"/><path class="cls-4" d="M258.4629,83.8948a.2318.2318,0,0,1-.1846.2159c-.17-.0157-2.0791-.0464-2.4941-.0464H255.23c-.0459,0-.1074.0771-.1387.123a2.363,2.363,0,0,0-.0771.6314,2.5258,2.5258,0,0,0,.6777,1.8169,2.0738,2.0738,0,0,0,2.7715.1386c.1074-.1235.1689-.0927.1689-.0156s-.03.1231-.1074.231a2.7238,2.7238,0,0,1-2.2637,1.17,2.54,2.54,0,0,1-1.9091-.8,3.0632,3.0632,0,0,1-.7383-2.0786,3.1428,3.1428,0,0,1,1.0312-2.3555,2.9038,2.9038,0,0,1,1.878-.6929A1.8117,1.8117,0,0,1,258.4629,83.8948Zm-2.9561-.9389a1.8256,1.8256,0,0,0-.3388.7851c0,.0308.0312.0923.0771.0923l1.4629-.0151c.415,0,.4463-.231.4463-.37a1.1964,1.1964,0,0,0-.2158-.7392.7677.7677,0,0,0-.5694-.2617A1.198,1.198,0,0,0,255.5068,82.9559Z"/><path class="cls-4" d="M217.4541,99.2327c.1387,0,.2617.0308.2617.1074,0,.0464-.1533.108-.2617.1236-.3691.0615-.3535.2-.292.4463.23.7085.8926,2.4634,1.2471,3.3257.0156.0459.0771.0615.0918.0156.247-.5235.9238-2.0166,1.0781-2.417.0156-.0772.0615-.1851.03-.2622-.0762-.2-.1846-.4463-.2617-.6314a.82.82,0,0,0-.585-.5078c-.1387-.0307-.2148-.0615-.2148-.1235s.0761-.0923.23-.0923c.3233,0,.7237.0464,1.0469.0464.4463,0,.6318-.0308.9082-.0308.17,0,.2314.0308.2314.0767,0,.062-.1084.1235-.2314.1543-.3535.0766-.4463.1382-.2617.6157.17.4771.9853,2.71,1.2012,3.1875.0459.0772.0771.0147.0771,0,.1846-.4.9238-2.1553,1.1084-2.68a3.4978,3.4978,0,0,0,.2461-.7388c0-.1386-.0615-.2773-.4619-.3847-.2-.0615-.2461-.1079-.2461-.1543,0-.0615.0928-.0923.2-.0923.2617,0,.539.0464.7851.0464.1543,0,.5391-.0464.77-.0464.1386,0,.2158.0308.2158.0923s-.0459.0928-.2774.1543c-.2763.0766-.4619.2925-.6621.708-.2763.5542-.7382,1.6167-1.2158,2.71-.2617.6309-.539,1.3086-.7236,1.8008-.0928.2461-.1543.293-.2.293-.0615,0-.1074-.0615-.169-.2774-.0771-.2158-.1855-.5234-.37-1.0468-.292-.8311-.6152-1.709-.9238-2.5254-.0156-.0459-.0459-.0772-.0772,0-.1386.293-.7851,1.709-1,2.248-.2314.5078-.37.8623-.539,1.3086-.0772.2158-.1543.293-.2158.293s-.1075-.1084-.1543-.2774c-.0762-.2158-.169-.5849-.4307-1.3242-.2773-.7539-1.1543-3.0332-1.3242-3.3257a.8772.8772,0,0,0-.6778-.6c-.123-.0308-.2148-.0767-.2148-.1231,0-.0923.1074-.123.2774-.123.1992,0,.6611.0615,1.0927.0615C216.8389,99.2635,217.1465,99.2327,217.4541,99.2327Z"/><path class="cls-4" d="M228.1875,99.8641a3.7359,3.7359,0,0,1,.2148,1.4009c0,.57-.0459,2.0322-.0459,2.4326a.5273.5273,0,0,0,.5694.5849.98.98,0,0,0,.4472-.1386c.0918-.0459.1534,0,.0918.1386a1.2957,1.2957,0,0,1-1.1855.6621,1.0346,1.0346,0,0,1-.9082-.6923.0534.0534,0,0,0-.0772-.0157,2.1558,2.1558,0,0,1-1.5087.6924,1.2772,1.2772,0,0,1-1.2315-1.3232,1.0869,1.0869,0,0,1,.5537-.878c.37-.2,1.7715-.6162,2.0947-.7392a.2906.2906,0,0,0,.2-.2305,5.3181,5.3181,0,0,0,.03-.709c0-.6308-.1074-1.062-.3691-1.2622a1.1749,1.1749,0,0,0-.6465-.2466,1.0593,1.0593,0,0,0-.6162.1851.62.62,0,0,0-.2315.37,1.673,1.673,0,0,0-.0146.2925.1933.1933,0,0,1-.0615.1231,3.3354,3.3354,0,0,1-.7237.3393c-.0771.0147-.1543-.0771-.1543-.1387,0-.1084.1075-.247.293-.4624a3.9806,3.9806,0,0,1,1.17-.893,2.0661,2.0661,0,0,1,.9239-.2774A1.2626,1.2626,0,0,1,228.1875,99.8641Zm-1.0322,4.2339a.6394.6394,0,0,0,.17-.3692,11.0875,11.0875,0,0,0,.0771-1.4629c0-.0156-.0312-.0927-.0625-.0771a8.7774,8.7774,0,0,0-1.416.5234.7975.7975,0,0,0-.3847.77.8938.8938,0,0,0,.9238.8623A1.052,1.052,0,0,0,227.1553,104.098Z"/><path class="cls-4" d="M231.6221,101.0345c0,1.9394.0156,2.6631.0312,2.956.0147.4151.1074.5235.5381.6006.0928.0147.2.0615.2.1074,0,.0616-.1074.1075-.3076.1075-.2461,0-.8008-.03-1.0625-.03-.4,0-.8008.03-1.0313.03-.1845,0-.2617-.0147-.2617-.0918s.0772-.0928.2774-.1387c.3847-.0771.4765-.2158.538-.8936.0313-.5693.0928-3.1713.1084-5.019,0-1.2471.0157-2.5093,0-3.187,0-.3389-.0312-.4155-.4316-.6621-.1074-.0615-.1533-.0923-.1533-.1387s.0918-.0923.2305-.123a7.9851,7.9851,0,0,0,1.1552-.354.6534.6534,0,0,1,.1846-.0464c.03,0,.0459.0927.0459.1694,0,.1079-.0615,2.7715-.0615,5.0811Z"/><path class="cls-4" d="M237.4121,99.2635c.3379,0,.9541-.0772,1.3545-.0772.1689,0,.23.0464.23.0923,0,.0308-.0459.0928-.23.1236a2.7411,2.7411,0,0,0-1.416.6772c-.4.3081-1.1553.9551-1.4473,1.2315-.0312.0312,0,.0771.0147.1084.4619.539,1.57,1.7246,2.2939,2.4628a1.9832,1.9832,0,0,0,1.1094.7237c.1377.0312.23.0771.23.1386,0,.0928-.1387.1084-.2618.1084-.5234,0-1.1084-.0771-1.7089-.0771-.2618,0-.462.0156-.6924.0156-.17,0-.2774,0-.2774-.0928,0-.0771.0772-.1074.3535-.17.2618-.0615.293-.1992.1543-.415-.3232-.37-1.416-1.5244-1.8779-1.9863-.123-.1231-.2314-.2305-.293-.2305-.0459,0-.0615.0918-.0615.1533-.0156.2774-.03.7852-.0156,1.6318,0,.7393.123.7852.6006.8936.1543.0459.2314.0771.2314.1387,0,.0771-.123.1074-.2929.1074-.4307,0-.754-.0459-1.1543-.0459-.4932,0-.8164.0459-1.001.0459-.1543,0-.2461-.0459-.2461-.1074,0-.0469.0918-.0928.2-.1084.4765-.1231.5849-.2617.6152-.77.0615-1.124.0772-2.4169.0772-3.6181.0156-1.2012.0615-3.1719.0615-4.3726a2.6472,2.6472,0,0,0-.0615-.7085c-.03-.123-.169-.2153-.3545-.3076-.0762-.0464-.1377-.0771-.1377-.1079,0-.0615.0918-.0923.2461-.1387a9.4667,9.4667,0,0,0,1.0927-.3691.7181.7181,0,0,1,.2461-.0772c.0157,0,.0469.0464.0469.1231-.0312.5083-.0771,1.8628-.0771,3.0024,0,.4771-.0772,2.5093-.0772,4.2031,0,.17.0313.2461.0772.2461a.7693.7693,0,0,0,.3076-.1689,13.1881,13.1881,0,0,0,1.6631-1.54.5584.5584,0,0,0,.1689-.2769c0-.0923-.1074-.1851-.4463-.2466-.1386-.0151-.2617-.0615-.2617-.123s.1074-.1079.2461-.1079C236.8887,99.2479,237.2422,99.2635,237.4121,99.2635Z"/><path class="cls-4" d="M241.4932,101.82c-.1387-1.4321-.4776-3.9262-.5078-4.8808-.0157-.4619.2617-1.14.6777-1.14.4463,0,.6924.5391.6924,1.0777,0,.7085-.4463,4.0962-.5078,4.896-.0313.3242-.0928.4619-.17.4619C241.5859,102.2347,241.5244,102.1429,241.4932,101.82Zm-.5078,2.4327a.74.74,0,0,1,.708-.7237c.4619,0,.6162.5235.6162.7383a.6678.6678,0,0,1-.6162.6621A.6944.6944,0,0,1,240.9854,104.2523Z"/><polyline class="cls-5" points="256.96 115.627 261.538 120.205 256.96 124.783"/><line class="cls-1" x1="324.856" y1="111.3827" x2="263.4452" y2="111.3827"/><line class="cls-1" x1="263.4452" y1="128.298" x2="324.856" y2="128.298"/><line class="cls-1" x1="263.4452" y1="128.298" x2="324.856" y2="128.298"/><polyline class="cls-6" points="287.849 120.214 288.375 121.208 287.798 122.253"/><polyline class="cls-6" points="287.798 122.28 288.323 123.274 287.747 124.319"/><polyline class="cls-6" points="287.901 118.138 288.426 119.132 287.85 120.177"/><polyline class="cls-6" points="285.559 117.438 286.084 118.432 285.508 119.477"/><polyline class="cls-6" points="285.507 119.504 286.033 120.498 285.457 121.543"/><polyline class="cls-6" points="285.611 115.362 286.136 116.356 285.56 117.401"/><polyline class="cls-6" points="293.419 120.214 293.944 121.208 293.368 122.253"/><polyline class="cls-6" points="293.367 122.28 293.892 123.274 293.316 124.319"/><polyline class="cls-6" points="293.47 118.138 293.996 119.132 293.42 120.177"/><polyline class="cls-6" points="291.128 117.438 291.654 118.432 291.078 119.477"/><polyline class="cls-6" points="291.077 119.504 291.602 120.498 291.026 121.543"/><polyline class="cls-6" points="291.18 115.362 291.706 116.356 291.129 117.401"/><polyline class="cls-6" points="298.988 120.214 299.514 121.208 298.937 122.253"/><polyline class="cls-6" points="298.937 122.28 299.462 123.274 298.886 124.319"/><polyline class="cls-6" points="299.04 118.138 299.565 119.132 298.989 120.177"/><polyline class="cls-6" points="296.698 117.438 297.223 118.432 296.647 119.477"/><polyline class="cls-6" points="296.646 119.504 297.172 120.498 296.596 121.543"/><polyline class="cls-6" points="296.75 115.362 297.275 116.356 296.699 117.401"/><polyline class="cls-6" points="302.268 117.438 302.793 118.432 302.217 119.477"/><polyline class="cls-6" points="302.216 119.504 302.741 120.498 302.165 121.543"/><polyline class="cls-6" points="302.319 115.362 302.845 116.356 302.268 117.401"/></svg>