<svg id="Layer_1" data-name="Layer 1" xmlns="http://www.w3.org/2000/svg" viewBox="0 0 399 200"><defs><style>.cls-1{fill:#333838;}.cls-2,.cls-3,.cls-4,.cls-6,.cls-7{fill:none;stroke:#222f3c;}.cls-2,.cls-4,.cls-7{stroke-linecap:round;}.cls-2,.cls-4,.cls-6{stroke-linejoin:round;}.cls-2,.cls-3,.cls-6,.cls-7{stroke-width:0.5px;}.cls-3,.cls-7{stroke-miterlimit:10;}.cls-4{stroke-width:0.25px;}.cls-5{fill:#222f3c;}</style></defs><path class="cls-1" d="M287.82,58.3787a1.6319,1.6319,0,0,1,1.37-1.5088c.0772,0,.1387,0,.1387.0772,0,.0307-.0771.0766-.1689.1074-.462.2466-.8008.5542-.8008,1.0469,0,.3237.1533.5083.5693.6162a.3218.3218,0,0,1,.3076.3232.4446.4446,0,0,1-.4619.4.9948.9948,0,0,1-.9556-1.0327v0Zm1.9092,0a1.6712,1.6712,0,0,1,1.3857-1.5088c.0772,0,.1387.0308.1387.0772,0,.0307-.0615.0766-.1543.1074-.4619.2466-.8154.57-.8154,1.0469,0,.3237.169.5083.5849.6162a.3334.3334,0,0,1,.3077.3232.4723.4723,0,0,1-.4776.4,1.0073,1.0073,0,0,1-.97-1.0431v0l.0008-.0188Z"/><path class="cls-1" d="M292.3633,57.532c.37,0,1.001.0616,1.4629.0616.3388,0,.708-.0308,1.0312-.0308.2158,0,.3076.0459.3076.1079,0,.0767-.0918.1231-.2763.1538-.4317.0772-.4317.2617-.3233.5386.6465,1.6016,2.1709,4.8809,3.2178,7.19.0459.1074.1074.0767.1533,0,.4317-.8779.8008-1.6474,1.2168-2.6328a.4331.4331,0,0,0,.03-.185c-.2461-.585-1.2774-2.9253-1.6163-3.6641-.4462-.9546-.5693-1.1392-1.0469-1.2627-.2461-.0459-.3233-.1074-.3233-.1846,0-.0464.0918-.0923.292-.0923.4472,0,.7392.0616,1.2939.0616s.9082-.0616,1.2617-.0616c.1543,0,.2617.0308.2617.0923,0,.0772-.0918.1231-.292.1695-.416.0766-.5693.2617-.3388.831.2461.647.708,1.6939,1.2168,2.8638.0146.0307.0762.0464.123-.0308.3692-.7544.6924-1.4624,1.0156-2.2168.4776-1.124.462-1.2778-.2-1.4321-.2774-.0615-.3233-.123-.3233-.1846,0-.0464.0928-.0771.2774-.0771.3847,0,.6308.0464,1.0312.0464.5391,0,.7852-.0616,1.14-.0616.1845,0,.2617.0152.2617.0767,0,.0772-.0772.1235-.293.1694-.5693.1236-.8623.4468-1.37,1.34-.4.77-1.1543,2.2939-1.416,2.771a.2657.2657,0,0,0,.0156.185c.3848.9082,1.0615,2.3706,1.585,3.5254.0615.1079.1084.0772.1386,0,.7393-1.601,2.6026-5.9121,2.9258-7.0512.0772-.3389.0615-.6006-.4463-.7544-.247-.0772-.3388-.1079-.3388-.1695s.0459-.0923.2617-.0923c.4,0,.6152.0616,1.0771.0616.4317,0,.8467-.0616,1.124-.0616.2,0,.2774.0152.2774.0767s-.0772.1235-.3545.1694c-.6465.1695-.9238.4927-1.8936,2.6792-.97,2.1245-2.2168,5.0342-2.9248,6.7281-.1084.2617-.1543.354-.2314.354-.1074,0-.169-.1079-.2617-.354-.3233-.94-1.2-2.8482-1.6475-3.8335-.03-.062-.0771-.062-.1074-.0157-.585,1.1392-1.4014,2.941-1.74,3.8335-.0918.2466-.1846.37-.2461.37-.0918,0-.1231-.0923-.2305-.37-.2-.5078-.6777-1.6318-.8779-2.0937-.8467-1.9551-1.878-4.2339-2.6016-5.7427-.5546-1.2007-.6777-1.478-1.2626-1.5552-.1847-.0151-.3233-.0766-.3233-.1386C292.0557,57.5936,292.1631,57.532,292.3633,57.532Z"/><path class="cls-1" d="M309.8105,63.1209a.1809.1809,0,0,1-.1543.169c-.123-.0152-2.125-.0459-2.4785-.0459h-.831c-.0313,0-.1084.0771-.1387.123a2.116,2.116,0,0,0-.123.8467,2.7606,2.7606,0,0,0,.708,1.8633,2.0778,2.0778,0,0,0,1.539.6308,1.963,1.963,0,0,0,1.4629-.4927c.1231-.123.1846-.0922.1846-.0151a.5836.5836,0,0,1-.1533.2461,2.7221,2.7221,0,0,1-2.1407.97,2.4859,2.4859,0,0,1-1.832-.7851,3.0118,3.0118,0,0,1-.7392-2.063,3.21,3.21,0,0,1,.8935-2.2481,2.8628,2.8628,0,0,1,1.9238-.77A1.7769,1.7769,0,0,1,309.8105,63.1209Zm-3.1406-.7851a1.3427,1.3427,0,0,0-.3232.6308.0657.0657,0,0,0,.0615.0615l2.001-.0151c.3388,0,.3691-.1694.3691-.3081a.9928.9928,0,0,0-.2148-.6465,1.08,1.08,0,0,0-.77-.2925,1.5961,1.5961,0,0,0-1.1235.57Z"/><path class="cls-1" d="M313.0918,62.1507c0-.0459.0615-.0767.1846-.1079a3.0558,3.0558,0,0,0,1.0468-.4619.4454.4454,0,0,1,.2305-.0923c.0469,0,.0772.0615.0772.1543,0,.1689-.0157.6,0,.7544,0,.0615.0156.1382.0771.0923a3.2378,3.2378,0,0,1,1.9092-.8931,1.5758,1.5758,0,0,1,1.539.97.103.103,0,0,0,.1084.0313A3.0871,3.0871,0,0,1,320.374,61.55a1.5871,1.5871,0,0,1,1.5547,1.14,5.0254,5.0254,0,0,1,.1846,1.4472c.0156.5078.0469,1.6782.0615,2.2168.0156.5083.1084.6157.4463.6778.2158.0459.2773.0922.2773.1381,0,.0772-.0771.1079-.2617.1079-.1689,0-.708-.0307-1.0625-.0307-.3691,0-.708.0464-.9385.0464-.2,0-.3086-.0308-.3086-.0928,0-.0767.1387-.123.2618-.1538.4472-.0923.5234-.231.5234-.6929a19.535,19.535,0,0,0-.1074-3.0483,1.1925,1.1925,0,0,0-1.2255-1.1586h0q-.0338.0009-.0675.0038a1.9229,1.9229,0,0,0-1.3086.57.7519.7519,0,0,0-.1084.4927c.0313.4311.0772,2.7866.1084,3.2021.0459.4312.0918.5391.4766.6314.17.0615.2471.0771.2471.1387s-.0928.0922-.2618.0922c-.2773,0-.7392-.0307-1.1855-.0307-.3389,0-.708.0307-.8779.0307s-.2461-.0307-.2461-.0922c0-.0464.0771-.1079.2773-.1538.3232-.0621.4766-.1387.4766-.5083l.0156-2.4634c0-.8467-.0772-1.2007-.3848-1.54a1.1764,1.1764,0,0,0-.9394-.3388,1.7416,1.7416,0,0,0-1.1543.4467.559.559,0,0,0-.1846.3692,9.4949,9.4949,0,0,0-.0615,1.0473c0,1.1392.0615,2.2168.0918,2.4942a.5254.5254,0,0,0,.4931.5078c.1691.0308.2305.0771.2305.123,0,.0772-.1228.1079-.2305.1079-.2929,0-.8006-.0307-1.1709-.0307-.4765,0-.8.0307-1,.0307-.1386,0-.2773-.0463-.2773-.1079s.0928-.1074.3076-.1381c.4776-.108.4776-.2774.5088-.462.0615-.3237.0615-1.5708.0615-2.4633,0-.57.0147-.9546-.0156-1.2471a.5818.5818,0,0,0-.3545-.5391c-.1074-.0615-.1387-.0923-.1387-.1694Z"/><path class="cls-1" d="M323.8555,61.9969a7.6481,7.6481,0,0,0,1.1084-.4.6245.6245,0,0,1,.2314-.1079c.0459,0,.0762.0464.0615.2158-.0312.3076-.0312,1.2471-.0312,2.2324,0,1.293,0,2.4326.0312,2.6944.03.3076.1846.3847.4307.4463.1543.0307.2314.0615.2314.123,0,.0771-.124.1079-.247.1079-.1387,0-.708-.0615-1.124-.0615-.5079,0-.754.0307-.9239.0307-.1074,0-.2148-.0307-.2148-.0922s.0771-.1079.292-.1387c.3388-.0923.4775-.2153.4931-.8467.0157-.4619.0459-3.2641.0459-3.418,0-.2158-.0156-.3081-.4463-.539-.0771-.0459-.123-.0923-.123-.1231C323.6709,62.074,323.7168,62.0276,323.8555,61.9969Zm1.54-2.51a.5865.5865,0,0,1-.57.585.5478.5478,0,0,1-.5078-.5694.5711.5711,0,0,1,.539-.6.5637.5637,0,0,1,.5388.5846Z"/><path class="cls-1" d="M327.7666,62.7357c0,.6469.585,1.0161.9707,1.247,1,.647,1.4,1.0318,1.4,1.8169a1.58,1.58,0,0,1-.8008,1.2935,2.5546,2.5546,0,0,1-1.2314.3384,3.1358,3.1358,0,0,1-1.2159-.2769c-.123-.0464-.2315-.1538-.2315-.2466,0-.2153-.03-.6-.0459-.77-.0311-.2.0155-.2466.0459-.2466.0459,0,.0928,0,.2.2925a1.5008,1.5008,0,0,0,.6465.8315,1.18,1.18,0,0,0,.6933.1846,1.0557,1.0557,0,0,0,1.001-1.0312c0-.585-.4-.9087-1.0166-1.2935-.6621-.4312-1.2783-1-1.2783-1.6782a1.46,1.46,0,0,1,.5859-1.2163,1.9875,1.9875,0,0,1,1.293-.4312,3.7645,3.7645,0,0,1,1.0469.1694.2528.2528,0,0,1,.0771.1387c.0157.1694.0772.4776.0918.7236,0,.1695-.03.2466-.0761.2466-.0625,0-.0928-.0771-.1387-.185a1.17,1.17,0,0,0-.37-.6314,1.2632,1.2632,0,0,0-.7237-.2309.8973.8973,0,0,0-.9248.8689v0C327.7643,62.6783,327.7647,62.707,327.7666,62.7357Z"/><path class="cls-1" d="M332.14,62.7357c0,.6469.585,1.0161.9708,1.247,1,.647,1.4,1.0318,1.4,1.8169a1.58,1.58,0,0,1-.8007,1.2935,2.555,2.555,0,0,1-1.2315.3384,3.1353,3.1353,0,0,1-1.2158-.2769c-.1231-.0464-.2315-.1538-.2315-.2466,0-.2153-.03-.6-.0458-.77-.0313-.2.0156-.2466.0458-.2466.0459,0,.0928,0,.2.2925a1.5032,1.5032,0,0,0,.6465.8315,1.18,1.18,0,0,0,.6934.1846,1.0555,1.0555,0,0,0,1.001-1.0312c0-.585-.4-.9087-1.0166-1.2935-.6621-.4312-1.2784-1-1.2784-1.6782a1.46,1.46,0,0,1,.586-1.2163,1.988,1.988,0,0,1,1.2929-.4312,3.7639,3.7639,0,0,1,1.0469.1694.252.252,0,0,1,.0772.1387c.0156.1694.0771.4776.0918.7236,0,.1695-.03.2466-.0762.2466-.0625,0-.0928-.0771-.1387-.185a1.1681,1.1681,0,0,0-.37-.6314,1.2629,1.2629,0,0,0-.7236-.2309.8975.8975,0,0,0-.925.8688C332.1377,62.6781,332.1382,62.707,332.14,62.7357Z"/><path class="cls-1" d="M338.3926,66.6771a1.7316,1.7316,0,0,1-.1846-.8775v-3.187c0-.1694-.0156-.2768-.0771-.3081a2.5232,2.5232,0,0,0-.3692-.0923c-.123-.0307-.2-.0766-.2-.1382,0-.0312.0156-.0771.1846-.1543a3.28,3.28,0,0,0,1.2627-1.0312c.1387-.1543.2461-.1235.2461-.0464,0,.1387-.03.57-.0147.7544,0,.0464.0147.1387.0762.1387.2774,0,1.5557-.0464,1.8789-.0464.03,0,.0918.1079.0918.2158,0,.2617-.0762.3848-.1533.3848-.5391,0-1.294-.0157-1.709-.0157-.1846,0-.2158.0464-.2158.1387,0,.2617.0156,2.6792.0312,3.1563a1.5794,1.5794,0,0,0,.169.8315,1.1377,1.1377,0,0,0,.9541.4155,1.5076,1.5076,0,0,0,.8476-.2309c.1075-.0772.1534-.0615.1534,0,0,.0923-.1387.2466-.3389.4a2.1126,2.1126,0,0,1-1.2471.4A1.4271,1.4271,0,0,1,338.3926,66.6771Z"/><path class="cls-1" d="M343.5361,62.659a.7725.7725,0,0,0-.1543.5693,30.3744,30.3744,0,0,0,.0772,3.3106.5437.5437,0,0,0,.4922.5234c.2314.0459.3388.0767.3388.1538,0,.0464-.0918.0923-.23.0923-.4317,0-.8321-.0615-1.2784-.0615-.4775,0-.708.0615-1.0009.0615-.169,0-.2461-.0308-.2461-.0923s.0615-.0923.2461-.1386c.4472-.108.5547-.1539.57-.7388.0459-.6162.0615-2.0322.0615-4.4805,0-2.3247.03-3.2641,0-3.8491-.0156-.4927-.123-.5386-.4619-.7236-.0615-.0459-.1084-.0767-.1084-.1231s.0928-.0923.2617-.1387a6.3378,6.3378,0,0,0,1.124-.37.3385.3385,0,0,1,.1543-.0615c.0459,0,.0928.1079.0772.3237-.0156.4155-.0772,5.1885-.0615,5.481,0,.0615.0459.0766.0615.0459a5.0513,5.0513,0,0,1,.9238-.6314A2.42,2.42,0,0,1,345.46,61.55a1.6394,1.6394,0,0,1,1.3857.6929,2.97,2.97,0,0,1,.3389,1.6474c.0156,1.1548.0156,2.1094.0312,2.6944,0,.3081.0615.416.5235.4927.2.0463.2461.0771.2461.1386s-.1075.1079-.2461.1079c-.4,0-.6934-.0771-1.1084-.0771-.5235,0-.6475.0615-1.001.0615-.1846,0-.2461-.0459-.2461-.0923,0-.0615.0762-.0923.2305-.123.416-.0923.4462-.2.5078-.647.0312-.354.0615-1.0312.0615-2.6323a2.4675,2.4675,0,0,0-.2305-1.1548,1.1525,1.1525,0,0,0-1.0625-.57A1.8587,1.8587,0,0,0,343.5361,62.659Z"/><path class="cls-1" d="M353.376,63.1209a.181.181,0,0,1-.1543.169c-.1231-.0152-2.125-.0459-2.4785-.0459h-.8311c-.0311,0-.1084.0771-.1387.123a2.1112,2.1112,0,0,0-.124.8467,2.7613,2.7613,0,0,0,.7092,1.8633,2.0772,2.0772,0,0,0,1.539.6308,1.9628,1.9628,0,0,0,1.4628-.4927c.123-.123.1846-.0922.1846-.0151a.586.586,0,0,1-.1532.2461,2.7228,2.7228,0,0,1-2.1406.97,2.4858,2.4858,0,0,1-1.8321-.7851,3.0108,3.0108,0,0,1-.7392-2.063,3.2094,3.2094,0,0,1,.8935-2.2481,2.8626,2.8626,0,0,1,1.9239-.77A1.7767,1.7767,0,0,1,353.376,63.1209Zm-3.1406-.7851a1.3437,1.3437,0,0,0-.3233.6308.0657.0657,0,0,0,.0615.0615l2.001-.0151c.3389,0,.3692-.1694.3692-.3081a.9917.9917,0,0,0-.2149-.6465,1.08,1.08,0,0,0-.77-.2925A1.5956,1.5956,0,0,0,350.2354,62.3358Z"/><path class="cls-1" d="M354.3018,62.1507c0-.0459.0615-.0767.1845-.1079a3.0544,3.0544,0,0,0,1.0469-.4619.4458.4458,0,0,1,.23-.0923c.0468,0,.0771.0615.0771.1543,0,.1689-.0156.6,0,.7544,0,.0615.0156.1382.0772.0923a3.2372,3.2372,0,0,1,1.9091-.8931,1.576,1.576,0,0,1,1.5391.97.103.103,0,0,0,.1084.0313,3.0873,3.0873,0,0,1,2.11-1.0478,1.5872,1.5872,0,0,1,1.5547,1.14,5.0214,5.0214,0,0,1,.1845,1.4472c.0157.5078.0469,1.6782.0616,2.2168.0156.5083.1084.6157.4463.6778.2158.0459.2773.0922.2773.1381,0,.0772-.0772.1079-.2617.1079-.169,0-.708-.0307-1.0625-.0307-.3692,0-.708.0464-.9385.0464-.2,0-.3086-.0308-.3086-.0928,0-.0767.1387-.123.2617-.1538.4473-.0923.5235-.231.5235-.6929a19.5346,19.5346,0,0,0-.1075-3.0483,1.1924,1.1924,0,0,0-1.2251-1.1586h0q-.0339.0009-.0677.0038a1.9227,1.9227,0,0,0-1.3086.57.7519.7519,0,0,0-.1084.4927c.0312.4311.0771,2.7866.1084,3.2021.0459.4312.0918.5391.4765.6314.17.0615.2471.0771.2471.1387s-.0928.0922-.2617.0922c-.2773,0-.7393-.0307-1.1856-.0307-.3388,0-.7089.0307-.8779.0307s-.2461-.0307-.2461-.0922c0-.0464.0772-.1079.2774-.1538.3232-.0621.4765-.1387.4765-.5083l.0157-2.4634c0-.8467-.0772-1.2007-.3848-1.54a1.1766,1.1766,0,0,0-.94-.3388,1.7419,1.7419,0,0,0-1.1543.4467.5585.5585,0,0,0-.1845.3692,9.4222,9.4222,0,0,0-.0616,1.0473c0,1.1392.0616,2.2168.0918,2.4942a.5256.5256,0,0,0,.4932.5078c.169.0308.23.0771.23.123,0,.0772-.1231.1079-.23.1079-.293,0-.8008-.0307-1.17-.0307-.4776,0-.8008.0307-1.001.0307-.1387,0-.2774-.0463-.2774-.1079s.0928-.1074.3075-.1381c.4776-.108.4776-.2774.5088-.462.0615-.3237.0615-1.5708.0615-2.4633,0-.57.0146-.9546-.0156-1.2471a.582.582,0,0,0-.3545-.5391c-.1074-.0615-.1387-.0923-.1387-.1694Z"/><path class="cls-1" d="M299.877,83.1536a3.4732,3.4732,0,0,1-2.3711,1.0625,4.7535,4.7535,0,0,1-1.77-.3847c-.1084-.0621-.2159-.0308-.4473.0459-.0459.0156-.0918-.0616-.0762-.108.03-.2153.0615-.5542.0918-1.4008.0313-.7544.1084-4.1568.1084-5.0655,0-1.1084-.0312-2.3862-.0469-2.6328-.03-.3076-.0918-.3691-.415-.5849-.124-.0767-.1856-.1231-.1856-.1695s.0772-.1074.3086-.1382a5.3445,5.3445,0,0,0,1.0928-.3081.5711.5711,0,0,1,.2461-.0615c.0313,0,.0615.0615.0469.2769-.0469.9238-.0772,3.1255-.0772,5.1577,0,.0771.0616.0928.0772.0771a2.7481,2.7481,0,0,1,1.6474-.5234,2.52,2.52,0,0,1,1.8467.8315,2.7659,2.7659,0,0,1,.6934,1.8472A2.8865,2.8865,0,0,1,299.877,83.1536Zm-.8936-3.541a2.214,2.214,0,0,0-1.57-.7544,1.5238,1.5238,0,0,0-.9238.2617.6385.6385,0,0,0-.1387.4156c-.03.2465-.0156,1.4472-.0156,2.0478a5.2029,5.2029,0,0,0,.2158,1.6475,1.092,1.092,0,0,0,.416.3847,2.1137,2.1137,0,0,0,1.0312.2925,1.5356,1.5356,0,0,0,1.0625-.5542,3.2932,3.2932,0,0,0,.5391-1.9092,3.0511,3.0511,0,0,0-.6165-1.832Z"/><path class="cls-1" d="M306.36,79.9207a.1811.1811,0,0,1-.1543.169c-.1231-.0152-2.125-.0459-2.4786-.0459h-.831c-.0313,0-.1084.0771-.1387.123a2.1112,2.1112,0,0,0-.124.8467,2.7611,2.7611,0,0,0,.709,1.8633,2.0767,2.0767,0,0,0,1.539.6308,1.9636,1.9636,0,0,0,1.4629-.4926c.1231-.1231.1846-.0923.1846-.0152a.5852.5852,0,0,1-.1533.2461,2.7222,2.7222,0,0,1-2.1406.97,2.486,2.486,0,0,1-1.8321-.7851,3.0108,3.0108,0,0,1-.7392-2.063,3.21,3.21,0,0,1,.8935-2.2481,2.8626,2.8626,0,0,1,1.9238-.77A1.777,1.777,0,0,1,306.36,79.9207Zm-3.1407-.7851a1.3427,1.3427,0,0,0-.3232.6308.0657.0657,0,0,0,.0615.0615l2.001-.0151c.3389,0,.3691-.1694.3691-.3081a.9928.9928,0,0,0-.2148-.6465,1.08,1.08,0,0,0-.77-.2925,1.5962,1.5962,0,0,0-1.1229.57Z"/><path class="cls-1" d="M307.8857,83.4769a1.7326,1.7326,0,0,1-.1845-.8775v-3.187c0-.1694-.0157-.2768-.0772-.3081a2.5219,2.5219,0,0,0-.3691-.0923c-.1231-.0307-.2-.0766-.2-.1382,0-.0312.0156-.0771.1846-.1543a3.2825,3.2825,0,0,0,1.2627-1.0312c.1386-.1543.246-.1235.246-.0464,0,.1387-.03.57-.0146.7544,0,.0464.0146.1387.0762.1387.2773,0,1.5556-.0464,1.8789-.0464.03,0,.0918.1079.0918.2158,0,.2617-.0762.3848-.1533.3848-.5391,0-1.294-.0157-1.709-.0157-.1846,0-.2159.0464-.2159.1387,0,.2617.0157,2.6792.0313,3.1563a1.5793,1.5793,0,0,0,.1689.8315,1.1375,1.1375,0,0,0,.9541.4155,1.5079,1.5079,0,0,0,.8477-.2309c.1074-.0772.1533-.0615.1533,0,0,.0923-.1386.2466-.3388.4a2.1105,2.1105,0,0,1-1.2471.4A1.4271,1.4271,0,0,1,307.8857,83.4769Z"/><path class="cls-1" d="M313.3525,78.5042c.1387,0,.2618.0308.2618.1074,0,.0464-.1534.1079-.2618.1236-.3691.0615-.3535.2-.292.4463.2305.7085.8926,2.4633,1.2471,3.3256.0156.0459.0772.0616.0918.0152.2471-.5235.9238-2.0166,1.0781-2.417.0157-.0772.0616-.1846.03-.2617-.0762-.2-.1846-.4463-.2617-.6314a.819.819,0,0,0-.585-.5078c-.1386-.0308-.2148-.0615-.2148-.1235s.0762-.0923.23-.0923c.3232,0,.7236.0464,1.0468.0464.4463,0,.6319-.0308.9082-.0308.17,0,.2315.0308.2315.0767,0,.062-.1083.1235-.2315.1543-.3534.0766-.4462.1386-.2616.6157.17.477.9855,2.71,1.2012,3.187.0459.0772.077.0151.077,0,.1846-.4.9239-2.1553,1.1084-2.6787a3.5023,3.5023,0,0,0,.2461-.7393c0-.1386-.0615-.2773-.4619-.3847-.2-.0616-.2461-.1079-.2461-.1543,0-.0616.0928-.0923.2-.0923.2617,0,.5391.0464.7852.0464.1543,0,.539-.0464.77-.0464.1387,0,.2158.0307.2158.0923s-.0459.0927-.2773.1543c-.2764.0766-.4619.2924-.6621.708-.2764.5542-.7383,1.6167-1.2158,2.71-.2618.6309-.5391,1.3086-.7237,1.8013-.0928.2461-.1543.2925-.2.2925-.0615,0-.1074-.0615-.1689-.2774-.0772-.2153-.1856-.5234-.37-1.0468-.292-.8311-.6153-1.709-.9239-2.5249-.0156-.0464-.0459-.0772-.0771,0-.1387.2924-.7852,1.709-1,2.248-.2315.5078-.37.8618-.5391,1.3086-.0771.2153-.1543.2925-.2158.2925s-.1074-.1079-.1543-.2774c-.0762-.2153-.1689-.5849-.4307-1.3237-.2773-.7544-1.1543-3.0332-1.3241-3.3257a.8774.8774,0,0,0-.6778-.6006c-.1231-.0307-.2149-.0766-.2149-.123,0-.0923.1076-.1231.2774-.1231.1992,0,.6611.0616,1.0929.0616C312.7373,78.535,313.0449,78.5042,313.3525,78.5042Z"/><path class="cls-1" d="M325.041,79.9207a.1809.1809,0,0,1-.1543.169c-.123-.0152-2.125-.0459-2.4785-.0459h-.8311c-.0312,0-.1083.0771-.1386.123a2.1108,2.1108,0,0,0-.1231.8467,2.76,2.76,0,0,0,.708,1.8633,2.0778,2.0778,0,0,0,1.5391.6308,1.9636,1.9636,0,0,0,1.4629-.4926c.123-.1231.1846-.0923.1846-.0152a.5864.5864,0,0,1-.1534.2461,2.7223,2.7223,0,0,1-2.1406.97,2.4856,2.4856,0,0,1-1.832-.7851,3.0109,3.0109,0,0,1-.7393-2.063,3.21,3.21,0,0,1,.8936-2.2481,2.8624,2.8624,0,0,1,1.9238-.77A1.7768,1.7768,0,0,1,325.041,79.9207Zm-3.141-.7851a1.3428,1.3428,0,0,0-.3233.6308.0657.0657,0,0,0,.0616.0615l2.0009-.0151c.3389,0,.3692-.1694.3692-.3081a.9917.9917,0,0,0-.2149-.6465,1.08,1.08,0,0,0-.77-.2925A1.596,1.596,0,0,0,321.9,79.1356Z"/><path class="cls-1" d="M330.6,79.9207a.1808.1808,0,0,1-.1543.169c-.123-.0152-2.125-.0459-2.4785-.0459h-.8311c-.0312,0-.1084.0771-.1386.123a2.1144,2.1144,0,0,0-.1231.8467,2.7606,2.7606,0,0,0,.708,1.8633,2.078,2.078,0,0,0,1.5391.6308,1.9636,1.9636,0,0,0,1.4629-.4926c.123-.1231.1846-.0923.1846-.0152a.5854.5854,0,0,1-.1534.2461,2.7222,2.7222,0,0,1-2.1406.97,2.4857,2.4857,0,0,1-1.832-.7851,3.0114,3.0114,0,0,1-.7393-2.063,3.21,3.21,0,0,1,.8936-2.2481,2.8626,2.8626,0,0,1,1.9238-.77A1.7768,1.7768,0,0,1,330.6,79.9207Zm-3.1406-.7851a1.3437,1.3437,0,0,0-.3233.6308.0657.0657,0,0,0,.0616.0615l2.0009-.0151c.3389,0,.3692-.1694.3692-.3081a.9917.9917,0,0,0-.2149-.6465,1.08,1.08,0,0,0-.77-.2925,1.5959,1.5959,0,0,0-1.1234.57Z"/><path class="cls-1" d="M336.3135,78.8738a3.2181,3.2181,0,0,1,.4922,2.0166c0,.816.0156.9395.0156,1.709.0156,1.0469.0615,1.1392.4775,1.2471.1387.0615.23.0923.23.1538,0,.0928-.1231.1079-.2773.1079-.2,0-.6465-.0615-.9854-.0615-.5234,0-.7236.0615-.9541.0615-.1387,0-.2461-.0307-.2461-.0923s.0918-.123.292-.1694c.37-.0923.4316-.2.4316-.6465V81.1063c0-1.2471-.1084-1.6167-.4931-1.9092a1.366,1.366,0,0,0-.878-.2925,1.8408,1.8408,0,0,0-1.2.4927.7919.7919,0,0,0-.1846.4619c0,.1846.0146.97.0146,1.8935a12.5525,12.5525,0,0,0,.0928,1.6167c.0459.3384.23.4156.4775.4927.1846.0459.2618.0767.2618.1538,0,.0923-.1543.0923-.3086.0923-.1231,0-.877-.0615-1.2315-.0615-.2,0-.5234.0308-.8154.0308-.17,0-.293-.0308-.293-.108,0-.0615.1387-.123.3233-.1538.3847-.0771.4463-.1845.4619-.4926.0312-1.1084.0312-2.5249.0312-3.772,0-.1538-.0312-.3233-.4-.5235-.0927-.0615-.123-.0922-.123-.1386,0-.0308.0762-.0772.2148-.1231a5.7938,5.7938,0,0,0,1.2168-.5234c.0459-.0156.1231.0459.1075.123a6.9035,6.9035,0,0,0-.03.816c0,.0307.0459.0771.0762.0463a5.3182,5.3182,0,0,1,1.0937-.6928,2.0775,2.0775,0,0,1,.9082-.1851A1.5724,1.5724,0,0,1,336.3135,78.8738Z"/><path class="cls-1" d="M345.3379,80.7674c0,.0459.03.0923.0615.0923.2617,0,.97-.0152,1.2-.0308a.1149.1149,0,0,1,.0469.0923c0,.0615-.0469.3848-.1543.4312l-1.0781.0156a.1247.1247,0,0,0-.0762.1074c0,.37,0,.94.0146,1.34.0313.7852.0772.9234.6319,1.0162.1386.0151.2617.0615.2617.1381,0,.0308-.0615.1236-.2617.1236-.3545.0151-1.1084-.0464-1.5088-.0464-.6162,0-1.0781.0615-1.5088.0615-.1387,0-.2617-.0771-.2617-.1079,0-.0767.0918-.123.2763-.1538.586-.0923.6475-.2.709-1.1392.03-.37.03-.893.03-1.2011,0-.0459-.0155-.1231-.077-.1231-1.6474,0-2.94.0308-3.31.0615-.1084,0-.1846-.0615-.1846-.123,0-.0464.0458-.0923.2149-.37l4.5878-6.4663a.41.41,0,0,1,.2471-.2h.1231c.23,0,.1229.1386.0459.2617l-4.5108,6.2353a.0789.0789,0,0,0,.0615.0772c.1387.0464,1.832.0464,2.74.0464a.0841.0841,0,0,0,.0614-.0772V78.35a.5689.5689,0,0,1,.1387-.4155,3.815,3.815,0,0,1,1.3242-.4312c.1074,0,.1543.1231.1543.4Z"/><path class="cls-1" d="M349.9893,83.4925a1.9192,1.9192,0,0,1-.1856-.9546V79.3817c0-.1231-.0146-.2-.1074-.2618a1.0452,1.0452,0,0,0-.2461-.0923c-.1231-.0307-.2-.0771-.2-.1538,0-.0463.0771-.1235.2461-.2158a5.0747,5.0747,0,0,0,1.4473-1.0932c.2314-.231.3388-.1695.3388-.0923,0,.1079-.0312.7544-.0156.8774,0,.0464.0156.1543.0772.1543.2929-.0156,1.3242-.0464,1.57-.0308.0312,0,.123.1075.123.2769,0,.3389-.1074.354-.1689.354h-1.3555c-.1846,0-.2148.062-.2148.1387,0,.3388-.0157,2.8022,0,3.2026a1.0962,1.0962,0,0,0,.1689.708.952.952,0,0,0,.7393.3389,1.2389,1.2389,0,0,0,.708-.1851c.1543-.0923.2-.0459.2,0,0,.0928-.0772.2159-.3233.416a2.12,2.12,0,0,1-1.3857.462A1.5082,1.5082,0,0,1,349.9893,83.4925Z"/><path class="cls-1" d="M359.6123,81.2137a3.0808,3.0808,0,0,1-1.2012,2.4175,3.2568,3.2568,0,0,1-1.8466.6,2.9767,2.9767,0,0,1-3.0926-2.8561v0q-.0017-.0419-.0022-.0837a2.83,2.83,0,0,1,1.0928-2.2788,3.1374,3.1374,0,0,1,1.9707-.708,2.9213,2.9213,0,0,1,3.0749,2.7593C359.6107,81.1136,359.6122,81.1637,359.6123,81.2137Zm-4.5107-.3384a4.6084,4.6084,0,0,0,.4775,2.2632,1.4893,1.4893,0,0,0,1.17.8467.9112.9112,0,0,0,.708-.354,3.6415,3.6415,0,0,0,.5078-2.0943c0-1.7549-.4921-2.9712-1.57-2.9712C355.7324,78.5657,355.1016,79.5355,355.1016,80.8753Z"/><path class="cls-1" d="M367.7139,75.0091c.4306-.0151.7226-.0308.8466-.0308.0616,0,.169.0157.1846.0616a.2356.2356,0,0,1-.0469.1694,18.7759,18.7759,0,0,0-1.2,2.2016c-1.14,2.3863-2.31,4.896-3.4492,7.2515-.0459.0772-.1074.1851-.1533.1851a.2072.2072,0,0,1-.2-.2141v-.0017A2.0449,2.0449,0,0,1,363.957,84c1.2315-2.4785,2.5244-5.1577,3.5869-7.3745a.0746.0746,0,0,0-.03-.1013l0,0-.0162-.0065c-.2-.0308-.7392-.0459-2.1406-.0459-1.0156,0-1.37,0-1.7392.0307-.5391.0459-.6006.0923-.8164.3848-.0772.0923-.1534.1846-.23.1846s-.1084-.1231.0156-.3233a6.47,6.47,0,0,0,.5078-1.5087.8633.8633,0,0,1,.0772-.3077c.0459-.0464.123-.0156.2,0a12.1313,12.1313,0,0,0,2.0781.0923C367.0664,75.0247,367.56,75.0091,367.7139,75.0091Z"/><path class="cls-1" d="M296.9053,96.09a.5372.5372,0,0,0-.1543.4c-.0156,1.4931.0312,3.0791.0771,3.6025.0459.2925.1231.4927.4922.57.17.03.2774.0762.2774.1377,0,.0469-.0918.124-.2774.124-.4463,0-1.0615-.0771-1.3232-.0771-.6621,0-.8623.0615-1.2325.0615-.169,0-.2763-.0459-.2763-.1084s.0614-.1074.246-.1533c.4306-.0923.4921-.2.5079-.6929.0311-.5386.0459-2.0014.0459-4.1108,0-2.3091.0155-3.418-.0148-3.9258-.0311-.4927-.077-.5234-.462-.7085-.0615-.0459-.1084-.0923-.1084-.1382,0-.0615.0928-.1079.2617-.1543a11.0177,11.0177,0,0,0,1.586-.4927.7636.7636,0,0,1,.2-.0615c.0459,0,.0928.0464.0928.2925,0,.231-.0928,4.9424-.0772,5.1733,0,.0308.0459.0767.0772.0459a4.0438,4.0438,0,0,1,.831-.5385,2.17,2.17,0,0,1,.94-.231,1.7134,1.7134,0,0,1,1.4472.6621,2.6347,2.6347,0,0,1,.3848,1.6162c.0156,1.0318.0156,1.9707.03,2.7564,0,.2617.0469.4463.462.5234.2.0459.2616.0762.2616.1533s-.169.1084-.2616.1084c-.462,0-.6466-.0771-1.2471-.0771-.7695,0-.8.0615-1.2774.0615-.1846,0-.2461-.0615-.2461-.1084,0-.0615.0762-.0918.23-.123.4462-.1226.4621-.2613.5079-.7691.0313-.3545.0616-1.1548.0616-2.4175a3.1184,3.1184,0,0,0-.2-1.247.9956.9956,0,0,0-.9385-.5078A1.4145,1.4145,0,0,0,296.9053,96.09Z"/><path class="cls-1" d="M308.0078,98.014a3.0832,3.0832,0,0,1-1.2,2.4175,3.2617,3.2617,0,0,1-1.8476.6,2.9767,2.9767,0,0,1-3.0926-2.8561v0q-.0016-.0418-.0022-.0837a2.83,2.83,0,0,1,1.0928-2.2788,3.1372,3.1372,0,0,1,1.9707-.708,2.9214,2.9214,0,0,1,3.0747,2.7594Q308.0077,97.9391,308.0078,98.014Zm-4.5107-.3384a4.6084,4.6084,0,0,0,.4775,2.2632,1.4893,1.4893,0,0,0,1.17.8467.9112.9112,0,0,0,.708-.354,3.6406,3.6406,0,0,0,.5079-2.0943c0-1.7549-.4922-2.9712-1.57-2.9712C304.1279,95.366,303.4971,96.3358,303.4971,97.6756Z"/><path class="cls-1" d="M309.6572,100.4315a1.6675,1.6675,0,0,1-.3076-1.0782c-.0156-.5078-.0312-2.956-.0459-3.2329-.0156-.3081-.1084-.3847-.3545-.5234-.123-.0772-.1689-.1387-.1689-.1851s.0918-.0766.23-.0766a8.2,8.2,0,0,0,1.7862-.2c.0615-.0157.0918.0923.0918.1694-.0459.8774-.0616,2.7866-.0459,3.71a1.625,1.625,0,0,0,.2.9389,1.0189,1.0189,0,0,0,.8164.3389,1.1976,1.1976,0,0,0,.8467-.3081.752.752,0,0,0,.2-.585c.03-.4927.0459-1.2622.0459-1.6474,0-.231,0-1.0933-.0311-1.4932-.0458-.5234-.1073-.6006-.5538-.6777-.1846-.0308-.2774-.0923-.2774-.1382,0-.0772.1543-.1079.2619-.1079h.8006c.5547,0,1.0469-.1387,1.2471-.1387.0459,0,.0773.0771.0773.1694-.0617.5542-.0773,2.5865-.0773,3.9107a6.0648,6.0648,0,0,0,.0314.9238.17.17,0,0,0,.1846.1538c.1534-.0308.3848-.0923.5235-.1079a.2147.2147,0,0,1,.2.2c0,.0771-.1846.1079-.3389.1387a9.3573,9.3573,0,0,0-1.8789.4463c-.1231.0459-.1846.03-.2149,0a.5541.5541,0,0,1-.0312-.2461c0-.1538.0156-.4312.0156-.585,0-.0771-.0156-.1235-.0459-.0923a3.9616,3.9616,0,0,1-.9551.6616,2.4773,2.4773,0,0,1-1.0156.2159A1.4681,1.4681,0,0,1,309.6572,100.4315Z"/><path class="cls-1" d="M317.9873,96.3665a.6423.6423,0,0,0-.1689.3545,10.2425,10.2425,0,0,0-.03,1.1856c0,1.0927.03,1.74.0615,2.0937.0615.4619.169.5693.7383.6465.2158.03.2773.0771.2773.1533s-.123.1084-.3232.1084c-.4307,0-.708-.0615-1.4473-.0615-.9238,0-.9082.0771-1.2773.0771-.2,0-.293-.0468-.293-.1084s.0615-.1386.2305-.1689c.3545-.0772.4775-.2.5234-.6314.0156-.2617.0313-1.1391.0469-2.1552,0-.97.0156-1.37,0-1.5552,0-.0923-.0469-.1231-.4-.4312-.0928-.0766-.123-.1074-.123-.1538s.1074-.1079.1689-.1386a7.943,7.943,0,0,0,1.4785-.5079.5169.5169,0,0,1,.2617-.0922c.03,0,.0772.0922.0772.1689,0,.2774-.0313.7085-.0313,1.0474,0,.0766.0616.0923.0772.0459.4306-.57.9853-1.1241,1.5859-1.1241a.8657.8657,0,0,1,.5078.1543c.1543.1075.2159.1846.2159.3077a1.5755,1.5755,0,0,1-.462.7392c-.1543.1538-.2314.1846-.3086.1846a.4361.4361,0,0,1-.2615-.1079,1.2465,1.2465,0,0,0-.6006-.2461A.7221.7221,0,0,0,317.9873,96.3665Z"/><path class="cls-1" d="M321.8379,96.1819c0,.6006.5234.8931,1.1543,1.2935.97.6465,1.34,1.0469,1.34,1.832a1.7152,1.7152,0,0,1-.708,1.293,3.0122,3.0122,0,0,1-1.5088.4312,4.28,4.28,0,0,1-1.34-.2618c-.1074-.0459-.2617-.1845-.2617-.2924-.0157-.2154-.0616-.6929-.0772-.8467-.0156-.2.0156-.3081.0772-.3081.0459,0,.1074.0464.2.3237a1.9335,1.9335,0,0,0,.6465.9233,1.1436,1.1436,0,0,0,.7695.2.9216.9216,0,0,0,.9238-.8618c0-.4468-.3232-.77-1.1084-1.2627a2.2858,2.2858,0,0,1-1.2471-1.8012,1.5845,1.5845,0,0,1,.7549-1.37,2.3112,2.3112,0,0,1,1.3086-.37,3.5447,3.5447,0,0,1,1.2.2.2024.2024,0,0,1,.0929.1538c0,.1538.0614.4312.077.8316.0157.1694-.0311.246-.0927.246s-.0918-.0766-.1387-.2a1.3964,1.3964,0,0,0-.3848-.7081,1.2851,1.2851,0,0,0-.8008-.2773A.8859.8859,0,0,0,321.8379,96.1819Z"/><path class="cls-1" d="M332.2324,96.721a.1809.1809,0,0,1-.1543.169c-.123-.0152-2.125-.0459-2.4785-.0459h-.831c-.0313,0-.1084.0771-.1387.123a2.1144,2.1144,0,0,0-.1231.8467,2.7612,2.7612,0,0,0,.708,1.8633,2.0778,2.0778,0,0,0,1.5391.6308,1.9632,1.9632,0,0,0,1.4629-.4927c.123-.123.1846-.0922.1846-.0151a.5864.5864,0,0,1-.1534.2461,2.7217,2.7217,0,0,1-2.1406.97,2.4854,2.4854,0,0,1-1.832-.7846,3.0109,3.0109,0,0,1-.7393-2.063A3.21,3.21,0,0,1,328.43,95.92a2.8626,2.8626,0,0,1,1.9238-.77A1.7768,1.7768,0,0,1,332.2324,96.721Zm-3.1406-.7851a1.3427,1.3427,0,0,0-.3232.6308.0657.0657,0,0,0,.0615.0615l2.001-.0151c.3388,0,.3691-.1694.3691-.3081a.9928.9928,0,0,0-.2148-.6465,1.08,1.08,0,0,0-.7706-.2925A1.5959,1.5959,0,0,0,329.0918,95.9359Z"/><path class="cls-1" d="M334.9121,95.2889c.1543,0,.2305.0307.2305.0923s-.0918.1079-.2149.1386c-.4.1079-.4316.2-.3086.6621.1387.4771,1.0625,2.8638,1.2627,3.2334.0157.0616.0459.0767.0616.0308.2-.37,1.0625-2.4175,1.247-2.9717a2.1361,2.1361,0,0,0,.17-.6313c0-.0923-.0928-.2617-.5087-.354q-.1848-.0462-.1846-.1387c0-.0459.0614-.0615.1846-.0615.1854,0,.4159.0464.7547.0464.2461,0,.6467-.0464.7852-.0464.1074,0,.2158.0307.2158.0923s-.0928.0927-.2314.1386c-.3076.0772-.4776.2618-.6621.6929-.3535.77-1.1387,2.4941-1.293,2.8638a16.6194,16.6194,0,0,0-.7393,1.7236c-.0771.2315-.1386.2617-.1845.2617s-.1075-.0146-.169-.23c-.0771-.231-.1855-.6-.4-1.1851-.2773-.7085-1.1855-3.11-1.4472-3.603a.9121.9121,0,0,0-.6934-.5386c-.1387-.0308-.2148-.0771-.2148-.1235,0-.0616.0761-.1075.2617-.1075.4306,0,.6924.0616,1.1543.0616C334.4043,95.3353,334.666,95.2889,334.9121,95.2889Z"/><path class="cls-1" d="M343.5049,96.721a.1811.1811,0,0,1-.1543.169c-.1231-.0152-2.125-.0459-2.4785-.0459h-.8311c-.0311,0-.1084.0771-.1387.123a2.1147,2.1147,0,0,0-.1239.8467,2.7608,2.7608,0,0,0,.7091,1.8633,2.0774,2.0774,0,0,0,1.5391.6308,1.9627,1.9627,0,0,0,1.4627-.4927c.123-.123.1847-.0922.1847-.0151a.5862.5862,0,0,1-.1533.2461,2.722,2.722,0,0,1-2.1406.97,2.4849,2.4849,0,0,1-1.832-.7846,3.01,3.01,0,0,1-.7393-2.063,3.21,3.21,0,0,1,.8935-2.2481,2.8626,2.8626,0,0,1,1.9239-.77A1.7767,1.7767,0,0,1,343.5049,96.721Zm-3.1406-.7851a1.3437,1.3437,0,0,0-.3233.6308.0657.0657,0,0,0,.0615.0615l2.001-.0151c.3389,0,.3692-.1694.3692-.3081a.9917.9917,0,0,0-.2149-.6465,1.08,1.08,0,0,0-.77-.2925,1.5958,1.5958,0,0,0-1.1235.57Z"/><path class="cls-1" d="M346.2305,96.2742a.8875.8875,0,0,0-.2617.5391,9.0227,9.0227,0,0,0-.0157.939c0,1.14.0313,1.94.0615,2.2631.0616.4776.2471.585.8321.647.2148.03.292.0615.292.1377s-.1387.1084-.3692.1084c-.2929,0-.8007-.0615-1.4472-.0615a8.3677,8.3677,0,0,0-.94.0918c-.1846,0-.2617-.03-.2617-.0918,0-.0469.1084-.1231.2314-.1543a.6354.6354,0,0,0,.5537-.6309c.0313-.2617.0469-1.1391.0469-2.1552v-1.709c0-.1079-.1084-.1543-.4-.4-.1084-.0772-.1229-.1236-.1229-.1543s.0918-.0923.23-.1382a4.6693,4.6693,0,0,0,.9853-.37.4855.4855,0,0,1,.2315-.0772c.03,0,.0614.0615.0614.2158,0,.1695-.0155.7544-.0155,1,0,.0464.03.0616.077.0157a2.512,2.512,0,0,1,1.6622-1.1084.8955.8955,0,0,1,.539.2.27.27,0,0,1,.1084.2158,1.0541,1.0541,0,0,1-.3389.5234c-.1387.1231-.2.1387-.2471.1387a.6972.6972,0,0,1-.2764-.1079,1.0807,1.0807,0,0,0-.539-.1846A1.0521,1.0521,0,0,0,346.2305,96.2742Z"/><path class="cls-1" d="M350.9746,95.2889c.1533,0,.2617.0464.2617.1079s-.1084.1079-.2.123c-.3388.1079-.37.1851-.2314.585.2.5391,1.0469,2.6177,1.3555,3.2642.03.0615.0761.0463.0918,0,.2-.5235,1.0625-2.7408,1.1855-3.0948a1.153,1.153,0,0,0,.0769-.4463c0-.1079-.0769-.2309-.3388-.3081-.2305-.0459-.2774-.0922-.2774-.1386,0-.0616.0772-.0923.2159-.0923.1847,0,.508.0464.7392.0464.2775,0,.4776-.0464.7081-.0464.0928,0,.1846.0156.1846.0615s-.0614.1079-.215.1543c-.3085.0923-.4619.2-.7088.7695-.1846.3848-1.1387,2.7559-1.37,3.3409-.1846.5083-.3233.8623-.6464,1.6938-.3692.8926-.9541,2.4941-1.17,3.0176a2.0894,2.0894,0,0,1-.293.5693.5781.5781,0,0,1-.5078.2617.512.512,0,0,1-.5079-.5078.4539.4539,0,0,1,.4307-.4463c.1084,0,.2.03.3086.03a.3707.3707,0,0,0,.3994-.2617c.1543-.3233.6006-1.586,1.124-2.9248a.6612.6612,0,0,0-.0146-.4927c-.0928-.2466-1.2168-3.0947-1.9092-4.6035a.826.826,0,0,0-.5547-.4155c-.1845-.0464-.2773-.1079-.2773-.1543,0-.0767.1387-.1075.2471-.1075.2763,0,.708.0616,1.0771.0616C350.374,95.3353,350.7744,95.2889,350.9746,95.2889Z"/><path class="cls-1" d="M358.8115,95.3045c.1387,0,.2617.0308.2617.1074,0,.0464-.1533.1079-.2617.1236-.3691.0615-.3535.2-.292.4463.2305.7084.8926,2.4633,1.2471,3.3256.0156.0459.0772.0616.0918.0152.2471-.5235.9238-2.0166,1.0781-2.417.0156-.0772.0615-.1846.03-.2617-.0762-.2-.1846-.4463-.2617-.6314a.819.819,0,0,0-.585-.5078c-.1387-.0308-.2148-.0615-.2148-.1235s.0761-.0923.23-.0923c.3233,0,.7237.0464,1.0469.0464.4463,0,.6319-.0308.9082-.0308.17,0,.2315.0308.2315.0767,0,.062-.1084.1235-.2315.1543-.3535.0766-.4463.1381-.2617.6157.17.477.9854,2.7095,1.2012,3.187.0459.0771.0771.0151.0771,0,.1846-.4.9238-2.1553,1.1084-2.6792a3.5,3.5,0,0,0,.2461-.7388c0-.1386-.0615-.2773-.4619-.3847-.2-.0616-.2461-.1079-.2461-.1543,0-.0616.0928-.0923.2-.0923.2617,0,.5391.0464.7852.0464.1543,0,.539-.0464.7695-.0464.1387,0,.2158.0307.2158.0923s-.0459.0927-.2773.1543c-.2764.0766-.4619.2924-.6621.708-.2764.5542-.7383,1.6167-1.2159,2.71-.2617.6309-.539,1.3086-.7236,1.8008-.0928.2461-.1543.293-.2.293-.0614,0-.1073-.0615-.1689-.2774-.0772-.2153-.1856-.5234-.37-1.0468-.2919-.8311-.6152-1.709-.9238-2.5249-.0156-.0459-.0459-.0772-.0771,0-.1387.2924-.785,1.7089-1,2.248-.2315.5078-.37.8618-.539,1.3081-.077.2158-.1542.293-.2157.293s-.1074-.1084-.1543-.2774c-.0762-.2153-.169-.5849-.4307-1.3237-.2773-.7544-1.1543-3.0332-1.3242-3.3257a.8774.8774,0,0,0-.6777-.6006c-.1231-.0307-.2149-.0766-.2149-.123,0-.0923.1074-.1231.2774-.1231.1992,0,.6611.0616,1.0927.0616C358.1963,95.3353,358.5039,95.3045,358.8115,95.3045Z"/><path class="cls-1" d="M370.5,96.721a.1808.1808,0,0,1-.1543.169c-.123-.0152-2.125-.0459-2.4785-.0459h-.8311c-.0312,0-.1084.0771-.1386.123a2.1144,2.1144,0,0,0-.1231.8467,2.7606,2.7606,0,0,0,.708,1.8633,2.078,2.078,0,0,0,1.5391.6308,1.9632,1.9632,0,0,0,1.4629-.4927c.123-.123.1845-.0922.1845-.0151a.5852.5852,0,0,1-.1533.2461,2.7219,2.7219,0,0,1-2.1406.97,2.4854,2.4854,0,0,1-1.832-.7846,3.0118,3.0118,0,0,1-.7393-2.063,3.21,3.21,0,0,1,.8936-2.2481,2.8626,2.8626,0,0,1,1.9238-.77A1.7769,1.7769,0,0,1,370.5,96.721Zm-3.1406-.7851a1.3428,1.3428,0,0,0-.3233.6308.0657.0657,0,0,0,.0616.0615l2.0009-.0151c.3389,0,.3692-.1694.3692-.3081a.9917.9917,0,0,0-.2149-.6465,1.08,1.08,0,0,0-.7705-.2925A1.5959,1.5959,0,0,0,367.3594,95.9359Z"/><path class="cls-1" d="M376.06,96.721a.1811.1811,0,0,1-.1543.169c-.1231-.0152-2.125-.0459-2.4785-.0459h-.8311c-.0312,0-.1084.0771-.1387.123a2.1147,2.1147,0,0,0-.124.8467,2.7616,2.7616,0,0,0,.709,1.8633,2.0772,2.0772,0,0,0,1.5391.6308,1.9628,1.9628,0,0,0,1.4628-.4927c.1231-.123.1846-.0922.1846-.0151a.585.585,0,0,1-.1532.2461,2.7218,2.7218,0,0,1-2.14.97,2.4856,2.4856,0,0,1-1.8321-.7846,3.0108,3.0108,0,0,1-.7392-2.063,3.2094,3.2094,0,0,1,.8935-2.2481,2.8626,2.8626,0,0,1,1.9238-.77A1.7768,1.7768,0,0,1,376.06,96.721Zm-3.1407-.7851a1.3427,1.3427,0,0,0-.3232.6308.0657.0657,0,0,0,.0615.0615l2.001-.0151c.3389,0,.3691-.1694.3691-.3081a.9917.9917,0,0,0-.2148-.6465,1.08,1.08,0,0,0-.7705-.2925,1.5961,1.5961,0,0,0-1.1235.57Z"/><path class="cls-1" d="M381.0645,95.3353c.3378,0,.9541-.0772,1.3544-.0772.169,0,.2305.0464.2305.0923,0,.0308-.0459.0928-.2305.1235a2.7429,2.7429,0,0,0-1.416.6773c-.4.3081-1.1552.9546-1.4472,1.2314-.0313.0313,0,.0772.0146.1079.4619.5391,1.57,1.7246,2.294,2.4634a1.9855,1.9855,0,0,0,1.1093.7232c.1377.0312.2305.0771.2305.1386,0,.0928-.1387.1084-.2617.1084-.5235,0-1.1084-.0771-1.709-.0771-.2617,0-.4619.0156-.6924.0156-.17,0-.2773,0-.2773-.0928,0-.0771.0771-.1074.3535-.1694.2617-.0615.293-.2.1543-.4155-.3233-.37-1.416-1.524-1.8779-1.9859-.1231-.1235-.2315-.2309-.293-.2309-.0459,0-.0615.0923-.0615.1538-.0157.2773-.03.7851-.0157,1.6318,0,.7393.1231.7852.6006.8931.1543.0459.2315.0771.2315.1387,0,.0771-.1231.1074-.293.1074-.4307,0-.7539-.0459-1.1543-.0459-.4932,0-.8164.0459-1.001.0459-.1543,0-.2461-.0459-.2461-.1074,0-.0469.0918-.0928.2-.1084.4766-.1226.585-.2613.6153-.7691.0615-1.124.0771-2.4175.0771-3.6181.0156-1.2012.0615-3.1719.0615-4.3726a2.6443,2.6443,0,0,0-.0615-.7085c-.03-.123-.1689-.2153-.3545-.3076-.0762-.0464-.1377-.0772-.1377-.1079,0-.0615.0918-.0923.2461-.1387a9.4717,9.4717,0,0,0,1.0928-.3691.7184.7184,0,0,1,.2461-.0772c.0156,0,.0469.0464.0469.1231-.0313.5083-.0772,1.8628-.0772,3.0024,0,.4771-.0771,2.5093-.0771,4.2031,0,.1695.0312.2461.0771.2461a.7729.7729,0,0,0,.3076-.1694,13.1623,13.1623,0,0,0,1.6631-1.54.5583.5583,0,0,0,.169-.2768c0-.0923-.1075-.1851-.4463-.2466-.1387-.0151-.2617-.0615-.2617-.123s.1074-.108.246-.108C380.541,95.32,380.8945,95.3353,381.0645,95.3353Z"/><path class="cls-1" d="M383.56,100.3543a.7.7,0,0,1,.6933-.6929.6487.6487,0,0,1,.6153.6773.6623.6623,0,0,1-.6308.6922l-.0313.0007A.678.678,0,0,1,383.56,100.3543Z"/><path class="cls-1" d="M386.7012,91.5784a1.6714,1.6714,0,0,1-1.3858,1.4937c-.0918,0-.1377-.0308-.1377-.0772,0-.0307.0616-.0771.1534-.123a1.2327,1.2327,0,0,0,.8164-1.0318c0-.3076-.17-.5078-.585-.6-.1543-.0464-.3086-.1387-.3086-.3238a.4581.4581,0,0,1,.462-.4311,1.0277,1.0277,0,0,1,.9866,1.0672v0Zm1.9248,0a1.6714,1.6714,0,0,1-1.3858,1.4937c-.0771,0-.1386-.0308-.1386-.0772,0-.0307.0927-.0771.1543-.123a1.2054,1.2054,0,0,0,.8154-1.0161c0-.3233-.169-.5235-.585-.6157a.3613.3613,0,0,1-.292-.3238.4522.4522,0,0,1,.4721-.4314h.0055a1.0238,1.0238,0,0,1,.9544,1.0888h0Z"/><line class="cls-2" x1="286.6423" y1="131.3405" x2="298.6821" y2="113.051"/><path class="cls-1" d="M175.5645,103.0169c.039.01.1171.1475.1274.1963,0,.1269.0977.8818.0977.9209,0,.1465-.0293.2451-.0879.2451a.3629.3629,0,0,1-.2842-.2353,1.6289,1.6289,0,0,0-.4214-.6954,1.1441,1.1441,0,0,0-.7837-.2744,1.0182,1.0182,0,0,0-.999,1.0186c0,.5781.4311.8916,1.3125,1.45,1.2051.7344,1.44,1.3613,1.44,1.959a1.74,1.74,0,0,1-.8618,1.4394,2.8991,2.8991,0,0,1-1.3716.3535,3.7139,3.7139,0,0,1-1.4106-.2548.8385.8385,0,0,1-.2549-.2842,5.537,5.537,0,0,1-.1665-1.0479c0-.0693.1079-.206.1567-.206.0786,0,.2354.2353.3824.539a1.5611,1.5611,0,0,0,1.3613.9,1.0124,1.0124,0,0,0,1.019-.98c0-.4111-.2055-.8027-1.1069-1.3906-.999-.6562-1.5381-1.1953-1.5381-2.0674a1.69,1.69,0,0,1,.5977-1.2832,2.2645,2.2645,0,0,1,1.5576-.47A6.9966,6.9966,0,0,1,175.5645,103.0169Z"/><path class="cls-1" d="M181.9531,103.0071a6.49,6.49,0,0,0,.7051.1475c.0689,0,.147.1172.147.2647.01.2734.0293.6162.0493.9.01.2061-.0591.3731-.167.3731-.0488,0-.1367-.1182-.186-.2647a1.4779,1.4779,0,0,0-.4112-.6962,2.2671,2.2671,0,0,0-1.45-.5674c-1.5576,0-2.292,1.2343-2.292,2.7226a3.75,3.75,0,0,0,.3331,1.6563,2.4307,2.4307,0,0,0,2.1943,1.459,2.066,2.066,0,0,0,.95-.2247,2.2074,2.2074,0,0,0,.852-.8916c.1177-.2158.1866-.3037.2647-.3037.1079,0,.1079.2549.0786.3623a4.6273,4.6273,0,0,1-.2939.8526.8171.8171,0,0,1-.3531.3135,5.2486,5.2486,0,0,1-1.7138.2841,3.9491,3.9491,0,0,1-2.88-1.1074,3.2284,3.2284,0,0,1-.8228-2.2041,3.11,3.11,0,0,1,1.0777-2.3515,4.1434,4.1434,0,0,1,2.645-.8809A5.5447,5.5447,0,0,1,181.9531,103.0071Z"/><path class="cls-1" d="M185.9917,105.8089c.666,0,1.9595-.0391,2.9878-.0391.0391,0,.0786-.0976.0884-.2451a16.2344,16.2344,0,0,0-.02-1.6553c-.04-.3525-.0883-.45-.48-.5585-.1372-.0391-.2842-.0977-.2842-.1954,0-.0693.0976-.1279.3232-.1279.1275,0,.8521.0293,1.107.0293.3134,0,.9306-.0391,1.0483-.0391.186,0,.3037.0489.3037.127,0,.0986-.0884.1572-.3135.2158-.353.0781-.4116.2354-.4311.52-.0493.46-.0786,1.3418-.0786,2.7334,0,.96.0293,1.4688.039,1.792.01.3819.1079.4121.5.5391.1763.0586.274.127.274.2061,0,.1074-.1368.1367-.3135.1367-.1665,0-.6953-.0293-.9893-.0293-.2153,0-.999.0488-1.1948.0488-.2354,0-.3335-.0488-.3335-.1367s.1274-.167.2646-.2061c.48-.1269.5-.206.5489-.9306.0293-.3916.039-1.3125.02-1.5772,0-.0879-.04-.1269-.0786-.1269-.7837,0-2.792-.0293-2.9878-.01a.1955.1955,0,0,0-.1274.1465c-.02.3623,0,1.4111.01,1.7246.01.46.0689.6074.47.7246.2061.0586.3433.1367.3433.2451.01.0977-.1865.127-.3135.127-.0688,0-.8818-.0293-1.2246-.0293-.2256,0-.7251.039-1.0581.039-.2549,0-.3428-.0488-.3428-.1269,0-.1084.1079-.167.2744-.2158.4307-.1172.5191-.2256.5679-.6368.0391-.3916.0884-1.8515.0884-3.1933,0-.294.0195-.833,0-1.2246-.02-.3233-.1079-.4307-.4312-.5293-.2251-.0684-.333-.1367-.333-.2149,0-.0986.1275-.1377.3038-.1377.2646,0,.8032.0391,1.0581.0391.4111,0,.852-.0293,1.0874-.0293.2055,0,.3232.0391.3232.1279,0,.1075-.1274.1661-.3335.2149-.4111.0889-.44.2744-.45.6758-.02.3525-.0591,1.4892-.03,1.6757C185.8838,105.76,185.9233,105.8089,185.9917,105.8089Z"/><path class="cls-1" d="M198.75,106.0247a3.2335,3.2335,0,0,1-1.2344,2.6641,3.6947,3.6947,0,0,1-2.145.706,3.4522,3.4522,0,0,1-2.5473-1.0488,3.2362,3.2362,0,0,1-.8423-2.2432,3.0682,3.0682,0,0,1,1.2636-2.5468,3.6753,3.6753,0,0,1,2.0865-.7051,3.245,3.245,0,0,1,3.4149,3.0657C198.7479,105.9526,198.7493,105.9886,198.75,106.0247Zm-4.7607-2.332a3.0508,3.0508,0,0,0-.6861,2.1943c0,1.5088.9209,3.1446,2.3511,3.1446a1.4007,1.4007,0,0,0,1-.4014,3.3629,3.3629,0,0,0,.7539-2.3018,3.8089,3.8089,0,0,0-1.0185-2.6064,2.1678,2.1678,0,0,0-1.293-.5283,1.7231,1.7231,0,0,0-1.1079.499Z"/><path class="cls-1" d="M206.5693,106.0247a3.2324,3.2324,0,0,1-1.2343,2.6641,3.6928,3.6928,0,0,1-2.1446.706,3.4525,3.4525,0,0,1-2.5478-1.0488,3.2387,3.2387,0,0,1-.8418-2.2432,3.0666,3.0666,0,0,1,1.2637-2.5468,3.6732,3.6732,0,0,1,2.0859-.7051,3.245,3.245,0,0,1,3.4149,3.0657C206.5672,105.9526,206.5686,105.9886,206.5693,106.0247Zm-4.7607-2.332a3.0512,3.0512,0,0,0-.6856,2.1943c0,1.5088.9209,3.1446,2.3506,3.1446a1.4034,1.4034,0,0,0,1-.4014,3.3629,3.3629,0,0,0,.7539-2.3018,3.8116,3.8116,0,0,0-1.0185-2.6064,2.1678,2.1678,0,0,0-1.293-.5283,1.7246,1.7246,0,0,0-1.1074.499Z"/><path class="cls-1" d="M207.7383,102.9974c.2646,0,.6953.02.98.02.3818,0,1.0586-.0391,1.2929-.0391.2256,0,.3038.0489.3038.1172,0,.0889-.1172.1573-.2149.1866-.5293.1269-.6074.2744-.6172.3916a29.2568,29.2568,0,0,0-.0693,2.93c0,.6758.01,1.4786.05,1.8116.02.2353.3135.373.3525.3828a6.3593,6.3593,0,0,0,.8125.0488,4.0224,4.0224,0,0,0,.7061-.0488.5829.5829,0,0,0,.3027-.1377,3.7981,3.7981,0,0,0,.6172-.7637.4.4,0,0,1,.2647-.1963c.0693,0,.0791.1084.039.2647-.1074.3427-.2539.8818-.3135,1.1562a.4529.4529,0,0,1-.2246.166c-.1474,0-1.0195-.0683-3.0078-.0683-.47,0-1.1465.0586-1.45.0586-.1758,0-.2929-.0391-.2929-.127,0-.0683.0878-.1572.2441-.1865.5391-.0977.6269-.2744.6758-.7051.02-.2451.05-1.2734.05-2.6846,0-.95,0-1.332-.01-1.6552-.01-.333-.06-.4893-.51-.5977-.1866-.0488-.2745-.1172-.2745-.1855C207.4443,103.0364,207.5615,102.9974,207.7383,102.9974Z"/><path class="cls-2" d="M211.01,146.6037a.6044.6044,0,0,0,.6028-.6059v-2.929a.857.857,0,0,0-.8541-.8579h-6.4026V119.7416a.8569.8569,0,0,0-.8542-.8579H180.3936a.8562.8562,0,0,0-.8535.8579v22.4693h-6.4032a.8562.8562,0,0,0-.8535.8579v2.929a.604.604,0,0,0,.6021.6059h.0007"/><line class="cls-2" x1="191.9481" y1="142.1316" x2="191.9481" y2="119.1073"/><path class="cls-3" d="M194.0715,72.3334a12.6375,12.6375,0,0,0,4.0968-.7869,8.5661,8.5661,0,0,1,2.6193-.5655,4.9218,4.9218,0,0,1,2.6844.8811.6507.6507,0,0,0,.9958-.5512V64.3233a.6492.6492,0,0,0-.353-.5788,3.4963,3.4963,0,0,0-1.6331-.371,11.1327,11.1327,0,0,0-3.0312.6158,13.5222,13.5222,0,0,1-3.8642.7408h0a6.6618,6.6618,0,0,1-3.1916-.8022.6653.6653,0,0,0-.6408.0184.6567.6567,0,0,0-.3136.5573V77.88"/><polyline class="cls-2" points="145.811 104.147 145.811 99.619 191.431 77.578 238.085 99.663 238.085 104.207"/><polyline class="cls-2" points="150.425 146.27 150.425 102.52 191.483 82.684 233.471 102.56 233.471 146.324"/><line class="cls-2" x1="263.5634" y1="146.6641" x2="263.5634" y2="137.8946"/><line class="cls-2" x1="263.5634" y1="146.6641" x2="267.791" y2="146.6641"/><line class="cls-2" x1="259.2004" y1="146.6641" x2="259.2004" y2="137.8946"/><line class="cls-2" x1="259.2004" y1="146.6641" x2="254.9728" y2="146.6641"/><path class="cls-2" d="M273.2615,109.31a16.7938,16.7938,0,0,0-3.7849-2.8409H253.2873a16.8,16.8,0,1,0,19.9742,2.8409Z"/><line class="cls-2" x1="262.1249" y1="121.8595" x2="265.219" y2="124.7337"/><line class="cls-2" x1="259.3204" y1="123.3355" x2="260.6392" y2="122.0167"/><circle class="cls-2" cx="261.4976" cy="121.429" r="0.7"/><circle class="cls-4" cx="261.382" cy="121.1898" r="14"/><path class="cls-2" d="M273.2615,133.0692a8.4282,8.4282,0,0,0,11.9188,0"/><path class="cls-2" d="M286.6648,131.5835a1.05,1.05,0,1,0,.0008.0008Z"/><path class="cls-2" d="M246.7838,129.4714a8.4281,8.4281,0,0,0-11.3341-3.6872"/><path class="cls-2" d="M233.5776,126.7372a1.0573,1.0573,0,1,0,0-.0006Z"/><polyline class="cls-2" points="269.845 99.554 278.182 96.8 261.382 91.067 244.582 96.8 252.973 99.554"/><path class="cls-2" d="M269.782,96.8v9.6317h-16.8V96.81c0-.8022,3.7607-1.453,8.4-1.453s8.4.6508,8.4,1.453Z"/><path class="cls-2" d="M244.582,96.8v4.6138"/><path class="cls-5" d="M260.8635,132.2726a.5122.5122,0,0,1,.4618-.5581h0l.0281-.0019h0a.527.527,0,0,1,.5462.4894h0a.5226.5226,0,0,1-.4823.56h-.0358A.5118.5118,0,0,1,260.8635,132.2726Zm-5.1519-1.0259a.53.53,0,0,1-.3363-.6583h0a.5274.5274,0,0,1,.6648-.3381l.0072.0024h0a.5283.5283,0,0,1,.3363.6576h0a.5251.5251,0,0,1-.5038.3644h0A.7267.7267,0,0,1,255.7116,131.2467Zm10.714-.241a.5216.5216,0,0,1,.244-.6961l.0083-.0039h0a.5255.5255,0,0,1,.6993.2508l.0007.0015h0a.5293.5293,0,0,1-.2523.6856h0a.4378.4378,0,0,1-.2235.0561h0A.529.529,0,0,1,266.4256,131.0057Zm-15.1109-4.0694a.5247.5247,0,0,1,.1962-.7136h0a.5418.5418,0,0,1,.7281.21h0a.5417.5417,0,0,1-.21.7137h0a.5663.5663,0,0,1-.2522.07h0A.57.57,0,0,1,251.3147,126.9363Zm19.453.2447a.5113.5113,0,0,1-.2993-.6582l.0054-.0138h0a.5107.5107,0,0,1,.6538-.3069h0l.0325.013h0a.5223.5223,0,0,1,.2939.6719h0a.5271.5271,0,0,1-.49.3357h0A.45.45,0,0,1,270.7677,127.181Zm-20.927-5.9541h0a.5335.5335,0,0,1,.4621-.5886h0a.5412.5412,0,0,1,.5879.4621h0a.54.54,0,0,1-.4621.5879h-.07A.5373.5373,0,0,1,249.8407,121.2269Zm22.229-.0594h0a.5292.5292,0,0,1,.5174-.5325h0a.5327.5327,0,0,1,.5326.5325h0a.5294.5294,0,0,1-.5326.5175h0a.5256.5256,0,0,1-.5171-.5175Zm-20.5022-5.0994a.5168.5168,0,0,1-.1171-.7213l.005-.0068h0a.516.516,0,0,1,.72-.1169l.0076.0055h0a.5047.5047,0,0,1,.1315.7015l-.0194.0265h0a.5126.5126,0,0,1-.42.2236h0A.5175.5175,0,0,1,251.5675,116.0681Zm18.9762-.0971h0a.5332.5332,0,0,1,.1122-.7423h0a.5372.5372,0,0,1,.7417.1257h0a.5209.5209,0,0,1-.1232.7263h0l-.0026.0018h0a.476.476,0,0,1-.3083.0984h0A.5179.5179,0,0,1,270.5437,115.971Zm-15.11-4.0867a.5359.5359,0,0,1,.1538-.7281h0a.5234.5234,0,0,1,.7227.16l.0054.0087h0a.5284.5284,0,0,1-.1682.7273h0a.6294.6294,0,0,1-.28.07h0a.5156.5156,0,0,1-.434-.2379Zm11.2427.1926a.5238.5238,0,0,1-.1731-.72l.0049-.0078h0a.5349.5349,0,0,1,.728-.1538h0a.5366.5366,0,0,1,.1682.7281h0a.56.56,0,0,1-.4484.2378h0a.505.505,0,0,1-.28-.084Zm-5.3645-1.34a.5234.5234,0,0,1-.4213-.6088v0l.0013-.007h0a.5264.5264,0,0,1,.6144-.42h.0015a.5452.5452,0,0,1,.42.6159h0a.54.54,0,0,1-.5319.42Z"/><path class="cls-6" d="M259.3479,115.7936a1.93,1.93,0,0,1-3.8057,0"/><path class="cls-6" d="M267.5373,115.7936a1.93,1.93,0,0,1-3.8057,0"/><line class="cls-7" x1="255.7007" y1="118.6528" x2="255.7007" y2="122.2928"/><path class="cls-3" d="M210.8159,58.7911a12.6374,12.6374,0,0,0,4.0968-.7868,8.5662,8.5662,0,0,1,2.6193-.5656,4.9216,4.9216,0,0,1,2.6844.8812.6506.6506,0,0,0,.9958-.5513V50.7811a.65.65,0,0,0-.3529-.5789,3.4979,3.4979,0,0,0-1.6332-.3709,11.1326,11.1326,0,0,0-3.0312.6157,13.5183,13.5183,0,0,1-3.8642.7409h0a6.66,6.66,0,0,1-3.1915-.8023.666.666,0,0,0-.6409.0184.6569.6569,0,0,0-.3136.5574V64.3381"/><polyline class="cls-2" points="208.175 64.036 254.829 86.121 254.829 90.665"/><line class="cls-2" x1="162.5557" y1="90.6043" x2="162.5557" y2="86.0766"/><line class="cls-2" x1="204.8517" y1="65.7825" x2="208.1753" y2="64.036"/><line class="cls-2" x1="162.5557" y1="86.0766" x2="191.3506" y2="72.1257"/><line class="cls-2" x1="136.2984" y1="146.6641" x2="317.4467" y2="146.6641"/><polygon class="cls-3" points="99.061 152.222 99.061 159.334 103 159.334 103.463 152.222 99.061 152.222"/><polygon class="cls-3" points="88.241 152.222 88.703 159.334 92.642 159.334 92.642 152.222 88.241 152.222"/><path class="cls-3" d="M107.2989,110.8275c-.431-.1075-.8484-.2232-1.2067-.3482-3.6021-1.2564-5.7535-3.11-6.7228-5.1918-1.9755,2.7633-6.4706,4.6943-11.7057,4.6943a27.6273,27.6273,0,0,1-3.0143-.1784,10.72,10.72,0,0,0-.4322,3.0092,11.6451,11.6451,0,0,0,23.2692,0A10.7587,10.7587,0,0,0,107.2989,110.8275Z"/><path class="cls-3" d="M99.0614,159.3344h4.37a1.6477,1.6477,0,0,1,1.6478,1.6476v.6593H99.0614Z"/><path class="cls-3" d="M92.6422,161.6413H86.6243v-.6591a1.648,1.648,0,0,1,1.6478-1.6478h4.37v2.3069Z"/><polyline class="cls-3" points="95.834 146.954 95.834 152.222 104.678 152.222 104.678 139.426 87.026 139.426 87.026 152.222 95.87 152.222 95.87 147.012"/><path class="cls-3" d="M84.2172,112.8126c0-.1258.0055-.25.01-.3752a2.1122,2.1122,0,0,0,.1907,4.22h.51"/><path class="cls-3" d="M106.776,116.6574h.51a2.1122,2.1122,0,0,0,.1907-4.22h0c.0044.1248.01.2494.01.3752"/><path class="cls-3" d="M102.6721,113.6777a1.305,1.305,0,0,1-2.6077,0"/><path class="cls-3" d="M91.6393,113.6777a1.3051,1.3051,0,0,1-2.6078,0"/><path class="cls-3" d="M93.6453,119.0027a2.2085,2.2085,0,0,0,4.4131,0"/><path class="cls-3" d="M109.3512,128.9669a12.2406,12.2406,0,0,0-6.1532-5.8626,3.2664,3.2664,0,0,0-1.1909-.4408,2.0511,2.0511,0,0,0-.4271-.0467c-.0211,0-.0418.0017-.0627.0024-.0164,0-.0323-.0024-.0488-.0024h-.0711a12.0993,12.0993,0,0,1-11.0912,0h-.0711c-.0165,0-.0324.0021-.0488.0024-.0209-.0007-.0416-.0024-.0626-.0024a2.0528,2.0528,0,0,0-.4272.0467,3.2683,3.2683,0,0,0-1.1909.4408,12.2406,12.2406,0,0,0-6.1532,5.8626c-.1035.2127-.1982.4279-.2883.6441l3.932.8763a8.2972,8.2972,0,0,1,1.0294-1.5738v10.522h17.6526v-10.522a8.2923,8.2923,0,0,1,1.0294,1.5738l3.932-.8763C109.55,129.3948,109.4547,129.18,109.3512,128.9669Z"/><path class="cls-3" d="M95.8518,97.2413a12.7839,12.7839,0,0,0-13.0334,12.2921c-.0012.068-.0054.1352-.0054.2034a12.0253,12.0253,0,0,0,.3908,3.041,2.2581,2.2581,0,0,1,1.0233-.3411,10.7068,10.7068,0,0,1,.4224-2.6333,27.6505,27.6505,0,0,0,3.0142.1784c5.2351,0,9.73-1.931,11.7056-4.6943.9694,2.0823,3.1208,3.9354,6.7229,5.1918.3584.125.7757.2407,1.2067.3482a10.737,10.737,0,0,1,.1776,1.6092,2.2585,2.2585,0,0,1,1.0233.3411,12.1741,12.1741,0,0,0,.3908-3.041A12.7759,12.7759,0,0,0,95.8518,97.2413Z"/><path class="cls-3" d="M106.6882,136.3219a2.2724,2.2724,0,0,1,.9788-.2216,2.2181,2.2181,0,0,1,1.9591,1.1442,11.1344,11.1344,0,0,0-.421-7.5367l-3.056.6811A8.3164,8.3164,0,0,1,106.6882,136.3219Z"/><ellipse class="cls-3" cx="107.667" cy="138.215" rx="2.2066" ry="2.1146"/><path class="cls-3" d="M79.9857,135.2115a8.67,8.67,0,0,0,2.4808-5.5294l3.0525.6956a11.3531,11.3531,0,0,1-3.1282,6.9265"/><ellipse class="cls-3" cx="80.1857" cy="137.3362" rx="2.2066" ry="2.1146"/><polygon class="cls-3" points="61.242 152.222 61.242 159.334 57.303 159.334 56.84 152.222 61.242 152.222"/><polygon class="cls-3" points="72.062 152.222 71.6 159.334 67.661 159.334 67.661 152.222 72.062 152.222"/><path class="cls-3" d="M52.8166,112.8126a11.6452,11.6452,0,0,0,23.2693,0,10.72,10.72,0,0,0-.4323-3.0092,27.6255,27.6255,0,0,1-3.0142.1784c-5.2352,0-9.73-1.931-11.7057-4.6943-.9694,2.0822-3.1208,3.9354-6.7228,5.1918-.3584.125-.7757.2407-1.2067.3482A10.75,10.75,0,0,0,52.8166,112.8126Z"/><path class="cls-3" d="M61.2416,161.6413H55.2237v-.6591a1.6477,1.6477,0,0,1,1.6478-1.6478h4.37v2.3069Z"/><path class="cls-3" d="M67.6608,159.3344h4.37a1.6478,1.6478,0,0,1,1.6478,1.6478v.6591H67.6608Z"/><polyline class="cls-3" points="64.469 146.954 64.469 152.222 55.625 152.222 55.625 139.426 73.277 139.426 73.277 152.222 64.433 152.222 64.433 147.012"/><path class="cls-3" d="M76.0858,112.8126c0-.1258-.0055-.25-.01-.3752a2.1122,2.1122,0,0,1-.1907,4.22h-.51"/><path class="cls-3" d="M53.5271,116.6574h-.51a2.1122,2.1122,0,0,1-.1907-4.22h0c-.0043.1248-.01.2494-.01.3752"/><path class="cls-3" d="M57.6309,113.6777a1.3051,1.3051,0,0,0,2.6078,0"/><path class="cls-3" d="M68.6638,113.6777a1.305,1.305,0,0,0,2.6077,0"/><path class="cls-3" d="M66.6577,119.0027a2.2085,2.2085,0,0,1-4.4131,0"/><path class="cls-3" d="M50.9518,128.9669a12.241,12.241,0,0,1,6.1532-5.8626,3.2683,3.2683,0,0,1,1.1909-.4408,2.0528,2.0528,0,0,1,.4272-.0467c.021,0,.0417.0017.0626.0024.0164,0,.0323-.0024.0488-.0024h.0711a12.0993,12.0993,0,0,0,11.0912,0h.0711c.0165,0,.0324.0021.0488.0024.0209-.0007.0416-.0024.0627-.0024a2.0511,2.0511,0,0,1,.4271.0467,3.2664,3.2664,0,0,1,1.1909.4408,12.2406,12.2406,0,0,1,6.1532,5.8626c.1036.2127.1983.4279.2883.6441l-3.932.8763a8.2923,8.2923,0,0,0-1.0294-1.5738v10.522H55.6249v-10.522a8.2972,8.2972,0,0,0-1.0294,1.5738l-3.932-.8763C50.7536,129.3948,50.8483,129.18,50.9518,128.9669Z"/><path class="cls-3" d="M64.4512,97.2413a12.7838,12.7838,0,0,1,13.0334,12.2921c.0012.068.0054.1352.0054.2034a12.0253,12.0253,0,0,1-.3908,3.041,2.2581,2.2581,0,0,0-1.0233-.3411,10.7114,10.7114,0,0,0-.4223-2.6333,27.6524,27.6524,0,0,1-3.0143.1784c-5.2351,0-9.73-1.931-11.7056-4.6943-.9694,2.0823-3.1208,3.9354-6.7228,5.1918-.3584.125-.7758.2407-1.2067.3482a10.7241,10.7241,0,0,0-.1777,1.6092,2.2585,2.2585,0,0,0-1.0233.3411,12.184,12.184,0,0,1-.3908-3.041A12.7758,12.7758,0,0,1,64.4512,97.2413Z"/><path class="cls-3" d="M53.6148,136.3219a2.2716,2.2716,0,0,0-.9787-.2216,2.2175,2.2175,0,0,0-1.9591,1.1442,11.1338,11.1338,0,0,1,.4209-7.5367l3.0561.6811A8.317,8.317,0,0,0,53.6148,136.3219Z"/><ellipse class="cls-3" cx="52.6361" cy="138.215" rx="2.2066" ry="2.1146"/><path class="cls-3" d="M80.3173,135.2115a8.67,8.67,0,0,1-2.4808-5.5294l-3.0524.6956a11.3532,11.3532,0,0,0,3.1281,6.9265"/><line class="cls-2" x1="24.1434" y1="161.8992" x2="150.1986" y2="161.8992"/></svg>