<svg id="Layer_1" data-name="Layer 1" xmlns="http://www.w3.org/2000/svg" width="140.7583mm" height="70.5556mm" viewBox="0 0 398.9999 200.0001">
  <path d="M244.2092,64.576c.1225,0,.2756-.0152.2756-.0918s-.0919-.1224-.3215-.153c-.5356-.1072-.6427-.2755-.6733-.9948-.0306-.52-.0306-.8111-.0306-1.21,0-.7192,0-1.607.0306-2.0967a1.7722,1.7722,0,0,1,.2142-.5969c.4592-.75,1.5-2.5558,2.296-3.5812a1.6866,1.6866,0,0,1,1.1326-.78c.2448-.0306.3367-.0918.3367-.153s-.1072-.0918-.2756-.0918c-.23,0-.7192.0765-1.0864.0765-.4285,0-.6733-.0613-1.1018-.0613-.1531,0-.245.0307-.245.0766,0,.0765.1378.1224.26.153.3979.0765.5663.1989.5663.3826a1.7988,1.7988,0,0,1-.352.8111c-.3214.551-1.3008,2.158-1.8212,3.015-.0459.0765-.1531,0-.1836-.0153-.3674-.505-1.7136-2.8313-1.99-3.3057a1.6033,1.6033,0,0,1-.26-.5816c0-.1072.0919-.1989.4592-.2755.1531-.0306.245-.0765.245-.153,0-.0613-.0766-.0919-.245-.0919-.2754,0-.75.046-1.24.046-.4592,0-1.209-.0765-1.4846-.0765-.1989,0-.2911,0-.2911.0918,0,.0459.0764.1071.3214.153.4592.0918.7346.3214,1.2243.9948.4438.6272,1.7136,2.7552,2.2191,3.673a.8707.8707,0,0,1,.1071.3367c.0153.199.0307.4744.0307,1.4233,0,.6581-.0307,1.6688-.0613,1.9743-.0459.5969-.1377.75-.75.8265-.1837.0306-.3368.0765-.3368.1376,0,.0766.1072.1226.3214.1226.4286,0,.7193-.0613,1.24-.0613C243.3063,64.5,243.5971,64.576,244.2092,64.576Zm4.3925.1072a2.931,2.931,0,0,0,2.9075-2.9533,2.8721,2.8721,0,0,0-2.8507-2.8932c-.0292,0-.0585,0-.0877.0007a3.1409,3.1409,0,0,0-1.8368.6427,2.9187,2.9187,0,0,0,1.8671,5.2036Zm.2142-.26a1.8192,1.8192,0,0,1-1.4386-.8111,3.5038,3.5038,0,0,1-.6428-2.0967c0-1.5916.8265-2.4181,1.607-2.4181,1.3467,0,2.0813,1.4386,2.0813,2.8925a3.0476,3.0476,0,0,1-.6428,2.05,1.513,1.513,0,0,1-.9641.3825Zm7.9735.23a6.8909,6.8909,0,0,1,1.5764-.4131c.153-.0306.2912-.0613.2912-.1224a.1841.1841,0,0,0-.1837-.168,4.31,4.31,0,0,0-.6272.1377c-.1224.0153-.168-.0153-.199-.168a3.6164,3.6164,0,0,1-.03-.5744v-.206c0-1.7753.03-3.3058.1071-4.0251.0153-.1071-.0153-.168-.0612-.168a8.1024,8.1024,0,0,1-1.0561.0918h-.6427c-.0919,0-.23.0307-.23.0918,0,.0459.0765.0919.2448.1224.505.1072.6581.1837.6733.7041,0,.3979.0154,1.1172.0154,1.3468,0,.5509,0,1.1477-.0306,1.561a.938.938,0,0,1-.2755.704,1.7151,1.7151,0,0,1-1.3009.49,1.1249,1.1249,0,0,1-.857-.3826,1.6918,1.6918,0,0,1-.23-1.01c-.0152-.7039,0-2.7853.0459-3.6577.0154-.0918-.0306-.1837-.0765-.168a5.3842,5.3842,0,0,1-1.2855.1989c-.168,0-.245.0307-.245.0766s.046.0919.1837.1836a.5955.5955,0,0,1,.3367.5051c.0307.26.0307,2.8466.0307,3.3516a1.6021,1.6021,0,0,0,.2912.9336,1.5041,1.5041,0,0,0,1.3314.551,2.62,2.62,0,0,0,.903-.23,4.3948,4.3948,0,0,0,1.056-.75c.0306-.0458.0459.0612.0459.1072,0,.1071-.0153.4438-.0153.5968,0,.168,0,.2449.0306.2912s.06.06.1823-.0009Zm7.27.0154a2.6455,2.6455,0,0,0,2.112-1.01.3977.3977,0,0,0,.1224-.2449c0-.0459-.0765-.03-.107,0a2.0533,2.0533,0,0,1-1.5917.5816,2.1752,2.1752,0,0,1-1.4233-.5357,2.576,2.576,0,0,1-.7653-1.9895c0-1.76,1.056-2.3722,1.6988-2.3722a1.3717,1.3717,0,0,1,.5815.1224,4.1934,4.1934,0,0,1,.8571.6272.4749.4749,0,0,0,.26.153.5226.5226,0,0,0,.3826-.49.3515.3515,0,0,0-.2143-.2912,2.33,2.33,0,0,0-1.3927-.3825,3.3544,3.3544,0,0,0-2.2651.8876,2.9239,2.9239,0,0,0-.9335,2.1273,2.8844,2.8844,0,0,0,.7652,2.0661,2.79,2.79,0,0,0,1.9129.75Zm6.7033,0a1.29,1.29,0,0,0,1.1785-.6581c.0611-.1377,0-.1836-.0919-.1377a.9738.9738,0,0,1-.4438.1377.5241.5241,0,0,1-.5663-.5815c0-.398.0459-1.8518.0459-2.4181a3.6984,3.6984,0,0,0-.2143-1.3927,1.2545,1.2545,0,0,0-1.1784-.7806,2.0528,2.0528,0,0,0-.9184.2756A3.982,3.982,0,0,0,267.41,60c-.1835.2142-.2912.352-.2912.4592,0,.0612.0765.1531.1531.1377a3.2891,3.2891,0,0,0,.7193-.3366.1893.1893,0,0,0,.0612-.1225,1.5937,1.5937,0,0,1,.0153-.2912.612.612,0,0,1,.23-.3673,1.0541,1.0541,0,0,1,.6122-.1837,1.1654,1.1654,0,0,1,.6427.2449c.26.1989.3673.6272.3673,1.2544a5.2059,5.2059,0,0,1-.0306.704.29.29,0,0,1-.1989.23c-.3214.1224-1.7142.5357-2.0814.7346a1.0781,1.0781,0,0,0-.551.8723,1.27,1.27,0,0,0,1.2213,1.316h.003a2.1422,2.1422,0,0,0,1.5-.6887.0535.0535,0,0,1,.0746.0124l.0019.0029a1.0278,1.0278,0,0,0,.9034.69Zm-1.8059-.5969a.889.889,0,0,1-.9184-.857.7922.7922,0,0,1,.3826-.7653,8.63,8.63,0,0,1,1.4081-.52c.0306-.0153.0612.0612.0612.0766a10.9837,10.9837,0,0,1-.0765,1.4538.6349.6349,0,0,1-.168.3674A1.05,1.05,0,0,1,268.9568,64.0717Zm5.9075.398c0-.0766-.0765-.1072-.26-.1531-.2448-.0765-.4285-.153-.4744-.49a12.582,12.582,0,0,1-.0919-1.607c0-.9184-.0152-1.6988-.0152-1.8825a.7931.7931,0,0,1,.1836-.4592,1.8313,1.8313,0,0,1,1.1938-.49,1.361,1.361,0,0,1,.8722.2912c.3827.2913.49.6581.49,1.8978v2.0813c0,.4438-.0612.551-.4285.6428-.199.046-.2912.1071-.2912.168s.107.0919.2448.0919c.23,0,.4285-.0613.9489-.0613.3366,0,.7805.0613.98.0613.153,0,.2754-.0154.2754-.1072,0-.0613-.0918-.0918-.23-.153-.4131-.1072-.4592-.199-.4744-1.24,0-.7652-.0152-.8876-.0152-1.6987a3.1954,3.1954,0,0,0-.49-2.0048,1.5624,1.5624,0,0,0-1.1937-.52,2.07,2.07,0,0,0-.903.1837,5.2652,5.2652,0,0,0-1.0864.6887c-.0307.0306-.0765-.0154-.0765-.0459a6.9069,6.9069,0,0,1,.0306-.8111c.0153-.0766-.0612-.1378-.1072-.1226a5.742,5.742,0,0,1-1.209.52c-.1377.0459-.2143.0918-.2143.1225,0,.0459.0307.0765.1225.1377.3673.199.3979.3673.3979.52,0,1.24,0,2.6477-.0306,3.75-.0153.3061-.0766.4131-.4592.49-.1837.0307-.3215.0919-.3215.1531,0,.0765.1224.1071.2911.1071.2912,0,.6124-.0306.8111-.0306.352,0,1.102.0613,1.2244.0613.1531,0,.306,0,.306-.0918Zm8.77,4.5913a3.6513,3.6513,0,0,0,1.8518-.5051A3.0884,3.0884,0,0,0,287.2,66.0613a1.5813,1.5813,0,0,0-1.7136-1.6988c-.4285,0-1.27.0459-1.7446.0459-.7959,0-1.4233-.153-1.4233-.6427a.486.486,0,0,1,.1679-.3367,2.3447,2.3447,0,0,1,.5356-.5051.2941.2941,0,0,1,.1837-.0458,3.7161,3.7161,0,0,0,.6428.0764,2.1077,2.1077,0,0,0,1.1938-.3979,2.53,2.53,0,0,0,.9641-2.0661c0-.2755-.0306-.52-.0306-.6272a.1379.1379,0,0,1,.0919-.0918c.168,0,.7192.0307.9335.0307.0611,0,.168-.1224.168-.2755,0-.1837-.0612-.3367-.1377-.3367-.23,0-.8418.0306-1.1325.0306a1.1175,1.1175,0,0,1-.5358-.0765,3.4638,3.4638,0,0,0-1.5611-.3979,2.3535,2.3535,0,0,0-1.6221.6272,1.8478,1.8478,0,0,0-.6428,1.4692,2.31,2.31,0,0,0,1.1784,1.9129c.0307.0154.0459.0766.0307.0919a6.7136,6.7136,0,0,1-1.27,1.1325.19.19,0,0,0-.0918.1531c0,.6121.8111,1.1478,1.24,1.24.0459.0153.0306.1071.0152.1378-.306.3367-.8723,1.0559-.9794,1.1783a.9752.9752,0,0,0-.2755.6582c0,1.1325,1.0259,1.7141,2.25,1.7141Zm.3214-6.3361a1.2485,1.2485,0,0,1-.9489-.4438,2.7741,2.7741,0,0,1-.4744-1.6376,2.14,2.14,0,0,1,.4132-1.3468,1.1488,1.1488,0,0,1,.78-.3519,1.0767,1.0767,0,0,1,.9184.52,2.7391,2.7391,0,0,1,.4744,1.7136c0,.7045-.46,1.5462-1.1634,1.5462Zm.3061,5.8157a2.0921,2.0921,0,0,1-1.454-.4592,1.5666,1.5666,0,0,1-.5968-1.1631,1.935,1.935,0,0,1,.6581-1.362.9438.9438,0,0,1,.52-.1378c.4132-.0153,1.1632-.0307,1.7448-.0307.9794,0,1.3776.5663,1.3776,1.21a2.0422,2.0422,0,0,1-.8265,1.5763,2.3793,2.3793,0,0,1-1.4237.3665Zm5.9074-3.872a2.7049,2.7049,0,0,0,2.1274-.9642.5789.5789,0,0,0,.153-.2449c0-.0764-.0612-.107-.1836.0154a1.9544,1.9544,0,0,1-1.454.49,2.0675,2.0675,0,0,1-1.53-.6272,2.743,2.743,0,0,1-.7041-1.8518,2.1083,2.1083,0,0,1,.1225-.8418c.0305-.046.1071-.1225.1377-.1225h.8265c.352,0,2.3415.0306,2.464.046a.18.18,0,0,0,.153-.168,1.7663,1.7663,0,0,0-1.8672-1.5611,2.8479,2.8479,0,0,0-1.913.7652,3.19,3.19,0,0,0-.8877,2.2345,2.9932,2.9932,0,0,0,.7346,2.0507,2.4712,2.4712,0,0,0,1.821.78Zm-1.27-4.3617a.0659.0659,0,0,1-.0611-.0613,1.3459,1.3459,0,0,1,.3213-.6272,1.59,1.59,0,0,1,1.1173-.5663,1.072,1.072,0,0,1,.7652.2912.9862.9862,0,0,1,.2143.6428c0,.1377-.0306.3061-.3674.3061Zm6.2749,4.3311a2.1016,2.1016,0,0,0,1.24-.3979c.1989-.153.3367-.3061.3367-.398,0-.0611-.046-.0765-.1531,0a1.4959,1.4959,0,0,1-.8417.23,1.1312,1.1312,0,0,1-.9489-.4132,1.5685,1.5685,0,0,1-.168-.8264c-.0153-.4744-.0307-2.8773-.0307-3.1374,0-.0919.0307-.1378.2143-.1378.4133,0,1.1632.0153,1.6988.0153.0765,0,.1531-.1224.1531-.3825,0-.1072-.0612-.2143-.0918-.2143-.3214,0-1.5917.0459-1.8672.0459-.0612,0-.0765-.0918-.0765-.1377-.0153-.1837.0153-.6122.0153-.75,0-.0765-.1071-.1071-.2449.0459a3.2647,3.2647,0,0,1-1.2551,1.0255c-.1679.0764-.1835.1224-.1835.1529,0,.0613.0765.1071.199.1378a2.5131,2.5131,0,0,1,.3673.0918c.0612.0306.0765.1377.0765.3061V63.06a1.72,1.72,0,0,0,.1837.8723,1.4176,1.4176,0,0,0,1.3767.7045Zm6.4125,0a2.1,2.1,0,0,0,1.24-.3979c.1991-.153.3367-.3061.3367-.398,0-.0611-.0458-.0765-.153,0a1.4962,1.4962,0,0,1-.8418.23,1.1312,1.1312,0,0,1-.9488-.4132,1.5685,1.5685,0,0,1-.168-.8264c-.0153-.4744-.0306-2.8773-.0306-3.1374,0-.0919.0306-.1378.2143-.1378.4132,0,1.1631.0153,1.6988.0153.0765,0,.153-.1224.153-.3825,0-.1072-.0612-.2143-.0919-.2143-.3213,0-1.5916.0459-1.867.0459-.0612,0-.0766-.0918-.0766-.1377-.0152-.1837.0154-.6122.0154-.75,0-.0765-.1072-.1071-.2449.0459a3.2611,3.2611,0,0,1-1.2544,1.0255c-.168.0764-.1836.1224-.1836.1529,0,.0613.0765.1071.1989.1378a2.5067,2.5067,0,0,1,.3673.0918c.0612.0306.0765.1377.0765.3061V63.06a1.7235,1.7235,0,0,0,.1837.8723,1.4179,1.4179,0,0,0,1.3762.7045Zm7.9124-.0613c.1377,0,.2448-.0459.2448-.107s-.0459-.0919-.2448-.1378c-.4592-.0765-.52-.1837-.52-.49-.0153-.5815-.0153-1.53-.0306-2.6782a2.95,2.95,0,0,0-.3368-1.6376,1.63,1.63,0,0,0-1.3776-.6887,2.4,2.4,0,0,0-1.0712.26,5.04,5.04,0,0,0-.9184.6272c-.0152.0307-.0611.0154-.0611-.0458-.0155-.2912.0459-5.0352.0611-5.4483.0155-.2143-.0307-.3215-.0766-.3215a.333.333,0,0,0-.1528.0613,6.37,6.37,0,0,1-1.1174.3672c-.168.046-.26.0919-.26.1378s.0459.0765.1072.1224c.3367.1837.4438.23.4592.7193.0307.5816,0,1.5151,0,3.8261,0,2.4334-.0152,3.8416-.0611,4.4536-.0152.5815-.1225.6272-.5661.7346-.1837.0459-.245.0765-.245.1378s.0766.0918.245.0918c.2912,0,.52-.0613.9948-.0613.4438,0,.8416.0613,1.27.0613.1376,0,.23-.0459.23-.0918,0-.0767-.107-.1072-.3367-.1532a.5409.5409,0,0,1-.49-.52,30.462,30.462,0,0,1-.0766-3.2905.77.77,0,0,1,.1532-.5661,1.8473,1.8473,0,0,1,1.3467-.5663,1.1454,1.1454,0,0,1,1.056.5663,2.45,2.45,0,0,1,.23,1.1478c0,1.5916-.0307,2.2651-.0612,2.617-.0613.4438-.0919.551-.505.6428-.1531.0306-.23.0612-.23.1225,0,.0459.0612.0918.2448.0918.352,0,.4745-.0613.9948-.0613.4132,0,.7039.0767,1.1019.0767Zm3.4893.0919a2.7048,2.7048,0,0,0,2.1274-.9642.5789.5789,0,0,0,.153-.2449c0-.0764-.0611-.107-.1836.0154a1.9544,1.9544,0,0,1-1.454.49,2.0675,2.0675,0,0,1-1.53-.6272,2.744,2.744,0,0,1-.7041-1.8518,2.1083,2.1083,0,0,1,.1225-.8418c.0305-.046.1071-.1225.1377-.1225h.8265c.352,0,2.3415.0306,2.464.046a.18.18,0,0,0,.153-.168,1.7659,1.7659,0,0,0-1.8671-1.5611,2.8481,2.8481,0,0,0-1.913.7652,3.19,3.19,0,0,0-.8876,2.2345,2.9912,2.9912,0,0,0,.7347,2.0507,2.4709,2.4709,0,0,0,1.8209.78Zm-1.27-4.3617a.0658.0658,0,0,1-.0612-.0613,1.346,1.346,0,0,1,.3214-.6272,1.59,1.59,0,0,1,1.1172-.5663,1.0708,1.0708,0,0,1,.7652.2912.9862.9862,0,0,1,.2143.6428c0,.1377-.0306.3061-.3673.3061Zm7.9736,4.377a2.5421,2.5421,0,0,0,1.2243-.3366,1.5711,1.5711,0,0,0,.7952-1.2857c0-.78-.3978-1.1631-1.3926-1.8059-.3827-.23-.9642-.5968-.9642-1.24a.8916.8916,0,0,1,.8318-.9475c.0288-.0018.0578-.0023.0866-.0014a1.2565,1.2565,0,0,1,.7193.23,1.1619,1.1619,0,0,1,.3672.6272c.046.1071.0766.1837.1378.1837.0459,0,.0766-.0766.0766-.2449-.0154-.2449-.0766-.551-.0919-.7193a.2479.2479,0,0,0-.0765-.1378,3.75,3.75,0,0,0-1.0406-.168,1.9793,1.9793,0,0,0-1.2857.4285,1.4512,1.4512,0,0,0-.5815,1.21c0,.6735.6122,1.24,1.27,1.6683.6122.3826,1.01.7039,1.01,1.2855a1.0493,1.0493,0,0,1-.9948,1.0254,1.1712,1.1712,0,0,1-.6887-.1837,1.49,1.49,0,0,1-.6428-.8265c-.1071-.2912-.153-.2912-.199-.2912-.0306,0-.0765.046-.0459.245.0154.168.0459.5509.0459.7652,0,.0918.1072.1989.23.2448a3.115,3.115,0,0,0,1.2093.2754Zm4.9892-.0459a2.1005,2.1005,0,0,0,1.24-.3979c.1989-.153.3366-.3061.3366-.398,0-.0611-.0459-.0765-.153,0a1.4959,1.4959,0,0,1-.8417.23,1.1311,1.1311,0,0,1-.9489-.4133,1.5679,1.5679,0,0,1-.168-.8263c-.0153-.4744-.0306-2.8773-.0306-3.1374,0-.0919.0306-.1378.2143-.1378.4132,0,1.1631.0153,1.6988.0153.0765,0,.153-.1224.153-.3826,0-.1071-.0612-.2142-.0918-.2142-.3214,0-1.5917.0459-1.8672.0459-.0611,0-.0765-.0918-.0765-.1378-.0153-.1836.0154-.6121.0154-.75,0-.0765-.1072-.1071-.245.0459a3.26,3.26,0,0,1-1.2544,1.0254c-.168.0765-.1835.1225-.1835.153,0,.0613.0764.1071.1989.1378a2.5067,2.5067,0,0,1,.3673.0918c.0612.0306.0765.1377.0765.3061V63.06a1.7215,1.7215,0,0,0,.1837.8724,1.4179,1.4179,0,0,0,1.3762.7045Zm4.8973.0459a2.9313,2.9313,0,0,0,2.9081-2.9533,2.8721,2.8721,0,0,0-2.8507-2.8932q-.0437,0-.0878.0007a3.142,3.142,0,0,0-1.8368.6427,2.9187,2.9187,0,0,0,1.8671,5.2036Zm.2143-.26a1.819,1.819,0,0,1-1.439-.8115,3.505,3.505,0,0,1-.6428-2.0968c0-1.5916.8263-2.418,1.6068-2.418,1.3469,0,2.0814,1.4386,2.0814,2.8925a3.0469,3.0469,0,0,1-.6427,2.0508,1.5126,1.5126,0,0,1-.964.383Zm3.7037.168A8.2762,8.2762,0,0,1,334.43,64.5c.6427,0,1.1479.0613,1.4386.0613.23,0,.3672-.0307.3672-.1072s-.0764-.1071-.2912-.1378c-.5815-.0611-.7651-.168-.8264-.6427-.0306-.3214-.0612-1.1172-.0612-2.25a8.8634,8.8634,0,0,1,.0153-.9335.8787.8787,0,0,1,.26-.5357,1.0458,1.0458,0,0,1,.6735-.3061,1.0708,1.0708,0,0,1,.5356.1837.691.691,0,0,0,.2756.1072c.0459,0,.107-.0154.2448-.1378a1.0472,1.0472,0,0,0,.3367-.52.2673.2673,0,0,0-.1071-.2143.891.891,0,0,0-.5357-.199,2.4979,2.4979,0,0,0-1.6528,1.1019c-.0459.046-.0766.0306-.0766-.0153,0-.2448.0154-.8265.0154-.9948,0-.153-.0306-.2142-.0613-.2142a.4819.4819,0,0,0-.23.0765,4.6389,4.6389,0,0,1-.98.3673c-.1377.0459-.23.1071-.23.1378s.0153.0765.1224.153c.2913.2448.398.2912.398.3979v1.6992c0,1.01-.0154,1.8823-.0459,2.1425a.6327.6327,0,0,1-.5511.6272c-.1224.0306-.2295.1071-.2295.153,0,.0616.0767.0922.26.0922Zm5.4177,4.1934a.5759.5759,0,0,0,.5051-.26,2.1137,2.1137,0,0,0,.2912-.5663c.2143-.52.7959-2.112,1.1632-3,.3214-.8263.4592-1.1784.6427-1.6835.23-.5815,1.1785-2.9384,1.3622-3.321.2449-.5663.3979-.6733.7039-.7652.1531-.0459.2143-.1072.2143-.1531s-.0918-.0611-.1836-.0611c-.23,0-.4285.0459-.704.0459-.23,0-.551-.0459-.7347-.0459-.1377,0-.2142.03-.2142.0918,0,.0459.0459.0918.2755.1378.26.0765.3367.1989.3367.306a1.15,1.15,0,0,1-.0765.4438c-.1226.352-.98,2.5558-1.1785,3.0762-.0153.0459-.0612.0613-.0918,0-.3061-.6428-1.1479-2.7088-1.3468-3.2445-.1378-.398-.1071-.4745.23-.5815.0919-.0154.199-.0613.199-.1226s-.1071-.107-.26-.107c-.1989,0-.5969.0459-.8111.0459-.3673,0-.7959-.0613-1.0713-.0613-.1072,0-.245.0306-.245.1072,0,.0459.0919.1071.2756.153a.8185.8185,0,0,1,.5509.4133c.6887,1.5,1.6684,3.9791,1.8978,4.576a.7492.7492,0,0,1,.0155.49c-.52,1.3316-.9642,2.5866-1.1172,2.9079a.37.37,0,0,1-.3979.26c-.1071,0-.199-.0306-.3061-.0306a.4514.4514,0,0,0-.4285.4438.5089.5089,0,0,0,.5042.5054Z" style="fill: #333838"/>
  <path d="M241.6991,98.0443a2.5593,2.5593,0,0,0,2.1579-1.1325.5434.5434,0,0,0,.1224-.2755c0-.0612-.0612-.0612-.1377,0a1.93,1.93,0,0,1-1.4846.52,2.0274,2.0274,0,0,1-1.3315-.5356,2.7112,2.7112,0,0,1-.6427-1.8825c0-1.7294.7959-2.2344,1.209-2.2344a1.18,1.18,0,0,1,.5663.1224,6.8668,6.8668,0,0,1,.9642.7193.612.612,0,0,0,.26.1378.5655.5655,0,0,0,.49-.5969.414.414,0,0,0-.1835-.2912,2.3456,2.3456,0,0,0-1.5-.4133,3.8129,3.8129,0,0,0-2.25.8724,2.77,2.77,0,0,0,1.76,4.9893Zm5.9687.0306a3.2372,3.2372,0,0,0,1.8368-.5968,3.0628,3.0628,0,0,0,1.1937-2.4029,2.9039,2.9039,0,0,0-2.9111-2.8967h0q-.075,0-.15.0042a3.1171,3.1171,0,0,0-1.9588.704,2.8128,2.8128,0,0,0-1.0864,2.2651,2.96,2.96,0,0,0,2.9934,2.9252c.0273,0,.0547-.001.082-.0021Zm.1836-.2448a1.4815,1.4815,0,0,1-1.1632-.8418,4.59,4.59,0,0,1-.4744-2.25c0-1.3314.6272-2.296,1.2855-2.296,1.0714,0,1.5611,1.2091,1.5611,2.9538a3.6165,3.6165,0,0,1-.505,2.0814.907.907,0,0,1-.704.3524Zm6.2442.107c.153,0,.3061-.0459.3061-.107,0-.0766-.1072-.1226-.1991-.1378-.3978-.0918-.49-.1531-.505-.6428-.0153-.2755-.03-.8877-.03-2.8772V92.9786c0-2.6477.0459-5.2036.0459-5.3106,0-.0766-.0307-.168-.0613-.168a.657.657,0,0,0-.2142.0611,8.7346,8.7346,0,0,1-1.5456.4285c-.1378.0307-.23.0765-.23.1225s.0459.1071.1531.168c.3519.1835.4285.2912.4285.6427.0152.52,0,2.1426,0,2.9844-.0154,1.4692-.0766,4.3158-.1072,4.9432-.0306.6581-.1224.75-.5356.8264-.1225.0306-.23.0613-.23.1378s.1224.1071.2754.1071c.4133,0,.7346-.0306,1.1479-.0306.23,0,.8416.046,1.3008.046Zm4.1015.1378a3.2372,3.2372,0,0,0,1.8368-.5968,3.0632,3.0632,0,0,0,1.1938-2.4029,2.9038,2.9038,0,0,0-2.9109-2.8967h0q-.0748,0-.15.0042a3.1174,3.1174,0,0,0-1.959.704,2.8122,2.8122,0,0,0-1.0864,2.2651,2.96,2.96,0,0,0,2.9934,2.9252Q258.1559,98.077,258.1971,98.0749Zm.1837-.2448a1.4806,1.4806,0,0,1-1.1631-.8418,4.588,4.588,0,0,1-.4744-2.25c0-1.3314.6272-2.296,1.2855-2.296,1.0713,0,1.561,1.2091,1.561,2.9538a3.6159,3.6159,0,0,1-.5051,2.0814.9076.9076,0,0,1-.7039.3524Zm3.8108.1376c.3673,0,.3519-.0765,1.27-.0765.7346,0,1.01.0613,1.4386.0613.1991,0,.3213-.0307.3213-.1072s-.0611-.1224-.2754-.153c-.5661-.0765-.6734-.1837-.7345-.6428-.0307-.352-.0614-.9947-.0614-2.0814a10.1633,10.1633,0,0,1,.0307-1.1784.6322.6322,0,0,1,.168-.352.7169.7169,0,0,1,.52-.2143,1.2407,1.2407,0,0,1,.5968.2449.431.431,0,0,0,.26.1071c.0766,0,.1532-.0306.3061-.1837a1.5667,1.5667,0,0,0,.4592-.7346c0-.1224-.0613-.1989-.2143-.3061a.8609.8609,0,0,0-.505-.153c-.5969,0-1.1479.551-1.5763,1.1172-.0152.046-.0766.0306-.0766-.0459,0-.3367.0307-.7652.0307-1.0407,0-.0765-.0459-.168-.0766-.168a.5173.5173,0,0,0-.26.0919,7.847,7.847,0,0,1-1.4692.505c-.0612.0306-.168.0918-.168.1377s.0306.0765.1224.1531c.352.306.398.3367.398.4285.0152.1836,0,.5815,0,1.5456-.0154,1.01-.0306,1.8824-.0459,2.1426-.0459.4285-.168.551-.52.6272-.168.0306-.23.1071-.23.168s.0918.1075.2908.1075Zm6.0144-6.9787a.7327.7327,0,0,0,.7508-.7139v-.0513a.72.72,0,0,0-.6734-.7194.7324.7324,0,0,0-.7208.7437l.0015.0369a.6923.6923,0,0,0,.6424.704Zm1.1173,6.9787c.1224,0,.2295-.0306.2295-.107,0-.0613-.0459-.1072-.2143-.1532a.4623.4623,0,0,1-.4132-.4744c-.0306-.23-.0306-1.4539-.0306-3.1679,0-.6428,0-1.4233.0306-1.7447.0153-.168-.0153-.2143-.0612-.2143a1.3437,1.3437,0,0,0-.23.0918,6.9409,6.9409,0,0,1-1.5.4592c-.168.046-.2143.0919-.2143.1225,0,.0612.0459.1071.1225.168.3979.2754.3979.3366.3979.6272,0,.1529-.0459,2.816-.0459,3.2751,0,.5357-.1071.7346-.505.8264-.1837.0306-.2757.0613-.2757.1378,0,.0612.1225.107.26.107.168,0,.52-.03,1.1937-.03.643,0,.995.077,1.2552.077Zm4.6525-.0152a12.0226,12.0226,0,0,1,1.27-.0613c.3059,0,.8111.0459,1.163.0459.1376,0,.2142-.0305.2142-.0918,0-.0765-.0918-.1071-.168-.1378-.4133-.107-.49-.23-.505-1.1783,0-.857-.0152-1.01-.0307-1.8977a2.7171,2.7171,0,0,0-.5357-1.9285,1.5855,1.5855,0,0,0-1.2243-.52,2.2228,2.2228,0,0,0-.903.199,4.3846,4.3846,0,0,0-.903.5969c-.0306.03-.0765.0152-.0765-.0154a6.0164,6.0164,0,0,1,.0307-.7652c0-.0765-.0766-.1377-.1226-.1224a7.81,7.81,0,0,1-1.6222.6272c-.1377.0307-.2142.0765-.2142.1224,0,.0307-.0154.0613.1224.1531.3061.2143.352.3367.352.49,0,1.408-.0153,2.7394-.0459,3.6271-.0153.3519-.0459.4745-.4744.551-.1378.03-.2756.0918-.2756.1529,0,.0766.1225.1225.2912.1225.4593,0,.8571-.0306,1.056-.0306.352,0,1.2244.0613,1.3776.0613.1072,0,.2755-.0154.2755-.1072,0-.0765-.0612-.1071-.2448-.153a.517.517,0,0,1-.4286-.52c-.0153-.1837-.0458-.9488-.0612-1.8977,0-.7805-.0153-1.5-.0153-1.7907a.46.46,0,0,1,.1531-.3213,1.3761,1.3761,0,0,1,.8264-.2912,1.2206,1.2206,0,0,1,.7193.2143c.3673.2912.4592.6122.4592,1.7906v2.25c0,.352-.0765.4592-.49.5815-.1378.0307-.23.0766-.23.1377s.1061.1078.26.1078Zm5.5248,4.27a3.9632,3.9632,0,0,0,2.2192-.7193,3.0839,3.0839,0,0,0,1.4845-2.3263,1.7364,1.7364,0,0,0-.5356-1.3467,1.8554,1.8554,0,0,0-1.2856-.4285c-.551,0-1.2244.0152-1.6835.0152-.8418,0-1.2858-.2143-1.2858-.5815a.4349.4349,0,0,1,.1225-.2912,1.3017,1.3017,0,0,1,.3674-.3061.279.279,0,0,1,.168-.0306,3.4115,3.4115,0,0,0,.7193.0919,2.473,2.473,0,0,0,1.3009-.4286,2.5408,2.5408,0,0,0,.9336-2.0048l-.0011-.2607c-.0015-.1344-.0051-.2626-.0143-.336,0-.0153.0459-.0765.0764-.0765.168,0,.6272.0306.8571.0306.0612,0,.1531-.168.1531-.3214,0-.23-.0459-.3673-.1072-.3673-.26,0-.8111.0306-1.0864.0306a1.2875,1.2875,0,0,1-.52-.0765,3.8339,3.8339,0,0,0-1.6529-.398,2.5,2.5,0,0,0-1.7141.6581,1.8493,1.8493,0,0,0-.6428,1.5,2.1824,2.1824,0,0,0,1.209,1.852c.0307.0152.0459.0459.0307.0611a11.6386,11.6386,0,0,1-1.3315,1.1631c-.0306.0154-.0612.0766-.0612.1837,0,.75.9335,1.2855,1.2244,1.3776a.0948.0948,0,0,1,.0306.1072c-.2755.26-.78.7652-.9184.9335a.8375.8375,0,0,0-.306.6428c0,.9947.8728,1.6528,2.25,1.6528Zm.4439-6.1524a1.0275,1.0275,0,0,1-.7959-.52,3.2408,3.2408,0,0,1-.3826-1.6834,2.2668,2.2668,0,0,1,.3064-1.2243.794.794,0,0,1,.5662-.3215c.2755,0,.4439.0919.7193.4593a3.2681,3.2681,0,0,1,.4439,1.7753c0,.6885-.2909,1.515-.8572,1.515Zm.2142,5.5552a2.2658,2.2658,0,0,1-1.3468-.4133,1.4644,1.4644,0,0,1-.6272-1.0407,1.445,1.445,0,0,1,.52-1.1172.9728.9728,0,0,1,.3826-.0918c.4285,0,1.3009-.0306,1.8518-.0306,1.0407,0,1.3776.5357,1.3776,1.1325a1.6329,1.6329,0,0,1-.7346,1.255,2.5857,2.5857,0,0,1-1.4237.3064Zm8.2491-3.55a3.5952,3.5952,0,0,0,2.5405-1.0561,3.0413,3.0413,0,0,0,.7958-2.1272,2.7674,2.7674,0,0,0-.704-1.8368,2.4849,2.4849,0,0,0-1.9283-.8264,2.5979,2.5979,0,0,0-1.4082.4285c-.0459.0153-.0918,0-.0918-.1071,0-1.3621.0459-3.918.0918-4.8821,0-.168-.0307-.23-.0611-.23a.6778.6778,0,0,0-.2756.0765,10.6215,10.6215,0,0,1-1.5763.4285c-.1835.0307-.2449.0919-.2449.1378,0,.0306.0459.0765.168.168.3215.199.3519.2912.3978.5357.0459.3061.0614,1.1019.0614,2.3722-.0155,1.6069-.0459,3.9485-.0766,4.775a11.9653,11.9653,0,0,1-.1225,1.6987c0,.0459.0459.1377.1073.1072.2756-.1072.3671-.1072.4437-.0765a5.053,5.053,0,0,0,1.8829.4138Zm.5509-.3061a1.6563,1.6563,0,0,1-.6428-.1378,1.1825,1.1825,0,0,1-.52-.4592,5.5646,5.5646,0,0,1-.2449-1.7447c0-.5969-.0153-2.02.0459-2.296a.41.41,0,0,1,.1071-.26,1.2948,1.2948,0,0,1,.5816-.1376,1.8033,1.8033,0,0,1,1.3162.658,3.5932,3.5932,0,0,1,.5816,2.02h-.0154a3.91,3.91,0,0,1-.4285,1.8671,1.0758,1.0758,0,0,1-.78.49Zm6.81.3061a3.2366,3.2366,0,0,0,1.8368-.5969A3.0628,3.0628,0,0,0,298.8,95.0751a2.9041,2.9041,0,0,0-2.9112-2.8968h0q-.0748,0-.15.0043a3.1173,3.1173,0,0,0-1.9589.704,2.8128,2.8128,0,0,0-1.0864,2.2651,2.96,2.96,0,0,0,2.9933,2.9253q.0412,0,.0825-.0021Zm.1837-.2448a1.48,1.48,0,0,1-1.1632-.8418,4.59,4.59,0,0,1-.4745-2.25c0-1.3314.6272-2.296,1.2856-2.296,1.0713,0,1.5611,1.2091,1.5611,2.9538a3.6174,3.6174,0,0,1-.5051,2.0814.9075.9075,0,0,1-.7038.3525Zm6.8717.2448a3.2366,3.2366,0,0,0,1.8368-.5969,3.0632,3.0632,0,0,0,1.1937-2.4028,2.9041,2.9041,0,0,0-2.9113-2.8967q-.075,0-.15.0043a3.1171,3.1171,0,0,0-1.9589.704,2.8128,2.8128,0,0,0-1.0864,2.2651,2.96,2.96,0,0,0,2.9934,2.9252q.0414,0,.0826-.0021Zm.1835-.2448a1.4812,1.4812,0,0,1-1.1631-.8418,4.59,4.59,0,0,1-.4745-2.25c0-1.3314.6272-2.296,1.2856-2.296,1.0714,0,1.561,1.2091,1.561,2.9538a3.6165,3.6165,0,0,1-.505,2.0814.9067.9067,0,0,1-.7039.3525Zm10.254.1376c.168,0,.2912-.0459.2912-.1224,0-.0612-.0612-.1071-.2143-.1378-.4437-.0765-.5968-.2142-1.0407-.7039-.5968-.6581-1.6222-1.9284-2.1728-2.6782-.0153-.0307-.0459-.0766-.0153-.1072a13.9906,13.9906,0,0,1,1.1325-1.0407,2.8292,2.8292,0,0,1,1.3315-.6734c.1837-.03.2448-.0765.2448-.1224,0-.0613-.0917-.1072-.26-.1072-.5356,0-1.0407.0919-1.6068.0919-.1226,0-.352-.0154-.5663-.0154-.1377,0-.26.0459-.26.1072,0,.0765.0919.1071.2449.1378.4592.0765.5509.1989.5509.2754a.5042.5042,0,0,1-.1377.2449,7.7941,7.7941,0,0,1-1.6376,1.6069.7173.7173,0,0,1-.26.1377c-.0459,0-.0765-.0764-.0765-.2142-.0152-.7652.0613-3.367.0613-3.8873,0-1.1478.0765-2.6783.0918-3.2144a.1428.1428,0,0,0-.0612-.1072.8393.8393,0,0,0-.2755.0765,5.3494,5.3494,0,0,1-1.4845.4285c-.1837.0307-.2912.0918-.2912.1531,0,.0459.0766.0919.1377.1378.23.1224.3674.23.3674.3366a3.2989,3.2989,0,0,1,.0612.7347c0,.857-.0307,3.55-.0307,4.1933,0,1.1785-.0155,2.3263-.0766,3.4435-.0306.505-.0918.6581-.551.7652-.1224.0307-.2142.0766-.2142.1377s.1376.1072.26.1072c.0766,0,.612-.0613,1.2092-.0613.3977,0,.8876.046,1.3313.046.107,0,.2912-.0306.2912-.1224,0-.0613-.107-.1225-.26-.153-.3367-.0766-.5357-.1226-.5663-.8724-.0152-.52-.0306-1.3621,0-1.607.0154-.0765.0154-.1224.0613-.1224s.1531.1224.306.3061c.4745.5509,1.3009,1.5763,1.53,1.8824.1378.2142.0765.3214-.168.3979-.23.0612-.2912.0919-.2912.168s.0765.1071.26.1071c.2143,0,.4438-.0306.7346-.0306.6727.001,1.1471.0775,2.0195.0775Zm2.5558-2.8159c.0613,0,.1376-.0613.1835-.4439.1836-1.4845.8266-3.4741.8266-4.4841,0-.597-.3367-1.3009-1.01-1.3009-.6122,0-1.0253.7346-1.0253,1.3468.0152,1.1019.6272,2.6935.8266,4.4842.0459.3214.1069.398.1989.398Zm.0154,2.9384a.9361.9361,0,0,0,.8722-.9336.9151.9151,0,0,0-.8722-.9489.942.942,0,0,0,0,1.8825Z"/>
  <line x1="198.2372" y1="118.5363" x2="192.8331" y2="113.4332" style="fill: none;stroke: #222f3c;stroke-linecap: round;stroke-linejoin: round;stroke-width: 0.5px"/>
  <path d="M200.429,118.5662l5.1462-5.45-6.1337-6.1338h0a.0644.0644,0,0,0-.0741-.0147h-.0009a.062.062,0,0,0-.0409.0629v10.4328" style="fill: none;stroke: #222f3c;stroke-linecap: round;stroke-linejoin: round;stroke-width: 0.5px"/>
  <path d="M199.31,117.4638V113.55a.0663.0663,0,0,0-.02-.0459l.0006-.0006a.0732.0732,0,0,0-.05-.0212l-6.408-.0486" style="fill: none;stroke: #222f3c;stroke-linecap: round;stroke-linejoin: round;stroke-width: 0.5px"/>
  <path d="M201.4594,119.6393h3.9888a.0677.0677,0,0,0,.046-.02h.0006a.0719.0719,0,0,0,.021-.0493l.0488-6.4277-5.1282,5.43" style="fill: none;stroke: #222f3c;stroke-linecap: round;stroke-linejoin: round;stroke-width: 0.5px"/>
  <line x1="192.8148" y1="113.4344" x2="192.816" y2="113.4331" style="fill: none;stroke: #222f3c;stroke-linecap: round;stroke-linejoin: round;stroke-width: 0.5px"/>
  <path d="M192.8148,113.4344l-6.12,6.12h0a.0691.0691,0,0,0-.0193.0336.0711.0711,0,0,0,.0044.04v.001a.0618.0618,0,0,0,.0631.0408h10.4642" style="fill: none;stroke: #222f3c;stroke-linecap: round;stroke-linejoin: round;stroke-width: 0.5px"/>
  <polyline points="192.814 113.435 192.813 113.433 192.816 113.433" style="fill: none;stroke: #222f3c;stroke-linecap: round;stroke-linejoin: round;stroke-width: 0.5px"/>
  <line x1="192.8148" y1="113.4344" x2="198.2278" y2="118.5458" style="fill: none;stroke: #222f3c;stroke-linecap: round;stroke-linejoin: round;stroke-width: 0.5px"/>
  <polyline points="192.833 113.433 192.825 113.425 192.816 113.433" style="fill: none;stroke: #222f3c;stroke-linecap: round;stroke-linejoin: round;stroke-width: 0.5px"/>
  <line x1="192.8331" y1="113.4332" x2="192.816" y2="113.4331" style="fill: none;stroke: #222f3c;stroke-linecap: round;stroke-linejoin: round;stroke-width: 0.5px"/>
  <line x1="200.361" y1="120.7377" x2="205.8053" y2="125.8788" style="fill: none;stroke: #222f3c;stroke-linecap: round;stroke-linejoin: round;stroke-width: 0.5px"/>
  <path d="M198.2455,120.7077l-5.1822,5.488,6.1337,6.1338h0a.0648.0648,0,0,0,.0741.0147h.0009c.0137-.0056.0241,17.4784.031,17.4681s.01-17.5151.01-17.531V121.7746" style="fill: none;stroke: #222f3c;stroke-linecap: round;stroke-linejoin: round;stroke-width: 0.5px"/>
  <path d="M199.3284,121.77v3.9925a.0651.0651,0,0,0,.02.0458v.0007a.0733.0733,0,0,0,.0494.0212l6.4081.0486" style="fill: none;stroke: #222f3c;stroke-linecap: round;stroke-linejoin: round;stroke-width: 0.5px"/>
  <path d="M198.2381,120.7l-5.1643,5.4686.0489-6.4277a.0719.0719,0,0,1,.021-.0493h0a.0668.0668,0,0,1,.0461-.02h4.02" style="fill: none;stroke: #222f3c;stroke-linecap: round;stroke-linejoin: round;stroke-width: 0.5px"/>
  <line x1="205.8237" y1="125.8777" x2="205.8225" y2="125.8789" style="fill: none;stroke: #222f3c;stroke-linecap: round;stroke-linejoin: round;stroke-width: 0.5px"/>
  <path d="M205.8237,125.8777l6.12-6.12h0a.0691.0691,0,0,0,.0193-.0336.0711.0711,0,0,0-.0045-.04v-.001a.0617.0617,0,0,0-.063-.0408H201.4564" style="fill: none;stroke: #222f3c;stroke-linecap: round;stroke-linejoin: round;stroke-width: 0.5px"/>
  <polyline points="205.823 125.878 205.826 125.879 205.822 125.879" style="fill: none;stroke: #222f3c;stroke-linecap: round;stroke-linejoin: round;stroke-width: 0.5px"/>
  <line x1="205.8237" y1="125.8777" x2="200.3705" y2="120.7281" style="fill: none;stroke: #222f3c;stroke-linecap: round;stroke-linejoin: round;stroke-width: 0.5px"/>
  <polyline points="205.805 125.879 205.814 125.887 205.822 125.879" style="fill: none;stroke: #222f3c;stroke-linecap: round;stroke-linejoin: round;stroke-width: 0.5px"/>
  <line x1="205.8053" y1="125.8788" x2="205.8225" y2="125.8789" style="fill: none;stroke: #222f3c;stroke-linecap: round;stroke-linejoin: round;stroke-width: 0.5px"/>
  <line x1="198.2455" y1="120.7077" x2="198.2381" y2="120.7004" style="fill: none;stroke: #222f3c;stroke-linecap: round;stroke-linejoin: round;stroke-width: 0.5px"/>
  <line x1="198.2372" y1="118.5363" x2="198.2278" y2="118.5458" style="fill: none;stroke: #222f3c;stroke-linecap: round;stroke-linejoin: round;stroke-width: 0.5px"/>
  <line x1="198.2381" y1="120.7004" x2="197.2105" y2="119.6728" style="fill: none;stroke: #222f3c;stroke-linecap: round;stroke-linejoin: round;stroke-width: 0.5px"/>
  <line x1="197.2071" y1="119.6694" x2="197.2105" y2="119.6728" style="fill: none;stroke: #222f3c;stroke-linecap: round;stroke-linejoin: round;stroke-width: 0.5px"/>
  <polyline points="201.46 119.639 201.481 119.618 200.436 118.573" style="fill: none;stroke: #222f3c;stroke-linecap: round;stroke-linejoin: round;stroke-width: 0.5px"/>
  <polyline points="199.328 121.77 199.318 121.781 199.313 121.775" style="fill: none;stroke: #222f3c;stroke-linecap: round;stroke-linejoin: round;stroke-width: 0.5px"/>
  <line x1="199.3287" y1="121.77" x2="200.361" y2="120.7377" style="fill: none;stroke: #222f3c;stroke-linecap: round;stroke-linejoin: round;stroke-width: 0.5px"/>
  <polyline points="199.309 117.463 199.318 117.455 199.326 117.463" style="fill: none;stroke: #222f3c;stroke-linecap: round;stroke-linejoin: round;stroke-width: 0.5px"/>
  <line x1="201.456" y1="119.6426" x2="200.3705" y2="120.7281" style="fill: none;stroke: #222f3c;stroke-linecap: round;stroke-linejoin: round;stroke-width: 0.5px"/>
  <line x1="198.2455" y1="120.7077" x2="199.3126" y2="121.7749" style="fill: none;stroke: #222f3c;stroke-linecap: round;stroke-linejoin: round;stroke-width: 0.5px"/>
  <polyline points="197.207 119.67 197.156 119.618 198.227 118.546" style="fill: none;stroke: #222f3c;stroke-linecap: round;stroke-linejoin: round;stroke-width: 0.5px"/>
  <line x1="199.3098" y1="117.4638" x2="198.2372" y2="118.5363" style="fill: none;stroke: #222f3c;stroke-linecap: round;stroke-linejoin: round;stroke-width: 0.5px"/>
  <line x1="200.429" y1="118.5662" x2="199.3259" y2="117.4631" style="fill: none;stroke: #222f3c;stroke-linecap: round;stroke-linejoin: round;stroke-width: 0.5px"/>
  <line x1="200.361" y1="120.7377" x2="200.3705" y2="120.7281" style="fill: none;stroke: #222f3c;stroke-linecap: round;stroke-linejoin: round;stroke-width: 0.5px"/>
  <line x1="201.456" y1="119.6426" x2="201.4594" y2="119.6393" style="fill: none;stroke: #222f3c;stroke-linecap: round;stroke-linejoin: round;stroke-width: 0.5px"/>
  <line x1="200.429" y1="118.5662" x2="200.4364" y2="118.5736" style="fill: none;stroke: #222f3c;stroke-linecap: round;stroke-linejoin: round;stroke-width: 0.5px"/>
  <path d="M74.1247,81.0423H71.8484a.5274.5274,0,0,1-.5274-.5274h0v-1.56a.5274.5274,0,0,1,.5274-.5274h5.9883" style="fill: none;stroke: #222f3c;stroke-linecap: round;stroke-linejoin: round;stroke-width: 0.4000000059604645px"/>
  <line x1="70.8123" y1="95.3156" x2="72.4163" y2="95.3156" style="fill: none;stroke: #222f3c;stroke-linecap: round;stroke-linejoin: round;stroke-width: 0.4000000059604645px"/>
  <line x1="72.8279" y1="85.3835" x2="72.8279" y2="81.7298" style="fill: none;stroke: #222f3c;stroke-linecap: round;stroke-linejoin: round;stroke-width: 0.4000000059604645px"/>
  <line x1="72.2711" y1="95.3156" x2="70.2395" y2="95.3156" style="fill: none;stroke: #222f3c;stroke-linecap: round;stroke-linejoin: round;stroke-width: 0.4000000059604645px"/>
  <line x1="69.3516" y1="93.9604" x2="69.3588" y2="93.9428" style="fill: none;stroke: #222f3c;stroke-linecap: round;stroke-linejoin: round;stroke-width: 0.4000000059604645px"/>
  <line x1="69.3588" y1="93.9428" x2="72.8225" y2="85.4555" style="fill: none;stroke: #222f3c;stroke-linecap: round;stroke-linejoin: round;stroke-width: 0.4000000059604645px"/>
  <path d="M69.3516,93.96a.98.98,0,0,0,.908,1.3538" style="fill: none;stroke: #222f3c;stroke-linecap: round;stroke-linejoin: round;stroke-width: 0.4000000059604645px"/>
  <path d="M69.3516,93.96l.0072-.0176" style="fill: none;stroke: #222f3c;stroke-linecap: round;stroke-linejoin: round;stroke-width: 0.4000000059604645px"/>
  <line x1="72.2711" y1="95.3156" x2="70.2395" y2="95.3156" style="fill: none;stroke: #222f3c;stroke-linecap: round;stroke-linejoin: round;stroke-width: 0.4000000059604645px"/>
  <line x1="69.3516" y1="93.9604" x2="69.3588" y2="93.9428" style="fill: none;stroke: #222f3c;stroke-linecap: round;stroke-linejoin: round;stroke-width: 0.4000000059604645px"/>
  <line x1="69.3588" y1="93.9428" x2="72.8225" y2="85.4555" style="fill: none;stroke: #222f3c;stroke-linecap: round;stroke-linejoin: round;stroke-width: 0.4000000059604645px"/>
  <path d="M69.3516,93.96a.98.98,0,0,0,.908,1.3538" style="fill: none;stroke: #222f3c;stroke-linecap: round;stroke-linejoin: round;stroke-width: 0.4000000059604645px"/>
  <path d="M69.3516,93.96l.0072-.0176" style="fill: none;stroke: #222f3c;stroke-linecap: round;stroke-linejoin: round;stroke-width: 0.4000000059604645px"/>
  <path d="M78.0267,82.627h3.17A.5076.5076,0,0,0,81.681,82.1v-1.561a.5077.5077,0,0,0-.4847-.5275H75.153a.5076.5076,0,0,0-.4849.5275V82.1a.5076.5076,0,0,0,.4849.5274h1.0455" style="fill: none;stroke: #222f3c;stroke-linecap: round;stroke-linejoin: round;stroke-width: 0.4000000059604645px"/>
  <line x1="75.867" y1="87.5541" x2="75.867" y2="83.9004" style="fill: none;stroke: #222f3c;stroke-linecap: round;stroke-linejoin: round;stroke-width: 0.4000000059604645px"/>
  <line x1="82.4976" y1="97.4861" x2="73.2785" y2="97.4861" style="fill: none;stroke: #222f3c;stroke-linecap: round;stroke-linejoin: round;stroke-width: 0.4000000059604645px"/>
  <line x1="72.3907" y1="96.1308" x2="72.3979" y2="96.1133" style="fill: none;stroke: #222f3c;stroke-linecap: round;stroke-linejoin: round;stroke-width: 0.4000000059604645px"/>
  <line x1="72.3979" y1="96.1133" x2="75.8615" y2="87.626" style="fill: none;stroke: #222f3c;stroke-linecap: round;stroke-linejoin: round;stroke-width: 0.4000000059604645px"/>
  <path d="M72.3907,96.1308a.98.98,0,0,0,.9079,1.354" style="fill: none;stroke: #222f3c;stroke-linecap: round;stroke-linejoin: round;stroke-width: 0.4000000059604645px"/>
  <path d="M72.3907,96.1308l.0072-.0175" style="fill: none;stroke: #222f3c;stroke-linecap: round;stroke-linejoin: round;stroke-width: 0.4000000059604645px"/>
  <line x1="80.482" y1="87.5541" x2="80.482" y2="83.9004" style="fill: none;stroke: #222f3c;stroke-linecap: round;stroke-linejoin: round;stroke-width: 0.4000000059604645px"/>
  <line x1="73.4238" y1="97.4861" x2="83.0705" y2="97.4861" style="fill: none;stroke: #222f3c;stroke-linecap: round;stroke-linejoin: round;stroke-width: 0.4000000059604645px"/>
  <line x1="83.9583" y1="96.1308" x2="83.9511" y2="96.1133" style="fill: none;stroke: #222f3c;stroke-linecap: round;stroke-linejoin: round;stroke-width: 0.4000000059604645px"/>
  <line x1="83.9511" y1="96.1133" x2="80.4875" y2="87.626" style="fill: none;stroke: #222f3c;stroke-linecap: round;stroke-linejoin: round;stroke-width: 0.4000000059604645px"/>
  <path d="M83.9583,96.1308a.98.98,0,0,1-.9083,1.354" style="fill: none;stroke: #222f3c;stroke-linecap: round;stroke-linejoin: round;stroke-width: 0.4000000059604645px"/>
  <path d="M83.9583,96.1308l-.0072-.0175" style="fill: none;stroke: #222f3c;stroke-linecap: round;stroke-linejoin: round;stroke-width: 0.4000000059604645px"/>
  <line x1="73.4238" y1="97.4861" x2="83.0705" y2="97.4861" style="fill: none;stroke: #222f3c;stroke-linecap: round;stroke-linejoin: round;stroke-width: 0.4000000059604645px"/>
  <line x1="83.9583" y1="96.1308" x2="83.9511" y2="96.1133" style="fill: none;stroke: #222f3c;stroke-linecap: round;stroke-linejoin: round;stroke-width: 0.4000000059604645px"/>
  <line x1="83.9511" y1="96.1133" x2="80.4875" y2="87.626" style="fill: none;stroke: #222f3c;stroke-linecap: round;stroke-linejoin: round;stroke-width: 0.4000000059604645px"/>
  <path d="M83.9583,96.1308a.98.98,0,0,1-.9083,1.354" style="fill: none;stroke: #222f3c;stroke-linecap: round;stroke-linejoin: round;stroke-width: 0.4000000059604645px"/>
  <path d="M83.9583,96.1308l-.0072-.0175" style="fill: none;stroke: #222f3c;stroke-linecap: round;stroke-linejoin: round;stroke-width: 0.4000000059604645px"/>
  <line x1="78.9252" y1="84.7853" x2="80.5161" y2="84.7853" style="fill: none;stroke: #222f3c;stroke-miterlimit: 10;stroke-width: 0.4000000059604645px"/>
  <line x1="78.9252" y1="83.8739" x2="80.5161" y2="83.8739" style="fill: none;stroke: #222f3c;stroke-miterlimit: 10;stroke-width: 0.4000000059604645px"/>
  <line x1="78.9252" y1="85.7074" x2="80.5161" y2="85.7074" style="fill: none;stroke: #222f3c;stroke-miterlimit: 10;stroke-width: 0.4000000059604645px"/>
  <line x1="78.9252" y1="86.6296" x2="80.5161" y2="86.6296" style="fill: none;stroke: #222f3c;stroke-miterlimit: 10;stroke-width: 0.4000000059604645px"/>
  <line x1="78.9252" y1="87.5517" x2="80.5161" y2="87.5517" style="fill: none;stroke: #222f3c;stroke-miterlimit: 10;stroke-width: 0.4000000059604645px"/>
  <path d="M75.5024,92.8619c0-.5233.9475-1.6623.9475-1.6623s.9476,1.139.9476,1.6623a.9476.9476,0,0,1-1.8951,0Z" style="fill: none;stroke: #222f3c;stroke-miterlimit: 10;stroke-width: 0.4000000059604645px"/>
  <path d="M77.48,95.2073c0-.5234.9474-1.6623.9474-1.6623s.9475,1.1389.9475,1.6623a.9475.9475,0,0,1-1.8949,0Z" style="fill: none;stroke: #222f3c;stroke-miterlimit: 10;stroke-width: 0.4000000059604645px"/>
  <path d="M78.0036,91.8485c0-.5233.9475-1.6623.9475-1.6623s.9475,1.139.9475,1.6623a.9475.9475,0,0,1-1.895.0041v-.0041Z" style="fill: none;stroke: #222f3c;stroke-miterlimit: 10;stroke-width: 0.4000000059604645px"/>
  <path d="M216.0085,59.3036l13.6139,12.81h0l-9.4367,10.0293a1.12,1.12,0,0,1-1.5831.0481L206.62,70.9161a1.12,1.12,0,0,1-.0482-1.5831h0l9.4367-10.0293Z" style="fill: none;stroke: #222f3c;stroke-miterlimit: 10;stroke-width: 0.4000000059604645px"/>
  <rect x="215.8636" y="55.2299" width="9.5726" height="3.7384" transform="translate(27.8614 178.6692) rotate(-46.7436)" style="fill: none;stroke: #222f3c;stroke-linecap: round;stroke-linejoin: round;stroke-width: 0.40000000754208787px"/>
  <rect x="218.8373" y="58.3726" width="7.9772" height="3.7384" transform="translate(26.2575 181.2431) rotate(-46.7436)" style="fill: none;stroke: #222f3c;stroke-linecap: round;stroke-linejoin: round;stroke-width: 0.40000000754208787px"/>
  <rect x="221.8112" y="61.5153" width="6.3818" height="3.7384" transform="translate(24.6536 183.8172) rotate(-46.7436)" style="fill: none;stroke: #222f3c;stroke-linecap: round;stroke-linejoin: round;stroke-width: 0.40000000754208787px"/>
  <rect x="224.7849" y="64.6582" width="4.7863" height="3.7384" transform="translate(23.0495 186.391) rotate(-46.7436)" style="fill: none;stroke: #222f3c;stroke-linecap: round;stroke-linejoin: round;stroke-width: 0.40000000754208787px"/>
  <rect x="227.7587" y="67.8012" width="3.1909" height="3.7384" transform="translate(21.4454 188.9651) rotate(-46.7436)" style="fill: none;stroke: #222f3c;stroke-linecap: round;stroke-linejoin: round;stroke-width: 0.40000000754208787px"/>
  <polygon points="233.729 65.02 231.151 66.246 232.663 67.668 233.729 65.02" style="fill: none;stroke: #222f3c;stroke-linejoin: round;stroke-width: 0.4000000059604645px"/>
  <polygon points="231.151 66.246 229.088 67.226 231.811 69.787 232.663 67.668 231.151 66.246" style="fill: none;stroke: #222f3c;stroke-linejoin: round;stroke-width: 0.4000000059604645px"/>
  <polygon points="232.1 61.296 229.521 62.522 231.033 63.945 232.1 61.296" style="fill: none;stroke: #222f3c;stroke-linejoin: round;stroke-width: 0.4000000059604645px"/>
  <polygon points="229.521 62.522 227.458 63.502 230.181 66.063 231.033 63.945 229.521 62.522" style="fill: none;stroke: #222f3c;stroke-linejoin: round;stroke-width: 0.4000000059604645px"/>
  <polygon points="230.47 57.572 227.892 58.798 229.405 60.221 230.47 57.572" style="fill: none;stroke: #222f3c;stroke-linejoin: round;stroke-width: 0.4000000059604645px"/>
  <polygon points="227.892 58.798 225.829 59.778 228.551 62.339 229.405 60.221 227.892 58.798" style="fill: none;stroke: #222f3c;stroke-linejoin: round;stroke-width: 0.4000000059604645px"/>
  <polygon points="228.842 53.849 226.262 55.074 227.775 56.497 228.842 53.849" style="fill: none;stroke: #222f3c;stroke-linejoin: round;stroke-width: 0.4000000059604645px"/>
  <polygon points="226.262 55.074 224.2 56.054 226.923 58.616 227.775 56.497 226.262 55.074" style="fill: none;stroke: #222f3c;stroke-linejoin: round;stroke-width: 0.4000000059604645px"/>
  <polygon points="227.212 50.125 224.634 51.351 226.146 52.773 227.212 50.125" style="fill: none;stroke: #222f3c;stroke-linejoin: round;stroke-width: 0.4000000059604645px"/>
  <polygon points="224.634 51.351 222.571 52.331 225.293 54.892 226.146 52.773 224.634 51.351" style="fill: none;stroke: #222f3c;stroke-linejoin: round;stroke-width: 0.4000000059604645px"/>
  <line x1="56.6359" y1="150.2447" x2="237.7843" y2="150.2447" style="fill: none;stroke: #222f3c;stroke-linecap: round;stroke-linejoin: round;stroke-width: 0.5px"/>
  <path d="M153.9612,101.5508a11.0631,11.0631,0,0,0,22.1062,0,9.5652,9.5652,0,0,0-.1216-1.8243" style="fill: none;stroke: #222f3c;stroke-miterlimit: 10;stroke-width: 0.5px"/>
  <path d="M168.0635,147.9653h3.9639a1.7532,1.7532,0,0,1,1.7532,1.7532h0v.4384h-5.7171Z" style="fill: none;stroke: #222f3c;stroke-miterlimit: 10;stroke-width: 0.5px"/>
  <path d="M161.9652,150.1568h-5.7171v-.4384a1.7532,1.7532,0,0,1,1.7531-1.7532h3.964Z" style="fill: none;stroke: #222f3c;stroke-miterlimit: 10;stroke-width: 0.5px"/>
  <path d="M153.9612,101.5508c0-.12.0053-.2379.0094-.3565a2.007,2.007,0,1,0,.1813,4.01h.4843A10.1763,10.1763,0,0,1,153.9612,101.5508Z" style="fill: none;stroke: #222f3c;stroke-miterlimit: 10;stroke-width: 0.5px"/>
  <path d="M176.058,101.1943c.0042.1186.01.237.01.3565a10.1808,10.1808,0,0,1-.6751,3.6527h.4845a2.007,2.007,0,0,0,.1811-4.01h0Z" style="fill: none;stroke: #222f3c;stroke-miterlimit: 10;stroke-width: 0.5px"/>
  <path d="M171.4937,102.3727a1.24,1.24,0,0,1-2.4773,0" style="fill: none;stroke: #222f3c;stroke-miterlimit: 10;stroke-width: 0.5px"/>
  <path d="M161.0124,102.3727a1.24,1.24,0,0,1-2.4774,0" style="fill: none;stroke: #222f3c;stroke-miterlimit: 10;stroke-width: 0.5px"/>
  <path d="M162.9181,107.4315a2.0982,2.0982,0,0,0,4.1926,0" style="fill: none;stroke: #222f3c;stroke-miterlimit: 10;stroke-width: 0.5px"/>
  <path d="M177.8389,116.8977a11.6285,11.6285,0,0,0-5.8456-5.57,3.1052,3.1052,0,0,0-1.1312-.4188,1.9511,1.9511,0,0,0-.4059-.0448c-.02,0-.04.0017-.0594.0023-.0156,0-.0307-.0023-.0464-.0023h-.0672a11.494,11.494,0,0,1-10.5368,0h-.0672c-.0157,0-.0307.002-.0464.0023-.02-.0006-.04-.0023-.06-.0023a1.9494,1.9494,0,0,0-.4058.0448,3.1041,3.1041,0,0,0-1.1311.4188,11.6283,11.6283,0,0,0-5.8457,5.57c-.0984.2016-.1883.4065-.2739.6119l3.7355.8325a7.8683,7.8683,0,0,1,.978-1.4951v9.996H173.4v-9.996a7.8673,7.8673,0,0,1,.9778,1.4951l3.7356-.8325C178.0273,117.3043,177.9374,117.1,177.8389,116.8977Z" style="fill: none;stroke: #222f3c;stroke-miterlimit: 10;stroke-width: 0.5px"/>
  <path d="M159.6692,110.7134a5.3553,5.3553,0,0,0,10.7008,0" style="fill: none;stroke: #222f3c;stroke-miterlimit: 10;stroke-width: 0.5px"/>
  <path d="M175.3091,123.8851a2.1578,2.1578,0,0,1,.93-.21,2.1067,2.1067,0,0,1,1.8612,1.087,10.5783,10.5783,0,0,0-.4-7.16l-2.9033.6472A7.9,7.9,0,0,1,175.3091,123.8851Z" style="fill: none;stroke: #222f3c;stroke-miterlimit: 10;stroke-width: 0.5px"/>
  <ellipse cx="176.2389" cy="125.6835" rx="2.0963" ry="2.0089" style="fill: none;stroke: #222f3c;stroke-miterlimit: 10;stroke-width: 0.5px"/>
  <path d="M151.0656,123.05a3.0934,3.0934,0,0,0-1.1243-.22,8.2361,8.2361,0,0,0,2.3567-5.2528l2.9.6608a10.7851,10.7851,0,0,1-2.9717,6.58A2.0015,2.0015,0,0,0,151.0656,123.05Z" style="fill: none;stroke: #222f3c;stroke-miterlimit: 10;stroke-width: 0.5px"/>
  <ellipse cx="150.1313" cy="124.8487" rx="2.0963" ry="2.0089" style="fill: none;stroke: #222f3c;stroke-miterlimit: 10;stroke-width: 0.5px"/>
  <path d="M165.0176,86.228a11.1383,11.1383,0,0,0-4.0267.753,19.1593,19.1593,0,0,1-10.06-1.2992V89.23a9.475,9.475,0,0,0,2.6219,6.4022h0a13.5459,13.5459,0,0,0-.2187,5.63,1.9069,1.9069,0,0,1,.6518-.1161h.0043a12.5159,12.5159,0,0,1,.8349-4.3456,11.0081,11.0081,0,0,0,1.6584,1.0709,12.8263,12.8263,0,0,0,8.4633.7047,25.91,25.91,0,0,1,5.0214-.4891,19.504,19.504,0,0,1,5.88.9929,12.7313,12.7313,0,0,1,.1975,2.0664h.0041a1.9092,1.9092,0,0,1,.6517.1162,13.711,13.711,0,0,0,.1955-2.2331c0-.0224.0014-.0441.0014-.0664C176.8985,91.93,171.5793,86.228,165.0176,86.228Z" style="fill: none;stroke: #222f3c;stroke-miterlimit: 10;stroke-width: 0.5px"/>
  <path d="M165.034,134.31v13.64h7.5835v-13.776c.896-1.0411.8085-4.5414.8085-5.9845l-16.7963.0587" style="fill: none;stroke: #222f3c;stroke-miterlimit: 10;stroke-width: 0.5px"/>
  <path d="M165.0239,136.5276v11.4217H157.44v-13.776c-.896-1.0411-.8085-4.5414-.8085-5.9845l16.7963.0587" style="fill: none;stroke: #222f3c;stroke-miterlimit: 10;stroke-width: 0.5px"/>
  <path d="M146.264,101.2619c.004.1186.0094.2368.0094.3565a10.18,10.18,0,0,1-.675,3.6525h.4844a2.0066,2.0066,0,0,0,.1812-4.009Z" style="fill: none;stroke: #222f3c;stroke-miterlimit: 10;stroke-width: 0.5px"/>
  <path d="M141.7,103.6273a1.24,1.24,0,0,0-2.4775,0" style="fill: none;stroke: #222f3c;stroke-miterlimit: 10;stroke-width: 0.5px"/>
  <path d="M131.2183,103.6273a1.24,1.24,0,0,0-2.4774,0" style="fill: none;stroke: #222f3c;stroke-miterlimit: 10;stroke-width: 0.5px"/>
  <path d="M133.124,107.499a2.0982,2.0982,0,0,0,4.1926,0" style="fill: none;stroke: #222f3c;stroke-miterlimit: 10;stroke-width: 0.5px"/>
  <path d="M149.1545,123.0484a3.1423,3.1423,0,0,1,1.1217-.2253,7.9336,7.9336,0,0,1-2.3072-5.1544l-2.8939.6728a10.3892,10.3892,0,0,0,2.91,6.4566A2.0086,2.0086,0,0,1,149.1545,123.0484Z" style="fill: none;stroke: #222f3c;stroke-miterlimit: 10;stroke-width: 0.5px"/>
  <line x1="126.9292" y1="113.3488" x2="145.4602" y2="113.3488" style="fill: none;stroke: #222f3c;stroke-miterlimit: 10;stroke-width: 0.5px"/>
  <path d="M141.8493,111.1739a9.7,9.7,0,0,0,4.57-5.6553" style="fill: none;stroke: #222f3c;stroke-linecap: round;stroke-linejoin: round;stroke-width: 0.5px"/>
  <path d="M123.2783,101.3241a2.0623,2.0623,0,0,0,0,3.661Z" style="fill: none;stroke: #222f3c;stroke-miterlimit: 10;stroke-width: 0.5px"/>
  <path d="M127.1133,112.34c0,2.9826-1.1648,3.8706-2.667,5.7555l1.4112.3145a7.8773,7.8773,0,0,1,.9779-1.4953V126.947h16.77V116.9143a7.8858,7.8858,0,0,1,.978,1.4953l3.7355-.8325c-.0856-.2055-.191-.4032-.2739-.6118a11.9372,11.9372,0,0,0-7.44-6.1755" style="fill: none;stroke: #222f3c;stroke-miterlimit: 10;stroke-width: 0.5px"/>
  <path d="M147.0244,101.2154V98.9323a11.83,11.83,0,0,0-23.66,0h0" style="fill: none;stroke: #222f3c;stroke-linecap: round;stroke-linejoin: round;stroke-width: 0.5px"/>
  <path d="M127.1133,111.989v.3506c0,2.9826-1.15,3.8416-2.6516,5.7266" style="fill: none;stroke: #222f3c;stroke-miterlimit: 10;stroke-width: 0.5px"/>
  <line x1="127.1133" y1="111.9689" x2="127.1133" y2="111.989" style="fill: none;stroke: #222f3c;stroke-miterlimit: 10;stroke-width: 0.5px"/>
  <path d="M129.8359,110.82a10.1733,10.1733,0,0,0-2.7226,1.1686" style="fill: none;stroke: #222f3c;stroke-miterlimit: 10;stroke-width: 0.5px"/>
  <line x1="123.367" y1="117.8547" x2="123.3708" y2="115.3015" style="fill: none;stroke: #222f3c;stroke-linecap: round;stroke-linejoin: round;stroke-width: 0.5px"/>
  <path d="M123.367,117.8547l-.0026,1.7407a17.7826,17.7826,0,0,1,1.0683-1.4944" style="fill: none;stroke: #222f3c;stroke-linecap: square;stroke-miterlimit: 10;stroke-width: 0.5px"/>
  <line x1="123.3708" y1="115.3015" x2="123.3951" y2="98.8046" style="fill: none;stroke: #222f3c;stroke-linecap: round;stroke-linejoin: round;stroke-width: 0.5px"/>
  <path d="M122.1156,117.7712a16.1724,16.1724,0,0,1,1.2495-2.5336" style="fill: none;stroke: #222f3c;stroke-miterlimit: 10;stroke-width: 0.5px"/>
  <path d="M123.4162,98.9631a11.8057,11.8057,0,0,1,23.6113-.0663" style="fill: none;stroke: #222f3c;stroke-linecap: round;stroke-linejoin: round;stroke-width: 0.5px"/>
  <path d="M146.1363,100.08a13.9334,13.9334,0,0,1-1.651-.4447c-3.4207-1.245-5.4006-3.1087-6.2166-5.1927-3.2084,1.7772-7.2565,3.0622-8.28,4.0166-1.4737,1.3748-2.8759,3.3474-2.8759,5.3629v4.8956" style="fill: none;stroke: #222f3c;stroke-miterlimit: 10;stroke-width: 0.5px"/>
  <path d="M146.1461,100.0768l.0412.0088-.0413-.0091" style="fill: none;stroke: #222f3c;stroke-miterlimit: 10;stroke-width: 0.5px"/>
  <line x1="127.1133" y1="108.7176" x2="127.1133" y2="111.9689" style="fill: none;stroke: #222f3c;stroke-miterlimit: 10;stroke-width: 0.5px"/>
  <path d="M145.9673,99.8955a5.235,5.235,0,0,1,.3214,1.6553,10.83,10.83,0,0,1-11.0531,10.5924,11.2329,11.2329,0,0,1-8.1224-3.4256" style="fill: none;stroke: #222f3c;stroke-miterlimit: 10;stroke-width: 0.5px"/>
  <line x1="123.5361" y1="117.9043" x2="122.1676" y2="117.4894" style="fill: none;stroke: #222f3c;stroke-miterlimit: 10;stroke-width: 0.5px"/>
  <path d="M138.2387,147.9653h3.9639a1.7534,1.7534,0,0,1,1.7532,1.7533v.4383h-5.7171Z" style="fill: none;stroke: #222f3c;stroke-miterlimit: 10;stroke-width: 0.5px"/>
  <path d="M132.14,150.1568h-5.7172v-.4384a1.7532,1.7532,0,0,1,1.753-1.7532H132.14Z" style="fill: none;stroke: #222f3c;stroke-miterlimit: 10;stroke-width: 0.5px"/>
  <path d="M135.2084,134.31v13.64h7.5835v-13.776c.896-1.0411.8086-4.5414.8086-5.9845l-16.7964.0587" style="fill: none;stroke: #222f3c;stroke-miterlimit: 10;stroke-width: 0.5px"/>
  <path d="M135.1991,136.5276v11.4217h-7.5835v-13.776c-.896-1.0411-.8087-4.5414-.8087-5.9845l16.7964.0587" style="fill: none;stroke: #222f3c;stroke-miterlimit: 10;stroke-width: 0.5px"/>
  <path d="M122.5513,117.5771a8.2362,8.2362,0,0,1-2.3568,5.2528,3.1059,3.1059,0,0,1,1.1242.22,2.0018,2.0018,0,0,1,1.1607,1.7679,10.7864,10.7864,0,0,0,2.9718-6.58" style="fill: none;stroke: #222f3c;stroke-miterlimit: 10;stroke-width: 0.5px"/>
  <ellipse cx="120.3845" cy="124.8487" rx="2.0963" ry="2.0089" style="fill: none;stroke: #222f3c;stroke-miterlimit: 10;stroke-width: 0.5px"/>
  <path d="M111.9386,103.6273a1.24,1.24,0,0,0-2.4774,0" style="fill: none;stroke: #222f3c;stroke-miterlimit: 10;stroke-width: 0.5px"/>
  <path d="M101.4572,103.6273a1.24,1.24,0,0,0-2.4774,0" style="fill: none;stroke: #222f3c;stroke-miterlimit: 10;stroke-width: 0.5px"/>
  <path d="M103.3629,107.499a2.0982,2.0982,0,0,0,4.1926,0" style="fill: none;stroke: #222f3c;stroke-miterlimit: 10;stroke-width: 0.5px"/>
  <ellipse cx="94.2345" cy="125.751" rx="2.0963" ry="2.0089" style="fill: none;stroke: #222f3c;stroke-miterlimit: 10;stroke-width: 0.5px"/>
  <path d="M120.5151,122.8231a7.9341,7.9341,0,0,1-2.3072-5.1544l-2.894.6728a10.3887,10.3887,0,0,0,2.91,6.4566" style="fill: none;stroke: #222f3c;stroke-miterlimit: 10;stroke-width: 0.5px"/>
  <path d="M94.6852,118.0951l1.4112.3145a7.8773,7.8773,0,0,1,.9779-1.4953v10.0322h16.77V116.9143a7.8858,7.8858,0,0,1,.978,1.4953l3.7354-.8325c-.0855-.2055-.19-.4032-.2738-.6118a11.9372,11.9372,0,0,0-7.44-6.1755" style="fill: none;stroke: #222f3c;stroke-miterlimit: 10;stroke-width: 0.5px"/>
  <path d="M96.1209,118.41l-3.7354-.8325c.0856-.2055.19-.4032.2739-.6118a11.9372,11.9372,0,0,1,7.44-6.1755" style="fill: none;stroke: #222f3c;stroke-miterlimit: 10;stroke-width: 0.5px"/>
  <path d="M92.881,117.92a12.4123,12.4123,0,0,0-.5077,6.91,2.1742,2.1742,0,0,1,2.791-.8764,8.034,8.034,0,0,1,.5122-5.6365" style="fill: none;stroke: #222f3c;stroke-linecap: round;stroke-linejoin: round;stroke-width: 0.5px"/>
  <path d="M108.4775,147.9653h3.9639a1.7534,1.7534,0,0,1,1.7532,1.7533v.4383h-5.7171Z" style="fill: none;stroke: #222f3c;stroke-miterlimit: 10;stroke-width: 0.5px"/>
  <path d="M102.3792,150.1568H96.662v-.4384a1.7532,1.7532,0,0,1,1.7532-1.7532h3.964Z" style="fill: none;stroke: #222f3c;stroke-miterlimit: 10;stroke-width: 0.5px"/>
  <path d="M105.4477,134.31v13.64h7.5836v-13.776c.896-1.0411.8085-4.5414.8085-5.9845l-16.7963.0587" style="fill: none;stroke: #222f3c;stroke-miterlimit: 10;stroke-width: 0.5px"/>
  <path d="M105.4379,136.5276v11.4217H97.8544v-13.776c-.896-1.0411-.8086-4.5414-.8086-5.9845l16.7963.0587" style="fill: none;stroke: #222f3c;stroke-miterlimit: 10;stroke-width: 0.5px"/>
  <path d="M96.2948,99.8435c3.2539-1.1749,5.1974-2.9079,6.0731-4.855,1.7846,2.584,5.8453,4.39,10.5745,4.39a23.1116,23.1116,0,0,0,3.3164-.255A10.9291,10.9291,0,1,1,94.608,101.32c0-.3416.0178-.6789.0491-1.0124A15.949,15.949,0,0,0,96.2948,99.8435Z" style="fill: none;stroke: #222f3c;stroke-miterlimit: 10;stroke-width: 0.5px"/>
  <path d="M90.0647,103.92V89.6339a6.7385,6.7385,0,0,1,13.0359-2.3358,7.627,7.627,0,0,0-1.5935-.168,7.5422,7.5422,0,0,0-7.5722,7.5118,7.3863,7.3863,0,0,0,.0811,1.0733h0c.0287.1961.0623.3906.1056.5817l.013-.0475a11.521,11.521,0,0,0-.2879,4.2438c.03.2576.071.5122.1173.7647a2,2,0,0,0,.644,3.9h.7069a10.7976,10.7976,0,0,0,1.4583,2.6363A5.05,5.05,0,0,1,86.7,107.3283V105.66a2.1393,2.1393,0,0,0,3.3652-1.7392Z" style="fill: none;stroke: #222f3c;stroke-miterlimit: 10;stroke-width: 0.5px"/>
  <path d="M105.5456,87.4639a11.7321,11.7321,0,0,1,11.7736,11.475c.0012.07.0054.1395.0054.21a11.6591,11.6591,0,0,1-.1953,2.11,2.0282,2.0282,0,0,0-.6461-.1066h-.0043a10.8088,10.8088,0,0,0-.22-2.0291h.0008a23.107,23.107,0,0,1-3.3171.2551c-4.7292,0-8.79-1.8058-10.5746-4.39-.8757,1.9471-2.8192,3.68-6.0731,4.855,0,0-1.6546.4672-1.6377.4633q-.0391.4182-.0448.8455h-.0039a2.023,2.023,0,0,0-.644.1058c-.0464-.2525-.0877-.5068-.1174-.7647a11.6656,11.6656,0,0,1,11.699-13.0292Z" style="fill: none;stroke: #222f3c;stroke-miterlimit: 10;stroke-width: 0.5px"/>
  <path d="M94.1216,96.2968a7.504,7.504,0,0,1,7.3855-9.1668,7.6144,7.6144,0,0,1,2.533.4321A11.7548,11.7548,0,0,0,94.1216,96.2968Z" style="fill: none;stroke: #222f3c;stroke-miterlimit: 10;stroke-width: 0.5px"/>
  <path d="M116.4832,101.3189c0-.056-.0034-.1111-.0043-.1669h.0043a2.0032,2.0032,0,0,1,.042,4.0062h-.7488A10.7463,10.7463,0,0,0,116.4832,101.3189Z" style="fill: none;stroke: #222f3c;stroke-miterlimit: 10;stroke-width: 0.5px"/>
  <circle cx="105.3403" cy="119.3924" r="0.8297" style="fill: none;stroke: #222f3c;stroke-miterlimit: 10;stroke-width: 0.5px"/>
  <circle cx="105.3403" cy="122.066" r="0.8297" style="fill: none;stroke: #222f3c;stroke-miterlimit: 10;stroke-width: 0.5px"/>
  <path d="M130.5071,69.2009a4.96,4.96,0,0,0-4.96-4.96H67.6815a4.96,4.96,0,0,0-4.9595,4.96v32.4464a4.96,4.96,0,0,0,4.96,4.96H84.6529" style="fill: none;stroke: #222f3c;stroke-miterlimit: 10;stroke-width: 0.5px"/>
  <line x1="130.5071" y1="69.2009" x2="130.5071" y2="85.8863" style="fill: none;stroke: #222f3c;stroke-miterlimit: 10;stroke-width: 0.5px"/>
  <rect x="88.1414" y="64.3838" width="16.9463" height="5.6487" style="fill: none;stroke: #222f3c;stroke-miterlimit: 10;stroke-width: 0.5px"/>
  <g>
    <path d="M244.8438,78.3964a2.9569,2.9569,0,1,1-4.8038-2.2627,3.1619,3.1619,0,0,1,1.8477-.6465,2.8892,2.8892,0,0,1,2.9554,2.8214C244.8438,78.3379,244.844,78.3671,244.8438,78.3964Zm-4.8038-.2148a3.53,3.53,0,0,0,.6465,2.1093,1.8318,1.8318,0,0,0,1.4473.8155,1.5234,1.5234,0,0,0,.9707-.3848,3.0689,3.0689,0,0,0,.6465-2.0635c0-1.4619-.7393-2.9092-2.0938-2.9092C240.8711,75.7489,240.04,76.58,240.04,78.1816Z" style="fill: #333838"/>
    <path d="M246.4316,76.4413c0-.1074-.0156-.1845-.0771-.2-.0772,0-.2461,0-.4307-.0156-.1084-.0146-.2-.0918-.2-.123,0-.0459.0762-.0918.1846-.1534s.2305-.1386.3691-.2314a.2979.2979,0,0,0,.1543-.2158,9.8286,9.8286,0,0,1,.2618-2.5244A3.5449,3.5449,0,0,1,248.248,70.93a2.5209,2.5209,0,0,1,1.3858-.4155c.6308,0,1.0469.2617,1.0469.4927a.7547.7547,0,0,1-.3848.5078.277.277,0,0,1-.3076-.0308,1.82,1.82,0,0,0-1.0938-.5234c-.6924,0-1.2314.4467-1.3857,2.0942-.0459.4771-.0762,1.57-.0762,2.0479a4.6985,4.6985,0,0,0,.0147.4921.1218.1218,0,0,0,.124.0928c.1377,0,1.4463-.0312,1.6162-.0312.0615,0,.123.0927.123.2773,0,.2158-.0312.2774-.2158.2774-.2461,0-1.3545-.0313-1.57-.0313-.0459,0-.0771.1231-.0771.1387,0,.5693.0312,3.372.0468,3.8183.0459.585.169.708.3233.7539.123.0469.292.0469.4922.0928.1845.0459.2773.0772.2773.1387,0,.0771-.1074.1074-.2461.1074-.4463,0-.6933-.0459-1.4785-.0459-.3535,0-.6924.0459-.9541.0615-.1387,0-.2314-.03-.2314-.0927s.1084-.1075.3086-.1534c.3691-.0927.4462-.3086.4462-.8623Z" style="fill: #333838"/>
    <path d="M252.1748,71.453c.4775,0,.9707.0772,1.3857.0772.4776,0,.9083-.0615,1.2627-.0615.1846,0,.2461.0307.2461.0766,0,.0772-.0918.1236-.2148.1543-.6318.1231-.6621.2154-.709,1.2779-.0146.2617-.03,1.6777-.03,3.0791,0,1.4628.0157,3.0019.03,3.2949a2.8531,2.8531,0,0,0,.2158,1.2158c.169.2314.585.3857,1.8321.3857a6.78,6.78,0,0,0,1.3554-.0771c.3379-.0615.6768-.4473.9854-1.001.1074-.1846.1846-.2461.2461-.2461s.0459.2305-.0313.4307c-.0459.123-.3388.97-.4,1.0781a.3651.3651,0,0,1-.3232.1533c-.1533,0-1.3242.0157-2.0781-.03-.77-.0313-1.8789-.0772-2.417-.0772-.4776,0-1.1709.0772-1.3858.0772-.1845,0-.3232-.0157-.3232-.1084,0-.0616.1387-.1075.2764-.1231.6621-.123.7548-.3389.8007-.8154.0616-.6162.0616-1.6319.0616-3.7569,0-2.0937-.0147-3.1562-.0459-3.68-.0459-.8775-.0928-.97-.7539-1.0933-.1856-.0308-.2315-.0767-.2315-.1387C251.9287,71.4994,252.0215,71.453,252.1748,71.453Z" style="fill: #333838"/>
    <path d="M263.2773,76.2724a3.7148,3.7148,0,0,1,.2159,1.4c0,.57-.0459,2.0332-.0459,2.4326a.5271.5271,0,0,0,.5693.5849.984.984,0,0,0,.4463-.1376c.0928-.0469.1543,0,.0928.1376a1.2971,1.2971,0,0,1-1.1856.6622,1.0332,1.0332,0,0,1-.9082-.6924.0532.0532,0,0,0-.0731-.0183l-.004.0026a2.153,2.153,0,0,1-1.5088.6934,1.2769,1.2769,0,0,1-1.2316-1.3206l0-.0036a1.0846,1.0846,0,0,1,.5537-.8779c.37-.2,1.7706-.6153,2.0939-.7393a.2907.2907,0,0,0,.2-.23,5.1683,5.1683,0,0,0,.0312-.708c0-.6318-.1084-1.0625-.37-1.2627a1.167,1.167,0,0,0-.6466-.2461,1.0581,1.0581,0,0,0-.6152.1846.614.614,0,0,0-.2314.3691,1.56,1.56,0,0,0-.0157.293.1888.1888,0,0,1-.0615.1231,3.3108,3.3108,0,0,1-.7236.3388c-.0762.0157-.1532-.0771-.1532-.1386,0-.1075.1073-.2461.2919-.462a3.994,3.994,0,0,1,1.17-.8925,2.0561,2.0561,0,0,1,.9238-.2774A1.261,1.261,0,0,1,263.2773,76.2724Zm-1.0312,4.2334a.6322.6322,0,0,0,.1689-.3692,10.9024,10.9024,0,0,0,.0772-1.4629c0-.0156-.03-.0918-.0614-.0771a8.74,8.74,0,0,0-1.4162.5234.7981.7981,0,0,0-.3847.77.8944.8944,0,0,0,.9238.8623,1.0526,1.0526,0,0,0,.6924-.2465Z" style="fill: #333838"/>
    <path d="M267.3281,71.4687c.3545.0151,1.294.0615,1.7862.0615.0615,0,.1386.0615.2.2153.6621,1.4629,2.833,5.7739,3.8027,7.59.0459.0927.0771.0312.1387-.0616.9082-1.7392,2.8632-5.5424,3.2334-6.2968a13.2045,13.2045,0,0,0,.4619-1.2471c.0156-.0308.0771-.2.1533-.2.4316,0,1.2471-.0923,1.6787-.0923.1543,0,.2461.0308.2461.0923s-.1231.123-.23.1387c-.9082.2153-.9707.3847-1.0166,1.2929-.03.5235-.0459,2.3711-.0459,3.1407,0,1.6787.0616,3.2031.0918,3.6953.0625.8925.2315,1.0312.8321,1.2168.1386.0459.246.0918.246.1689,0,.0615-.0927.0928-.2773.0928-.292,0-1.124-.0928-1.5391-.0928-.6318,0-1.0468.0313-1.2783.0313-.1543,0-.3232-.0157-.3232-.1241,0-.0615.1543-.123.3076-.1377.6475-.17.7549-.416.8008-1.6943.0459-.831.0459-4.957.0459-5.65,0-.1543-.0459-.1543-.0762-.062-1.0322,2.0635-2.9258,5.7588-3.665,7.4062-.0762.1846-.1377.2764-.2305.2764-.0771,0-.1846-.2461-.3232-.5391-.7237-1.5546-2.7716-5.8349-3.3565-7.02-.0771-.1386-.1074-.1386-.1387.0767-.0615.8935-.23,4.8808-.23,5.5117a3.89,3.89,0,0,0,.0918,1.124.9024.9024,0,0,0,.7851.6162c.17.03.2617.0918.2617.1534,0,.0927-.1386.124-.3076.1084-.1845-.0157-.7392-.0772-1.2929-.0772s-.9707.0928-1.1241.0928c-.2,0-.2773-.0313-.2773-.1084,0-.0459.0615-.1074.2773-.1533a1.1559,1.1559,0,0,0,.8311-.4932,4.3817,4.3817,0,0,0,.3232-1.6631c.0928-.9082.3076-4.3262.3076-5.3115,0-.9233-.0918-1.1392-.3535-1.4468a1.3122,1.3122,0,0,0-.8466-.4c-.1387-.0307-.2461-.0923-.2461-.1543S267.19,71.453,267.3281,71.4687Z" style="fill: #333838"/>
    <path d="M284.2676,77.0575a.1806.1806,0,0,1-.1543.169c-.1231-.0156-2.125-.0459-2.4785-.0459h-.8321c-.03,0-.1074.0771-.1386.123a2.1323,2.1323,0,0,0-.1231.8467,2.7645,2.7645,0,0,0,.708,1.8633,2.081,2.081,0,0,0,1.54.6308,1.967,1.967,0,0,0,1.4629-.4921c.123-.1231.1845-.0928.1845-.0157a.5842.5842,0,0,1-.1533.2461,2.7219,2.7219,0,0,1-2.1406.97,2.484,2.484,0,0,1-1.832-.7852,3.0073,3.0073,0,0,1-.7392-2.0625,3.2085,3.2085,0,0,1,.8926-2.248,2.8669,2.8669,0,0,1,1.9248-.77A1.7764,1.7764,0,0,1,284.2676,77.0575Zm-3.1416-.7851a1.3506,1.3506,0,0,0-.3233.6308.0662.0662,0,0,0,.0616.0616l2.0019-.0157c.3389,0,.3692-.1689.3692-.3076a.9916.9916,0,0,0-.2149-.6465,1.0778,1.0778,0,0,0-.7705-.2929A1.6,1.6,0,0,0,281.126,76.2724Z" style="fill: #333838"/>
    <path d="M286.9941,76.6112a.886.886,0,0,0-.2617.5381,9.0419,9.0419,0,0,0-.0156.94c0,1.14.0312,1.94.0615,2.2637.0615.4765.2471.5849.8321.6464.2148.03.2919.0616.2919.1387s-.1386.1074-.3691.1074c-.293,0-.8008-.0615-1.4473-.0615a8.2643,8.2643,0,0,0-.9394.0928c-.1846,0-.2617-.0313-.2617-.0928,0-.0459.1084-.123.2314-.1543a.6345.6345,0,0,0,.5538-.6308c.0313-.2618.0469-1.14.0469-2.1553v-1.71c0-.1084-.1084-.1543-.4-.4-.1084-.0771-.123-.123-.123-.1543s.0918-.0918.23-.1387a4.6159,4.6159,0,0,0,.9854-.3691.4855.4855,0,0,1,.2314-.0772c.03,0,.0615.0616.0615.2159,0,.1689-.0156.7539-.0156,1.0009,0,.0459.03.0616.0772.0147a2.5151,2.5151,0,0,1,1.6621-1.1084.8959.8959,0,0,1,.539.2.2691.2691,0,0,1,.1084.2158,1.055,1.055,0,0,1-.3388.5234c-.1387.1231-.2.1387-.2471.1387a.6918.6918,0,0,1-.2764-.1084,1.0851,1.0851,0,0,0-.539-.1845A1.0486,1.0486,0,0,0,286.9941,76.6112Z" style="fill: #333838"/>
    <path d="M290.4141,78.1347a2.5885,2.5885,0,0,0,.7695,2.0019,2.19,2.19,0,0,0,1.4316.5391,2.07,2.07,0,0,0,1.6016-.585c.03-.0312.1074-.0468.1074,0a.3961.3961,0,0,1-.123.2461,2.6637,2.6637,0,0,1-2.125,1.0157,2.8065,2.8065,0,0,1-1.9239-.754,2.9,2.9,0,0,1-.7705-2.0781,2.9424,2.9424,0,0,1,.94-2.1406,3.3761,3.3761,0,0,1,2.2783-.8926,2.3436,2.3436,0,0,1,1.4014.3848.3546.3546,0,0,1,.2158.292.5264.5264,0,0,1-.3848.4931.471.471,0,0,1-.2617-.1543,4.2536,4.2536,0,0,0-.8623-.6308,1.3765,1.3765,0,0,0-.585-.1231C291.4756,75.7489,290.4141,76.3642,290.4141,78.1347Z" style="fill: #333838"/>
    <path d="M299.668,77.0575a.1806.1806,0,0,1-.1543.169c-.1231-.0156-2.125-.0459-2.4785-.0459h-.8311c-.0312,0-.1084.0771-.1387.123a2.1178,2.1178,0,0,0-.123.8467,2.7592,2.7592,0,0,0,.7081,1.8633,2.0772,2.0772,0,0,0,1.539.6308,1.9667,1.9667,0,0,0,1.4628-.4921c.1232-.1231.1846-.0928.1846-.0157a.585.585,0,0,1-.1532.2461,2.722,2.722,0,0,1-2.1406.97,2.4841,2.4841,0,0,1-1.8321-.7852,3.0078,3.0078,0,0,1-.7392-2.0625,3.21,3.21,0,0,1,.8935-2.248,2.8626,2.8626,0,0,1,1.9239-.77A1.7765,1.7765,0,0,1,299.668,77.0575Zm-3.1407-.7851a1.3413,1.3413,0,0,0-.3232.6308.0654.0654,0,0,0,.0615.0616l2.001-.0157c.3389,0,.3691-.1689.3691-.3076a.9917.9917,0,0,0-.2148-.6465,1.0778,1.0778,0,0,0-.7705-.2929A1.5964,1.5964,0,0,0,296.5273,76.2724Z" style="fill: #333838"/>
    <path d="M304.7959,75.64c.0312.0157.0771-.0459.0771-.0761,0-.2774-.0156-3.003-.03-3.8189a.4134.4134,0,0,0-.0616-.2617.8419.8419,0,0,0-.4316-.2461c-.1074-.0308-.1846-.0771-.1846-.123s.0772-.0928.1846-.1079a6.4839,6.4839,0,0,0,1.3242-.37.5179.5179,0,0,1,.2157-.0771c.0459,0,.0772.0771.0617.2617-.0314.4619-.1084,5.4663-.1084,7.0366,0,1.3389.0156,2.4014.0311,2.8018a.1366.1366,0,0,0,.1074.1386,3.9849,3.9849,0,0,0,.7237-.17c.0928-.03.1387.0156.1387.0615,0,.1084-.1075.2471-.3848.293a8.6714,8.6714,0,0,0-1.6016.4c-.0614.0156-.1073-.0615-.1073-.1074a4.7644,4.7644,0,0,0,.0311-.6319c0-.03-.0311-.0615-.0615-.03a2.8928,2.8928,0,0,1-1.7557.7236,2.5067,2.5067,0,0,1-1.6319-.6475,2.9156,2.9156,0,0,1-.8009-2.0625,3.062,3.062,0,0,1,1.34-2.54,3.4586,3.4586,0,0,1,1.9092-.5859A4.2556,4.2556,0,0,1,304.7959,75.64Zm-2.2939.4161a2.7342,2.7342,0,0,0-.8467,2.2324c0,1.6631.9394,2.5254,1.8789,2.5254a1.61,1.61,0,0,0,1.0928-.4,1.0358,1.0358,0,0,0,.1689-.57,21.2812,21.2812,0,0,0-.0147-2.9707,1.0335,1.0335,0,0,0-.1386-.37,1.715,1.715,0,0,0-1.37-.708,1.14,1.14,0,0,0-.7706.2613Z" style="fill: #333838"/>
    <path d="M309.8633,75.9335a7.5926,7.5926,0,0,0,1.1084-.4.62.62,0,0,1,.2314-.1074c.0459,0,.0762.0459.0615.2148-.0312.3086-.0312,1.2471-.0312,2.2325,0,1.2939,0,2.4326.0312,2.6943.03.3086.1846.3857.4307.4473.1543.03.2315.0615.2315.123,0,.0772-.1241.1074-.2471.1074-.1387,0-.708-.0615-1.124-.0615-.5078,0-.7539.0313-.9239.0313-.1074,0-.2148-.0313-.2148-.0928s.0771-.1074.292-.1387c.3389-.0928.4775-.2158.4931-.8467.0157-.4619.0459-3.2636.0459-3.4179,0-.2159-.0156-.3077-.4462-.5391-.0772-.0459-.1231-.0918-.1231-.123C309.6787,76.0107,309.7246,75.9638,309.8633,75.9335Zm1.54-2.51a.5864.5864,0,0,1-.57.585.5477.5477,0,0,1-.5078-.5693.5713.5713,0,0,1,.5391-.6006.5634.5634,0,0,1,.5387.5851Z" style="fill: #333838"/>
    <path d="M317.5625,76.0107a3.2154,3.2154,0,0,1,.4922,2.0166c0,.8164.0156.9394.0156,1.7089.0156,1.0469.0615,1.14.4776,1.2471.1386.0615.23.0928.23.1543,0,.0918-.123.1074-.2773.1074-.2,0-.6465-.0615-.9854-.0615-.5234,0-.7236.0615-.9541.0615-.1386,0-.2461-.03-.2461-.0927s.0918-.1231.292-.169c.37-.0928.4317-.2.4317-.6465V78.2431c0-1.2471-.1084-1.6172-.4932-1.9092a1.3681,1.3681,0,0,0-.877-.293,1.8427,1.8427,0,0,0-1.2012.4932.7942.7942,0,0,0-.1846.4619c0,.1846.0148.97.0148,1.8936a12.5257,12.5257,0,0,0,.0927,1.6162c.0459.3388.2305.416.4776.4931.1845.0459.2617.0772.2617.1534,0,.0927-.1543.0927-.3086.0927-.1231,0-.8771-.0615-1.2315-.0615-.2,0-.5235.0313-.8154.0313-.17,0-.293-.0313-.293-.1084,0-.0616.1387-.1231.3233-.1534.3848-.0771.4462-.1855.4619-.4931.0313-1.1084.0313-2.5254.0313-3.7725,0-.1533-.0313-.3232-.4-.5234-.0928-.0615-.1231-.0918-.1231-.1377,0-.0313.0762-.0772.2149-.124a5.7409,5.7409,0,0,0,1.2168-.5235c.0459-.0146.123.0469.1074.1231a6.8677,6.8677,0,0,0-.03.8164c0,.0312.0459.0771.0762.0459a5.3388,5.3388,0,0,1,1.0937-.6924,2.0754,2.0754,0,0,1,.9082-.1846A1.5724,1.5724,0,0,1,317.5625,76.0107Z" style="fill: #333838"/>
  </g>
</svg>
