<svg id="Layer_1" data-name="Layer 1" xmlns="http://www.w3.org/2000/svg" viewBox="0 0 399 200"><defs><style>.cls-1,.cls-2,.cls-3{fill:none;stroke:#222f3c;stroke-width:0.5px;}.cls-1,.cls-3{stroke-miterlimit:10;}.cls-2,.cls-3{stroke-linecap:round;}.cls-2{stroke-linejoin:round;}.cls-4{fill:#333838;}</style></defs><path class="cls-1" d="M219.83,123.08c0-13.4744,24.3975-42.8028,24.3975-42.8028s24.3974,29.3284,24.3974,42.8028a24.3975,24.3975,0,0,1-48.7949,0Z"/><rect class="cls-1" x="256.5942" y="116.0447" width="2.6469" height="7.6445" rx="0.9453" transform="translate(235.6941 403.4084) rotate(-110.445)"/><rect class="cls-1" x="238.1979" y="100.0857" width="2.6469" height="7.6445" rx="0.9453" transform="translate(473.7772 -11.3809) rotate(130.344)"/><rect class="cls-1" x="237.1518" y="131.148" width="2.6469" height="7.6445" rx="0.9453" transform="translate(-27.8741 70.5852) rotate(-15.9191)"/><rect class="cls-1" x="245.4208" y="126.0542" width="2.6469" height="7.6445" rx="0.9453" transform="translate(-4.2176 251.4033) rotate(-53.5989)"/><rect class="cls-1" x="246.5847" y="135.3654" width="2.6469" height="7.6445" rx="0.9453" transform="translate(228.6201 422.8417) rotate(-115.4219)"/><circle class="cls-2" cx="232.4873" cy="112.3905" r="1.3629"/><path class="cls-2" d="M232.5207,107.6305c.4743,1.2569-1.09,2.0593.1524,3.3388"/><path class="cls-2" d="M232.5207,113.8118c.4743,1.2568-1.09,2.0593.1524,3.3387"/><path class="cls-2" d="M227.7273,112.4172c1.2568-.4743,2.0592,1.09,3.3387-.1524"/><path class="cls-2" d="M233.9085,112.4172c1.2569-.4743,2.0593,1.09,3.3388-.1524"/><path class="cls-2" d="M229.1451,109.0011c1.2241.5533.6851,2.2271,2.4686,2.2531"/><path class="cls-2" d="M233.5159,113.3719c1.2241.5533.6851,2.2271,2.4686,2.2531"/><path class="cls-2" d="M229.14,115.7752c.5533-1.2241,2.2271-.6851,2.2531-2.4686"/><path class="cls-2" d="M233.5111,111.4044c.5533-1.2241,2.2271-.6852,2.2531-2.4686"/><circle class="cls-2" cx="258.1066" cy="129.7213" r="1.3629"/><path class="cls-2" d="M258.14,124.9613c.4743,1.2568-1.09,2.0593.1524,3.3387"/><path class="cls-2" d="M258.14,131.1425c.4743,1.2569-1.09,2.0593.1524,3.3388"/><path class="cls-2" d="M253.3466,129.7479c1.2568-.4743,2.0593,1.09,3.3387-.1523"/><path class="cls-2" d="M259.5279,129.7479c1.2568-.4743,2.0592,1.09,3.3387-.1523"/><path class="cls-2" d="M254.7644,126.3318c1.2241.5533.6851,2.2271,2.4686,2.2531"/><path class="cls-2" d="M259.1352,130.7027c1.2241.5533.6852,2.227,2.4686,2.253"/><path class="cls-2" d="M254.76,133.106c.5533-1.2241,2.2271-.6852,2.2531-2.4686"/><path class="cls-2" d="M259.13,128.7352c.5533-1.2242,2.2271-.6852,2.2531-2.4686"/><circle class="cls-2" cx="229.0252" cy="127.0336" r="1.3629"/><path class="cls-2" d="M229.0586,122.2736c.4743,1.2568-1.09,2.0592.1524,3.3387"/><path class="cls-2" d="M229.0586,128.4548c.4743,1.2568-1.09,2.0593.1524,3.3388"/><path class="cls-2" d="M224.2652,127.06c1.2568-.4743,2.0593,1.09,3.3387-.1524"/><path class="cls-2" d="M230.4464,127.06c1.2569-.4743,2.0593,1.09,3.3388-.1524"/><path class="cls-2" d="M225.683,123.6441c1.2241.5533.6851,2.2271,2.4686,2.2531"/><path class="cls-2" d="M230.0538,128.0149c1.2241.5533.6852,2.2271,2.4686,2.2531"/><path class="cls-2" d="M225.6782,130.4182c.5533-1.2241,2.2271-.6851,2.2531-2.4686"/><path class="cls-2" d="M230.049,126.0474c.5533-1.2241,2.2271-.6851,2.2531-2.4686"/><circle class="cls-2" cx="243.3927" cy="119.922" r="1.3629"/><path class="cls-2" d="M243.4261,115.162c.4743,1.2568-1.09,2.0593.1524,3.3387"/><path class="cls-2" d="M243.4261,121.3433c.4743,1.2568-1.09,2.0592.1524,3.3387"/><path class="cls-2" d="M238.6327,119.9487c1.2568-.4744,2.0592,1.09,3.3387-.1524"/><path class="cls-2" d="M244.8139,119.9487c1.2569-.4744,2.0593,1.09,3.3388-.1524"/><path class="cls-2" d="M240.0505,116.5326c1.2241.5533.6851,2.227,2.4686,2.253"/><path class="cls-2" d="M244.4213,120.9034c1.2241.5533.6851,2.227,2.4686,2.2531"/><path class="cls-2" d="M240.0457,123.3067c.5533-1.2241,2.2271-.6852,2.2531-2.4686"/><path class="cls-2" d="M244.4165,118.9359c.5533-1.2241,2.2271-.6852,2.2531-2.4686"/><circle class="cls-2" cx="252.4938" cy="110.5709" r="1.3629"/><path class="cls-2" d="M252.5272,105.8109c.4743,1.2568-1.09,2.0593.1524,3.3387"/><path class="cls-2" d="M252.5272,111.9921c.4743,1.2569-1.09,2.0593.1524,3.3388"/><path class="cls-2" d="M247.7338,110.5975c1.2568-.4743,2.0592,1.09,3.3387-.1523"/><path class="cls-2" d="M253.915,110.5975c1.2568-.4743,2.0593,1.09,3.3388-.1523"/><path class="cls-2" d="M249.1515,107.1814c1.2242.5533.6852,2.2271,2.4687,2.2531"/><path class="cls-2" d="M253.5224,111.5522c1.2241.5534.6851,2.2271,2.4686,2.2531"/><path class="cls-2" d="M249.1468,113.9556c.5533-1.2242,2.2271-.6852,2.2531-2.4686"/><path class="cls-2" d="M253.5176,109.5848c.5533-1.2242,2.2271-.6852,2.2531-2.4686"/><circle class="cls-2" cx="247.1171" cy="97.2649" r="1.3629"/><path class="cls-2" d="M247.1505,92.5049c.4744,1.2568-1.09,2.0592.1524,3.3387"/><path class="cls-2" d="M247.1505,98.6861c.4744,1.2569-1.09,2.0593.1524,3.3388"/><path class="cls-2" d="M242.3571,97.2915c1.2569-.4743,2.0593,1.09,3.3388-.1524"/><path class="cls-2" d="M248.5384,97.2915c1.2568-.4743,2.0593,1.09,3.3387-.1524"/><path class="cls-2" d="M243.7749,93.8754c1.2241.5533.6852,2.2271,2.4686,2.2531"/><path class="cls-2" d="M248.1457,98.2462c1.2242.5533.6852,2.2271,2.4686,2.2531"/><path class="cls-2" d="M243.77,100.65c.5533-1.2242,2.227-.6852,2.253-2.4687"/><path class="cls-2" d="M248.141,96.2787c.5533-1.2241,2.227-.6851,2.2531-2.4686"/><path class="cls-2" d="M167.0553,124.9767h-5.44a1.26,1.26,0,0,1-1.26-1.26v-3.73a1.26,1.26,0,0,1,1.26-1.26h14.312"/><line class="cls-2" x1="159.1389" y1="159.0896" x2="162.9724" y2="159.0896"/><line class="cls-2" x1="163.9561" y1="135.3523" x2="163.9561" y2="126.6201"/><line class="cls-2" x1="162.6253" y1="159.0896" x2="157.7699" y2="159.0896"/><line class="cls-2" x1="155.6479" y1="155.8507" x2="155.6651" y2="155.8087"/><line class="cls-2" x1="155.6651" y1="155.8087" x2="163.9431" y2="135.5243"/><path class="cls-2" d="M155.6479,155.8507a2.3429,2.3429,0,0,0,2.17,3.2358"/><path class="cls-2" d="M155.6479,155.8507l.0172-.042"/><line class="cls-2" x1="162.6253" y1="159.0896" x2="157.7699" y2="159.0896"/><line class="cls-2" x1="155.6479" y1="155.8507" x2="155.6651" y2="155.8087"/><line class="cls-2" x1="155.6651" y1="155.8087" x2="163.9431" y2="135.5243"/><path class="cls-2" d="M155.6479,155.8507a2.3429,2.3429,0,0,0,2.17,3.2358"/><path class="cls-2" d="M155.6479,155.8507l.0172-.042"/><path class="cls-2" d="M176.3812,128.7642h7.5746a1.2127,1.2127,0,0,0,1.1586-1.26v-3.73a1.2127,1.2127,0,0,0-1.1586-1.2605H169.5129a1.2128,1.2128,0,0,0-1.1586,1.2605v3.73a1.2128,1.2128,0,0,0,1.1586,1.26h2.4989"/><line class="cls-2" x1="171.2193" y1="140.5398" x2="171.2193" y2="131.8076"/><line class="cls-2" x1="187.0665" y1="164.2771" x2="165.0331" y2="164.2771"/><line class="cls-2" x1="162.9112" y1="161.0382" x2="162.9283" y2="160.9962"/><line class="cls-2" x1="162.9283" y1="160.9962" x2="171.2063" y2="140.7118"/><path class="cls-2" d="M162.9112,161.0382a2.3429,2.3429,0,0,0,2.17,3.2358"/><path class="cls-2" d="M162.9112,161.0382l.0171-.042"/><line class="cls-2" x1="182.2494" y1="140.5398" x2="182.2494" y2="131.8076"/><line class="cls-2" x1="165.3802" y1="164.2771" x2="188.4356" y2="164.2771"/><line class="cls-2" x1="190.5575" y1="161.0382" x2="190.5404" y2="160.9962"/><line class="cls-2" x1="190.5404" y1="160.9962" x2="182.2624" y2="140.7118"/><path class="cls-2" d="M190.5575,161.0382a2.3427,2.3427,0,0,1-2.17,3.2358"/><path class="cls-2" d="M190.5575,161.0382l-.0171-.042"/><line class="cls-2" x1="165.3802" y1="164.2771" x2="188.4356" y2="164.2771"/><line class="cls-2" x1="190.5575" y1="161.0382" x2="190.5404" y2="160.9962"/><line class="cls-2" x1="190.5404" y1="160.9962" x2="182.2624" y2="140.7118"/><path class="cls-2" d="M190.5575,161.0382a2.3427,2.3427,0,0,1-2.17,3.2358"/><path class="cls-2" d="M190.5575,161.0382l-.0171-.042"/><line class="cls-1" x1="178.5287" y1="133.9227" x2="182.3307" y2="133.9227"/><line class="cls-1" x1="178.5287" y1="131.7441" x2="182.3307" y2="131.7441"/><line class="cls-1" x1="178.5287" y1="136.1265" x2="182.3307" y2="136.1265"/><line class="cls-1" x1="178.5287" y1="138.3303" x2="182.3307" y2="138.3303"/><line class="cls-1" x1="178.5287" y1="140.5341" x2="182.3307" y2="140.5341"/><path class="cls-1" d="M170.3482,153.2254c0-1.2506,2.2645-3.9728,2.2645-3.9728s2.2645,2.7222,2.2645,3.9728a2.2645,2.2645,0,0,1-4.529,0Z"/><path class="cls-1" d="M175.0733,158.8306c0-1.2506,2.2646-3.9728,2.2646-3.9728s2.2645,2.7222,2.2645,3.9728a2.2646,2.2646,0,0,1-4.5291,0Z"/><path class="cls-1" d="M176.3259,150.8034c0-1.2507,2.2645-3.9729,2.2645-3.9729s2.2646,2.7222,2.2646,3.9729a2.2646,2.2646,0,0,1-4.5291,0Z"/><line class="cls-3" x1="180.6043" y1="149.6239" x2="221.3306" y2="132.8239"/><circle class="cls-2" cx="287.0214" cy="141.3271" r="1.6035"/><path class="cls-2" d="M286.9821,135.7271c-.5581,1.4786,1.2827,2.4227-.1793,3.9279"/><path class="cls-2" d="M286.9821,142.9991c-.5581,1.4787,1.2827,2.4227-.1793,3.928"/><path class="cls-2" d="M292.6214,141.3584c-1.4786-.558-2.4227,1.2827-3.9279-.1792"/><path class="cls-2" d="M285.3493,141.3584c-1.4786-.558-2.4226,1.2827-3.9279-.1792"/><path class="cls-2" d="M290.9534,137.34c-1.44.6509-.8061,2.62-2.9042,2.6507"/><path class="cls-2" d="M285.8113,142.4816c-1.44.651-.8061,2.62-2.9043,2.6507"/><path class="cls-2" d="M290.959,145.309c-.6509-1.44-2.62-.806-2.6507-2.9042"/><path class="cls-2" d="M285.8169,140.1669c-.651-1.44-2.62-.806-2.6507-2.9042"/><path class="cls-4" d="M295.9551,136.1419a12.7045,12.7045,0,0,0,1.4785-.0459,11.5116,11.5116,0,0,1,1.5088-.123c1.6777,0,3.0635.7539,3.0635,2.4785a1.9694,1.9694,0,0,1-.6465,1.3857,4.0023,4.0023,0,0,1-.8311.5078c-.0928.0459-.0312.0928.0147.1231a4.7967,4.7967,0,0,1,1.34.77,2.4127,2.4127,0,0,1,.8164,1.8779,2.6013,2.6013,0,0,1-1.7246,2.4639,4.604,4.604,0,0,1-1.8633.3232c-.2617,0-.5693,0-1.1855-.0156-.6309-.0312-.9854-.0312-1.3242-.0312h-.77c-.23,0-.3232-.0616-.3232-.1075,0-.0771.1084-.1074.2461-.1386.6162-.0616.8467-.3233.8935-.878.0459-.415.0459-2.6172.0459-4.3261,0-.8311-.0156-2.6172-.03-3.2178-.0313-.5537-.1387-.6768-.7549-.8154-.1846-.0313-.2305-.0928-.2305-.1231C295.6787,136.1878,295.8018,136.1419,295.9551,136.1419Zm4.8349,5.4043a2.1474,2.1474,0,0,0-2.0791-.8926c-.3076,0-.6.0147-.7539.03-.0771.0156-.123.1074-.1386.1846a23.4058,23.4058,0,0,0,.0459,2.91,3.7921,3.7921,0,0,0,.2158,1.2774,1.5481,1.5481,0,0,0,1.3545.5859,1.9155,1.9155,0,0,0,.8623-.2158,2.2061,2.2061,0,0,0,1.0937-2.1406A2.6587,2.6587,0,0,0,300.79,141.5462Zm-2.2021-5.3115a2.5241,2.5241,0,0,0-.6006.0615c-.0615.0156-.1377.2-.1377.2461-.0312.2773-.0469,2.4023-.0312,3.5723,0,.0615.0312.2148.1689.2148a4.7245,4.7245,0,0,0,1.0469.0156,1.9393,1.9393,0,0,0,1.7715-1.8476A2.1053,2.1053,0,0,0,298.5879,136.2347Z"/><path class="cls-4" d="M303.9941,140.5609a7.6061,7.6061,0,0,0,1.1084-.4.62.62,0,0,1,.2315-.1075c.0459,0,.0762.0459.0615.2149-.0312.3086-.0312,1.2471-.0312,2.2324,0,1.294,0,2.4326.0312,2.6943.03.3086.1846.3858.4307.4473.1543.03.2314.0615.2314.1231,0,.0771-.124.1074-.2471.1074-.1386,0-.708-.0615-1.124-.0615-.5078,0-.7539.0312-.9228.0312-.1084,0-.2158-.0312-.2158-.0928s.0771-.1074.2919-.1386c.3389-.0928.4776-.2159.4932-.8467.0156-.4619.0459-3.2637.0459-3.418,0-.2158-.0156-.3076-.4463-.5391-.0771-.0459-.123-.0918-.123-.123C303.81,140.638,303.8555,140.5911,303.9941,140.5609Zm1.54-2.51a.5864.5864,0,0,1-.57.5849.5477.5477,0,0,1-.5078-.5693.5706.5706,0,0,1,.539-.6006A.5637.5637,0,0,1,305.5342,138.0511Z"/><path class="cls-4" d="M312.8623,143.0237a2.9484,2.9484,0,0,1-2.9248,2.9717,2.936,2.936,0,0,1-1.8789-5.2344,3.1641,3.1641,0,0,1,1.8476-.6464A2.8884,2.8884,0,0,1,312.8623,143.0237Zm-4.8037-.2148a3.5246,3.5246,0,0,0,.6475,2.1094,1.829,1.829,0,0,0,1.4472.8154,1.5193,1.5193,0,0,0,.97-.3848,3.0686,3.0686,0,0,0,.6465-2.0634c0-1.462-.7392-2.9092-2.0937-2.9092C308.8906,140.3763,308.0586,141.2073,308.0586,142.8089Z"/><path class="cls-4" d="M315.4053,142.07c0,1.9395.0156,2.6631.0312,2.9561.0147.416.1074.5234.5381.6006.0928.0156.2.0615.2.1074,0,.0615-.1074.1084-.3076.1084-.2461,0-.8008-.0312-1.0625-.0312-.4,0-.8008.0312-1.0313.0312-.1845,0-.2617-.0156-.2617-.0928s.0772-.0927.2774-.1386c.3847-.0772.4765-.2159.538-.8926.0313-.57.0928-3.1719.1084-5.02,0-1.247.0157-2.51,0-3.1865,0-.3388-.0312-.416-.4316-.6621-.1074-.0615-.1533-.0928-.1533-.1387s.0918-.0927.2305-.123a8.0324,8.0324,0,0,0,1.1552-.3545.64.64,0,0,1,.1846-.0459c.03,0,.0459.0918.0459.169,0,.1083-.0615,2.7714-.0615,5.081Z"/><path class="cls-4" d="M322.8418,143.0237a2.9485,2.9485,0,0,1-2.9248,2.9717,2.936,2.936,0,0,1-1.8789-5.2344,3.1641,3.1641,0,0,1,1.8476-.6464A2.8884,2.8884,0,0,1,322.8418,143.0237Zm-4.8037-.2148a3.5252,3.5252,0,0,0,.6474,2.1094,1.8293,1.8293,0,0,0,1.4473.8154,1.5215,1.5215,0,0,0,.97-.3848,3.0686,3.0686,0,0,0,.6465-2.0634c0-1.462-.7392-2.9092-2.0937-2.9092C318.87,140.3763,318.0381,141.2073,318.0381,142.8089Z"/><path class="cls-4" d="M327.8008,140.4222a1.1248,1.1248,0,0,0,.539.0771c.293,0,.9082-.0312,1.14-.0312.0762,0,.1387.1543.1387.3388,0,.1543-.1084.2774-.17.2774-.2158,0-.7695-.0313-.9394-.0313a.1388.1388,0,0,0-.0918.0928c0,.1074.03.3545.03.6309a2.5458,2.5458,0,0,1-.97,2.0791,2.12,2.12,0,0,1-1.2011.4,3.771,3.771,0,0,1-.6465-.0772.2935.2935,0,0,0-.1846.0459,2.39,2.39,0,0,0-.5391.5078.49.49,0,0,0-.1689.3389c0,.4932.6309.6465,1.4316.6465.4776,0,1.3243-.0459,1.7549-.0459a1.59,1.59,0,0,1,1.7246,1.709,3.1089,3.1089,0,0,1-1.7246,2.51,3.6713,3.6713,0,0,1-1.8623.5078c-1.2324,0-2.2636-.5849-2.2636-1.7246a.9827.9827,0,0,1,.2773-.6621c.1074-.123.6777-.8467.9853-1.1845.0157-.0313.03-.1241-.0156-.1387-.4306-.0928-1.247-.6319-1.247-1.2471a.192.192,0,0,1,.0927-.1543,6.7429,6.7429,0,0,0,1.2774-1.14c.0156-.0147,0-.0772-.03-.0918a2.3249,2.3249,0,0,1-1.1856-1.9248,1.8589,1.8589,0,0,1,.6465-1.4776,2.3671,2.3671,0,0,1,1.6319-.6318A3.474,3.474,0,0,1,327.8008,140.4222Zm-2.5713,8.9912a2.1028,2.1028,0,0,0,1.4629.4619,2.3953,2.3953,0,0,0,1.4316-.3691,2.0551,2.0551,0,0,0,.8321-1.586c0-.6465-.4-1.2168-1.3858-1.2168-.5849,0-1.34.0157-1.7558.0313a.9486.9486,0,0,0-.5235.1387,1.947,1.947,0,0,0-.6621,1.37A1.5763,1.5763,0,0,0,325.23,149.4134Zm.1387-8.8369a2.148,2.148,0,0,0-.4151,1.3545,2.7947,2.7947,0,0,0,.4766,1.6474,1.2582,1.2582,0,0,0,.9551.4463c.708,0,1.17-.8467,1.17-1.5547a2.7551,2.7551,0,0,0-.4776-1.7246,1.0823,1.0823,0,0,0-.9238-.5234A1.1568,1.1568,0,0,0,325.3682,140.5765Z"/><path class="cls-4" d="M330.4355,140.5609a7.6061,7.6061,0,0,0,1.1084-.4.62.62,0,0,1,.2315-.1075c.0459,0,.0762.0459.0615.2149-.0312.3086-.0312,1.2471-.0312,2.2324,0,1.294,0,2.4326.0312,2.6943.03.3086.1846.3858.4307.4473.1543.03.2314.0615.2314.1231,0,.0771-.124.1074-.247.1074-.1387,0-.7081-.0615-1.1241-.0615-.5078,0-.7539.0312-.9228.0312-.1084,0-.2158-.0312-.2158-.0928s.0771-.1074.2919-.1386c.3389-.0928.4776-.2159.4932-.8467.0156-.4619.0459-3.2637.0459-3.418,0-.2158-.0156-.3076-.4463-.5391-.0771-.0459-.123-.0918-.123-.123C330.251,140.638,330.2969,140.5911,330.4355,140.5609Zm1.54-2.51a.5864.5864,0,0,1-.57.5849.5477.5477,0,0,1-.5078-.5693.5706.5706,0,0,1,.539-.6006A.5637.5637,0,0,1,331.9756,138.0511Z"/><path class="cls-4" d="M334.4238,142.762a2.5886,2.5886,0,0,0,.77,2.002,2.1911,2.1911,0,0,0,1.4316.539,2.07,2.07,0,0,0,1.6016-.5849c.03-.0313.1074-.0469.1074,0a.4021.4021,0,0,1-.1231.2461,2.6635,2.6635,0,0,1-2.125,1.0156,2.8062,2.8062,0,0,1-1.9238-.7539,2.9,2.9,0,0,1-.7705-2.0781,2.9424,2.9424,0,0,1,.94-2.1407,3.3765,3.3765,0,0,1,2.2783-.8925,2.3435,2.3435,0,0,1,1.4013.3847.3546.3546,0,0,1,.2159.292.5264.5264,0,0,1-.3848.4932.4708.4708,0,0,1-.2617-.1543,4.2575,4.2575,0,0,0-.8623-.6309,1.3782,1.3782,0,0,0-.585-.123C335.4854,140.3763,334.4238,140.9915,334.4238,142.762Z"/><path class="cls-4" d="M342.7393,140.9a3.7348,3.7348,0,0,1,.2148,1.4c0,.57-.0459,2.0322-.0459,2.4326a.528.528,0,0,0,.5693.586.9914.9914,0,0,0,.4473-.1387c.0918-.0469.1533,0,.0918.1387a1.2971,1.2971,0,0,1-1.1855.6611,1.0331,1.0331,0,0,1-.9082-.6924.0534.0534,0,0,0-.0772-.0156,2.1533,2.1533,0,0,1-1.5088.6933,1.2775,1.2775,0,0,1-1.2314-1.3242,1.0867,1.0867,0,0,1,.5537-.8779c.37-.2,1.7715-.6152,2.0947-.7393a.29.29,0,0,0,.2-.23,5.3044,5.3044,0,0,0,.03-.708c0-.6319-.1074-1.0625-.3692-1.2627a1.17,1.17,0,0,0-.6464-.2461,1.06,1.06,0,0,0-.6163.1845.6182.6182,0,0,0-.2314.3692,1.6643,1.6643,0,0,0-.0147.293.1935.1935,0,0,1-.0615.123,3.3623,3.3623,0,0,1-.7236.3389c-.0772.0156-.1543-.0772-.1543-.1387,0-.1074.1074-.2461.293-.4619a3.9927,3.9927,0,0,1,1.17-.8936,2.064,2.064,0,0,1,.9238-.2763A1.2624,1.2624,0,0,1,342.7393,140.9Zm-1.0323,4.2334a.6391.6391,0,0,0,.17-.3691,11.0886,11.0886,0,0,0,.0771-1.4629c0-.0156-.0312-.0918-.0625-.0772a8.7754,8.7754,0,0,0-1.416.5235.7977.7977,0,0,0-.3848.77.8944.8944,0,0,0,.9238.8623A1.0523,1.0523,0,0,0,341.707,145.1331Z"/><path class="cls-4" d="M346.1729,142.07c0,1.9395.0156,2.6631.0312,2.9561.0147.416.1074.5234.5381.6006.0928.0156.2.0615.2.1074,0,.0615-.1074.1084-.3076.1084-.2461,0-.8008-.0312-1.0625-.0312-.4,0-.8008.0312-1.0313.0312-.1846,0-.2617-.0156-.2617-.0928s.0771-.0927.2773-.1386c.3848-.0772.4766-.2159.5381-.8926.0313-.57.0928-3.1719.1084-5.02,0-1.247.0157-2.51,0-3.1865,0-.3388-.0312-.416-.4316-.6621-.1074-.0615-.1533-.0928-.1533-.1387s.0918-.0927.23-.123a8.034,8.034,0,0,0,1.1553-.3545.64.64,0,0,1,.1846-.0459c.03,0,.0459.0918.0459.169,0,.1083-.0615,2.7714-.0615,5.081Z"/><rect class="cls-1" x="284.9841" y="155.3809" width="3.0492" height="8.8065" rx="1.089" transform="translate(108.1522 -115.5469) rotate(27.9171)"/><path class="cls-4" d="M296.1152,154.5892c.5078,0,.8467.0615,1.3086.0615.5078,0,.9854-.0615,1.3242-.0615.1377,0,.2305.03.2305.0771,0,.0615-.0615.1231-.2305.1387-.6162.0918-.6474.3232-.6777.9541-.0459.77-.0312,2.5557-.0312,3.5107,0,2.2627.0312,3.5567.0615,4.0176.0469.586.1387.6934.5849.8008.2159.0469.2618.0928.2618.17s-.1075.0918-.292.0918c-.2461,0-.6309-.0459-1.0782-.0459-.7695,0-1.2158.0772-1.5087.0772-.1387,0-.2461-.0313-.2461-.1084,0-.0459.0771-.0918.3388-.1534.5694-.123.6621-.37.6778-1.2929.03-.8936.0146-5.1426.0146-5.8662a12.8373,12.8373,0,0,0-.0615-1.4785c-.0615-.5079-.2149-.5694-.7383-.6924-.1084-.0313-.17-.0772-.17-.1231S295.9766,154.5892,296.1152,154.5892Z"/><path class="cls-4" d="M305.03,159.1312a3.2163,3.2163,0,0,1,.4922,2.0166c0,.8164.0156.9394.0156,1.709.0156,1.0468.0615,1.14.4775,1.247.1387.0615.2305.0928.2305.1543,0,.0918-.1231.1074-.2773.1074-.2,0-.6465-.0615-.9854-.0615-.5234,0-.7236.0615-.9541.0615-.1387,0-.2461-.03-.2461-.0927s.0918-.1231.292-.169c.37-.0928.4316-.2.4316-.6465v-2.0937c0-1.2471-.1084-1.6172-.4931-1.9092a1.3687,1.3687,0,0,0-.877-.293,1.8423,1.8423,0,0,0-1.2012.4932.7935.7935,0,0,0-.1845.4619c0,.1846.0146.97.0146,1.8936a12.5024,12.5024,0,0,0,.0928,1.6162c.0459.3388.2305.416.4775.4931.1846.0459.2618.0772.2618.1534,0,.0927-.1543.0927-.3086.0927-.1231,0-.877-.0615-1.2315-.0615-.2,0-.5234.0313-.8154.0313-.17,0-.293-.0313-.293-.1084,0-.0616.1387-.1231.3233-.1534.3847-.0771.4463-.1855.4619-.4931.0312-1.1084.0312-2.5254.0312-3.7725,0-.1533-.0312-.3232-.4-.5234-.0927-.0615-.123-.0918-.123-.1377,0-.0313.0762-.0772.2148-.124a5.7312,5.7312,0,0,0,1.2168-.5235c.0459-.0146.1231.0469.1074.1231a6.8891,6.8891,0,0,0-.03.8164c0,.0312.0459.0771.0761.0459a5.3416,5.3416,0,0,1,1.0938-.6924,2.0755,2.0755,0,0,1,.9082-.1846A1.5722,1.5722,0,0,1,305.03,159.1312Z"/><path class="cls-4" d="M313.2227,161.5169a2.9487,2.9487,0,0,1-2.9248,2.9717,2.936,2.936,0,0,1-1.879-5.2344,3.1645,3.1645,0,0,1,1.8477-.6465A2.8886,2.8886,0,0,1,313.2227,161.5169Zm-4.8038-.2148a3.5244,3.5244,0,0,0,.6475,2.1093,1.8289,1.8289,0,0,0,1.4473.8155,1.5225,1.5225,0,0,0,.97-.3848,3.0687,3.0687,0,0,0,.6465-2.0635c0-1.4619-.7393-2.9092-2.0938-2.9092C309.251,158.8694,308.4189,159.7005,308.4189,161.3021Z"/><path class="cls-4" d="M316.3955,159.7318a.8856.8856,0,0,0-.2617.538,9.0261,9.0261,0,0,0-.0156.94c0,1.14.0312,1.94.0615,2.2637.0615.4765.2471.5849.832.6464.2149.03.292.0616.292.1387s-.1387.1074-.3691.1074c-.293,0-.8008-.0615-1.4473-.0615a8.2824,8.2824,0,0,0-.9394.0928c-.1846,0-.2618-.0313-.2618-.0928,0-.0459.1084-.123.2315-.1543a.6346.6346,0,0,0,.5537-.6308c.0312-.2618.0469-1.14.0469-2.1553v-1.709c0-.1084-.1084-.1543-.4-.4-.1084-.0771-.1231-.123-.1231-.1543s.0918-.0918.2305-.1387a4.6115,4.6115,0,0,0,.9853-.3691.4862.4862,0,0,1,.2315-.0771c.03,0,.0615.0615.0615.2158,0,.1689-.0156.7539-.0156,1.001,0,.0458.03.0615.0771.0146a2.5152,2.5152,0,0,1,1.6621-1.1084.8963.8963,0,0,1,.5391.2.2691.2691,0,0,1,.1084.2158,1.0557,1.0557,0,0,1-.3389.5235c-.1386.123-.2.1386-.247.1386a.6914.6914,0,0,1-.2764-.1084,1.0848,1.0848,0,0,0-.5391-.1845A1.0483,1.0483,0,0,0,316.3955,159.7318Z"/><path class="cls-4" d="M323.1406,158.9153a1.1237,1.1237,0,0,0,.5391.0772c.293,0,.9082-.0313,1.14-.0313.0762,0,.1387.1543.1387.3389,0,.1543-.1084.2774-.17.2774-.2158,0-.7695-.0313-.94-.0313a.1388.1388,0,0,0-.0918.0928c0,.1074.03.3545.03.6308a2.5456,2.5456,0,0,1-.97,2.0791,2.12,2.12,0,0,1-1.2012.4,3.7717,3.7717,0,0,1-.6465-.0771.2932.2932,0,0,0-.1845.0459,2.3853,2.3853,0,0,0-.5391.5078.49.49,0,0,0-.169.3389c0,.4931.6309.6464,1.4317.6464.4775,0,1.3242-.0459,1.7549-.0459a1.59,1.59,0,0,1,1.7246,1.709,3.109,3.109,0,0,1-1.7246,2.51,3.6726,3.6726,0,0,1-1.8623.5078c-1.2325,0-2.2637-.585-2.2637-1.7246a.9832.9832,0,0,1,.2773-.6621c.1075-.1231.6778-.8467.9854-1.1846.0156-.0312.03-.124-.0156-.1387-.4307-.0927-1.2471-.6318-1.2471-1.247a.1917.1917,0,0,1,.0928-.1543,6.7423,6.7423,0,0,0,1.2773-1.14c.0156-.0146,0-.0771-.03-.0918a2.3247,2.3247,0,0,1-1.1855-1.9248,1.8583,1.8583,0,0,1,.6465-1.4775,2.3665,2.3665,0,0,1,1.6318-.6318A3.4757,3.4757,0,0,1,323.1406,158.9153Zm-2.5713,8.9913a2.1035,2.1035,0,0,0,1.4629.4619,2.3958,2.3958,0,0,0,1.4317-.3692,2.0549,2.0549,0,0,0,.832-1.5859c0-.6465-.4-1.2168-1.3857-1.2168-.585,0-1.34.0156-1.7559.0312a.9484.9484,0,0,0-.5234.1387,1.9468,1.9468,0,0,0-.6621,1.37A1.5762,1.5762,0,0,0,320.5693,167.9066Zm.1387-8.837a2.1487,2.1487,0,0,0-.415,1.3545,2.7956,2.7956,0,0,0,.4765,1.6475,1.2585,1.2585,0,0,0,.9551.4463c.708,0,1.17-.8467,1.17-1.5547a2.7551,2.7551,0,0,0-.4775-1.7246,1.0824,1.0824,0,0,0-.9238-.5235A1.1572,1.1572,0,0,0,320.708,159.07Z"/><path class="cls-4" d="M329.2393,159.3929a3.7348,3.7348,0,0,1,.2148,1.4c0,.57-.0459,2.0332-.0459,2.4326a.5273.5273,0,0,0,.5693.585.9883.9883,0,0,0,.4473-.1377c.0918-.0469.1533,0,.0918.1377a1.296,1.296,0,0,1-1.1855.6621,1.0331,1.0331,0,0,1-.9082-.6924.0533.0533,0,0,0-.0772-.0156,2.1533,2.1533,0,0,1-1.5088.6933,1.2775,1.2775,0,0,1-1.2314-1.3242,1.0865,1.0865,0,0,1,.5537-.8779c.37-.2,1.7715-.6153,2.0947-.7393a.2905.2905,0,0,0,.2-.2305,5.3029,5.3029,0,0,0,.03-.708c0-.6318-.1074-1.0625-.3692-1.2627a1.17,1.17,0,0,0-.6464-.2461,1.0591,1.0591,0,0,0-.6163.1846.6182.6182,0,0,0-.2314.3692,1.6631,1.6631,0,0,0-.0147.2929.194.194,0,0,1-.0615.1231,3.3566,3.3566,0,0,1-.7236.3388c-.0772.0157-.1543-.0771-.1543-.1386,0-.1075.1074-.2461.293-.462a3.9692,3.9692,0,0,1,1.17-.8925,2.0532,2.0532,0,0,1,.9238-.2774A1.2624,1.2624,0,0,1,329.2393,159.3929Zm-1.0323,4.2334a.6391.6391,0,0,0,.17-.3692,11.0869,11.0869,0,0,0,.0771-1.4628c0-.0157-.0312-.0918-.0625-.0772a8.7835,8.7835,0,0,0-1.416.5234.7979.7979,0,0,0-.3848.77.8944.8944,0,0,0,.9238.8624A1.0523,1.0523,0,0,0,328.207,163.6263Z"/><path class="cls-4" d="M336.1992,159.1312a3.2157,3.2157,0,0,1,.4922,2.0166c0,.8164.0156.9394.0156,1.709.0157,1.0468.0616,1.14.4776,1.247.1386.0615.23.0928.23.1543,0,.0918-.123.1074-.2773.1074-.2,0-.6465-.0615-.9854-.0615-.5234,0-.7236.0615-.9541.0615-.1386,0-.2461-.03-.2461-.0927s.0918-.1231.292-.169c.37-.0928.4317-.2.4317-.6465v-2.0937c0-1.2471-.1084-1.6172-.4932-1.9092a1.3693,1.3693,0,0,0-.8779-.293,1.8419,1.8419,0,0,0-1.2.4932.7937.7937,0,0,0-.1846.4619c0,.1846.0147.97.0147,1.8936a12.5327,12.5327,0,0,0,.0927,1.6162c.0459.3388.23.416.4776.4931.1846.0459.2617.0772.2617.1534,0,.0927-.1543.0927-.3086.0927-.123,0-.8769-.0615-1.2314-.0615-.2,0-.5235.0313-.8155.0313-.17,0-.2929-.0313-.2929-.1084,0-.0616.1386-.1231.3232-.1534.3848-.0771.4463-.1855.4619-.4931.0313-1.1084.0313-2.5254.0313-3.7725,0-.1533-.0313-.3232-.4-.5234-.0928-.0615-.1231-.0918-.1231-.1377,0-.0313.0762-.0772.2149-.124a5.7334,5.7334,0,0,0,1.2168-.5235c.0459-.0146.123.0469.1074.1231a6.8884,6.8884,0,0,0-.03.8164c0,.0312.0459.0771.0762.0459a5.3412,5.3412,0,0,1,1.0937-.6924,2.0758,2.0758,0,0,1,.9082-.1846A1.5722,1.5722,0,0,1,336.1992,159.1312Z"/><path class="cls-4" d="M338.6953,159.054a7.587,7.587,0,0,0,1.1084-.4.6206.6206,0,0,1,.2315-.1074c.0459,0,.0761.0459.0615.2148-.0313.3086-.0313,1.2471-.0313,2.2325,0,1.2939,0,2.4326.0313,2.6943.03.3086.1845.3857.4306.4473.1543.03.2315.0615.2315.123,0,.0772-.124.1074-.2471.1074-.1387,0-.708-.0615-1.124-.0615-.5078,0-.7539.0313-.9229.0313-.1084,0-.2158-.0313-.2158-.0928s.0772-.1074.292-.1387c.3389-.0928.4776-.2158.4932-.8467.0156-.4619.0459-3.2636.0459-3.4179,0-.2158-.0156-.3076-.4463-.5391-.0772-.0459-.1231-.0918-.1231-.123C338.5107,159.1312,338.5566,159.0843,338.6953,159.054Zm1.54-2.51a.5865.5865,0,0,1-.57.5849.5477.5477,0,0,1-.5078-.5693.5706.5706,0,0,1,.5391-.6006A.5637.5637,0,0,1,340.2354,156.5443Z"/><path class="cls-4" d="M342.9912,161.2552a2.5887,2.5887,0,0,0,.7695,2.0019,2.1909,2.1909,0,0,0,1.4317.5391,2.069,2.069,0,0,0,1.6015-.585c.03-.0312.1075-.0468.1075,0a.3963.3963,0,0,1-.1231.2461,2.6632,2.6632,0,0,1-2.125,1.0157,2.8065,2.8065,0,0,1-1.9238-.7539,2.9,2.9,0,0,1-.77-2.0782,2.9423,2.9423,0,0,1,.9394-2.1406,3.3765,3.3765,0,0,1,2.2784-.8926,2.3434,2.3434,0,0,1,1.4013.3848.3544.3544,0,0,1,.2158.292.5262.5262,0,0,1-.3847.4931.4711.4711,0,0,1-.2617-.1542,4.2537,4.2537,0,0,0-.8623-.6309,1.3772,1.3772,0,0,0-.585-.1231C344.0527,158.8694,342.9912,159.4847,342.9912,161.2552Z"/><path class="cls-4" d="M51.835,66.1673a1.6318,1.6318,0,0,1,1.37-1.5088c.0771,0,.1387,0,.1387.0772,0,.0307-.0772.0766-.1695.1074-.4619.2466-.8.5542-.8,1.0469,0,.3237.1538.5083.5694.6162a.3221.3221,0,0,1,.3081.3232.4446.4446,0,0,1-.4619.4A.9952.9952,0,0,1,51.835,66.1673Zm1.9091,0A1.6713,1.6713,0,0,1,55.13,64.6585c.0766,0,.1387.0308.1387.0772,0,.0307-.0621.0766-.1543.1074-.462.2466-.816.57-.816,1.0469,0,.3237.1695.5083.585.6162a.3332.3332,0,0,1,.3081.3232.472.472,0,0,1-.4775.4A1.0072,1.0072,0,0,1,53.7441,66.1673Z"/><path class="cls-4" d="M56.2852,65.3206c.3544,0,1.0009.0615,1.3549.0615.4927,0,1.1548-.0615,1.4317-.0615.2309,0,.2929.0615.2929.0923,0,.0923-.1386.1387-.3081.1694-.37.0459-.539.2461-.539.4312a2.3207,2.3207,0,0,0,.185.7236c.2769.8159,2.1553,5.6812,2.5093,6.4048.0156.0459.0615.0923.0772.0308.2461-.5083,2.0478-5.1118,2.31-5.8506a4.5037,4.5037,0,0,0,.3076-1.2163c0-.354-.2924-.4468-.7543-.57-.1539-.0151-.2618-.0766-.2618-.123,0-.0615.0772-.1079.3081-.1079.3389,0,.9546.0771,1.2779.0771.354,0,.77-.0615,1.0161-.0615.2,0,.2617.0308.2617.0615,0,.0616-.0615.1387-.3081.1846-.585.1694-.8159.4468-1.293,1.5244-.2924.6621-1.1855,2.8638-2.6484,6.4048-.354.8931-.5542,1.4473-.6157,1.6782-.0308.1075-.0923.1846-.1231.1846-.0923,0-.123-.123-.1845-.3232-.5083-1.5245-2.8487-7.4517-3.4336-8.7759a1.023,1.023,0,0,0-.8623-.6929c-.1846-.0308-.2925-.0923-.2925-.1538S56.147,65.3206,56.2852,65.3206Z"/><path class="cls-4" d="M69.1738,65.2742a6.5012,6.5012,0,0,0,.4,1.2935c1.0777,2.8638,1.9092,4.9575,2.8633,7.1284.3853.9082.5391,1.0469.9238,1.1392.1851.0307.2617.0923.2617.1386,0,.0772-.1381.1079-.2768.1079-.2925,0-.5391-.0463-1.3394-.0463-.57,0-1.1547.0615-1.5244.0615-.1694,0-.2617-.0308-.2617-.1079,0-.0615.1387-.1231.2925-.1382.6157-.0928.708-.3545.6929-.6929-.0308-.2617-.5542-1.6323-1.0777-2.9868-.0464-.1079-.1387-.1851-.2-.1851-.5849.0308-2.5249.0308-2.8637.0308-.0772,0-.1695.1694-.231.2925-.1387.3389-.585,1.478-.8008,2.2324-.1689.5855-.1689.8779,0,1.0474a1.2093,1.2093,0,0,0,.647.2617c.1538.0459.2309.1074.2309.1538,0,.0771-.1386.1079-.3081.1079-.2924,0-.9238-.0771-1.478-.0771-.3848,0-.6772.0771-1.0469.0771-.1694,0-.2617-.0308-.2617-.1079s.1538-.1079.3081-.1387c.708-.1386.8467-.2768,1.4317-1.57.4463-.9546,1.8012-4.3262,2.6943-6.62a1.079,1.079,0,0,0,.0923-.4312c0-.0615.0156-.1543.0464-.1694a1.4643,1.4643,0,0,0,.5542-.8008c.0307-.0615.0459-.1538.1079-.1538S69.1431,65.1819,69.1738,65.2742ZM69.79,70.34c-.6158-1.74-1.0318-2.7251-1.2623-3.2486-.0463-.123-.0771-.0771-.1235.0308-.37.8774-1.0005,2.6479-1.2163,3.2793-.0151.0307-.0151.1387.0464.1387.2925.0151.6772.0151,1.2163.0151a7.3427,7.3427,0,0,0,1.3394-.0615A.2281.2281,0,0,0,69.79,70.34Z"/><path class="cls-4" d="M72.6245,65.3206c.3545,0,1.001.0615,1.355.0615.4927,0,1.1548-.0615,1.4316-.0615.231,0,.293.0615.293.0923,0,.0923-.1387.1387-.3081.1694-.37.0459-.5391.2461-.5391.4312a2.3216,2.3216,0,0,0,.1851.7236c.2768.8159,2.1553,5.6812,2.5093,6.4048.0156.0459.0615.0923.0771.0308.2461-.5083,2.0479-5.1118,2.31-5.8506a4.4887,4.4887,0,0,0,.3076-1.2163c0-.354-.2925-.4468-.7544-.57-.1538-.0151-.2617-.0766-.2617-.123,0-.0615.0771-.1079.3081-.1079.3389,0,.9546.0771,1.2778.0771.354,0,.77-.0615,1.0161-.0615.2,0,.2618.0308.2618.0615,0,.0616-.0616.1387-.3081.1846-.585.1694-.816.4468-1.293,1.5244-.2925.6621-1.1856,2.8638-2.6484,6.4048-.3541.8931-.5542,1.4473-.6158,1.6782-.0307.1075-.0923.1846-.123.1846-.0923,0-.1231-.123-.1846-.3232-.5083-1.5245-2.8486-7.4517-3.4336-8.7759a1.0227,1.0227,0,0,0-.8623-.6929c-.1846-.0308-.2925-.0923-.2925-.1538S72.4863,65.3206,72.6245,65.3206Z"/><path class="cls-4" d="M82.5264,65.3206c.3545,0,1.0009.0615,1.3549.0615.4927,0,1.1548-.0615,1.4317-.0615.2309,0,.293.0615.293.0923,0,.0923-.1387.1387-.3081.1694-.37.0459-.5391.2461-.5391.4312a2.3207,2.3207,0,0,0,.185.7236c.2769.8159,2.1553,5.6812,2.5093,6.4048.0157.0459.0615.0923.0772.0308.2461-.5083,2.0478-5.1118,2.31-5.8506a4.5046,4.5046,0,0,0,.3077-1.2163c0-.354-.2925-.4468-.7544-.57-.1538-.0151-.2618-.0766-.2618-.123,0-.0615.0772-.1079.3082-.1079.3388,0,.9545.0771,1.2778.0771.354,0,.77-.0615,1.0161-.0615.2,0,.2617.0308.2617.0615,0,.0616-.0615.1387-.3081.1846-.5849.1694-.8159.4468-1.293,1.5244-.2924.6621-1.1855,2.8638-2.6484,6.4048-.354.8931-.5542,1.4473-.6157,1.6782-.0308.1075-.0923.1846-.1231.1846-.0922,0-.123-.123-.1845-.3232-.5083-1.5245-2.8487-7.4517-3.4336-8.7759a1.023,1.023,0,0,0-.8623-.6929c-.1846-.0308-.2925-.0923-.2925-.1538S82.3882,65.3206,82.5264,65.3206Z"/><path class="cls-4" d="M96.2471,70.4476a.7749.7749,0,0,0-.1538.5693,30.509,30.509,0,0,0,.0771,3.3106.5441.5441,0,0,0,.4927.5234c.2309.0459.3384.0767.3384.1538,0,.0464-.0923.0923-.231.0923-.4307,0-.831-.0615-1.2778-.0615-.4771,0-.708.0615-1.0005.0615-.1694,0-.2466-.0308-.2466-.0923s.0615-.0923.2466-.1387c.4463-.1079.5542-.1538.5693-.7387.0464-.6163.062-2.0323.062-4.4805,0-2.3247.0308-3.2642,0-3.8491-.0156-.4927-.1235-.5386-.4619-.7237-.062-.0459-.1079-.0766-.1079-.123s.0923-.0923.2617-.1387a6.3783,6.3783,0,0,0,1.1241-.37.3366.3366,0,0,1,.1538-.0615c.0463,0,.0922.1079.0771.3237-.0156.4155-.0771,5.1885-.0615,5.481,0,.0615.0459.0766.0615.0459a5.0707,5.0707,0,0,1,.9238-.6314,2.4193,2.4193,0,0,1,1.0777-.2617,1.64,1.64,0,0,1,1.3857.6929,2.97,2.97,0,0,1,.3384,1.6474c.0156,1.1548.0156,2.1094.0308,2.6944,0,.3081.0615.416.5234.4926.2.0464.2466.0772.2466.1387s-.1079.1079-.2466.1079c-.4,0-.6929-.0771-1.1084-.0771-.5234,0-.6465.0615-1.0005.0615-.1851,0-.2466-.0459-.2466-.0923,0-.0615.0772-.0923.231-.123.4155-.0923.4463-.2.5083-.647.0307-.354.0615-1.0313.0615-2.6323a2.467,2.467,0,0,0-.2309-1.1548,1.1526,1.1526,0,0,0-1.0625-.57A1.8608,1.8608,0,0,0,96.2471,70.4476Z"/><path class="cls-4" d="M104.917,70.1243a3.7148,3.7148,0,0,1,.2158,1.4009c0,.57-.0464,2.0322-.0464,2.4326a.5276.5276,0,0,0,.57.585.98.98,0,0,0,.4463-.1387c.0923-.0459.1538,0,.0923.1387a1.2968,1.2968,0,0,1-1.1855.6621,1.0338,1.0338,0,0,1-.9082-.6929.0542.0542,0,0,0-.0772-.0156,2.1535,2.1535,0,0,1-1.5088.6929,1.2771,1.2771,0,0,1-1.2314-1.3238,1.0858,1.0858,0,0,1,.5542-.8779c.37-.2,1.77-.6157,2.0937-.7388a.2916.2916,0,0,0,.2-.2309,5.2191,5.2191,0,0,0,.0308-.7085c0-.6309-.1079-1.062-.37-1.2622a1.1749,1.1749,0,0,0-.6465-.2466,1.06,1.06,0,0,0-.6157.1851.6149.6149,0,0,0-.231.3691,1.5751,1.5751,0,0,0-.0156.293.19.19,0,0,1-.0615.123,3.3149,3.3149,0,0,1-.7237.3389c-.0766.0151-.1538-.0772-.1538-.1387,0-.1079.1079-.2466.2925-.4619a4,4,0,0,1,1.17-.8931,2.0706,2.0706,0,0,1,.9238-.2773A1.2618,1.2618,0,0,1,104.917,70.1243Zm-1.0313,4.2339a.6369.6369,0,0,0,.169-.37,10.996,10.996,0,0,0,.0771-1.4629c0-.0151-.0307-.0923-.0615-.0767a8.6543,8.6543,0,0,0-1.4165.5235.7966.7966,0,0,0-.3848.77.8941.8941,0,0,0,.9239.8623A1.0565,1.0565,0,0,0,103.8857,74.3582Z"/><path class="cls-4" d="M107.9053,70.5242c0,.647.5849,1.0161.97,1.2471,1.001.647,1.4009,1.0317,1.4009,1.8169a1.5816,1.5816,0,0,1-.8,1.2935,2.5614,2.5614,0,0,1-1.2319.3383,3.1425,3.1425,0,0,1-1.2164-.2768c-.123-.0464-.2309-.1538-.2309-.2466,0-.2153-.0308-.6-.0459-.77-.0308-.2.0151-.2466.0459-.2466.0464,0,.0928,0,.2.2925a1.5,1.5,0,0,0,.647.8315,1.179,1.179,0,0,0,.6928.1846,1.0552,1.0552,0,0,0,1.0005-1.0313c0-.5849-.4-.9087-1.0161-1.2934-.6621-.4312-1.2778-1.0005-1.2778-1.6783a1.46,1.46,0,0,1,.5849-1.2163,1.9916,1.9916,0,0,1,1.2935-.4311,3.7727,3.7727,0,0,1,1.0469.1694.25.25,0,0,1,.0766.1387c.0156.1694.0772.4775.0928.7236,0,.1695-.0308.2466-.0772.2466-.0615,0-.0922-.0771-.1386-.1851a1.1713,1.1713,0,0,0-.3692-.6313,1.2655,1.2655,0,0,0-.7236-.231A.897.897,0,0,0,107.9053,70.5242Z"/><path class="cls-4" d="M114.08,70.2933c0-.1074-.0152-.1846-.0767-.2-.0771,0-.2466,0-.4311-.0152-.1079-.0156-.2-.0922-.2-.123,0-.0464.0766-.0923.1845-.1543s.231-.1382.37-.231a.2981.2981,0,0,0,.1538-.2153,9.8288,9.8288,0,0,1,.2617-2.5249,3.5456,3.5456,0,0,1,1.5552-2.0478,2.52,2.52,0,0,1,1.3857-.4156c.6309,0,1.0469.2617,1.0469.4927a.7556.7556,0,0,1-.3848.5078.2777.2777,0,0,1-.3081-.0307,1.82,1.82,0,0,0-1.0932-.5235c-.6929,0-1.2315.4468-1.3858,2.0943-.0459.477-.0766,1.57-.0766,2.0473a4.58,4.58,0,0,0,.0151.4927.1213.1213,0,0,0,.1235.0923c.1382,0,1.4468-.0308,1.6162-.0308.0616,0,.1236.0923.1236.2774,0,.2153-.0313.2768-.2158.2768-.2461,0-1.355-.0307-1.57-.0307-.0463,0-.0771.1235-.0771.1386,0,.57.0308,3.3716.0464,3.8184.0459.5849.1694.708.3232.7544.1231.0464.2925.0464.4927.0923.1846.0464.2773.0771.2773.1386,0,.0772-.1079.1079-.2465.1079-.4463,0-.6929-.0463-1.4781-.0463-.354,0-.6928.0463-.9546.0615-.1386,0-.2309-.0308-.2309-.0923s.1079-.1079.3081-.1538c.37-.0928.4463-.3081.4463-.8623Z"/><path class="cls-4" d="M123.1187,72.2488a2.9485,2.9485,0,0,1-2.9253,2.9712,2.9359,2.9359,0,0,1-1.8785-5.2343,3.16,3.16,0,0,1,1.8477-.647A2.89,2.89,0,0,1,123.1187,72.2488Zm-4.8038-.2158a3.5244,3.5244,0,0,0,.6465,2.1094,1.83,1.83,0,0,0,1.4473.8159,1.5211,1.5211,0,0,0,.97-.3848,3.0678,3.0678,0,0,0,.6465-2.0629c0-1.4629-.7393-2.91-2.0938-2.91C119.146,69.6,118.3149,70.4319,118.3149,72.033Z"/><path class="cls-4" d="M124.8755,74.62a1.6136,1.6136,0,0,1-.2925-.9394c0-.5078,0-3.11-.0308-3.3716a.6.6,0,0,0-.3388-.5083c-.1387-.0923-.1846-.1382-.1846-.1846s.0767-.0771.2461-.0771a5.4016,5.4016,0,0,0,1.2935-.2c.0463-.0152.0922.0771.0771.1694-.0464.8779-.062,2.9717-.0464,3.68a1.7018,1.7018,0,0,0,.231,1.0161,1.1313,1.1313,0,0,0,.8623.3853,1.7275,1.7275,0,0,0,1.3086-.4927.9431.9431,0,0,0,.2768-.7085c.0308-.4155.0308-1.0161.0308-1.57,0-.231-.0151-.9546-.0151-1.355-.0157-.5234-.1695-.6-.6773-.708-.1694-.0308-.2466-.0771-.2466-.123,0-.0621.1387-.0928.231-.0928h.6465a8.16,8.16,0,0,0,1.0625-.0923c.0464,0,.0771.0615.0615.1694-.0772.7237-.1079,2.2632-.1079,4.0493a5.1645,5.1645,0,0,0,.0307.7852c.0313.1538.0772.1846.2.1694a4.3261,4.3261,0,0,1,.6314-.1386.1851.1851,0,0,1,.185.1694c0,.0615-.1386.0923-.2929.123a6.95,6.95,0,0,0-1.5855.4156c-.1235.0615-.1543.0464-.185,0s-.0308-.1231-.0308-.2925c0-.1538.0156-.4927.0156-.6006,0-.0459-.0156-.1538-.0464-.1074a4.4292,4.4292,0,0,1-1.062.7544,2.6388,2.6388,0,0,1-.9087.2309A1.513,1.513,0,0,1,124.8755,74.62Z"/><path class="cls-4" d="M135.6079,69.8626a3.2077,3.2077,0,0,1,.4927,2.0166c0,.8159.0156.94.0156,1.709.0151,1.0469.0615,1.1392.4771,1.2471.1386.0615.2309.0923.2309.1538,0,.0927-.123.1079-.2768.1079-.2,0-.647-.0615-.9854-.0615-.5234,0-.7236.0615-.9546.0615-.1386,0-.2466-.0308-.2466-.0923s.0923-.123.2925-.1694c.37-.0923.4312-.2.4312-.6465V72.095c0-1.247-.1074-1.6167-.4927-1.9091a1.3667,1.3667,0,0,0-.8774-.2925,1.84,1.84,0,0,0-1.2007.4926.7967.7967,0,0,0-.1851.462c0,.1845.0156.97.0156,1.8935a12.6266,12.6266,0,0,0,.0923,1.6167c.0459.3384.231.4155.4771.4927.185.0459.2617.0767.2617.1538,0,.0923-.1538.0923-.3076.0923-.1231,0-.8775-.0615-1.232-.0615-.2,0-.5234.0307-.8159.0307-.1694,0-.2925-.0307-.2925-.1079,0-.0615.1387-.123.3233-.1538.3848-.0771.4468-.1846.4619-.4927.0308-1.1084.0308-2.5249.0308-3.7719,0-.1539-.0308-.3233-.4-.5235-.0923-.0615-.1231-.0923-.1231-.1387,0-.0307.0772-.0771.2158-.123a5.7978,5.7978,0,0,0,1.2164-.5234c.0459-.0157.123.0459.1074.123a7.0694,7.0694,0,0,0-.0308.8159c0,.0308.0464.0772.0772.0464a5.2952,5.2952,0,0,1,1.0932-.6929,2.0767,2.0767,0,0,1,.9082-.185A1.57,1.57,0,0,1,135.6079,69.8626Z"/><path class="cls-4" d="M141.8452,69.493c.0308.0151.0767-.0464.0767-.0772,0-.2768-.0152-3.0024-.0308-3.8183a.41.41,0,0,0-.0615-.2617.84.84,0,0,0-.4312-.2461c-.1074-.0308-.1845-.0772-.1845-.1231s.0771-.0928.1845-.1079a6.4888,6.4888,0,0,0,1.3243-.37.5211.5211,0,0,1,.2153-.0772c.0464,0,.0771.0772.062.2617-.0312.462-.1079,5.4659-.1079,7.0362,0,1.3393.0151,2.4018.0308,2.8022a.1365.1365,0,0,0,.1079.1387,4.0214,4.0214,0,0,0,.7236-.1694c.0923-.0308.1382.0151.1382.0615,0,.1079-.1074.2466-.3848.2925a8.6583,8.6583,0,0,0-1.6011.4c-.0615.0151-.1079-.0616-.1079-.108a4.578,4.578,0,0,0,.0308-.6313c0-.0308-.0308-.0615-.0615-.0308a2.8894,2.8894,0,0,1-1.7554.7237,2.5116,2.5116,0,0,1-1.6318-.6465,2.9184,2.9184,0,0,1-.8-2.063,3.0636,3.0636,0,0,1,1.3393-2.54,3.46,3.46,0,0,1,1.9092-.585A4.257,4.257,0,0,1,141.8452,69.493Zm-2.2939.4155a2.7324,2.7324,0,0,0-.8472,2.2324c0,1.6631.9395,2.5249,1.8784,2.5249a1.6052,1.6052,0,0,0,1.0933-.4,1.0416,1.0416,0,0,0,.1694-.5693,21.3611,21.3611,0,0,0-.0156-2.9717,1.0163,1.0163,0,0,0-.1387-.37,1.7141,1.7141,0,0,0-1.37-.708A1.1351,1.1351,0,0,0,139.5513,69.9085Z"/><path class="cls-4" d="M58.0557,83.1365a9.4472,9.4472,0,0,0,1.9555-.4,1.6223,1.6223,0,0,1,.3389-.1079c.0308,0,.0615.0157.0615.1079,0,.2-.0156,1.57-.0464,2.5713-.0151,1.293.0157,4.5264.0464,5.1885.0459.9546.1231,1.0469.77,1.1548.1694.0308.2465.0923.2465.1538s-.0923.1079-.2924.1079c-.7852,0-1.2627-.0771-1.8013-.0771-.7549,0-1.0474.0771-1.586.0771-.1386,0-.2617-.0307-.2617-.1235,0-.0615.0923-.0923.2461-.1231.7237-.123.8623-.2617.8931-1.17.0464-.4775.0771-1.3086.0771-3.9414,0-1.8628-.0156-2.3711-.0464-2.7559a.3754.3754,0,0,0-.2-.3388,2.3359,2.3359,0,0,0-.3848-.0923c-.0923-.0156-.231-.0615-.231-.1231C57.84,83.1981,57.9326,83.1517,58.0557,83.1365Z"/><path class="cls-4" d="M64.7085,83.1365a9.45,9.45,0,0,0,1.9556-.4,1.6218,1.6218,0,0,1,.3388-.1079c.0308,0,.0616.0157.0616.1079,0,.2-.0157,1.57-.0464,2.5713-.0152,1.293.0156,4.5264.0464,5.1885.0459.9546.123,1.0469.77,1.1548.1694.0308.2466.0923.2466.1538s-.0923.1079-.2925.1079c-.7852,0-1.2627-.0771-1.8018-.0771-.7544,0-1.0468.0771-1.5854.0771-.1387,0-.2617-.0307-.2617-.1235,0-.0615.0922-.0923.2461-.1231.7236-.123.8623-.2617.893-1.17.0464-.4775.0772-1.3086.0772-3.9414,0-1.8628-.0157-2.3711-.0464-2.7559a.3756.3756,0,0,0-.2-.3388,2.3359,2.3359,0,0,0-.3848-.0923c-.0923-.0156-.2309-.0615-.2309-.1231C64.4932,83.1981,64.5854,83.1517,64.7085,83.1365Z"/><path class="cls-4" d="M73.5938,88.6639a2.727,2.727,0,0,0,.6469,1.8935,2.037,2.037,0,0,0,1.3394.5386,1.9414,1.9414,0,0,0,1.4936-.5234c.0767-.0616.1382-.0616.1382,0a.5466.5466,0,0,1-.123.2773,2.5753,2.5753,0,0,1-2.1709,1.1392A2.8326,2.8326,0,0,1,73.1475,86.97a3.8357,3.8357,0,0,1,2.2631-.8774,2.3582,2.3582,0,0,1,1.5088.4155.4173.4173,0,0,1,.1851.2925.5691.5691,0,0,1-.4927.6006.6117.6117,0,0,1-.2617-.1387,6.8752,6.8752,0,0,0-.97-.7236,1.1893,1.1893,0,0,0-.57-.1231C74.3945,86.4158,73.5938,86.9241,73.5938,88.6639Z"/><path class="cls-4" d="M83.9722,89.0023A3.0819,3.0819,0,0,1,82.7715,91.42a3.2587,3.2587,0,0,1-1.8477.6,2.9772,2.9772,0,0,1-3.0947-2.94,2.831,2.831,0,0,1,1.0933-2.2788,3.137,3.137,0,0,1,1.9707-.708A2.9213,2.9213,0,0,1,83.9722,89.0023Zm-4.5108-.3384a4.6188,4.6188,0,0,0,.4771,2.2632,1.49,1.49,0,0,0,1.17.8466.9129.9129,0,0,0,.708-.354,3.6407,3.6407,0,0,0,.5083-2.0942c0-1.7549-.4927-2.9712-1.5708-2.9712C80.0928,86.3543,79.4614,87.324,79.4614,88.6639Z"/><path class="cls-4" d="M90.0557,86.616a2.7326,2.7326,0,0,1,.539,1.94c.0157.893.0308,1.0468.0308,1.9091.0156.9546.0923,1.0777.5083,1.1856.0766.0308.1689.0615.1689.1382,0,.062-.0766.0928-.2153.0928-.354,0-.8623-.0464-1.17-.0464a12.11,12.11,0,0,0-1.2779.0615c-.1542,0-.2622-.0459-.2622-.1079s.0928-.1074.231-.1382c.416-.1235.4927-.231.4927-.5855V88.8021c0-1.1856-.0923-1.5088-.4615-1.8013a1.2282,1.2282,0,0,0-.7236-.2153,1.3838,1.3838,0,0,0-.8315.2924.4616.4616,0,0,0-.1538.3233c0,.2925.0151,1.0161.0151,1.8013.0156.9545.0464,1.7246.0615,1.9091a.52.52,0,0,0,.4312.5235c.1845.0464.2466.0771.2466.1538,0,.0928-.1695.1079-.2774.1079-.1538,0-1.0317-.0615-1.3857-.0615-.2,0-.6006.0307-1.062.0307-.1695,0-.293-.0464-.293-.123,0-.0615.1387-.1231.2773-.1538.4312-.0772.4619-.2.4771-.5547.0312-.8926.0464-2.2324.0464-3.6489,0-.1538-.0464-.2769-.354-.4927-.1387-.0923-.1231-.1231-.1231-.1538,0-.0459.0767-.0923.2154-.1231a7.86,7.86,0,0,0,1.6318-.6313c.0464-.0152.1235.0464.1235.123a5.9753,5.9753,0,0,0-.0307.77c0,.0308.0459.0464.0766.0152a4.42,4.42,0,0,1,.9087-.6,2.232,2.232,0,0,1,.9082-.2A1.5939,1.5939,0,0,1,90.0557,86.616Z"/><path class="cls-4" d="M92.6128,91.2811a1.92,1.92,0,0,1-.1846-.9546V87.17a.2653.2653,0,0,0-.1079-.2617,1.0418,1.0418,0,0,0-.2461-.0923c-.1235-.0307-.2-.0771-.2-.1538,0-.0464.0767-.1235.2461-.2158a5.08,5.08,0,0,0,1.4473-1.0933c.2309-.2309.3388-.1694.3388-.0923,0,.108-.0307.7544-.0156.8775,0,.0464.0156.1543.0772.1543.2925-.0156,1.3242-.0464,1.57-.0308a.3.3,0,0,1,.123.2769c0,.3388-.1074.354-.1689.354h-1.355c-.1851,0-.2158.062-.2158.1387,0,.3388-.0152,2.8022,0,3.2026a1.1018,1.1018,0,0,0,.1694.708.9518.9518,0,0,0,.7393.3389,1.2372,1.2372,0,0,0,.708-.1851c.1538-.0923.2-.0459.2,0,0,.0928-.0772.2158-.3233.416a2.12,2.12,0,0,1-1.3857.4619A1.5107,1.5107,0,0,1,92.6128,91.2811Z"/><path class="cls-4" d="M100.1426,86.7239a2.7644,2.7644,0,0,1,.3847,1.54c0,.7388-.0307,2.0322-.0307,2.4326a.498.498,0,0,0,.5083.4927.84.84,0,0,0,.4311-.1236c.0616-.0459.1231.0621.0767.1543a1.5757,1.5757,0,0,1-1.416.8,1.1113,1.1113,0,0,1-1.0318-.7236c0-.0151-.0463-.0308-.0771-.0151a1.9634,1.9634,0,0,1-1.4932.708,1.3257,1.3257,0,0,1-1.247-1.3853,1.1057,1.1057,0,0,1,.5693-.9546c.4-.2,1.6782-.5239,2.0942-.6928a.309.309,0,0,0,.2-.231,6.1,6.1,0,0,0,.0152-.7393,1.3692,1.3692,0,0,0-.3389-1.1084.944.944,0,0,0-.6-.2617,1.1613,1.1613,0,0,0-.5391.1387.3772.3772,0,0,0-.1538.2617c0,.0767.0152.3076.0152.4463a.2767.2767,0,0,1-.0923.1231,5.3567,5.3567,0,0,1-.939.4926.1848.1848,0,0,1-.185-.1689,1.2616,1.2616,0,0,1,.4-.647,4.2637,4.2637,0,0,1,1.1705-.8467,2.6242,2.6242,0,0,1,1.0312-.3232A1.4837,1.4837,0,0,1,100.1426,86.7239ZM98.8955,91.096a.6361.6361,0,0,0,.1387-.3076,14.7852,14.7852,0,0,0,.0771-1.54c0-.0156-.0312-.1079-.0927-.0922a5.2638,5.2638,0,0,0-.9854.3847.8388.8388,0,0,0-.4463.8.8763.8763,0,0,0,.8316.9395A.6134.6134,0,0,0,98.8955,91.096Z"/><path class="cls-4" d="M102.1147,86.7855c0-.0464.0923-.1079.2-.1231a4.8409,4.8409,0,0,0,1.4013-.5547A.5318.5318,0,0,1,103.9927,86c.062,0,.0771.0767.0771.1538,0,.1694,0,.5542-.0151.708,0,.0772.0151.1387.0766.0772a2.9483,2.9483,0,0,1,1.8785-.8316,1.5869,1.5869,0,0,1,1.478.97.0745.0745,0,0,0,.1079.0152,2.9467,2.9467,0,0,1,2.0322-.97,1.6112,1.6112,0,0,1,1.54,1.1391,4.9717,4.9717,0,0,1,.1846,1.4321c.0156.5079.0463,1.7242.0615,2.2476s.1694.6157.4468.6621c.1538.0464.246.1079.246.1387,0,.0766-.0922.1387-.2924.1387-.1695,0-.8-.0464-1.1548-.0464-.3692,0-.9234.0615-1.1543.0615-.2,0-.2774-.0308-.2774-.1079s.1231-.1231.231-.1538c.3232-.0772.4155-.2461.4155-.6929a21.0653,21.0653,0,0,0-.1074-3.0327c-.1387-.7857-.5391-1.0474-1.14-1.0474a1.4726,1.4726,0,0,0-.939.4.541.541,0,0,0-.0615.3081c.0923.6006.0923,3.0176.1079,3.4331.0459.4312.0923.5235.4306.6162.1543.0616.231.1075.231.169s-.1074.0928-.231.0928c-.5234,0-.7544-.0464-1.4472-.0464-.354,0-.7852.0464-.9541.0464-.2158,0-.2622-.0308-.2622-.0928,0-.0459.062-.1074.2158-.1538.3232-.0772.4619-.2.4619-.57l.0459-2.4633c0-.816-.0459-1.1392-.354-1.4781a1.1012,1.1012,0,0,0-.7852-.3076,1.2424,1.2424,0,0,0-.8774.3384.9944.9944,0,0,0-.1231.2622c-.0156.2-.0307.5234-.0307,1.1851a22.2646,22.2646,0,0,0,.0766,2.6328c.0308.2158.108.3081.4.3852.1695.0616.231.1075.231.1538,0,.0772-.1079.108-.231.108-.2773,0-.8623-.0464-1.2319-.0464-.6465,0-.9233.0464-1.293.0464-.1386,0-.2465-.0464-.2465-.108,0-.0771.0927-.1079.2773-.1538.3848-.0927.477-.2309.4927-.5083.0307-.2461.0464-2.0937.0464-2.6479,0-.3853.0151-.7852-.0157-1.0318,0-.1538-.0771-.2924-.3081-.4619-.0923-.0771-.123-.1079-.123-.1845Z"/><path class="cls-4" d="M113.0635,86.57a6.9606,6.9606,0,0,0,1.5093-.4619,1.353,1.353,0,0,1,.2309-.0923c.0459,0,.0767.0464.0615.2159-.0307.3232-.0307,1.1084-.0307,1.7548,0,1.7247,0,2.9561.0307,3.1871a.4656.4656,0,0,0,.4156.4775c.1694.0459.2153.0923.2153.1538,0,.0772-.1074.1079-.231.1079-.2617,0-.6157-.0771-1.2622-.0771-.6772,0-1.0317.0307-1.2011.0307-.1382,0-.2618-.0464-.2618-.1079,0-.0766.0928-.1074.2774-.1382.4-.0927.5083-.2929.5083-.8315,0-.4619.0459-3.1406.0459-3.2949,0-.2925,0-.354-.4-.6314-.0767-.0615-.1231-.1074-.1231-.1689C112.8481,86.6624,112.8945,86.616,113.0635,86.57Zm1.8325-2.4477a.7371.7371,0,0,1-.7544.77.6965.6965,0,0,1-.647-.708.7365.7365,0,0,1,.7237-.7851A.7244.7244,0,0,1,114.896,84.1219Z"/><path class="cls-4" d="M121.3628,86.616a2.7326,2.7326,0,0,1,.5391,1.94c.0151.893.0307,1.0468.0307,1.9091.0156.9546.0923,1.0777.5083,1.1856.0767.0308.169.0615.169.1382,0,.062-.0767.0928-.2154.0928-.354,0-.8623-.0464-1.17-.0464a12.1328,12.1328,0,0,0-1.2783.0615c-.1538,0-.2617-.0459-.2617-.1079s.0927-.1074.2309-.1382c.416-.1235.4927-.231.4927-.5855V88.8021c0-1.1856-.0923-1.5088-.4619-1.8013a1.226,1.226,0,0,0-.7232-.2153,1.384,1.384,0,0,0-.8315.2924.462.462,0,0,0-.1538.3233c0,.2925.0151,1.0161.0151,1.8013.0157.9545.0464,1.7246.0616,1.9091a.52.52,0,0,0,.4311.5235c.1846.0464.2466.0771.2466.1538,0,.0928-.1694.1079-.2774.1079-.1538,0-1.0317-.0615-1.3857-.0615-.2,0-.6006.0307-1.062.0307-.1694,0-.293-.0464-.293-.123,0-.0615.1387-.1231.2774-.1538.4311-.0772.4619-.2.477-.5547.0313-.8926.0464-2.2324.0464-3.6489,0-.1538-.0464-.2769-.354-.4927-.1387-.0923-.123-.1231-.123-.1538,0-.0459.0766-.0923.2153-.1231a7.86,7.86,0,0,0,1.6318-.6313c.0464-.0152.1236.0464.1236.123a5.9744,5.9744,0,0,0-.0308.77c0,.0308.0459.0464.0767.0152a4.42,4.42,0,0,1,.9086-.6,2.232,2.232,0,0,1,.9082-.2A1.5937,1.5937,0,0,1,121.3628,86.616Z"/><path class="cls-4" d="M127.1074,86.7239a2.7645,2.7645,0,0,1,.3848,1.54c0,.7388-.0308,2.0322-.0308,2.4326a.4981.4981,0,0,0,.5083.4927.84.84,0,0,0,.4312-.1236c.0615-.0459.123.0621.0766.1543a1.5756,1.5756,0,0,1-1.416.8,1.111,1.111,0,0,1-1.0317-.7236c0-.0151-.0464-.0308-.0772-.0151a1.9632,1.9632,0,0,1-1.4931.708,1.3257,1.3257,0,0,1-1.2471-1.3853,1.1057,1.1057,0,0,1,.5693-.9546c.4-.2,1.6783-.5239,2.0943-.6928a.3094.3094,0,0,0,.2-.231,6.119,6.119,0,0,0,.0151-.7393,1.3688,1.3688,0,0,0-.3389-1.1084.9438.9438,0,0,0-.6-.2617,1.1609,1.1609,0,0,0-.539.1387.3765.3765,0,0,0-.1538.2617c0,.0767.0151.3076.0151.4463a.2767.2767,0,0,1-.0923.1231,5.3557,5.3557,0,0,1-.9389.4926.1849.1849,0,0,1-.1851-.1689,1.2613,1.2613,0,0,1,.4-.647,4.263,4.263,0,0,1,1.17-.8467,2.6251,2.6251,0,0,1,1.0313-.3232A1.4835,1.4835,0,0,1,127.1074,86.7239ZM125.86,91.096a.637.637,0,0,0,.1386-.3076,14.749,14.749,0,0,0,.0772-1.54c0-.0156-.0313-.1079-.0928-.0922a5.2664,5.2664,0,0,0-.9854.3847.8389.8389,0,0,0-.4462.8.8763.8763,0,0,0,.8315.9395A.6138.6138,0,0,0,125.86,91.096Z"/><path class="cls-4" d="M134.1445,86.616a2.7321,2.7321,0,0,1,.5391,1.94c.0156.893.0308,1.0468.0308,1.9091.0156.9546.0922,1.0777.5083,1.1856.0766.0308.1689.0615.1689.1382,0,.062-.0767.0928-.2153.0928-.354,0-.8623-.0464-1.17-.0464a12.1068,12.1068,0,0,0-1.2778.0615c-.1543,0-.2622-.0459-.2622-.1079s.0928-.1074.231-.1382c.416-.1235.4926-.231.4926-.5855V88.8021c0-1.1856-.0922-1.5088-.4614-1.8013a1.2282,1.2282,0,0,0-.7236-.2153,1.3843,1.3843,0,0,0-.8316.2924.462.462,0,0,0-.1538.3233c0,.2925.0152,1.0161.0152,1.8013.0156.9545.0464,1.7246.0615,1.9091a.52.52,0,0,0,.4311.5235c.1846.0464.2466.0771.2466.1538,0,.0928-.1694.1079-.2773.1079-.1538,0-1.0318-.0615-1.3858-.0615-.2,0-.6005.0307-1.062.0307-.1694,0-.2929-.0464-.2929-.123,0-.0615.1386-.1231.2773-.1538.4312-.0772.4619-.2.4771-.5547.0312-.8926.0463-2.2324.0463-3.6489,0-.1538-.0463-.2769-.354-.4927-.1386-.0923-.123-.1231-.123-.1538,0-.0459.0766-.0923.2153-.1231a7.8584,7.8584,0,0,0,1.6319-.6313c.0463-.0152.1235.0464.1235.123a5.9924,5.9924,0,0,0-.0308.77c0,.0308.0459.0464.0767.0152a4.42,4.42,0,0,1,.9087-.6,2.2313,2.2313,0,0,1,.9082-.2A1.5935,1.5935,0,0,1,134.1445,86.616Z"/><path class="cls-4" d="M136.7017,91.2811a1.92,1.92,0,0,1-.1846-.9546V87.17a.2653.2653,0,0,0-.1079-.2617,1.0418,1.0418,0,0,0-.2461-.0923c-.1235-.0307-.2-.0771-.2-.1538,0-.0464.0767-.1235.2461-.2158a5.0782,5.0782,0,0,0,1.4472-1.0933c.231-.2309.3389-.1694.3389-.0923,0,.108-.0307.7544-.0156.8775,0,.0464.0156.1543.0771.1543.2925-.0156,1.3243-.0464,1.57-.0308a.3.3,0,0,1,.123.2769c0,.3388-.1074.354-.1689.354h-1.355c-.1851,0-.2158.062-.2158.1387,0,.3388-.0152,2.8022,0,3.2026a1.1011,1.1011,0,0,0,.1694.708.9516.9516,0,0,0,.7392.3389,1.2375,1.2375,0,0,0,.7081-.1851c.1538-.0923.2-.0459.2,0,0,.0928-.0771.2158-.3232.416a2.12,2.12,0,0,1-1.3857.4619A1.5106,1.5106,0,0,1,136.7017,91.2811Z"/><path class="cls-4" d="M141.6763,87.17c0,.6006.5234.8931,1.1543,1.2935.97.6465,1.34,1.0469,1.34,1.832a1.7175,1.7175,0,0,1-.7085,1.2935,3.013,3.013,0,0,1-1.5088.4306,4.2645,4.2645,0,0,1-1.3393-.2617c-.1079-.0459-.2617-.1846-.2617-.2925-.0157-.2153-.0616-.6928-.0772-.8466-.0151-.2.0156-.3081.0772-.3081.0463,0,.1079.0463.2.3237a1.9382,1.9382,0,0,0,.6465.9233,1.1416,1.1416,0,0,0,.77.2.9217.9217,0,0,0,.9238-.8618c0-.4468-.3238-.77-1.1089-1.2627a2.2856,2.2856,0,0,1-1.2471-1.8013,1.5842,1.5842,0,0,1,.7544-1.37,2.3121,2.3121,0,0,1,1.3086-.37,3.5528,3.5528,0,0,1,1.2012.2.2032.2032,0,0,1,.0923.1538c0,.1538.0615.4311.0771.8315.0152.1695-.0307.2461-.0923.2461s-.0927-.0766-.1386-.2a1.4133,1.4133,0,0,0-.3848-.708,1.2849,1.2849,0,0,0-.8008-.2773A.8868.8868,0,0,0,141.6763,87.17Z"/><path class="cls-4" d="M58.2559,137.6478a.7749.7749,0,0,0-.1538.5693,30.5046,30.5046,0,0,0,.0771,3.3105.5438.5438,0,0,0,.4927.5235c.2309.0459.3384.0771.3384.1533,0,.0469-.0923.0928-.231.0928-.4307,0-.8311-.0615-1.2778-.0615-.4771,0-.708.0615-1.0005.0615-.1695,0-.2466-.03-.2466-.0928s.0615-.0918.2466-.1377c.4463-.1084.5542-.1543.5693-.7392.0464-.6163.062-2.0323.062-4.48,0-2.3252.0308-3.2637,0-3.8486-.0156-.4932-.1235-.5391-.4619-.7237-.062-.0469-.1079-.0771-.1079-.123s.0923-.0928.2617-.1387a6.37,6.37,0,0,0,1.124-.37.3373.3373,0,0,1,.1539-.0615c.0463,0,.0922.1084.0771.3232-.0156.416-.0771,5.1885-.0615,5.4814,0,.0616.0459.0772.0615.0459a5.05,5.05,0,0,1,.9238-.6308,2.4119,2.4119,0,0,1,1.0777-.2617,1.64,1.64,0,0,1,1.3857.6924,2.9711,2.9711,0,0,1,.3384,1.6474c.0156,1.1553.0156,2.1094.0307,2.6943,0,.3077.0616.4161.5235.4932.2.0459.2466.0762.2466.1377s-.1079.1084-.2466.1084c-.4,0-.6929-.0771-1.1084-.0771-.5235,0-.6465.0615-1.0005.0615-.1851,0-.2466-.0459-.2466-.0928,0-.0615.0772-.0918.231-.123.4155-.0918.4463-.2.5083-.6465.0307-.3535.0615-1.0313.0615-2.6328a2.4663,2.4663,0,0,0-.231-1.1543,1.1521,1.1521,0,0,0-1.0625-.5694A1.86,1.86,0,0,0,58.2559,137.6478Z"/><path class="cls-4" d="M68.0962,138.11a.1805.1805,0,0,1-.1543.1689c-.1231-.0156-2.1245-.0459-2.4785-.0459h-.8316c-.0307,0-.1079.0772-.1386.1231a2.1235,2.1235,0,0,0-.1231.8467,2.7616,2.7616,0,0,0,.708,1.8632,2.08,2.08,0,0,0,1.54.6309,1.9681,1.9681,0,0,0,1.4624-.4922c.123-.123.1845-.0928.1845-.0156a.5824.5824,0,0,1-.1538.2461,2.72,2.72,0,0,1-2.14.97,2.4837,2.4837,0,0,1-1.832-.7852,3.0074,3.0074,0,0,1-.7388-2.0625,3.209,3.209,0,0,1,.8926-2.248,2.8649,2.8649,0,0,1,1.9248-.7695A1.7765,1.7765,0,0,1,68.0962,138.11Zm-3.1411-.7852a1.3506,1.3506,0,0,0-.3233.6309.0658.0658,0,0,0,.0616.0615l2.0014-.0156c.3389,0,.37-.169.37-.3076a.9923.9923,0,0,0-.2154-.6465,1.0775,1.0775,0,0,0-.77-.293A1.5983,1.5983,0,0,0,64.9551,137.3245Z"/><path class="cls-4" d="M72.6387,137.3245a3.7137,3.7137,0,0,1,.2158,1.4c0,.57-.0464,2.0332-.0464,2.4326a.5274.5274,0,0,0,.57.585.9831.9831,0,0,0,.4463-.1377c.0923-.0469.1538,0,.0923.1377a1.296,1.296,0,0,1-1.1855.6621,1.0325,1.0325,0,0,1-.9082-.6924.0534.0534,0,0,0-.0772-.0156,2.1525,2.1525,0,0,1-1.5088.6934,1.2773,1.2773,0,0,1-1.2314-1.3243,1.0849,1.0849,0,0,1,.5542-.8779c.37-.2,1.77-.6152,2.0937-.7393a.29.29,0,0,0,.2-.23,5.2189,5.2189,0,0,0,.0308-.708c0-.6319-.1079-1.0625-.37-1.2627a1.17,1.17,0,0,0-.6464-.2461,1.06,1.06,0,0,0-.6158.1846.6125.6125,0,0,0-.2309.3691,1.57,1.57,0,0,0-.0156.293.1913.1913,0,0,1-.0616.123,3.3357,3.3357,0,0,1-.7236.3389c-.0767.0156-.1538-.0772-.1538-.1387,0-.1074.1079-.2461.2925-.4619a3.9889,3.9889,0,0,1,1.17-.8926,2.0577,2.0577,0,0,1,.9238-.2773A1.2613,1.2613,0,0,1,72.6387,137.3245Zm-1.0313,4.2334a.6365.6365,0,0,0,.169-.3691,11,11,0,0,0,.0771-1.4629c0-.0156-.0307-.0918-.0615-.0772a8.7446,8.7446,0,0,0-1.4165.5235.7978.7978,0,0,0-.3848.77.8944.8944,0,0,0,.9239.8623A1.0545,1.0545,0,0,0,71.6074,141.5579Z"/><path class="cls-4" d="M76.0732,138.4944c0,1.9395.0157,2.6631.0308,2.9561.0156.416.1079.5234.5391.6006.0923.0156.2.0615.2.1074,0,.0615-.1079.1084-.3081.1084-.2461,0-.8008-.0312-1.0625-.0312-.4,0-.8.0312-1.0313.0312-.1851,0-.2617-.0156-.2617-.0928s.0766-.0927.2768-.1386c.3853-.0772.4776-.2159.5391-.8926.0308-.57.0923-3.1719.1079-5.0195,0-1.2471.0152-2.51,0-3.1866,0-.3388-.0307-.416-.4311-.6621-.1079-.0615-.1543-.0928-.1543-.1387s.0927-.0927.2309-.123a7.987,7.987,0,0,0,1.1548-.3545.6472.6472,0,0,1,.1851-.0459c.0307,0,.0459.0918.0459.169,0,.1074-.0616,2.7714-.0616,5.081Z"/><path class="cls-4" d="M78.3218,141.6663a1.7341,1.7341,0,0,1-.1851-.8779v-3.1865c0-.17-.0151-.2774-.0766-.3086a2.55,2.55,0,0,0-.37-.0918c-.123-.0313-.2-.0772-.2-.1387,0-.0312.0157-.0771.1851-.1543a3.2793,3.2793,0,0,0,1.2622-1.0312c.1387-.1543.2466-.1231.2466-.0469,0,.1387-.0308.57-.0156.7549,0,.0459.0156.1386.0771.1386.2769,0,1.5547-.0459,1.8784-.0459.0308,0,.0923.1075.0923.2149,0,.2617-.0771.3847-.1543.3847-.5386,0-1.293-.0146-1.709-.0146-.1845,0-.2153.0459-.2153.1387,0,.2617.0156,2.6787.0308,3.1562a1.5762,1.5762,0,0,0,.1694.8311,1.14,1.14,0,0,0,.9546.416,1.501,1.501,0,0,0,.8467-.2315c.1079-.0771.1538-.0615.1538,0,0,.0928-.1382.2461-.3384.4a2.1129,2.1129,0,0,1-1.2471.4A1.4268,1.4268,0,0,1,78.3218,141.6663Z"/><path class="cls-4" d="M83.4648,137.6478a.7754.7754,0,0,0-.1538.5693,30.517,30.517,0,0,0,.0772,3.3105.5438.5438,0,0,0,.4927.5235c.2309.0459.3383.0771.3383.1533,0,.0469-.0922.0928-.2309.0928-.4307,0-.8311-.0615-1.2779-.0615-.477,0-.708.0615-1,.0615-.1695,0-.2466-.03-.2466-.0928s.0615-.0918.2466-.1377c.4462-.1084.5542-.1543.5693-.7392.0464-.6163.062-2.0323.062-4.48,0-2.3252.0308-3.2637,0-3.8486-.0156-.4932-.1235-.5391-.4619-.7237-.062-.0469-.1079-.0771-.1079-.123s.0923-.0928.2617-.1387a6.3726,6.3726,0,0,0,1.124-.37.3374.3374,0,0,1,.1538-.0615c.0464,0,.0923.1084.0772.3232-.0156.416-.0772,5.1885-.0615,5.4814,0,.0616.0459.0772.0615.0459a5.05,5.05,0,0,1,.9238-.6308,2.4118,2.4118,0,0,1,1.0776-.2617,1.64,1.64,0,0,1,1.3858.6924,2.9711,2.9711,0,0,1,.3384,1.6474c.0156,1.1553.0156,2.1094.0307,2.6943,0,.3077.0616.4161.5235.4932.2.0459.2466.0762.2466.1377s-.108.1084-.2466.1084c-.4,0-.6929-.0771-1.1084-.0771-.5235,0-.6465.0615-1.0005.0615-.1851,0-.2466-.0459-.2466-.0928,0-.0615.0771-.0918.231-.123.4155-.0918.4462-.2.5083-.6465.0307-.3535.0615-1.0313.0615-2.6328a2.4663,2.4663,0,0,0-.231-1.1543,1.1521,1.1521,0,0,0-1.0625-.5694A1.86,1.86,0,0,0,83.4648,137.6478Z"/><path class="cls-4" d="M92.7354,137.6634a.8832.8832,0,0,0-.2618.5381,8.9308,8.9308,0,0,0-.0151.9394c0,1.14.0308,1.9405.0615,2.2637.0615.4766.2461.585.8316.6465.2153.03.2924.0615.2924.1387s-.1386.1074-.37.1074c-.2925,0-.8008-.0615-1.4473-.0615a8.2773,8.2773,0,0,0-.9389.0927c-.1851,0-.2622-.0312-.2622-.0927,0-.0459.1079-.1231.2309-.1543a.6355.6355,0,0,0,.5547-.6309c.0308-.2617.0459-1.14.0459-2.1553v-1.709c0-.1084-.1079-.1543-.4-.4-.1074-.0772-.123-.1231-.123-.1543s.0923-.0918.2309-.1387a4.61,4.61,0,0,0,.9854-.3692.4876.4876,0,0,1,.2309-.0771c.0308,0,.0616.0615.0616.2158,0,.169-.0152.7539-.0152,1.001,0,.0459.0308.0615.0767.0146a2.5161,2.5161,0,0,1,1.6631-1.1084.8969.8969,0,0,1,.5386.2.269.269,0,0,1,.1079.2159,1.052,1.052,0,0,1-.3389.5234c-.1382.123-.2.1387-.2461.1387a.6945.6945,0,0,1-.2773-.1084,1.0814,1.0814,0,0,0-.5386-.1846A1.0489,1.0489,0,0,0,92.7354,137.6634Z"/><path class="cls-4" d="M95.6157,136.9857a7.6318,7.6318,0,0,0,1.1084-.4.6227.6227,0,0,1,.231-.1075c.0464,0,.0771.0459.0615.2149-.0308.3086-.0308,1.2471-.0308,2.2324,0,1.294,0,2.4326.0308,2.6943.0308.3086.1851.3858.4312.4473.1538.03.2309.0615.2309.1231,0,.0771-.123.1074-.2461.1074-.1387,0-.7085-.0615-1.124-.0615-.5083,0-.7544.0312-.9238.0312-.1079,0-.2154-.0312-.2154-.0928s.0767-.1074.2925-.1386c.3384-.0928.4771-.2159.4927-.8467.0151-.4619.0459-3.2637.0459-3.418,0-.2158-.0151-.3076-.4463-.539-.0771-.0459-.123-.0918-.123-.1231C95.4312,137.0628,95.4771,137.0159,95.6157,136.9857Zm1.54-2.51a.5862.5862,0,0,1-.57.585.5482.5482,0,0,1-.5078-.5694.571.571,0,0,1,.5386-.6006A.563.563,0,0,1,97.1553,134.4759Z"/><path class="cls-4" d="M99.5273,137.7249c0,.6465.585,1.0156.97,1.2471,1.0009.6465,1.4008,1.0312,1.4008,1.8164a1.58,1.58,0,0,1-.8,1.293,2.5565,2.5565,0,0,1-1.232.3388,3.1249,3.1249,0,0,1-1.2163-.2773c-.123-.0459-.2309-.1533-.2309-.2461,0-.2158-.0308-.6006-.0459-.77-.0308-.2.0151-.2461.0459-.2461.0463,0,.0927,0,.2.292a1.5054,1.5054,0,0,0,.6469.832,1.1829,1.1829,0,0,0,.6929.1846,1.0558,1.0558,0,0,0,1.0005-1.0323c0-.5849-.4-.9082-1.0161-1.2929-.6621-.4307-1.2779-1.001-1.2779-1.6778a1.4594,1.4594,0,0,1,.585-1.2168,1.9942,1.9942,0,0,1,1.2935-.4306,3.7744,3.7744,0,0,1,1.0468.1689.2525.2525,0,0,1,.0767.1387c.0156.1689.0771.4775.0928.7236,0,.169-.0308.2461-.0772.2461-.0615,0-.0923-.0771-.1387-.1846a1.1692,1.1692,0,0,0-.3691-.6308,1.2649,1.2649,0,0,0-.7236-.2315A.8973.8973,0,0,0,99.5273,137.7249Z"/><path class="cls-4" d="M106.9028,136.7239c.3389,0,.9546-.0771,1.355-.0771.1694,0,.231.0459.231.0928,0,.03-.0464.0918-.231.123a2.7474,2.7474,0,0,0-1.4165.6768c-.4.3086-1.1548.955-1.4473,1.2324-.0307.03,0,.0771.0157.1074.4619.5391,1.57,1.7246,2.2939,2.4639a1.99,1.99,0,0,0,1.1084.7236c.1387.03.231.0762.231.1377,0,.0928-.1387.1084-.2618.1084-.5234,0-1.1083-.0771-1.7089-.0771-.2618,0-.4619.0156-.6929.0156-.1694,0-.2769,0-.2769-.0928,0-.0771.0767-.1074.354-.1689.2618-.0616.2925-.2.1539-.4161-.3233-.3691-1.4166-1.5244-1.8785-1.9863-.123-.123-.2309-.23-.2924-.23-.0459,0-.0616.0917-.0616.1533-.0151.2773-.0307.7861-.0151,1.6328,0,.7383.123.7851.6.8926.1543.0459.2309.0771.2309.1386,0,.0772-.123.1075-.2924.1075-.4312,0-.7544-.0459-1.1548-.0459-.4927,0-.8159.0459-1.0005.0459-.1543,0-.2466-.0459-.2466-.1075,0-.0459.0923-.0927.2-.1074.4775-.124.585-.2617.6157-.77.062-1.124.0772-2.417.0772-3.6182.0156-1.2.0615-3.1709.0615-4.372a2.6168,2.6168,0,0,0-.0615-.708c-.0308-.1231-.1695-.2159-.354-.3086-.0772-.0459-.1387-.0762-.1387-.1075,0-.0615.0923-.0927.2466-.1386a9.3917,9.3917,0,0,0,1.0928-.3692.7071.7071,0,0,1,.2465-.0771c.0152,0,.0459.0459.0459.123-.0307.5078-.0766,1.8633-.0766,3.002,0,.4775-.0772,2.51-.0772,4.2031,0,.17.0308.2471.0772.2471a.7763.7763,0,0,0,.3076-.17,13.1911,13.1911,0,0,0,1.6631-1.5391.5592.5592,0,0,0,.1694-.2773c0-.0928-.1079-.1846-.4468-.2461-.1386-.0157-.2617-.0616-.2617-.1231s.1079-.1084.2466-.1084C106.3794,136.7083,106.7334,136.7239,106.9028,136.7239Z"/><path class="cls-4" d="M110.4458,137.7249c0,.6465.585,1.0156.97,1.2471,1.001.6465,1.4009,1.0312,1.4009,1.8164a1.58,1.58,0,0,1-.8,1.293,2.5565,2.5565,0,0,1-1.2319.3388,3.1249,3.1249,0,0,1-1.2163-.2773c-.1231-.0459-.231-.1533-.231-.2461,0-.2158-.0307-.6006-.0459-.77-.0307-.2.0152-.2461.0459-.2461.0464,0,.0928,0,.2.292a1.5051,1.5051,0,0,0,.647.832,1.1827,1.1827,0,0,0,.6929.1846,1.0557,1.0557,0,0,0,1-1.0323c0-.5849-.4-.9082-1.0161-1.2929-.6621-.4307-1.2778-1.001-1.2778-1.6778a1.4594,1.4594,0,0,1,.585-1.2168,1.9941,1.9941,0,0,1,1.2934-.4306,3.776,3.776,0,0,1,1.0469.1689.2531.2531,0,0,1,.0771.1387c.0152.1689.0767.4775.0923.7236,0,.169-.0307.2461-.0771.2461-.0615,0-.0923-.0771-.1387-.1846a1.1683,1.1683,0,0,0-.37-.6308,1.2625,1.2625,0,0,0-.7232-.2315A.8972.8972,0,0,0,110.4458,137.7249Z"/><path class="cls-4" d="M113.71,141.7425a.7.7,0,0,1,.6924-.6924.6491.6491,0,0,1,.6162.6777.6622.6622,0,0,1-.6621.6924A.6777.6777,0,0,1,113.71,141.7425Z"/><path class="cls-4" d="M116.8516,132.9671a1.6712,1.6712,0,0,1-1.3858,1.4932c-.0923,0-.1387-.03-.1387-.0762,0-.0313.0616-.0772.1539-.124a1.2316,1.2316,0,0,0,.8164-1.0313c0-.3076-.1695-.5078-.5855-.6006-.1538-.0459-.3076-.1386-.3076-.3232a.4577.4577,0,0,1,.4619-.4307A1.0278,1.0278,0,0,1,116.8516,132.9671Zm1.9243,0A1.6712,1.6712,0,0,1,117.39,134.46c-.0766,0-.1381-.03-.1381-.0762,0-.0313.0922-.0772.1538-.124a1.2056,1.2056,0,0,0,.8159-1.0157c0-.3232-.1695-.5234-.585-.6162a.36.36,0,0,1-.2925-.3232.452.452,0,0,1,.4771-.4307A1.0235,1.0235,0,0,1,118.7759,132.9671Z"/><path class="cls-4" d="M56.7012,103.3069a7.6247,7.6247,0,0,0,1.1084-.4.6225.6225,0,0,1,.2309-.1075c.0464,0,.0772.0459.0616.2159-.0308.3076-.0308,1.247-.0308,2.2324,0,1.2929,0,2.4326.0308,2.6943.0307.3076.185.3848.4311.4463.1543.03.231.0615.231.123,0,.0772-.1231.1075-.2461.1075-.1387,0-.7085-.0616-1.1241-.0616-.5083,0-.7544.0313-.9238.0313-.1079,0-.2153-.0313-.2153-.0928s.0766-.1074.2925-.1386c.3383-.0918.477-.2149.4926-.8467.0152-.4619.0459-3.2637.0459-3.418,0-.2148-.0151-.3076-.4463-.5391-.0771-.0459-.123-.0918-.123-.123C56.5166,103.3841,56.5625,103.3382,56.7012,103.3069Zm1.5395-2.51a.586.586,0,0,1-.57.5849.548.548,0,0,1-.5078-.5693.57.57,0,0,1,.539-.6A.5627.5627,0,0,1,58.2407,100.7972Z"/><path class="cls-4" d="M64.3994,103.3841a3.2076,3.2076,0,0,1,.4927,2.0166c0,.8164.0156.9394.0156,1.709.0152,1.0469.0615,1.14.4771,1.2471.1386.0615.2309.0927.2309.1542,0,.0928-.123.1075-.2768.1075-.2,0-.647-.0616-.9854-.0616-.5234,0-.7236.0616-.9546.0616-.1386,0-.2466-.03-.2466-.0918s.0928-.1231.2925-.17c.37-.0918.4312-.2.4312-.6465v-2.0938c0-1.2471-.1074-1.6162-.4927-1.9092a1.37,1.37,0,0,0-.8774-.292,1.8391,1.8391,0,0,0-1.2007.4922.798.798,0,0,0-.1851.4619c0,.1846.0156.97.0156,1.8936a12.63,12.63,0,0,0,.0923,1.6172c.0464.3379.231.415.4771.4922.185.0459.2617.0771.2617.1543,0,.0918-.1538.0918-.3076.0918-.1231,0-.878-.0616-1.232-.0616-.2,0-.5234.0313-.8159.0313-.1694,0-.2925-.0313-.2925-.1084,0-.0615.1387-.123.3233-.1533.3848-.0772.4468-.1846.4619-.4932.0308-1.1084.0308-2.5244.0308-3.7715,0-.1543-.0308-.3232-.4-.5234-.0923-.0615-.1231-.0928-.1231-.1387,0-.0312.0772-.0771.2158-.123a5.857,5.857,0,0,0,1.2164-.5235c.0459-.0156.123.0459.1074.1231a7.065,7.065,0,0,0-.0308.8154c0,.0313.0464.0772.0772.0469a5.2782,5.2782,0,0,1,1.0932-.6934,2.09,2.09,0,0,1,.9082-.1845A1.57,1.57,0,0,1,64.3994,103.3841Z"/><path class="cls-4" d="M74.5635,105.7708a2.9485,2.9485,0,0,1-2.9253,2.9707,2.936,2.936,0,0,1-1.8784-5.2344,3.16,3.16,0,0,1,1.8476-.6464A2.89,2.89,0,0,1,74.5635,105.7708ZM69.76,105.555a3.5253,3.5253,0,0,0,.6464,2.1094,1.8307,1.8307,0,0,0,1.4473.8154,1.5187,1.5187,0,0,0,.97-.3848,3.0621,3.0621,0,0,0,.647-2.0625c0-1.4629-.7392-2.91-2.0937-2.91C70.5908,103.1224,69.76,103.9534,69.76,105.555Z"/><path class="cls-4" d="M76.32,108.1419a1.6169,1.6169,0,0,1-.2925-.9394c0-.5079,0-3.11-.0307-3.3721a.5983.5983,0,0,0-.3389-.5078c-.1387-.0928-.1846-.1387-.1846-.1846s.0767-.0771.2461-.0771a5.4272,5.4272,0,0,0,1.2935-.2c.0464-.0157.0923.0771.0771.1689-.0463.8779-.062,2.9717-.0463,3.68a1.7031,1.7031,0,0,0,.2309,1.0166,1.1328,1.1328,0,0,0,.8623.3848,1.7271,1.7271,0,0,0,1.3086-.4922.9447.9447,0,0,0,.2769-.709c.0307-.4151.0307-1.0156.0307-1.57,0-.2305-.0151-.9541-.0151-1.3545-.0156-.5235-.1694-.6006-.6773-.708-.1694-.0313-.2465-.0772-.2465-.1231,0-.0625.1386-.0927.2309-.0927h.6465a8.1127,8.1127,0,0,0,1.0625-.0928c.0464,0,.0772.0615.0615.17-.0771.7236-.1079,2.2627-.1079,4.0488a5.145,5.145,0,0,0,.0308.7852c.0312.1543.0771.1846.2.17a4.2619,4.2619,0,0,1,.6313-.1387.1849.1849,0,0,1,.1851.169c0,.0615-.1387.0928-.293.123a6.9328,6.9328,0,0,0-1.5854.416c-.1236.0616-.1543.0459-.1851,0s-.0308-.123-.0308-.2929c0-.1533.0157-.4922.0157-.6,0-.0469-.0157-.1543-.0464-.1084a4.4475,4.4475,0,0,1-1.062.7548,2.6365,2.6365,0,0,1-.9087.23A1.5139,1.5139,0,0,1,76.32,108.1419Z"/><path class="cls-4" d="M84.0659,103.9847a.8829.8829,0,0,0-.2617.539,8.8807,8.8807,0,0,0-.0151.9385c0,1.14.0307,1.94.0615,2.2637.0615.4775.2461.585.8315.6465.2154.0312.2925.0615.2925.1386s-.1387.1075-.37.1075c-.2925,0-.8008-.0616-1.4473-.0616a8.2687,8.2687,0,0,0-.9389.0928c-.1851,0-.2618-.0312-.2618-.0928,0-.0459.1075-.123.2305-.1533a.6372.6372,0,0,0,.5547-.6318c.0307-.2617.0459-1.1387.0459-2.1553v-1.709c0-.1074-.1079-.1543-.4-.4-.1074-.0771-.1231-.123-.1231-.1543s.0923-.0918.231-.1377a4.6594,4.6594,0,0,0,.9854-.37.4873.4873,0,0,1,.2309-.0771c.0308,0,.0615.0615.0615.2158,0,.17-.0151.7549-.0151,1.001,0,.0459.0308.0615.0767.0156a2.512,2.512,0,0,1,1.663-1.1084.8955.8955,0,0,1,.5386.1992.27.27,0,0,1,.1079.2158,1.0484,1.0484,0,0,1-.3388.5235c-.1382.123-.2.1387-.2461.1387a.7013.7013,0,0,1-.2774-.1075,1.07,1.07,0,0,0-.5385-.1845A1.0529,1.0529,0,0,0,84.0659,103.9847Z"/><path class="cls-4" d="M88.917,98.8426c.354.0151,1.2934.0615,1.7861.0615.0615,0,.1382.0615.2.2153.6616,1.4629,2.8325,5.7735,3.8028,7.59.0459.0928.0766.0312.1386-.0615.9082-1.7393,2.8633-5.542,3.2329-6.2964a12.9047,12.9047,0,0,0,.462-1.2471c.0156-.0308.0771-.2.1538-.2.4311,0,1.247-.0923,1.6782-.0923.1543,0,.2466.0308.2466.0923s-.1231.1231-.231.1387c-.9087.2153-.97.3848-1.0161,1.293-.0308.5229-.0464,2.3706-.0464,3.1411,0,1.6777.0615,3.2021.0923,3.6943.0615.8936.2309,1.0322.8315,1.2168.1387.0459.2466.0918.2466.1689,0,.0616-.0928.0928-.2773.0928-.2925,0-1.124-.0928-1.54-.0928-.6313,0-1.0469.0313-1.2778.0313-.1543,0-.3233-.0156-.3233-.1231,0-.0615.1539-.123.3077-.1386.6469-.17.7544-.416.8007-1.6934.0459-.832.0459-4.958.0459-5.65,0-.1543-.0459-.1543-.0766-.0615-1.0318,2.0625-2.9253,5.7578-3.6646,7.4053-.0766.1845-.1381.2773-.2309.2773-.0767,0-.1846-.247-.3233-.539-.7236-1.5557-2.771-5.835-3.3564-7.02-.0767-.1387-.1074-.1387-.1382.0761-.0615.8936-.231,4.8809-.231,5.5127a3.8629,3.8629,0,0,0,.0923,1.1231.9022.9022,0,0,0,.7852.6162c.1694.0312.2617.0927.2617.1543,0,.0918-.1387.123-.3081.1074-.1846-.0156-.7388-.0772-1.293-.0772s-.97.0928-1.124.0928c-.2,0-.2773-.0312-.2773-.1084,0-.0459.062-.1074.2773-.1533a1.1567,1.1567,0,0,0,.8316-.4932,4.3983,4.3983,0,0,0,.3232-1.6621c.0923-.9092.3076-4.3261.3076-5.3115,0-.9238-.0923-1.14-.354-1.4473a1.3105,1.3105,0,0,0-.8467-.4c-.1386-.0307-.2466-.0922-.2466-.1542S88.7783,98.827,88.917,98.8426Z"/><path class="cls-4" d="M110.2129,99.3812a.2739.2739,0,0,1,.1543.2617,11.7854,11.7854,0,0,0,.0459,1.1855c0,.1543-.0615.2461-.0923.2461-.0615,0-.1079-.0771-.1387-.2a2.4046,2.4046,0,0,0-.7387-1.2314,3.53,3.53,0,0,0-2.356-.7695,3.7145,3.7145,0,0,0-2.6787,1.2006,5.5587,5.5587,0,0,0-1.17,3.5718,5.8336,5.8336,0,0,0,1.4165,3.7256,3.6741,3.6741,0,0,0,2.6323,1.14,3.269,3.269,0,0,0,1.8325-.4306,2.76,2.76,0,0,0,1.1856-1.51c.0615-.1992.0922-.2617.1538-.2617s.0923.1387.0923.2314a10.9058,10.9058,0,0,1-.2154,1.2159.41.41,0,0,1-.1543.2314,5.5847,5.5847,0,0,1-3.0019.8467,5.3,5.3,0,0,1-4.003-1.6318,5.3838,5.3838,0,0,1-1.2934-3.4024,4.91,4.91,0,0,1,1.7241-3.8955,5.5357,5.5357,0,0,1,3.5874-1.2778A7.1109,7.1109,0,0,1,110.2129,99.3812Z"/><path class="cls-4" d="M111.94,98.827c.4775,0,.97.0771,1.3857.0771.477,0,.9082-.0615,1.2622-.0615.1851,0,.2466.0308.2466.0767,0,.0771-.0923.1235-.2153.1542-.6314.1231-.6622.2154-.7085,1.2779-.0152.2617-.0308,1.6782-.0308,3.0786,0,1.4629.0156,3.0029.0308,3.2949a2.8509,2.8509,0,0,0,.2158,1.2168c.1689.2305.5849.3848,1.832.3848a6.7519,6.7519,0,0,0,1.3545-.0772c.3389-.0615.6777-.4463.9854-1.0009.1079-.1846.185-.2461.2465-.2461s.0464.23-.0307.4306c-.0464.1231-.3389.9707-.4,1.0781a.3666.3666,0,0,1-.3233.1543c-.1538,0-1.3242.0147-2.0786-.0312-.7695-.03-1.8784-.0772-2.417-.0772-.4775,0-1.17.0772-1.3857.0772-.1846,0-.3233-.0156-.3233-.1074,0-.0616.1387-.1084.2769-.1231.6621-.124.7544-.3388.8008-.8164.0615-.6162.0615-1.6318.0615-3.7568,0-2.0938-.0151-3.1563-.0459-3.6792-.0464-.8775-.0928-.97-.7544-1.0933-.185-.0307-.2309-.0766-.2309-.1386C111.6934,98.8734,111.7856,98.827,111.94,98.827Z"/><path class="cls-4" d="M123.12,103.015c.1382,0,.2617.03.2617.1074,0,.0459-.1542.1074-.2617.123-.37.0615-.3545.2-.2925.4463.23.709.8926,2.4639,1.2471,3.3262.0152.0459.0767.0615.0923.0146.2461-.5234.9238-2.0166,1.0776-2.417.0152-.0771.0616-.1845.0308-.2617-.0771-.2-.1846-.4463-.2617-.6308a.8183.8183,0,0,0-.585-.5079c-.1386-.0312-.2158-.0615-.2158-.124s.0772-.0918.231-.0918c.3232,0,.7236.0459,1.0468.0459.4468,0,.6314-.03.9087-.03.1695,0,.231.03.231.0761,0,.0625-.1079.124-.231.1543-.354.0772-.4468.1387-.2617.6162.1694.4766.9854,2.709,1.2007,3.1866.0464.0771.0771.0156.0771,0,.1846-.4.9239-2.1553,1.1084-2.6788a3.511,3.511,0,0,0,.2466-.7392c0-.1387-.062-.2774-.4619-.3848-.2-.0615-.2466-.1074-.2466-.1543,0-.0615.0923-.0918.2-.0918.2617,0,.5391.0459.7852.0459.1538,0,.539-.0459.77-.0459.1382,0,.2153.03.2153.0918s-.0459.0928-.2768.1543c-.2774.0772-.4619.293-.6621.708-.2774.5547-.7393,1.6172-1.2163,2.71-.2618.6309-.5391,1.3086-.7237,1.8017-.0923.2461-.1543.292-.2.292-.0615,0-.1079-.0615-.1694-.2773-.0772-.2148-.1846-.5234-.37-1.0469-.2925-.831-.6158-1.709-.9239-2.5244-.0151-.0459-.0459-.0771-.0766,0-.1387.292-.7852,1.709-1.001,2.2481-.231.5078-.37.8613-.5386,1.3085-.0771.2149-.1543.292-.2158.292s-.1079-.1074-.1538-.2773c-.0772-.2148-.1694-.585-.4312-1.3232-.2773-.7549-1.1547-3.0332-1.3242-3.3262a.88.88,0,0,0-.6772-.6006c-.1231-.03-.2154-.0762-.2154-.123,0-.0918.1075-.1231.2769-.1231.2,0,.6621.0615,1.0933.0615C122.5034,103.0452,122.8115,103.015,123.12,103.015Z"/><path class="cls-4" d="M133.8525,103.6458a3.7188,3.7188,0,0,1,.2159,1.4014c0,.5693-.0464,2.0322-.0464,2.4326a.5278.5278,0,0,0,.57.585.9865.9865,0,0,0,.4463-.1387c.0923-.0459.1538,0,.0923.1387a1.298,1.298,0,0,1-1.1856.6621,1.0337,1.0337,0,0,1-.9082-.6934.0547.0547,0,0,0-.0771-.0156,2.1525,2.1525,0,0,1-1.5088.6933,1.2772,1.2772,0,0,1-1.2315-1.3242,1.0865,1.0865,0,0,1,.5542-.8779c.37-.2,1.77-.6152,2.0938-.7383a.293.293,0,0,0,.2-.2314,5.2284,5.2284,0,0,0,.0307-.708c0-.6309-.1079-1.0625-.37-1.2627a1.177,1.177,0,0,0-.6465-.2461,1.06,1.06,0,0,0-.6157.1845.6155.6155,0,0,0-.2309.37,1.5532,1.5532,0,0,0-.0157.292.1893.1893,0,0,1-.0615.123,3.2937,3.2937,0,0,1-.7236.3389c-.0767.0156-.1538-.0772-.1538-.1387,0-.1074.1079-.2461.2924-.4619a3.9879,3.9879,0,0,1,1.17-.8926,2.0693,2.0693,0,0,1,.9238-.2773A1.2612,1.2612,0,0,1,133.8525,103.6458Zm-1.0312,4.2344a.636.636,0,0,0,.1689-.37,10.9868,10.9868,0,0,0,.0772-1.4629c0-.0147-.0308-.0918-.0615-.0762a8.567,8.567,0,0,0-1.4165.5234.7962.7962,0,0,0-.3848.77.8944.8944,0,0,0,.9238.8623A1.0594,1.0594,0,0,0,132.8213,107.88Z"/><path class="cls-4" d="M136.1787,107.9876a1.7327,1.7327,0,0,1-.185-.8779v-3.1865c0-.17-.0152-.2774-.0767-.3086a2.5352,2.5352,0,0,0-.37-.0918c-.1231-.0313-.2-.0772-.2-.1387,0-.0313.0156-.0772.185-.1543a3.2787,3.2787,0,0,0,1.2622-1.0313c.1387-.1542.2466-.123.2466-.0459,0,.1387-.0307.5694-.0156.754,0,.0468.0156.1386.0771.1386.2769,0,1.5547-.0459,1.8785-.0459.0307,0,.0922.1075.0922.2158,0,.2618-.0771.3848-.1543.3848-.5385,0-1.2929-.0156-1.7089-.0156-.1846,0-.2154.0459-.2154.1387,0,.2617.0157,2.6787.0308,3.1562a1.5772,1.5772,0,0,0,.1694.8311,1.1374,1.1374,0,0,0,.9546.416,1.5007,1.5007,0,0,0,.8467-.2315c.1079-.0761.1538-.0615.1538,0,0,.0928-.1382.2471-.3384.4a2.1133,2.1133,0,0,1-1.247.4A1.427,1.427,0,0,1,136.1787,107.9876Z"/><path class="cls-4" d="M144.2012,104.431a.1805.1805,0,0,1-.1543.1689c-.1231-.0146-2.1245-.0459-2.4785-.0459h-.8316c-.0307,0-.1079.0772-.1387.1231a2.129,2.129,0,0,0-.123.8466,2.7617,2.7617,0,0,0,.708,1.8633,2.08,2.08,0,0,0,1.54.6309,1.9638,1.9638,0,0,0,1.4624-.4922c.1231-.1231.1846-.0928.1846-.0156a.583.583,0,0,1-.1538.2461,2.721,2.721,0,0,1-2.14.9707,2.4876,2.4876,0,0,1-1.8321-.7852,3.0124,3.0124,0,0,1-.7387-2.0635,3.2108,3.2108,0,0,1,.8925-2.248,2.8654,2.8654,0,0,1,1.9249-.77A1.7765,1.7765,0,0,1,144.2012,104.431Zm-3.1411-.7852a1.3546,1.3546,0,0,0-.3233.6309.0658.0658,0,0,0,.0615.0615l2.0015-.0147c.3389,0,.37-.17.37-.3085a.9926.9926,0,0,0-.2153-.6465,1.0811,1.0811,0,0,0-.77-.292A1.5969,1.5969,0,0,0,141.06,103.6458Z"/><path class="cls-4" d="M146.9272,103.9847a.8835.8835,0,0,0-.2617.539,8.9078,8.9078,0,0,0-.0151.9385c0,1.14.0308,1.94.0615,2.2637.0615.4775.2461.585.8316.6465.2153.0312.2924.0615.2924.1386s-.1386.1075-.37.1075c-.2925,0-.8008-.0616-1.4473-.0616a8.2687,8.2687,0,0,0-.9389.0928c-.1851,0-.2617-.0312-.2617-.0928,0-.0459.1074-.123.23-.1533a.6371.6371,0,0,0,.5547-.6318c.0308-.2617.0459-1.1387.0459-2.1553v-1.709c0-.1074-.1079-.1543-.4-.4-.1074-.0771-.123-.123-.123-.1543s.0923-.0918.2309-.1377a4.6594,4.6594,0,0,0,.9854-.37.4876.4876,0,0,1,.2309-.0771c.0308,0,.0616.0615.0616.2158,0,.17-.0152.7549-.0152,1.001,0,.0459.0308.0615.0767.0156a2.5122,2.5122,0,0,1,1.6631-1.1084.8954.8954,0,0,1,.5385.1992.27.27,0,0,1,.108.2158,1.0481,1.0481,0,0,1-.3389.5235c-.1382.123-.2.1387-.2461.1387a.7006.7006,0,0,1-.2773-.1075,1.0709,1.0709,0,0,0-.5386-.1845A1.0529,1.0529,0,0,0,146.9272,103.9847Z"/><path class="cls-4" d="M57.2861,124.7884a1.7352,1.7352,0,0,1-.185-.8779v-3.1866c0-.17-.0152-.2773-.0767-.3086a2.5582,2.5582,0,0,0-.37-.0918c-.1231-.0312-.2-.0771-.2-.1386,0-.0313.0156-.0772.185-.1543a3.28,3.28,0,0,0,1.2623-1.0313c.1386-.1543.2465-.123.2465-.0459,0,.1377-.0307.5694-.0156.7539,0,.0459.0156.1387.0772.1387.2768,0,1.5546-.0459,1.8784-.0459.0307,0,.0923.1074.0923.2149,0,.2617-.0772.3847-.1543.3847-.5386,0-1.293-.0146-1.709-.0146-.1846,0-.2153.0459-.2153.1386,0,.2618.0156,2.6788.0307,3.1563a1.5765,1.5765,0,0,0,.1694.831,1.14,1.14,0,0,0,.9546.4161,1.5007,1.5007,0,0,0,.8467-.2315c.1079-.0771.1538-.0615.1538,0,0,.0928-.1382.2461-.3384.4a2.1133,2.1133,0,0,1-1.247.4A1.4271,1.4271,0,0,1,57.2861,124.7884Z"/><path class="cls-4" d="M65.3091,121.2318a.1805.1805,0,0,1-.1543.1689c-.1231-.0156-2.1245-.0459-2.4785-.0459h-.8316c-.0307,0-.1079.0771-.1386.123a2.1242,2.1242,0,0,0-.1231.8467,2.7617,2.7617,0,0,0,.708,1.8633,2.08,2.08,0,0,0,1.54.6309,1.9681,1.9681,0,0,0,1.4624-.4922c.123-.1231.1845-.0928.1845-.0156a.5823.5823,0,0,1-.1538.246,2.72,2.72,0,0,1-2.14.97,2.4835,2.4835,0,0,1-1.832-.7852,3.0075,3.0075,0,0,1-.7388-2.0625,3.2089,3.2089,0,0,1,.8926-2.248,2.865,2.865,0,0,1,1.9248-.77A1.7766,1.7766,0,0,1,65.3091,121.2318Zm-3.1411-.7852a1.35,1.35,0,0,0-.3233.6309.0658.0658,0,0,0,.0615.0615l2.0015-.0156c.3389,0,.37-.169.37-.3077a.9919.9919,0,0,0-.2153-.6464,1.0775,1.0775,0,0,0-.77-.293A1.5983,1.5983,0,0,0,62.168,120.4466Z"/><path class="cls-4" d="M67.3115,120.847c0,.6465.585,1.0156.97,1.2471,1.001.6464,1.4009,1.0312,1.4009,1.8164a1.58,1.58,0,0,1-.8,1.2929,2.5552,2.5552,0,0,1-1.2319.3389,3.1249,3.1249,0,0,1-1.2163-.2773c-.1231-.0459-.231-.1534-.231-.2461,0-.2159-.0307-.6006-.0459-.77-.0307-.2.0152-.2461.0459-.2461.0464,0,.0928,0,.2.292a1.5062,1.5062,0,0,0,.647.8321,1.1828,1.1828,0,0,0,.6929.1845,1.0558,1.0558,0,0,0,1.0005-1.0322c0-.585-.4-.9082-1.0161-1.293-.6622-.4306-1.2779-1.0009-1.2779-1.6777a1.4594,1.4594,0,0,1,.585-1.2168,1.9935,1.9935,0,0,1,1.2934-.4307,3.7739,3.7739,0,0,1,1.0469.169.2522.2522,0,0,1,.0767.1387c.0156.1689.0771.4775.0927.7236,0,.1689-.0307.2461-.0771.2461-.0615,0-.0923-.0772-.1387-.1846a1.1685,1.1685,0,0,0-.3691-.6308,1.2651,1.2651,0,0,0-.7236-.2315A.8973.8973,0,0,0,67.3115,120.847Z"/><path class="cls-4" d="M71.2847,124.7884a1.7341,1.7341,0,0,1-.1851-.8779v-3.1866c0-.17-.0151-.2773-.0767-.3086a2.5582,2.5582,0,0,0-.37-.0918c-.123-.0312-.2-.0771-.2-.1386,0-.0313.0157-.0772.1851-.1543A3.2794,3.2794,0,0,0,71.9,118.9993c.1387-.1543.2466-.123.2466-.0459,0,.1377-.0308.5694-.0157.7539,0,.0459.0157.1387.0772.1387.2769,0,1.5547-.0459,1.8784-.0459.0308,0,.0923.1074.0923.2149,0,.2617-.0771.3847-.1543.3847-.5386,0-1.293-.0146-1.709-.0146-.1846,0-.2153.0459-.2153.1386,0,.2618.0156,2.6788.0307,3.1563a1.5762,1.5762,0,0,0,.1695.831,1.14,1.14,0,0,0,.9546.4161,1.501,1.501,0,0,0,.8467-.2315c.1079-.0771.1538-.0615.1538,0,0,.0928-.1382.2461-.3384.4a2.1136,2.1136,0,0,1-1.2471.4A1.4268,1.4268,0,0,1,71.2847,124.7884Z"/><path class="cls-4" d="M75.9663,120.847c0,.6465.585,1.0156.97,1.2471,1.001.6464,1.4009,1.0312,1.4009,1.8164a1.58,1.58,0,0,1-.8,1.2929,2.5552,2.5552,0,0,1-1.2319.3389,3.1249,3.1249,0,0,1-1.2163-.2773c-.1231-.0459-.231-.1534-.231-.2461,0-.2159-.0307-.6006-.0459-.77-.0307-.2.0152-.2461.0459-.2461.0464,0,.0928,0,.2.292a1.5058,1.5058,0,0,0,.647.8321,1.1826,1.1826,0,0,0,.6929.1845,1.0557,1.0557,0,0,0,1-1.0322c0-.585-.4-.9082-1.0161-1.293-.6621-.4306-1.2778-1.0009-1.2778-1.6777a1.4594,1.4594,0,0,1,.585-1.2168,1.9935,1.9935,0,0,1,1.2934-.4307,3.7753,3.7753,0,0,1,1.0469.169.2528.2528,0,0,1,.0771.1387c.0152.1689.0767.4775.0923.7236,0,.1689-.0307.2461-.0771.2461-.0615,0-.0923-.0772-.1387-.1846a1.1676,1.1676,0,0,0-.37-.6308,1.2625,1.2625,0,0,0-.7232-.2315A.8972.8972,0,0,0,75.9663,120.847Z"/><path class="cls-4" d="M80.709,125.2806a1.6205,1.6205,0,0,1-1.3394,1.5088c-.0923.0156-.1694,0-.1694-.0459s.0615-.0772.1387-.1075a1.1743,1.1743,0,0,0,.8159-1.0625.4535.4535,0,0,0-.4-.4619c-.2617-.0615-.4927-.1386-.4927-.4775a.543.543,0,0,1,.5547-.5078C80.2935,124.1263,80.709,124.5726,80.709,125.2806Z"/><path class="cls-4" d="M84.5435,124.7884a1.7341,1.7341,0,0,1-.1851-.8779v-3.1866c0-.17-.0151-.2773-.0767-.3086a2.5582,2.5582,0,0,0-.37-.0918c-.123-.0312-.2-.0771-.2-.1386,0-.0313.0156-.0772.1851-.1543a3.2794,3.2794,0,0,0,1.2622-1.0313c.1387-.1543.2466-.123.2466-.0459,0,.1377-.0308.5694-.0157.7539,0,.0459.0157.1387.0772.1387.2768,0,1.5547-.0459,1.8784-.0459.0308,0,.0923.1074.0923.2149,0,.2617-.0772.3847-.1543.3847-.5386,0-1.293-.0146-1.709-.0146-.1846,0-.2153.0459-.2153.1386,0,.2618.0156,2.6788.0307,3.1563a1.5762,1.5762,0,0,0,.1695.831,1.14,1.14,0,0,0,.9546.4161,1.5,1.5,0,0,0,.8466-.2315c.108-.0771.1538-.0615.1538,0,0,.0928-.1381.2461-.3383.4a2.1136,2.1136,0,0,1-1.2471.4A1.4268,1.4268,0,0,1,84.5435,124.7884Z"/><path class="cls-4" d="M89.6865,120.77a.7757.7757,0,0,0-.1538.5694,30.5186,30.5186,0,0,0,.0772,3.31.5438.5438,0,0,0,.4926.5235c.231.0459.3384.0771.3384.1533,0,.0469-.0923.0928-.2309.0928-.4307,0-.8311-.0616-1.2779-.0616-.477,0-.708.0616-1.0005.0616-.1694,0-.2465-.03-.2465-.0928s.0615-.0918.2465-.1377c.4463-.1084.5542-.1543.5694-.7393.0464-.6162.062-2.0322.062-4.48,0-2.3252.0308-3.2647,0-3.85-.0156-.4921-.1235-.538-.4619-.7236-.062-.0459-.1079-.0762-.1079-.123s.0922-.0918.2617-.1387a6.384,6.384,0,0,0,1.124-.3691.338.338,0,0,1,.1538-.0616c.0464,0,.0923.1075.0772.3233-.0157.416-.0772,5.1884-.0616,5.4814,0,.0615.0459.0772.0616.0459a5.0466,5.0466,0,0,1,.9238-.6308,2.4118,2.4118,0,0,1,1.0776-.2618,1.64,1.64,0,0,1,1.3858.6924,2.9712,2.9712,0,0,1,.3383,1.6475c.0157,1.1553.0157,2.1094.0308,2.6943,0,.3076.0615.416.5234.4932.2.0459.2466.0762.2466.1377s-.1079.1084-.2466.1084c-.4,0-.6928-.0772-1.1084-.0772-.5234,0-.6464.0616-1,.0616-.1851,0-.2466-.0459-.2466-.0928,0-.0615.0771-.0918.2309-.1231.4156-.0918.4463-.2.5083-.6465.0308-.3535.0616-1.0312.0616-2.6328a2.4667,2.4667,0,0,0-.231-1.1543,1.1523,1.1523,0,0,0-1.0625-.5693A1.8607,1.8607,0,0,0,89.6865,120.77Z"/><path class="cls-4" d="M98.3564,120.4466a3.7133,3.7133,0,0,1,.2159,1.4c0,.57-.0464,2.0322-.0464,2.4326a.5281.5281,0,0,0,.57.5859.9859.9859,0,0,0,.4463-.1386c.0923-.0469.1538,0,.0923.1386a1.2971,1.2971,0,0,1-1.1856.6612,1.0328,1.0328,0,0,1-.9082-.6924.0531.0531,0,0,0-.0771-.0156,2.1525,2.1525,0,0,1-1.5088.6933,1.2772,1.2772,0,0,1-1.2315-1.3242,1.0848,1.0848,0,0,1,.5542-.8779c.37-.2,1.7706-.6153,2.0938-.7393a.2907.2907,0,0,0,.2-.23,5.2175,5.2175,0,0,0,.0308-.708c0-.6318-.108-1.0625-.37-1.2627a1.17,1.17,0,0,0-.6465-.246,1.06,1.06,0,0,0-.6157.1845.6131.6131,0,0,0-.2309.3692,1.5585,1.5585,0,0,0-.0157.2929.1916.1916,0,0,1-.0615.1231,3.3349,3.3349,0,0,1-.7236.3388c-.0767.0157-.1538-.0771-.1538-.1386,0-.1074.1079-.2461.2924-.4619a4.0119,4.0119,0,0,1,1.17-.8936,2.0665,2.0665,0,0,1,.9238-.2764A1.2613,1.2613,0,0,1,98.3564,120.4466ZM97.3252,124.68a.6359.6359,0,0,0,.1689-.3691,10.9989,10.9989,0,0,0,.0772-1.4629c0-.0157-.0308-.0918-.0615-.0772a8.7446,8.7446,0,0,0-1.4165.5235.7977.7977,0,0,0-.3848.77.8944.8944,0,0,0,.9238.8623A1.0548,1.0548,0,0,0,97.3252,124.68Z"/><path class="cls-4" d="M100.6826,124.7884a1.7352,1.7352,0,0,1-.185-.8779v-3.1866c0-.17-.0152-.2773-.0767-.3086a2.5617,2.5617,0,0,0-.37-.0918c-.1231-.0312-.2-.0771-.2-.1386,0-.0313.0156-.0772.185-.1543a3.2787,3.2787,0,0,0,1.2622-1.0313c.1387-.1543.2466-.123.2466-.0459,0,.1377-.0307.5694-.0156.7539,0,.0459.0156.1387.0771.1387.2769,0,1.5547-.0459,1.8785-.0459.0307,0,.0922.1074.0922.2149,0,.2617-.0771.3847-.1542.3847-.5386,0-1.293-.0146-1.709-.0146-.1846,0-.2154.0459-.2154.1386,0,.2618.0157,2.6788.0308,3.1563a1.5765,1.5765,0,0,0,.1694.831,1.14,1.14,0,0,0,.9546.4161,1.5007,1.5007,0,0,0,.8467-.2315c.1079-.0771.1538-.0615.1538,0,0,.0928-.1382.2461-.3384.4a2.1133,2.1133,0,0,1-1.247.4A1.427,1.427,0,0,1,100.6826,124.7884Z"/><path class="cls-4" d="M111.5845,120.431a2.6776,2.6776,0,0,1,.6313,1.7861,3.1526,3.1526,0,0,1-2.063,3.0635,2.6761,2.6761,0,0,1-1.1084.2314,3.4661,3.4661,0,0,1-.893-.123c-.0616-.0156-.1231.0761-.1387.1377a21.2889,21.2889,0,0,0-.0151,2.2793,4.9282,4.9282,0,0,0,.1074,1.2314c.0923.293.3545.3692.77.4307.1387.0469.2153.0771.2153.1387s-.1074.1083-.3076.1083c-.2309,0-.77-.0615-1.3242-.0615-.5083,0-1.001.1074-1.1856.1074s-.2768-.0459-.2768-.0927c0-.0615.0615-.1074.2925-.1533.5385-.1543.6308-.3389.6616-.7081.0156-.2626.0464-.9238.0464-2.1093,0-1.57-.0308-4.9121-.0464-5.3125-.0308-.6309-.0308-.7237-.3848-.9229-.0923-.0469-.1538-.0928-.1538-.1387,0-.0615.0772-.1084.2-.1386a7.722,7.722,0,0,0,1.1392-.5391.4191.4191,0,0,1,.2309-.1074c.0308,0,.0616.0459.0616.1377,0,.0771-.0308.5244-.0308.6621,0,.0312.0308.0928.0771.0469a3.0181,3.0181,0,0,1,1.8785-.709A2.2681,2.2681,0,0,1,111.5845,120.431ZM110.353,124.88a2.821,2.821,0,0,0,.8623-2.2168,2.7734,2.7734,0,0,0-.7392-1.9707,1.6541,1.6541,0,0,0-1.1856-.4619,1.9968,1.9968,0,0,0-1.124.3076c-.1074.0771-.1538.123-.1689.3389-.0464.3847-.0308,2.8173,0,3.1406a1.2031,1.2031,0,0,0,.123.3857,1.7229,1.7229,0,0,0,1.4932.7539A1.139,1.139,0,0,0,110.353,124.88Z"/><path class="cls-4" d="M119.146,122.5706a2.9487,2.9487,0,0,1-2.9253,2.9717,2.936,2.936,0,0,1-1.8784-5.2344,3.16,3.16,0,0,1,1.8476-.6465A2.8891,2.8891,0,0,1,119.146,122.5706Zm-4.8037-.2148a3.5262,3.5262,0,0,0,.6465,2.1093,1.83,1.83,0,0,0,1.4472.8155,1.5212,1.5212,0,0,0,.97-.3848,3.0687,3.0687,0,0,0,.6465-2.0635c0-1.4619-.7392-2.9091-2.0937-2.9091C115.1733,119.9232,114.3423,120.7542,114.3423,122.3558Z"/><path class="cls-4" d="M121.21,120.847c0,.6465.585,1.0156.97,1.2471,1.001.6464,1.4009,1.0312,1.4009,1.8164a1.58,1.58,0,0,1-.8,1.2929,2.5556,2.5556,0,0,1-1.232.3389,3.1249,3.1249,0,0,1-1.2163-.2773c-.123-.0459-.2309-.1534-.2309-.2461,0-.2159-.0308-.6006-.0459-.77-.0308-.2.0151-.2461.0459-.2461.0463,0,.0927,0,.2.292a1.5057,1.5057,0,0,0,.6469.8321,1.1828,1.1828,0,0,0,.6929.1845,1.0557,1.0557,0,0,0,1.0005-1.0322c0-.585-.4-.9082-1.0161-1.293-.6621-.4306-1.2779-1.0009-1.2779-1.6777a1.4594,1.4594,0,0,1,.585-1.2168,1.9936,1.9936,0,0,1,1.2935-.4307,3.7738,3.7738,0,0,1,1.0468.169.253.253,0,0,1,.0772.1387c.0151.1689.0766.4775.0923.7236,0,.1689-.0308.2461-.0772.2461-.0615,0-.0923-.0772-.1386-.1846a1.1671,1.1671,0,0,0-.37-.6308,1.2619,1.2619,0,0,0-.7231-.2315A.8973.8973,0,0,0,121.21,120.847Z"/><path class="cls-4" d="M129.2944,121.2318a.18.18,0,0,1-.1543.1689c-.123-.0156-2.1245-.0459-2.4785-.0459H125.83c-.0308,0-.1079.0771-.1387.123a2.1246,2.1246,0,0,0-.123.8467,2.7617,2.7617,0,0,0,.708,1.8633,2.08,2.08,0,0,0,1.54.6309,1.9678,1.9678,0,0,0,1.4624-.4922c.1231-.1231.1846-.0928.1846-.0156a.5823.5823,0,0,1-.1538.246,2.72,2.72,0,0,1-2.14.97,2.4837,2.4837,0,0,1-1.832-.7852,3.008,3.008,0,0,1-.7388-2.0625,3.2089,3.2089,0,0,1,.8926-2.248,2.865,2.865,0,0,1,1.9248-.77A1.7766,1.7766,0,0,1,129.2944,121.2318Zm-3.1411-.7852a1.3508,1.3508,0,0,0-.3232.6309.0657.0657,0,0,0,.0615.0615l2.0015-.0156c.3388,0,.37-.169.37-.3077a.9925.9925,0,0,0-.2153-.6464,1.0778,1.0778,0,0,0-.77-.293A1.5986,1.5986,0,0,0,126.1533,120.4466Z"/></svg>