<svg id="Layer_1" data-name="Layer 1" xmlns="http://www.w3.org/2000/svg" width="140.7583mm" height="70.5556mm" viewBox="0 0 398.9999 200.0001">
  <line x1="198.2372" y1="118.5363" x2="192.8331" y2="113.4332" style="fill: none;stroke: #222f3c;stroke-linecap: round;stroke-linejoin: round;stroke-width: 0.5px"/>
  <path d="M200.429,118.5662l5.1462-5.45-6.1337-6.1338h0a.0644.0644,0,0,0-.0741-.0147h-.0009a.062.062,0,0,0-.0409.0629v10.4328" style="fill: none;stroke: #222f3c;stroke-linecap: round;stroke-linejoin: round;stroke-width: 0.5px"/>
  <path d="M199.31,117.4638V113.55a.0663.0663,0,0,0-.02-.0459l.0006-.0006a.0732.0732,0,0,0-.05-.0212l-6.408-.0486" style="fill: none;stroke: #222f3c;stroke-linecap: round;stroke-linejoin: round;stroke-width: 0.5px"/>
  <path d="M201.4594,119.6393h3.9888a.0677.0677,0,0,0,.046-.02h.0006a.0719.0719,0,0,0,.021-.0493l.0488-6.4277-5.1282,5.43" style="fill: none;stroke: #222f3c;stroke-linecap: round;stroke-linejoin: round;stroke-width: 0.5px"/>
  <line x1="192.8148" y1="113.4344" x2="192.816" y2="113.4331" style="fill: none;stroke: #222f3c;stroke-linecap: round;stroke-linejoin: round;stroke-width: 0.5px"/>
  <path d="M192.8148,113.4344l-6.12,6.12h0a.0691.0691,0,0,0-.0193.0336.0711.0711,0,0,0,.0044.04v.001a.0618.0618,0,0,0,.0631.0408h10.4642" style="fill: none;stroke: #222f3c;stroke-linecap: round;stroke-linejoin: round;stroke-width: 0.5px"/>
  <polyline points="192.814 113.435 192.813 113.433 192.816 113.433" style="fill: none;stroke: #222f3c;stroke-linecap: round;stroke-linejoin: round;stroke-width: 0.5px"/>
  <line x1="192.8148" y1="113.4344" x2="198.2278" y2="118.5458" style="fill: none;stroke: #222f3c;stroke-linecap: round;stroke-linejoin: round;stroke-width: 0.5px"/>
  <polyline points="192.833 113.433 192.825 113.425 192.816 113.433" style="fill: none;stroke: #222f3c;stroke-linecap: round;stroke-linejoin: round;stroke-width: 0.5px"/>
  <line x1="192.8331" y1="113.4332" x2="192.816" y2="113.4331" style="fill: none;stroke: #222f3c;stroke-linecap: round;stroke-linejoin: round;stroke-width: 0.5px"/>
  <line x1="200.361" y1="120.7377" x2="205.8053" y2="125.8788" style="fill: none;stroke: #222f3c;stroke-linecap: round;stroke-linejoin: round;stroke-width: 0.5px"/>
  <path d="M198.2455,120.7077l-5.1822,5.488,6.1337,6.1338h0a.0648.0648,0,0,0,.0741.0147h.0009c.0137-.0056.0241,17.4784.031,17.4681s.01-17.5151.01-17.531V121.7746" style="fill: none;stroke: #222f3c;stroke-linecap: round;stroke-linejoin: round;stroke-width: 0.5px"/>
  <path d="M199.3284,121.77v3.9925a.0651.0651,0,0,0,.02.0458v.0007a.0733.0733,0,0,0,.0494.0212l6.4081.0486" style="fill: none;stroke: #222f3c;stroke-linecap: round;stroke-linejoin: round;stroke-width: 0.5px"/>
  <path d="M198.2381,120.7l-5.1643,5.4686.0489-6.4277a.0719.0719,0,0,1,.021-.0493h0a.0668.0668,0,0,1,.0461-.02h4.02" style="fill: none;stroke: #222f3c;stroke-linecap: round;stroke-linejoin: round;stroke-width: 0.5px"/>
  <line x1="205.8237" y1="125.8777" x2="205.8225" y2="125.8789" style="fill: none;stroke: #222f3c;stroke-linecap: round;stroke-linejoin: round;stroke-width: 0.5px"/>
  <path d="M205.8237,125.8777l6.12-6.12h0a.0691.0691,0,0,0,.0193-.0336.0711.0711,0,0,0-.0045-.04v-.001a.0617.0617,0,0,0-.063-.0408H201.4564" style="fill: none;stroke: #222f3c;stroke-linecap: round;stroke-linejoin: round;stroke-width: 0.5px"/>
  <polyline points="205.823 125.878 205.826 125.879 205.822 125.879" style="fill: none;stroke: #222f3c;stroke-linecap: round;stroke-linejoin: round;stroke-width: 0.5px"/>
  <line x1="205.8237" y1="125.8777" x2="200.3705" y2="120.7281" style="fill: none;stroke: #222f3c;stroke-linecap: round;stroke-linejoin: round;stroke-width: 0.5px"/>
  <polyline points="205.805 125.879 205.814 125.887 205.822 125.879" style="fill: none;stroke: #222f3c;stroke-linecap: round;stroke-linejoin: round;stroke-width: 0.5px"/>
  <line x1="205.8053" y1="125.8788" x2="205.8225" y2="125.8789" style="fill: none;stroke: #222f3c;stroke-linecap: round;stroke-linejoin: round;stroke-width: 0.5px"/>
  <line x1="198.2455" y1="120.7077" x2="198.2381" y2="120.7004" style="fill: none;stroke: #222f3c;stroke-linecap: round;stroke-linejoin: round;stroke-width: 0.5px"/>
  <line x1="198.2372" y1="118.5363" x2="198.2278" y2="118.5458" style="fill: none;stroke: #222f3c;stroke-linecap: round;stroke-linejoin: round;stroke-width: 0.5px"/>
  <line x1="198.2381" y1="120.7004" x2="197.2105" y2="119.6728" style="fill: none;stroke: #222f3c;stroke-linecap: round;stroke-linejoin: round;stroke-width: 0.5px"/>
  <line x1="197.2071" y1="119.6694" x2="197.2105" y2="119.6728" style="fill: none;stroke: #222f3c;stroke-linecap: round;stroke-linejoin: round;stroke-width: 0.5px"/>
  <polyline points="201.46 119.639 201.481 119.618 200.436 118.573" style="fill: none;stroke: #222f3c;stroke-linecap: round;stroke-linejoin: round;stroke-width: 0.5px"/>
  <polyline points="199.328 121.77 199.318 121.781 199.313 121.775" style="fill: none;stroke: #222f3c;stroke-linecap: round;stroke-linejoin: round;stroke-width: 0.5px"/>
  <line x1="199.3287" y1="121.77" x2="200.361" y2="120.7377" style="fill: none;stroke: #222f3c;stroke-linecap: round;stroke-linejoin: round;stroke-width: 0.5px"/>
  <polyline points="199.309 117.463 199.318 117.455 199.326 117.463" style="fill: none;stroke: #222f3c;stroke-linecap: round;stroke-linejoin: round;stroke-width: 0.5px"/>
  <line x1="201.456" y1="119.6426" x2="200.3705" y2="120.7281" style="fill: none;stroke: #222f3c;stroke-linecap: round;stroke-linejoin: round;stroke-width: 0.5px"/>
  <line x1="198.2455" y1="120.7077" x2="199.3126" y2="121.7749" style="fill: none;stroke: #222f3c;stroke-linecap: round;stroke-linejoin: round;stroke-width: 0.5px"/>
  <polyline points="197.207 119.67 197.156 119.618 198.227 118.546" style="fill: none;stroke: #222f3c;stroke-linecap: round;stroke-linejoin: round;stroke-width: 0.5px"/>
  <line x1="199.3098" y1="117.4638" x2="198.2372" y2="118.5363" style="fill: none;stroke: #222f3c;stroke-linecap: round;stroke-linejoin: round;stroke-width: 0.5px"/>
  <line x1="200.429" y1="118.5662" x2="199.3259" y2="117.4631" style="fill: none;stroke: #222f3c;stroke-linecap: round;stroke-linejoin: round;stroke-width: 0.5px"/>
  <line x1="200.361" y1="120.7377" x2="200.3705" y2="120.7281" style="fill: none;stroke: #222f3c;stroke-linecap: round;stroke-linejoin: round;stroke-width: 0.5px"/>
  <line x1="201.456" y1="119.6426" x2="201.4594" y2="119.6393" style="fill: none;stroke: #222f3c;stroke-linecap: round;stroke-linejoin: round;stroke-width: 0.5px"/>
  <line x1="200.429" y1="118.5662" x2="200.4364" y2="118.5736" style="fill: none;stroke: #222f3c;stroke-linecap: round;stroke-linejoin: round;stroke-width: 0.5px"/>
  <path d="M74.1247,81.0423H71.8484a.5274.5274,0,0,1-.5274-.5274h0v-1.56a.5274.5274,0,0,1,.5274-.5274h5.9883" style="fill: none;stroke: #222f3c;stroke-linecap: round;stroke-linejoin: round;stroke-width: 0.4000000059604645px"/>
  <line x1="70.8123" y1="95.3156" x2="72.4163" y2="95.3156" style="fill: none;stroke: #222f3c;stroke-linecap: round;stroke-linejoin: round;stroke-width: 0.4000000059604645px"/>
  <line x1="72.8279" y1="85.3835" x2="72.8279" y2="81.7298" style="fill: none;stroke: #222f3c;stroke-linecap: round;stroke-linejoin: round;stroke-width: 0.4000000059604645px"/>
  <line x1="72.2711" y1="95.3156" x2="70.2395" y2="95.3156" style="fill: none;stroke: #222f3c;stroke-linecap: round;stroke-linejoin: round;stroke-width: 0.4000000059604645px"/>
  <line x1="69.3516" y1="93.9604" x2="69.3588" y2="93.9428" style="fill: none;stroke: #222f3c;stroke-linecap: round;stroke-linejoin: round;stroke-width: 0.4000000059604645px"/>
  <line x1="69.3588" y1="93.9428" x2="72.8225" y2="85.4555" style="fill: none;stroke: #222f3c;stroke-linecap: round;stroke-linejoin: round;stroke-width: 0.4000000059604645px"/>
  <path d="M69.3516,93.96a.98.98,0,0,0,.908,1.3538" style="fill: none;stroke: #222f3c;stroke-linecap: round;stroke-linejoin: round;stroke-width: 0.4000000059604645px"/>
  <path d="M69.3516,93.96l.0072-.0176" style="fill: none;stroke: #222f3c;stroke-linecap: round;stroke-linejoin: round;stroke-width: 0.4000000059604645px"/>
  <line x1="72.2711" y1="95.3156" x2="70.2395" y2="95.3156" style="fill: none;stroke: #222f3c;stroke-linecap: round;stroke-linejoin: round;stroke-width: 0.4000000059604645px"/>
  <line x1="69.3516" y1="93.9604" x2="69.3588" y2="93.9428" style="fill: none;stroke: #222f3c;stroke-linecap: round;stroke-linejoin: round;stroke-width: 0.4000000059604645px"/>
  <line x1="69.3588" y1="93.9428" x2="72.8225" y2="85.4555" style="fill: none;stroke: #222f3c;stroke-linecap: round;stroke-linejoin: round;stroke-width: 0.4000000059604645px"/>
  <path d="M69.3516,93.96a.98.98,0,0,0,.908,1.3538" style="fill: none;stroke: #222f3c;stroke-linecap: round;stroke-linejoin: round;stroke-width: 0.4000000059604645px"/>
  <path d="M69.3516,93.96l.0072-.0176" style="fill: none;stroke: #222f3c;stroke-linecap: round;stroke-linejoin: round;stroke-width: 0.4000000059604645px"/>
  <path d="M78.0267,82.627h3.17A.5076.5076,0,0,0,81.681,82.1v-1.561a.5077.5077,0,0,0-.4847-.5275H75.153a.5076.5076,0,0,0-.4849.5275V82.1a.5076.5076,0,0,0,.4849.5274h1.0455" style="fill: none;stroke: #222f3c;stroke-linecap: round;stroke-linejoin: round;stroke-width: 0.4000000059604645px"/>
  <line x1="75.867" y1="87.5541" x2="75.867" y2="83.9004" style="fill: none;stroke: #222f3c;stroke-linecap: round;stroke-linejoin: round;stroke-width: 0.4000000059604645px"/>
  <line x1="82.4976" y1="97.4861" x2="73.2785" y2="97.4861" style="fill: none;stroke: #222f3c;stroke-linecap: round;stroke-linejoin: round;stroke-width: 0.4000000059604645px"/>
  <line x1="72.3907" y1="96.1308" x2="72.3979" y2="96.1133" style="fill: none;stroke: #222f3c;stroke-linecap: round;stroke-linejoin: round;stroke-width: 0.4000000059604645px"/>
  <line x1="72.3979" y1="96.1133" x2="75.8615" y2="87.626" style="fill: none;stroke: #222f3c;stroke-linecap: round;stroke-linejoin: round;stroke-width: 0.4000000059604645px"/>
  <path d="M72.3907,96.1308a.98.98,0,0,0,.9079,1.354" style="fill: none;stroke: #222f3c;stroke-linecap: round;stroke-linejoin: round;stroke-width: 0.4000000059604645px"/>
  <path d="M72.3907,96.1308l.0072-.0175" style="fill: none;stroke: #222f3c;stroke-linecap: round;stroke-linejoin: round;stroke-width: 0.4000000059604645px"/>
  <line x1="80.482" y1="87.5541" x2="80.482" y2="83.9004" style="fill: none;stroke: #222f3c;stroke-linecap: round;stroke-linejoin: round;stroke-width: 0.4000000059604645px"/>
  <line x1="73.4238" y1="97.4861" x2="83.0705" y2="97.4861" style="fill: none;stroke: #222f3c;stroke-linecap: round;stroke-linejoin: round;stroke-width: 0.4000000059604645px"/>
  <line x1="83.9583" y1="96.1308" x2="83.9511" y2="96.1133" style="fill: none;stroke: #222f3c;stroke-linecap: round;stroke-linejoin: round;stroke-width: 0.4000000059604645px"/>
  <line x1="83.9511" y1="96.1133" x2="80.4875" y2="87.626" style="fill: none;stroke: #222f3c;stroke-linecap: round;stroke-linejoin: round;stroke-width: 0.4000000059604645px"/>
  <path d="M83.9583,96.1308a.98.98,0,0,1-.9083,1.354" style="fill: none;stroke: #222f3c;stroke-linecap: round;stroke-linejoin: round;stroke-width: 0.4000000059604645px"/>
  <path d="M83.9583,96.1308l-.0072-.0175" style="fill: none;stroke: #222f3c;stroke-linecap: round;stroke-linejoin: round;stroke-width: 0.4000000059604645px"/>
  <line x1="73.4238" y1="97.4861" x2="83.0705" y2="97.4861" style="fill: none;stroke: #222f3c;stroke-linecap: round;stroke-linejoin: round;stroke-width: 0.4000000059604645px"/>
  <line x1="83.9583" y1="96.1308" x2="83.9511" y2="96.1133" style="fill: none;stroke: #222f3c;stroke-linecap: round;stroke-linejoin: round;stroke-width: 0.4000000059604645px"/>
  <line x1="83.9511" y1="96.1133" x2="80.4875" y2="87.626" style="fill: none;stroke: #222f3c;stroke-linecap: round;stroke-linejoin: round;stroke-width: 0.4000000059604645px"/>
  <path d="M83.9583,96.1308a.98.98,0,0,1-.9083,1.354" style="fill: none;stroke: #222f3c;stroke-linecap: round;stroke-linejoin: round;stroke-width: 0.4000000059604645px"/>
  <path d="M83.9583,96.1308l-.0072-.0175" style="fill: none;stroke: #222f3c;stroke-linecap: round;stroke-linejoin: round;stroke-width: 0.4000000059604645px"/>
  <line x1="78.9252" y1="84.7853" x2="80.5161" y2="84.7853" style="fill: none;stroke: #222f3c;stroke-miterlimit: 10;stroke-width: 0.4000000059604645px"/>
  <line x1="78.9252" y1="83.8739" x2="80.5161" y2="83.8739" style="fill: none;stroke: #222f3c;stroke-miterlimit: 10;stroke-width: 0.4000000059604645px"/>
  <line x1="78.9252" y1="85.7074" x2="80.5161" y2="85.7074" style="fill: none;stroke: #222f3c;stroke-miterlimit: 10;stroke-width: 0.4000000059604645px"/>
  <line x1="78.9252" y1="86.6296" x2="80.5161" y2="86.6296" style="fill: none;stroke: #222f3c;stroke-miterlimit: 10;stroke-width: 0.4000000059604645px"/>
  <line x1="78.9252" y1="87.5517" x2="80.5161" y2="87.5517" style="fill: none;stroke: #222f3c;stroke-miterlimit: 10;stroke-width: 0.4000000059604645px"/>
  <path d="M75.5024,92.8619c0-.5233.9475-1.6623.9475-1.6623s.9476,1.139.9476,1.6623a.9476.9476,0,0,1-1.8951,0Z" style="fill: none;stroke: #222f3c;stroke-miterlimit: 10;stroke-width: 0.4000000059604645px"/>
  <path d="M77.48,95.2073c0-.5234.9474-1.6623.9474-1.6623s.9475,1.1389.9475,1.6623a.9475.9475,0,0,1-1.8949,0Z" style="fill: none;stroke: #222f3c;stroke-miterlimit: 10;stroke-width: 0.4000000059604645px"/>
  <path d="M78.0036,91.8485c0-.5233.9475-1.6623.9475-1.6623s.9475,1.139.9475,1.6623a.9475.9475,0,0,1-1.895.0041v-.0041Z" style="fill: none;stroke: #222f3c;stroke-miterlimit: 10;stroke-width: 0.4000000059604645px"/>
  <path d="M216.0085,59.3036l13.6139,12.81h0l-9.4367,10.0293a1.12,1.12,0,0,1-1.5831.0481L206.62,70.9161a1.12,1.12,0,0,1-.0482-1.5831h0l9.4367-10.0293Z" style="fill: none;stroke: #222f3c;stroke-miterlimit: 10;stroke-width: 0.4000000059604645px"/>
  <rect x="215.8636" y="55.2299" width="9.5726" height="3.7384" transform="translate(27.8614 178.6692) rotate(-46.7436)" style="fill: none;stroke: #222f3c;stroke-linecap: round;stroke-linejoin: round;stroke-width: 0.40000000754208787px"/>
  <rect x="218.8373" y="58.3726" width="7.9772" height="3.7384" transform="translate(26.2575 181.2431) rotate(-46.7436)" style="fill: none;stroke: #222f3c;stroke-linecap: round;stroke-linejoin: round;stroke-width: 0.40000000754208787px"/>
  <rect x="221.8112" y="61.5153" width="6.3818" height="3.7384" transform="translate(24.6536 183.8172) rotate(-46.7436)" style="fill: none;stroke: #222f3c;stroke-linecap: round;stroke-linejoin: round;stroke-width: 0.40000000754208787px"/>
  <rect x="224.7849" y="64.6582" width="4.7863" height="3.7384" transform="translate(23.0495 186.391) rotate(-46.7436)" style="fill: none;stroke: #222f3c;stroke-linecap: round;stroke-linejoin: round;stroke-width: 0.40000000754208787px"/>
  <rect x="227.7587" y="67.8012" width="3.1909" height="3.7384" transform="translate(21.4454 188.9651) rotate(-46.7436)" style="fill: none;stroke: #222f3c;stroke-linecap: round;stroke-linejoin: round;stroke-width: 0.40000000754208787px"/>
  <polygon points="233.729 65.02 231.151 66.246 232.663 67.668 233.729 65.02" style="fill: none;stroke: #222f3c;stroke-linejoin: round;stroke-width: 0.4000000059604645px"/>
  <polygon points="231.151 66.246 229.088 67.226 231.811 69.787 232.663 67.668 231.151 66.246" style="fill: none;stroke: #222f3c;stroke-linejoin: round;stroke-width: 0.4000000059604645px"/>
  <polygon points="232.1 61.296 229.521 62.522 231.033 63.945 232.1 61.296" style="fill: none;stroke: #222f3c;stroke-linejoin: round;stroke-width: 0.4000000059604645px"/>
  <polygon points="229.521 62.522 227.458 63.502 230.181 66.063 231.033 63.945 229.521 62.522" style="fill: none;stroke: #222f3c;stroke-linejoin: round;stroke-width: 0.4000000059604645px"/>
  <polygon points="230.47 57.572 227.892 58.798 229.405 60.221 230.47 57.572" style="fill: none;stroke: #222f3c;stroke-linejoin: round;stroke-width: 0.4000000059604645px"/>
  <polygon points="227.892 58.798 225.829 59.778 228.551 62.339 229.405 60.221 227.892 58.798" style="fill: none;stroke: #222f3c;stroke-linejoin: round;stroke-width: 0.4000000059604645px"/>
  <polygon points="228.842 53.849 226.262 55.074 227.775 56.497 228.842 53.849" style="fill: none;stroke: #222f3c;stroke-linejoin: round;stroke-width: 0.4000000059604645px"/>
  <polygon points="226.262 55.074 224.2 56.054 226.923 58.616 227.775 56.497 226.262 55.074" style="fill: none;stroke: #222f3c;stroke-linejoin: round;stroke-width: 0.4000000059604645px"/>
  <polygon points="227.212 50.125 224.634 51.351 226.146 52.773 227.212 50.125" style="fill: none;stroke: #222f3c;stroke-linejoin: round;stroke-width: 0.4000000059604645px"/>
  <polygon points="224.634 51.351 222.571 52.331 225.293 54.892 226.146 52.773 224.634 51.351" style="fill: none;stroke: #222f3c;stroke-linejoin: round;stroke-width: 0.4000000059604645px"/>
  <line x1="56.6359" y1="150.2447" x2="237.7843" y2="150.2447" style="fill: none;stroke: #222f3c;stroke-linecap: round;stroke-linejoin: round;stroke-width: 0.5px"/>
  <path d="M153.9612,101.5508a11.0631,11.0631,0,0,0,22.1062,0,9.5652,9.5652,0,0,0-.1216-1.8243" style="fill: none;stroke: #222f3c;stroke-miterlimit: 10;stroke-width: 0.5px"/>
  <path d="M168.0635,147.9653h3.9639a1.7532,1.7532,0,0,1,1.7532,1.7532h0v.4384h-5.7171Z" style="fill: none;stroke: #222f3c;stroke-miterlimit: 10;stroke-width: 0.5px"/>
  <path d="M161.9652,150.1568h-5.7171v-.4384a1.7532,1.7532,0,0,1,1.7531-1.7532h3.964Z" style="fill: none;stroke: #222f3c;stroke-miterlimit: 10;stroke-width: 0.5px"/>
  <path d="M153.9612,101.5508c0-.12.0053-.2379.0094-.3565a2.007,2.007,0,1,0,.1813,4.01h.4843A10.1763,10.1763,0,0,1,153.9612,101.5508Z" style="fill: none;stroke: #222f3c;stroke-miterlimit: 10;stroke-width: 0.5px"/>
  <path d="M176.058,101.1943c.0042.1186.01.237.01.3565a10.1808,10.1808,0,0,1-.6751,3.6527h.4845a2.007,2.007,0,0,0,.1811-4.01h0Z" style="fill: none;stroke: #222f3c;stroke-miterlimit: 10;stroke-width: 0.5px"/>
  <path d="M171.4937,102.3727a1.24,1.24,0,0,1-2.4773,0" style="fill: none;stroke: #222f3c;stroke-miterlimit: 10;stroke-width: 0.5px"/>
  <path d="M161.0124,102.3727a1.24,1.24,0,0,1-2.4774,0" style="fill: none;stroke: #222f3c;stroke-miterlimit: 10;stroke-width: 0.5px"/>
  <path d="M162.9181,107.4315a2.0982,2.0982,0,0,0,4.1926,0" style="fill: none;stroke: #222f3c;stroke-miterlimit: 10;stroke-width: 0.5px"/>
  <path d="M177.8389,116.8977a11.6285,11.6285,0,0,0-5.8456-5.57,3.1052,3.1052,0,0,0-1.1312-.4188,1.9511,1.9511,0,0,0-.4059-.0448c-.02,0-.04.0017-.0594.0023-.0156,0-.0307-.0023-.0464-.0023h-.0672a11.494,11.494,0,0,1-10.5368,0h-.0672c-.0157,0-.0307.002-.0464.0023-.02-.0006-.04-.0023-.06-.0023a1.9494,1.9494,0,0,0-.4058.0448,3.1041,3.1041,0,0,0-1.1311.4188,11.6283,11.6283,0,0,0-5.8457,5.57c-.0984.2016-.1883.4065-.2739.6119l3.7355.8325a7.8683,7.8683,0,0,1,.978-1.4951v9.996H173.4v-9.996a7.8673,7.8673,0,0,1,.9778,1.4951l3.7356-.8325C178.0273,117.3043,177.9374,117.1,177.8389,116.8977Z" style="fill: none;stroke: #222f3c;stroke-miterlimit: 10;stroke-width: 0.5px"/>
  <path d="M159.6692,110.7134a5.3553,5.3553,0,0,0,10.7008,0" style="fill: none;stroke: #222f3c;stroke-miterlimit: 10;stroke-width: 0.5px"/>
  <path d="M175.3091,123.8851a2.1578,2.1578,0,0,1,.93-.21,2.1067,2.1067,0,0,1,1.8612,1.087,10.5783,10.5783,0,0,0-.4-7.16l-2.9033.6472A7.9,7.9,0,0,1,175.3091,123.8851Z" style="fill: none;stroke: #222f3c;stroke-miterlimit: 10;stroke-width: 0.5px"/>
  <ellipse cx="176.2389" cy="125.6835" rx="2.0963" ry="2.0089" style="fill: none;stroke: #222f3c;stroke-miterlimit: 10;stroke-width: 0.5px"/>
  <path d="M151.0656,123.05a3.0934,3.0934,0,0,0-1.1243-.22,8.2361,8.2361,0,0,0,2.3567-5.2528l2.9.6608a10.7851,10.7851,0,0,1-2.9717,6.58A2.0015,2.0015,0,0,0,151.0656,123.05Z" style="fill: none;stroke: #222f3c;stroke-miterlimit: 10;stroke-width: 0.5px"/>
  <ellipse cx="150.1313" cy="124.8487" rx="2.0963" ry="2.0089" style="fill: none;stroke: #222f3c;stroke-miterlimit: 10;stroke-width: 0.5px"/>
  <path d="M165.0176,86.228a11.1383,11.1383,0,0,0-4.0267.753,19.1593,19.1593,0,0,1-10.06-1.2992V89.23a9.475,9.475,0,0,0,2.6219,6.4022h0a13.5459,13.5459,0,0,0-.2187,5.63,1.9069,1.9069,0,0,1,.6518-.1161h.0043a12.5159,12.5159,0,0,1,.8349-4.3456,11.0081,11.0081,0,0,0,1.6584,1.0709,12.8263,12.8263,0,0,0,8.4633.7047,25.91,25.91,0,0,1,5.0214-.4891,19.504,19.504,0,0,1,5.88.9929,12.7313,12.7313,0,0,1,.1975,2.0664h.0041a1.9092,1.9092,0,0,1,.6517.1162,13.711,13.711,0,0,0,.1955-2.2331c0-.0224.0014-.0441.0014-.0664C176.8985,91.93,171.5793,86.228,165.0176,86.228Z" style="fill: none;stroke: #222f3c;stroke-miterlimit: 10;stroke-width: 0.5px"/>
  <path d="M165.034,134.31v13.64h7.5835v-13.776c.896-1.0411.8085-4.5414.8085-5.9845l-16.7963.0587" style="fill: none;stroke: #222f3c;stroke-miterlimit: 10;stroke-width: 0.5px"/>
  <path d="M165.0239,136.5276v11.4217H157.44v-13.776c-.896-1.0411-.8085-4.5414-.8085-5.9845l16.7963.0587" style="fill: none;stroke: #222f3c;stroke-miterlimit: 10;stroke-width: 0.5px"/>
  <path d="M146.264,101.2619c.004.1186.0094.2368.0094.3565a10.18,10.18,0,0,1-.675,3.6525h.4844a2.0066,2.0066,0,0,0,.1812-4.009Z" style="fill: none;stroke: #222f3c;stroke-miterlimit: 10;stroke-width: 0.5px"/>
  <path d="M141.7,103.6273a1.24,1.24,0,0,0-2.4775,0" style="fill: none;stroke: #222f3c;stroke-miterlimit: 10;stroke-width: 0.5px"/>
  <path d="M131.2183,103.6273a1.24,1.24,0,0,0-2.4774,0" style="fill: none;stroke: #222f3c;stroke-miterlimit: 10;stroke-width: 0.5px"/>
  <path d="M133.124,107.499a2.0982,2.0982,0,0,0,4.1926,0" style="fill: none;stroke: #222f3c;stroke-miterlimit: 10;stroke-width: 0.5px"/>
  <path d="M149.1545,123.0484a3.1423,3.1423,0,0,1,1.1217-.2253,7.9336,7.9336,0,0,1-2.3072-5.1544l-2.8939.6728a10.3892,10.3892,0,0,0,2.91,6.4566A2.0086,2.0086,0,0,1,149.1545,123.0484Z" style="fill: none;stroke: #222f3c;stroke-miterlimit: 10;stroke-width: 0.5px"/>
  <line x1="126.9292" y1="113.3488" x2="145.4602" y2="113.3488" style="fill: none;stroke: #222f3c;stroke-miterlimit: 10;stroke-width: 0.5px"/>
  <path d="M141.8493,111.1739a9.7,9.7,0,0,0,4.57-5.6553" style="fill: none;stroke: #222f3c;stroke-linecap: round;stroke-linejoin: round;stroke-width: 0.5px"/>
  <path d="M123.2783,101.3241a2.0623,2.0623,0,0,0,0,3.661Z" style="fill: none;stroke: #222f3c;stroke-miterlimit: 10;stroke-width: 0.5px"/>
  <path d="M127.1133,112.34c0,2.9826-1.1648,3.8706-2.667,5.7555l1.4112.3145a7.8773,7.8773,0,0,1,.9779-1.4953V126.947h16.77V116.9143a7.8858,7.8858,0,0,1,.978,1.4953l3.7355-.8325c-.0856-.2055-.191-.4032-.2739-.6118a11.9372,11.9372,0,0,0-7.44-6.1755" style="fill: none;stroke: #222f3c;stroke-miterlimit: 10;stroke-width: 0.5px"/>
  <path d="M147.0244,101.2154V98.9323a11.83,11.83,0,0,0-23.66,0h0" style="fill: none;stroke: #222f3c;stroke-linecap: round;stroke-linejoin: round;stroke-width: 0.5px"/>
  <path d="M127.1133,111.989v.3506c0,2.9826-1.15,3.8416-2.6516,5.7266" style="fill: none;stroke: #222f3c;stroke-miterlimit: 10;stroke-width: 0.5px"/>
  <line x1="127.1133" y1="111.9689" x2="127.1133" y2="111.989" style="fill: none;stroke: #222f3c;stroke-miterlimit: 10;stroke-width: 0.5px"/>
  <path d="M129.8359,110.82a10.1733,10.1733,0,0,0-2.7226,1.1686" style="fill: none;stroke: #222f3c;stroke-miterlimit: 10;stroke-width: 0.5px"/>
  <line x1="123.367" y1="117.8547" x2="123.3708" y2="115.3015" style="fill: none;stroke: #222f3c;stroke-linecap: round;stroke-linejoin: round;stroke-width: 0.5px"/>
  <path d="M123.367,117.8547l-.0026,1.7407a17.7826,17.7826,0,0,1,1.0683-1.4944" style="fill: none;stroke: #222f3c;stroke-linecap: square;stroke-miterlimit: 10;stroke-width: 0.5px"/>
  <line x1="123.3708" y1="115.3015" x2="123.3951" y2="98.8046" style="fill: none;stroke: #222f3c;stroke-linecap: round;stroke-linejoin: round;stroke-width: 0.5px"/>
  <path d="M122.1156,117.7712a16.1724,16.1724,0,0,1,1.2495-2.5336" style="fill: none;stroke: #222f3c;stroke-miterlimit: 10;stroke-width: 0.5px"/>
  <path d="M123.4162,98.9631a11.8057,11.8057,0,0,1,23.6113-.0663" style="fill: none;stroke: #222f3c;stroke-linecap: round;stroke-linejoin: round;stroke-width: 0.5px"/>
  <path d="M146.1363,100.08a13.9334,13.9334,0,0,1-1.651-.4447c-3.4207-1.245-5.4006-3.1087-6.2166-5.1927-3.2084,1.7772-7.2565,3.0622-8.28,4.0166-1.4737,1.3748-2.8759,3.3474-2.8759,5.3629v4.8956" style="fill: none;stroke: #222f3c;stroke-miterlimit: 10;stroke-width: 0.5px"/>
  <path d="M146.1461,100.0768l.0412.0088-.0413-.0091" style="fill: none;stroke: #222f3c;stroke-miterlimit: 10;stroke-width: 0.5px"/>
  <line x1="127.1133" y1="108.7176" x2="127.1133" y2="111.9689" style="fill: none;stroke: #222f3c;stroke-miterlimit: 10;stroke-width: 0.5px"/>
  <path d="M145.9673,99.8955a5.235,5.235,0,0,1,.3214,1.6553,10.83,10.83,0,0,1-11.0531,10.5924,11.2329,11.2329,0,0,1-8.1224-3.4256" style="fill: none;stroke: #222f3c;stroke-miterlimit: 10;stroke-width: 0.5px"/>
  <line x1="123.5361" y1="117.9043" x2="122.1676" y2="117.4894" style="fill: none;stroke: #222f3c;stroke-miterlimit: 10;stroke-width: 0.5px"/>
  <path d="M138.2387,147.9653h3.9639a1.7534,1.7534,0,0,1,1.7532,1.7533v.4383h-5.7171Z" style="fill: none;stroke: #222f3c;stroke-miterlimit: 10;stroke-width: 0.5px"/>
  <path d="M132.14,150.1568h-5.7172v-.4384a1.7532,1.7532,0,0,1,1.753-1.7532H132.14Z" style="fill: none;stroke: #222f3c;stroke-miterlimit: 10;stroke-width: 0.5px"/>
  <path d="M135.2084,134.31v13.64h7.5835v-13.776c.896-1.0411.8086-4.5414.8086-5.9845l-16.7964.0587" style="fill: none;stroke: #222f3c;stroke-miterlimit: 10;stroke-width: 0.5px"/>
  <path d="M135.1991,136.5276v11.4217h-7.5835v-13.776c-.896-1.0411-.8087-4.5414-.8087-5.9845l16.7964.0587" style="fill: none;stroke: #222f3c;stroke-miterlimit: 10;stroke-width: 0.5px"/>
  <path d="M122.5513,117.5771a8.2362,8.2362,0,0,1-2.3568,5.2528,3.1059,3.1059,0,0,1,1.1242.22,2.0018,2.0018,0,0,1,1.1607,1.7679,10.7864,10.7864,0,0,0,2.9718-6.58" style="fill: none;stroke: #222f3c;stroke-miterlimit: 10;stroke-width: 0.5px"/>
  <ellipse cx="120.3845" cy="124.8487" rx="2.0963" ry="2.0089" style="fill: none;stroke: #222f3c;stroke-miterlimit: 10;stroke-width: 0.5px"/>
  <path d="M111.9386,103.6273a1.24,1.24,0,0,0-2.4774,0" style="fill: none;stroke: #222f3c;stroke-miterlimit: 10;stroke-width: 0.5px"/>
  <path d="M101.4572,103.6273a1.24,1.24,0,0,0-2.4774,0" style="fill: none;stroke: #222f3c;stroke-miterlimit: 10;stroke-width: 0.5px"/>
  <path d="M103.3629,107.499a2.0982,2.0982,0,0,0,4.1926,0" style="fill: none;stroke: #222f3c;stroke-miterlimit: 10;stroke-width: 0.5px"/>
  <ellipse cx="94.2345" cy="125.751" rx="2.0963" ry="2.0089" style="fill: none;stroke: #222f3c;stroke-miterlimit: 10;stroke-width: 0.5px"/>
  <path d="M120.5151,122.8231a7.9341,7.9341,0,0,1-2.3072-5.1544l-2.894.6728a10.3887,10.3887,0,0,0,2.91,6.4566" style="fill: none;stroke: #222f3c;stroke-miterlimit: 10;stroke-width: 0.5px"/>
  <path d="M94.6852,118.0951l1.4112.3145a7.8773,7.8773,0,0,1,.9779-1.4953v10.0322h16.77V116.9143a7.8858,7.8858,0,0,1,.978,1.4953l3.7354-.8325c-.0855-.2055-.19-.4032-.2738-.6118a11.9372,11.9372,0,0,0-7.44-6.1755" style="fill: none;stroke: #222f3c;stroke-miterlimit: 10;stroke-width: 0.5px"/>
  <path d="M96.1209,118.41l-3.7354-.8325c.0856-.2055.19-.4032.2739-.6118a11.9372,11.9372,0,0,1,7.44-6.1755" style="fill: none;stroke: #222f3c;stroke-miterlimit: 10;stroke-width: 0.5px"/>
  <path d="M92.881,117.92a12.4123,12.4123,0,0,0-.5077,6.91,2.1742,2.1742,0,0,1,2.791-.8764,8.034,8.034,0,0,1,.5122-5.6365" style="fill: none;stroke: #222f3c;stroke-linecap: round;stroke-linejoin: round;stroke-width: 0.5px"/>
  <path d="M108.4775,147.9653h3.9639a1.7534,1.7534,0,0,1,1.7532,1.7533v.4383h-5.7171Z" style="fill: none;stroke: #222f3c;stroke-miterlimit: 10;stroke-width: 0.5px"/>
  <path d="M102.3792,150.1568H96.662v-.4384a1.7532,1.7532,0,0,1,1.7532-1.7532h3.964Z" style="fill: none;stroke: #222f3c;stroke-miterlimit: 10;stroke-width: 0.5px"/>
  <path d="M105.4477,134.31v13.64h7.5836v-13.776c.896-1.0411.8085-4.5414.8085-5.9845l-16.7963.0587" style="fill: none;stroke: #222f3c;stroke-miterlimit: 10;stroke-width: 0.5px"/>
  <path d="M105.4379,136.5276v11.4217H97.8544v-13.776c-.896-1.0411-.8086-4.5414-.8086-5.9845l16.7963.0587" style="fill: none;stroke: #222f3c;stroke-miterlimit: 10;stroke-width: 0.5px"/>
  <path d="M96.2948,99.8435c3.2539-1.1749,5.1974-2.9079,6.0731-4.855,1.7846,2.584,5.8453,4.39,10.5745,4.39a23.1116,23.1116,0,0,0,3.3164-.255A10.9291,10.9291,0,1,1,94.608,101.32c0-.3416.0178-.6789.0491-1.0124A15.949,15.949,0,0,0,96.2948,99.8435Z" style="fill: none;stroke: #222f3c;stroke-miterlimit: 10;stroke-width: 0.5px"/>
  <path d="M90.0647,103.92V89.6339a6.7385,6.7385,0,0,1,13.0359-2.3358,7.627,7.627,0,0,0-1.5935-.168,7.5422,7.5422,0,0,0-7.5722,7.5118,7.3863,7.3863,0,0,0,.0811,1.0733h0c.0287.1961.0623.3906.1056.5817l.013-.0475a11.521,11.521,0,0,0-.2879,4.2438c.03.2576.071.5122.1173.7647a2,2,0,0,0,.644,3.9h.7069a10.7976,10.7976,0,0,0,1.4583,2.6363A5.05,5.05,0,0,1,86.7,107.3283V105.66a2.1393,2.1393,0,0,0,3.3652-1.7392Z" style="fill: none;stroke: #222f3c;stroke-miterlimit: 10;stroke-width: 0.5px"/>
  <path d="M105.5456,87.4639a11.7321,11.7321,0,0,1,11.7736,11.475c.0012.07.0054.1395.0054.21a11.6591,11.6591,0,0,1-.1953,2.11,2.0282,2.0282,0,0,0-.6461-.1066h-.0043a10.8088,10.8088,0,0,0-.22-2.0291h.0008a23.107,23.107,0,0,1-3.3171.2551c-4.7292,0-8.79-1.8058-10.5746-4.39-.8757,1.9471-2.8192,3.68-6.0731,4.855,0,0-1.6546.4672-1.6377.4633q-.0391.4182-.0448.8455h-.0039a2.023,2.023,0,0,0-.644.1058c-.0464-.2525-.0877-.5068-.1174-.7647a11.6656,11.6656,0,0,1,11.699-13.0292Z" style="fill: none;stroke: #222f3c;stroke-miterlimit: 10;stroke-width: 0.5px"/>
  <path d="M94.1216,96.2968a7.504,7.504,0,0,1,7.3855-9.1668,7.6144,7.6144,0,0,1,2.533.4321A11.7548,11.7548,0,0,0,94.1216,96.2968Z" style="fill: none;stroke: #222f3c;stroke-miterlimit: 10;stroke-width: 0.5px"/>
  <path d="M116.4832,101.3189c0-.056-.0034-.1111-.0043-.1669h.0043a2.0032,2.0032,0,0,1,.042,4.0062h-.7488A10.7463,10.7463,0,0,0,116.4832,101.3189Z" style="fill: none;stroke: #222f3c;stroke-miterlimit: 10;stroke-width: 0.5px"/>
  <circle cx="105.3403" cy="119.3924" r="0.8297" style="fill: none;stroke: #222f3c;stroke-miterlimit: 10;stroke-width: 0.5px"/>
  <circle cx="105.3403" cy="122.066" r="0.8297" style="fill: none;stroke: #222f3c;stroke-miterlimit: 10;stroke-width: 0.5px"/>
  <path d="M130.5071,69.2009a4.96,4.96,0,0,0-4.96-4.96H67.6815a4.96,4.96,0,0,0-4.9595,4.96v32.4464a4.96,4.96,0,0,0,4.96,4.96H84.6529" style="fill: none;stroke: #222f3c;stroke-miterlimit: 10;stroke-width: 0.5px"/>
  <line x1="130.5071" y1="69.2009" x2="130.5071" y2="85.8863" style="fill: none;stroke: #222f3c;stroke-miterlimit: 10;stroke-width: 0.5px"/>
  <rect x="88.1414" y="64.3838" width="16.9463" height="5.6487" style="fill: none;stroke: #222f3c;stroke-miterlimit: 10;stroke-width: 0.5px"/>
  <g>
    <path d="M238.7012,54.9648c.2763,0,1.0312.0771,1.4931.0771.4922,0,.97-.0464,1.2471-.0464.169,0,.2461.0308.2461.0923,0,.0772-.0928.1235-.2461.1543-.37.0767-.4619.1694-.4619.2769a1.6019,1.6019,0,0,0,.2617.5854c.2774.4771,1.6318,2.8174,2.001,3.3252.0312.0156.1387.0928.1855.0156.5235-.8623,1.5088-2.479,1.8321-3.0332a1.8034,1.8034,0,0,0,.3535-.8159c0-.1846-.169-.3081-.5694-.3848-.123-.0307-.2617-.0771-.2617-.1543,0-.0459.0928-.0766.2461-.0766.4317,0,.6778.0615,1.1084.0615.37,0,.8623-.0771,1.0938-.0771.1689,0,.2763.0307.2763.0922s-.0918.1236-.3379.1543a1.6946,1.6946,0,0,0-1.14.7852c-.8008,1.0312-1.8477,2.8481-2.31,3.6025a1.7959,1.7959,0,0,0-.2158.6006c-.03.4927-.03,1.3858-.03,2.1094,0,.4,0,.6929.03,1.2163.0313.7236.1387.8926.6777,1.0005.2315.0308.3233.0771.3233.1538s-.1533.0928-.2774.0928c-.6152,0-.9082-.0772-1.4775-.0772-.5234,0-.8164.0616-1.2471.0616-.2158,0-.3232-.0459-.3232-.1231,0-.0615.1533-.1079.3389-.1387.6152-.0771.708-.2309.7539-.8315.0312-.3076.0615-1.3237.0615-1.9858,0-.9546-.0156-1.232-.03-1.4322a.8673.8673,0,0,0-.1084-.3384c-.5078-.9238-1.7851-3.0639-2.2324-3.6953-.4922-.6772-.7695-.9082-1.2315-1-.246-.0463-.3232-.1079-.3232-.1543C238.4082,54.9648,238.501,54.9648,238.7012,54.9648Z" style="fill: #333838"/>
    <path d="M251.5742,61.9086a2.9485,2.9485,0,0,1-2.9256,2.9712h0a2.936,2.936,0,0,1-1.8779-5.2344,3.16,3.16,0,0,1,1.8477-.6469,2.89,2.89,0,0,1,2.9553,2.8232Q251.5746,61.8651,251.5742,61.9086Zm-4.8037-.2158a3.52,3.52,0,0,0,.6465,2.1094,1.8284,1.8284,0,0,0,1.4473.8159,1.52,1.52,0,0,0,.97-.3848,3.0683,3.0683,0,0,0,.6465-2.063c0-1.4629-.7393-2.91-2.0938-2.91-.7854,0-1.6165.8314-1.6165,2.4325Z" style="fill: #333838"/>
    <path d="M253.3311,64.28a1.6142,1.6142,0,0,1-.293-.94c0-.5078,0-3.11-.03-3.3715a.6.6,0,0,0-.3389-.5083c-.1386-.0923-.1845-.1382-.1845-.1846s.0761-.0772.2461-.0772a5.4,5.4,0,0,0,1.2929-.2c.0469-.0152.0928.0771.0772.1694-.0459.8779-.0615,2.9717-.0459,3.68a1.7077,1.7077,0,0,0,.2305,1.0161,1.1313,1.1313,0,0,0,.8623.3852,1.7272,1.7272,0,0,0,1.3086-.4926.9435.9435,0,0,0,.2773-.7085c.0312-.4156.0312-1.0161.0312-1.57,0-.231-.0156-.9546-.0156-1.355-.0156-.5235-.17-.6-.6777-.708-.169-.0308-.2461-.0772-.2461-.1231,0-.062.1387-.0928.23-.0928h.6464a8.15,8.15,0,0,0,1.0625-.0922c.0469,0,.0772.0615.0616.1694-.0762.7236-.1074,2.2632-.1074,4.0493a5.0865,5.0865,0,0,0,.0312.7852c.03.1538.0762.1845.1992.1694a4.3194,4.3194,0,0,1,.6319-.1387.185.185,0,0,1,.1845.1695c0,.0615-.1386.0922-.2929.123a6.9443,6.9443,0,0,0-1.585.4155c-.1231.0616-.1543.0464-.1856,0s-.03-.123-.03-.2924c0-.1539.0156-.4927.0156-.6006,0-.0459-.0156-.1538-.0469-.1075a4.4281,4.4281,0,0,1-1.0615.7544,2.6439,2.6439,0,0,1-.9092.231A1.5119,1.5119,0,0,1,253.3311,64.28Z" style="fill: #333838"/>
    <path d="M262.54,61.6469a2.5927,2.5927,0,0,0,.77,2.0015,2.1877,2.1877,0,0,0,1.4316.5385,2.0662,2.0662,0,0,0,1.6016-.5849c.03-.0308.1074-.0459.1074,0a.3985.3985,0,0,1-.1231.2465,2.6615,2.6615,0,0,1-2.124,1.0162,2.8057,2.8057,0,0,1-1.9248-.7544,2.9,2.9,0,0,1-.7695-2.0786,2.9418,2.9418,0,0,1,.9385-2.14,3.3767,3.3767,0,0,1,2.2793-.893,2.3423,2.3423,0,0,1,1.4.3852.3527.3527,0,0,1,.2158.2925.5263.5263,0,0,1-.3848.4927.4749.4749,0,0,1-.2617-.1543,4.2307,4.2307,0,0,0-.8623-.6309,1.3817,1.3817,0,0,0-.585-.1235C263.6025,59.26,262.54,59.8764,262.54,61.6469Z" style="fill: #333838"/>
    <path d="M270.8545,59.7841a3.7154,3.7154,0,0,1,.2158,1.4009c0,.57-.0459,2.0322-.0459,2.4326a.5274.5274,0,0,0,.5694.585.9785.9785,0,0,0,.4462-.1387c.0928-.0459.1543,0,.0928.1387a1.2979,1.2979,0,0,1-1.1855.6621,1.0343,1.0343,0,0,1-.9082-.6929.0541.0541,0,0,0-.0745-.0174l-.0027.0018a2.1546,2.1546,0,0,1-1.5088.6928,1.2767,1.2767,0,0,1-1.2315-1.32l0-.0034a1.0852,1.0852,0,0,1,.5537-.8779c.37-.2,1.7705-.6157,2.0937-.7388a.2918.2918,0,0,0,.2-.2309,5.144,5.144,0,0,0,.0313-.7085c0-.6309-.1084-1.0621-.37-1.2623a1.1722,1.1722,0,0,0-.6465-.2465,1.059,1.059,0,0,0-.6152.185.6156.6156,0,0,0-.2315.3692,1.5768,1.5768,0,0,0-.0156.2929.1886.1886,0,0,1-.0615.1231,3.2911,3.2911,0,0,1-.7237.3388c-.0761.0152-.1533-.0771-.1533-.1386,0-.1079.1074-.2466.292-.4619a4.0067,4.0067,0,0,1,1.17-.8931,2.07,2.07,0,0,1,.9238-.2773A1.2618,1.2618,0,0,1,270.8545,59.7841Zm-1.0313,4.2339a.6348.6348,0,0,0,.169-.37,10.9188,10.9188,0,0,0,.0771-1.4629c0-.0152-.03-.0923-.0615-.0767a8.6533,8.6533,0,0,0-1.416.5234.7969.7969,0,0,0-.3848.77.8942.8942,0,0,0,.9239.8623,1.0545,1.0545,0,0,0,.6923-.2461Z" style="fill: #333838"/>
    <path d="M277.5068,59.5224A3.21,3.21,0,0,1,278,61.539c0,.8159.0156.9394.0156,1.709.0147,1.0468.0615,1.1391.4766,1.247.1387.0616.2314.0923.2314.1538,0,.0928-.123.108-.2773.108-.2,0-.6465-.0616-.9854-.0616-.5234,0-.7236.0616-.9541.0616-.1386,0-.247-.0308-.247-.0923s.0927-.1231.2929-.1695c.3692-.0923.4307-.2.4307-.6465V61.7548c0-1.2471-.1074-1.6167-.4922-1.9092a1.3684,1.3684,0,0,0-.8779-.2925,1.8369,1.8369,0,0,0-1.2.4927.7935.7935,0,0,0-.1856.4619c0,.1846.0156.97.0156,1.8936a12.57,12.57,0,0,0,.0928,1.6167c.0459.3384.2305.4155.4766.4927.1854.0459.2616.0766.2616.1538,0,.0923-.1532.0923-.3075.0923-.123,0-.8771-.0616-1.2315-.0616-.2,0-.5235.0308-.8164.0308-.169,0-.292-.0308-.292-.1079,0-.0615.1387-.1231.3233-.1538.3847-.0772.4462-.1846.4619-.4927.03-1.1084.03-2.5249.03-3.772,0-.1538-.03-.3232-.4-.5234-.0918-.0615-.123-.0923-.123-.1387,0-.0307.0771-.0771.2158-.123a5.7889,5.7889,0,0,0,1.2168-.5235c.0459-.0156.123.0459.1074.1231a7.0771,7.0771,0,0,0-.0313.8159c0,.0308.0469.0771.0772.0464a5.2953,5.2953,0,0,1,1.0937-.6929,2.0755,2.0755,0,0,1,.9082-.185A1.57,1.57,0,0,1,277.5068,59.5224Z" style="fill: #333838"/>
    <path d="M285.6387,59.3066a1.1259,1.1259,0,0,0,.539.0771c.293,0,.9082-.0308,1.14-.0308.0762,0,.1387.1539.1387.3384,0,.1543-.1084.2774-.17.2774-.2158,0-.7695-.0308-.9394-.0308a.1388.1388,0,0,0-.0918.0923c0,.1079.03.354.03.6313a2.5448,2.5448,0,0,1-.97,2.0787,2.1231,2.1231,0,0,1-1.2011.4,3.7294,3.7294,0,0,1-.6465-.0767.2961.2961,0,0,0-.1846.0459,2.3663,2.3663,0,0,0-.5391.5083.4869.4869,0,0,0-.1689.3384c0,.4931.6309.6469,1.4316.6469.4776,0,1.3243-.0463,1.7549-.0463a1.59,1.59,0,0,1,1.7246,1.7089,3.1085,3.1085,0,0,1-1.7246,2.51,3.6728,3.6728,0,0,1-1.8623.5078c-1.2324,0-2.2637-.5849-2.2637-1.7241a.9821.9821,0,0,1,.2774-.6621c.1074-.1231.6777-.8467.9853-1.1856.0157-.0307.03-.123-.0156-.1386-.4307-.0923-1.2471-.6314-1.2471-1.2471a.1911.1911,0,0,1,.0928-.1538,6.76,6.76,0,0,0,1.2774-1.1392c.0156-.0156,0-.0771-.03-.0927a2.3234,2.3234,0,0,1-1.1856-1.9244,1.86,1.86,0,0,1,.6465-1.478,2.3686,2.3686,0,0,1,1.6319-.6313A3.4812,3.4812,0,0,1,285.6387,59.3066Zm-2.5713,8.9912a2.1058,2.1058,0,0,0,1.4629.4619,2.3916,2.3916,0,0,0,1.4316-.3692,2.0545,2.0545,0,0,0,.832-1.5859c0-.647-.4-1.2163-1.3857-1.2163-.585,0-1.34.0151-1.7559.0308a.9478.9478,0,0,0-.5234.1386,1.9473,1.9473,0,0,0-.6621,1.37A1.5766,1.5766,0,0,0,283.0674,68.2978Zm.1387-8.8374a2.1514,2.1514,0,0,0-.4151,1.3549,2.7952,2.7952,0,0,0,.4766,1.6475,1.2583,1.2583,0,0,0,.9551.4463c.708,0,1.17-.8467,1.17-1.5547a2.7544,2.7544,0,0,0-.4776-1.7246,1.083,1.083,0,0,0-.9238-.5234,1.1574,1.1574,0,0,0-.7852.3537Z" style="fill: #333838"/>
    <path d="M292.5986,60.5693a.1809.1809,0,0,1-.1543.1689c-.123-.0151-2.125-.0459-2.4785-.0459h-.831c-.0313,0-.1084.0771-.1387.123a2.1144,2.1144,0,0,0-.1231.8467,2.76,2.76,0,0,0,.7081,1.8633,2.0773,2.0773,0,0,0,1.539.6309,1.9632,1.9632,0,0,0,1.4629-.4927c.1231-.1231.1846-.0923.1846-.0151a.5858.5858,0,0,1-.1533.246,2.7221,2.7221,0,0,1-2.1407.97,2.4858,2.4858,0,0,1-1.832-.7852,3.0109,3.0109,0,0,1-.7393-2.063,3.21,3.21,0,0,1,.8936-2.248,2.8626,2.8626,0,0,1,1.9238-.77A1.7767,1.7767,0,0,1,292.5986,60.5693Zm-3.1406-.7852a1.343,1.343,0,0,0-.3232.6309.0657.0657,0,0,0,.0615.0615l2.001-.0152c.3388,0,.3691-.1694.3691-.3081a.9912.9912,0,0,0-.2148-.6464,1.08,1.08,0,0,0-.7705-.2925A1.5954,1.5954,0,0,0,289.458,59.7841Z" style="fill: #333838"/>
    <path d="M294.124,64.1254a1.7322,1.7322,0,0,1-.1845-.8774V60.061c0-.1695-.0157-.2769-.0772-.3082a2.5248,2.5248,0,0,0-.3691-.0922c-.1231-.0308-.2-.0767-.2-.1382,0-.0313.0155-.0772.1845-.1543a3.2827,3.2827,0,0,0,1.2627-1.0313c.1387-.1543.2461-.1235.2461-.0464,0,.1387-.03.57-.0146.7544,0,.0464.0146.1387.0762.1387.2773,0,1.5556-.0464,1.8789-.0464.03,0,.0918.1079.0918.2158,0,.2618-.0762.3848-.1534.3848-.539,0-1.294-.0156-1.7091-.0156-.1845,0-.2157.0464-.2157.1387,0,.2617.0156,2.6792.0313,3.1562a1.5774,1.5774,0,0,0,.1689.8315,1.1378,1.1378,0,0,0,.9541.4156,1.5088,1.5088,0,0,0,.8477-.231c.1074-.0771.1533-.0615.1533,0,0,.0923-.1387.2466-.3389.4a2.1126,2.1126,0,0,1-1.2471.4A1.4271,1.4271,0,0,1,294.124,64.1254Z" style="fill: #333838"/>
    <path d="M300.5762,64.1254a1.7312,1.7312,0,0,1-.1846-.8774V60.061c0-.1695-.0156-.2769-.0771-.3082a2.5229,2.5229,0,0,0-.3692-.0922c-.123-.0308-.2-.0767-.2-.1382,0-.0313.0156-.0772.1846-.1543a3.2827,3.2827,0,0,0,1.2627-1.0313c.1387-.1543.2461-.1235.2461-.0464,0,.1387-.03.57-.0147.7544,0,.0464.0147.1387.0762.1387.2773,0,1.5557-.0464,1.8789-.0464.03,0,.0918.1079.0918.2158,0,.2618-.0762.3848-.1533.3848-.5391,0-1.294-.0156-1.709-.0156-.1846,0-.2158.0464-.2158.1387,0,.2617.0156,2.6792.0312,3.1562a1.5784,1.5784,0,0,0,.169.8315,1.1378,1.1378,0,0,0,.9541.4156,1.5082,1.5082,0,0,0,.8476-.231c.1075-.0771.1534-.0615.1534,0,0,.0923-.1387.2466-.3389.4a2.1105,2.1105,0,0,1-1.2471.4A1.4269,1.4269,0,0,1,300.5762,64.1254Z" style="fill: #333838"/>
    <path d="M305.7207,60.1073a.7728.7728,0,0,0-.1543.5694,30.3634,30.3634,0,0,0,.0772,3.31.5437.5437,0,0,0,.4921.5235c.2315.0459.3389.0766.3389.1538,0,.0464-.0918.0923-.2305.0923-.4316,0-.832-.0616-1.2783-.0616-.4775,0-.708.0616-1.001.0616-.1689,0-.246-.0308-.246-.0923s.0615-.0923.246-.1387c.4473-.1079.5547-.1538.57-.7388.0459-.6162.0615-2.0322.0615-4.48,0-2.3247.03-3.2642,0-3.8492-.0156-.4926-.1231-.5385-.4619-.7236-.0616-.0459-.1084-.0767-.1084-.123s.0927-.0923.2617-.1387a6.3568,6.3568,0,0,0,1.124-.37.3386.3386,0,0,1,.1543-.0616c.0459,0,.0928.1079.0772.3238-.0157.4155-.0772,5.1884-.0616,5.4809,0,.0615.0459.0767.0616.0459a5.0508,5.0508,0,0,1,.9238-.6313,2.4192,2.4192,0,0,1,1.0771-.2617,1.64,1.64,0,0,1,1.3858.6928,2.97,2.97,0,0,1,.3388,1.6475c.0157,1.1548.0157,2.1094.0313,2.6943,0,.3081.0615.416.5234.4927.2.0464.2461.0771.2461.1387s-.1074.1079-.2461.1079c-.4,0-.6933-.0772-1.1084-.0772-.5234,0-.6474.0616-1.0009.0616-.1846,0-.2461-.0459-.2461-.0923,0-.0616.0761-.0923.23-.1231.416-.0923.4463-.2.5078-.647.0314-.354.0617-1.0312.0617-2.6323a2.4675,2.4675,0,0,0-.2305-1.1548,1.1526,1.1526,0,0,0-1.0625-.57A1.8587,1.8587,0,0,0,305.7207,60.1073Z" style="fill: #333838"/>
    <path d="M315.5605,60.5693a.1809.1809,0,0,1-.1543.1689c-.123-.0151-2.125-.0459-2.4785-.0459h-.831c-.0313,0-.1084.0771-.1387.123a2.1112,2.1112,0,0,0-.124.8467,2.7611,2.7611,0,0,0,.709,1.8633,2.0773,2.0773,0,0,0,1.539.6309,1.963,1.963,0,0,0,1.4629-.4927c.1231-.1231.1846-.0923.1846-.0151a.5839.5839,0,0,1-.1533.246,2.7221,2.7221,0,0,1-2.1407.97,2.4858,2.4858,0,0,1-1.832-.7852,3.0108,3.0108,0,0,1-.7392-2.063,3.21,3.21,0,0,1,.8935-2.248,2.8628,2.8628,0,0,1,1.9238-.77A1.7769,1.7769,0,0,1,315.5605,60.5693Zm-3.14-.7852a1.343,1.343,0,0,0-.3232.6309.0658.0658,0,0,0,.0615.0615l2.001-.0152c.3388,0,.3691-.1694.3691-.3081a.9912.9912,0,0,0-.2148-.6464,1.08,1.08,0,0,0-.77-.2925A1.5959,1.5959,0,0,0,312.42,59.7841Z" style="fill: #333838"/>
    <path d="M319.8418,60.184c0,.647.585,1.0161.9707,1.2471,1,.6469,1.4,1.0317,1.4,1.8169a1.58,1.58,0,0,1-.8008,1.2934,2.5535,2.5535,0,0,1-1.2314.3384,3.1371,3.1371,0,0,1-1.2159-.2769c-.123-.0463-.2315-.1538-.2315-.2465,0-.2154-.03-.6-.0459-.77-.0313-.2.0156-.2466.0459-.2466.0459,0,.0928,0,.2.2925a1.5022,1.5022,0,0,0,.6465.8316,1.18,1.18,0,0,0,.6933.1845,1.0557,1.0557,0,0,0,1.001-1.0312c0-.585-.4-.9087-1.0166-1.2935-.6621-.4311-1.2783-1-1.2783-1.6782a1.4606,1.4606,0,0,1,.5859-1.2163,1.9874,1.9874,0,0,1,1.293-.4311,3.7645,3.7645,0,0,1,1.0469.1694.2534.2534,0,0,1,.0771.1387c.0156.1694.0772.4775.0918.7236,0,.1694-.03.2466-.0762.2466-.0625,0-.0927-.0772-.1386-.1851a1.1706,1.1706,0,0,0-.37-.6313,1.2626,1.2626,0,0,0-.7237-.231.8973.8973,0,0,0-.9248.869Q319.839,60.1411,319.8418,60.184Z" style="fill: #333838"/>
    <path d="M323.8145,64.1254a1.7312,1.7312,0,0,1-.1846-.8774V60.061c0-.1695-.0156-.2769-.0772-.3082a2.5184,2.5184,0,0,0-.3691-.0922c-.1231-.0308-.2-.0767-.2-.1382,0-.0313.0156-.0772.1846-.1543a3.2827,3.2827,0,0,0,1.2627-1.0313c.1386-.1543.2461-.1235.2461-.0464,0,.1387-.03.57-.0147.7544,0,.0464.0147.1387.0762.1387.2773,0,1.5556-.0464,1.8789-.0464.03,0,.0918.1079.0918.2158,0,.2618-.0762.3848-.1533.3848-.5391,0-1.294-.0156-1.709-.0156-.1846,0-.2158.0464-.2158.1387,0,.2617.0156,2.6792.0312,3.1562a1.5763,1.5763,0,0,0,.169.8315,1.1375,1.1375,0,0,0,.9541.4156,1.5085,1.5085,0,0,0,.8476-.231c.1074-.0771.1533-.0615.1533,0,0,.0923-.1387.2466-.3389.4a2.11,2.11,0,0,1-1.2471.4A1.4269,1.4269,0,0,1,323.8145,64.1254Z" style="fill: #333838"/>
    <path d="M333.0537,61.9086a2.9568,2.9568,0,1,1-4.8037-2.2632,3.1643,3.1643,0,0,1,1.8477-.6469A2.8891,2.8891,0,0,1,333.053,61.82C333.0537,61.85,333.0539,61.8791,333.0537,61.9086Zm-4.8037-.2158a3.5219,3.5219,0,0,0,.6475,2.1094,1.8282,1.8282,0,0,0,1.4472.8159,1.52,1.52,0,0,0,.97-.3848,3.0687,3.0687,0,0,0,.6464-2.063c0-1.4629-.7392-2.91-2.0937-2.91C329.082,59.26,328.25,60.0917,328.25,61.6928Z" style="fill: #333838"/>
    <path d="M335.9189,60.1225a.8883.8883,0,0,0-.2617.539,9.0782,9.0782,0,0,0-.0156.939c0,1.14.0313,1.94.0615,2.2632.0615.4775.2471.5854.8321.647.2148.0307.2919.0615.2919.1381s-.1386.108-.3691.108c-.293,0-.8008-.0616-1.4473-.0616a8.3324,8.3324,0,0,0-.9394.0923c-.1846,0-.2617-.0307-.2617-.0923,0-.0464.1084-.123.2314-.1538a.6364.6364,0,0,0,.5538-.6313c.0313-.2617.0469-1.1392.0469-2.1553v-1.709c0-.1079-.1084-.1543-.4-.4-.1084-.0771-.123-.123-.123-.1543s.0918-.0923.23-.1382a4.6681,4.6681,0,0,0,.9854-.37.4854.4854,0,0,1,.2314-.0771c.03,0,.0616.0615.0616.2158,0,.1694-.0156.7544-.0156,1.0005,0,.0464.03.0615.0772.0156a2.512,2.512,0,0,1,1.6621-1.1089.897.897,0,0,1,.539.2.27.27,0,0,1,.1084.2158,1.056,1.056,0,0,1-.3388.5235c-.1387.123-.2.1386-.2471.1386a.6954.6954,0,0,1-.2764-.1079,1.08,1.08,0,0,0-.539-.1845A1.0519,1.0519,0,0,0,335.9189,60.1225Z" style="fill: #333838"/>
    <path d="M340.6631,59.1371c.1533,0,.2617.0464.2617.1079s-.1084.1079-.2.1231c-.3389.1079-.37.185-.2315.5849.2.5391,1.0469,2.6177,1.3555,3.2642.03.0615.0762.0464.0918,0,.2-.5234,1.0625-2.7407,1.1856-3.0947a1.1531,1.1531,0,0,0,.077-.4463c0-.1079-.077-.231-.3388-.3081-.2305-.0459-.2774-.0923-.2774-.1387,0-.0615.0772-.0923.2158-.0923.1846,0,.5078.0464.7393.0464.2773,0,.4775-.0464.708-.0464.0928,0,.1846.0156.1846.0615s-.0616.108-.2149.1543c-.3086.0923-.4619.2-.709.77-.1845.3852-1.1386,2.7558-1.37,3.3413-.1845.5078-.3232.8618-.6465,1.6933-.3691.8931-.9541,2.4942-1.17,3.0176a2.0963,2.0963,0,0,1-.293.57.5791.5791,0,0,1-.5078.2618.5118.5118,0,0,1-.5078-.5083.4541.4541,0,0,1,.4307-.4463c.1083,0,.2.0307.3085.0307a.3714.3714,0,0,0,.3995-.2617c.1543-.3232.6005-1.5859,1.124-2.9253a.6632.6632,0,0,0-.0146-.4927c-.0928-.2465-1.2168-3.0947-1.9092-4.6035a.8264.8264,0,0,0-.5547-.4155c-.1846-.0464-.2773-.1079-.2773-.1543,0-.0767.1386-.1074.247-.1074.2764,0,.708.0615,1.0772.0615C340.0625,59.1835,340.4629,59.1371,340.6631,59.1371Z" style="fill: #333838"/>
    <path d="M244.8438,78.7079a2.9569,2.9569,0,1,1-4.8038-2.2627,3.1619,3.1619,0,0,1,1.8477-.6465,2.8892,2.8892,0,0,1,2.9554,2.8214C244.8438,78.6494,244.844,78.6786,244.8438,78.7079Zm-4.8038-.2148a3.53,3.53,0,0,0,.6465,2.1094,1.832,1.832,0,0,0,1.4473.8154,1.5234,1.5234,0,0,0,.9707-.3848,3.0689,3.0689,0,0,0,.6465-2.0635c0-1.4619-.7393-2.9091-2.0938-2.9091C240.8711,76.06,240.04,76.8915,240.04,78.4931Z" style="fill: #333838"/>
    <path d="M246.4316,76.7528c0-.1074-.0156-.1845-.0771-.2-.0772,0-.2461,0-.4307-.0157-.1084-.0146-.2-.0918-.2-.123,0-.0459.0762-.0918.1846-.1533s.2305-.1387.3691-.2315a.2975.2975,0,0,0,.1543-.2158,9.8286,9.8286,0,0,1,.2618-2.5244,3.5454,3.5454,0,0,1,1.5546-2.0479,2.5209,2.5209,0,0,1,1.3858-.4155c.6308,0,1.0469.2617,1.0469.4927a.7547.7547,0,0,1-.3848.5078.2768.2768,0,0,1-.3076-.0308,1.82,1.82,0,0,0-1.0938-.5234c-.6924,0-1.2314.4468-1.3857,2.0942-.0459.4771-.0762,1.57-.0762,2.0479a4.7,4.7,0,0,0,.0147.4922.1216.1216,0,0,0,.124.0927c.1377,0,1.4463-.0312,1.6162-.0312.0615,0,.123.0928.123.2773,0,.2159-.0312.2774-.2158.2774-.2461,0-1.3545-.0313-1.57-.0313-.0459,0-.0771.1231-.0771.1387,0,.5693.0312,3.3721.0468,3.8184.0459.5849.169.708.3233.7539.123.0468.292.0468.4922.0927.1845.0459.2773.0772.2773.1387,0,.0772-.1074.1074-.2461.1074-.4463,0-.6933-.0459-1.4785-.0459-.3535,0-.6924.0459-.9541.0616-.1387,0-.2314-.03-.2314-.0928s.1084-.1074.3086-.1533c.3691-.0928.4462-.3086.4462-.8623Z" style="fill: #333838"/>
    <path d="M260.4121,72.3188a.2753.2753,0,0,1,.1543.2617,11.6693,11.6693,0,0,0,.0459,1.1855c0,.1543-.0615.2466-.0928.2466-.0615,0-.1074-.0771-.1386-.2a2.4081,2.4081,0,0,0-.7383-1.2319,3.5314,3.5314,0,0,0-2.3565-.7695,3.7155,3.7155,0,0,0-2.6787,1.2006,5.5586,5.5586,0,0,0-1.17,3.5723,5.834,5.834,0,0,0,1.417,3.7256,3.6727,3.6727,0,0,0,2.6318,1.14,3.27,3.27,0,0,0,1.833-.4316,2.76,2.76,0,0,0,1.1856-1.5088c.0615-.2.0918-.2617.1533-.2617s.0928.1387.0928.2314a10.82,10.82,0,0,1-.2158,1.2159.4125.4125,0,0,1-.1543.2314,5.5853,5.5853,0,0,1-3.002.8467A5.3,5.3,0,0,1,253.376,80.14a5.3884,5.3884,0,0,1-1.293-3.4033,4.9108,4.9108,0,0,1,1.7236-3.895,5.5361,5.5361,0,0,1,3.5879-1.2778A7.11,7.11,0,0,1,260.4121,72.3188Z" style="fill: #333838"/>
    <path d="M265.3105,76.5839a3.7148,3.7148,0,0,1,.2159,1.4c0,.57-.0469,2.0332-.0469,2.4326a.5278.5278,0,0,0,.57.585.9857.9857,0,0,0,.4463-.1377c.0918-.0469.1533,0,.0918.1377a1.2951,1.2951,0,0,1-1.1856.6621,1.0332,1.0332,0,0,1-.9082-.6924.053.053,0,0,0-.0728-.0184l-.0043.0028a2.1515,2.1515,0,0,1-1.5088.6933,1.2775,1.2775,0,0,1-1.2315-1.3219l0-.0023a1.0848,1.0848,0,0,1,.5546-.8779c.3692-.2,1.7706-.6153,2.0938-.7393a.2906.2906,0,0,0,.2-.23,5.3,5.3,0,0,0,.03-.7081c0-.6318-.1075-1.0625-.3692-1.2626a1.17,1.17,0,0,0-.6465-.2461,1.0611,1.0611,0,0,0-.6162.1845.6122.6122,0,0,0-.23.3692,1.5514,1.5514,0,0,0-.0157.2929.1945.1945,0,0,1-.0615.1231,3.3643,3.3643,0,0,1-.7236.3389c-.0772.0156-.1543-.0772-.1543-.1387,0-.1074.1084-.2461.2929-.4619a3.9849,3.9849,0,0,1,1.17-.8926,2.0561,2.0561,0,0,1,.9238-.2774A1.2612,1.2612,0,0,1,265.3105,76.5839Zm-1.0312,4.2334a.6392.6392,0,0,0,.1689-.3691,11.07,11.07,0,0,0,.0772-1.4629c0-.0157-.0313-.0918-.0615-.0772a8.7525,8.7525,0,0,0-1.417.5235.7977.7977,0,0,0-.3848.77.8945.8945,0,0,0,.9238.8623A1.0571,1.0571,0,0,0,264.2793,80.8173Z" style="fill: #333838"/>
    <path d="M268.9756,76.9228a.8847.8847,0,0,0-.2617.5381,9.03,9.03,0,0,0-.0147.9394c0,1.14.03,1.94.0615,2.2637.0616.4765.2461.5849.8311.6465.2158.03.293.0615.293.1386s-.1387.1075-.37.1075c-.2919,0-.8007-.0616-1.4472-.0616a8.2463,8.2463,0,0,0-.9385.0928c-.1855,0-.2617-.0312-.2617-.0928,0-.0459.1074-.123.23-.1543a.6362.6362,0,0,0,.5546-.6308c.03-.2617.0459-1.14.0459-2.1553v-1.709c0-.1084-.1084-.1543-.4-.4-.1075-.0771-.1231-.123-.1231-.1543s.0918-.0918.2305-.1386a4.6014,4.6014,0,0,0,.9853-.3692.4879.4879,0,0,1,.2315-.0771c.03,0,.0615.0615.0615.2158,0,.1689-.0156.7539-.0156,1.001,0,.0459.0312.0615.0771.0146a2.515,2.515,0,0,1,1.663-1.1084.894.894,0,0,1,.5381.2.2691.2691,0,0,1,.1084.2158,1.055,1.055,0,0,1-.3389.5235c-.1387.123-.2.1386-.2461.1386a.6893.6893,0,0,1-.2773-.1084,1.0812,1.0812,0,0,0-.5391-.1845A1.05,1.05,0,0,0,268.9756,76.9228Z" style="fill: #333838"/>
    <path d="M273.38,76.9228a.8847.8847,0,0,0-.2617.5381,9.0862,9.0862,0,0,0-.0147.9394c0,1.14.03,1.94.0615,2.2637.0616.4765.2461.5849.8311.6465.2158.03.293.0615.293.1386s-.1387.1075-.37.1075c-.2919,0-.8007-.0616-1.4472-.0616a8.2463,8.2463,0,0,0-.9385.0928c-.1855,0-.2617-.0312-.2617-.0928,0-.0459.1074-.123.2305-.1543a.6361.6361,0,0,0,.5546-.6308c.03-.2617.0459-1.14.0459-2.1553v-1.709c0-.1084-.1084-.1543-.4-.4-.1074-.0771-.123-.123-.123-.1543s.0918-.0918.2305-.1386a4.5974,4.5974,0,0,0,.9853-.3692.4879.4879,0,0,1,.2315-.0771c.03,0,.0615.0615.0615.2158,0,.1689-.0156.7539-.0156,1.001,0,.0459.0312.0615.0771.0146a2.515,2.515,0,0,1,1.6631-1.1084.8942.8942,0,0,1,.5381.2.27.27,0,0,1,.1084.2158,1.0557,1.0557,0,0,1-.3389.5235c-.1387.123-.2.1386-.2461.1386a.6887.6887,0,0,1-.2773-.1084,1.0816,1.0816,0,0,0-.5391-.1845A1.05,1.05,0,0,0,273.38,76.9228Z" style="fill: #333838"/>
    <path d="M276.2607,76.245a7.632,7.632,0,0,0,1.1084-.4.6266.6266,0,0,1,.2305-.1074c.0469,0,.0772.0459.0615.2149-.03.3086-.03,1.247-.03,2.2324,0,1.2939,0,2.4326.03,2.6943.0313.3086.1856.3858.4317.4473.1543.03.23.0615.23.123,0,.0772-.123.1075-.2461.1075-.1386,0-.708-.0616-1.124-.0616-.5078,0-.7539.0313-.9238.0313-.1074,0-.2148-.0313-.2148-.0928s.0761-.1074.2919-.1387c.3389-.0927.4776-.2158.4932-.8466.0147-.462.0459-3.2637.0459-3.418,0-.2158-.0156-.3076-.4463-.5391-.0771-.0459-.123-.0918-.123-.123C276.0762,76.3222,276.1221,76.2753,276.2607,76.245Zm1.5391-2.51a.5855.5855,0,0,1-.5693.5849.5477.5477,0,0,1-.5078-.5693.5706.5706,0,0,1,.5389-.6006h0a.5628.5628,0,0,1,.5383.5853Z" style="fill: #333838"/>
    <path d="M283.1436,75.9521c.123,0,.1689,0,.2.0468.0146.03-.0157.1075-.0626.169-.4921.5849-2.0166,3.3564-2.8476,4.8193-.0156.0615-.0156.1387.0459.1387.2.03,1.001.0615,1.4785.0615a1.98,1.98,0,0,0,1.0772-.17,2.604,2.604,0,0,0,.539-.6152c.0928-.1387.1543-.2315.2158-.2315.0918,0,.0616.2,0,.4a7.6327,7.6327,0,0,1-.3388.8311.2724.2724,0,0,1-.2617.124h-1.14c-.5693,0-1.3242-.0469-1.8018-.0469a11.1713,11.1713,0,0,0-1.1855.0469c-.1689.0146-.1992-.1084-.0459-.2774.1084-.1543.6318-.97,1.0313-1.5859.4316-.6777,1.6171-2.6787,1.8945-3.2637.0459-.0615.03-.1084-.0156-.1084h-1.94a.8765.8765,0,0,0-.77.5235c-.1074.2158-.1689.2617-.2.2617-.0615,0-.0918-.1231-.0156-.3233.0615-.2158.247-.77.3086-1.0312.03-.1846.1386-.1543.2,0,.0615.1387.2.1846.415.2a16.5468,16.5468,0,0,0,2.125.0615C282.4658,75.9833,282.835,75.9677,283.1436,75.9521Z" style="fill: #333838"/>
    <path d="M288.2256,76.5839a3.7368,3.7368,0,0,1,.2148,1.4c0,.57-.0459,2.0332-.0459,2.4326a.5272.5272,0,0,0,.5694.585.9884.9884,0,0,0,.4472-.1377c.0918-.0469.1534,0,.0918.1377a1.2962,1.2962,0,0,1-1.1855.6621,1.0332,1.0332,0,0,1-.9082-.6924.0533.0533,0,0,0-.0731-.0183l-.0041.0027a2.1533,2.1533,0,0,1-1.5088.6933,1.2775,1.2775,0,0,1-1.2315-1.3219l0-.0023a1.0864,1.0864,0,0,1,.5537-.8779c.37-.2,1.7715-.6153,2.0947-.7393a.29.29,0,0,0,.2-.23,5.3,5.3,0,0,0,.03-.7081c0-.6318-.1074-1.0625-.3691-1.2626a1.17,1.17,0,0,0-.6465-.2461,1.0587,1.0587,0,0,0-.6162.1845.6183.6183,0,0,0-.2315.3692,1.6677,1.6677,0,0,0-.0146.2929.1939.1939,0,0,1-.0616.1231,3.3643,3.3643,0,0,1-.7236.3389c-.0771.0156-.1543-.0772-.1543-.1387,0-.1074.1074-.2461.293-.4619a3.9682,3.9682,0,0,1,1.17-.8926,2.0532,2.0532,0,0,1,.9238-.2774A1.2624,1.2624,0,0,1,288.2256,76.5839Zm-1.0322,4.2334a.6394.6394,0,0,0,.17-.3691,11.0873,11.0873,0,0,0,.0771-1.4629c0-.0157-.0312-.0918-.0625-.0772a8.7794,8.7794,0,0,0-1.416.5235.7977.7977,0,0,0-.3848.77.8944.8944,0,0,0,.9239.8623A1.0528,1.0528,0,0,0,287.1934,80.8173Z" style="fill: #333838"/>
    <path d="M291.6592,77.7538c0,1.94.0156,2.6631.0312,2.9561.0147.416.1075.5234.5381.6006.0928.0156.2.0615.2.1074,0,.0615-.1074.1084-.3076.1084-.2461,0-.8008-.0313-1.0625-.0313-.4,0-.8008.0313-1.0313.0313-.1845,0-.2617-.0156-.2617-.0928s.0772-.0928.2774-.1387c.3847-.0771.4765-.2158.5381-.8925.0312-.57.0927-3.1719.1084-5.02,0-1.247.0156-2.51,0-3.187,0-.3388-.0313-.4155-.4317-.6621-.1074-.0615-.1533-.0923-.1533-.1382s.0918-.0927.23-.1235a7.99,7.99,0,0,0,1.1552-.354.64.64,0,0,1,.1846-.0464c.03,0,.0459.0928.0459.1694,0,.1079-.0615,2.7715-.0615,5.0811Z" style="fill: #333838"/>
    <path d="M293.6152,76.245a7.581,7.581,0,0,0,1.1084-.4.62.62,0,0,1,.2315-.1074c.0459,0,.0761.0459.0615.2149-.0312.3086-.0312,1.247-.0312,2.2324,0,1.2939,0,2.4326.0312,2.6943.03.3086.1846.3858.4307.4473.1543.03.2314.0615.2314.123,0,.0772-.124.1075-.2471.1075-.1386,0-.708-.0616-1.124-.0616-.5078,0-.7539.0313-.9228.0313-.1084,0-.2159-.0313-.2159-.0928s.0772-.1074.292-.1387c.3389-.0927.4776-.2158.4932-.8466.0156-.462.0459-3.2637.0459-3.418,0-.2158-.0156-.3076-.4463-.5391-.0771-.0459-.123-.0918-.123-.123C293.4307,76.3222,293.4766,76.2753,293.6152,76.245Zm1.54-2.51a.5864.5864,0,0,1-.57.5849.5476.5476,0,0,1-.5079-.5693.5706.5706,0,0,1,.5389-.6006h0a.5637.5637,0,0,1,.5389.5853Z" style="fill: #333838"/>
    <path d="M298.1738,77.7538c0,1.94.0157,2.6631.0313,2.9561.0146.416.1074.5234.5381.6006.0927.0156.2.0615.2.1074,0,.0615-.1075.1084-.3077.1084-.2461,0-.8007-.0313-1.0625-.0313-.4,0-.8007.0313-1.0312.0313-.1846,0-.2617-.0156-.2617-.0928s.0771-.0928.2773-.1387c.3848-.0771.4766-.2158.5381-.8925.0313-.57.0928-3.1719.1084-5.02,0-1.247.0156-2.51,0-3.187,0-.3388-.0312-.4155-.4316-.6621-.1075-.0615-.1534-.0923-.1534-.1382s.0918-.0927.2305-.1235a7.9916,7.9916,0,0,0,1.1553-.354.64.64,0,0,1,.1846-.0464c.03,0,.0459.0928.0459.1694,0,.1079-.0616,2.7715-.0616,5.0811Z" style="fill: #333838"/>
    <path d="M301.4385,77.7538c0,1.94.0156,2.6631.0312,2.9561.0147.416.1074.5234.5381.6006.0928.0156.2.0615.2.1074,0,.0615-.1074.1084-.3076.1084-.2461,0-.8008-.0313-1.0625-.0313-.4,0-.8008.0313-1.0313.0313-.1845,0-.2617-.0156-.2617-.0928s.0772-.0928.2774-.1387c.3847-.0771.4765-.2158.5381-.8925.0312-.57.0927-3.1719.1084-5.02,0-1.247.0156-2.51,0-3.187,0-.3388-.0313-.4155-.4317-.6621-.1074-.0615-.1533-.0923-.1533-.1382s.0918-.0927.2305-.1235a7.99,7.99,0,0,0,1.1552-.354.64.64,0,0,1,.1846-.0464c.03,0,.0459.0928.0459.1694,0,.1079-.0615,2.7715-.0615,5.0811Z" style="fill: #333838"/>
    <path d="M308.875,78.7079A2.9486,2.9486,0,0,1,305.95,81.68h0a2.936,2.936,0,0,1-1.8789-5.2344,3.1639,3.1639,0,0,1,1.8476-.6465,2.8885,2.8885,0,0,1,2.9556,2.82C308.875,78.6486,308.8752,78.6783,308.875,78.7079Zm-4.8037-.2148a3.5242,3.5242,0,0,0,.6475,2.1094,1.8289,1.8289,0,0,0,1.4472.8154,1.5221,1.5221,0,0,0,.97-.3848,3.0689,3.0689,0,0,0,.6465-2.0635c0-1.4619-.7392-2.9091-2.0937-2.9091C304.9033,76.06,304.0713,76.8915,304.0713,78.4931Z" style="fill: #333838"/>
    <path d="M312.3877,76.245a7.5852,7.5852,0,0,0,1.1084-.4.62.62,0,0,1,.2314-.1074c.0459,0,.0762.0459.0616.2149-.0313.3086-.0313,1.247-.0313,2.2324,0,1.2939,0,2.4326.0313,2.6943.03.3086.1845.3858.4306.4473.1543.03.2315.0615.2315.123,0,.0772-.1241.1075-.2471.1075-.1387,0-.708-.0616-1.124-.0616-.5078,0-.7539.0313-.9239.0313-.1073,0-.2148-.0313-.2148-.0928s.0772-.1074.292-.1387c.3389-.0927.4775-.2158.4932-.8466.0156-.462.0459-3.2637.0459-3.418,0-.2158-.0157-.3076-.4463-.5391-.0772-.0459-.1231-.0918-.1231-.123C312.2031,76.3222,312.249,76.2753,312.3877,76.245Zm1.54-2.51a.5864.5864,0,0,1-.57.5849.5477.5477,0,0,1-.5078-.5693.5713.5713,0,0,1,.5391-.6006.5636.5636,0,0,1,.5387.5853Z" style="fill: #333838"/>
    <path d="M320.0869,76.3222a3.2154,3.2154,0,0,1,.4922,2.0166c0,.8164.0156.9394.0156,1.709.0157,1.0468.0615,1.14.4776,1.247.1386.0616.23.0928.23.1543,0,.0918-.123.1075-.2773.1075-.2,0-.6465-.0616-.9854-.0616-.5234,0-.7236.0616-.9541.0616-.1386,0-.2461-.03-.2461-.0928s.0918-.1231.292-.169c.37-.0927.4317-.2.4317-.6464V78.5546c0-1.2471-.1084-1.6172-.4932-1.9092a1.3689,1.3689,0,0,0-.8769-.2929,1.8426,1.8426,0,0,0-1.2012.4931.7935.7935,0,0,0-.1846.4619c0,.1846.0147.97.0147,1.8936a12.5257,12.5257,0,0,0,.0927,1.6162c.0459.3389.2305.416.4776.4932.1845.0459.2617.0771.2617.1533,0,.0928-.1543.0928-.3086.0928-.123,0-.8769-.0616-1.2314-.0616-.2,0-.5235.0313-.8155.0313-.17,0-.2929-.0313-.2929-.1084,0-.0615.1386-.1231.3232-.1533.3848-.0772.4463-.1856.4619-.4932.0313-1.1084.0313-2.5254.0313-3.7725,0-.1533-.0313-.3232-.4-.5234-.0928-.0615-.1231-.0918-.1231-.1377,0-.0312.0762-.0771.2149-.124a5.7335,5.7335,0,0,0,1.2168-.5235c.0459-.0146.123.0469.1074.1231a6.91,6.91,0,0,0-.03.8164c0,.0312.0459.0771.0762.0459a5.3415,5.3415,0,0,1,1.0937-.6924,2.0757,2.0757,0,0,1,.9082-.1846A1.5724,1.5724,0,0,1,320.0869,76.3222Z" style="fill: #333838"/>
    <path d="M240.3789,95.123a2.7251,2.7251,0,0,0,.6465,1.8935,2.039,2.039,0,0,0,1.34.5391,1.94,1.94,0,0,0,1.4932-.5235c.0771-.0615.1387-.0615.1387,0a.5536.5536,0,0,1-.1231.2774,2.5759,2.5759,0,0,1-2.1709,1.14,2.8327,2.8327,0,0,1-1.77-5.0195,3.8357,3.8357,0,0,1,2.2627-.8779,2.359,2.359,0,0,1,1.5088.416.4163.4163,0,0,1,.1855.293.5693.5693,0,0,1-.4931.6.63.63,0,0,1-.2617-.1386,6.7924,6.7924,0,0,0-.97-.7237,1.1851,1.1851,0,0,0-.57-.124C241.18,92.8749,240.3789,93.3837,240.3789,95.123Z"/>
    <path d="M250.7568,95.4618a3.0819,3.0819,0,0,1-1.2,2.417,3.2571,3.2571,0,0,1-1.8476.6006,2.9774,2.9774,0,0,1-3.0926-2.8574c-.0011-.0275-.0018-.0551-.0021-.0826a2.8307,2.8307,0,0,1,1.0927-2.2783,3.1347,3.1347,0,0,1,1.9707-.709,2.9218,2.9218,0,0,1,3.0747,2.7605Q250.7567,95.3872,250.7568,95.4618Zm-4.5107-.3388a4.6215,4.6215,0,0,0,.4775,2.2636,1.4884,1.4884,0,0,0,1.17.8467.9108.9108,0,0,0,.708-.3545,3.6348,3.6348,0,0,0,.5088-2.0937c0-1.7549-.4932-2.9717-1.5713-2.9717-.6612,0-1.293.9707-1.293,2.31Z"/>
    <path d="M253.7451,94.5536c0,2.001.0156,2.6172.0313,2.8946.0156.4921.1074.5537.5078.6464.0928.0157.2.0616.2.1387,0,.0615-.1533.1074-.3076.1074-.462,0-1.0782-.0459-1.3086-.0459-.4161,0-.7393.0313-1.1553.0313-.1533,0-.2764-.0313-.2764-.1084s.1074-.1074.2305-.1387c.416-.0771.5078-.1689.5391-.831.03-.6309.0927-3.4952.1074-4.9727,0-.8467.0156-2.48,0-3.0029,0-.3535-.0772-.4619-.4307-.6465-.1084-.0615-.1543-.1231-.1543-.169s.0928-.0927.2315-.123a8.7711,8.7711,0,0,0,1.5546-.4316.6775.6775,0,0,1,.2159-.0616c.03,0,.0615.0928.0615.17,0,.1074-.0469,2.6787-.0469,5.3418Z"/>
    <path d="M261.3516,95.4618a3.0819,3.0819,0,0,1-1.2,2.417,3.2574,3.2574,0,0,1-1.8477.6006,2.9774,2.9774,0,0,1-3.0926-2.8574c-.0011-.0275-.0018-.0551-.0021-.0826a2.83,2.83,0,0,1,1.0928-2.2783,3.1347,3.1347,0,0,1,1.9707-.709,2.9219,2.9219,0,0,1,3.0747,2.7607Q261.3515,95.3872,261.3516,95.4618Zm-4.5108-.3388a4.62,4.62,0,0,0,.4776,2.2636,1.4882,1.4882,0,0,0,1.17.8467.9108.9108,0,0,0,.708-.3545,3.6348,3.6348,0,0,0,.5088-2.0937c0-1.7549-.4932-2.9717-1.5713-2.9717C257.4727,92.8134,256.8408,93.7841,256.8408,95.123Z"/>
    <path d="M264.4951,93.8144a.6375.6375,0,0,0-.17.3545,10.1958,10.1958,0,0,0-.03,1.1855c0,1.0928.03,1.7393.0615,2.0938.0616.4619.169.5693.7393.6464.2148.0313.2764.0772.2764.1543s-.1232.1075-.3233.1075c-.4307,0-.7081-.0616-1.4473-.0616-.9238,0-.9082.0772-1.2774.0772-.2,0-.293-.0459-.293-.1084s.0617-.1377.2315-.169c.3535-.0771.4766-.2.5235-.6308.0147-.2617.03-1.14.0459-2.1563,0-.97.0156-1.37,0-1.5547,0-.0918-.0459-.123-.4-.4306-.0918-.0772-.123-.1084-.123-.1543s.1074-.1074.1689-.1387a7.8429,7.8429,0,0,0,1.4786-.5078.52.52,0,0,1,.2617-.0928c.03,0,.0771.0928.0771.17,0,.2764-.0312.7081-.0312,1.0469,0,.0772.0615.0918.0771.0459.4307-.5693.9854-1.124,1.586-1.124a.8615.8615,0,0,1,.5078.1543c.1543.1074.2158.1846.2158.3076a1.5785,1.5785,0,0,1-.4619.7393c-.1543.1543-.2315.1845-.3076.1845a.4331.4331,0,0,1-.2618-.1074,1.2582,1.2582,0,0,0-.6005-.2471A.7228.7228,0,0,0,264.4951,93.8144Z"/>
    <path d="M267.2979,93.0292a6.994,6.994,0,0,0,1.5087-.4619,1.3189,1.3189,0,0,1,.2315-.0918c.0459,0,.0762.0459.0615.2148-.0312.3233-.0312,1.1084-.0312,1.7559,0,1.7236,0,2.9561.0312,3.1865a.4651.4651,0,0,0,.415.4776c.17.0459.2159.0918.2159.1533,0,.0771-.1075.1084-.2315.1084-.2617,0-.6152-.0772-1.2617-.0772-.6777,0-1.0322.0313-1.2012.0313-.1386,0-.2617-.0469-.2617-.1084,0-.0772.0928-.1074.2774-.1387.4-.0918.5079-.292.5079-.831,0-.462.0459-3.1407.0459-3.295,0-.292,0-.3545-.4-.6308-.0762-.0615-.1231-.1084-.1231-.17C267.082,93.122,267.1289,93.0751,267.2979,93.0292Zm1.832-2.4482a.7376.7376,0,0,1-.7043.7695c-.0165.0007-.0331.0009-.05.0005a.6978.6978,0,0,1-.6475-.709.7372.7372,0,0,1,.6875-.7837l.0361-.0015a.7244.7244,0,0,1,.6779.7242Z"/>
    <path d="M275.5967,93.0751a2.7329,2.7329,0,0,1,.539,1.94c.0157.8926.0313,1.0469.0313,1.9092.0156.9541.0918,1.0772.5078,1.1856.0772.03.169.0615.169.1386,0,.0616-.0762.0918-.2149.0918-.3545,0-.8623-.0459-1.17-.0459a12.0994,12.0994,0,0,0-1.2783.0616c-.1543,0-.2618-.0459-.2618-.1075s.0928-.1084.2305-.1386c.416-.1231.4932-.2315.4932-.585V95.2616c0-1.1855-.0928-1.5088-.4619-1.8007a1.2229,1.2229,0,0,0-.7237-.2159,1.3861,1.3861,0,0,0-.831.292.4621.4621,0,0,0-.1543.3242c0,.292.0156,1.0157.0156,1.8008.0156.9551.0459,1.7246.0615,1.9092a.52.52,0,0,0,.4307.5234c.1846.0459.2471.0772.2471.1543,0,.0918-.17.1075-.2774.1075-.1543,0-1.0322-.0616-1.3857-.0616-.2,0-.6006.0313-1.0625.0313-.169,0-.293-.0469-.293-.124,0-.0616.1387-.1231.2774-.1534.4316-.0771.4619-.2.4775-.5546.0312-.8926.0459-2.2325.0459-3.6485,0-.1543-.0459-.2773-.3535-.4931-.1387-.0918-.1231-.1231-.1231-.1534,0-.0468.0762-.0927.2149-.124a7.8369,7.8369,0,0,0,1.6318-.6308c.0469-.0157.124.0459.124.123a5.9925,5.9925,0,0,0-.0312.7695c0,.0313.0459.0469.0771.0157a4.4186,4.4186,0,0,1,.9082-.6006,2.2394,2.2394,0,0,1,.9082-.2A1.5967,1.5967,0,0,1,275.5967,93.0751Z"/>
    <path d="M281.6348,92.86a1.2956,1.2956,0,0,0,.5234.0771c.2764,0,.8311-.0312,1.0928-.0312.0615,0,.1074.1386.1074.3691,0,.1543-.0918.3232-.1533.3232-.2315,0-.6934-.03-.8623-.03-.0313,0-.0772.0615-.0772.0771.0156.1231.0156.4.0156.6006a2.555,2.555,0,0,1-.9394,2.0166,2.4872,2.4872,0,0,1-1.3086.4307,3.4458,3.4458,0,0,1-.7236-.0918.2869.2869,0,0,0-.17.03,1.3062,1.3062,0,0,0-.3691.3085.4367.4367,0,0,0-.123.292c0,.37.4463.585,1.2929.585.4619,0,1.14-.0146,1.6944-.0146a1.8648,1.8648,0,0,1,1.2929.4306,1.7446,1.7446,0,0,1,.5391,1.3545,3.1015,3.1015,0,0,1-1.4941,2.34,3.9875,3.9875,0,0,1-2.2325.7237c-1.3857,0-2.2627-.6621-2.2627-1.6631a.8417.8417,0,0,1,.3077-.646c.1386-.17.6464-.6777.9238-.94a.094.094,0,0,0-.0313-.1074c-.292-.0928-1.2314-.6318-1.2314-1.3857,0-.1074.0311-.17.0615-.1846a11.6423,11.6423,0,0,0,1.34-1.1709c.0156-.0146,0-.0459-.0313-.0615a2.1944,2.1944,0,0,1-1.2158-1.8623,1.86,1.86,0,0,1,.6466-1.5088,2.51,2.51,0,0,1,1.7246-.6621A3.8522,3.8522,0,0,1,281.6348,92.86Zm-2.5869,8.7749a2.2768,2.2768,0,0,0,1.3544.416,2.6066,2.6066,0,0,0,1.4327-.3076,1.6445,1.6445,0,0,0,.7382-1.2622c0-.6006-.3388-1.14-1.3857-1.14-.5537,0-1.4316.0313-1.8623.0313a.9662.9662,0,0,0-.3857.0918,1.4535,1.4535,0,0,0-.5235,1.124,1.4716,1.4716,0,0,0,.6319,1.0469Zm.2617-8.6216a2.2831,2.2831,0,0,0-.3086,1.2324,3.2553,3.2553,0,0,0,.3857,1.6934,1.0337,1.0337,0,0,0,.8.5234c.57,0,.8633-.831.8633-1.5244a3.2852,3.2852,0,0,0-.4473-1.7861c-.2773-.3692-.4463-.462-.7236-.462a.8011.8011,0,0,0-.5691.3235Z"/>
    <path d="M291.2588,97.4169a3.62,3.62,0,0,1-2.5567,1.0625,5.1,5.1,0,0,1-1.8935-.415c-.0772-.0313-.169-.0313-.4463.0761-.0615.0313-.1074-.0615-.1074-.1074a12.1714,12.1714,0,0,0,.123-1.709c.03-.831.0616-3.1865.0772-4.8037,0-1.2773-.0156-2.0781-.0615-2.3867-.0469-.2461-.0772-.3379-.4-.5381-.1231-.0928-.17-.1387-.17-.17,0-.0459.0616-.1074.2471-.1387a10.7012,10.7012,0,0,0,1.585-.4306.6817.6817,0,0,1,.2773-.0772c.0313,0,.0615.0615.0615.2315-.0459.97-.0918,3.541-.0918,4.9111,0,.1074.0459.123.0918.1074a2.6169,2.6169,0,0,1,1.417-.4307,2.4976,2.4976,0,0,1,1.94.8311,2.7836,2.7836,0,0,1,.708,1.8477A3.061,3.061,0,0,1,291.2588,97.4169Zm-.7705-1.6162a3.6143,3.6143,0,0,0-.585-2.0322,1.8142,1.8142,0,0,0-1.3242-.6621,1.3047,1.3047,0,0,0-.585.1386.4133.4133,0,0,0-.1074.2618c-.0615.2773-.0459,1.7089-.0459,2.31a5.585,5.585,0,0,0,.2461,1.7549,1.1908,1.1908,0,0,0,.5235.4619,1.6614,1.6614,0,0,0,.6464.1387,1.084,1.084,0,0,0,.7852-.4932,3.9346,3.9346,0,0,0,.4316-1.8779Z"/>
    <path d="M299.1582,95.4618a3.0792,3.0792,0,0,1-1.2012,2.417,3.2537,3.2537,0,0,1-1.8466.6006,2.9767,2.9767,0,0,1-3.0926-2.8563q-.0016-.0418-.0022-.0837a2.8279,2.8279,0,0,1,1.0928-2.2783,3.1335,3.1335,0,0,1,1.9707-.709,2.9219,2.9219,0,0,1,3.0749,2.7605C299.1566,95.3623,299.1581,95.412,299.1582,95.4618Zm-4.5107-.3388a4.61,4.61,0,0,0,.4775,2.2636,1.4882,1.4882,0,0,0,1.17.8467.91.91,0,0,0,.708-.3545,3.6361,3.6361,0,0,0,.5078-2.0937c0-1.7549-.4921-2.9717-1.57-2.9717C295.2783,92.8134,294.6475,93.7841,294.6475,95.123Z"/>
    <path d="M306.2578,95.4618a3.0792,3.0792,0,0,1-1.2012,2.417,3.2537,3.2537,0,0,1-1.8466.6006,2.9767,2.9767,0,0,1-3.0926-2.8563q-.0016-.0418-.0022-.0837a2.8282,2.8282,0,0,1,1.0928-2.2783,3.1335,3.1335,0,0,1,1.9707-.709,2.9219,2.9219,0,0,1,3.0749,2.7605Q306.2577,95.3872,306.2578,95.4618Zm-4.5107-.3388a4.61,4.61,0,0,0,.4775,2.2636,1.4884,1.4884,0,0,0,1.17.8467.91.91,0,0,0,.708-.3545,3.6362,3.6362,0,0,0,.5079-2.0937c0-1.7549-.4922-2.9717-1.57-2.9717C302.3779,92.8134,301.7471,93.7841,301.7471,95.123Z"/>
    <path d="M311.3867,92.7372c.5694,0,1.0781-.0771,1.6172-.0771.169,0,.2617.0459.2617.0918,0,.0615-.0625.0927-.247.1386a2.704,2.704,0,0,0-1.3389.6778A13.935,13.935,0,0,0,310.54,94.6c-.03.0313,0,.0772.0157.1084.5537.7539,1.5859,2.0323,2.1865,2.6944.4463.4921.6.6308,1.0469.708.1533.03.2148.0771.2148.1386,0,.0772-.1229.1231-.292.1231-.8779,0-1.3555-.0772-2.0321-.0772-.293,0-.5235.0313-.7393.0313-.1845,0-.2617-.0313-.2617-.1084s.0615-.1074.292-.169c.2471-.0771.3086-.1845.17-.4-.2314-.3077-1.0625-1.34-1.54-1.8936-.1533-.1855-.2617-.3086-.3076-.3086s-.0459.0469-.0616.1231c-.0312.247-.0156,1.0937,0,1.6171.03.7539.2305.8008.5694.878.1543.03.2617.0918.2617.1533,0,.0928-.1846.123-.292.123-.4463,0-.9394-.0459-1.34-.0459-.6006,0-1.14.0616-1.2159.0616-.123,0-.2617-.0459-.2617-.1075s.0918-.1084.2149-.1386c.4619-.1084.5234-.2618.5547-.77.0615-1.124.077-2.2793.077-3.4648,0-.6465.03-3.3565.03-4.2188a3.2652,3.2652,0,0,0-.0614-.7382c0-.1084-.1387-.2159-.3692-.3389-.0615-.0459-.1388-.0928-.1388-.1387,0-.0615.1076-.123.293-.1543a5.3911,5.3911,0,0,0,1.4932-.4306.8462.8462,0,0,1,.2774-.0772.1451.1451,0,0,1,.0614.1074c-.0155.5391-.0927,2.0791-.0927,3.2334,0,.5235-.0772,3.1407-.0616,3.9112,0,.1386.03.2148.0772.2148a.7237.7237,0,0,0,.2617-.1377,8.1909,8.1909,0,0,0,1.6475-1.6015.5074.5074,0,0,0,.1386-.2461c0-.0772-.0927-.2159-.5546-.2774-.1543-.0312-.2461-.0615-.2461-.1387,0-.0615.123-.1074.2617-.1074Z"/>
    <path d="M316.085,95.1386c-.2-1.8018-.8164-3.4024-.8321-4.5108,0-.6162.416-1.3554,1.0323-1.3554.6767,0,1.0156.709,1.0156,1.3086,0,1.0166-.6465,3.0175-.8311,4.5117-.0459.3848-.123.4463-.1845.4463C316.1924,95.539,316.1309,95.4618,316.085,95.1386Zm-.6934,2.417a.94.94,0,0,1,.9082-.9541.92.92,0,0,1,.8779.9541.8942.8942,0,0,1-1.7861.0906Q315.3894,97.6009,315.3916,97.5556Z"/>
  </g>
</svg>
