<svg id="Layer_1" data-name="Layer 1" xmlns="http://www.w3.org/2000/svg" viewBox="0 0 399 200"><defs><style>.cls-1,.cls-2,.cls-3{fill:none;stroke-linecap:round;stroke-linejoin:round;}.cls-1,.cls-3{stroke:#222f3c;}.cls-1{stroke-width:0.5px;}.cls-2{stroke:#231f20;}.cls-2,.cls-3{stroke-width:0.4px;}.cls-4{fill:#333838;}</style></defs><line class="cls-1" x1="135.4237" y1="113.9737" x2="135.4237" y2="117.0498"/><line class="cls-1" x1="122.7839" y1="122.1196" x2="122.7839" y2="127.1979"/><line class="cls-1" x1="145.2484" y1="122.1196" x2="145.2484" y2="127.1979"/><rect class="cls-1" x="132.4652" y="120.6264" width="5.9732" height="6.6051" rx="1"/><line class="cls-1" x1="108.0518" y1="122.1196" x2="108.0518" y2="127.1979"/><polyline class="cls-1" points="110.253 120.036 124.701 120.036 135.361 107.969 116.395 107.969 105.734 120.036"/><line class="cls-1" x1="135.4598" y1="107.9854" x2="146.1206" y2="120.0527"/><line class="cls-1" x1="150.419" y1="106.7446" x2="150.419" y2="109.8207"/><line class="cls-1" x1="160.2437" y1="114.7229" x2="160.2437" y2="119.8012"/><rect class="cls-1" x="147.4606" y="113.3693" width="5.9732" height="6.6051" rx="1"/><polyline class="cls-1" points="139.696 112.807 150.357 100.74 131.391 100.74 124.929 107.922"/><line class="cls-1" x1="150.4551" y1="100.7563" x2="161.1159" y2="112.8235"/><line class="cls-1" x1="78.434" y1="127.2277" x2="151.2605" y2="127.2277"/><line class="cls-1" x1="152.6442" y1="119.9659" x2="202.2042" y2="119.9659"/><line class="cls-1" x1="78.434" y1="127.2277" x2="151.2605" y2="127.2277"/><path class="cls-1" d="M178.3479,101.9893a4.4751,4.4751,0,0,0-8.9062,0,4.2209,4.2209,0,0,0-.0044,8.2364c-.002.0515-.0082.1019-.0082.1538a4.47,4.47,0,0,0,8.9314,0c0-.0519-.0061-.1023-.0081-.1538"/><line class="cls-1" x1="173.9472" y1="107.3185" x2="177.4437" y2="104.1624"/><line class="cls-1" x1="173.7014" y1="109.1685" x2="170.7027" y2="105.2281"/><line class="cls-1" x1="173.8006" y1="104.9059" x2="173.8006" y2="119.85"/><path class="cls-1" d="M178.4255,110.2063a3.3931,3.3931,0,0,0,2.3912,2.2023c-.0015.04-.0063.079-.0063.1192a3.493,3.493,0,0,0,6.9763,0c0-.04-.0048-.0793-.0063-.1192a3.2647,3.2647,0,0,0-.0035-6.3816,3.4116,3.4116,0,0,0-3.4784-3.1241,3.5057,3.5057,0,0,0-2.9694,1.6019"/><line class="cls-1" x1="184.3352" y1="110.4461" x2="187.0706" y2="107.7107"/><line class="cls-1" x1="184.1475" y1="111.5895" x2="181.8051" y2="108.5364"/><line class="cls-1" x1="184.2249" y1="108.2868" x2="184.2249" y2="119.8655"/><path class="cls-2" d="M163.9514,140.0779a.1528.1528,0,0,1-.1528-.1527V125.4467a.1529.1529,0,0,1,.1528-.1528h12.0309a.1529.1529,0,0,1,.0823.0241c.12.0772,2.9248,1.8927,3.8011,4.2275a2.41,2.41,0,0,0,1.6018-.51,1.8889,1.8889,0,0,0,.5544-1.4656"/><path class="cls-2" d="M175.85,140.0779a.1527.1527,0,0,1-.1527-.1527V136.123"/><path class="cls-2" d="M182.7,129.844l2.7424,4.1136a.1525.1525,0,0,1,.0256.0847V135.9a.1527.1527,0,0,1-.1527.1527h-6.2608v3.8723a.1528.1528,0,0,1-.1528.1527h-1.5923a.1528.1528,0,0,1-.1528-.1527v-3.8281h-2.2281"/><path class="cls-2" d="M167.1313,138.443v1.4862a.1487.1487,0,0,1-.1487.1487h-1.5509a.1488.1488,0,0,1-.1488-.1487v-3.8771"/><path class="cls-2" d="M175.85,136.0927h-5.6867a2.5665,2.5665,0,0,1-2.5625,2.4991"/><path class="cls-2" d="M162.1694,132.4058v-1.1574a.153.153,0,0,1,.0447-.108l.5229-.5228v-3.8292"/><path class="cls-2" d="M182.9246,131.9635a.1528.1528,0,0,1-.1528.1527H181.86a.1527.1527,0,0,1-.1527-.1527"/><line class="cls-2" x1="173.063" y1="140.0779" x2="162.3221" y2="140.0779"/><path class="cls-2" d="M185.4678,139.9252a.1527.1527,0,0,1-.1527.1527H175.2033"/><line class="cls-2" x1="194.8259" y1="138.5644" x2="194.8259" y2="139.9016"/><line class="cls-2" x1="193.3218" y1="136.7452" x2="193.3218" y2="139.9016"/><line class="cls-2" x1="191.7168" y1="138.5644" x2="191.7168" y2="139.9016"/><line class="cls-2" x1="194.8477" y1="138.5644" x2="194.8477" y2="139.9016"/><line class="cls-2" x1="188.5902" y1="138.5644" x2="188.5902" y2="139.9016"/><line class="cls-2" x1="187.0861" y1="136.7452" x2="187.0861" y2="139.9016"/><line class="cls-2" x1="185.481" y1="138.5644" x2="185.481" y2="139.9016"/><line class="cls-2" x1="191.7211" y1="138.5644" x2="191.7211" y2="139.9016"/><line class="cls-2" x1="190.217" y1="136.7452" x2="190.217" y2="139.9016"/><line class="cls-2" x1="188.612" y1="138.5644" x2="188.612" y2="139.9016"/><polyline class="cls-3" points="132.634 137.848 134.761 137.154 136.473 138.917"/><path class="cls-3" d="M136.4972,138.9211l13.5671-4.22-.2151,4.7305a2.687,2.687,0,0,0-2.2759,2.8247l-8.1692,2.5946Z"/><path class="cls-3" d="M147.6939,142.93a2.7269,2.7269,0,1,0-.1206-.6737A2.7144,2.7144,0,0,0,147.6939,142.93Zm1.1318-.3595a1.53,1.53,0,0,1,.9674-1.9079l.0256-.01a1.5268,1.5268,0,1,1-.993,1.9174Z"/><path class="cls-3" d="M148.7734,141.875a1.5248,1.5248,0,0,1,1.02-1.2125l.0256-.01a1.531,1.531,0,1,1-1.0453,1.222Z"/><line class="cls-3" x1="149.9232" y1="136.2142" x2="137.1577" y2="140.1646"/><line class="cls-3" x1="164.2898" y1="145.0326" x2="135.5028" y2="145.0326"/><path class="cls-1" d="M110.5533,84.9833H95.1306a1.95,1.95,0,0,1-1.53-1.9813,2.0244,2.0244,0,0,1,2.2019-1.9814h.9211c-.2233,0-.3516-1.04-.3516-1.6043a3.7416,3.7416,0,0,1,6.28-2.7613,3.8721,3.8721,0,0,1,5.1052-1.5545,5.1983,5.1983,0,0,1,9.389,3.1085,4.5514,4.5514,0,0,1-.8124,2.8116"/><path class="cls-1" d="M126.49,83.5057a2.8728,2.8728,0,0,1-4.8221,2.12,2.9734,2.9734,0,0,1-3.92,1.1936,3.9914,3.9914,0,0,1-7.209-2.3868,3.4951,3.4951,0,0,1,.6237-2.1588"/><path class="cls-1" d="M130.3312,78.3836a5.2888,5.2888,0,0,1-5.2888,5.2888"/><path class="cls-1" d="M155.6265,71.1315a2.0244,2.0244,0,0,1-2.2019,1.9814h-.9212c.2234,0,.3517,1.04.3517,1.6042a3.7416,3.7416,0,0,1-6.28,2.7613A3.8724,3.8724,0,0,1,141.47,79.033a5.1983,5.1983,0,0,1-9.3889-3.1086,4.5511,4.5511,0,0,1,.8124-2.8115"/><path class="cls-1" d="M122.7372,70.6278a2.8728,2.8728,0,0,1,4.8221-2.12,2.9734,2.9734,0,0,1,3.92-1.1936,3.9914,3.9914,0,0,1,7.209,2.3869,3.4946,3.4946,0,0,1-.6237,2.1587"/><path class="cls-1" d="M124.1847,81.0385a5.2887,5.2887,0,0,1,0-10.5774"/><line class="cls-1" x1="108.6294" y1="88.9653" x2="108.6294" y2="91.9914"/><line class="cls-1" x1="112.1987" y1="91.2068" x2="112.1987" y2="94.0088"/><line class="cls-1" x1="105.0602" y1="92.2627" x2="105.0602" y2="95.2888"/><line class="cls-1" x1="108.6295" y1="94.5042" x2="108.6295" y2="97.3062"/><line class="cls-1" x1="98.0768" y1="86.3271" x2="98.0768" y2="89.3532"/><line class="cls-1" x1="101.6461" y1="88.5687" x2="101.6461" y2="91.3706"/><line class="cls-1" x1="94.5075" y1="89.6245" x2="94.5075" y2="92.6506"/><line class="cls-1" x1="98.0768" y1="91.8661" x2="98.0768" y2="94.668"/><line class="cls-1" x1="145.7188" y1="80.8956" x2="145.7188" y2="83.9217"/><line class="cls-1" x1="149.2881" y1="83.1372" x2="149.2881" y2="85.9391"/><line class="cls-1" x1="142.1496" y1="84.193" x2="142.1496" y2="87.2191"/><line class="cls-1" x1="145.7189" y1="86.4346" x2="145.7189" y2="89.2365"/><line class="cls-1" x1="132.2177" y1="83.9993" x2="132.2177" y2="87.0254"/><line class="cls-1" x1="135.787" y1="86.2409" x2="135.787" y2="89.0429"/><line class="cls-1" x1="128.6484" y1="87.2967" x2="128.6484" y2="90.3228"/><line class="cls-1" x1="132.2177" y1="89.5383" x2="132.2177" y2="92.3403"/><line class="cls-1" x1="262.8489" y1="130.5773" x2="263.7124" y2="130.5773"/><line class="cls-1" x1="269.5911" y1="130.5773" x2="270.4546" y2="130.5773"/><line class="cls-1" x1="266.22" y1="132.7838" x2="267.0835" y2="132.7838"/><line class="cls-1" x1="283.7137" y1="130.5773" x2="284.5771" y2="130.5773"/><line class="cls-1" x1="290.4559" y1="130.5773" x2="291.3193" y2="130.5773"/><line class="cls-1" x1="287.0848" y1="132.7838" x2="287.9482" y2="132.7838"/><rect class="cls-1" x="274.5312" y="106.4099" width="5.1057" height="25.2706"/><polyline class="cls-1" points="258.772 127.686 258.772 135.675 295.396 135.675 295.396 127.686"/><polyline class="cls-1" points="274.531 119.697 258.772 119.697 258.772 111.708 274.531 111.708"/><polyline class="cls-1" points="274.531 127.686 258.772 127.686 258.772 119.697 274.531 119.697"/><line class="cls-1" x1="262.7119" y1="124.4789" x2="262.7119" y2="127.686"/><line class="cls-1" x1="266.6517" y1="124.4789" x2="266.6517" y2="127.686"/><line class="cls-1" x1="270.5915" y1="124.4789" x2="270.5915" y2="127.686"/><polyline class="cls-1" points="279.637 111.708 295.396 111.708 295.396 119.697 279.637 119.697"/><polyline class="cls-1" points="279.637 119.697 295.396 119.697 295.396 127.686 279.637 127.686"/><line class="cls-1" x1="283.5767" y1="124.4789" x2="283.5767" y2="127.686"/><line class="cls-1" x1="287.5164" y1="124.4789" x2="287.5164" y2="127.686"/><line class="cls-1" x1="291.4562" y1="124.4789" x2="291.4562" y2="127.686"/><path class="cls-1" d="M275.0657,103.4933a4.4494,4.4494,0,0,0-7.71,0"/><path class="cls-1" d="M286.8129,103.4933a4.4494,4.4494,0,0,0-7.7105,0"/><line class="cls-1" x1="277.0841" y1="96.1503" x2="277.0841" y2="100.5386"/><line class="cls-1" x1="238.1077" y1="121.6634" x2="209.3229" y2="121.6634"/><line class="cls-1" x1="245.8485" y1="121.6634" x2="236.6637" y2="121.6634"/><line class="cls-1" x1="235.6632" y1="118.1569" x2="245.8485" y2="118.1569"/><line class="cls-1" x1="209.3229" y1="118.1569" x2="239.1083" y2="118.1569"/><polyline class="cls-1" points="253.338 113.695 249.675 113.695 247.796 115.376 246.021 115.376 246.021 124.134 247.796 124.134 249.675 125.815 253.338 125.815"/><path class="cls-4" d="M257.2393,45.8279c.5078,0,.8466.0616,1.3086.0616.5078,0,.9853-.0616,1.3232-.0616.1387,0,.2314.0308.2314.0767,0,.062-.0615.1235-.2314.1387-.6152.0923-.6465.3232-.6768.9546-.0459.77-.0312,2.5556-.0312,3.51,0,2.2632.0312,3.5567.0615,4.0186.0469.5849.1387.6928.585.8008.2158.0459.2617.0922.2617.1689s-.1074.0928-.292.0928c-.2461,0-.6309-.0464-1.0781-.0464-.77,0-1.2158.0771-1.5088.0771-.1387,0-.2461-.0307-.2461-.1079,0-.0464.0771-.0923.3389-.1538.5693-.1235.6621-.37.6777-1.2934.03-.8931.0146-5.1421.0146-5.8658a12.8035,12.8035,0,0,0-.0615-1.478c-.0615-.5083-.2148-.57-.7383-.6929-.1084-.0307-.17-.0771-.17-.1235S257.1006,45.8279,257.2393,45.8279Z"/><path class="cls-4" d="M261.0586,50.4466c0-.0459.0615-.0767.1846-.1079a3.0545,3.0545,0,0,0,1.0468-.4619.4459.4459,0,0,1,.2305-.0923c.0469,0,.0772.0615.0772.1543,0,.1689-.0157.6,0,.7544,0,.0615.0156.1382.0771.0923a3.2375,3.2375,0,0,1,1.9092-.8931,1.5758,1.5758,0,0,1,1.539.97.103.103,0,0,0,.1084.0313,3.0872,3.0872,0,0,1,2.1094-1.0474,1.5871,1.5871,0,0,1,1.5547,1.14,5.0237,5.0237,0,0,1,.1846,1.4472c.0156.5078.0469,1.6782.0615,2.2168.0156.5083.1084.6157.4463.6778.2158.0459.2773.0922.2773.1381,0,.0772-.0771.1079-.2617.1079-.1689,0-.708-.0307-1.0625-.0307-.3691,0-.708.0464-.9385.0464-.2,0-.3086-.0308-.3086-.0928,0-.0767.1387-.123.2618-.1538.4472-.0923.5234-.231.5234-.6929a19.5442,19.5442,0,0,0-.1074-3.0483,1.1925,1.1925,0,0,0-1.293-1.1548,1.9227,1.9227,0,0,0-1.3086.57.7519.7519,0,0,0-.1084.4927c.0313.4311.0772,2.7866.1084,3.2021.0459.4312.0918.5391.4766.6314.17.0615.2471.0771.2471.1387s-.0928.0922-.2618.0922c-.2773,0-.7392-.0307-1.1855-.0307-.3389,0-.709.0307-.8779.0307s-.2461-.0307-.2461-.0922c0-.0464.0771-.1079.2773-.1538.3232-.0621.4766-.1387.4766-.5083l.0156-2.4634c0-.8467-.0772-1.2007-.3848-1.54a1.1765,1.1765,0,0,0-.9394-.3388,1.7414,1.7414,0,0,0-1.1543.4467.5581.5581,0,0,0-.1846.3692,9.4567,9.4567,0,0,0-.0615,1.0473c0,1.1392.0615,2.2168.0918,2.4942a.5254.5254,0,0,0,.4931.5078c.169.0308.23.0771.23.123,0,.0772-.123.1079-.23.1079-.2929,0-.8007-.0307-1.17-.0307-.4775,0-.8008.0307-1.001.0307-.1386,0-.2773-.0463-.2773-.1079s.0928-.1074.3076-.1381c.4776-.108.4776-.2774.5088-.462.0615-.3237.0615-1.5708.0615-2.4633,0-.57.0147-.9546-.0156-1.2471a.5818.5818,0,0,0-.3545-.5391c-.1074-.0615-.1387-.0923-.1387-.1694Z"/><path class="cls-4" d="M276.7031,50.616a2.6776,2.6776,0,0,1,.6309,1.7862,3.1532,3.1532,0,0,1-2.0635,3.0634,2.6727,2.6727,0,0,1-1.1084.231,3.4671,3.4671,0,0,1-.8926-.1231c-.0615-.0151-.123.0772-.1386.1387a21.4,21.4,0,0,0-.0157,2.2783,4.9376,4.9376,0,0,0,.1084,1.232c.0918.2925.3535.37.77.4311.1386.0459.2158.0767.2158.1387s-.1084.1074-.3086.1074c-.2305,0-.7695-.0615-1.3242-.0615-.5078,0-1,.1079-1.1846.1079s-.2773-.0464-.2773-.0923c0-.0615.0615-.1079.2919-.1543.5391-.1538.6319-.3384.6622-.708.0156-.2617.0468-.9238.0468-2.1094,0-1.57-.0312-4.9111-.0468-5.3115-.03-.6313-.03-.7236-.3848-.9238-.0918-.0464-.1543-.0923-.1543-.1387,0-.0615.0771-.1074.2-.1382a7.7256,7.7256,0,0,0,1.14-.539.4173.4173,0,0,1,.2315-.1079c.03,0,.0615.0463.0615.1386,0,.0772-.0312.5235-.0312.6621,0,.0308.0312.0923.0771.0459a3.02,3.02,0,0,1,1.8779-.708A2.2707,2.2707,0,0,1,276.7031,50.616Zm-1.2324,4.45a2.8214,2.8214,0,0,0,.8623-2.2173,2.7732,2.7732,0,0,0-.7383-1.9707,1.6552,1.6552,0,0,0-1.1855-.4619,1.9889,1.9889,0,0,0-1.124.3081c-.1084.0767-.1543.1231-.17.3384-.0459.3853-.03,2.8179,0,3.1411a1.2418,1.2418,0,0,0,.1231.3848,1.7218,1.7218,0,0,0,1.4941.7544A1.14,1.14,0,0,0,275.4707,55.0657Z"/><path class="cls-4" d="M280.1992,50.97a.8881.8881,0,0,0-.2617.5391,9.0094,9.0094,0,0,0-.0156.939c0,1.14.0312,1.94.0615,2.2631.0615.4776.2471.5855.832.647.2149.0308.292.0615.292.1382s-.1386.1079-.3691.1079c-.293,0-.8008-.0615-1.4473-.0615a8.3258,8.3258,0,0,0-.9394.0923c-.1846,0-.2618-.0308-.2618-.0923,0-.0464.1084-.1231.2315-.1538a.6364.6364,0,0,0,.5537-.6314c.0312-.2617.0469-1.1391.0469-2.1552v-1.709c0-.1079-.1084-.1543-.4-.4-.1084-.0772-.1231-.1231-.1231-.1543s.0918-.0923.2305-.1382a4.6746,4.6746,0,0,0,.9854-.37.4849.4849,0,0,1,.2314-.0772c.03,0,.0615.0615.0615.2158,0,.17-.0156.7544-.0156,1.0005,0,.0464.03.0616.0772.0157a2.512,2.512,0,0,1,1.6621-1.1089.8962.8962,0,0,1,.539.2.2685.2685,0,0,1,.1074.2158,1.052,1.052,0,0,1-.3378.5234c-.1387.1231-.2.1387-.2471.1387a.6953.6953,0,0,1-.2764-.1079,1.08,1.08,0,0,0-.539-.1846A1.0524,1.0524,0,0,0,280.1992,50.97Z"/><path class="cls-4" d="M288.499,52.7562a2.9485,2.9485,0,0,1-2.9248,2.9712,2.936,2.936,0,0,1-1.8789-5.2344,3.1638,3.1638,0,0,1,1.8477-.647A2.8892,2.8892,0,0,1,288.499,52.7562Zm-4.8037-.2159a3.5217,3.5217,0,0,0,.6475,2.1094,1.8283,1.8283,0,0,0,1.4472.8159,1.52,1.52,0,0,0,.97-.3847,3.069,3.069,0,0,0,.6464-2.063c0-1.4629-.7392-2.91-2.0937-2.91C284.5273,50.1077,283.6953,50.9393,283.6953,52.54Z"/><path class="cls-4" d="M291.1182,49.9847c.1543,0,.23.0307.23.0923s-.0918.1079-.2148.1386c-.4.1079-.4317.2-.3086.6621.1387.4776,1.0625,2.8638,1.2627,3.2334.0156.0616.0459.0767.0615.0308.2-.37,1.0625-2.4175,1.2471-2.9717a2.1432,2.1432,0,0,0,.17-.6313c0-.0923-.0928-.2617-.5088-.354q-.1845-.0462-.1846-.1387c0-.0459.0616-.0615.1846-.0615.1856,0,.416.0464.7549.0464.2461,0,.6465-.0464.7852-.0464.1074,0,.2158.0307.2158.0923s-.0928.0927-.2315.1386c-.3076.0772-.4775.2618-.6621.6929-.3535.77-1.1387,2.4941-1.2929,2.8638a16.5673,16.5673,0,0,0-.7393,1.7241c-.0772.231-.1387.2617-.1846.2617s-.1074-.0151-.1689-.2309c-.0772-.23-.1856-.6-.4-1.1851-.2774-.7085-1.1856-3.11-1.4473-3.603a.9122.9122,0,0,0-.6933-.5386c-.1387-.0308-.2149-.0771-.2149-.1235,0-.0616.0762-.1075.2617-.1075.4307,0,.6924.0616,1.1543.0616C290.61,50.0311,290.8721,49.9847,291.1182,49.9847Z"/><path class="cls-4" d="M299.7109,51.4168a.1809.1809,0,0,1-.1543.169c-.123-.0152-2.125-.0459-2.4785-.0459h-.831c-.0313,0-.1084.0771-.1387.123a2.1093,2.1093,0,0,0-.124.8467,2.761,2.761,0,0,0,.709,1.8633,2.0772,2.0772,0,0,0,1.539.6308,1.963,1.963,0,0,0,1.4629-.4927c.1231-.123.1846-.0922.1846-.0151a.585.585,0,0,1-.1533.2461,2.7223,2.7223,0,0,1-2.1407.97,2.4858,2.4858,0,0,1-1.832-.7851,3.0107,3.0107,0,0,1-.7393-2.063,3.21,3.21,0,0,1,.8936-2.2481,2.8625,2.8625,0,0,1,1.9238-.77A1.7768,1.7768,0,0,1,299.7109,51.4168Zm-3.1406-.7851a1.3435,1.3435,0,0,0-.3232.6308.0657.0657,0,0,0,.0615.0615l2.001-.0151c.3388,0,.3691-.1694.3691-.3081a.9921.9921,0,0,0-.2148-.6465,1.08,1.08,0,0,0-.7705-.2925A1.5959,1.5959,0,0,0,296.57,50.6317Z"/><path class="cls-4" d="M304.8389,50c.0312.0151.0771-.0464.0771-.0771,0-.2769-.0156-3.0025-.03-3.8184a.4137.4137,0,0,0-.0615-.2617.8419.8419,0,0,0-.4316-.2461c-.1074-.0308-.1846-.0772-.1846-.1231s.0772-.0927.1846-.1079a6.4893,6.4893,0,0,0,1.3242-.37.5177.5177,0,0,1,.2158-.0771c.0459,0,.0772.0771.0615.2617-.0312.4619-.1084,5.4658-.1084,7.0361,0,1.3394.0157,2.4019.0313,2.8022a.1366.1366,0,0,0,.1074.1387,4,4,0,0,0,.7236-.1694c.0928-.0308.1387.0151.1387.0615,0,.1079-.1074.2466-.3847.2925a8.67,8.67,0,0,0-1.6016.4c-.0615.0151-.1074-.0615-.1074-.1079a4.7483,4.7483,0,0,0,.0312-.6314c0-.0307-.0312-.0615-.0615-.0307a2.8907,2.8907,0,0,1-1.7559.7236,2.5106,2.5106,0,0,1-1.6318-.6465,2.9185,2.9185,0,0,1-.8008-2.063,3.0639,3.0639,0,0,1,1.34-2.5405,3.4581,3.4581,0,0,1,1.9091-.585A4.2564,4.2564,0,0,1,304.8389,50Zm-2.294.4155a2.7342,2.7342,0,0,0-.8467,2.2325c0,1.663.94,2.5249,1.8789,2.5249a1.6049,1.6049,0,0,0,1.0928-.4,1.0309,1.0309,0,0,0,.169-.5694,21.2958,21.2958,0,0,0-.0147-2.9716,1.0335,1.0335,0,0,0-.1387-.37,1.7146,1.7146,0,0,0-1.37-.708A1.138,1.138,0,0,0,302.5449,50.4158Z"/><path class="cls-4" d="M264.5059,62.6893a10.7323,10.7323,0,0,1,1.0468.37c.0928.0308.1543.2.1543.354.0147.1387.1075.8159.1387,1,.0459.2-.0312.2925-.0771.2925-.0772,0-.0928-.0308-.1846-.2461a2.8227,2.8227,0,0,0-2.9561-1.8169,3.921,3.921,0,0,0-2.8486,1.2319,5.4254,5.4254,0,0,0-1.293,3.7105,5.1831,5.1831,0,0,0,1.7852,3.88,3.7565,3.7565,0,0,0,2.3564.8931,2.5762,2.5762,0,0,0,1.7237-.647,1.37,1.37,0,0,0,.2314-.831,13.1315,13.1315,0,0,0,.0156-1.7554c-.0468-.5234-.2314-.6929-.8779-.8008-.1543-.0151-.293-.0615-.293-.123s.0928-.1079.3848-.1079c.3389,0,.7393.062,1.3555.062.5078,0,.8623-.0464.9853-.0464.1543,0,.2617.0464.2617.0923,0,.0923-.17.1387-.3076.1694-.247.0615-.3388.1846-.3388,1.0005,0,.7549.0771,1.7246.0771,1.94,0,.2.0147.3081-.1084.37-.1689.0771-.4307.2-.7539.37a6.1532,6.1532,0,0,1-2.3252.57,5.7,5.7,0,0,1-3.88-1.4013,4.6382,4.6382,0,0,1-1.6631-3.6641,4.8446,4.8446,0,0,1,2.0791-4.0493,5.4844,5.4844,0,0,1,3.5567-1.0933A6.9461,6.9461,0,0,1,264.5059,62.6893Z"/><path class="cls-4" d="M269.2354,67.77a.8883.8883,0,0,0-.2618.5391,9.0373,9.0373,0,0,0-.0156.939c0,1.14.0313,1.94.0615,2.2631.0616.4776.2471.5855.8321.647.2148.0308.292.0615.292.1382s-.1387.1079-.3692.1079c-.293,0-.8008-.0615-1.4473-.0615a8.3286,8.3286,0,0,0-.9394.0923c-.1846,0-.2617-.0308-.2617-.0923,0-.0464.1084-.1231.2314-.1538a.6363.6363,0,0,0,.5537-.6314c.0313-.2617.0469-1.1391.0469-2.1552v-1.709c0-.1079-.1084-.1543-.4-.4-.1084-.0772-.123-.1231-.123-.1543s.0918-.0923.23-.1382a4.6725,4.6725,0,0,0,.9854-.37.4864.4864,0,0,1,.2314-.0772c.03,0,.0616.0616.0616.2158,0,.1695-.0157.7544-.0157,1.0005,0,.0464.03.0616.0772.0157a2.5122,2.5122,0,0,1,1.6621-1.1089.8965.8965,0,0,1,.5391.2.27.27,0,0,1,.1084.2158,1.0551,1.0551,0,0,1-.3389.5234c-.1387.1231-.2.1387-.2471.1387a.6953.6953,0,0,1-.2764-.1079,1.08,1.08,0,0,0-.539-.1846A1.0519,1.0519,0,0,0,269.2354,67.77Z"/><path class="cls-4" d="M277.5342,69.556a2.9487,2.9487,0,0,1-2.9248,2.9712,2.936,2.936,0,0,1-1.8789-5.2344,3.1634,3.1634,0,0,1,1.8476-.647A2.8893,2.8893,0,0,1,277.5342,69.556Zm-4.8037-.2159a3.5222,3.5222,0,0,0,.6474,2.1094,1.8286,1.8286,0,0,0,1.4473.8159,1.52,1.52,0,0,0,.97-.3847,3.0684,3.0684,0,0,0,.6465-2.063c0-1.4629-.7393-2.91-2.0937-2.91C273.5625,66.9075,272.7305,67.7391,272.7305,69.34Z"/><path class="cls-4" d="M279.292,71.9271a1.6146,1.6146,0,0,1-.293-.9395c0-.5078,0-3.11-.03-3.3716a.5992.5992,0,0,0-.3389-.5083c-.1387-.0923-.1846-.1382-.1846-.1845s.0772-.0772.2461-.0772a5.3967,5.3967,0,0,0,1.293-.2c.0468-.0151.0927.0772.0771.1694-.0459.878-.0615,2.9717-.0459,3.68a1.7073,1.7073,0,0,0,.2305,1.0161,1.1315,1.1315,0,0,0,.8623.3853,1.725,1.725,0,0,0,1.3086-.4927.9433.9433,0,0,0,.2773-.7085c.0313-.4155.0313-1.0161.0313-1.57,0-.2309-.0156-.9546-.0156-1.355-.0157-.5234-.169-.6-.6778-.708-.1689-.0307-.2461-.0771-.2461-.123,0-.062.1387-.0928.2315-.0928h.6465a8.1811,8.1811,0,0,0,1.0625-.0923c.0459,0,.0761.0615.0615.1695-.0772.7236-.1084,2.2631-.1084,4.0493a5.0817,5.0817,0,0,0,.0312.7851c.03.1538.0772.1846.2.1695a4.2838,4.2838,0,0,1,.6309-.1387.1852.1852,0,0,1,.1846.1694c0,.0615-.1387.0923-.292.1231a6.9514,6.9514,0,0,0-1.586.4155c-.123.0615-.1543.0464-.1845,0s-.0313-.123-.0313-.2925c0-.1538.0156-.4927.0156-.6006,0-.0459-.0156-.1538-.0459-.1074a4.4307,4.4307,0,0,1-1.0625.7544,2.6371,2.6371,0,0,1-.9082.231A1.5141,1.5141,0,0,1,279.292,71.9271Z"/><path class="cls-4" d="M290.0244,67.17a3.217,3.217,0,0,1,.4922,2.0166c0,.816.0156.9395.0156,1.709.0157,1.0469.0616,1.1392.4776,1.2471.1386.0615.23.0923.23.1538,0,.0928-.123.1079-.2773.1079-.2,0-.6465-.0615-.9854-.0615-.5234,0-.7236.0615-.9541.0615-.1386,0-.2461-.0307-.2461-.0923s.0918-.123.292-.1694c.37-.0923.4317-.2.4317-.6465V69.4022c0-1.2471-.1084-1.6167-.4932-1.9092a1.3653,1.3653,0,0,0-.8769-.2925,1.8415,1.8415,0,0,0-1.2012.4927.7924.7924,0,0,0-.1846.4619c0,.1846.0147.97.0147,1.8935a12.5662,12.5662,0,0,0,.0927,1.6167c.0459.3384.2305.4156.4776.4927.1845.0459.2617.0767.2617.1538,0,.0923-.1543.0923-.3086.0923-.123,0-.877-.0615-1.2314-.0615-.2,0-.5235.0308-.8155.0308-.17,0-.2929-.0308-.2929-.108,0-.0615.1386-.123.3232-.1538.3848-.0771.4463-.1845.4619-.4926.0313-1.1084.0313-2.5249.0313-3.772,0-.1538-.0313-.3233-.4-.5235-.0928-.0615-.1231-.0922-.1231-.1386,0-.0308.0762-.0772.2149-.1231a5.7922,5.7922,0,0,0,1.2168-.5234c.0459-.0156.123.0459.1074.123a6.8775,6.8775,0,0,0-.03.816c0,.0307.0459.0771.0762.0463a5.323,5.323,0,0,1,1.0937-.6928,2.0769,2.0769,0,0,1,.9082-.1851A1.5726,1.5726,0,0,1,290.0244,67.17Z"/><path class="cls-4" d="M296.2607,66.8c.0313.0151.0772-.0464.0772-.0771,0-.2769-.0156-3.0025-.03-3.8184a.4137.4137,0,0,0-.0615-.2617.8424.8424,0,0,0-.4316-.2461c-.1075-.0308-.1846-.0772-.1846-.1231s.0771-.0927.1846-.1079a6.4827,6.4827,0,0,0,1.3242-.37.5177.5177,0,0,1,.2158-.0771c.0459,0,.0771.0771.0615.2617-.0312.4619-.1084,5.4658-.1084,7.0361,0,1.3394.0156,2.4019.0313,2.8023a.1365.1365,0,0,0,.1074.1386,4,4,0,0,0,.7236-.1694c.0928-.0308.1387.0151.1387.0615,0,.1079-.1074.2466-.3848.2925a8.6712,8.6712,0,0,0-1.6015.4c-.0616.0151-.1075-.0615-.1075-.1079a4.75,4.75,0,0,0,.0313-.6314c0-.0307-.0313-.0615-.0615-.0307a2.8909,2.8909,0,0,1-1.7559.7236,2.5106,2.5106,0,0,1-1.6318-.6465,2.9185,2.9185,0,0,1-.8008-2.063,3.064,3.064,0,0,1,1.34-2.5405,3.4587,3.4587,0,0,1,1.9092-.585A4.2562,4.2562,0,0,1,296.2607,66.8Zm-2.2939.4155a2.7342,2.7342,0,0,0-.8467,2.2325c0,1.663.94,2.5249,1.8789,2.5249a1.6049,1.6049,0,0,0,1.0928-.4,1.03,1.03,0,0,0,.1689-.5694,21.28,21.28,0,0,0-.0146-2.9716,1.0354,1.0354,0,0,0-.1387-.37,1.7147,1.7147,0,0,0-1.37-.708A1.1378,1.1378,0,0,0,293.9668,67.2156Z"/><path class="cls-4" d="M300.3428,66.8c.1386,0,.2617.0308.2617.1074,0,.0464-.1533.1079-.2617.1236-.3692.0615-.3535.2-.292.4463.23.7085.8926,2.4633,1.2471,3.3256.0156.0459.0771.0616.0917.0152.2471-.5235.9239-2.0166,1.0782-2.417.0156-.0772.0615-.1846.03-.2617-.0761-.2-.1845-.4463-.2617-.6314A.8192.8192,0,0,0,301.6514,67c-.1387-.0308-.2149-.0615-.2149-.1235s.0762-.0923.23-.0923c.3232,0,.7236.0464,1.0469.0464.4463,0,.6318-.0308.9082-.0308.17,0,.2314.0308.2314.0767,0,.062-.1074.1235-.2314.1543-.3535.0766-.4463.1386-.2617.6157.17.477.9853,2.71,1.2011,3.187.0459.0771.0772.0151.0772,0,.1845-.4.9238-2.1553,1.1084-2.6787a3.5162,3.5162,0,0,0,.2461-.7393c0-.1386-.0616-.2773-.462-.3847-.2-.0616-.246-.1079-.246-.1543,0-.0616.0927-.0923.2-.0923.2617,0,.539.0464.7851.0464.1543,0,.5391-.0464.7695-.0464.1387,0,.2159.0307.2159.0923s-.0459.0927-.2774.1543c-.2773.0766-.4619.2924-.6621.708-.2764.5542-.7383,1.6167-1.2158,2.71-.2617.6309-.5391,1.3086-.7236,1.8013-.0928.2461-.1543.2925-.2.2925-.0616,0-.1075-.0615-.169-.2774-.0771-.2153-.1855-.5234-.37-1.0468-.292-.8311-.6152-1.709-.9238-2.5249-.0157-.0464-.0459-.0772-.0772,0-.1387.2924-.7851,1.7089-1,2.248-.2314.5078-.37.8618-.539,1.3086-.0772.2153-.1543.2925-.2159.2925s-.1074-.1079-.1543-.2774c-.0761-.2153-.1689-.5849-.4306-1.3237-.2774-.7544-1.1543-3.0332-1.3242-3.3257a.8775.8775,0,0,0-.6778-.6006c-.123-.0307-.2148-.0766-.2148-.123,0-.0923.1074-.1231.2773-.1231.1992,0,.6612.0616,1.0928.0616C299.7275,66.8309,300.0352,66.8,300.3428,66.8Z"/><path class="cls-4" d="M311.0762,67.4315a3.7353,3.7353,0,0,1,.2148,1.4008c0,.57-.0459,2.0323-.0459,2.4327a.5275.5275,0,0,0,.5694.5849.9851.9851,0,0,0,.4472-.1387c.0918-.0459.1533,0,.0918.1387a1.2968,1.2968,0,0,1-1.1855.6621,1.0342,1.0342,0,0,1-.9082-.6928.0542.0542,0,0,0-.0772-.0157,2.1544,2.1544,0,0,1-1.5088.6929,1.2773,1.2773,0,0,1-1.2314-1.3237,1.0878,1.0878,0,0,1,.5537-.878c.37-.2,1.7715-.6157,2.0947-.7387a.2919.2919,0,0,0,.2-.231,5.3045,5.3045,0,0,0,.03-.7085c0-.6308-.1074-1.062-.3692-1.2622a1.1746,1.1746,0,0,0-.6464-.2466,1.0593,1.0593,0,0,0-.6162.1851.62.62,0,0,0-.2315.3691,1.6815,1.6815,0,0,0-.0146.293.1924.1924,0,0,1-.0616.123,3.329,3.329,0,0,1-.7236.3389c-.0771.0151-.1543-.0771-.1543-.1387,0-.1079.1074-.2465.293-.4619a3.9806,3.9806,0,0,1,1.17-.893,2.0661,2.0661,0,0,1,.9238-.2774A1.2627,1.2627,0,0,1,311.0762,67.4315Zm-1.0323,4.2338a.6408.6408,0,0,0,.17-.37,11.0819,11.0819,0,0,0,.0771-1.4629c0-.0151-.0312-.0923-.0625-.0766a8.68,8.68,0,0,0-1.416.5234.7966.7966,0,0,0-.3848.7695.8941.8941,0,0,0,.9239.8623A1.0536,1.0536,0,0,0,310.0439,71.6653Z"/><path class="cls-4" d="M313.4014,71.7728a1.7313,1.7313,0,0,1-.1846-.8775v-3.187c0-.1694-.0156-.2768-.0772-.3081a2.5239,2.5239,0,0,0-.3691-.0923c-.123-.0307-.2-.0766-.2-.1382,0-.0312.0156-.0771.1846-.1543a3.2819,3.2819,0,0,0,1.2627-1.0312c.1386-.1543.2461-.1235.2461-.0464,0,.1387-.03.57-.0147.7544,0,.0464.0147.1387.0762.1387.2773,0,1.5557-.0464,1.8789-.0464.03,0,.0918.1079.0918.2158,0,.2617-.0762.3848-.1533.3848-.5391,0-1.294-.0157-1.709-.0157-.1846,0-.2158.0464-.2158.1387,0,.2617.0156,2.6792.0312,3.1563a1.5781,1.5781,0,0,0,.169.8315,1.1377,1.1377,0,0,0,.9541.4155,1.5079,1.5079,0,0,0,.8476-.2309c.1074-.0772.1533-.0615.1533,0,0,.0923-.1386.2466-.3388.4a2.1124,2.1124,0,0,1-1.2471.4A1.4269,1.4269,0,0,1,313.4014,71.7728Z"/><path class="cls-4" d="M321.4248,68.2166a.1809.1809,0,0,1-.1543.169c-.123-.0152-2.125-.0459-2.4785-.0459h-.8311c-.0312,0-.1084.0771-.1386.123a2.113,2.113,0,0,0-.1231.8467,2.76,2.76,0,0,0,.708,1.8633,2.0776,2.0776,0,0,0,1.5391.6308,1.9637,1.9637,0,0,0,1.4629-.4926c.123-.1231.1846-.0923.1846-.0152a.5856.5856,0,0,1-.1534.2461,2.7223,2.7223,0,0,1-2.1406.97,2.4858,2.4858,0,0,1-1.832-.7851,3.0107,3.0107,0,0,1-.7393-2.063,3.21,3.21,0,0,1,.8936-2.2481,2.8625,2.8625,0,0,1,1.9238-.77A1.7768,1.7768,0,0,1,321.4248,68.2166Zm-3.1406-.7851a1.343,1.343,0,0,0-.3233.6308.0657.0657,0,0,0,.0616.0615l2.0009-.0151c.3389,0,.3692-.1694.3692-.3081a.9917.9917,0,0,0-.2149-.6465,1.08,1.08,0,0,0-.7705-.2925A1.5958,1.5958,0,0,0,318.2842,67.4315Z"/><path class="cls-4" d="M324.15,67.77a.8876.8876,0,0,0-.2617.5391,9.0058,9.0058,0,0,0-.0157.939c0,1.14.0313,1.94.0616,2.2631.0615.4776.247.5855.832.647.2148.0308.292.0615.292.1382s-.1387.1079-.3691.1079c-.293,0-.8008-.0615-1.4473-.0615a8.3314,8.3314,0,0,0-.94.0923c-.1845,0-.2617-.0308-.2617-.0923,0-.0464.1084-.1231.2315-.1538a.6364.6364,0,0,0,.5537-.6314c.0312-.2617.0468-1.1391.0468-2.1552v-1.709c0-.1079-.1084-.1543-.4-.4-.1084-.0772-.1231-.1231-.1231-.1543s.0918-.0923.2305-.1382a4.6737,4.6737,0,0,0,.9853-.37.4866.4866,0,0,1,.2315-.0772c.03,0,.0615.0616.0615.2158,0,.1695-.0156.7544-.0156,1.0005,0,.0464.03.0616.0771.0157a2.5125,2.5125,0,0,1,1.6621-1.1089.8963.8963,0,0,1,.5391.2.2688.2688,0,0,1,.1074.2158,1.0517,1.0517,0,0,1-.3379.5234c-.1386.1231-.2.1387-.247.1387a.6947.6947,0,0,1-.2764-.1079,1.08,1.08,0,0,0-.5391-.1846A1.0523,1.0523,0,0,0,324.15,67.77Z"/><path class="cls-4" d="M256.5459,79.428c.37,0,1.001.0616,1.4629.0616.3389,0,.708-.0308,1.0312-.0308.2159,0,.3077.0459.3077.1079,0,.0767-.0918.1231-.2764.1538-.4317.0772-.4317.2617-.3233.5386.6465,1.6016,2.1709,4.8809,3.2178,7.19.0459.1074.1074.0767.1533,0,.4317-.8779.8008-1.6474,1.2168-2.6328a.43.43,0,0,0,.03-.185c-.2461-.585-1.2773-2.9253-1.6162-3.6641-.4463-.9546-.5693-1.1392-1.0469-1.2627-.2461-.0459-.3232-.1074-.3232-.1846,0-.0464.0918-.0923.292-.0923.4472,0,.7392.0616,1.2939.0616s.9082-.0616,1.2617-.0616c.1543,0,.2618.0308.2618.0923,0,.0772-.0918.1231-.292.1695-.4161.0766-.5694.2617-.3389.8315.2461.6465.708,1.6934,1.2168,2.8633.0146.0307.0762.0464.123-.0308.3692-.7544.6924-1.4624,1.0157-2.2168.4775-1.124.4619-1.2778-.2-1.4321-.2774-.0615-.3233-.1231-.3233-.1846,0-.0464.0928-.0771.2774-.0771.3847,0,.6308.0464,1.0312.0464.5391,0,.7852-.0616,1.14-.0616.1845,0,.2617.0152.2617.0767,0,.0771-.0772.1235-.293.1694-.5693.1236-.8623.4468-1.37,1.3394-.4.77-1.1543,2.2944-1.416,2.7715a.2651.2651,0,0,0,.0156.1845c.3848.9087,1.0615,2.3711,1.585,3.5259.0615.1079.1084.0772.1386,0,.7393-1.6011,2.6026-5.9121,2.9258-7.0512.0772-.3389.0616-.6006-.4463-.7544-.247-.0772-.3388-.108-.3388-.1695s.0459-.0923.2617-.0923c.4,0,.6152.0616,1.0771.0616.4317,0,.8467-.0616,1.1241-.0616.2,0,.2773.0152.2773.0767s-.0771.1235-.3545.1694c-.6465.1695-.9238.4927-1.8935,2.6792-.97,2.1245-2.2168,5.0342-2.9248,6.7281-.1084.2617-.1543.354-.2315.354-.1074,0-.1689-.1079-.2617-.354-.3233-.9395-1.2-2.8482-1.6475-3.8335-.03-.062-.0771-.062-.1074-.0157-.585,1.1392-1.4014,2.941-1.74,3.8335-.0918.2466-.1846.37-.2461.37-.0918,0-.1231-.0923-.2305-.37-.2-.5078-.6777-1.6318-.8779-2.0937-.8467-1.9551-1.8779-4.2339-2.6016-5.7427-.5547-1.2012-.6777-1.478-1.2627-1.5552-.1845-.0151-.3232-.0766-.3232-.1382C256.2383,79.49,256.3457,79.428,256.5459,79.428Z"/><path class="cls-4" d="M273.9932,85.0169a.181.181,0,0,1-.1543.169c-.1231-.0152-2.125-.0459-2.4785-.0459h-.8311c-.0313,0-.1084.0771-.1387.123a2.1169,2.1169,0,0,0-.123.8467,2.76,2.76,0,0,0,.708,1.8633,2.0772,2.0772,0,0,0,1.539.6308,1.963,1.963,0,0,0,1.4629-.4927c.1231-.123.1846-.0922.1846-.0151a.585.585,0,0,1-.1533.2461,2.7223,2.7223,0,0,1-2.1406.97,2.4859,2.4859,0,0,1-1.8321-.7851,3.0107,3.0107,0,0,1-.7392-2.063,3.21,3.21,0,0,1,.8935-2.2481,2.863,2.863,0,0,1,1.9239-.77A1.7769,1.7769,0,0,1,273.9932,85.0169Zm-3.1407-.7851a1.3435,1.3435,0,0,0-.3232.6308.0657.0657,0,0,0,.0615.0615l2.001-.0151c.3389,0,.3691-.1694.3691-.3081a.9921.9921,0,0,0-.2148-.6465,1.08,1.08,0,0,0-.7705-.2925A1.5961,1.5961,0,0,0,270.8525,84.2318Z"/><path class="cls-4" d="M276.4727,85.4017c0,1.94.0156,2.6635.0312,2.956.0147.4156.1074.5235.5381.6006.0928.0151.2.0615.2.1074,0,.0616-.1074.1079-.3076.1079-.2461,0-.8008-.0307-1.0625-.0307-.4,0-.8008.0307-1.0313.0307-.1846,0-.2617-.0151-.2617-.0922s.0771-.0923.2773-.1387c.3848-.0772.4766-.2153.5381-.8931.0313-.5693.0928-3.1714.1084-5.019,0-1.2471.0157-2.5093,0-3.187,0-.3389-.0312-.4156-.4316-.6621-.1074-.0616-.1533-.0923-.1533-.1387s.0918-.0923.23-.1231a7.9617,7.9617,0,0,0,1.1553-.354.6568.6568,0,0,1,.1846-.0464c.03,0,.0459.0928.0459.1695,0,.1079-.0615,2.7715-.0615,5.081Z"/><path class="cls-4" d="M279.7373,85.4017c0,1.94.0156,2.6635.0313,2.956.0146.4156.1074.5235.538.6006.0928.0151.2.0615.2.1074,0,.0616-.1074.1079-.3076.1079-.2461,0-.8008-.0307-1.0625-.0307-.4,0-.8008.0307-1.0312.0307-.1846,0-.2617-.0151-.2617-.0922s.0771-.0923.2773-.1387c.3848-.0772.4766-.2153.5381-.8931.0312-.5693.0928-3.1714.1084-5.019,0-1.2471.0156-2.5093,0-3.187,0-.3389-.0313-.4156-.4317-.6621-.1074-.0616-.1533-.0923-.1533-.1387s.0918-.0923.2305-.1231a7.9617,7.9617,0,0,0,1.1553-.354.6561.6561,0,0,1,.1845-.0464c.03,0,.0459.0928.0459.1695,0,.1079-.0615,2.7715-.0615,5.081Z"/><path class="cls-2" d="M77.7818,127.2655a5.15,5.15,0,1,1,5.15-5.15A5.156,5.156,0,0,1,77.7818,127.2655Z"/><path class="cls-2" d="M93.0573,127.2655a3.9168,3.9168,0,1,1,3.9169-3.9168A3.9212,3.9212,0,0,1,93.0573,127.2655Z"/><path class="cls-2" d="M77.7818,119.0033a3.1111,3.1111,0,1,1-2.6232,1.4369"/><path class="cls-2" d="M93.0573,125.2324a1.8838,1.8838,0,1,1,1.8838-1.8837A1.8859,1.8859,0,0,1,93.0573,125.2324Z"/><line class="cls-2" x1="89.3059" y1="124.4754" x2="82.3674" y2="124.4754"/><line class="cls-2" x1="89.1855" y1="122.7624" x2="86.8366" y2="122.7339"/><path class="cls-2" d="M86.85,122.7339a.1842.1842,0,0,1-.1841-.1842v-4.7478a.1841.1841,0,0,1,.1841-.1841H97.1631a1.1241,1.1241,0,0,1,1.123,1.1228V122.41a1.1244,1.1244,0,0,1-1.123,1.123h-.2044"/><path class="cls-2" d="M72.6133,122.7691h-.9691a1.1244,1.1244,0,0,1-1.123-1.1231V115.52a1.1243,1.1243,0,0,1,1.123-1.123h1.1714"/><path class="cls-2" d="M75.371,114.397h3.82a1.1293,1.1293,0,0,1,1.0493.7226"/><path class="cls-2" d="M92.0784,117.6178H90.6719a.1727.1727,0,0,1-.1841-.1583v-1.936a.1727.1727,0,0,1,.1841-.1583h1.4065a.1727.1727,0,0,1,.1841.1583v1.936A.1727.1727,0,0,1,92.0784,117.6178Z"/><line class="cls-2" x1="91.1911" y1="115.3627" x2="91.1911" y2="113.3477"/><line class="cls-2" x1="94.5252" y1="115.5493" x2="94.5252" y2="117.5973"/><line class="cls-2" x1="85.7998" y1="116.7378" x2="86.6758" y2="117.619"/><line class="cls-2" x1="86.7174" y1="115.8282" x2="84.6249" y2="117.9208"/><polyline class="cls-2" points="79.723 113.66 81.424 118.122 83.345 118.122"/><line class="cls-2" x1="87.7187" y1="120.3652" x2="87.7187" y2="118.9384"/><line class="cls-2" x1="88.5545" y1="120.3652" x2="88.5545" y2="118.9384"/><line class="cls-2" x1="89.3903" y1="120.3652" x2="89.3903" y2="118.9384"/></svg>