<svg id="Layer_1" data-name="Layer 1" xmlns="http://www.w3.org/2000/svg" viewBox="0 0 399 200"><defs><style>.cls-1{fill:#333838;}.cls-2,.cls-3,.cls-4,.cls-6{fill:none;stroke:#222f3c;}.cls-2,.cls-4{stroke-linecap:round;}.cls-2,.cls-4,.cls-6{stroke-linejoin:round;}.cls-2,.cls-3,.cls-6{stroke-width:0.5px;}.cls-3{stroke-miterlimit:10;}.cls-4{stroke-width:0.25px;}.cls-5{fill:#222f3c;}</style></defs><path class="cls-1" d="M181.4121,81.1624c.0391.01.1172.147.1275.1963,0,.1274.0976.8814.0976.9209,0,.147-.0293.2446-.0879.2446a.3615.3615,0,0,1-.2842-.2348,1.6342,1.6342,0,0,0-.4213-.6958,1.1463,1.1463,0,0,0-.7837-.2744,1.0186,1.0186,0,0,0-.9991,1.019c0,.5781.4312.8916,1.3125,1.45,1.2051.7349,1.44,1.3618,1.44,1.96a1.74,1.74,0,0,1-.8618,1.44,2.9049,2.9049,0,0,1-1.3716.3526,3.6966,3.6966,0,0,1-1.4107-.2549.8377.8377,0,0,1-.2548-.2837,5.5171,5.5171,0,0,1-.1666-1.0484c0-.0683.108-.2055.1568-.2055.0786,0,.2353.2348.3823.5385a1.56,1.56,0,0,0,1.3613.9014,1.0125,1.0125,0,0,0,1.0191-.98c0-.4116-.2056-.8037-1.107-1.3911-.999-.6562-1.538-1.1953-1.538-2.0669a1.69,1.69,0,0,1,.5976-1.2837,2.2666,2.2666,0,0,1,1.5576-.47A6.9947,6.9947,0,0,1,181.4121,81.1624Z"/><path class="cls-1" d="M187.8008,81.1526a6.3485,6.3485,0,0,0,.7051.147c.0688,0,.1469.1177.1469.2647.01.2744.0293.6172.0493.9013.01.2056-.059.3721-.1669.3721-.0489,0-.1368-.1177-.1861-.2646a1.4719,1.4719,0,0,0-.4111-.6954,2.2687,2.2687,0,0,0-1.45-.5683c-1.5576,0-2.292,1.2344-2.292,2.7236a3.7438,3.7438,0,0,0,.333,1.6553,2.4312,2.4312,0,0,0,2.1943,1.46,2.0582,2.0582,0,0,0,.95-.2256,2.2025,2.2025,0,0,0,.8521-.8916c.1177-.2154.1865-.3033.2646-.3033.1079,0,.1079.2544.0787.3623a4.6253,4.6253,0,0,1-.294.8521.8075.8075,0,0,1-.353.3135,5.2331,5.2331,0,0,1-1.7139.2842,3.9474,3.9474,0,0,1-2.88-1.107,3.2292,3.2292,0,0,1-.8227-2.2041,3.1082,3.1082,0,0,1,1.0776-2.3511,4.1451,4.1451,0,0,1,2.645-.8818A5.545,5.545,0,0,1,187.8008,81.1526Z"/><path class="cls-1" d="M191.8394,83.9544c.666,0,1.9594-.0391,2.9877-.0391.0391,0,.0787-.0981.0884-.2451a16.1751,16.1751,0,0,0-.02-1.6552c-.04-.3526-.0884-.4507-.48-.5586-.1372-.0391-.2842-.0977-.2842-.1958,0-.0684.0977-.1275.3233-.1275.1274,0,.852.0293,1.1069.0293.3135,0,.9307-.039,1.0484-.039.1855,0,.3037.0493.3037.1274,0,.0981-.0889.1567-.3135.2153-.353.0786-.4116.2354-.4312.52-.0493.46-.0786,1.3418-.0786,2.7329,0,.96.0293,1.47.0391,1.7929.01.3819.1079.4112.5.5386.1758.0586.2744.1275.2744.2056,0,.1079-.1377.1372-.314.1372-.1665,0-.6953-.0293-.9892-.0293-.2154,0-.999.0488-1.1949.0488-.2353,0-.3334-.0488-.3334-.1372s.1274-.1665.2646-.2056c.48-.1274.5-.2055.5488-.9306.0293-.3916.0391-1.3125.02-1.5772,0-.0879-.04-.1274-.0787-.1274-.7836,0-2.7919-.0293-2.9877-.01a.1961.1961,0,0,0-.1275.147c-.02.3628,0,1.4106.01,1.7241.01.46.0688.6074.47.7251.206.0586.3433.1372.3433.2446.01.0982-.1866.1275-.3135.1275-.0689,0-.8819-.0293-1.2246-.0293-.2256,0-.7251.039-1.0581.039-.2549,0-.3428-.0488-.3428-.1274,0-.1074.1079-.1665.2744-.2153.4307-.1177.519-.2251.5679-.6367.039-.3921.0884-1.8516.0884-3.1934,0-.2939.0195-.833,0-1.2246-.02-.3233-.108-.4312-.4312-.5293-.2251-.0684-.333-.1367-.333-.2153,0-.0982.1274-.1372.3037-.1372.2647,0,.8032.039,1.0581.039.4111,0,.8521-.0293,1.0874-.0293.2056,0,.3233.04.3233.1275,0,.1079-.1275.1665-.3335.2153-.4112.0884-.44.2744-.45.6763-.02.3525-.0591,1.4887-.03,1.6748C191.7314,83.9056,191.771,83.9544,191.8394,83.9544Z"/><path class="cls-1" d="M204.5967,84.17a3.2375,3.2375,0,0,1-1.2344,2.6646,3.7017,3.7017,0,0,1-2.1455.7051,3.45,3.45,0,0,1-2.5469-1.0484,3.2338,3.2338,0,0,1-.8428-2.2431,3.07,3.07,0,0,1,1.2637-2.5469,3.68,3.68,0,0,1,2.0869-.7056,3.2454,3.2454,0,0,1,3.415,3.0664C204.5946,84.0981,204.596,84.134,204.5967,84.17Zm-4.7608-2.3315a3.05,3.05,0,0,0-.6855,2.1943c0,1.5083.9209,3.1446,2.3506,3.1446a1.401,1.401,0,0,0,.999-.4019,3.3583,3.3583,0,0,0,.7549-2.3018,3.8093,3.8093,0,0,0-1.0186-2.6059,2.1646,2.1646,0,0,0-1.2939-.5288,1.72,1.72,0,0,0-1.1065.5Z"/><path class="cls-1" d="M212.417,84.17a3.2375,3.2375,0,0,1-1.2344,2.6646,3.7015,3.7015,0,0,1-2.1455.7051,3.45,3.45,0,0,1-2.5469-1.0484,3.2337,3.2337,0,0,1-.8427-2.2431,3.07,3.07,0,0,1,1.2636-2.5469,3.68,3.68,0,0,1,2.0869-.7056,3.2454,3.2454,0,0,1,3.415,3.0664C212.4149,84.0981,212.4163,84.134,212.417,84.17Zm-4.7608-2.3315a3.0505,3.0505,0,0,0-.6855,2.1943c0,1.5083.9209,3.1446,2.3506,3.1446a1.4,1.4,0,0,0,.999-.4019,3.3583,3.3583,0,0,0,.7549-2.3018,3.8093,3.8093,0,0,0-1.0186-2.6059,2.1646,2.1646,0,0,0-1.2939-.5288,1.72,1.72,0,0,0-1.1065.5Z"/><path class="cls-1" d="M213.5859,81.1429c.2647,0,.6953.02.98.02.3828,0,1.0586-.039,1.294-.039.2246,0,.3027.0493.3027.1176,0,.0879-.1172.1568-.2148.1861-.5293.1274-.6075.2744-.6172.3921-.0684.49-.0684,1.479-.0684,2.9287,0,.6762.01,1.48.0488,1.8125.02.2348.3135.372.3526.3818a6.3754,6.3754,0,0,0,.8135.0493,3.9431,3.9431,0,0,0,.705-.0493.59.59,0,0,0,.3038-.1372,3.8617,3.8617,0,0,0,.6171-.7637.3986.3986,0,0,1,.2647-.1963c.0683,0,.0781.1079.039.2647-.1083.3428-.2548.8818-.3134,1.1557a.4538.4538,0,0,1-.2256.1665c-.1475,0-1.0186-.0683-3.0078-.0683-.47,0-1.1455.0586-1.4492.0586-.1768,0-.294-.0391-.294-.127,0-.0688.0879-.1567.2451-.1865.5381-.0977.627-.2739.6758-.7051.0195-.2451.0488-1.2734.0488-2.6841,0-.95,0-1.3325-.01-1.6557-.01-.333-.0586-.49-.51-.5977-.1855-.0488-.2744-.1172-.2744-.186C213.292,81.1824,213.41,81.1429,213.5859,81.1429Z"/><path class="cls-2" d="M216.8582,124.7487a.6045.6045,0,0,0,.6028-.6059v-2.9289a.8569.8569,0,0,0-.8542-.8579h-6.4026V97.8867a.8569.8569,0,0,0-.8541-.858H186.2417a.8564.8564,0,0,0-.8535.858V120.356H178.985a.8562.8562,0,0,0-.8535.8579v2.9289a.6039.6039,0,0,0,.6021.6059h.0006"/><line class="cls-2" x1="197.7962" y1="120.2766" x2="197.7962" y2="97.2524"/><path class="cls-3" d="M199.92,50.4784a12.6374,12.6374,0,0,0,4.0968-.7868,8.5633,8.5633,0,0,1,2.6193-.5656,4.9226,4.9226,0,0,1,2.6844.8811.6506.6506,0,0,0,.9958-.5512V42.4684a.65.65,0,0,0-.3529-.5789,3.4975,3.4975,0,0,0-1.6331-.3709,11.1333,11.1333,0,0,0-3.0313.6157,13.5176,13.5176,0,0,1-3.8641.7409h0a6.6616,6.6616,0,0,1-3.1915-.8023.6657.6657,0,0,0-.6409.0184.6569.6569,0,0,0-.3136.5574V56.0254"/><polyline class="cls-2" points="151.659 82.292 151.659 77.764 197.279 55.723 243.933 77.808 243.933 82.352"/><polyline class="cls-2" points="156.273 124.415 156.273 80.665 197.331 60.829 239.319 80.705 239.319 124.469"/><line class="cls-2" x1="269.4115" y1="124.8092" x2="269.4115" y2="116.0397"/><line class="cls-2" x1="269.4115" y1="124.8092" x2="273.6391" y2="124.8092"/><line class="cls-2" x1="265.0484" y1="124.8092" x2="265.0484" y2="116.0397"/><line class="cls-2" x1="265.0484" y1="124.8092" x2="260.8208" y2="124.8092"/><path class="cls-2" d="M279.11,87.4554a16.8,16.8,0,0,0-3.785-2.8409h-16.19A16.8,16.8,0,1,0,279.11,87.4554Z"/><line class="cls-2" x1="267.973" y1="100.0046" x2="271.0671" y2="102.8788"/><line class="cls-2" x1="265.1684" y1="101.4805" x2="266.4873" y2="100.1618"/><circle class="cls-2" cx="267.3457" cy="99.5741" r="0.7"/><circle class="cls-4" cx="267.2301" cy="99.3349" r="14"/><path class="cls-2" d="M279.11,111.2143a8.4282,8.4282,0,0,0,11.9188,0"/><path class="cls-2" d="M292.5128,109.7286a1.05,1.05,0,1,0,.0008.0008Z"/><path class="cls-2" d="M252.6319,107.6164a8.4281,8.4281,0,0,0-11.3342-3.6871"/><path class="cls-2" d="M239.4256,104.8822a1.05,1.05,0,1,0,.46-1.4123A1.05,1.05,0,0,0,239.4256,104.8822Z"/><line class="cls-2" x1="292.4904" y1="109.4856" x2="304.5301" y2="91.1961"/><polyline class="cls-2" points="275.693 77.699 284.03 74.945 267.23 69.212 250.43 74.945 258.821 77.699"/><path class="cls-2" d="M275.63,74.945v9.6317h-16.8V74.9549c0-.8022,3.7606-1.4531,8.4-1.4531s8.4.6509,8.4,1.4531Z"/><path class="cls-2" d="M250.43,74.945v4.6138"/><path class="cls-5" d="M266.7115,110.4177a.5124.5124,0,0,1,.4621-.5581l.0279-.0019h0a.5272.5272,0,0,1,.5462.49h0a.5225.5225,0,0,1-.4829.5595l-.0071.0005h-.028A.5119.5119,0,0,1,266.7115,110.4177Zm-5.1518-1.026a.53.53,0,0,1-.3363-.6583h0a.5272.5272,0,0,1,.6645-.3381l.0075.0025h0a.5284.5284,0,0,1,.3363.6576h0a.525.525,0,0,1-.5038.3643h0a.7242.7242,0,0,1-.1679-.028Zm10.714-.2409a.5215.5215,0,0,1,.244-.6961l.0082-.0039h0a.5252.5252,0,0,1,.6992.2505l.0008.0017h0a.5294.5294,0,0,1-.2522.6857h0a.4382.4382,0,0,1-.2235.056h0a.5294.5294,0,0,1-.4765-.2939Zm-15.1109-4.0694a.5247.5247,0,0,1,.1962-.7137h0a.5417.5417,0,0,1,.728.21h0a.5416.5416,0,0,1-.21.7137h0a.568.568,0,0,1-.2523.07h0a.57.57,0,0,1-.4619-.28Zm19.453.2446a.5112.5112,0,0,1-.2995-.658l.0055-.0139h0a.5108.5108,0,0,1,.6542-.3068l.0322.0128h0a.5225.5225,0,0,1,.2939.672h0a.5272.5272,0,0,1-.49.3356h0a.4464.4464,0,0,1-.1963-.0417Zm-20.927-5.9541h0a.5335.5335,0,0,1,.4621-.5886h0a.5412.5412,0,0,1,.5879.4622h0a.54.54,0,0,1-.4621.5878h-.07a.5372.5372,0,0,1-.5179-.4614Zm22.2289-.0594h0a.5293.5293,0,0,1,.5175-.5325h0a.5327.5327,0,0,1,.5325.5325h0a.5293.5293,0,0,1-.5325.5175h0A.5257.5257,0,0,1,277.9177,99.3125Zm-20.5022-5.0994a.5169.5169,0,0,1-.1169-.7215l.0048-.0065h0a.5162.5162,0,0,1,.7206-.1169l.0075.0055h0a.5047.5047,0,0,1,.1315.7015l-.0194.0265h0a.5132.5132,0,0,1-.42.2235h0A.518.518,0,0,1,257.4155,94.2131Zm18.9763-.097h0a.5332.5332,0,0,1,.1121-.7424h0a.5373.5373,0,0,1,.7417.1258h0a.5207.5207,0,0,1-.123.726l-.0028.002h0a.4761.4761,0,0,1-.3083.0985h0a.5178.5178,0,0,1-.42-.21Zm-15.11-4.0868a.5358.5358,0,0,1,.1538-.728h0a.5231.5231,0,0,1,.7224.1593l.0056.0089h0a.5284.5284,0,0,1-.1682.7273h0a.6285.6285,0,0,1-.28.07h0a.5154.5154,0,0,1-.4344-.2375Zm11.2426.1926a.5238.5238,0,0,1-.1729-.72l.0048-.0077h0a.5352.5352,0,0,1,.728-.1538h0a.5365.5365,0,0,1,.1682.728h0a.56.56,0,0,1-.4485.2379h0a.5042.5042,0,0,1-.28-.0841Zm-5.3644-1.34a.5237.5237,0,0,1-.4214-.6089l.0014-.0071h0a.5264.5264,0,0,1,.6146-.42l.0013,0h0a.545.545,0,0,1,.42.6159h0a.54.54,0,0,1-.5318.42H267.16Z"/><path class="cls-6" d="M265.1959,93.9387a1.93,1.93,0,0,1-3.8057,0"/><path class="cls-6" d="M273.3853,93.9387a1.93,1.93,0,0,1-3.8057,0"/><line class="cls-2" x1="142.1465" y1="124.8092" x2="323.2947" y2="124.8092"/><polygon class="cls-3" points="126.382 152.248 126.382 159.361 130.321 159.361 130.783 152.248 126.382 152.248"/><polygon class="cls-3" points="115.561 152.248 116.024 159.361 119.963 159.361 119.963 152.248 115.561 152.248"/><path class="cls-3" d="M134.6192,110.8538c-.431-.1076-.8483-.2233-1.2067-.3482-3.602-1.2565-5.7535-3.11-6.7228-5.1918-1.9754,2.7633-6.4706,4.6943-11.7057,4.6943a27.6505,27.6505,0,0,1-3.0142-.1784,10.72,10.72,0,0,0-.4323,3.0092,11.6452,11.6452,0,0,0,23.2693,0A10.75,10.75,0,0,0,134.6192,110.8538Z"/><path class="cls-3" d="M126.3817,159.3607h4.37a1.6478,1.6478,0,0,1,1.6478,1.6478v.6591h-6.0179v-2.3069Z"/><path class="cls-3" d="M119.9625,161.6676h-6.0179v-.6591a1.6477,1.6477,0,0,1,1.6478-1.6478h4.37v2.3069Z"/><polyline class="cls-3" points="123.154 146.981 123.154 152.248 131.998 152.248 131.998 139.452 114.346 139.452 114.346 152.248 123.19 152.248 123.19 147.038"/><path class="cls-3" d="M111.5375,112.8389c0-.1258.0056-.25.01-.3752a2.1122,2.1122,0,0,0,.1907,4.22h.51"/><path class="cls-3" d="M134.0963,116.6837h.51a2.1122,2.1122,0,0,0,.1907-4.22h0c.0043.1248.01.2494.01.3752"/><path class="cls-3" d="M129.9924,113.704a1.305,1.305,0,0,1-2.6077,0"/><path class="cls-3" d="M118.96,113.704a1.3051,1.3051,0,0,1-2.6078,0"/><path class="cls-3" d="M120.9656,119.029a2.2085,2.2085,0,0,0,4.4131,0"/><path class="cls-3" d="M136.6715,128.9932a12.24,12.24,0,0,0-6.1532-5.8627,3.2712,3.2712,0,0,0-1.1909-.4407,2.0444,2.0444,0,0,0-.4271-.0467c-.0211,0-.0418.0017-.0627.0023-.0164,0-.0323-.0023-.0488-.0023h-.071a12.1,12.1,0,0,1-11.0913,0h-.0711c-.0165,0-.0323.0021-.0488.0023-.0209-.0006-.0416-.0023-.0626-.0023a2.06,2.06,0,0,0-.4272.0466,3.2732,3.2732,0,0,0-1.1909.4408,12.2408,12.2408,0,0,0-6.1532,5.8627c-.1035.2127-.1982.4278-.2883.6441l3.932.8763a8.2913,8.2913,0,0,1,1.0295-1.5738v10.522h17.6525V128.94a8.2923,8.2923,0,0,1,1.0294,1.5738l3.932-.8763C136.87,129.421,136.775,129.2059,136.6715,128.9932Z"/><path class="cls-3" d="M123.1721,97.2676a12.7839,12.7839,0,0,0-13.0334,12.292c-.0011.068-.0054.1352-.0054.2035a12.0253,12.0253,0,0,0,.3908,3.041,2.2581,2.2581,0,0,1,1.0233-.3411,10.7076,10.7076,0,0,1,.4224-2.6334,27.6256,27.6256,0,0,0,3.0142.1785c5.2351,0,9.73-1.931,11.7057-4.6943.9693,2.0822,3.1207,3.9353,6.7228,5.1917.3584.1251.7757.2408,1.2067.3482a10.7384,10.7384,0,0,1,.1776,1.6093,2.2573,2.2573,0,0,1,1.0233.3411,12.1747,12.1747,0,0,0,.3908-3.041A12.7759,12.7759,0,0,0,123.1721,97.2676Z"/><path class="cls-3" d="M134.0085,136.3481a2.2723,2.2723,0,0,1,.9788-.2215,2.2175,2.2175,0,0,1,1.9591,1.1442,11.1332,11.1332,0,0,0-.421-7.5367l-3.056.6811A8.3167,8.3167,0,0,1,134.0085,136.3481Z"/><ellipse class="cls-3" cx="134.9873" cy="138.2412" rx="2.2066" ry="2.1146"/><path class="cls-3" d="M108.49,135.47a3.2577,3.2577,0,0,0-1.1835-.2317,8.67,8.67,0,0,0,2.4808-5.5294l3.0525.6955a11.3533,11.3533,0,0,1-3.1282,6.9266A2.1066,2.1066,0,0,0,108.49,135.47Z"/><ellipse class="cls-3" cx="107.5061" cy="137.3625" rx="2.2066" ry="2.1146"/><path class="cls-3" d="M102.0509,110.5766c-3.602-1.2564-5.7535-3.1095-6.7228-5.1918-1.9754,2.7633-6.4705,4.6943-11.7057,4.6943a17.3418,17.3418,0,0,1-2.9658-.3418,10.7146,10.7146,0,0,0-.4807,3.1726,11.6452,11.6452,0,0,0,23.2693,0,10.761,10.761,0,0,0-.1922-2.01A11.42,11.42,0,0,1,102.0509,110.5766Z"/><path class="cls-3" d="M95.02,159.3607h4.37a1.6478,1.6478,0,0,1,1.6478,1.6478v.6591H95.02v-2.3069Z"/><path class="cls-3" d="M88.601,161.6676H82.5831v-.6591a1.6477,1.6477,0,0,1,1.6478-1.6478h4.37v2.3069Z"/><polygon class="cls-3" points="95.02 152.332 95.02 159.361 98.959 159.361 99.416 152.332 95.02 152.332"/><polygon class="cls-3" points="84.202 152.285 84.662 159.361 88.601 159.361 88.601 152.285 84.202 152.285"/><polygon class="cls-3" points="82.984 139.497 82.093 152.261 101.528 152.261 100.637 139.497 82.984 139.497"/><path class="cls-3" d="M97.3561,122.7141h.0712c.0164,0,.0323.0021.0488.0024.0208-.0007.0416-.0024.0626-.0024a2.0528,2.0528,0,0,1,.4272.0467,3.2666,3.2666,0,0,1,1.1908.4408,12.5533,12.5533,0,0,1,3.27,2.0786,25.7074,25.7074,0,0,0,2.5526-9.336,2.236,2.236,0,0,1-1.7347.8105h-.5108"/><path class="cls-3" d="M80.8873,116.7547h-.5108a2.2358,2.2358,0,0,1-1.7372-.8138,25.7207,25.7207,0,0,0,2.5552,9.3393,12.5543,12.5543,0,0,1,3.27-2.0786,3.2664,3.2664,0,0,1,1.1909-.4408,2.0511,2.0511,0,0,1,.4271-.0467c.021,0,.0417.0017.0626.0024.0164,0,.0324-.0024.0488-.0024h.0712"/><path class="cls-3" d="M80.1759,112.91c0-.1258.0056-.25.01-.3752a2.1122,2.1122,0,0,0,.1907,4.22h.51"/><path class="cls-3" d="M102.7347,116.7547h.51a2.1122,2.1122,0,0,0,.1907-4.22h0c.0043.1248.01.2494.01.3752"/><path class="cls-3" d="M98.6308,115.0246a1.305,1.305,0,0,0-2.6077,0"/><path class="cls-3" d="M87.598,115.0246a1.305,1.305,0,0,0-2.6077,0"/><path class="cls-3" d="M89.6039,119.1a2.2086,2.2086,0,0,0,4.4132,0"/><path class="cls-3" d="M83.6224,110.08c5.2352,0,9.73-1.931,11.7057-4.6943.9693,2.0823,3.1208,3.9354,6.7228,5.1918a11.4186,11.4186,0,0,0,1.2021.3231,10.8714,10.8714,0,0,1,.183,1.635,2.2135,2.2135,0,0,1,1.729,1.0662c.0434-.8043.0671-1.5752.0776-2.2926.0055-.3781.0079-.7429.0079-1.09,0-7.1135-6.0172-12.88-13.44-12.88a13.2165,13.2165,0,0,0-13.4011,11.9473c-.023.3084-.0389.6187-.0389.9327,0,1.0058.0182,2.1538.0847,3.3836a2.2131,2.2131,0,0,1,1.7279-1.0674,10.7238,10.7238,0,0,1,.4735-2.7975"/><path class="cls-3" d="M79.9954,136.1976a2.2724,2.2724,0,0,1,.9788.2216,8.3164,8.3164,0,0,1,.5391-5.933l-3.056-.6811a11.1332,11.1332,0,0,0-.421,7.5367A2.2176,2.2176,0,0,1,79.9954,136.1976Z"/><ellipse class="cls-3" cx="79.9954" cy="138.3123" rx="2.2066" ry="2.1146"/><path class="cls-3" d="M105.31,129.0642a12.2408,12.2408,0,0,0-6.1533-5.8626,3.2666,3.2666,0,0,0-1.1908-.4408,2.0528,2.0528,0,0,0-.4272-.0467c-.021,0-.0418.0017-.0626.0024-.0165,0-.0324-.0024-.0488-.0024h-.0712a12.0991,12.0991,0,0,1-11.0911,0h-.0712c-.0164,0-.0324.0021-.0488.0024-.0209-.0007-.0416-.0024-.0626-.0024a2.0511,2.0511,0,0,0-.4271.0467,3.2664,3.2664,0,0,0-1.1909.4408,12.2408,12.2408,0,0,0-6.1533,5.8626c-.1035.2127-.1982.4279-.2883.6441l3.932.8763a8.2913,8.2913,0,0,1,1.0295-1.5738v10.56h17.6525v-10.56a8.2889,8.2889,0,0,1,1.03,1.5738l3.932-.8763C105.5082,129.4921,105.4135,129.2769,105.31,129.0642Z"/><path class="cls-3" d="M107.7166,135.3469a8.67,8.67,0,0,1-2.4808-5.5294l-3.0524.6955a11.3527,11.3527,0,0,0,3.1281,6.9266"/><line class="cls-2" x1="57.8122" y1="161.6927" x2="150.4655" y2="161.6927"/><path class="cls-2" d="M34.7617,132.611v3.3371a.6336.6336,0,0,0,.0112.1108l-3.2182,5.9336a.6122.6122,0,0,0-.0718.2733,10.0643,10.0643,0,1,0,6.8488,9.5356c0-.22-.01-.4364-.0236-.6528l5.3531-.0574a.6325.6325,0,0,0,.6051-.5347,20.7014,20.7014,0,0,1,2.3262-6.2075,13.9339,13.9339,0,0,1,10.2433-7.3306m.05-1.3176H35.9982m22.8631,5.93a10.0778,10.0778,0,1,0,1.6848.1439.6026.6026,0,0,0-.031-.1011L58.17,136.08a.626.626,0,0,0-.0487-.091v-7.7739a.618.618,0,0,0-.3379-.5507L52.41,124.9329M38.149,149.8916h-.0017a10.1,10.1,0,0,0-5.59-7.1931"/><path class="cls-2" d="M51.3721,151.6965a7.4893,7.4893,0,1,0,7.4893-7.4893h0A7.4977,7.4977,0,0,0,51.3721,151.6965Z"/><path class="cls-2" d="M28.268,159.1147a7.3817,7.3817,0,1,0-7.3819-7.3815v0A7.39,7.39,0,0,0,28.268,159.1147Z"/><line class="cls-2" x1="31.0543" y1="131.7456" x2="38.9642" y2="131.7456"/><path class="cls-2" d="M57.715,151.6913a1.1465,1.1465,0,1,0,1.1464-1.1466h0A1.1476,1.1476,0,0,0,57.715,151.6913Z"/><path class="cls-2" d="M28.2657,152.8376a1.1465,1.1465,0,1,0-1.1463-1.1467v0A1.1483,1.1483,0,0,0,28.2657,152.8376Z"/><path class="cls-2" d="M137.43,137.0374s14.4209-3.8459,40.8695-12.1821"/><line class="cls-2" x1="196.9824" y1="124.8165" x2="138.5162" y2="147.8228"/><line class="cls-2" x1="217.5587" y1="124.8196" x2="150.6207" y2="161.5568"/><path class="cls-1" d="M293.668,36.56a1.6318,1.6318,0,0,1,1.37-1.5088c.0771,0,.1387,0,.1387.0771,0,.0308-.0772.0767-.169.1074-.4619.2466-.8008.5542-.8008,1.0469,0,.3238.1534.5083.5694.6162a.3219.3219,0,0,1,.3076.3233.4439.4439,0,0,1-.462.4.9948.9948,0,0,1-.9555-1.0326Zm1.9091,0a1.6712,1.6712,0,0,1,1.3858-1.5088c.0771,0,.1387.0307.1387.0771,0,.0308-.0616.0767-.1543.1074-.4619.2466-.8155.57-.8155,1.0469,0,.3238.169.5083.585.6162a.333.333,0,0,1,.3076.3233.4722.4722,0,0,1-.4775.4,1.0072,1.0072,0,0,1-.9707-1.0424Z"/><path class="cls-1" d="M298.2109,35.7137c.3692,0,1.001.0615,1.4629.0615.3389,0,.708-.0308,1.0313-.0308.2158,0,.3076.0459.3076.108,0,.0766-.0918.123-.2764.1538-.4316.0771-.4316.2617-.3232.5385.6465,1.6016,2.1709,4.8809,3.2178,7.1905.0459.1074.1074.0766.1533,0,.4316-.878.8008-1.6475,1.2168-2.6328a.4336.4336,0,0,0,.03-.1851c-.246-.585-1.2773-2.9253-1.6162-3.6641-.4462-.9546-.5693-1.1391-1.0468-1.2627-.2461-.0459-.3234-.1074-.3234-.1845,0-.0464.0918-.0923.292-.0923.4473,0,.7393.0615,1.294.0615s.9082-.0615,1.2617-.0615c.1543,0,.2617.0307.2617.0923,0,.0771-.0918.123-.292.1694-.416.0767-.5693.2617-.3389.8311.2461.6469.708,1.6938,1.2168,2.8637.0147.0308.0762.0464.1231-.0307.3691-.7544.6925-1.4624,1.0156-2.2168.4775-1.1241.4619-1.2779-.2-1.4322-.2773-.0615-.3232-.123-.3232-.1845,0-.0464.0927-.0772.2773-.0772.3848,0,.6309.0464,1.0313.0464.539,0,.7851-.0615,1.14-.0615.1846,0,.2617.0151.2617.0766,0,.0772-.0771.1236-.2929.1695-.5694.1235-.8623.4468-1.37,1.34-.4.77-1.1543,2.294-1.416,2.771a.267.267,0,0,0,.0157.1851c.3847.9082,1.0615,2.3706,1.5849,3.5254.0615.1079.1084.0771.1387,0,.7392-1.6011,2.6025-5.9121,2.9258-7.0513.0771-.3389.0615-.6006-.4462-.7544-.2471-.0771-.3389-.1079-.3389-.1694s.0459-.0923.2616-.0923c.4,0,.6153.0615,1.0773.0615.4316,0,.8467-.0615,1.124-.0615.2,0,.2773.0151.2773.0766s-.0771.1236-.3544.1695c-.6466.1694-.9239.4927-1.8936,2.6792-.97,2.1245-2.2168,5.0342-2.9248,6.728-.1084.2617-.1543.354-.2315.354-.1074,0-.1689-.1079-.2617-.354-.3232-.9394-1.2-2.8481-1.6474-3.8335-.03-.062-.0772-.062-.1075-.0156-.5849,1.1391-1.4013,2.9409-1.74,3.8335-.0918.2466-.1846.37-.2461.37-.0918,0-.123-.0923-.23-.37-.2-.5078-.6778-1.6319-.878-2.0938-.8467-1.955-1.8779-4.2339-2.6015-5.7426-.5547-1.2007-.6778-1.4781-1.2627-1.5552-.1846-.0152-.3233-.0767-.3233-.1387C297.9033,35.7752,298.0107,35.7137,298.2109,35.7137Z"/><path class="cls-1" d="M315.6582,41.3026a.1809.1809,0,0,1-.1543.1689c-.123-.0151-2.125-.0459-2.4785-.0459h-.8311c-.0312,0-.1084.0771-.1386.123a2.11,2.11,0,0,0-.1241.8467,2.7611,2.7611,0,0,0,.709,1.8633,2.0779,2.0779,0,0,0,1.5391.6309,1.9632,1.9632,0,0,0,1.4629-.4927c.123-.1231.1845-.0923.1845-.0151a.5833.5833,0,0,1-.1533.246,2.7219,2.7219,0,0,1-2.1406.97,2.4854,2.4854,0,0,1-1.832-.7852,3.0109,3.0109,0,0,1-.7393-2.063,3.21,3.21,0,0,1,.8936-2.248,2.8626,2.8626,0,0,1,1.9238-.77A1.7769,1.7769,0,0,1,315.6582,41.3026Zm-3.1406-.7852a1.3427,1.3427,0,0,0-.3233.6309.0657.0657,0,0,0,.0616.0615l2.0009-.0152c.3389,0,.3692-.1694.3692-.3081a.9913.9913,0,0,0-.2149-.6464,1.08,1.08,0,0,0-.77-.2925A1.5955,1.5955,0,0,0,312.5176,40.5174Z"/><path class="cls-1" d="M318.94,40.3323c0-.0459.0615-.0766.1845-.1079a3.0516,3.0516,0,0,0,1.0469-.4619.4474.4474,0,0,1,.2305-.0923c.0468,0,.0771.0616.0771.1543,0,.169-.0156.6,0,.7544,0,.0615.0156.1382.0772.0923a3.2372,3.2372,0,0,1,1.9091-.8931,1.576,1.576,0,0,1,1.5391.97.103.103,0,0,0,.1084.0312,3.0874,3.0874,0,0,1,2.1094-1.0473,1.587,1.587,0,0,1,1.5547,1.14,5.026,5.026,0,0,1,.1845,1.4473c.0157.5078.0469,1.6782.0616,2.2168.0156.5083.1084.6157.4463.6777.2158.0459.2773.0923.2773.1382,0,.0771-.0772.1079-.2617.1079-.169,0-.708-.0308-1.0625-.0308-.3692,0-.708.0464-.9385.0464-.2,0-.3086-.0307-.3086-.0928,0-.0766.1387-.123.2617-.1538.4473-.0923.5235-.2309.5235-.6928a19.5358,19.5358,0,0,0-.1075-3.0484,1.1924,1.1924,0,0,0-1.2253-1.1586c-.0225.0006-.0451.0019-.0676.0038a1.9223,1.9223,0,0,0-1.3086.57.7515.7515,0,0,0-.1084.4926c.0312.4312.0771,2.7867.1084,3.2022.0459.4311.0918.539.4765.6313.17.0616.2471.0772.2471.1387s-.0928.0923-.2617.0923c-.2774,0-.7393-.0308-1.1856-.0308-.3388,0-.7089.0308-.8779.0308s-.2461-.0308-.2461-.0923c0-.0464.0772-.1079.2774-.1538.3232-.062.4765-.1387.4765-.5083l.0157-2.4634c0-.8467-.0772-1.2007-.3848-1.54a1.176,1.176,0,0,0-.94-.3389,1.742,1.742,0,0,0-1.1543.4468.5576.5576,0,0,0-.1845.3691,9.4,9.4,0,0,0-.0616,1.0474c0,1.1391.0616,2.2168.0918,2.4941a.5255.5255,0,0,0,.4932.5078c.1689.0308.23.0772.23.1231,0,.0771-.1231.1079-.23.1079-.293,0-.8008-.0308-1.17-.0308-.4776,0-.8009.0308-1.001.0308-.1388,0-.2774-.0464-.2774-.1079s.0928-.1074.3076-.1382c.4775-.1079.4775-.2773.5088-.4619.0615-.3237.0615-1.5708.0615-2.4634,0-.57.0146-.9546-.0156-1.2471a.5818.5818,0,0,0-.3545-.539c-.1074-.0616-.1387-.0923-.1387-.17Z"/><path class="cls-1" d="M329.7031,40.1785a7.6481,7.6481,0,0,0,1.1084-.4.6258.6258,0,0,1,.2315-.1079c.0459,0,.0761.0464.0615.2158-.0313.3077-.0313,1.2471-.0313,2.2325,0,1.2929,0,2.4326.0313,2.6943.03.3076.1846.3848.4307.4463.1543.0308.2314.0615.2314.123,0,.0772-.124.108-.2471.108-.1386,0-.708-.0616-1.124-.0616-.5078,0-.7539.0308-.9228.0308-.1084,0-.2159-.0308-.2159-.0923s.0772-.1079.292-.1387c.3389-.0923.4776-.2153.4932-.8466.0156-.462.0459-3.2642.0459-3.418,0-.2158-.0156-.3081-.4463-.5391-.0771-.0459-.123-.0923-.123-.123C329.5186,40.2557,329.5645,40.2093,329.7031,40.1785Zm1.54-2.51a.5864.5864,0,0,1-.57.5849.5476.5476,0,0,1-.5079-.5693.5706.5706,0,0,1,.5389-.6006h0a.5637.5637,0,0,1,.5389.5853Z"/><path class="cls-1" d="M333.6143,40.9173c0,.647.5849,1.0161.9707,1.2471,1,.6469,1.4,1.0317,1.4,1.8169a1.58,1.58,0,0,1-.8008,1.2934,2.5539,2.5539,0,0,1-1.2315.3384,3.1353,3.1353,0,0,1-1.2158-.2769c-.123-.0463-.2314-.1538-.2314-.2465,0-.2154-.03-.6-.0459-.77-.0313-.2.0156-.2466.0459-.2466.0468,0,.0927,0,.2.2925a1.502,1.502,0,0,0,.6464.8316,1.1811,1.1811,0,0,0,.6934.1845,1.0557,1.0557,0,0,0,1.001-1.0312c0-.585-.4-.9087-1.0166-1.2935-.6621-.4311-1.2783-1.0005-1.2783-1.6782a1.46,1.46,0,0,1,.5859-1.2163,1.9874,1.9874,0,0,1,1.293-.4311,3.7638,3.7638,0,0,1,1.0468.1694.2526.2526,0,0,1,.0772.1387c.0156.1694.0771.4775.0918.7236,0,.1694-.03.2466-.0762.2466-.0625,0-.0928-.0772-.1387-.1851a1.1691,1.1691,0,0,0-.37-.6313,1.2622,1.2622,0,0,0-.7236-.231.8973.8973,0,0,0-.9248.869Q333.6115,40.8744,333.6143,40.9173Z"/><path class="cls-1" d="M337.9873,40.9173c0,.647.585,1.0161.9707,1.2471,1,.6469,1.4,1.0317,1.4,1.8169a1.58,1.58,0,0,1-.8008,1.2934,2.5535,2.5535,0,0,1-1.2314.3384,3.1353,3.1353,0,0,1-1.2158-.2769c-.1231-.0463-.2315-.1538-.2315-.2465,0-.2154-.03-.6-.0459-.77-.0312-.2.0156-.2466.0459-.2466.0469,0,.0928,0,.2.2925a1.5023,1.5023,0,0,0,.6465.8316,1.1794,1.1794,0,0,0,.6933.1845,1.0555,1.0555,0,0,0,1.001-1.0312c0-.585-.4-.9087-1.0166-1.2935-.6621-.4311-1.2783-1.0005-1.2783-1.6782a1.4606,1.4606,0,0,1,.5859-1.2163,1.9876,1.9876,0,0,1,1.293-.4311,3.7639,3.7639,0,0,1,1.0469.1694.2519.2519,0,0,1,.0771.1387c.0157.1694.0772.4775.0918.7236,0,.1694-.03.2466-.0761.2466-.0625,0-.0928-.0772-.1387-.1851a1.17,1.17,0,0,0-.37-.6313,1.2626,1.2626,0,0,0-.7237-.231.8974.8974,0,0,0-.9248.869C337.985,40.86,337.9854,40.8887,337.9873,40.9173Z"/><path class="cls-1" d="M344.24,44.8587a1.7322,1.7322,0,0,1-.1845-.8774v-3.187c0-.1695-.0157-.2769-.0772-.3082a2.5248,2.5248,0,0,0-.3691-.0922c-.1231-.0308-.2-.0767-.2-.1382,0-.0313.0156-.0772.1847-.1543a3.2824,3.2824,0,0,0,1.2626-1.0313c.1387-.1543.246-.1235.246-.0464,0,.1387-.03.57-.0145.7544,0,.0464.0145.1387.0762.1387.2773,0,1.5556-.0464,1.8789-.0464.03,0,.0918.1079.0918.2158,0,.2618-.0762.3848-.1534.3848-.539,0-1.294-.0156-1.7089-.0156-.1846,0-.216.0464-.216.1387,0,.2617.0157,2.6792.0314,3.1562a1.5774,1.5774,0,0,0,.1689.8315,1.1378,1.1378,0,0,0,.9541.4156,1.5088,1.5088,0,0,0,.8477-.231c.1074-.0771.1533-.0615.1533,0,0,.0923-.1387.2466-.3389.4a2.1105,2.1105,0,0,1-1.2471.4A1.4271,1.4271,0,0,1,344.24,44.8587Z"/><path class="cls-1" d="M349.3838,40.8406a.7723.7723,0,0,0-.1543.5694,30.3977,30.3977,0,0,0,.0771,3.3105.5438.5438,0,0,0,.4922.5235c.2315.0459.3389.0766.3389.1538,0,.0464-.0918.0923-.2305.0923-.4316,0-.832-.0616-1.2783-.0616-.4775,0-.708.0616-1.001.0616-.1689,0-.2461-.0308-.2461-.0923s.0616-.0923.2461-.1387c.4473-.1079.5547-.1538.57-.7388.0459-.6162.0616-2.0322.0616-4.48,0-2.3248.03-3.2642,0-3.8492-.0157-.4926-.1231-.5385-.4619-.7236-.0616-.0459-.1084-.0767-.1084-.123s.0927-.0923.2617-.1387a6.36,6.36,0,0,0,1.124-.37.3386.3386,0,0,1,.1543-.0616c.0459,0,.0928.1079.077.3238-.0156.4155-.077,5.1884-.0614,5.4809,0,.0615.0458.0767.0614.0459a5.0634,5.0634,0,0,1,.9239-.6313,2.42,2.42,0,0,1,1.0771-.2617,1.64,1.64,0,0,1,1.3858.6928,2.97,2.97,0,0,1,.3388,1.6475c.0157,1.1548.0157,2.1094.0313,2.6943,0,.3081.0615.416.5234.4927.2.0464.2461.0771.2461.1387s-.1073.1079-.2461.1079c-.4,0-.6933-.0772-1.1084-.0772-.5234,0-.6474.0616-1.001.0616-.1845,0-.2461-.0459-.2461-.0923,0-.0616.0763-.0923.2305-.1231.416-.0923.4463-.2.5079-.647.0313-.354.0615-1.0312.0615-2.6323a2.4659,2.4659,0,0,0-.23-1.1548,1.1524,1.1524,0,0,0-1.0625-.57A1.8584,1.8584,0,0,0,349.3838,40.8406Z"/><path class="cls-1" d="M359.2236,41.3026a.1809.1809,0,0,1-.1543.1689c-.123-.0151-2.125-.0459-2.4785-.0459h-.831c-.0313,0-.1084.0771-.1387.123a2.1144,2.1144,0,0,0-.1231.8467,2.76,2.76,0,0,0,.7081,1.8633,2.0773,2.0773,0,0,0,1.539.6309,1.9632,1.9632,0,0,0,1.4629-.4927c.1231-.1231.1846-.0923.1846-.0151a.5852.5852,0,0,1-.1533.246,2.7221,2.7221,0,0,1-2.1407.97,2.4854,2.4854,0,0,1-1.832-.7852,3.0109,3.0109,0,0,1-.7393-2.063,3.21,3.21,0,0,1,.8936-2.248,2.8626,2.8626,0,0,1,1.9238-.77A1.7769,1.7769,0,0,1,359.2236,41.3026Zm-3.1406-.7852a1.3435,1.3435,0,0,0-.3232.6309.0657.0657,0,0,0,.0615.0615l2.001-.0152c.3388,0,.3691-.1694.3691-.3081a.9914.9914,0,0,0-.2148-.6464,1.08,1.08,0,0,0-.7705-.2925A1.5954,1.5954,0,0,0,356.083,40.5174Z"/><path class="cls-1" d="M360.1494,40.3323c0-.0459.0615-.0766.1846-.1079a3.0516,3.0516,0,0,0,1.0469-.4619.4461.4461,0,0,1,.23-.0923c.0469,0,.0772.0616.0772.1543,0,.169-.0156.6,0,.7544,0,.0615.0156.1382.0771.0923a3.2378,3.2378,0,0,1,1.9092-.8931,1.576,1.576,0,0,1,1.5391.97.103.103,0,0,0,.1084.0312,3.0874,3.0874,0,0,1,2.1093-1.0473,1.587,1.587,0,0,1,1.5547,1.14,5.0191,5.0191,0,0,1,.1846,1.4473c.0156.5078.0469,1.6782.0615,2.2168.0156.5083.1084.6157.4463.6777.2158.0459.2774.0923.2774.1382,0,.0771-.0772.1079-.2618.1079-.1689,0-.708-.0308-1.0625-.0308-.3691,0-.708.0464-.9384.0464-.2,0-.3086-.0307-.3086-.0928,0-.0766.1386-.123.2617-.1538.4473-.0923.5234-.2309.5234-.6928a19.5358,19.5358,0,0,0-.1074-3.0484,1.1925,1.1925,0,0,0-1.2256-1.1586q-.0337.0009-.0674.0038a1.9223,1.9223,0,0,0-1.3086.57.7515.7515,0,0,0-.1084.4926c.0314.4312.0773,2.7867.1084,3.2022.0459.4311.0918.539.4766.6313.17.0616.2471.0772.2471.1387s-.0928.0923-.2617.0923c-.2774,0-.7392-.0308-1.1856-.0308-.3389,0-.708.0308-.8779.0308s-.2461-.0308-.2461-.0923c0-.0464.0771-.1079.2774-.1538.3233-.062.4766-.1387.4766-.5083l.0155-2.4634c0-.8467-.077-1.2007-.3847-1.54a1.1762,1.1762,0,0,0-.9394-.3389,1.7418,1.7418,0,0,0-1.1543.4468.5572.5572,0,0,0-.1846.3691,9.448,9.448,0,0,0-.0615,1.0474c0,1.1391.0615,2.2168.0918,2.4941a.5253.5253,0,0,0,.4932.5078c.1689.0308.23.0772.23.1231,0,.0771-.123.1079-.23.1079-.293,0-.8009-.0308-1.1709-.0308-.4766,0-.8.0308-1,.0308-.1387,0-.2774-.0464-.2774-.1079s.0928-.1074.3075-.1382c.4776-.1079.4776-.2773.5088-.4619.0616-.3237.0616-1.5708.0616-2.4634,0-.57.0146-.9546-.0156-1.2471a.5817.5817,0,0,0-.3545-.539c-.1074-.0616-.1386-.0923-.1386-.17Z"/><path class="cls-1" d="M304.2773,57.3172a3.7335,3.7335,0,0,1,.2149,1.4009c0,.57-.0459,2.0322-.0459,2.4326a.5274.5274,0,0,0,.5693.585.9852.9852,0,0,0,.4473-.1387c.0918-.0459.1533,0,.0918.1387a1.2968,1.2968,0,0,1-1.1856.6621,1.0346,1.0346,0,0,1-.9082-.6929.0541.0541,0,0,0-.0744-.0174l-.0027.0018a2.1546,2.1546,0,0,1-1.5088.6928,1.2773,1.2773,0,0,1-1.2315-1.3215l0-.0022a1.0876,1.0876,0,0,1,.5537-.8779c.37-.2,1.7715-.6157,2.0947-.7388a.2916.2916,0,0,0,.2-.2309,5.2886,5.2886,0,0,0,.03-.7085c0-.6309-.1075-1.0621-.3692-1.2622a1.1738,1.1738,0,0,0-.6465-.2466,1.06,1.06,0,0,0-.6162.185.62.62,0,0,0-.2314.3692,1.6677,1.6677,0,0,0-.0147.2929.1933.1933,0,0,1-.0615.1231,3.341,3.341,0,0,1-.7236.3389c-.0772.0151-.1543-.0772-.1543-.1387,0-.1079.1074-.2466.2929-.4619a3.9822,3.9822,0,0,1,1.17-.8931,2.0668,2.0668,0,0,1,.9238-.2773A1.2625,1.2625,0,0,1,304.2773,57.3172Zm-1.0322,4.2339a.6407.6407,0,0,0,.17-.37,11.07,11.07,0,0,0,.0772-1.4629c0-.0152-.0313-.0923-.0625-.0767a8.6925,8.6925,0,0,0-1.4159.5234.7967.7967,0,0,0-.3848.77.8941.8941,0,0,0,.9238.8623,1.0544,1.0544,0,0,0,.6922-.2461Z"/><path class="cls-1" d="M307.9424,57.6556a.8872.8872,0,0,0-.2617.539,9.0227,9.0227,0,0,0-.0157.939c0,1.14.0314,1.94.0617,2.2632.0614.4775.247.5854.832.647.2148.0307.2919.0615.2919.1381s-.1387.108-.3692.108c-.2929,0-.8006-.0616-1.4472-.0616a8.3453,8.3453,0,0,0-.94.0923c-.1845,0-.2616-.0307-.2616-.0923,0-.0464.1083-.123.2315-.1538a.6364.6364,0,0,0,.5537-.6313c.0312-.2617.0468-1.1392.0468-2.1553v-1.709c0-.1079-.1084-.1543-.4-.4-.1084-.0771-.123-.123-.123-.1543s.0918-.0923.2305-.1382a4.6693,4.6693,0,0,0,.9853-.37.4858.4858,0,0,1,.2315-.0771c.03,0,.0615.0615.0615.2158,0,.1694-.0156.7544-.0156,1.0005,0,.0464.03.0615.0771.0156a2.5126,2.5126,0,0,1,1.6621-1.1089.8971.8971,0,0,1,.5391.2.27.27,0,0,1,.1084.2158,1.0562,1.0562,0,0,1-.3389.5235c-.1387.123-.2.1386-.2471.1386a.6956.6956,0,0,1-.2763-.1079,1.0806,1.0806,0,0,0-.5391-.1845A1.0517,1.0517,0,0,0,307.9424,57.6556Z"/><path class="cls-1" d="M316.2422,59.4417a2.9568,2.9568,0,1,1-4.8037-2.2632,3.1641,3.1641,0,0,1,1.8476-.6469,2.8893,2.8893,0,0,1,2.9554,2.8216Q316.2426,59.3975,316.2422,59.4417Zm-4.8037-.2158a3.5218,3.5218,0,0,0,.6474,2.1094,1.8286,1.8286,0,0,0,1.4473.8159,1.5226,1.5226,0,0,0,.97-.3848,3.0683,3.0683,0,0,0,.6465-2.063c0-1.4629-.7392-2.91-2.0937-2.91-.7855,0-1.6175.8314-1.6175,2.4325Z"/><path class="cls-1" d="M317.999,61.8128a1.6144,1.6144,0,0,1-.2929-.9394c0-.5079,0-3.11-.03-3.3716a.5986.5986,0,0,0-.3389-.5083c-.1387-.0923-.1846-.1382-.1846-.1846s.0772-.0771.2461-.0771a5.3958,5.3958,0,0,0,1.293-.2c.0469-.0152.0928.0771.0772.1694-.0459.8779-.0616,2.9717-.0459,3.68a1.7083,1.7083,0,0,0,.23,1.0161,1.1314,1.1314,0,0,0,.8623.3852,1.7254,1.7254,0,0,0,1.3086-.4926.944.944,0,0,0,.2774-.7085c.0312-.4156.0312-1.0161.0312-1.57,0-.231-.0156-.9546-.0156-1.355-.0156-.5235-.169-.6-.6777-.708-.169-.0308-.2461-.0772-.2461-.1231,0-.062.1386-.0927.2314-.0927h.6465a8.1656,8.1656,0,0,0,1.0625-.0923c.0459,0,.0762.0615.0615.1694-.0771.7236-.1084,2.2632-.1084,4.0493a5.0731,5.0731,0,0,0,.0313.7852c.03.1538.0771.1845.2.1694a4.2752,4.2752,0,0,1,.6307-.1387.1851.1851,0,0,1,.1846.1695c0,.0615-.1387.0923-.2919.123a6.9516,6.9516,0,0,0-1.5859.4155c-.1232.0616-.1543.0464-.1847,0s-.0313-.123-.0313-.2924c0-.1538.0157-.4927.0157-.6006,0-.0459-.0157-.1538-.0459-.1074a4.4324,4.4324,0,0,1-1.0625.7543,2.6379,2.6379,0,0,1-.9082.231A1.5139,1.5139,0,0,1,317.999,61.8128Z"/><path class="cls-1" d="M328.7324,57.0555a3.2167,3.2167,0,0,1,.4922,2.0166c0,.8159.0156.9394.0156,1.709.0157,1.0468.0616,1.1391.4776,1.247.1386.0616.23.0923.23.1538,0,.0928-.123.108-.2773.108-.2,0-.6465-.0616-.9854-.0616-.5234,0-.7236.0616-.9541.0616-.1387,0-.246-.0308-.246-.0923s.0917-.1231.2919-.1695c.37-.0922.4317-.2.4317-.6464V59.2879c0-1.2471-.1084-1.6167-.4932-1.9092a1.3667,1.3667,0,0,0-.8779-.2925,1.8416,1.8416,0,0,0-1.2.4927.7915.7915,0,0,0-.1846.4619c0,.1846.0147.97.0147,1.8936a12.5513,12.5513,0,0,0,.0927,1.6167c.0459.3384.2305.4155.4776.4927.1846.0459.2617.0766.2617.1538,0,.0923-.1543.0923-.3086.0923-.123,0-.8769-.0616-1.2314-.0616-.2,0-.5235.0308-.8155.0308-.17,0-.2929-.0308-.2929-.1079,0-.0615.1386-.1231.3232-.1538.3848-.0772.4463-.1846.4619-.4927.0313-1.1084.0313-2.5249.0313-3.772,0-.1538-.0313-.3232-.4-.5234-.0928-.0615-.1231-.0923-.1231-.1387,0-.0307.0762-.0771.2149-.123a5.7837,5.7837,0,0,0,1.2168-.5235c.0459-.0156.123.0459.1074.1231a6.8593,6.8593,0,0,0-.03.8159c0,.0308.0459.0771.0762.0464a5.3228,5.3228,0,0,1,1.0937-.6929,2.0772,2.0772,0,0,1,.9082-.185A1.5725,1.5725,0,0,1,328.7324,57.0555Z"/><path class="cls-1" d="M334.9688,56.6859c.0312.0151.0771-.0464.0771-.0772,0-.2769-.0156-3.0024-.03-3.8184a.4136.4136,0,0,0-.0615-.2617.8415.8415,0,0,0-.4316-.2461c-.1075-.0307-.1846-.0771-.1846-.123s.0771-.0928.1846-.1079a6.48,6.48,0,0,0,1.3242-.37.5184.5184,0,0,1,.2158-.0771c.0459,0,.0771.0771.0615.2617-.0312.4619-.1084,5.4658-.1084,7.0361,0,1.3394.0156,2.4019.0313,2.8023a.1366.1366,0,0,0,.1074.1387,4.01,4.01,0,0,0,.7236-.1695c.0928-.0307.1387.0152.1387.0616,0,.1079-.1074.2465-.3848.2924a8.6664,8.6664,0,0,0-1.6015.4c-.0615.0152-.1074-.0615-.1074-.1079a4.7554,4.7554,0,0,0,.0312-.6313c0-.0308-.0312-.0616-.0615-.0308a2.8936,2.8936,0,0,1-1.7559.7236,2.5112,2.5112,0,0,1-1.6318-.6464,2.9188,2.9188,0,0,1-.8008-2.063,3.0642,3.0642,0,0,1,1.34-2.5406,3.46,3.46,0,0,1,1.9092-.5849A4.2542,4.2542,0,0,1,334.9688,56.6859Zm-2.294.4155a2.7339,2.7339,0,0,0-.8467,2.2324c0,1.6631.94,2.5249,1.8789,2.5249a1.6045,1.6045,0,0,0,1.0928-.4,1.03,1.03,0,0,0,.169-.5693,21.2955,21.2955,0,0,0-.0147-2.9717,1.0337,1.0337,0,0,0-.1387-.37,1.7147,1.7147,0,0,0-1.37-.708A1.1372,1.1372,0,0,0,332.6748,57.1014Z"/><path class="cls-1" d="M340.5283,54.5609c-.1533.1694-.1992.185-.2148.185-.0772,0-.0928-.0923-.0156-.2158a2.8851,2.8851,0,0,1,2.4013-1.5088,1.7746,1.7746,0,0,1,1.9213,1.6147l.0035.0484c0,.9082-.6308,1.5088-1.5244,2.0322a.0432.0432,0,0,0,.0313.0767H343.3a2.4583,2.4583,0,0,1,1.57.6313,2.1422,2.1422,0,0,1,.6162,1.6323,4.039,4.039,0,0,1-2.4326,3.356,4.54,4.54,0,0,1-1.8935.5547c-.5547,0-1.3086-.2774-1.3086-.7085a.983.983,0,0,1,.4306-.4771.19.19,0,0,1,.2.0152,2.5242,2.5242,0,0,0,1.586.6157,1.7055,1.7055,0,0,0,1.124-.3848,2.5624,2.5624,0,0,0,.8467-1.9858,2.601,2.601,0,0,0-.6924-1.8477,1.5935,1.5935,0,0,0-1.1709-.5083,2.392,2.392,0,0,0-.6465.1236c-.1533.0459-.2617.0766-.2617,0a.25.25,0,0,1,.1386-.2158,7.453,7.453,0,0,0,.6778-.3848,1.9029,1.9029,0,0,0,1.124-1.7554c0-1.0161-.5547-1.6011-1.34-1.6011A1.7505,1.7505,0,0,0,340.5283,54.5609Z"/><path class="cls-1" d="M350.6768,57.471a.5373.5373,0,0,0-.1543.4c-.0157,1.4932.0312,3.0791.0771,3.6025.0459.2925.1231.4927.4922.57.17.0307.2773.0766.2773.1381,0,.0464-.0918.1236-.2773.1236-.4463,0-1.0615-.0772-1.3232-.0772-.6622,0-.8624.0616-1.2326.0616-.1689,0-.2763-.0459-.2763-.108s.0615-.1074.2461-.1538c.4306-.0922.4921-.2.5078-.6928.0312-.5386.0459-2.0015.0459-4.1109,0-2.3091.0156-3.4179-.0147-3.9258-.0312-.4926-.0771-.5234-.4619-.7085-.0615-.0458-.1084-.0922-.1084-.1381,0-.0616.0928-.1079.2617-.1543a11.0429,11.0429,0,0,0,1.586-.4927.7612.7612,0,0,1,.2-.0615c.0459,0,.0927.0464.0927.2924,0,.231-.0927,4.9424-.0771,5.1734,0,.0308.0459.0766.0771.0459a4.034,4.034,0,0,1,.8311-.5386,2.17,2.17,0,0,1,.9394-.2309,1.7138,1.7138,0,0,1,1.4473.6621,2.6362,2.6362,0,0,1,.3848,1.6162c.0156,1.0317.0156,1.9707.03,2.7563,0,.2617.0469.4463.462.5235.2.0459.2617.0766.2617.1538s-.169.1079-.2617.1079c-.462,0-.6465-.0772-1.2471-.0772-.7695,0-.8.0616-1.2774.0616-.1845,0-.246-.0616-.246-.108,0-.0615.0761-.0922.23-.123.4463-.123.4619-.2617.5078-.77.0313-.3545.0616-1.1548.0616-2.4175a3.1154,3.1154,0,0,0-.2-1.2471.9956.9956,0,0,0-.9385-.5078A1.4148,1.4148,0,0,0,350.6768,57.471Z"/><path class="cls-1" d="M361.7793,59.3953a3.08,3.08,0,0,1-1.2012,2.4175,3.2572,3.2572,0,0,1-1.8467.6,2.9768,2.9768,0,0,1-3.0926-2.8564q-.0016-.0417-.0021-.0836A2.83,2.83,0,0,1,356.73,57.194a3.1372,3.1372,0,0,1,1.9707-.708,2.9214,2.9214,0,0,1,3.0749,2.7592C361.7777,59.2952,361.7792,59.3452,361.7793,59.3953Zm-4.5107-.3384a4.6084,4.6084,0,0,0,.4775,2.2632,1.4893,1.4893,0,0,0,1.17.8467.9114.9114,0,0,0,.708-.354,3.6412,3.6412,0,0,0,.5078-2.0942c0-1.7549-.4922-2.9712-1.57-2.9712C357.8994,56.7474,357.2686,57.7171,357.2686,59.0569Z"/><path class="cls-1" d="M363.4287,61.8128a1.6659,1.6659,0,0,1-.3076-1.0781c-.0156-.5078-.0313-2.9561-.0459-3.2329-.0156-.3081-.1084-.3848-.3545-.5235-.123-.0771-.1689-.1386-.1689-.185s.0918-.0767.23-.0767a8.199,8.199,0,0,0,1.7862-.2c.0615-.0156.0918.0923.0918.17-.0459.8774-.0616,2.7866-.0459,3.71a1.6253,1.6253,0,0,0,.2.939,1.0192,1.0192,0,0,0,.8164.3388,1.1974,1.1974,0,0,0,.8466-.3081.7523.7523,0,0,0,.2-.5849c.03-.4927.0459-1.2627.0459-1.6475,0-.231,0-1.0928-.03-1.4932-.0469-.5234-.1084-.6-.5546-.6777-.1846-.0308-.2775-.0923-.2775-.1382,0-.0771.1543-.1079.2617-.1079h.8008c.5547,0,1.047-.1387,1.2471-.1387.0459,0,.0771.0772.0771.1695-.0615.5542-.0771,2.5864-.0771,3.9106a6.0906,6.0906,0,0,0,.0312.9238.17.17,0,0,0,.1846.1539c.1533-.0308.3848-.0923.5235-.108a.2146.2146,0,0,1,.2.2c0,.0772-.1846.108-.3388.1387a9.43,9.43,0,0,0-1.879.4463c-.1231.0464-.1846.0308-.2149,0a.5555.5555,0,0,1-.0311-.2461c0-.1538.0155-.4311.0155-.585,0-.0771-.0155-.1235-.0459-.0927a3.9445,3.9445,0,0,1-.9551.6621,2.47,2.47,0,0,1-1.0156.2158A1.4677,1.4677,0,0,1,363.4287,61.8128Z"/><path class="cls-1" d="M371.7588,57.7479a.6424.6424,0,0,0-.169.3545,10.2408,10.2408,0,0,0-.0312,1.1855c0,1.0928.0312,1.74.0625,2.0938.0615.4619.1689.5693.7383.6464.2158.0308.2773.0772.2773.1538s-.123.108-.3232.108c-.4307,0-.708-.0616-1.4473-.0616-.9238,0-.9082.0772-1.2783.0772-.1992,0-.292-.0464-.292-.1079s.0615-.1387.2305-.1695c.3545-.0771.4775-.2.5234-.6313.0156-.2617.0313-1.1392.0469-2.1553,0-.97.0156-1.37,0-1.5552,0-.0922-.0469-.123-.4-.4311-.0928-.0767-.1231-.1074-.1231-.1538s.1076-.1079.169-.1387a7.9354,7.9354,0,0,0,1.4785-.5078.5161.5161,0,0,1,.2617-.0923c.03,0,.0762.0923.0762.169,0,.2773-.03.7085-.03,1.0473,0,.0767.0615.0923.0772.0459.4306-.5693.9853-1.124,1.5859-1.124a.8618.8618,0,0,1,.5079.1543c.1542.1074.2157.1846.2157.3076a1.5769,1.5769,0,0,1-.4619.7393c-.1543.1538-.2314.1845-.3086.1845a.4363.4363,0,0,1-.2617-.1079,1.2467,1.2467,0,0,0-.6005-.2461A.7224.7224,0,0,0,371.7588,57.7479Z"/><path class="cls-1" d="M375.6094,57.5633c0,.6006.5234.8931,1.1543,1.2935.97.6464,1.34,1.0468,1.34,1.832a1.7172,1.7172,0,0,1-.708,1.2934,3.0153,3.0153,0,0,1-1.5088.4307,4.2683,4.2683,0,0,1-1.34-.2617c-.1074-.0459-.2617-.1846-.2617-.2925-.0157-.2153-.0616-.6929-.0772-.8467-.0156-.2.0156-.3081.0772-.3081.0459,0,.1074.0464.2.3237a1.9343,1.9343,0,0,0,.6464.9234,1.142,1.142,0,0,0,.77.2.9218.9218,0,0,0,.9238-.8618c0-.4468-.3232-.77-1.1084-1.2627a2.2858,2.2858,0,0,1-1.2471-1.8013,1.5836,1.5836,0,0,1,.7549-1.37,2.311,2.311,0,0,1,1.3086-.37,3.5447,3.5447,0,0,1,1.2.2.2022.2022,0,0,1,.0928.1538c0,.1538.0615.4311.0771.8315.0156.1694-.0312.2461-.0928.2461s-.0917-.0767-.1386-.2a1.3968,1.3968,0,0,0-.3848-.708,1.2851,1.2851,0,0,0-.8008-.2773A.8864.8864,0,0,0,375.6094,57.5633Z"/><path class="cls-1" d="M305.4473,74.9026a.181.181,0,0,1-.1543.169c-.1231-.0151-2.125-.0459-2.4785-.0459h-.8311c-.0313,0-.1084.0771-.1387.123a2.1147,2.1147,0,0,0-.124.8467,2.7611,2.7611,0,0,0,.709,1.8633,2.0775,2.0775,0,0,0,1.5391.6309,1.9628,1.9628,0,0,0,1.4628-.4927c.1231-.1231.1846-.0923.1846-.0151a.585.585,0,0,1-.1532.246,2.722,2.722,0,0,1-2.1406.97,2.4855,2.4855,0,0,1-1.8321-.7852,3.01,3.01,0,0,1-.7392-2.063,3.21,3.21,0,0,1,.8935-2.248,2.8626,2.8626,0,0,1,1.9239-.77A1.7769,1.7769,0,0,1,305.4473,74.9026Zm-3.1407-.7851a1.3435,1.3435,0,0,0-.3232.6309.0657.0657,0,0,0,.0615.0615l2.001-.0152c.3389,0,.3691-.1694.3691-.3081a.9919.9919,0,0,0-.215-.6466,1.08,1.08,0,0,0-.77-.2924A1.596,1.596,0,0,0,302.3066,74.1175Z"/><path class="cls-1" d="M308.1279,73.4705c.1543,0,.2305.0308.2305.0923s-.0918.1079-.2148.1387c-.4.1079-.4317.2-.3086.6621.1386.477,1.0625,2.8638,1.2627,3.2334.0156.0615.0459.0766.0615.0307.2-.37,1.0625-2.4174,1.247-2.9716a2.1428,2.1428,0,0,0,.17-.6314c0-.0923-.0928-.2617-.5088-.354q-.1847-.046-.1846-.1387c0-.0459.0615-.0615.1846-.0615.1855,0,.416.0464.7549.0464.2461,0,.6465-.0464.7851-.0464.1074,0,.2158.0308.2158.0923s-.0927.0928-.2314.1387c-.3076.0771-.4775.2617-.6621.6928-.3535.77-1.1387,2.4942-1.293,2.8638a16.596,16.596,0,0,0-.7392,1.7241c-.0772.231-.1387.2618-.1846.2618s-.1074-.0152-.169-.231c-.0771-.231-.1855-.6-.4-1.1851-.2774-.7085-1.1856-3.11-1.4473-3.603a.9121.9121,0,0,0-.6934-.5386c-.1386-.0307-.2148-.0771-.2148-.1235,0-.0615.0762-.1074.2617-.1074.4307,0,.6924.0615,1.1543.0615C307.62,73.5169,307.8818,73.4705,308.1279,73.4705Z"/><path class="cls-1" d="M316.72,74.9026a.1808.1808,0,0,1-.1543.169c-.123-.0151-2.125-.0459-2.4785-.0459h-.831c-.0313,0-.1084.0771-.1387.123a2.1144,2.1144,0,0,0-.1231.8467,2.7608,2.7608,0,0,0,.708,1.8633,2.0779,2.0779,0,0,0,1.5391.6309,1.9632,1.9632,0,0,0,1.4629-.4927c.123-.1231.1846-.0923.1846-.0151a.5865.5865,0,0,1-.1533.246,2.7221,2.7221,0,0,1-2.1407.97,2.4854,2.4854,0,0,1-1.832-.7852,3.0109,3.0109,0,0,1-.7393-2.063,3.21,3.21,0,0,1,.8936-2.248,2.8626,2.8626,0,0,1,1.9238-.77A1.7769,1.7769,0,0,1,316.72,74.9026Zm-3.1406-.7851a1.3435,1.3435,0,0,0-.3232.6309.0657.0657,0,0,0,.0615.0615l2.001-.0152c.3388,0,.3691-.1694.3691-.3081a.9922.9922,0,0,0-.2148-.6465,1.08,1.08,0,0,0-.7706-.2924,1.5961,1.5961,0,0,0-1.1233.57Z"/><path class="cls-1" d="M319.4463,74.4559a.8872.8872,0,0,0-.2617.539,9.0227,9.0227,0,0,0-.0157.939c0,1.14.0313,1.94.0616,2.2632.0615.4775.247.5849.832.647.2148.0307.292.0615.292.1381s-.1387.1079-.3691.1079c-.293,0-.8008-.0615-1.4473-.0615a8.3453,8.3453,0,0,0-.94.0923c-.1845,0-.2617-.0308-.2617-.0923,0-.0464.1084-.123.2315-.1538a.6363.6363,0,0,0,.5537-.6313c.0312-.2617.0469-1.1392.0469-2.1553v-1.709c0-.1079-.1084-.1543-.4-.4-.1084-.0771-.1231-.1235-.1231-.1543s.0918-.0923.23-.1382a4.6693,4.6693,0,0,0,.9853-.37.4865.4865,0,0,1,.2315-.0771c.03,0,.0615.0615.0615.2158,0,.1694-.0156.7544-.0156,1.0005,0,.0464.03.0615.077.0156a2.512,2.512,0,0,1,1.6622-1.1084.8967.8967,0,0,1,.5391.2.27.27,0,0,1,.1083.2158,1.0549,1.0549,0,0,1-.3388.5235c-.1387.123-.2.1386-.2471.1386a.6936.6936,0,0,1-.2764-.1079,1.08,1.08,0,0,0-.539-.1845A1.052,1.052,0,0,0,319.4463,74.4559Z"/><path class="cls-1" d="M324.19,73.4705c.1533,0,.2617.0464.2617.1079s-.1084.1079-.2.1231c-.3389.1079-.37.185-.2315.5849.2.5391,1.0469,2.6177,1.3555,3.2642.03.0615.0762.0464.0918,0,.2-.5234,1.0625-2.7407,1.1855-3.0947a1.1533,1.1533,0,0,0,.0772-.4463c0-.1079-.0772-.231-.3389-.3081-.23-.0459-.2773-.0923-.2773-.1387,0-.0615.077-.0923.2157-.0923.1846,0,.5079.0464.7393.0464.2773,0,.4775-.0464.708-.0464.0928,0,.1845.0156.1845.0615s-.0614.108-.2148.1543c-.3086.0923-.4619.2-.709.77-.1846.3847-1.1387,2.7558-1.37,3.3408-.1846.5083-.3232.8623-.6465,1.6938-.3691.8931-.9541,2.4942-1.17,3.0176a2.1263,2.1263,0,0,1-.293.57.5791.5791,0,0,1-.5078.2618.5119.5119,0,0,1-.5078-.5083.4541.4541,0,0,1,.4307-.4463c.1084,0,.2.0307.3085.0307a.3715.3715,0,0,0,.4-.2617c.1543-.3232.6-1.5859,1.124-2.9253a.6622.6622,0,0,0-.0147-.4927c-.0928-.2465-1.2168-3.0947-1.9091-4.6035a.8262.8262,0,0,0-.5547-.4155c-.1846-.0464-.2774-.1079-.2774-.1543,0-.0767.1387-.1074.2471-.1074.2764,0,.708.0615,1.0771.0615C323.5889,73.5169,323.9893,73.4705,324.19,73.4705Z"/><path class="cls-1" d="M332.0273,73.4861c.1387,0,.2618.0308.2618.1075,0,.0464-.1534.1079-.2618.1235-.3691.0615-.3535.2-.2919.4463.23.7085.8925,2.4634,1.247,3.3257.0156.0459.0772.0615.0918.0151.2471-.5234.9238-2.0166,1.0781-2.417.0157-.0771.0616-.1846.03-.2617-.0762-.2-.1846-.4463-.2617-.6313a.8188.8188,0,0,0-.585-.5079c-.1386-.0307-.2148-.0615-.2148-.1235s.0762-.0923.2305-.0923c.3232,0,.7236.0464,1.0468.0464.4463,0,.6319-.0308.9082-.0308.17,0,.2315.0308.2315.0767,0,.062-.1084.1235-.2315.1543-.3534.0767-.4462.1382-.2617.6157.17.4771.9855,2.7095,1.2012,3.187.0459.0772.0771.0152.0771,0,.1846-.4.9239-2.1552,1.1084-2.6792a3.4972,3.4972,0,0,0,.2461-.7387c0-.1387-.0615-.2774-.4619-.3848-.2-.0615-.2461-.1079-.2461-.1543,0-.0615.0928-.0923.2-.0923.2617,0,.5391.0464.7852.0464.1543,0,.539-.0464.7695-.0464.1387,0,.2158.0308.2158.0923s-.0459.0928-.2773.1543c-.2764.0767-.4619.2925-.6621.708-.2764.5542-.7383,1.6167-1.2158,2.71-.2618.6308-.5391,1.3086-.7237,1.8012-.0927.2461-.1543.2925-.2.2925-.0615,0-.1074-.0615-.1689-.2773-.0772-.2154-.1856-.5235-.37-1.0469-.292-.8311-.6153-1.709-.9239-2.5249-.0156-.0459-.0459-.0771-.0771,0-.1387.2925-.7852,1.709-1,2.248-.2315.5079-.37.8619-.5391,1.3086-.0771.2154-.1543.2925-.2158.2925s-.1074-.1079-.1543-.2773c-.0762-.2154-.1689-.585-.4307-1.3238-.2773-.7543-1.1543-3.0332-1.3242-3.3256a.8772.8772,0,0,0-.6777-.6006c-.1231-.0308-.2149-.0767-.2149-.1231,0-.0923.1075-.123.2774-.123.1992,0,.6611.0615,1.0928.0615C331.4121,73.5169,331.72,73.4861,332.0273,73.4861Z"/><path class="cls-1" d="M343.7158,74.9026a.1809.1809,0,0,1-.1543.169c-.123-.0151-2.125-.0459-2.4785-.0459h-.831c-.0313,0-.1084.0771-.1387.123a2.1144,2.1144,0,0,0-.1231.8467,2.7608,2.7608,0,0,0,.708,1.8633,2.0779,2.0779,0,0,0,1.5391.6309,1.9632,1.9632,0,0,0,1.4629-.4927c.123-.1231.1846-.0923.1846-.0151a.5854.5854,0,0,1-.1534.246,2.722,2.722,0,0,1-2.1406.97,2.4853,2.4853,0,0,1-1.832-.7852,3.01,3.01,0,0,1-.7393-2.063,3.21,3.21,0,0,1,.8936-2.248,2.8624,2.8624,0,0,1,1.9238-.77A1.7768,1.7768,0,0,1,343.7158,74.9026Zm-3.1406-.7851a1.3416,1.3416,0,0,0-.3232.6309.0657.0657,0,0,0,.0615.0615l2.001-.0152c.3388,0,.3691-.1694.3691-.3081a.9928.9928,0,0,0-.2148-.6465,1.08,1.08,0,0,0-.7706-.2924A1.5962,1.5962,0,0,0,340.5752,74.1175Z"/><path class="cls-1" d="M349.2754,74.9026a.181.181,0,0,1-.1543.169c-.1231-.0151-2.125-.0459-2.4785-.0459h-.8311c-.0312,0-.1084.0771-.1386.123a2.1113,2.1113,0,0,0-.1241.8467,2.7607,2.7607,0,0,0,.709,1.8633,2.0779,2.0779,0,0,0,1.5391.6309,1.9632,1.9632,0,0,0,1.4629-.4927c.123-.1231.1845-.0923.1845-.0151a.5852.5852,0,0,1-.1533.246,2.7219,2.7219,0,0,1-2.1406.97,2.4853,2.4853,0,0,1-1.832-.7852,3.01,3.01,0,0,1-.7393-2.063,3.21,3.21,0,0,1,.8936-2.248,2.8626,2.8626,0,0,1,1.9238-.77A1.7769,1.7769,0,0,1,349.2754,74.9026Zm-3.1406-.7851a1.3427,1.3427,0,0,0-.3233.6309.0657.0657,0,0,0,.0615.0615l2.001-.0152c.3389,0,.3692-.1694.3692-.3081a.9917.9917,0,0,0-.2149-.6465,1.08,1.08,0,0,0-.7705-.2924A1.5962,1.5962,0,0,0,346.1348,74.1175Z"/><path class="cls-1" d="M354.28,73.5169c.3379,0,.9541-.0771,1.3545-.0771.1689,0,.23.0463.23.0922,0,.0308-.0459.0928-.23.1236a2.7408,2.7408,0,0,0-1.416.6772c-.4.3081-1.1553.9546-1.4473,1.2315-.0313.0312,0,.0771.0146.1079.4619.539,1.57,1.7246,2.294,2.4634a1.9882,1.9882,0,0,0,1.1094.7236c.1376.0308.23.0771.23.1387,0,.0922-.1387.1079-.2617.1079-.5234,0-1.1084-.0772-1.709-.0772-.2617,0-.4619.0157-.6924.0157-.17,0-.2773,0-.2773-.0928,0-.0767.0771-.1074.3535-.1695.2617-.0615.293-.2.1543-.4155-.3232-.37-1.416-1.5239-1.8779-1.9858-.1231-.1236-.2315-.231-.293-.231-.0459,0-.0615.0923-.0615.1538-.0156.2774-.03.7852-.0156,1.6319,0,.7392.123.7851.6.893.1543.0464.2315.0772.2315.1387,0,.0772-.1231.1079-.293.1079-.4306,0-.7539-.0464-1.1543-.0464-.4931,0-.8164.0464-1.001.0464-.1542,0-.246-.0464-.246-.1079,0-.0464.0918-.0923.2-.1079.4766-.1231.585-.2617.6153-.77.0615-1.1241.0771-2.4175.0771-3.6182.0157-1.2012.0616-3.1719.0616-4.3726a2.6484,2.6484,0,0,0-.0616-.7085c-.03-.123-.1689-.2153-.3545-.3076-.0761-.0464-.1377-.0771-.1377-.1079,0-.0615.0918-.0923.2461-.1387a9.4526,9.4526,0,0,0,1.0928-.3691.716.716,0,0,1,.2461-.0771c.0156,0,.0469.0463.0469.123-.0313.5083-.0772,1.8628-.0772,3.0024,0,.4771-.0771,2.5093-.0771,4.2032,0,.1694.0312.2461.0771.2461a.7719.7719,0,0,0,.3076-.1695,13.13,13.13,0,0,0,1.663-1.54.56.56,0,0,0,.1691-.2769c0-.0923-.1074-.185-.4463-.2466-.1387-.0151-.2617-.0615-.2617-.123s.1074-.1079.2461-.1079C353.7568,73.5013,354.11,73.5169,354.28,73.5169Z"/><path class="cls-1" d="M356.7754,78.5359a.7.7,0,0,1,.6934-.6928.6485.6485,0,0,1,.6152.6772.6618.6618,0,0,1-.63.6922c-.0107,0-.0214.0007-.0321.0007A.678.678,0,0,1,356.7754,78.5359Z"/><path class="cls-1" d="M359.916,69.76a1.6715,1.6715,0,0,1-1.3857,1.4936c-.0918,0-.1377-.0307-.1377-.0771,0-.0308.0615-.0772.1533-.1231a1.2328,1.2328,0,0,0,.8164-1.0317c0-.3076-.17-.5078-.585-.6-.1543-.0464-.3085-.1387-.3085-.3237a.4581.4581,0,0,1,.4619-.4312,1.0278,1.0278,0,0,1,.9866,1.0674Zm1.9248,0a1.6715,1.6715,0,0,1-1.3857,1.4936c-.0772,0-.1387-.0307-.1387-.0771,0-.0308.0928-.0772.1543-.1231a1.2052,1.2052,0,0,0,.8154-1.0161c0-.3232-.1689-.5234-.5849-.6157a.36.36,0,0,1-.292-.3237.4522.4522,0,0,1,.472-.4315l.0055,0a1.0238,1.0238,0,0,1,.9544,1.0888Z"/></svg>