<svg id="Layer_1" data-name="Layer 1" xmlns="http://www.w3.org/2000/svg" viewBox="0 0 399 200"><defs><style>.cls-1{fill:#333838;}.cls-2,.cls-4,.cls-5,.cls-6,.cls-7{fill:none;stroke-linecap:round;}.cls-2,.cls-4,.cls-5,.cls-7{stroke:#222f3c;}.cls-2,.cls-6,.cls-7{stroke-linejoin:round;}.cls-2,.cls-4{stroke-width:0.5px;}.cls-3{fill:#222f3c;}.cls-4,.cls-5{stroke-miterlimit:10;}.cls-5,.cls-6,.cls-7{stroke-width:0.4px;}.cls-6{stroke:#231f20;}</style></defs><path class="cls-1" d="M254.6748,137.8917a10.62,10.62,0,0,1,1.0469.3692c.0928.0312.1543.2.1543.3545.0146.1386.1074.8164.1387,1.0009.0459.2-.0313.292-.0772.292-.0771,0-.0928-.03-.1846-.2461a2.8222,2.8222,0,0,0-2.956-1.8164,3.9226,3.9226,0,0,0-2.8487,1.2315,5.4253,5.4253,0,0,0-1.2929,3.71,5.18,5.18,0,0,0,1.7851,3.88,3.7574,3.7574,0,0,0,2.3565.8936,2.5781,2.5781,0,0,0,1.7236-.6465,1.3737,1.3737,0,0,0,.2315-.832,13.1374,13.1374,0,0,0,.0156-1.7549c-.0469-.5235-.2315-.6924-.8779-.8008-.1543-.0156-.293-.0615-.293-.123s.0928-.1075.3848-.1075c.3388,0,.7392.0616,1.3554.0616.5078,0,.8623-.0469.9854-.0469.1543,0,.2617.0469.2617.0928,0,.0927-.17.1386-.3076.1689-.2471.0625-.3389.1855-.3389,1.001,0,.7549.0772,1.7246.0772,1.94,0,.2.0146.3076-.1084.3691-.169.0772-.4307.2-.7539.3692a6.1452,6.1452,0,0,1-2.3252.57,5.699,5.699,0,0,1-3.88-1.4014,4.6386,4.6386,0,0,1-1.6631-3.664,4.843,4.843,0,0,1,2.0791-4.0489,5.4787,5.4787,0,0,1,3.5566-1.0937A6.9287,6.9287,0,0,1,254.6748,137.8917Z"/><path class="cls-1" d="M259.4043,142.9728a.8858.8858,0,0,0-.2617.5381,9.0235,9.0235,0,0,0-.0156.9394c0,1.14.0312,1.9405.0615,2.2637.0615.4766.2471.585.832.6465.2149.03.292.0615.292.1387s-.1387.1074-.3691.1074c-.293,0-.8008-.0615-1.4473-.0615a8.2966,8.2966,0,0,0-.94.0927c-.1845,0-.2617-.0312-.2617-.0927,0-.0459.1084-.1231.2315-.1543a.6347.6347,0,0,0,.5537-.6309c.0312-.2617.0469-1.14.0469-2.1553v-1.709c0-.1084-.1084-.1543-.4-.4-.1084-.0771-.1231-.123-.1231-.1542s.0918-.0918.2305-.1387a4.6732,4.6732,0,0,0,.9853-.3692.4862.4862,0,0,1,.2315-.0771c.03,0,.0615.0615.0615.2158,0,.169-.0156.7539-.0156,1.001,0,.0459.03.0615.0771.0146a2.5156,2.5156,0,0,1,1.6621-1.1084.8969.8969,0,0,1,.5391.2.2693.2693,0,0,1,.1084.2159,1.0555,1.0555,0,0,1-.3389.5234c-.1386.123-.2.1387-.247.1387a.6932.6932,0,0,1-.2764-.1084,1.084,1.084,0,0,0-.5391-.1846A1.0483,1.0483,0,0,0,259.4043,142.9728Z"/><path class="cls-1" d="M267.7031,144.7579a2.9484,2.9484,0,0,1-2.9248,2.9717,2.936,2.936,0,0,1-1.8789-5.2344,3.1642,3.1642,0,0,1,1.8477-.6464A2.8884,2.8884,0,0,1,267.7031,144.7579Zm-4.8037-.2148a3.5246,3.5246,0,0,0,.6475,2.1094,1.829,1.829,0,0,0,1.4472.8154,1.52,1.52,0,0,0,.97-.3848,3.0692,3.0692,0,0,0,.6465-2.0634c0-1.462-.7393-2.9092-2.0938-2.9092C263.7315,142.1105,262.8994,142.9415,262.8994,144.5431Z"/><path class="cls-1" d="M269.4609,147.129a1.6112,1.6112,0,0,1-.2929-.9384c0-.5088,0-3.11-.03-3.3721a.5972.5972,0,0,0-.3389-.5078c-.1386-.0928-.1845-.1387-.1845-.1856s.0771-.0761.2461-.0761a5.42,5.42,0,0,0,1.2929-.2c.0469-.0157.0928.0771.0772.1689-.0459.8779-.0615,2.9717-.0459,3.68a1.7112,1.7112,0,0,0,.23,1.0166,1.1328,1.1328,0,0,0,.8624.3848,1.722,1.722,0,0,0,1.3085-.4932.94.94,0,0,0,.2774-.708c.0312-.416.0312-1.0156.0312-1.57,0-.2315-.0156-.9541-.0156-1.3545-.0156-.5234-.1689-.6006-.6777-.709-.169-.03-.2461-.0762-.2461-.123,0-.0616.1387-.0918.2314-.0918h.6465a8.134,8.134,0,0,0,1.0625-.0928c.0459,0,.0762.0615.0615.1689-.0771.7237-.1084,2.2637-.1084,4.05a5.07,5.07,0,0,0,.0313.7852c.03.1543.0771.1846.2.1689a4.3467,4.3467,0,0,1,.6308-.1386.1854.1854,0,0,1,.1846.17c0,.0615-.1387.0918-.292.123a6.9329,6.9329,0,0,0-1.5859.4161c-.1231.0615-.1543.0458-.1846,0s-.0312-.1231-.0312-.293c0-.1543.0156-.4922.0156-.6006,0-.0459-.0156-.1533-.0459-.1074a4.4167,4.4167,0,0,1-1.0625.7539,2.6191,2.6191,0,0,1-.9082.2314A1.5131,1.5131,0,0,1,269.4609,147.129Z"/><path class="cls-1" d="M280.1934,142.3722a3.2165,3.2165,0,0,1,.4922,2.0166c0,.8164.0156.94.0156,1.709.0156,1.0469.0615,1.14.4775,1.2471.1387.0615.2305.0927.2305.1543,0,.0918-.1231.1074-.2774.1074-.2,0-.6464-.0615-.9853-.0615-.5234,0-.7236.0615-.9541.0615-.1387,0-.2461-.03-.2461-.0928s.0918-.123.292-.1689c.37-.0928.4316-.2.4316-.6465v-2.0938c0-1.247-.1084-1.6172-.4931-1.9092a1.3692,1.3692,0,0,0-.877-.2929,1.8426,1.8426,0,0,0-1.2012.4931.7938.7938,0,0,0-.1845.462c0,.1845.0146.97.0146,1.8935a12.499,12.499,0,0,0,.0928,1.6162c.0459.3389.2305.416.4775.4932.1846.0459.2617.0771.2617.1533,0,.0928-.1542.0928-.3085.0928-.1231,0-.877-.0615-1.2315-.0615-.2,0-.5234.0312-.8154.0312-.17,0-.293-.0312-.293-.1084,0-.0615.1387-.123.3233-.1533.3847-.0772.4462-.1856.4619-.4932.0312-1.1084.0312-2.5254.0312-3.7724,0-.1534-.0312-.3233-.4-.5235-.0927-.0615-.123-.0918-.123-.1377,0-.0312.0762-.0771.2148-.124a5.7361,5.7361,0,0,0,1.2168-.5234c.0459-.0147.1231.0468.1074.123a6.8687,6.8687,0,0,0-.03.8164c0,.0313.0459.0772.0761.0459a5.3416,5.3416,0,0,1,1.0938-.6924,2.0753,2.0753,0,0,1,.9082-.1845A1.5725,1.5725,0,0,1,280.1934,142.3722Z"/><path class="cls-1" d="M286.43,142.0021c.0312.0156.0771-.0459.0771-.0762,0-.2773-.0156-3.0029-.03-3.8183a.414.414,0,0,0-.0616-.2618.8421.8421,0,0,0-.4316-.247c-.1074-.03-.1846-.0762-.1846-.1231s.0772-.0918.1846-.1074a6.5947,6.5947,0,0,0,1.3242-.3691.5119.5119,0,0,1,.2158-.0772c.0459,0,.0772.0772.0616.2617-.0313.4619-.1084,5.4658-.1084,7.0362,0,1.3388.0156,2.4013.0312,2.8017a.1366.1366,0,0,0,.1074.1387,3.9758,3.9758,0,0,0,.7237-.17c.0927-.03.1386.0156.1386.0625,0,.1074-.1074.2461-.3847.292a8.6709,8.6709,0,0,0-1.6016.4c-.0615.0157-.1074-.0615-.1074-.1074a4.761,4.761,0,0,0,.0312-.6318c0-.03-.0312-.0615-.0615-.03a2.89,2.89,0,0,1-1.7558.7237,2.5107,2.5107,0,0,1-1.6319-.6465,2.9205,2.9205,0,0,1-.8008-2.0635,3.0614,3.0614,0,0,1,1.34-2.54,3.459,3.459,0,0,1,1.9092-.586A4.2562,4.2562,0,0,1,286.43,142.0021Zm-2.294.416a2.735,2.735,0,0,0-.8466,2.2324c0,1.6631.9394,2.5254,1.8789,2.5254a1.6093,1.6093,0,0,0,1.0927-.4,1.034,1.034,0,0,0,.169-.57,21.2682,21.2682,0,0,0-.0147-2.9707,1.0356,1.0356,0,0,0-.1386-.37,1.7147,1.7147,0,0,0-1.37-.708A1.1407,1.1407,0,0,0,284.1357,142.4181Z"/><path class="cls-1" d="M290.5117,142.0021c.1387,0,.2617.0312.2617.1084,0,.0459-.1533.1074-.2617.123-.3691.0616-.3535.2-.292.4463.2305.708.8926,2.4639,1.2471,3.3252.0156.0469.0772.0615.0918.0156.2471-.5234.9238-2.0166,1.0781-2.417.0157-.0771.0615-.1845.03-.2617-.0762-.2-.1846-.4463-.2617-.6308a.8216.8216,0,0,0-.585-.5088c-.1387-.03-.2148-.0615-.2148-.1231s.0761-.0918.23-.0918c.3233,0,.7237.0459,1.0469.0459.4463,0,.6319-.0312.9082-.0312.17,0,.2315.0312.2315.0771,0,.0616-.1075.1231-.2315.1543-.3535.0772-.4463.1387-.2617.6153.17.4775.9854,2.71,1.2012,3.1875.0459.0771.0771.0156.0771,0,.1846-.4.9239-2.1553,1.1084-2.6787a3.5193,3.5193,0,0,0,.2461-.7393c0-.1387-.0615-.2773-.4619-.3848-.2-.0615-.2461-.1084-.2461-.1543,0-.0615.0928-.0918.2-.0918.2617,0,.5391.0459.7852.0459.1543,0,.539-.0459.7695-.0459.1387,0,.2158.03.2158.0918s-.0459.0928-.2773.1543c-.2774.0772-.4619.292-.6621.708-.2764.5547-.7383,1.6162-1.2159,2.71-.2617.6309-.539,1.3086-.7236,1.8008-.0928.2471-.1543.2929-.2.2929-.0615,0-.1074-.0615-.1689-.2773-.0772-.2158-.1856-.5234-.37-1.0469-.2919-.831-.6152-1.709-.9238-2.5244-.0156-.0469-.0459-.0771-.0771,0-.1387.292-.7852,1.709-1,2.2471-.2315.5088-.37.8623-.5391,1.3086-.0771.2158-.1543.2929-.2158.2929s-.1074-.1074-.1543-.2773c-.0762-.2158-.169-.585-.4307-1.3242-.2773-.7539-1.1543-3.0322-1.3242-3.3252a.8773.8773,0,0,0-.6777-.6006c-.1231-.03-.2149-.0771-.2149-.123,0-.0928.1075-.1231.2774-.1231.1992,0,.6611.0615,1.0927.0615C289.8965,142.0333,290.2041,142.0021,290.5117,142.0021Z"/><path class="cls-1" d="M301.2451,142.6339a3.7347,3.7347,0,0,1,.2149,1.4c0,.57-.0459,2.0322-.0459,2.4326a.528.528,0,0,0,.5693.586.9917.9917,0,0,0,.4473-.1387c.0918-.0469.1533,0,.0918.1387a1.2972,1.2972,0,0,1-1.1856.6611,1.0333,1.0333,0,0,1-.9082-.6924.0533.0533,0,0,0-.0771-.0156,2.1536,2.1536,0,0,1-1.5088.6934,1.2776,1.2776,0,0,1-1.2315-1.3243,1.0871,1.0871,0,0,1,.5537-.8779c.37-.2,1.7715-.6152,2.0948-.7393a.2906.2906,0,0,0,.2-.23,5.3218,5.3218,0,0,0,.03-.708c0-.6319-.1074-1.0625-.3691-1.2627a1.17,1.17,0,0,0-.6465-.2461,1.06,1.06,0,0,0-.6162.1845.6182.6182,0,0,0-.2314.3692,1.6643,1.6643,0,0,0-.0147.293.1935.1935,0,0,1-.0615.123,3.3623,3.3623,0,0,1-.7236.3389c-.0772.0156-.1543-.0772-.1543-.1387,0-.1074.1074-.2461.2929-.4619a3.994,3.994,0,0,1,1.17-.8936,2.0647,2.0647,0,0,1,.9239-.2763A1.2622,1.2622,0,0,1,301.2451,142.6339Zm-1.0322,4.2334a.6391.6391,0,0,0,.17-.3691,11.0849,11.0849,0,0,0,.0772-1.4629c0-.0156-.0313-.0918-.0625-.0772a8.772,8.772,0,0,0-1.416.5235.7978.7978,0,0,0-.3848.7705.8944.8944,0,0,0,.9238.8623A1.0525,1.0525,0,0,0,300.2129,146.8673Z"/><path class="cls-1" d="M303.57,146.9757a1.7355,1.7355,0,0,1-.1846-.8779v-3.1865c0-.17-.0156-.2774-.0771-.3086a2.5254,2.5254,0,0,0-.3691-.0918c-.1231-.0313-.2-.0772-.2-.1387,0-.0312.0156-.0771.1845-.1543a3.2768,3.2768,0,0,0,1.2627-1.0312c.1387-.1543.2461-.1231.2461-.0459,0,.1377-.03.5693-.0146.7539,0,.0459.0146.1386.0761.1386.2774,0,1.5557-.0459,1.879-.0459.03,0,.0918.1075.0918.2149,0,.2617-.0762.3847-.1534.3847-.539,0-1.2939-.0146-1.709-.0146-.1845,0-.2158.0459-.2158.1387,0,.2617.0157,2.6787.0313,3.1562a1.5777,1.5777,0,0,0,.1689.8311,1.14,1.14,0,0,0,.9541.416,1.5034,1.5034,0,0,0,.8477-.2315c.1074-.0771.1533-.0615.1533,0,0,.0928-.1387.2461-.3389.4a2.1115,2.1115,0,0,1-1.247.4A1.4274,1.4274,0,0,1,303.57,146.9757Z"/><path class="cls-1" d="M311.5938,143.4191a.1805.1805,0,0,1-.1543.1689c-.1231-.0156-2.125-.0459-2.4786-.0459h-.831c-.0313,0-.1084.0772-.1387.1231a2.1166,2.1166,0,0,0-.123.8467,2.7592,2.7592,0,0,0,.708,1.8632,2.0773,2.0773,0,0,0,1.539.6309,1.9668,1.9668,0,0,0,1.4629-.4922c.1231-.123.1846-.0928.1846-.0156a.585.585,0,0,1-.1533.2461,2.7218,2.7218,0,0,1-2.1406.97,2.4837,2.4837,0,0,1-1.8321-.7852,3.0081,3.0081,0,0,1-.7392-2.0625,3.21,3.21,0,0,1,.8935-2.248,2.8625,2.8625,0,0,1,1.9239-.7695A1.7764,1.7764,0,0,1,311.5938,143.4191Zm-3.1407-.7852a1.3416,1.3416,0,0,0-.3232.6309.0654.0654,0,0,0,.0615.0615l2.001-.0156c.3389,0,.3691-.169.3691-.3076a.9919.9919,0,0,0-.2148-.6465,1.0779,1.0779,0,0,0-.7705-.293A1.5966,1.5966,0,0,0,308.4531,142.6339Z"/><path class="cls-1" d="M314.3193,142.9728a.8858.8858,0,0,0-.2617.5381,9.0514,9.0514,0,0,0-.0156.9394c0,1.14.0312,1.9405.0615,2.2637.0615.4766.2471.585.8321.6465.2148.03.2919.0615.2919.1387s-.1386.1074-.3691.1074c-.293,0-.8008-.0615-1.4473-.0615a8.2939,8.2939,0,0,0-.9394.0927c-.1846,0-.2617-.0312-.2617-.0927,0-.0459.1084-.1231.2314-.1543a.6346.6346,0,0,0,.5537-.6309c.0313-.2617.0469-1.14.0469-2.1553v-1.709c0-.1084-.1084-.1543-.4-.4-.1084-.0771-.123-.123-.123-.1542s.0918-.0918.23-.1387a4.6741,4.6741,0,0,0,.9854-.3692.4859.4859,0,0,1,.2314-.0771c.03,0,.0616.0615.0616.2158,0,.169-.0157.7539-.0157,1.001,0,.0459.03.0615.0772.0146a2.5151,2.5151,0,0,1,1.6621-1.1084.8968.8968,0,0,1,.539.2.2683.2683,0,0,1,.1075.2159,1.0528,1.0528,0,0,1-.3379.5234c-.1387.123-.2.1387-.2471.1387a.6937.6937,0,0,1-.2764-.1084,1.084,1.084,0,0,0-.539-.1846A1.0483,1.0483,0,0,0,314.3193,142.9728Z"/><path class="cls-1" d="M270.5772,154.63c.3691,0,1.0009.0615,1.4628.0615.3389,0,.7081-.0312,1.0313-.0312.2158,0,.3076.0469.3076.1084,0,.0771-.0918.123-.2764.1533-.4316.0772-.4316.2617-.3232.5391.6465,1.6015,2.1709,4.8808,3.2178,7.19.0459.1074.1074.0771.1533,0,.4316-.8779.8008-1.6475,1.2168-2.6328a.4285.4285,0,0,0,.03-.1846c-.2461-.5849-1.2774-2.9258-1.6162-3.665-.4463-.9541-.5694-1.1387-1.0469-1.2617-.2461-.0469-.3233-.1084-.3233-.1856,0-.0459.0918-.0918.292-.0918.4473,0,.7393.0615,1.294.0615s.9082-.0615,1.2617-.0615c.1543,0,.2617.03.2617.0918,0,.0772-.0918.124-.292.17-.416.0772-.5693.2618-.3388.8311.246.6465.708,1.6933,1.2168,2.8642.0146.03.0761.0459.123-.0312.3691-.7539.6924-1.4629,1.0156-2.2168.4776-1.124.4619-1.2783-.2-1.4316-.2773-.0616-.3232-.1231-.3232-.1856,0-.0459.0928-.0762.2773-.0762.3848,0,.6309.0459,1.0313.0459.539,0,.7851-.0615,1.14-.0615.1846,0,.2617.0156.2617.0772,0,.0771-.0771.123-.2929.1689-.5694.1231-.8623.4463-1.37,1.34-.4.7695-1.1543,2.2939-1.4161,2.7714a.265.265,0,0,0,.0157.1846c.3847.9082,1.0615,2.3711,1.5849,3.5254.0616.1074.1084.0771.1387,0,.7393-1.6016,2.6025-5.9121,2.9258-7.0518.0771-.3379.0615-.6-.4463-.7539-.2471-.0771-.3389-.1074-.3389-.17s.0459-.0918.2617-.0918c.4,0,.6153.0615,1.0772.0615.4316,0,.8467-.0615,1.124-.0615.2,0,.2774.0156.2774.0772s-.0772.123-.3545.1689c-.6465.17-.9239.4932-1.8936,2.6787-.97,2.125-2.2168,5.0352-2.9248,6.7285-.1084.2618-.1543.3545-.2314.3545-.1075,0-.169-.1084-.2618-.3545-.3232-.9394-1.2-2.8486-1.6474-3.8339-.03-.0616-.0772-.0616-.1074-.0147-.585,1.1387-1.4014,2.94-1.74,3.833-.0918.2461-.1845.37-.2461.37-.0918,0-.123-.0927-.23-.37-.2-.5078-.6778-1.6318-.878-2.0937-.8466-1.9551-1.8779-4.2344-2.6015-5.7432-.5547-1.2-.6778-1.4775-1.2627-1.5547-.1846-.0156-.3233-.0771-.3233-.1387C270.27,154.6915,270.377,154.63,270.5772,154.63Z"/><path class="cls-1" d="M288.0244,160.2189a.18.18,0,0,1-.1543.1689c-.123-.0156-2.125-.0459-2.4785-.0459h-.831c-.0313,0-.1084.0772-.1387.1231a2.1106,2.1106,0,0,0-.124.8467,2.76,2.76,0,0,0,.7089,1.8632,2.0773,2.0773,0,0,0,1.5391.6309,1.967,1.967,0,0,0,1.4629-.4922c.123-.123.1846-.0928.1846-.0156a.5856.5856,0,0,1-.1534.2461,2.7216,2.7216,0,0,1-2.1406.97,2.4837,2.4837,0,0,1-1.832-.7852,3.0081,3.0081,0,0,1-.7393-2.0625,3.21,3.21,0,0,1,.8936-2.248,2.8622,2.8622,0,0,1,1.9238-.77A1.7764,1.7764,0,0,1,288.0244,160.2189Zm-3.1406-.7852a1.3406,1.3406,0,0,0-.3232.6309.0653.0653,0,0,0,.0615.0615l2.001-.0156c.3388,0,.3691-.169.3691-.3076a.9921.9921,0,0,0-.2148-.6465,1.0782,1.0782,0,0,0-.7706-.293A1.5964,1.5964,0,0,0,284.8838,159.4337Z"/><path class="cls-1" d="M290.5039,160.6036c0,1.94.0156,2.6631.0313,2.9561.0146.416.1074.5234.538.6006.0928.0156.2.0615.2.1074,0,.0615-.1074.1084-.3076.1084-.2461,0-.8008-.0312-1.0625-.0312-.4,0-.8008.0312-1.0312.0312-.1846,0-.2617-.0156-.2617-.0928s.0771-.0927.2773-.1386c.3848-.0772.4766-.2159.5381-.8926.0312-.57.0928-3.1719.1084-5.02,0-1.2471.0156-2.51,0-3.1866,0-.3388-.0313-.416-.4317-.6621-.1074-.0615-.1533-.0928-.1533-.1387s.0918-.0927.2305-.123a8.034,8.034,0,0,0,1.1553-.3545.64.64,0,0,1,.1845-.0459c.03,0,.0459.0918.0459.169,0,.1074-.0615,2.7714-.0615,5.081Z"/><path class="cls-1" d="M293.7686,160.6036c0,1.94.0156,2.6631.0312,2.9561.0147.416.1074.5234.5381.6006.0928.0156.2.0615.2.1074,0,.0615-.1074.1084-.3076.1084-.2461,0-.8008-.0312-1.0625-.0312-.4,0-.8008.0312-1.0313.0312-.1845,0-.2617-.0156-.2617-.0928s.0772-.0927.2774-.1386c.3847-.0772.4765-.2159.538-.8926.0313-.57.0928-3.1719.1084-5.02,0-1.2471.0157-2.51,0-3.1866,0-.3388-.0312-.416-.4316-.6621-.1074-.0615-.1533-.0928-.1533-.1387s.0918-.0927.23-.123a8.034,8.034,0,0,0,1.1553-.3545.64.64,0,0,1,.1846-.0459c.03,0,.0459.0918.0459.169,0,.1074-.0615,2.7714-.0615,5.081Z"/><polygon class="cls-2" points="296.43 105.576 268.062 105.576 271.354 96.088 293.137 96.088 296.43 105.576"/><line class="cls-2" x1="267.12" y1="108.849" x2="296.9768" y2="108.849"/><polyline class="cls-2" points="302.26 112.335 297.025 112.335 297.025 108.849"/><line class="cls-2" x1="278.9686" y1="121.5277" x2="285.5234" y2="121.5277"/><polyline class="cls-2" points="278.969 121.528 268.617 121.528 268.617 128.296 295.875 128.296 295.875 121.528 285.523 121.528"/><polyline class="cls-2" points="285.523 121.528 287.384 114.848 277.108 114.848 278.969 121.528"/><rect class="cls-2" x="270.7714" y="105.5919" width="22.9492" height="15.9234"/><line class="cls-2" x1="278.2955" y1="93.5214" x2="286.1964" y2="93.5214"/><line class="cls-2" x1="282.246" y1="105.5919" x2="282.246" y2="114.7592"/><line class="cls-2" x1="268.7599" y1="124.912" x2="295.9368" y2="124.912"/><path class="cls-3" d="M257.3252,120.0372a.5031.5031,0,0,1,.5-.51h0a.51.51,0,0,1,.5.51h0a.5.5,0,0,1-.5.49h0A.4933.4933,0,0,1,257.3252,120.0372Zm-3,0a.5031.5031,0,0,1,.5-.51h0a.51.51,0,0,1,.5.51h0a.5.5,0,0,1-.5.49h0A.4933.4933,0,0,1,254.3252,120.0372Zm-3,0a.5031.5031,0,0,1,.5-.51h0a.51.51,0,0,1,.5.51h0a.5.5,0,0,1-.5.49h0A.4933.4933,0,0,1,251.3252,120.0372Zm-3,0a.5031.5031,0,0,1,.5-.51h0a.51.51,0,0,1,.5.51h0a.5.5,0,0,1-.5.49h0A.4933.4933,0,0,1,248.3252,120.0372Zm-3,0a.5031.5031,0,0,1,.5-.51h0a.51.51,0,0,1,.5.51h0a.5.5,0,0,1-.5.49h0A.4933.4933,0,0,1,245.3252,120.0372Zm-3,0a.5031.5031,0,0,1,.5-.51h0a.51.51,0,0,1,.5.51h0a.5.5,0,0,1-.5.49h0A.4933.4933,0,0,1,242.3252,120.0372Zm-3,0a.5031.5031,0,0,1,.5-.51h0a.51.51,0,0,1,.5.51h0a.5.5,0,0,1-.5.49h0A.4933.4933,0,0,1,239.3252,120.0372Zm-3,0a.5031.5031,0,0,1,.5-.51h0a.51.51,0,0,1,.5.51h0a.5.5,0,0,1-.5.49h0A.4933.4933,0,0,1,236.3252,120.0372Zm-3,0a.5031.5031,0,0,1,.5-.51h0a.51.51,0,0,1,.5.51h0a.5.5,0,0,1-.5.49h0A.4933.4933,0,0,1,233.3252,120.0372Zm-3,0a.5031.5031,0,0,1,.5-.51h0a.51.51,0,0,1,.5.51h0a.5.5,0,0,1-.5.49h0A.4933.4933,0,0,1,230.3252,120.0372Zm-3,0a.5031.5031,0,0,1,.5-.51h0a.51.51,0,0,1,.5.51h0a.5.5,0,0,1-.5.49h0A.4933.4933,0,0,1,227.3252,120.0372Zm-3,0a.5031.5031,0,0,1,.5-.51h0a.51.51,0,0,1,.5.51h0a.5.5,0,0,1-.5.49h0A.4933.4933,0,0,1,224.3252,120.0372Zm-3,0a.5031.5031,0,0,1,.5-.51h0a.51.51,0,0,1,.5.51h0a.5.5,0,0,1-.5.49h0A.4933.4933,0,0,1,221.3252,120.0372Zm-3,0a.5031.5031,0,0,1,.5-.51h0a.51.51,0,0,1,.5.51h0a.5.5,0,0,1-.5.49h0A.4933.4933,0,0,1,218.3252,120.0372Zm-3,0a.5031.5031,0,0,1,.5-.51h0a.51.51,0,0,1,.5.51h0a.5.5,0,0,1-.5.49h0A.4933.4933,0,0,1,215.3252,120.0372Z"/><polyline class="cls-4" points="256.981 115.544 261.559 120.122 256.981 124.7"/><line class="cls-2" x1="145.6265" y1="113.9357" x2="145.6265" y2="117.0118"/><line class="cls-2" x1="132.9867" y1="122.0816" x2="132.9867" y2="127.1599"/><line class="cls-2" x1="155.4512" y1="122.0816" x2="155.4512" y2="127.1599"/><rect class="cls-2" x="142.668" y="120.5884" width="5.9732" height="6.6051" rx="1"/><line class="cls-2" x1="118.2546" y1="122.0816" x2="118.2546" y2="127.1599"/><polyline class="cls-2" points="120.456 119.998 134.903 119.998 145.564 107.931 126.598 107.931 115.937 119.998"/><line class="cls-2" x1="145.6626" y1="107.9474" x2="156.3234" y2="120.0147"/><line class="cls-2" x1="160.6218" y1="106.7066" x2="160.6218" y2="109.7827"/><line class="cls-2" x1="170.4465" y1="114.6849" x2="170.4465" y2="119.7632"/><rect class="cls-2" x="157.6634" y="113.3313" width="5.9732" height="6.6051" rx="1"/><polyline class="cls-2" points="149.899 112.769 160.559 100.702 141.593 100.702 135.132 107.884"/><line class="cls-2" x1="160.6579" y1="100.7183" x2="171.3187" y2="112.7855"/><line class="cls-2" x1="88.6368" y1="127.1897" x2="161.4633" y2="127.1897"/><line class="cls-2" x1="162.847" y1="119.9279" x2="212.407" y2="119.9279"/><line class="cls-2" x1="88.6368" y1="127.1897" x2="161.4633" y2="127.1897"/><path class="cls-2" d="M188.5508,101.9513a4.4751,4.4751,0,0,0-8.9062,0,4.2209,4.2209,0,0,0-.0045,8.2364c-.002.0515-.0081.1019-.0081.1538a4.47,4.47,0,0,0,8.9313,0c0-.0519-.0061-.1023-.0081-.1538"/><line class="cls-2" x1="184.15" y1="107.2805" x2="187.6465" y2="104.1244"/><line class="cls-2" x1="183.9042" y1="109.1305" x2="180.9055" y2="105.1901"/><line class="cls-2" x1="184.0034" y1="104.8679" x2="184.0034" y2="119.812"/><path class="cls-2" d="M188.6283,110.1683a3.3933,3.3933,0,0,0,2.3912,2.2023c-.0015.04-.0063.079-.0063.1192a3.493,3.493,0,0,0,6.9764,0c0-.04-.0048-.0793-.0064-.1192a3.2647,3.2647,0,0,0-.0035-6.3816,3.4115,3.4115,0,0,0-3.4784-3.1241,3.5057,3.5057,0,0,0-2.9694,1.6019"/><line class="cls-2" x1="194.538" y1="110.4081" x2="197.2734" y2="107.6727"/><line class="cls-2" x1="194.3503" y1="111.5515" x2="192.0079" y2="108.4984"/><line class="cls-2" x1="194.4277" y1="108.2488" x2="194.4277" y2="119.8275"/><path class="cls-2" d="M181.78,84.07a1.9276,1.9276,0,0,0-1.69,1.839l-.0392.7355-.5829-.4487a5.5541,5.5541,0,0,0-4.3607-.85"/><path class="cls-2" d="M173.75,91.3472a1.9274,1.9274,0,0,0-1.69,1.839l-.0393.7355-.5828-.4488a5.5545,5.5545,0,0,0-4.3608-.85"/><line class="cls-5" x1="91.8957" y1="123.785" x2="95.3359" y2="123.785"/><line class="cls-5" x1="91.256" y1="112.5877" x2="91.256" y2="122.6384"/><path class="cls-5" d="M100.0649,123.785h2.5787c.0291,0,.06,0,.0921.0007.0385,0,.0782.001.1187.001a1.0667,1.0667,0,0,0,.7634-.2107.5241.5241,0,0,0,.1562-.3812V112.5877"/><path class="cls-5" d="M95.5331,125.0858a2.2173,2.2173,0,1,1,2.2173,2.2173A2.22,2.22,0,0,1,95.5331,125.0858Z"/><path class="cls-5" d="M96.7066,125.5019a1.1086,1.1086,0,0,1,2.1-.7124"/><path class="cls-5" d="M97.3963,124.0939a1.1086,1.1086,0,0,1,.7124,2.1"/><path class="cls-5" d="M85.5948,125.0858a2.2173,2.2173,0,1,1,2.2173,2.2173A2.22,2.22,0,0,1,85.5948,125.0858Z"/><path class="cls-5" d="M88.864,124.7267a1.1086,1.1086,0,0,1-2.1.7124"/><path class="cls-5" d="M88.1743,126.1347a1.1086,1.1086,0,0,1-.7124-2.1"/><path class="cls-5" d="M91.2277,113.8633h-4.069c-.1789,0-.2106.1533-1.8053,2.3987-1.5476,2.1792-1.7009,2.2611-1.7009,2.35v5.1051"/><line class="cls-5" x1="90.1595" y1="125.1759" x2="95.4787" y2="125.1759"/><path class="cls-5" d="M85.54,125.1759H83.36a.9724.9724,0,0,1-.7577-.3592"/><line class="cls-5" x1="89.6326" y1="123.785" x2="95.9129" y2="123.785"/><path class="cls-5" d="M99.6043,123.785c.3278,0,1.1163,0,1.4441.0007q.9846.001,1.9691-.0007"/><path class="cls-5" d="M100.0386,125.1759h3.96a.9724.9724,0,0,0,.7576-.3592"/><path class="cls-5" d="M89.8811,118.1321l-3.8364-.0214a.3115.3115,0,0,1-.251-.4937l1.7229-2.391a.3118.3118,0,0,1,.2528-.1294h.0032l2.1134.0216a.3116.3116,0,0,1,.3084.3116v2.3907a.3117.3117,0,0,1-.3116.3116Z"/><line class="cls-5" x1="103.7538" y1="112.5191" x2="91.2578" y2="112.5191"/><path class="cls-6" d="M174.1542,140.04a.1528.1528,0,0,1-.1528-.1527V125.4087a.1529.1529,0,0,1,.1528-.1528h12.0309a.1529.1529,0,0,1,.0823.0241c.1206.0772,2.9249,1.8927,3.8011,4.2275a2.41,2.41,0,0,0,1.6018-.51,1.8889,1.8889,0,0,0,.5544-1.4656"/><path class="cls-6" d="M186.0524,140.04a.1527.1527,0,0,1-.1527-.1527V136.085"/><path class="cls-6" d="M192.9026,129.806l2.7424,4.1136a.1525.1525,0,0,1,.0256.0847v1.8579a.1527.1527,0,0,1-.1527.1527h-6.2608v3.8723a.1527.1527,0,0,1-.1527.1527H187.512a.1528.1528,0,0,1-.1528-.1527v-3.8281h-2.2281"/><path class="cls-6" d="M177.3341,138.405v1.4862a.1487.1487,0,0,1-.1487.1487h-1.5509a.1487.1487,0,0,1-.1487-.1487v-3.8771"/><path class="cls-6" d="M186.0524,136.0547h-5.6867a2.5664,2.5664,0,0,1-2.5625,2.4991"/><path class="cls-6" d="M172.3722,132.3678V131.21a.153.153,0,0,1,.0447-.108l.5229-.5229V126.75"/><path class="cls-6" d="M193.1274,131.9255a.1528.1528,0,0,1-.1528.1527h-.9118a.1527.1527,0,0,1-.1527-.1527"/><line class="cls-6" x1="183.2658" y1="140.0399" x2="172.5249" y2="140.0399"/><path class="cls-6" d="M195.6706,139.8872a.1527.1527,0,0,1-.1527.1527H185.4061"/><line class="cls-6" x1="205.0287" y1="138.5264" x2="205.0287" y2="139.8635"/><line class="cls-6" x1="203.5246" y1="136.7072" x2="203.5246" y2="139.8635"/><line class="cls-6" x1="201.9196" y1="138.5264" x2="201.9196" y2="139.8635"/><line class="cls-6" x1="205.0505" y1="138.5264" x2="205.0505" y2="139.8635"/><line class="cls-6" x1="198.793" y1="138.5264" x2="198.793" y2="139.8635"/><line class="cls-6" x1="197.2889" y1="136.7072" x2="197.2889" y2="139.8635"/><line class="cls-6" x1="195.6839" y1="138.5264" x2="195.6839" y2="139.8635"/><line class="cls-6" x1="201.9239" y1="138.5264" x2="201.9239" y2="139.8635"/><line class="cls-6" x1="200.4198" y1="136.7072" x2="200.4198" y2="139.8635"/><line class="cls-6" x1="198.8148" y1="138.5264" x2="198.8148" y2="139.8635"/><polyline class="cls-7" points="142.837 137.81 144.963 137.116 146.676 138.879"/><path class="cls-7" d="M146.7,138.8831l13.5671-4.22-.2151,4.73a2.687,2.687,0,0,0-2.2759,2.8247l-8.1692,2.5946Z"/><path class="cls-7" d="M157.8967,142.8919a2.7269,2.7269,0,1,0-.1206-.6737A2.7144,2.7144,0,0,0,157.8967,142.8919Zm1.1318-.3595a1.53,1.53,0,0,1,.9674-1.9079l.0257-.01a1.5268,1.5268,0,1,1-.9931,1.9174Z"/><path class="cls-7" d="M158.9762,141.837a1.5248,1.5248,0,0,1,1.02-1.2125l.0257-.01a1.531,1.531,0,1,1-1.0454,1.222Z"/><line class="cls-7" x1="160.1261" y1="136.1762" x2="147.3605" y2="140.1266"/><line class="cls-7" x1="174.4926" y1="144.9946" x2="145.7056" y2="144.9946"/><circle class="cls-2" cx="165.2638" cy="79.9676" r="7.6775"/><path class="cls-1" d="M224.4756,61.8312a.2727.2727,0,0,1,.1533.2617c-.03.37.0469,1.0317.0469,1.1856s-.0615.2465-.0928.2465c-.0615,0-.1074-.0771-.1387-.2a2.4012,2.4012,0,0,0-.7392-1.2319,3.5276,3.5276,0,0,0-2.3555-.77,3.7135,3.7135,0,0,0-2.6787,1.2007,5.56,5.56,0,0,0-1.17,3.5722,5.8343,5.8343,0,0,0,1.416,3.7256,3.6783,3.6783,0,0,0,2.6328,1.1392,3.2646,3.2646,0,0,0,1.832-.4307,2.7585,2.7585,0,0,0,1.1856-1.5093c.0615-.2.0928-.2617.1543-.2617s.0918.1387.0918.231a11.0414,11.0414,0,0,1-.2149,1.2163.4117.4117,0,0,1-.1543.2309,5.5838,5.5838,0,0,1-3.0019.8472,5.2987,5.2987,0,0,1-4.0029-1.6323,5.3859,5.3859,0,0,1-1.294-3.4024,4.9112,4.9112,0,0,1,1.7246-3.8955,5.5366,5.5366,0,0,1,3.5879-1.2778A7.1152,7.1152,0,0,1,224.4756,61.8312Z"/><path class="cls-1" d="M227.3418,67.2662c0,1.94.0156,2.6636.0313,2.9561.0146.4155.1074.5234.538.6006.0928.0151.2.0615.2.1074,0,.0615-.1074.1079-.3076.1079-.2461,0-.8008-.0307-1.0625-.0307-.4,0-.8008.0307-1.0312.0307-.1846,0-.2618-.0151-.2618-.0923s.0772-.0923.2774-.1386c.3848-.0772.4766-.2154.5381-.8931.0312-.5693.0928-3.1714.1084-5.019,0-1.2471.0156-2.51,0-3.1871,0-.3388-.0313-.4155-.4317-.6621-.1074-.0615-.1533-.0923-.1533-.1382s.0918-.0927.23-.1235a7.9742,7.9742,0,0,0,1.1553-.354.64.64,0,0,1,.1845-.0464c.03,0,.0459.0928.0459.17,0,.1079-.0615,2.7714-.0615,5.081Z"/><path class="cls-1" d="M234.7783,68.2208a2.9483,2.9483,0,0,1-2.9248,2.9712,2.9359,2.9359,0,0,1-1.8789-5.2343,3.1638,3.1638,0,0,1,1.8477-.647A2.8892,2.8892,0,0,1,234.7783,68.2208Zm-4.8037-.2158a3.5217,3.5217,0,0,0,.6475,2.1094,1.8283,1.8283,0,0,0,1.4472.8159,1.522,1.522,0,0,0,.97-.3848,3.0684,3.0684,0,0,0,.6465-2.0629c0-1.4629-.7393-2.91-2.0938-2.91C230.8066,65.5724,229.9746,66.4039,229.9746,68.005Z"/><path class="cls-1" d="M236.8428,66.4962c0,.647.5849,1.0161.9707,1.2471,1,.647,1.4,1.0317,1.4,1.8169a1.5794,1.5794,0,0,1-.8008,1.2934,2.5541,2.5541,0,0,1-1.2315.3384,3.1378,3.1378,0,0,1-1.2158-.2768c-.123-.0464-.2314-.1538-.2314-.2466,0-.2153-.03-.6-.0459-.7695-.0313-.2.0156-.2466.0459-.2466.0459,0,.0928,0,.2.2925a1.5019,1.5019,0,0,0,.6465.8315,1.18,1.18,0,0,0,.6933.1846,1.0556,1.0556,0,0,0,1.001-1.0313c0-.5849-.4-.9087-1.0166-1.2934-.6621-.4312-1.2783-1-1.2783-1.6783a1.46,1.46,0,0,1,.5859-1.2163,1.988,1.988,0,0,1,1.293-.4311,3.7658,3.7658,0,0,1,1.0469.1694.2534.2534,0,0,1,.0771.1387c.0156.1694.0772.4775.0918.7236,0,.1695-.03.2466-.0762.2466-.0625,0-.0927-.0771-.1386-.1851a1.17,1.17,0,0,0-.37-.6313,1.2622,1.2622,0,0,0-.7236-.231A.8973.8973,0,0,0,236.8428,66.4962Z"/><path class="cls-1" d="M244.9277,66.8815a.1809.1809,0,0,1-.1543.1689c-.123-.0151-2.125-.0459-2.4785-.0459h-.831c-.0313,0-.1084.0772-.1387.1231a2.1149,2.1149,0,0,0-.123.8467,2.76,2.76,0,0,0,.708,1.8632,2.0773,2.0773,0,0,0,1.539.6309,1.963,1.963,0,0,0,1.4629-.4927c.1231-.123.1846-.0923.1846-.0151a.585.585,0,0,1-.1533.2461,2.7223,2.7223,0,0,1-2.1407.97,2.4855,2.4855,0,0,1-1.832-.7852,3.01,3.01,0,0,1-.7392-2.063,3.21,3.21,0,0,1,.8935-2.248,2.8625,2.8625,0,0,1,1.9238-.77A1.7768,1.7768,0,0,1,244.9277,66.8815Zm-3.1406-.7852a1.3438,1.3438,0,0,0-.3232.6309.0657.0657,0,0,0,.0615.0615l2.001-.0151c.3388,0,.3691-.1695.3691-.3081a.9921.9921,0,0,0-.2148-.6465,1.08,1.08,0,0,0-.77-.2925A1.5957,1.5957,0,0,0,241.7871,66.0963Z"/><path class="cls-1" d="M248.8086,70.4376a1.7322,1.7322,0,0,1-.1846-.8774v-3.187c0-.1695-.0156-.2769-.0771-.3081a2.5258,2.5258,0,0,0-.3692-.0923c-.123-.0308-.2-.0767-.2-.1382,0-.0312.0157-.0771.1846-.1543a3.2814,3.2814,0,0,0,1.2627-1.0312c.1387-.1543.2461-.1236.2461-.0464,0,.1386-.03.57-.0146.7544,0,.0464.0146.1386.0761.1386.2774,0,1.5557-.0463,1.8789-.0463.03,0,.0918.1079.0918.2158,0,.2617-.0761.3847-.1533.3847-.5391,0-1.2939-.0156-1.709-.0156-.1845,0-.2158.0464-.2158.1387,0,.2617.0156,2.6792.0313,3.1562a1.5785,1.5785,0,0,0,.1689.8316,1.1378,1.1378,0,0,0,.9541.4155,1.5084,1.5084,0,0,0,.8477-.231c.1074-.0771.1533-.0615.1533,0,0,.0923-.1387.2466-.3389.4a2.1118,2.1118,0,0,1-1.2471.4A1.4269,1.4269,0,0,1,248.8086,70.4376Z"/><path class="cls-1" d="M258.0479,68.2208a2.9485,2.9485,0,0,1-2.9248,2.9712,2.9359,2.9359,0,0,1-1.879-5.2343,3.164,3.164,0,0,1,1.8477-.647A2.8893,2.8893,0,0,1,258.0479,68.2208Zm-4.8038-.2158a3.5217,3.5217,0,0,0,.6475,2.1094,1.8284,1.8284,0,0,0,1.4473.8159,1.522,1.522,0,0,0,.97-.3848,3.0678,3.0678,0,0,0,.6465-2.0629c0-1.4629-.7393-2.91-2.0938-2.91C254.0762,65.5724,253.2441,66.4039,253.2441,68.005Z"/><path class="cls-1" d="M221.5957,83.1578c0,2.6788-.8,3.9722-1.57,4.48a2.2036,2.2036,0,0,1-1.2158.354c-2.0938,0-2.8487-2.7558-2.8487-4.5415,0-2.4175.6319-3.8955,1.8633-4.6035a2.1263,2.1263,0,0,1,1.0313-.2466C220.9492,78.6,221.5957,81.4025,221.5957,83.1578Zm-3.3711-3.9414a8.37,8.37,0,0,0-.5849,3.6641c0,2.51.3232,4.896,1.2617,4.896.2158,0,.4472-.0923.6621-.7544a13.8566,13.8566,0,0,0,.3857-3.4951c0-2.3555-.4-4.6958-1.2168-4.6958A.6168.6168,0,0,0,218.2246,79.2164Z"/><path class="cls-1" d="M222.7363,87.1144a.8617.8617,0,0,1,.8467-.8775.83.83,0,0,1,.8164.8624.8342.8342,0,1,1-1.6631.0151Z"/><path class="cls-1" d="M226.9561,79.1085a9.47,9.47,0,0,0,1.955-.4A1.6241,1.6241,0,0,1,229.25,78.6c.03,0,.0615.0157.0615.1079,0,.2-.0156,1.57-.0459,2.5713-.0156,1.293.0147,4.5264.0459,5.1885.0459.9546.1231,1.0469.77,1.1548.17.0308.2461.0923.2461.1538s-.0918.1079-.292.1079c-.7852,0-1.2627-.0771-1.8018-.0771-.7539,0-1.0469.0771-1.5859.0771-.1387,0-.2618-.0308-.2618-.1235,0-.0615.0928-.0923.2471-.1231.7237-.123.8623-.2617.8926-1.17.0459-.4775.0771-1.3086.0771-3.9414,0-1.8628-.0156-2.3711-.0459-2.7559a.3763.3763,0,0,0-.2-.3388,2.3512,2.3512,0,0,0-.3858-.0923c-.0918-.0156-.2305-.0615-.2305-.1231C226.74,79.17,226.833,79.1237,226.9561,79.1085Z"/><path class="cls-1" d="M234.3486,78.2155c.585.0156,1.586.0771,2.417.0771.0616,0,.1387.1231.1846.2153.5234,1.2164,2.6943,5.62,3.2334,6.605.0313.0923.0771.0464.1084-.0156.4307-.77,2.2783-4.5723,2.6172-5.3267a12.7773,12.7773,0,0,0,.4765-1.247c0-.0308.1084-.231.1856-.231.6924,0,1.1543-.0928,2.0937-.0928.2,0,.2764.0464.2764.1079,0,.0772-.1377.1387-.2461.1543-.8926.1846-.9238.3848-.97,1.2315-.0313.6157-.0313,2.186-.0313,2.9409,0,1.6777.0772,3.2178.1084,3.7412.0616.8775.2159,1.062.8467,1.2471.1387.0459.2461.0923.2461.1689,0,.062-.1074.1079-.2773.1079-.5537,0-1.2315-.0922-1.8321-.0922s-1.3545.0463-1.57.0463c-.1074,0-.2773-.0156-.2773-.1235,0-.0615.1543-.1382.2617-.1689.6318-.1387.7236-.4776.77-1.6631.0459-.8008.0615-4.5264.0615-5.3731,0-.0615-.0468-.1694-.0771-.0464-1.0166,2.1094-2.6787,5.5582-3.2793,7.0054-.1231.2461-.1846.354-.2774.354s-.1689-.2309-.246-.4c-.5547-1.3237-2.7872-6.2505-3.1875-7.02-.0616-.1386-.0918-.1538-.1231.0772-.0615.6465-.2,4.2954-.2,5.3579a5.2539,5.2539,0,0,0,.0615,1.062c.0616.354.3545.585.8164.6777.1543.0308.2461.0923.2461.1538,0,.1079-.1386.1387-.292.1231-.2773.0156-.8164-.0615-1.34-.0615-.4922,0-.9238.0771-1.1084.0771-.2314,0-.293-.0308-.293-.1079,0-.0464.0469-.1079.2617-.1694.4473-.1231.6778-.2154.8321-.4463a3.8007,3.8007,0,0,0,.3535-1.6939c.0928-.8774.293-4.0029.293-5.1884,0-.9083-.0459-1.1084-.3389-1.4166a1.2782,1.2782,0,0,0-.8008-.3691c-.1074-.0308-.2461-.0928-.2461-.1694S234.2559,78.2155,234.3486,78.2155Z"/><path class="cls-1" d="M246.915,82.5416a6.9609,6.9609,0,0,0,1.5088-.4619,1.374,1.374,0,0,1,.2305-.0923c.0469,0,.0772.0464.0615.2159-.03.3232-.03,1.1084-.03,1.7548,0,1.7246,0,2.9561.03,3.1871a.4667.4667,0,0,0,.416.4775c.169.0459.2159.0923.2159.1538,0,.0771-.1084.1079-.2315.1079-.2617,0-.6152-.0771-1.2627-.0771-.6767,0-1.0312.0307-1.2.0307-.1386,0-.2617-.0464-.2617-.1079,0-.0766.0918-.1074.2774-.1382.3994-.0927.5078-.2929.5078-.8315,0-.4619.0459-3.1406.0459-3.2949,0-.2925,0-.354-.4-.6314-.0772-.0615-.1231-.1074-.1231-.1689C246.6992,82.6344,246.7451,82.588,246.915,82.5416Zm1.8321-2.4477a.7372.7372,0,0,1-.7549.7695.6961.6961,0,0,1-.6465-.708.7365.7365,0,0,1,.7236-.7852A.7248.7248,0,0,1,248.7471,80.0939Z"/><path class="cls-1" d="M252.165,84.0661c0,2.0014.0157,2.6171.03,2.8945.0156.4927.1084.5542.5088.6465.0918.0156.1992.0615.1992.1386,0,.0616-.1533.1079-.3076.1079-.4619,0-1.0771-.0463-1.3086-.0463-.416,0-.7392.0307-1.1543.0307-.1543,0-.2773-.0307-.2773-.1079s.1074-.1074.23-.1382c.4161-.0771.5088-.1694.5391-.8315.0313-.6314.0928-3.4951.1084-4.9732,0-.8466.0147-2.4785,0-3.0019,0-.3545-.0771-.4619-.4316-.647-.1075-.0615-.1543-.123-.1543-.1689s.0927-.0928.2314-.1236a8.7672,8.7672,0,0,0,1.5547-.4311.663.663,0,0,1,.2158-.0615c.0313,0,.0615.0922.0615.1694,0,.1079-.0459,2.6792-.0459,5.3423Z"/><path class="cls-1" d="M258.4785,83.7272a.2317.2317,0,0,1-.1845.2158c-.17-.0156-2.0791-.0464-2.4942-.0464h-.5547c-.0459,0-.1074.0772-.1386.1231a2.3617,2.3617,0,0,0-.0772.6313,2.5257,2.5257,0,0,0,.6777,1.8169,2.074,2.074,0,0,0,2.7715.1387c.1074-.1236.169-.0928.169-.0156s-.03.123-.1075.2309a2.7234,2.7234,0,0,1-2.2636,1.17,2.54,2.54,0,0,1-1.9092-.8,3.0632,3.0632,0,0,1-.7383-2.0786,3.1427,3.1427,0,0,1,1.0313-2.3554,2.9037,2.9037,0,0,1,1.8779-.6929A1.8116,1.8116,0,0,1,258.4785,83.7272Zm-2.956-.939a1.825,1.825,0,0,0-.3389.7852c0,.0307.0313.0923.0771.0923l1.4629-.0152c.4151,0,.4463-.2309.4463-.37a1.1967,1.1967,0,0,0-.2158-.7393.768.768,0,0,0-.5693-.2617A1.1976,1.1976,0,0,0,255.5225,82.7882Z"/><path class="cls-1" d="M217.47,99.0656c.1387,0,.2618.03.2618.1074,0,.0459-.1534.1074-.2618.123-.3691.0616-.3535.2-.292.4463.2305.709.8926,2.4639,1.2471,3.3262.0156.0459.0772.0615.0918.0146.2471-.5234.9238-2.0166,1.0781-2.417.0157-.0771.0616-.1845.03-.2617-.0762-.2-.1846-.4463-.2617-.6308a.8184.8184,0,0,0-.585-.5078c-.1386-.0313-.2148-.0616-.2148-.1241s.0762-.0918.2305-.0918c.3232,0,.7236.0459,1.0468.0459.4463,0,.6319-.03.9082-.03.17,0,.2315.03.2315.0761,0,.0625-.1084.1241-.2315.1543-.3535.0772-.4463.1387-.2617.6162.17.4766.9854,2.709,1.2012,3.1866.0459.0771.0771.0156.0771,0,.1846-.4.9239-2.1553,1.1084-2.6787a3.5007,3.5007,0,0,0,.2461-.7393c0-.1387-.0615-.2773-.4619-.3848-.2-.0615-.2461-.1074-.2461-.1543,0-.0615.0928-.0918.2-.0918.2617,0,.5391.0459.7852.0459.1543,0,.539-.0459.7695-.0459.1387,0,.2158.03.2158.0918s-.0459.0928-.2773.1543c-.2764.0772-.4619.293-.6621.708-.2764.5547-.7383,1.6172-1.2159,2.71-.2617.6309-.539,1.3086-.7236,1.8018-.0928.2461-.1543.2919-.2.2919-.0615,0-.1074-.0615-.1689-.2773-.0772-.2148-.1856-.5234-.37-1.0469-.292-.831-.6153-1.709-.9239-2.5244-.0156-.0459-.0459-.0771-.0771,0-.1387.292-.7852,1.709-1,2.2481-.2315.5078-.37.8613-.5391,1.3086-.0771.2148-.1543.2919-.2158.2919s-.1074-.1074-.1543-.2773c-.0762-.2148-.1689-.585-.4307-1.3232-.2773-.7549-1.1543-3.0332-1.3242-3.3262a.879.879,0,0,0-.6777-.6006c-.1231-.03-.2149-.0762-.2149-.123,0-.0918.1075-.1231.2774-.1231.1992,0,.6611.0615,1.0928.0615C216.8545,99.0958,217.1621,99.0656,217.47,99.0656Z"/><path class="cls-1" d="M228.2031,99.6964a3.7382,3.7382,0,0,1,.2149,1.4014c0,.5693-.0459,2.0322-.0459,2.4326a.5277.5277,0,0,0,.5693.585.9914.9914,0,0,0,.4473-.1387c.0918-.0459.1533,0,.0918.1387a1.2979,1.2979,0,0,1-1.1856.6621,1.0343,1.0343,0,0,1-.9082-.6934.0548.0548,0,0,0-.0771-.0156,2.1536,2.1536,0,0,1-1.5088.6934,1.2777,1.2777,0,0,1-1.2315-1.3243,1.0885,1.0885,0,0,1,.5538-.8779c.37-.2,1.7714-.6152,2.0947-.7383a.293.293,0,0,0,.2-.2314,5.3143,5.3143,0,0,0,.03-.708c0-.6309-.1074-1.0625-.3691-1.2627a1.1778,1.1778,0,0,0-.6465-.2461,1.06,1.06,0,0,0-.6162.1845.6207.6207,0,0,0-.2314.37,1.6574,1.6574,0,0,0-.0147.292.1914.1914,0,0,1-.0615.123,3.3149,3.3149,0,0,1-.7236.3389c-.0772.0156-.1543-.0772-.1543-.1387,0-.1074.1074-.2461.2929-.4619a3.9713,3.9713,0,0,1,1.17-.8926,2.0657,2.0657,0,0,1,.9238-.2773A1.2622,1.2622,0,0,1,228.2031,99.6964Zm-1.0322,4.2344a.6393.6393,0,0,0,.17-.37,11.0737,11.0737,0,0,0,.0772-1.4629c0-.0147-.0313-.0918-.0625-.0762a8.5887,8.5887,0,0,0-1.416.5235.796.796,0,0,0-.3848.7695.8944.8944,0,0,0,.9238.8623A1.0571,1.0571,0,0,0,227.1709,103.9308Z"/><path class="cls-1" d="M231.6377,100.8663c0,1.9405.0156,2.6641.0313,2.9561.0146.416.1074.5234.538.6006.0928.0156.2.0615.2.1074,0,.0615-.1074.1084-.3076.1084-.2461,0-.8008-.0312-1.0625-.0312-.4,0-.8008.0312-1.0312.0312-.1846,0-.2618-.0156-.2618-.0928s.0772-.0918.2774-.1386c.3848-.0772.4766-.2149.5381-.8926.0312-.5694.0928-3.1719.1084-5.02,0-1.247.0156-2.5092,0-3.187,0-.3388-.0313-.4155-.4317-.6621-.1074-.0615-.1533-.0923-.1533-.1386s.0918-.0923.2305-.1231a7.9742,7.9742,0,0,0,1.1553-.354.6561.6561,0,0,1,.1845-.0464c.03,0,.0459.0928.0459.1695,0,.1079-.0615,2.7714-.0615,5.081Z"/><path class="cls-1" d="M237.4277,99.0958c.3379,0,.9541-.0771,1.3545-.0771.169,0,.2305.0469.2305.0928,0,.03-.0459.0927-.2305.123a2.74,2.74,0,0,0-1.416.6777c-.4.3077-1.1553.9541-1.4472,1.2315-.0313.0312,0,.0771.0146.1074.4619.5391,1.57,1.7246,2.2939,2.4639a1.9936,1.9936,0,0,0,1.1094.7236c.1377.03.23.0772.23.1387,0,.0918-.1387.1074-.2617.1074-.5235,0-1.1084-.0771-1.709-.0771-.2617,0-.4619.0156-.6924.0156-.17,0-.2773,0-.2773-.0928,0-.0762.0771-.1074.3535-.1689.2617-.0616.2929-.2.1543-.4161-.3233-.3691-1.416-1.5234-1.878-1.9853-.123-.124-.2314-.2315-.2929-.2315-.0459,0-.0615.0928-.0615.1543-.0157.2774-.03.7852-.0157,1.6319,0,.7392.1231.7851.6006.8926.1543.0468.2315.0771.2315.1386,0,.0772-.1231.1084-.293.1084-.4307,0-.7539-.0468-1.1543-.0468-.4932,0-.8164.0468-1.001.0468-.1543,0-.2461-.0468-.2461-.1084,0-.0459.0918-.0918.2-.1074.4766-.123.585-.2617.6153-.7695.0615-1.124.0771-2.418.0771-3.6182.0156-1.2012.0615-3.1719.0615-4.373a2.6467,2.6467,0,0,0-.0615-.7085c-.03-.1231-.1689-.2154-.3545-.3076-.0762-.0464-.1377-.0772-.1377-.108,0-.0615.0918-.0922.2461-.1386a9.47,9.47,0,0,0,1.0928-.3692.7168.7168,0,0,1,.2461-.0771c.0156,0,.0468.0464.0468.123-.0312.5083-.0771,1.8628-.0771,3.003,0,.4765-.0771,2.5087-.0771,4.2031,0,.1689.0312.2461.0771.2461a.7757.7757,0,0,0,.3076-.17,13.11,13.11,0,0,0,1.6631-1.5391.5611.5611,0,0,0,.1689-.2774c0-.0917-.1074-.1845-.4462-.246-.1387-.0157-.2618-.0616-.2618-.1231s.1075-.1084.2461-.1084C236.9043,99.08,237.2578,99.0958,237.4277,99.0958Z"/><path class="cls-1" d="M241.5088,101.6515c-.1387-1.4316-.4775-3.9258-.5078-4.88-.0156-.4619.2617-1.14.6777-1.14.4463,0,.6924.54.6924,1.0776,0,.709-.4463,4.0957-.5078,4.8965-.0313.3232-.0928.4619-.17.4619C241.6016,102.0675,241.54,101.9747,241.5088,101.6515Zm-.5078,2.4326a.7405.7405,0,0,1,.708-.7236c.4619,0,.6162.5234.6162.7392a.6686.6686,0,0,1-.6162.6622A.6954.6954,0,0,1,241.001,104.0841Z"/></svg>