<svg id="Layer_1" data-name="Layer 1" xmlns="http://www.w3.org/2000/svg" viewBox="0 0 399 200"><defs><style>.cls-1,.cls-3,.cls-4,.cls-5{fill:none;stroke-linecap:round;}.cls-1,.cls-3,.cls-5{stroke:#222f3c;}.cls-1,.cls-4,.cls-5{stroke-linejoin:round;}.cls-1{stroke-width:0.5px;}.cls-2{fill:#333838;}.cls-3{stroke-miterlimit:10;}.cls-3,.cls-4,.cls-5{stroke-width:0.4px;}.cls-4{stroke:#231f20;}</style></defs><line class="cls-1" x1="224.1397" y1="121.5959" x2="214.9549" y2="121.5959"/><line class="cls-1" x1="251.4805" y1="121.5959" x2="242.2957" y2="121.5959"/><line class="cls-1" x1="241.2952" y1="118.0894" x2="251.4805" y2="118.0894"/><line class="cls-1" x1="214.9549" y1="118.0894" x2="225.1403" y2="118.0894"/><line class="cls-1" x1="220.3742" y1="143.2461" x2="222.7066" y2="143.2461"/><line class="cls-1" x1="232.0515" y1="143.2461" x2="234.3839" y2="143.2461"/><line class="cls-1" x1="243.7289" y1="143.2461" x2="246.0612" y2="143.2461"/><line class="cls-1" x1="226.2128" y1="146.4189" x2="228.5452" y2="146.4189"/><line class="cls-1" x1="237.8902" y1="146.4189" x2="240.2226" y2="146.4189"/><polyline class="cls-1" points="214.955 138.871 221.042 136.533 227.129 138.871 231.464 137.206 231.464 131.229"/><polyline class="cls-1" points="251.48 138.871 245.393 136.533 239.306 138.871 234.971 137.206 234.971 131.23"/><circle class="cls-1" cx="233.2177" cy="122.2928" r="9.1044" transform="translate(30.9853 290.9584) rotate(-67.5)"/><polyline class="cls-1" points="226.865 128.812 214.955 128.812 214.955 149.806 251.48 149.806 251.48 128.812 239.57 128.812"/><path class="cls-1" d="M229.4921,123.8951c0-2.0576,3.7256-6.5362,3.7256-6.5362s3.7256,4.4786,3.7256,6.5362a3.7256,3.7256,0,1,1-7.4512,0Z"/><polyline class="cls-1" points="258.97 113.628 255.307 113.628 253.428 115.309 251.653 115.309 251.653 124.066 253.428 124.066 255.307 125.747 258.97 125.747"/><path class="cls-2" d="M214.6289,62.742c.37,0,1.001.0615,1.4629.0615.3389,0,.708-.0307,1.0312-.0307.2159,0,.3077.0459.3077.1079,0,.0766-.0918.123-.2764.1538-.4316.0771-.4316.2617-.3232.5386.6464,1.6015,2.1709,4.8808,3.2177,7.19.0459.1074.1074.0766.1533,0,.4317-.8779.8008-1.6475,1.2168-2.6328a.4306.4306,0,0,0,.03-.1851c-.2461-.5849-1.2773-2.9253-1.6162-3.664-.4463-.9546-.5693-1.1392-1.0469-1.2627-.2461-.0459-.3232-.1075-.3232-.1846,0-.0464.0918-.0923.292-.0923.4472,0,.7392.0615,1.2939.0615s.9082-.0615,1.2617-.0615c.1543,0,.2618.0308.2618.0923,0,.0771-.0918.123-.292.1694-.416.0767-.5694.2617-.3389.8311.2461.647.708,1.6938,1.2168,2.8637.0147.0308.0762.0464.123-.0307.3692-.7544.6924-1.4624,1.0157-2.2168.4775-1.124.4619-1.2778-.2-1.4321-.2774-.0616-.3233-.1231-.3233-.1846,0-.0464.0928-.0772.2774-.0772.3847,0,.6308.0464,1.0312.0464.5391,0,.7852-.0615,1.14-.0615.1845,0,.2617.0151.2617.0767,0,.0771-.0772.1235-.293.1694-.5693.1235-.8623.4468-1.37,1.34-.4.77-1.1543,2.294-1.416,2.771a.2668.2668,0,0,0,.0156.1851c.3848.9082,1.0615,2.3706,1.585,3.5254.0615.1079.1084.0771.1387,0,.7392-1.6011,2.6025-5.9121,2.9257-7.0513.0772-.3388.0616-.6006-.4463-.7544-.247-.0771-.3388-.1079-.3388-.1694s.0459-.0923.2617-.0923c.4,0,.6152.0615,1.0771.0615.4317,0,.8467-.0615,1.1241-.0615.2,0,.2773.0151.2773.0767s-.0771.1235-.3545.1694c-.6465.1694-.9238.4927-1.8935,2.6792-.97,2.1245-2.2168,5.0342-2.9248,6.728-.1084.2617-.1543.354-.2315.354-.1074,0-.1689-.1079-.2617-.354-.3232-.9394-1.2-2.8481-1.6475-3.8335-.03-.062-.0771-.062-.1074-.0156-.5849,1.1392-1.4014,2.9409-1.74,3.8335-.0918.2466-.1846.37-.2461.37-.0918,0-.1231-.0923-.2305-.37-.2-.5078-.6777-1.6318-.8779-2.0938-.8467-1.955-1.8779-4.2338-2.6016-5.7426-.5547-1.2007-.6777-1.4781-1.2627-1.5552-.1845-.0151-.3232-.0767-.3232-.1387C214.3213,62.8035,214.4287,62.742,214.6289,62.742Z"/><path class="cls-2" d="M230.875,67.5457a3.7362,3.7362,0,0,1,.2148,1.4009c0,.57-.0459,2.0322-.0459,2.4326a.5275.5275,0,0,0,.5694.585.9851.9851,0,0,0,.4472-.1387c.0918-.0459.1534,0,.0918.1387a1.2968,1.2968,0,0,1-1.1855.6621,1.0345,1.0345,0,0,1-.9082-.6929.0541.0541,0,0,0-.0772-.0156,2.1548,2.1548,0,0,1-1.5087.6929,1.2775,1.2775,0,0,1-1.2315-1.3238,1.0876,1.0876,0,0,1,.5537-.8779c.37-.2,1.7715-.6157,2.0947-.7388a.2916.2916,0,0,0,.2-.2309,5.3045,5.3045,0,0,0,.03-.7085c0-.6309-.1074-1.062-.3691-1.2622a1.1749,1.1749,0,0,0-.6465-.2466,1.06,1.06,0,0,0-.6162.185.62.62,0,0,0-.2315.3692,1.6809,1.6809,0,0,0-.0146.293.193.193,0,0,1-.0615.123,3.3368,3.3368,0,0,1-.7237.3389c-.0771.0151-.1543-.0772-.1543-.1387,0-.1079.1075-.2466.293-.4619a3.9812,3.9812,0,0,1,1.17-.8931,2.0658,2.0658,0,0,1,.9239-.2773A1.2626,1.2626,0,0,1,230.875,67.5457ZM229.8428,71.78a.6408.6408,0,0,0,.17-.37,11.083,11.083,0,0,0,.0771-1.4629c0-.0152-.0312-.0923-.0625-.0767a8.6844,8.6844,0,0,0-1.416.5235.7966.7966,0,0,0-.3847.7695.8941.8941,0,0,0,.9238.8623A1.0546,1.0546,0,0,0,229.8428,71.78Z"/><path class="cls-2" d="M233.2,71.887a1.7312,1.7312,0,0,1-.1846-.8774v-3.187c0-.1695-.0156-.2769-.0771-.3081a2.5129,2.5129,0,0,0-.3692-.0923c-.123-.0308-.2-.0767-.2-.1382,0-.0313.0157-.0772.1846-.1543a3.2808,3.2808,0,0,0,1.2627-1.0313c.1387-.1542.2461-.1235.2461-.0463,0,.1386-.03.57-.0146.7544,0,.0463.0146.1386.0761.1386.2774,0,1.5557-.0464,1.8789-.0464.03,0,.0918.108.0918.2159,0,.2617-.0761.3847-.1533.3847-.5391,0-1.2939-.0156-1.709-.0156-.1845,0-.2158.0464-.2158.1387,0,.2617.0156,2.6792.0313,3.1562a1.5785,1.5785,0,0,0,.1689.8316,1.1381,1.1381,0,0,0,.9541.4155,1.5084,1.5084,0,0,0,.8477-.231c.1074-.0771.1533-.0615.1533,0,0,.0923-.1387.2466-.3389.4a2.11,2.11,0,0,1-1.2471.4A1.4269,1.4269,0,0,1,233.2,71.887Z"/><path class="cls-2" d="M241.2236,68.3309a.1809.1809,0,0,1-.1543.1689c-.123-.0151-2.125-.0459-2.4785-.0459h-.831c-.0313,0-.1084.0772-.1387.1231a2.1087,2.1087,0,0,0-.124.8466,2.7608,2.7608,0,0,0,.709,1.8633,2.0773,2.0773,0,0,0,1.539.6309,1.963,1.963,0,0,0,1.4629-.4927c.1231-.123.1846-.0923.1846-.0151a.5856.5856,0,0,1-.1533.2461,2.7225,2.7225,0,0,1-2.1407.97,2.4855,2.4855,0,0,1-1.832-.7852,3.0105,3.0105,0,0,1-.7393-2.063,3.21,3.21,0,0,1,.8936-2.248,2.8625,2.8625,0,0,1,1.9238-.77A1.7768,1.7768,0,0,1,241.2236,68.3309Zm-3.1406-.7852a1.3433,1.3433,0,0,0-.3232.6309.0657.0657,0,0,0,.0615.0615l2.001-.0151c.3388,0,.3691-.1695.3691-.3081a.9919.9919,0,0,0-.2148-.6465,1.08,1.08,0,0,0-.77-.2925A1.5957,1.5957,0,0,0,238.083,67.5457Z"/><path class="cls-2" d="M243.95,67.8841a.8876.8876,0,0,0-.2617.5391,9.0074,9.0074,0,0,0-.0156.9389c0,1.14.0312,1.94.0615,2.2632.0615.4775.247.5855.832.647.2148.0307.292.0615.292.1382s-.1387.1079-.3691.1079c-.293,0-.8008-.0616-1.4473-.0616a8.3314,8.3314,0,0,0-.94.0923c-.1845,0-.2617-.0307-.2617-.0923,0-.0463.1084-.123.2315-.1538a.6363.6363,0,0,0,.5537-.6313c.0312-.2617.0469-1.1392.0469-2.1553v-1.709c0-.1079-.1084-.1543-.4-.4-.1084-.0771-.1231-.123-.1231-.1543s.0918-.0922.23-.1381a4.6738,4.6738,0,0,0,.9853-.37.4862.4862,0,0,1,.2315-.0771c.03,0,.0615.0615.0615.2158,0,.1694-.0156.7544-.0156,1.0005,0,.0464.03.0615.0771.0156a2.5128,2.5128,0,0,1,1.6621-1.1089.8969.8969,0,0,1,.5391.2.2689.2689,0,0,1,.1074.2158,1.0514,1.0514,0,0,1-.3379.5235c-.1386.123-.2.1387-.247.1387a.6959.6959,0,0,1-.2764-.108,1.08,1.08,0,0,0-.5391-.1845A1.0518,1.0518,0,0,0,243.95,67.8841Z"/><path class="cls-2" d="M221.5107,78.1878a2.59,2.59,0,0,0,1.2627-.1689c.0616-.0464.1084-.0621.1231-.0313a.3431.3431,0,0,1,.0156.2,4.85,4.85,0,0,0-.0459,1.17c0,.231-.0771.3384-.123.3384-.0616,0-.1084-.1382-.1241-.2153a1.4222,1.4222,0,0,0-.2763-.7237c-.1387-.123-.3389-.1845-1.417-.1845-.4766,0-1.2471,0-1.4932.0307-.0771.0152-.0928.1382-.0928.2461,0,.57-.03,4.8037-.03,4.8037-.0157.8623.0459,2.7715.0918,3.2486.0625.5234.2158.6313.7392.7851.1846.0464.2617.0772.2617.1538,0,.0928-.1074.1079-.3076.1079-.3545,0-.831-.0922-1.4472-.0922-.7852,0-1.2471.0922-1.4932.0922-.2,0-.2773-.0615-.2773-.1386,0-.0616.1386-.1075.3076-.1382.7392-.1079.832-.3545.8779-1.0625.1074-1.4937.1074-7.6211.0771-7.8364-.0156-.1387-.0615-.1851-.1084-.1851a9.4548,9.4548,0,0,0-1.1542-.0459,12.0653,12.0653,0,0,0-1.3086.0615c-.293.0615-.4932.2461-.708.8467-.0772.1846-.1543.2617-.2159.2617s-.0615-.123-.0459-.2309a9.0388,9.0388,0,0,0,.2-1.3243c.0147-.123.0147-.2.0918-.2309.0313-.0152.0772.0156.1231.0615a.84.84,0,0,0,.4931.1543c.2461.0151,1.77.0615,3.3565.0615Z"/><path class="cls-2" d="M223.6992,83.284a.8881.8881,0,0,0-.2617.5391,9.0074,9.0074,0,0,0-.0156.9389c0,1.14.0312,1.94.0615,2.2632.0615.4775.2471.585.832.647.2149.0307.292.0615.292.1382s-.1386.1079-.3691.1079c-.293,0-.8008-.0615-1.4473-.0615a8.3345,8.3345,0,0,0-.9394.0922c-.1846,0-.2618-.0307-.2618-.0922,0-.0464.1084-.1231.2315-.1539a.6363.6363,0,0,0,.5537-.6313c.0312-.2617.0469-1.1392.0469-2.1553v-1.709c0-.1079-.1084-.1543-.4-.4-.1084-.0771-.1231-.1235-.1231-.1543s.0918-.0922.23-.1381a4.6747,4.6747,0,0,0,.9854-.37.4856.4856,0,0,1,.2314-.0771c.03,0,.0615.0615.0615.2158,0,.1694-.0156.7544-.0156,1.0005,0,.0464.03.0615.0772.0156a2.5116,2.5116,0,0,1,1.6621-1.1084.8962.8962,0,0,1,.539.2.27.27,0,0,1,.1084.2159,1.0555,1.0555,0,0,1-.3388.5234c-.1387.123-.2.1387-.2471.1387a.6964.6964,0,0,1-.2764-.108,1.08,1.08,0,0,0-.539-.1845A1.0519,1.0519,0,0,0,223.6992,83.284Z"/><path class="cls-2" d="M230.7822,83.7308a.1809.1809,0,0,1-.1543.1689c-.123-.0151-2.125-.0459-2.4785-.0459h-.831c-.0313,0-.1084.0772-.1387.1231a2.11,2.11,0,0,0-.124.8466,2.7611,2.7611,0,0,0,.7089,1.8633,2.0777,2.0777,0,0,0,1.5391.6309,1.9631,1.9631,0,0,0,1.4629-.4927c.123-.123.1846-.0923.1846-.0151a.5867.5867,0,0,1-.1533.2461,2.7225,2.7225,0,0,1-2.1407.97,2.4855,2.4855,0,0,1-1.832-.7852,3.01,3.01,0,0,1-.7393-2.063,3.21,3.21,0,0,1,.8936-2.248,2.8625,2.8625,0,0,1,1.9238-.77A1.7768,1.7768,0,0,1,230.7822,83.7308Zm-3.1406-.7852a1.3433,1.3433,0,0,0-.3232.6309.0657.0657,0,0,0,.0615.0615l2.001-.0151c.3388,0,.3691-.1695.3691-.3081a.9919.9919,0,0,0-.2148-.6465,1.08,1.08,0,0,0-.7706-.2925A1.5957,1.5957,0,0,0,227.6416,82.9456Z"/><path class="cls-2" d="M235.3262,82.9456a3.7362,3.7362,0,0,1,.2148,1.4009c0,.57-.0459,2.0322-.0459,2.4326a.5275.5275,0,0,0,.5694.585.9851.9851,0,0,0,.4472-.1387c.0918-.0459.1533,0,.0918.1387a1.2969,1.2969,0,0,1-1.1855.6621,1.0343,1.0343,0,0,1-.9082-.6929.0543.0543,0,0,0-.0772-.0156,2.1548,2.1548,0,0,1-1.5088.6929,1.2774,1.2774,0,0,1-1.2314-1.3238,1.0876,1.0876,0,0,1,.5537-.8779c.37-.2,1.7715-.6157,2.0947-.7388a.2916.2916,0,0,0,.2-.2309,5.3082,5.3082,0,0,0,.03-.7085c0-.6309-.1074-1.062-.3692-1.2622a1.1746,1.1746,0,0,0-.6464-.2466,1.06,1.06,0,0,0-.6162.185.62.62,0,0,0-.2315.37,1.6718,1.6718,0,0,0-.0146.2925.1927.1927,0,0,1-.0616.123,3.3384,3.3384,0,0,1-.7236.3389c-.0771.0151-.1543-.0772-.1543-.1387,0-.1079.1074-.2466.293-.4619a3.9812,3.9812,0,0,1,1.17-.8931,2.0657,2.0657,0,0,1,.9238-.2773A1.2628,1.2628,0,0,1,235.3262,82.9456ZM234.2939,87.18a.6392.6392,0,0,0,.17-.37,11.083,11.083,0,0,0,.0771-1.4629c0-.0152-.0312-.0923-.0625-.0767a8.681,8.681,0,0,0-1.416.5235.7965.7965,0,0,0-.3848.7695.8941.8941,0,0,0,.9239.8623A1.0541,1.0541,0,0,0,234.2939,87.18Z"/><path class="cls-2" d="M237.6514,87.2869a1.7312,1.7312,0,0,1-.1846-.8774v-3.187c0-.1695-.0156-.2769-.0772-.3081a2.5109,2.5109,0,0,0-.3691-.0923c-.123-.0308-.2-.0767-.2-.1387,0-.0308.0156-.0766.1846-.1538a3.2828,3.2828,0,0,0,1.2627-1.0312c.1386-.1543.2461-.1236.2461-.0464,0,.1386-.03.57-.0147.7544,0,.0463.0147.1386.0762.1386.2773,0,1.5557-.0464,1.8789-.0464.03,0,.0918.108.0918.2159,0,.2617-.0762.3847-.1533.3847-.5391,0-1.294-.0156-1.709-.0156-.1846,0-.2158.0464-.2158.1387,0,.2617.0156,2.6792.0312,3.1562a1.5782,1.5782,0,0,0,.169.8316,1.1377,1.1377,0,0,0,.9541.4155,1.5078,1.5078,0,0,0,.8476-.231c.1074-.0766.1533-.0615.1533,0,0,.0923-.1386.2466-.3388.4a2.11,2.11,0,0,1-1.2471.4A1.4268,1.4268,0,0,1,237.6514,87.2869Z"/><path class="cls-2" d="M241.2861,82.7606c0-.0459.0616-.0772.1846-.108a3.0617,3.0617,0,0,0,1.0469-.4614.4436.4436,0,0,1,.23-.0928c.0469,0,.0772.0616.0772.1543,0,.169-.0156.6,0,.7544,0,.0616.0156.1382.0771.0923a3.2376,3.2376,0,0,1,1.9092-.893,1.5756,1.5756,0,0,1,1.5391.97.1035.1035,0,0,0,.1084.0307,3.0874,3.0874,0,0,1,2.1094-1.0473,1.5868,1.5868,0,0,1,1.5546,1.14,5.0209,5.0209,0,0,1,.1846,1.4473c.0156.5078.0469,1.6782.0615,2.2168.0157.5083.1084.6157.4463.6777.2158.0459.2774.0923.2774.1382,0,.0772-.0772.1079-.2617.1079-.169,0-.7081-.0307-1.0625-.0307-.3692,0-.7081.0463-.9385.0463-.2,0-.3086-.0307-.3086-.0927,0-.0767.1387-.1231.2617-.1538.4473-.0923.5234-.231.5234-.6929a19.5459,19.5459,0,0,0-.1074-3.0484,1.1924,1.1924,0,0,0-1.293-1.1547,1.9224,1.9224,0,0,0-1.3085.57.7511.7511,0,0,0-.1084.4927c.0312.4311.0771,2.7866.1084,3.2021.0459.4312.0918.5391.4765.6314.17.0615.2471.0771.2471.1386s-.0928.0923-.2617.0923c-.2774,0-.7393-.0307-1.1856-.0307-.3388,0-.709.0307-.8779.0307s-.2461-.0307-.2461-.0923c0-.0464.0771-.1079.2773-.1538.3233-.062.4766-.1387.4766-.5083L245.52,84.67c0-.8466-.0771-1.2006-.3847-1.54a1.1768,1.1768,0,0,0-.94-.3389,1.7417,1.7417,0,0,0-1.1543.4468.5577.5577,0,0,0-.1846.3691,9.4583,9.4583,0,0,0-.0615,1.0469c0,1.14.0615,2.2173.0918,2.4946a.5257.5257,0,0,0,.4932.5079c.1689.0307.2305.0771.2305.123,0,.0772-.1231.1079-.2305.1079-.293,0-.8008-.0307-1.17-.0307-.4776,0-.8008.0307-1.001.0307-.1387,0-.2774-.0464-.2774-.1079s.0928-.1074.3077-.1382c.4775-.1079.4775-.2773.5087-.4619.0616-.3237.0616-1.5708.0616-2.4634,0-.57.0146-.9546-.0157-1.247a.5818.5818,0,0,0-.3544-.5391c-.1075-.0615-.1387-.0923-.1387-.1694Z"/><path class="cls-2" d="M256.5312,83.7308a.1809.1809,0,0,1-.1542.1689c-.1231-.0151-2.125-.0459-2.4786-.0459h-.831c-.0313,0-.1084.0772-.1387.1231a2.1164,2.1164,0,0,0-.123.8466,2.76,2.76,0,0,0,.708,1.8633,2.0773,2.0773,0,0,0,1.539.6309,1.963,1.963,0,0,0,1.4629-.4927c.1231-.123.1846-.0923.1846-.0151a.5856.5856,0,0,1-.1533.2461,2.7223,2.7223,0,0,1-2.1407.97,2.4855,2.4855,0,0,1-1.832-.7852,3.01,3.01,0,0,1-.7392-2.063,3.21,3.21,0,0,1,.8935-2.248,2.8627,2.8627,0,0,1,1.9238-.77A1.7768,1.7768,0,0,1,256.5312,83.7308Zm-3.1406-.7852a1.3433,1.3433,0,0,0-.3232.6309.0658.0658,0,0,0,.0615.0615l2.001-.0151c.3389,0,.3691-.1695.3691-.3081a.9919.9919,0,0,0-.2148-.6465,1.08,1.08,0,0,0-.77-.2925A1.5959,1.5959,0,0,0,253.3906,82.9456Z"/><path class="cls-2" d="M262.2441,82.6834a3.2188,3.2188,0,0,1,.4922,2.0171c0,.8159.0157.939.0157,1.709.0156,1.0469.0615,1.1391.4775,1.2471.1387.0615.2305.0922.2305.1538,0,.0927-.1231.1079-.2774.1079-.2,0-.6465-.0615-.9853-.0615-.5235,0-.7237.0615-.9541.0615-.1387,0-.2461-.0308-.2461-.0923s.0918-.1231.292-.1694c.37-.0923.4316-.2.4316-.6465V84.9163c0-1.2475-.1084-1.6167-.4932-1.9092a1.3656,1.3656,0,0,0-.8769-.2924,1.8419,1.8419,0,0,0-1.2012.4926.7925.7925,0,0,0-.1846.4615c0,.185.0147.97.0147,1.894a12.5357,12.5357,0,0,0,.0928,1.6167c.0459.3384.23.4155.4775.4927.1846.0459.2617.0766.2617.1538,0,.0923-.1543.0923-.3086.0923-.123,0-.8769-.0615-1.2314-.0615-.2,0-.5235.0307-.8154.0307-.17,0-.293-.0307-.293-.1079,0-.0615.1387-.123.3232-.1538.3848-.0772.4463-.1846.4619-.4927.0313-1.1084.0313-2.5249.0313-3.772,0-.1538-.0313-.3232-.4-.5234-.0928-.0615-.123-.0923-.123-.1387,0-.0307.0761-.0771.2148-.123a5.7877,5.7877,0,0,0,1.2168-.5234c.0459-.0157.123.0458.1074.123a6.8766,6.8766,0,0,0-.03.8159c0,.0308.0459.0772.0762.0464a5.3243,5.3243,0,0,1,1.0938-.6929,2.0833,2.0833,0,0,1,.9082-.185A1.5742,1.5742,0,0,1,262.2441,82.6834Z"/><path class="cls-2" d="M264.8623,87.2869a1.7322,1.7322,0,0,1-.1846-.8774v-3.187c0-.1695-.0156-.2769-.0771-.3081a2.5129,2.5129,0,0,0-.3692-.0923c-.123-.0308-.2-.0767-.2-.1387,0-.0308.0157-.0766.1846-.1538a3.2814,3.2814,0,0,0,1.2627-1.0312c.1387-.1543.2461-.1236.2461-.0464,0,.1386-.03.57-.0146.7544,0,.0463.0146.1386.0761.1386.2774,0,1.5557-.0464,1.8789-.0464.03,0,.0918.108.0918.2159,0,.2617-.0761.3847-.1533.3847-.539,0-1.2939-.0156-1.709-.0156-.1845,0-.2158.0464-.2158.1387,0,.2617.0156,2.6792.0313,3.1562a1.5785,1.5785,0,0,0,.1689.8316,1.1378,1.1378,0,0,0,.9541.4155,1.5084,1.5084,0,0,0,.8477-.231c.1074-.0766.1533-.0615.1533,0,0,.0923-.1387.2466-.3389.4a2.11,2.11,0,0,1-1.2471.4A1.4269,1.4269,0,0,1,264.8623,87.2869Z"/><path class="cls-2" d="M220.9258,93.5569c.3232,0,.4316.0772.4316.1851.03.2153.0772.8926.1074,1.0776.0313.1538,0,.2925-.0771.2925-.0615,0-.1074-.1079-.1846-.3081a1.248,1.248,0,0,0-1.1543-.8774c-.4931-.0464-1.1552-.0464-2.5556-.0464-.1084,0-.2159.2-.2159.2773-.0156.4312-.0459,2.2017-.0156,3.9722a.1886.1886,0,0,0,.1387.1846c1.57,0,2.31-.0152,2.5557-.0459.2158-.0308.4306-.0772.6621-.6006.0771-.1538.123-.2153.1689-.2153.0615,0,.0928.0766.0772.2309-.0157.1694-.0772.6309-.0772.9546a7.2944,7.2944,0,0,0,.0615.7388c0,.2-.03.2617-.1074.2617-.0615,0-.123-.1231-.2158-.3389-.1231-.3384-.2764-.4927-.4619-.5386a16.4388,16.4388,0,0,0-2.6631-.0771.3054.3054,0,0,0-.1543.2c-.0147.2773.0156,2.6787.0469,3.3711.0146.5859.1074.6777.8154.8476.123.03.2158.0762.2158.1377,0,.0928-.17.1084-.3232.1084-.2158,0-.878-.0927-1.5088-.0927-.585,0-.97.0615-1.1856.0615-.1386,0-.2461-.03-.2461-.1074,0-.0616.0762-.1075.2764-.1543.585-.1231.6621-.2461.6934-.8155.0459-.5087.0459-2.417.0459-4.1108,0-1.6318,0-2.5713-.0459-3.51-.0313-.5542-.0772-.6928-.6319-.8315-.1377-.0308-.2461-.0767-.2461-.1538,0-.0615.0928-.0923.2315-.0923.1846,0,1.0312.0615,1.709.0615C218.709,93.6033,220.3408,93.5569,220.9258,93.5569Z"/><path class="cls-2" d="M225.27,98.3455a3.7341,3.7341,0,0,1,.2149,1.4009c0,.57-.0459,2.0322-.0459,2.4326a.5277.5277,0,0,0,.5693.585.9914.9914,0,0,0,.4473-.1387c.0918-.0459.1533,0,.0918.1387a1.2979,1.2979,0,0,1-1.1856.6621,1.0343,1.0343,0,0,1-.9082-.6934.055.055,0,0,0-.0771-.0156,2.1536,2.1536,0,0,1-1.5088.6934,1.2777,1.2777,0,0,1-1.2315-1.3243,1.0887,1.0887,0,0,1,.5538-.8779c.37-.2,1.7714-.6152,2.0947-.7383a.2918.2918,0,0,0,.2-.2309,5.3219,5.3219,0,0,0,.03-.7085c0-.6309-.1074-1.062-.3691-1.2622a1.1749,1.1749,0,0,0-.6465-.2466,1.06,1.06,0,0,0-.6162.185.62.62,0,0,0-.2314.3692,1.67,1.67,0,0,0-.0147.293.1926.1926,0,0,1-.0615.123,3.3384,3.3384,0,0,1-.7236.3389c-.0772.0151-.1543-.0772-.1543-.1387,0-.1079.1074-.2466.2929-.4619a3.9827,3.9827,0,0,1,1.17-.8931,2.0657,2.0657,0,0,1,.9238-.2773A1.2626,1.2626,0,0,1,225.27,98.3455Zm-1.0322,4.2339a.6425.6425,0,0,0,.17-.37,11.0737,11.0737,0,0,0,.0772-1.4629c0-.0146-.0313-.0918-.0625-.0762a8.5887,8.5887,0,0,0-1.416.5235.796.796,0,0,0-.3848.7695.8944.8944,0,0,0,.9238.8623A1.0571,1.0571,0,0,0,224.2373,102.5794Z"/><path class="cls-2" d="M228.0576,100.2083a2.5881,2.5881,0,0,0,.7695,2.001,2.1862,2.1862,0,0,0,1.4317.5391,2.0661,2.0661,0,0,0,1.6016-.585c.03-.0313.1074-.0459.1074,0a.4021.4021,0,0,1-.1231.2461,2.6608,2.6608,0,0,1-2.125,1.0166,2.8024,2.8024,0,0,1-1.9238-.7549,2.8979,2.8979,0,0,1-.77-2.0781,2.9424,2.9424,0,0,1,.9394-2.14,3.3771,3.3771,0,0,1,2.2784-.893,2.3431,2.3431,0,0,1,1.4013.3852.3547.3547,0,0,1,.2159.2925.5263.5263,0,0,1-.3848.4927.4708.4708,0,0,1-.2617-.1543,4.2575,4.2575,0,0,0-.8623-.6309,1.3855,1.3855,0,0,0-.585-.1235C229.1191,97.8216,228.0576,98.4378,228.0576,100.2083Z"/><path class="cls-2" d="M232.9082,98.0067a7.6694,7.6694,0,0,0,1.1084-.4.6237.6237,0,0,1,.2314-.1079c.0459,0,.0762.0463.0616.2158-.0313.3076-.0313,1.247-.0313,2.2324,0,1.293,0,2.4326.0313,2.6943.03.3076.1845.3848.4306.4463.1543.03.2315.0615.2315.1231,0,.0771-.124.1074-.2471.1074-.1387,0-.708-.0615-1.124-.0615-.5078,0-.7539.0312-.9238.0312-.1075,0-.2149-.0312-.2149-.0928s.0772-.1074.292-.1386c.3389-.0918.4775-.2149.4932-.8467.0156-.4619.0459-3.2637.0459-3.4175,0-.2158-.0157-.3081-.4463-.5391-.0772-.0459-.1231-.0922-.1231-.123C232.7236,98.0838,232.77,98.0374,232.9082,98.0067Zm1.54-2.51a.5864.5864,0,0,1-.57.5849.5477.5477,0,0,1-.5078-.5693.5713.5713,0,0,1,.5391-.6006A.5636.5636,0,0,1,234.4482,95.4969Z"/><path class="cls-2" d="M237.4658,99.5154c0,1.94.0156,2.6636.0313,2.9556.0146.416.1074.5234.5381.6006.0927.0156.2.0615.2.1074,0,.0615-.1075.1084-.3077.1084-.2461,0-.8007-.0312-1.0625-.0312-.4,0-.8007.0312-1.0312.0312-.1846,0-.2617-.0156-.2617-.0928s.0771-.0918.2773-.1386c.3848-.0772.4766-.2149.5381-.8926.0312-.5693.0928-3.1714.1084-5.0191,0-1.247.0156-2.51,0-3.187,0-.3388-.0313-.4155-.4316-.6621-.1075-.0615-.1534-.0923-.1534-.1382s.0918-.0927.2305-.1235a7.9742,7.9742,0,0,0,1.1553-.354.64.64,0,0,1,.1845-.0464c.03,0,.0459.0928.0459.1695,0,.1079-.0615,2.7714-.0615,5.081Z"/><path class="cls-2" d="M239.4219,98.0067a7.6738,7.6738,0,0,0,1.1084-.4.6237.6237,0,0,1,.2314-.1079c.0459,0,.0762.0463.0615.2158-.0312.3076-.0312,1.247-.0312,2.2324,0,1.293,0,2.4326.0312,2.6943.03.3076.1846.3848.4307.4463.1543.03.2315.0615.2315.1231,0,.0771-.1241.1074-.2471.1074-.1387,0-.708-.0615-1.124-.0615-.5079,0-.7539.0312-.9239.0312-.1074,0-.2148-.0312-.2148-.0928s.0771-.1074.292-.1386c.3388-.0918.4775-.2149.4931-.8467.0157-.4619.0459-3.2637.0459-3.4175,0-.2158-.0156-.3081-.4462-.5391-.0772-.0459-.1231-.0922-.1231-.123C239.2373,98.0838,239.2832,98.0374,239.4219,98.0067Zm1.54-2.51a.5864.5864,0,0,1-.57.5849.5477.5477,0,0,1-.5078-.5693.5713.5713,0,0,1,.5391-.6006A.5636.5636,0,0,1,240.9619,95.4969Z"/><path class="cls-2" d="M242.9326,102.6868a1.733,1.733,0,0,1-.1846-.8779V98.6224c0-.1695-.0156-.2769-.0771-.3081a2.5143,2.5143,0,0,0-.3691-.0923c-.1231-.0308-.2-.0767-.2-.1382,0-.0312.0156-.0771.1845-.1543a3.2814,3.2814,0,0,0,1.2627-1.0312c.1387-.1543.2461-.1236.2461-.0464,0,.1386-.03.57-.0146.7544,0,.0463.0146.1386.0761.1386.2774,0,1.5557-.0464,1.879-.0464.03,0,.0917.108.0917.2159,0,.2617-.0761.3847-.1533.3847-.539,0-1.2939-.0156-1.709-.0156-.1845,0-.2158.0464-.2158.1387,0,.2617.0156,2.6787.0313,3.1562a1.5777,1.5777,0,0,0,.1689.8311,1.1368,1.1368,0,0,0,.9541.416,1.5043,1.5043,0,0,0,.8477-.2314c.1074-.0772.1533-.0616.1533,0,0,.0927-.1387.247-.3389.4a2.11,2.11,0,0,1-1.247.4A1.4274,1.4274,0,0,1,242.9326,102.6868Z"/><path class="cls-2" d="M248.3848,97.6985c.1533,0,.2617.0464.2617.108s-.1084.1079-.2.123c-.3389.1079-.37.1851-.2315.585.2.539,1.0469,2.6176,1.3555,3.2641.03.0615.0762.0459.0918,0,.2-.5234,1.0625-2.7407,1.1856-3.0947a1.1522,1.1522,0,0,0,.0771-.4463c0-.1079-.0771-.2309-.3389-.3081-.23-.0459-.2773-.0923-.2773-.1387,0-.0615.0771-.0923.2158-.0923.1846,0,.5078.0464.7393.0464.2773,0,.4775-.0464.708-.0464.0928,0,.1845.0157.1845.0616s-.0615.1079-.2148.1543c-.3086.0923-.4619.2-.709.7695-.1845.3853-1.1386,2.7559-1.37,3.3408-.1846.5078-.3232.8623-.6465,1.6934-.3691.8935-.9541,2.4941-1.17,3.0176a2.102,2.102,0,0,1-.293.57.58.58,0,0,1-.5078.2617.5121.5121,0,0,1-.5078-.5088.4545.4545,0,0,1,.4307-.4463c.1084,0,.2.0313.3086.0313a.3719.3719,0,0,0,.3994-.2618c.1543-.3232.6006-1.5859,1.124-2.9257a.6613.6613,0,0,0-.0146-.4922c-.0928-.2471-1.2168-3.0948-1.9092-4.6035a.8262.8262,0,0,0-.5547-.4156c-.1846-.0464-.2774-.1079-.2774-.1543,0-.0766.1387-.1074.2471-.1074.2764,0,.708.0615,1.0772.0615C247.7842,97.7449,248.1846,97.6985,248.3848,97.6985Z"/><path class="cls-2" d="M283.3584,139.5032a2.2073,2.2073,0,0,1,.9541,1.8477,1.9762,1.9762,0,0,1-.8779,1.7246,3.0872,3.0872,0,0,1-.877.4766c-.0615.0312-.0469.123.0147.2773.2929.585,1.1709,2.0166,1.6631,2.74a10.354,10.354,0,0,0,1.124,1.4014,1.696,1.696,0,0,0,1.1543.6006c.1084,0,.2.0459.2.0918,0,.0312-.0616.0928-.169.124a2.1433,2.1433,0,0,1-.708.0762,2.6922,2.6922,0,0,1-2.248-1.2315c-.6778-.8925-1.8018-2.7714-2.1094-3.248-.2-.2617-.3535-.4-.5537-.4316a2.291,2.291,0,0,0-.6475-.0459.2015.2015,0,0,0-.1377.1543c-.0312.1845-.0312,1.9707-.0156,2.5556a5.3949,5.3949,0,0,0,.123,1.4619c.0459.1856.169.3545.7081.4473.17.03.2314.0762.2314.1377s-.124.1084-.293.1084c-.2773,0-.7392-.0772-1.3086-.0772-.5547,0-1.1084.0772-1.4013.0772-.1534,0-.2617-.0313-.2617-.1084,0-.0615.0927-.1074.2929-.1377.5078-.1084.6621-.2471.708-.8779.0459-.878.0772-2.1094.0772-4.0342,0-2.14-.0615-3.1094-.0928-3.6328-.03-.4317-.0459-.6621-.6924-.77-.1387-.03-.2617-.0616-.2617-.1387,0-.0615.0918-.0918.2773-.0918.2149,0,.6622.0459,1.2.0459.6465,0,1.0625-.0772,1.8633-.0772A3.33,3.33,0,0,1,283.3584,139.5032Zm-3.126-.1845c-.03.0146-.0771.03-.0918.292-.0156.2929-.0312,3.5107-.0312,3.7724,0,.2.0615.2617.123.2617a1.4016,1.4016,0,0,0,.3692.03,4.4813,4.4813,0,0,0,1.6328-.3379,2.13,2.13,0,0,0,.8623-1.74,2.3976,2.3976,0,0,0-.6162-1.77,2.3333,2.3333,0,0,0-1.7549-.6162A.9742.9742,0,0,0,280.2324,139.3187Z"/><path class="cls-2" d="M287.3018,143.4446a7.6032,7.6032,0,0,0,1.1084-.4.62.62,0,0,1,.2314-.1075c.0459,0,.0762.0459.0615.2149-.0312.3086-.0312,1.247-.0312,2.2324,0,1.2939,0,2.4326.0312,2.6943.03.3086.1846.3858.4307.4473.1543.03.2314.0615.2314.123,0,.0772-.124.1075-.247.1075-.1387,0-.708-.0616-1.1241-.0616-.5078,0-.7539.0313-.9228.0313-.1084,0-.2158-.0313-.2158-.0928s.0771-.1074.292-.1387c.3388-.0927.4775-.2158.4931-.8466.0156-.4619.0459-3.2637.0459-3.418,0-.2158-.0156-.3076-.4463-.5391-.0771-.0459-.123-.0918-.123-.123C287.1172,143.5218,287.1631,143.4749,287.3018,143.4446Zm1.54-2.51a.5864.5864,0,0,1-.57.5849.5477.5477,0,0,1-.5078-.5693.5706.5706,0,0,1,.539-.6006A.5637.5637,0,0,1,288.8418,140.9349Z"/><path class="cls-2" d="M291.8906,143.137c.1543,0,.2305.03.2305.0918s-.0918.1084-.2149.1387c-.4.1074-.4316.2-.3085.6621.1386.4775,1.0625,2.8633,1.2627,3.2334.0156.0615.0458.0771.0615.03.2-.3692,1.0625-2.417,1.247-2.9707a2.1546,2.1546,0,0,0,.17-.6319c0-.0918-.0928-.2617-.5088-.3535-.1231-.0312-.1846-.0771-.1846-.1387,0-.0468.0615-.0615.1846-.0615.1855,0,.416.0459.7549.0459.2461,0,.6464-.0459.7851-.0459.1074,0,.2158.03.2158.0918s-.0927.0928-.2314.1387c-.3076.0771-.4775.2617-.6621.6934-.3535.7695-1.1387,2.4941-1.293,2.8632a16.5329,16.5329,0,0,0-.7392,1.7246c-.0772.2305-.1387.2618-.1846.2618s-.1074-.0157-.169-.2315c-.0771-.2305-.1855-.6006-.4-1.1855-.2773-.708-1.1855-3.1094-1.4472-3.6026a.9145.9145,0,0,0-.6934-.539c-.1386-.03-.2148-.0772-.2148-.1231,0-.0615.0762-.1074.2617-.1074.4307,0,.6924.0615,1.1543.0615C291.3828,143.1829,291.6445,143.137,291.8906,143.137Z"/><path class="cls-2" d="M300.4824,144.5687a.18.18,0,0,1-.1543.1689c-.123-.0156-2.125-.0459-2.4785-.0459h-.831c-.0313,0-.1084.0772-.1387.1231a2.1141,2.1141,0,0,0-.1231.8466,2.76,2.76,0,0,0,.708,1.8633,2.0777,2.0777,0,0,0,1.5391.6309,1.967,1.967,0,0,0,1.4629-.4922c.123-.1231.1846-.0928.1846-.0156a.5862.5862,0,0,1-.1534.2461,2.7216,2.7216,0,0,1-2.1406.97,2.4837,2.4837,0,0,1-1.832-.7852,3.0083,3.0083,0,0,1-.7393-2.0625,3.21,3.21,0,0,1,.8936-2.248,2.8622,2.8622,0,0,1,1.9238-.7695A1.7764,1.7764,0,0,1,300.4824,144.5687Zm-3.1406-.7852a1.3406,1.3406,0,0,0-.3232.6309.0653.0653,0,0,0,.0615.0615l2.001-.0156c.3388,0,.3691-.169.3691-.3077a.9918.9918,0,0,0-.2148-.6464,1.0782,1.0782,0,0,0-.7706-.293A1.5964,1.5964,0,0,0,297.3418,143.7835Z"/><path class="cls-2" d="M303.209,144.1224a.885.885,0,0,0-.2617.5381,9.02,9.02,0,0,0-.0157.9394c0,1.14.0313,1.94.0616,2.2637.0615.4765.247.5849.832.6465.2148.03.292.0615.292.1386s-.1387.1075-.3692.1075c-.2929,0-.8007-.0616-1.4472-.0616a8.2852,8.2852,0,0,0-.9395.0928c-.1845,0-.2617-.0312-.2617-.0928,0-.0459.1084-.123.2315-.1543a.6346.6346,0,0,0,.5537-.6308c.0312-.2617.0468-1.14.0468-2.1553v-1.709c0-.1084-.1084-.1543-.4-.4-.1083-.0771-.123-.123-.123-.1543s.0918-.0918.23-.1386a4.6732,4.6732,0,0,0,.9853-.3692.4858.4858,0,0,1,.2315-.0771c.03,0,.0615.0615.0615.2158,0,.1689-.0156.7539-.0156,1.001,0,.0459.03.0615.0771.0146a2.5152,2.5152,0,0,1,1.6621-1.1084.8969.8969,0,0,1,.5391.2.2694.2694,0,0,1,.1084.2158,1.0553,1.0553,0,0,1-.3389.5235c-.1387.123-.2.1387-.2471.1387a.6936.6936,0,0,1-.2763-.1084,1.084,1.084,0,0,0-.5391-.1846A1.0483,1.0483,0,0,0,303.209,144.1224Z"/><path class="cls-2" d="M276.8525,155.78c.3692,0,1.001.0615,1.4629.0615.3389,0,.708-.0312,1.0313-.0312.2158,0,.3076.0469.3076.1084,0,.0771-.0918.123-.2764.1533-.4316.0771-.4316.2617-.3232.5391.6465,1.6015,2.1709,4.8808,3.2178,7.19.0459.1074.1074.0771.1533,0,.4316-.8779.8008-1.6475,1.2168-2.6328a.4285.4285,0,0,0,.03-.1846c-.2461-.585-1.2774-2.9258-1.6163-3.665-.4462-.9541-.5693-1.1387-1.0468-1.2618-.2461-.0468-.3233-.1084-.3233-.1855,0-.0459.0918-.0918.292-.0918.4473,0,.7393.0615,1.294.0615s.9082-.0615,1.2617-.0615c.1543,0,.2617.03.2617.0918,0,.0771-.0918.124-.292.17-.416.0772-.5693.2617-.3389.8311.2461.6465.708,1.6933,1.2168,2.8642.0147.03.0762.0459.1231-.0312.3691-.7539.6924-1.4629,1.0156-2.2168.4775-1.124.4619-1.2783-.2-1.4317-.2773-.0615-.3232-.123-.3232-.1855,0-.0459.0927-.0762.2773-.0762.3848,0,.6309.0459,1.0313.0459.539,0,.7851-.0615,1.14-.0615.1846,0,.2617.0156.2617.0772,0,.0771-.0771.123-.2929.1689-.5694.123-.8623.4463-1.37,1.34-.4.77-1.1543,2.294-1.416,2.7715a.265.265,0,0,0,.0157.1846c.3847.9082,1.0615,2.3711,1.5849,3.5254.0615.1074.1084.0771.1387,0,.7392-1.6016,2.6025-5.9121,2.9258-7.0518.0771-.3379.0615-.6-.4463-.7539-.2471-.0771-.3389-.1074-.3389-.17s.0459-.0918.2617-.0918c.4,0,.6153.0615,1.0772.0615.4316,0,.8467-.0615,1.124-.0615.2,0,.2773.0156.2773.0772s-.0771.123-.3544.1689c-.6465.17-.9239.4932-1.8936,2.6787-.97,2.125-2.2168,5.0352-2.9248,6.7285-.1084.2617-.1543.3545-.2314.3545-.1075,0-.169-.1084-.2618-.3545-.3232-.9394-1.2-2.8486-1.6474-3.834-.03-.0615-.0772-.0615-.1075-.0146-.5849,1.1387-1.4013,2.94-1.74,3.833-.0918.2461-.1846.37-.2461.37-.0918,0-.123-.0928-.23-.37-.2-.5078-.6778-1.6318-.878-2.0938-.8467-1.955-1.8779-4.2343-2.6015-5.7431-.5547-1.2-.6778-1.4776-1.2627-1.5547-.1846-.0156-.3233-.0772-.3233-.1387C276.5449,155.8411,276.6523,155.78,276.8525,155.78Z"/><path class="cls-2" d="M293.0986,160.5833a3.7327,3.7327,0,0,1,.2149,1.4c0,.57-.0459,2.0332-.0459,2.4326a.5272.5272,0,0,0,.5693.585.9883.9883,0,0,0,.4473-.1377c.0918-.0469.1533,0,.0918.1377a1.2961,1.2961,0,0,1-1.1856.6621,1.0333,1.0333,0,0,1-.9082-.6924.0533.0533,0,0,0-.0771-.0156,2.1534,2.1534,0,0,1-1.5088.6933,1.2776,1.2776,0,0,1-1.2315-1.3242,1.0868,1.0868,0,0,1,.5538-.8779c.37-.2,1.7714-.6152,2.0947-.7393a.2906.2906,0,0,0,.2-.23,5.3044,5.3044,0,0,0,.03-.708c0-.6319-.1075-1.0625-.3692-1.2627a1.17,1.17,0,0,0-.6465-.2461,1.06,1.06,0,0,0-.6162.1845.6182.6182,0,0,0-.2314.3692,1.6643,1.6643,0,0,0-.0147.293.194.194,0,0,1-.0615.123,3.3623,3.3623,0,0,1-.7236.3389c-.0772.0156-.1543-.0772-.1543-.1387,0-.1074.1074-.2461.2929-.4619a3.9713,3.9713,0,0,1,1.17-.8926,2.0542,2.0542,0,0,1,.9238-.2773A1.2622,1.2622,0,0,1,293.0986,160.5833Zm-1.0322,4.2334a.6391.6391,0,0,0,.17-.3691,11.0849,11.0849,0,0,0,.0772-1.4629c0-.0156-.0313-.0918-.0625-.0772a8.7754,8.7754,0,0,0-1.416.5235.7977.7977,0,0,0-.3848.77.8944.8944,0,0,0,.9238.8623A1.0525,1.0525,0,0,0,292.0664,164.8167Z"/><path class="cls-2" d="M295.4238,164.9251a1.7356,1.7356,0,0,1-.1845-.8779v-3.1865c0-.17-.0157-.2774-.0772-.3086a2.5254,2.5254,0,0,0-.3691-.0918c-.1231-.0313-.2-.0772-.2-.1387,0-.0313.0156-.0772.1845-.1543a3.2762,3.2762,0,0,0,1.2627-1.0313c.1387-.1542.2461-.123.2461-.0468,0,.1386-.03.57-.0146.7549,0,.0459.0146.1386.0762.1386.2773,0,1.5556-.0459,1.8789-.0459.03,0,.0918.1075.0918.2149,0,.2617-.0762.3847-.1534.3847-.539,0-1.2939-.0146-1.7089-.0146-.1846,0-.2159.0459-.2159.1387,0,.2617.0157,2.6787.0313,3.1562a1.5787,1.5787,0,0,0,.1689.8311,1.14,1.14,0,0,0,.9541.416,1.5034,1.5034,0,0,0,.8477-.2315c.1074-.0771.1533-.0615.1533,0,0,.0928-.1387.2461-.3389.4a2.1121,2.1121,0,0,1-1.247.4A1.4274,1.4274,0,0,1,295.4238,164.9251Z"/><path class="cls-2" d="M303.4473,161.3685a.1805.1805,0,0,1-.1543.1689c-.1231-.0156-2.125-.0459-2.4785-.0459h-.8311c-.0313,0-.1084.0772-.1387.1231a2.1164,2.1164,0,0,0-.123.8466,2.7593,2.7593,0,0,0,.708,1.8633,2.0774,2.0774,0,0,0,1.5391.6309,1.9667,1.9667,0,0,0,1.4628-.4922c.1231-.1231.1846-.0928.1846-.0156a.5856.5856,0,0,1-.1533.2461,2.7218,2.7218,0,0,1-2.1406.97,2.4837,2.4837,0,0,1-1.8321-.7852,3.0082,3.0082,0,0,1-.7392-2.0625,3.21,3.21,0,0,1,.8935-2.248,2.8627,2.8627,0,0,1,1.9239-.7695A1.7764,1.7764,0,0,1,303.4473,161.3685Zm-3.1407-.7852a1.3416,1.3416,0,0,0-.3232.6309.0654.0654,0,0,0,.0615.0615l2.001-.0156c.3389,0,.3691-.169.3691-.3076a.9919.9919,0,0,0-.2148-.6465,1.0779,1.0779,0,0,0-.77-.293A1.5966,1.5966,0,0,0,300.3066,160.5833Z"/><path class="cls-2" d="M306.1738,160.9222a.8858.8858,0,0,0-.2617.5381,9.0235,9.0235,0,0,0-.0156.9394c0,1.14.0312,1.94.0615,2.2637.0615.4766.2471.585.832.6465.2149.03.292.0615.292.1386s-.1386.1075-.3691.1075c-.293,0-.8008-.0616-1.4473-.0616a8.2824,8.2824,0,0,0-.9394.0928c-.1846,0-.2617-.0312-.2617-.0928,0-.0459.1084-.123.2314-.1543a.6345.6345,0,0,0,.5537-.6308c.0313-.2617.0469-1.14.0469-2.1553v-1.709c0-.1084-.1084-.1543-.4-.4-.1084-.0771-.1231-.123-.1231-.1543s.0918-.0918.2305-.1386a4.62,4.62,0,0,0,.9854-.3692.4856.4856,0,0,1,.2314-.0771c.03,0,.0615.0615.0615.2158,0,.1689-.0156.7539-.0156,1.001,0,.0459.03.0615.0772.0146a2.5148,2.5148,0,0,1,1.6621-1.1084.8968.8968,0,0,1,.539.2.2691.2691,0,0,1,.1084.2158,1.0557,1.0557,0,0,1-.3388.5235c-.1387.123-.2.1387-.2471.1387a.6937.6937,0,0,1-.2764-.1084,1.084,1.084,0,0,0-.539-.1846A1.0483,1.0483,0,0,0,306.1738,160.9222Z"/><polyline class="cls-3" points="289.746 121.649 290.271 122.643 289.695 123.688"/><polyline class="cls-3" points="289.695 123.716 290.22 124.71 289.644 125.755"/><polyline class="cls-3" points="289.798 119.573 290.323 120.568 289.747 121.613"/><polyline class="cls-3" points="287.456 118.873 287.981 119.867 287.405 120.912"/><polyline class="cls-3" points="287.404 120.939 287.93 121.934 287.354 122.979"/><polyline class="cls-3" points="287.508 116.797 288.033 117.792 287.457 118.837"/><polyline class="cls-3" points="295.316 121.649 295.841 122.643 295.265 123.688"/><polyline class="cls-3" points="295.264 123.716 295.789 124.71 295.213 125.755"/><polyline class="cls-3" points="295.367 119.573 295.893 120.568 295.317 121.613"/><polyline class="cls-3" points="293.025 118.873 293.551 119.867 292.975 120.912"/><polyline class="cls-3" points="292.974 120.939 293.499 121.934 292.923 122.979"/><polyline class="cls-3" points="293.077 116.797 293.603 117.792 293.026 118.837"/><polyline class="cls-3" points="300.885 121.649 301.411 122.643 300.834 123.688"/><polyline class="cls-3" points="300.834 123.716 301.359 124.71 300.783 125.755"/><polyline class="cls-3" points="300.937 119.573 301.462 120.568 300.886 121.613"/><polyline class="cls-3" points="298.595 118.873 299.12 119.867 298.544 120.912"/><polyline class="cls-3" points="298.543 120.939 299.069 121.934 298.493 122.979"/><polyline class="cls-3" points="298.647 116.797 299.172 117.792 298.596 118.837"/><polyline class="cls-3" points="304.165 118.873 304.69 119.867 304.114 120.912"/><polyline class="cls-3" points="304.113 120.939 304.638 121.934 304.062 122.979"/><polyline class="cls-3" points="304.216 116.797 304.742 117.792 304.165 118.837"/><path class="cls-1" d="M301.7163,113.3217c-15.4671-4.6607-21.5474-3.2474-28.72-.167"/><path class="cls-1" d="M301.035,113.1164c13.3978,3.3245,21.1571,3.9453,34.8134-3.3485"/><path class="cls-1" d="M277.8644,129.1081c-7.4242,2.2372-11.1775,2.3017-13.54-.8147"/><path class="cls-1" d="M277.5374,129.2067c6.431-1.5958,10.1554-1.8938,16.7105,1.6072"/><path class="cls-1" d="M310.4649,131.1531c-6.3224,1.9826-10.022,2.5058-16.7771-.5915"/><line class="cls-1" x1="102.5737" y1="106.5933" x2="102.5737" y2="109.6694"/><line class="cls-1" x1="115.2135" y1="114.7951" x2="115.2135" y2="119.8734"/><line class="cls-1" x1="92.7491" y1="114.7951" x2="92.7491" y2="119.8734"/><rect class="cls-1" x="99.559" y="113.367" width="5.9732" height="6.6051" rx="1" transform="translate(205.0911 233.3391) rotate(-180)"/><line class="cls-1" x1="129.9456" y1="114.7951" x2="129.9456" y2="119.8734"/><polyline class="cls-1" points="124.779 112.655 113.297 112.655 102.636 100.588 121.602 100.588 123.327 102.628"/><line class="cls-1" x1="102.5377" y1="100.605" x2="91.8768" y2="112.6722"/><line class="cls-1" x1="87.5784" y1="99.3641" x2="87.5784" y2="102.4403"/><line class="cls-1" x1="77.7537" y1="107.4304" x2="77.7537" y2="112.5087"/><rect class="cls-1" x="84.5636" y="105.9889" width="5.9732" height="6.6051" rx="1" transform="translate(175.1005 218.5828) rotate(-180)"/><polyline class="cls-1" points="98.302 105.426 87.641 93.359 106.607 93.359 113.068 100.542"/><line class="cls-1" x1="87.5423" y1="93.3758" x2="76.8815" y2="105.4431"/><line class="cls-1" x1="166.2293" y1="106.5933" x2="166.2293" y2="109.6694"/><line class="cls-1" x1="153.5895" y1="114.7951" x2="153.5895" y2="119.8734"/><line class="cls-1" x1="176.054" y1="114.7951" x2="176.054" y2="119.8734"/><rect class="cls-1" x="163.2709" y="113.218" width="5.9732" height="6.6051" rx="1"/><line class="cls-1" x1="138.8574" y1="114.7951" x2="138.8574" y2="119.8734"/><polyline class="cls-1" points="142.396 112.655 155.506 112.655 166.167 100.588 147.201 100.588 142.433 106.203"/><line class="cls-1" x1="166.2654" y1="100.605" x2="176.9262" y2="112.6722"/><line class="cls-1" x1="181.2247" y1="99.3641" x2="181.2247" y2="102.4403"/><line class="cls-1" x1="191.0493" y1="107.5659" x2="191.0493" y2="112.6442"/><path class="cls-1" d="M184.2394,109.5651v-2.1017a1.4,1.4,0,0,0-1.4-1.4h-3.1731a1.4,1.4,0,0,0-1.4,1.4v3.8051a1.4,1.4,0,0,0,1.4,1.4h1.7731"/><polyline class="cls-1" points="170.501 105.426 181.162 93.359 162.196 93.359 155.735 100.542"/><line class="cls-1" x1="181.2607" y1="93.3758" x2="191.9216" y2="105.4431"/><polyline class="cls-1" points="179.027 93.309 184.146 87.527 165.179 87.527 161.664 91.499"/><line class="cls-1" x1="184.244" y1="87.5433" x2="194.9049" y2="99.6106"/><line class="cls-1" x1="193.9991" y1="101.7334" x2="193.9991" y2="106.9179"/><line class="cls-1" x1="184.1824" y1="93.5596" x2="184.1824" y2="96.6357"/><polyline class="cls-1" points="107.947 90.099 120.785 90.099 125.524 95.03"/><polyline class="cls-1" points="92.209 88.62 86.824 82.87 105.79 82.87 112.251 90.052"/><line class="cls-1" x1="86.7252" y1="82.8863" x2="76.0644" y2="94.9536"/><line class="cls-1" x1="208.1501" y1="119.9998" x2="86.7445" y2="119.9998"/><line class="cls-1" x1="85.8765" y1="112.5959" x2="63.1516" y2="112.5959"/><path class="cls-1" d="M133.0869,102.4132a4.3918,4.3918,0,0,0-8.74,0,4.1423,4.1423,0,0,0-.0043,8.083c-.002.0506-.008.1-.008.151a4.3868,4.3868,0,0,0,8.765,0c0-.051-.006-.1-.008-.151"/><line class="cls-1" x1="128.768" y1="107.6432" x2="132.1994" y2="104.5458"/><line class="cls-1" x1="128.5269" y1="109.4588" x2="125.584" y2="105.5917"/><line class="cls-1" x1="128.6242" y1="105.2755" x2="128.6242" y2="119.9412"/><path class="cls-1" d="M133.163,110.4772a3.33,3.33,0,0,0,2.3467,2.1613c-.0016.0392-.0063.0774-.0063.1169a3.428,3.428,0,0,0,6.8465,0c0-.0395-.0047-.0777-.0063-.1169a3.2039,3.2039,0,0,0-.0034-6.2628,3.348,3.348,0,0,0-3.4136-3.0659,3.4405,3.4405,0,0,0-2.9141,1.572"/><line class="cls-1" x1="138.9626" y1="110.7125" x2="141.647" y2="108.0281"/><line class="cls-1" x1="138.7784" y1="111.8346" x2="136.4797" y2="108.8384"/><line class="cls-1" x1="138.8544" y1="108.5934" x2="138.8544" y2="119.9565"/><path class="cls-4" d="M97.3621,141.9708a.1528.1528,0,0,1-.1528-.1527V127.34a.1529.1529,0,0,1,.1528-.1528H109.393a.1532.1532,0,0,1,.0823.0241c.12.0772,2.9248,1.8927,3.8011,4.2275a2.4091,2.4091,0,0,0,1.6017-.51,1.8886,1.8886,0,0,0,.5545-1.4656"/><path class="cls-4" d="M109.26,141.9708a.1528.1528,0,0,1-.1528-.1527v-3.8022"/><path class="cls-4" d="M116.1105,131.7369l2.7423,4.1136a.1518.1518,0,0,1,.0257.0847v1.8579a.1527.1527,0,0,1-.1527.1527H112.465v3.8723a.1528.1528,0,0,1-.1528.1527H110.72a.1528.1528,0,0,1-.1528-.1527V137.99H108.339"/><path class="cls-4" d="M100.542,140.3359v1.4862a.1488.1488,0,0,1-.1488.1487H98.8424a.1488.1488,0,0,1-.1488-.1487V137.945"/><path class="cls-4" d="M109.26,137.9856h-5.6867a2.5665,2.5665,0,0,1-2.5625,2.4991"/><path class="cls-4" d="M95.58,134.2987v-1.1574a.153.153,0,0,1,.0447-.108l.5229-.5229v-3.8291"/><path class="cls-4" d="M116.3352,133.8564a.1527.1527,0,0,1-.1527.1527h-.9118a.1527.1527,0,0,1-.1527-.1527"/><line class="cls-4" x1="106.4737" y1="141.9708" x2="95.7328" y2="141.9708"/><path class="cls-4" d="M118.8785,141.8181a.1527.1527,0,0,1-.1527.1527H108.614"/><line class="cls-4" x1="125.1275" y1="140.4573" x2="125.1275" y2="141.7945"/><line class="cls-4" x1="122.0009" y1="140.4573" x2="122.0009" y2="141.7945"/><line class="cls-4" x1="120.4967" y1="138.6381" x2="120.4967" y2="141.7945"/><line class="cls-4" x1="118.8917" y1="140.4573" x2="118.8917" y2="141.7945"/><line class="cls-4" x1="125.1318" y1="140.4573" x2="125.1318" y2="141.7945"/><line class="cls-4" x1="123.6277" y1="138.6381" x2="123.6277" y2="141.7945"/><line class="cls-4" x1="122.0227" y1="140.4573" x2="122.0227" y2="141.7945"/><path class="cls-5" d="M131.42,144.096l-1.6964-1.67-1.8021-1.3514a.1255.1255,0,0,1-.05-.1v-.665a.1255.1255,0,0,1,.0835-.1182l1.6352-.5791a13.6389,13.6389,0,0,1,4.566-.7847h1.35l.0011-6.5093a.1255.1255,0,0,1,.1254-.1254h2.2589a.1256.1256,0,0,1,.0857.0338l.9883.9253.4675.1616a.1253.1253,0,0,1,.0477.03l.6816.6817a.1253.1253,0,0,1-.0886.214h-2.4025l-.0256,3.4923.7084,1.7053a.1244.1244,0,0,1,.01.0481v2.3675a.1252.1252,0,0,1-.0454.0966l-2.6068,2.1546a.1254.1254,0,0,1-.08.0287h-4.1231A.1255.1255,0,0,1,131.42,144.096Zm4.0857-3.4839v-.79"/><line class="cls-5" x1="132.5135" y1="144.1526" x2="132.5135" y2="146.4986"/><polyline class="cls-5" points="135.064 146.563 133.509 145.5 133.509 144.791"/><polyline class="cls-5" points="135.473 140.636 133.93 142.259 130.506 142.259"/><line class="cls-5" x1="137.6862" y1="134.7892" x2="139.2519" y2="134.7892"/><path class="cls-5" d="M137.7629,132.179v-1.6023a.1255.1255,0,0,0-.1254-.1254h-.5867a.1254.1254,0,0,0-.0886.0367l-.449.449h-.3423a.1254.1254,0,0,0-.0886.0368l-.38.38a.1252.1252,0,0,0-.0367.0886v.7363"/><path class="cls-5" d="M137.6734,136.8841h.9127a.1254.1254,0,0,0,.1254-.1254v-.8248a.1232.1232,0,0,0-.0074-.0421l-.4025-1.0847"/><line class="cls-5" x1="143.2228" y1="146.5793" x2="124.8619" y2="146.5793"/><line class="cls-5" x1="140.2926" y1="146.4986" x2="140.2926" y2="145.3367"/><line class="cls-5" x1="139.3966" y1="146.0017" x2="139.3966" y2="146.4986"/><line class="cls-5" x1="138.5146" y1="146.4986" x2="138.5146" y2="144.7913"/><line class="cls-5" x1="130.5039" y1="146.577" x2="130.5039" y2="146.0076"/><line class="cls-5" x1="129.6424" y1="146.5274" x2="129.6424" y2="145.4264"/><path class="cls-1" d="M147.828,84.8925a1.9276,1.9276,0,0,0-1.69,1.839l-.0392.7354-.5828-.4487a5.5546,5.5546,0,0,0-4.3608-.85"/><circle class="cls-1" cx="168.1369" cy="69.6558" r="7.6884"/><path class="cls-1" d="M157.2975,78.2142a1.9274,1.9274,0,0,0-1.69,1.839l-.0393.7355-.5828-.4487a5.5543,5.5543,0,0,0-4.3608-.85"/></svg>