<svg id="Layer_1" data-name="Layer 1" xmlns="http://www.w3.org/2000/svg" viewBox="0 0 399 200"><defs><style>.cls-1{isolation:isolate;}.cls-2{fill:#333838;}.cls-3,.cls-4,.cls-5,.cls-7,.cls-8{fill:none;stroke:#222f3c;}.cls-3,.cls-5,.cls-8{stroke-linecap:round;}.cls-3,.cls-5,.cls-7{stroke-linejoin:round;}.cls-3,.cls-4,.cls-7,.cls-8{stroke-width:0.5px;}.cls-4,.cls-8{stroke-miterlimit:10;}.cls-5{stroke-width:0.25px;}.cls-6{fill:#222f3c;}</style></defs><g class="cls-1"><path class="cls-2" d="M175.6863,103.0907c.0391.01.1172.1475.1275.1963,0,.127.0976.8819.0976.9209,0,.1465-.0293.2451-.0879.2451a.3629.3629,0,0,1-.2842-.2353,1.6271,1.6271,0,0,0-.4214-.6953,1.1435,1.1435,0,0,0-.7836-.2744,1.0182,1.0182,0,0,0-.9991,1.0185c0,.5781.4312.8916,1.3125,1.45,1.2051.7344,1.44,1.3613,1.44,1.959a1.74,1.74,0,0,1-.8618,1.4394,2.8988,2.8988,0,0,1-1.3716.3536,3.7156,3.7156,0,0,1-1.4107-.2549.8375.8375,0,0,1-.2548-.2842,5.5268,5.5268,0,0,1-.1666-1.0479c0-.0693.108-.206.1568-.206.0786,0,.2353.2353.3823.5391a1.5613,1.5613,0,0,0,1.3613.9,1.0125,1.0125,0,0,0,1.0191-.9794c0-.4112-.2056-.8028-1.107-1.3907-.999-.6562-1.538-1.1953-1.538-2.0674a1.69,1.69,0,0,1,.5976-1.2832,2.2643,2.2643,0,0,1,1.5576-.47A7,7,0,0,1,175.6863,103.0907Z"/><path class="cls-2" d="M182.075,103.081a6.4826,6.4826,0,0,0,.7051.1474c.0688,0,.1469.1172.1469.2647.01.2734.0293.6162.0493.9.01.206-.059.373-.1669.373-.0489,0-.1368-.1181-.1861-.2646a1.477,1.477,0,0,0-.4111-.6963,2.2671,2.2671,0,0,0-1.45-.5674c-1.5576,0-2.292,1.2344-2.292,2.7227a3.7508,3.7508,0,0,0,.333,1.6562,2.431,2.431,0,0,0,2.1943,1.459,2.0653,2.0653,0,0,0,.95-.2246,2.2084,2.2084,0,0,0,.8521-.8916c.1177-.2158.1865-.3037.2646-.3037.1079,0,.1079.2548.0787.3623a4.623,4.623,0,0,1-.294.8525.8167.8167,0,0,1-.353.3135,5.2477,5.2477,0,0,1-1.7139.2842,3.9494,3.9494,0,0,1-2.88-1.1075,3.2289,3.2289,0,0,1-.8227-2.2041,3.1112,3.1112,0,0,1,1.0776-2.3515,4.1431,4.1431,0,0,1,2.645-.8809A5.54,5.54,0,0,1,182.075,103.081Z"/><path class="cls-2" d="M186.1136,105.8827c.666,0,1.9594-.039,2.9877-.039.0391,0,.0787-.0977.0884-.2452a16.1906,16.1906,0,0,0-.0195-1.6552c-.04-.3526-.0884-.45-.48-.5586-.1372-.0391-.2842-.0977-.2842-.1953,0-.0694.0977-.128.3233-.128.1274,0,.852.0293,1.1069.0293.3135,0,.9307-.039,1.0484-.039.186,0,.3037.0488.3037.1269,0,.0987-.0884.1573-.3135.2158-.353.0782-.4116.2354-.4312.52-.0493.46-.0786,1.3418-.0786,2.7334,0,.96.0293,1.4687.0391,1.792.01.3818.1079.4121.5.539.1763.0586.2739.127.2739.2061,0,.1074-.1367.1367-.3135.1367-.1665,0-.6953-.0293-.9892-.0293-.2154,0-.999.0488-1.1949.0488-.2353,0-.3334-.0488-.3334-.1367s.1274-.167.2646-.206c.48-.127.4995-.2061.5488-.9307.0293-.3916.0391-1.3125.02-1.5772,0-.0878-.04-.1269-.0787-.1269-.7836,0-2.7919-.0293-2.9877-.01a.1953.1953,0,0,0-.1275.1465c-.0195.3623,0,1.4111.01,1.7246.01.46.0688.6074.47.7246.206.0586.3433.1368.3433.2451.01.0977-.1866.127-.3135.127-.0689,0-.8819-.0293-1.2246-.0293-.2256,0-.7251.0391-1.0581.0391-.2549,0-.3428-.0489-.3428-.127,0-.1084.1079-.167.2744-.2158.4307-.1172.519-.2256.5679-.6367.039-.3916.0884-1.8516.0884-3.1934,0-.2939.02-.833,0-1.2246-.02-.3232-.108-.4307-.4312-.5293-.2251-.0683-.333-.1367-.333-.2148,0-.0987.1274-.1377.3037-.1377.2647,0,.8032.039,1.0581.039.4111,0,.8521-.0293,1.0874-.0293.2056,0,.3233.0391.3233.128,0,.1074-.1275.166-.3335.2148-.4112.0889-.44.2744-.45.6758-.02.3525-.0591,1.4892-.03,1.6758C186.0056,105.8339,186.0452,105.8827,186.1136,105.8827Z"/><path class="cls-2" d="M198.8714,106.0985a3.2336,3.2336,0,0,1-1.2344,2.6641,3.695,3.695,0,0,1-2.145.7061,3.4524,3.4524,0,0,1-2.5474-1.0489,3.2366,3.2366,0,0,1-.8423-2.2431,3.0683,3.0683,0,0,1,1.2637-2.5469,3.6753,3.6753,0,0,1,2.0864-.7051A3.2451,3.2451,0,0,1,198.8714,106.0985Zm-4.7608-2.332a3.0514,3.0514,0,0,0-.686,2.1944c0,1.5087.9209,3.1445,2.3511,3.1445a1.4012,1.4012,0,0,0,1-.4014,3.3633,3.3633,0,0,0,.7539-2.3017,3.8091,3.8091,0,0,0-1.0186-2.6065,2.1677,2.1677,0,0,0-1.2929-.5283A1.7232,1.7232,0,0,0,194.1106,103.7665Z"/><path class="cls-2" d="M206.6917,106.0985a3.2336,3.2336,0,0,1-1.2344,2.6641,3.695,3.695,0,0,1-2.145.7061,3.4524,3.4524,0,0,1-2.5474-1.0489,3.2366,3.2366,0,0,1-.8423-2.2431,3.0683,3.0683,0,0,1,1.2637-2.5469,3.6753,3.6753,0,0,1,2.0864-.7051A3.2451,3.2451,0,0,1,206.6917,106.0985Zm-4.7608-2.332a3.0514,3.0514,0,0,0-.686,2.1944c0,1.5087.9209,3.1445,2.3511,3.1445a1.4012,1.4012,0,0,0,.9995-.4014,3.3633,3.3633,0,0,0,.7539-2.3017,3.8091,3.8091,0,0,0-1.0186-2.6065,2.1677,2.1677,0,0,0-1.2929-.5283A1.7234,1.7234,0,0,0,201.9309,103.7665Z"/><path class="cls-2" d="M207.8606,103.0712c.2642,0,.6953.0195.98.0195.3819,0,1.0586-.039,1.293-.039.2256,0,.3037.0488.3037.1172,0,.0888-.1172.1572-.2148.1865-.5293.1269-.608.2744-.6177.3916-.0689.49-.0689,1.48-.0689,2.93,0,.6758.01,1.4785.0493,1.8115.02.2353.314.373.3531.3828a6.3526,6.3526,0,0,0,.8125.0488,4.0049,4.0049,0,0,0,.706-.0488.5821.5821,0,0,0,.3028-.1377,3.7932,3.7932,0,0,0,.6172-.7637.4.4,0,0,1,.2646-.1962c.0693,0,.0791.1083.0391.2646-.1075.3428-.2539.8818-.3135,1.1562a.4529.4529,0,0,1-.2246.1661c-.1475,0-1.02-.0684-3.0078-.0684-.47,0-1.1465.0586-1.45.0586-.1763,0-.2935-.0391-.2935-.127,0-.0683.0879-.1572.2446-.1865.5391-.0976.627-.2744.6758-.7051.02-.2451.0493-1.2734.0493-2.6845,0-.95,0-1.3321-.01-1.6553-.01-.333-.0591-.4893-.51-.5977-.186-.0488-.2739-.1171-.2739-.1855C207.5667,103.11,207.6839,103.0712,207.8606,103.0712Z"/></g><path class="cls-3" d="M211.1319,146.6766a.6043.6043,0,0,0,.6028-.6059v-2.9289a.8569.8569,0,0,0-.8541-.858H204.478V119.8146a.8569.8569,0,0,0-.8541-.858H180.5155a.8564.8564,0,0,0-.8536.858v22.4692h-6.4032a.8565.8565,0,0,0-.8535.858v2.9289a.604.604,0,0,0,.6021.6059h.0007"/><line class="cls-3" x1="192.07" y1="142.2045" x2="192.07" y2="119.1802"/><path class="cls-4" d="M194.1933,72.4063a12.6317,12.6317,0,0,0,4.0968-.7869,8.57,8.57,0,0,1,2.6193-.5655,4.9223,4.9223,0,0,1,2.6844.8811.6505.6505,0,0,0,.9958-.5512V64.3963a.6493.6493,0,0,0-.353-.5789,3.4987,3.4987,0,0,0-1.6331-.3709,11.1333,11.1333,0,0,0-3.0312.6157,13.5141,13.5141,0,0,1-3.8642.7408h0a6.662,6.662,0,0,1-3.1915-.8022.666.666,0,0,0-.6409.0184.6571.6571,0,0,0-.3136.5574V77.9532"/><polyline class="cls-3" points="145.933 104.22 145.933 99.692 191.553 77.652 238.207 99.736 238.207 104.281"/><polyline class="cls-3" points="150.547 146.343 150.547 102.594 191.604 82.757 233.593 102.633 233.593 146.398"/><line class="cls-3" x1="263.6852" y1="146.7371" x2="263.6852" y2="137.9676"/><line class="cls-3" x1="263.6852" y1="146.7371" x2="267.9128" y2="146.7371"/><line class="cls-3" x1="259.3222" y1="146.7371" x2="259.3222" y2="137.9676"/><line class="cls-3" x1="259.3222" y1="146.7371" x2="255.0946" y2="146.7371"/><path class="cls-3" d="M273.3833,109.3833a16.8,16.8,0,0,0-3.7849-2.8409H253.4091a16.8,16.8,0,1,0,19.9742,2.8409Z"/><line class="cls-3" x1="262.2467" y1="121.9324" x2="265.3408" y2="124.8067"/><line class="cls-3" x1="259.4422" y1="123.4084" x2="260.761" y2="122.0896"/><circle class="cls-3" cx="261.6194" cy="121.5019" r="0.7"/><circle class="cls-5" cx="261.5039" cy="121.2627" r="14"/><path class="cls-3" d="M273.3833,133.1422a8.4282,8.4282,0,0,0,11.9188,0"/><path class="cls-3" d="M286.7867,131.6564a1.1175,1.1175,0,1,0,.0008.0009Z"/><path class="cls-3" d="M246.9056,129.5443a8.428,8.428,0,0,0-11.3341-3.6871"/><path class="cls-3" d="M233.6994,126.81a1.05,1.05,0,1,0,.46-1.4124A1.05,1.05,0,0,0,233.6994,126.81Z"/><line class="cls-3" x1="286.7641" y1="131.4134" x2="298.8039" y2="113.1239"/><polyline class="cls-3" points="269.967 99.628 278.304 96.873 261.504 91.14 244.704 96.873 253.095 99.628"/><path class="cls-3" d="M269.9039,96.8729v9.6317h-16.8V96.8827c0-.8022,3.7606-1.453,8.4-1.453s8.4.6508,8.4,1.453Z"/><path class="cls-3" d="M244.7039,96.8729v4.6137"/><path class="cls-6" d="M260.9853,132.3456a.5124.5124,0,0,1,.4622-.5581l.0278-.0019h0a.5271.5271,0,0,1,.5462.49h0a.5225.5225,0,0,1-.4822.56l-.0078.0006h-.0281A.5119.5119,0,0,1,260.9853,132.3456Zm-5.1518-1.026a.53.53,0,0,1-.3364-.6583h0a.5276.5276,0,0,1,.6649-.3381l.0071.0024h0a.5285.5285,0,0,1,.3363.6577h0a.5247.5247,0,0,1-.5038.3643h0A.7163.7163,0,0,1,255.8335,131.32Zm10.714-.2409a.5217.5217,0,0,1,.2442-.6962l.008-.0037h0a.5253.5253,0,0,1,.6994.2507l.0007.0014h0a.5294.5294,0,0,1-.2523.6857h0a.4382.4382,0,0,1-.2235.056h0a.5292.5292,0,0,1-.4766-.2939Zm-15.1108-4.0693a.5244.5244,0,0,1,.1962-.7137h0a.5417.5417,0,0,1,.728.21h0a.5415.5415,0,0,1-.21.7136h0a.5684.5684,0,0,1-.2521.07h0a.57.57,0,0,1-.4621-.28Zm19.4529.2445a.5111.5111,0,0,1-.2994-.658l.0054-.0139h0a.5108.5108,0,0,1,.654-.3069l.0324.013h0a.5226.5226,0,0,1,.294.6719h0a.5277.5277,0,0,1-.49.3357h0a.4488.4488,0,0,1-.1965-.0418ZM249.9627,121.3h0a.5333.5333,0,0,1,.4621-.5886h0a.5414.5414,0,0,1,.5879.4621h0a.54.54,0,0,1-.4622.5879h-.07a.5372.5372,0,0,1-.5179-.4614Zm22.2289-.0594h0a.5293.5293,0,0,1,.5174-.5325h0a.5327.5327,0,0,1,.5325.5325h0a.5291.5291,0,0,1-.5325.5175h0a.5257.5257,0,0,1-.5175-.5175Zm-20.5022-5.0994a.5165.5165,0,0,1-.1172-.7211l.0051-.0069h0a.5163.5163,0,0,1,.7206-.1169l.0074.0054h0a.5048.5048,0,0,1,.1315.7016l-.0194.0265h0a.5128.5128,0,0,1-.42.2235h0a.5176.5176,0,0,1-.3081-.1121Zm18.9762-.097h0a.5332.5332,0,0,1,.1121-.7424h0a.5373.5373,0,0,1,.7417.1258h0a.5209.5209,0,0,1-.1231.7262l-.0027.0018h0a.4758.4758,0,0,1-.3082.0984h0A.5179.5179,0,0,1,270.6656,116.044Zm-15.11-4.0868a.5359.5359,0,0,1,.1538-.728h0a.5234.5234,0,0,1,.7227.1595l.0054.0086h0a.5284.5284,0,0,1-.1682.7274h0a.6276.6276,0,0,1-.28.07h0a.5155.5155,0,0,1-.4341-.2375Zm11.2427.1926a.5238.5238,0,0,1-.173-.72l.0048-.0078h0a.5353.5353,0,0,1,.7281-.1538h0a.5365.5365,0,0,1,.1681.728h0a.56.56,0,0,1-.4484.2379h0a.5035.5035,0,0,1-.28-.0841Zm-5.3644-1.34a.5234.5234,0,0,1-.4213-.6087l.0013-.0072h0a.5264.5264,0,0,1,.6145-.42l.0015,0h0a.5451.5451,0,0,1,.42.6159h0a.54.54,0,0,1-.5319.42h-.0841Z"/><path class="cls-7" d="M259.47,115.8666a1.93,1.93,0,0,1-3.8057,0"/><path class="cls-7" d="M267.6591,115.8666a1.93,1.93,0,0,1-3.8056,0"/><line class="cls-8" x1="255.8226" y1="118.7258" x2="255.8226" y2="122.3658"/><line class="cls-8" x1="267.5005" y1="118.7258" x2="267.5005" y2="122.3658"/><path class="cls-4" d="M210.9377,58.8641a12.6343,12.6343,0,0,0,4.0968-.7869,8.57,8.57,0,0,1,2.6193-.5655,4.9223,4.9223,0,0,1,2.6844.8811.6505.6505,0,0,0,.9958-.5512V50.854a.6491.6491,0,0,0-.3531-.5784,3.4973,3.4973,0,0,0-1.6331-.371,11.1342,11.1342,0,0,0-3.0313.6158,13.5175,13.5175,0,0,1-3.8641.7408h-.0005a6.6617,6.6617,0,0,1-3.1915-.8022.6657.6657,0,0,0-.6409.0184.6568.6568,0,0,0-.3136.5573V64.411"/><polyline class="cls-3" points="208.297 64.109 254.951 86.194 254.951 90.739"/><line class="cls-3" x1="162.6775" y1="90.6773" x2="162.6775" y2="86.1495"/><line class="cls-3" x1="204.9735" y1="65.8555" x2="208.2971" y2="64.1089"/><line class="cls-3" x1="162.6775" y1="86.1495" x2="191.4724" y2="72.1987"/><line class="cls-3" x1="136.4202" y1="146.7371" x2="317.5685" y2="146.7371"/><polygon class="cls-4" points="99.183 152.295 99.183 159.408 103.122 159.408 103.585 152.295 99.183 152.295"/><polygon class="cls-4" points="88.362 152.295 88.825 159.408 92.764 159.408 92.764 152.295 88.362 152.295"/><path class="cls-4" d="M107.4209,110.9c-.431-.1075-.8483-.2232-1.2067-.3482-3.602-1.2564-5.7535-3.11-6.7228-5.1917-1.9754,2.7632-6.4706,4.6943-11.7057,4.6943a27.6271,27.6271,0,0,1-3.0142-.1785,10.7215,10.7215,0,0,0-.4325,3.0093,11.6452,11.6452,0,0,0,23.2693,0A10.7424,10.7424,0,0,0,107.4209,110.9Z"/><path class="cls-4" d="M99.1832,159.4074h4.37a1.6478,1.6478,0,0,1,1.6477,1.6479v.6594H99.1832v-2.3073Z"/><path class="cls-4" d="M92.764,161.7142H86.7461v-.6591a1.6479,1.6479,0,0,1,1.6478-1.6478h4.37v2.3069Z"/><polyline class="cls-4" points="95.956 147.028 95.956 152.295 104.8 152.295 104.8 139.499 87.147 139.499 87.147 152.295 95.992 152.295 95.992 147.086"/><path class="cls-4" d="M84.339,112.8856c0-.1259.0056-.2505.01-.3753a2.1122,2.1122,0,0,0,.1907,4.22h.51"/><path class="cls-4" d="M106.8978,116.73h.51a2.1122,2.1122,0,0,0,.1907-4.22h0c.0043.1248.01.2494.01.3753"/><path class="cls-4" d="M102.7939,113.7506a1.305,1.305,0,0,1-2.6077,0"/><path class="cls-4" d="M91.7609,113.7506a1.3051,1.3051,0,0,1-2.6078,0"/><path class="cls-4" d="M93.7671,119.0756a2.2085,2.2085,0,0,0,4.4131,0"/><path class="cls-4" d="M109.473,129.04a12.2407,12.2407,0,0,0-6.1532-5.8626,3.27,3.27,0,0,0-1.1909-.4408,2.0578,2.0578,0,0,0-.4271-.0466c-.0211,0-.0418.0017-.0627.0023-.0164,0-.0323-.0023-.0488-.0023h-.071a12.1,12.1,0,0,1-11.0913,0h-.0711c-.0165,0-.0323.0021-.0488.0023-.0209-.0006-.0416-.0023-.0626-.0023a2.06,2.06,0,0,0-.4272.0466,3.2714,3.2714,0,0,0-1.1909.4408,12.2414,12.2414,0,0,0-6.1532,5.8626c-.1035.2128-.1982.4279-.2883.6442l3.932.8763a8.2984,8.2984,0,0,1,1.0295-1.5739v10.5221H104.8V128.9864a8.2882,8.2882,0,0,1,1.0294,1.5739l3.932-.8763C109.6709,129.4677,109.5765,129.2526,109.473,129.04Z"/><path class="cls-4" d="M95.9736,97.3142A12.784,12.784,0,0,0,82.94,109.6063c-.0011.068-.0054.1352-.0054.2035a12.0245,12.0245,0,0,0,.3908,3.0409,2.26,2.26,0,0,1,1.0233-.341,10.7083,10.7083,0,0,1,.4224-2.6334,27.6271,27.6271,0,0,0,3.0142.1785c5.2351,0,9.73-1.9311,11.7057-4.6944.9693,2.0823,3.1207,3.9354,6.7228,5.1918.3584.125.7757.2407,1.2067.3482a10.7253,10.7253,0,0,1,.1776,1.6093,2.2592,2.2592,0,0,1,1.0233.341,12.1734,12.1734,0,0,0,.3908-3.0409A12.7758,12.7758,0,0,0,95.9736,97.3142Z"/><path class="cls-4" d="M106.81,136.3948a2.2737,2.2737,0,0,1,.9788-.2215,2.2176,2.2176,0,0,1,1.9591,1.1441,11.1329,11.1329,0,0,0-.421-7.5366l-3.056.6811A8.3162,8.3162,0,0,1,106.81,136.3948Z"/><ellipse class="cls-4" cx="107.7888" cy="138.2879" rx="2.2066" ry="2.1146"/><path class="cls-4" d="M81.2909,135.5162a3.26,3.26,0,0,0-1.1835-.2318,8.6682,8.6682,0,0,0,2.4808-5.5294l3.0525.6956a11.3523,11.3523,0,0,1-3.1282,6.9265A2.1065,2.1065,0,0,0,81.2909,135.5162Z"/><path class="cls-4" d="M82.5142,137.4092a2.2086,2.2086,0,1,1-2.2066-2.1146"/><path class="cls-4" d="M74.8524,110.6232c-3.602-1.2564-5.7535-3.1095-6.7228-5.1917-1.9754,2.7633-6.47,4.6941-11.7057,4.6941a17.3342,17.3342,0,0,1-2.9658-.3418,10.7188,10.7188,0,0,0-.4807,3.1726,11.6452,11.6452,0,0,0,23.2693,0,10.7526,10.7526,0,0,0-.1922-2.01A11.3706,11.3706,0,0,1,74.8524,110.6232Z"/><path class="cls-4" d="M67.8216,159.4074h4.37a1.6478,1.6478,0,0,1,1.6478,1.6478v.6591H67.8216v-2.3069Z"/><path class="cls-4" d="M61.4025,161.7142H55.3846v-.6591a1.6479,1.6479,0,0,1,1.6478-1.6478h4.37v2.3069Z"/><polygon class="cls-4" points="67.822 152.379 67.822 159.408 71.761 159.408 72.218 152.379 67.822 152.379"/><polygon class="cls-4" points="57.003 152.332 57.464 159.408 61.403 159.408 61.403 152.332 57.003 152.332"/><polygon class="cls-4" points="55.786 139.544 54.894 152.308 74.33 152.308 73.438 139.544 55.786 139.544"/><path class="cls-4" d="M70.1576,122.7608h.0712c.0164,0,.0323.0021.0488.0023.0208-.0006.0416-.0023.0626-.0023a2.0513,2.0513,0,0,1,.4272.0467,3.2694,3.2694,0,0,1,1.1908.4407,12.5612,12.5612,0,0,1,3.27,2.0786,25.7045,25.7045,0,0,0,2.5527-9.3359,2.2353,2.2353,0,0,1-1.7348.8105h-.5108"/><path class="cls-4" d="M53.6888,116.8014H53.178a2.2356,2.2356,0,0,1-1.7372-.8138,25.7236,25.7236,0,0,0,2.5552,9.3392,12.56,12.56,0,0,1,3.27-2.0785,3.2716,3.2716,0,0,1,1.1909-.4409,2.0585,2.0585,0,0,1,.4271-.0466c.021,0,.0417.0017.0626.0023.0164,0,.0324-.0023.0488-.0023h.0712"/><path class="cls-4" d="M52.9774,112.9566c0-.1258.0056-.25.01-.3752a2.1122,2.1122,0,0,0,.1907,4.22h.51"/><path class="cls-4" d="M75.5362,116.8014h.51a2.1122,2.1122,0,0,0,.1907-4.22h0c.0043.1248.01.2494.01.3752"/><path class="cls-4" d="M71.4323,115.0712a1.305,1.305,0,0,0-2.6077,0"/><path class="cls-4" d="M60.4,115.0712a1.305,1.305,0,0,0-2.6077,0"/><path class="cls-4" d="M62.4054,119.1467a2.2086,2.2086,0,0,0,4.4132,0"/><path class="cls-4" d="M53.4561,109.784a17.3466,17.3466,0,0,0,2.9678.3422c5.2352,0,9.73-1.931,11.7057-4.6942.9693,2.0821,3.1208,3.9353,6.7228,5.1916a11.3836,11.3836,0,0,0,1.2021.3232,10.8456,10.8456,0,0,1,.183,1.635,2.2137,2.2137,0,0,1,1.729,1.0661c.0434-.8043.0671-1.5752.0776-2.2926.0055-.3781.0079-.7428.0079-1.09,0-7.1135-6.0172-12.88-13.44-12.88a13.2166,13.2166,0,0,0-13.4011,11.947c-.023.3083-.0389.6186-.0389.9327,0,1.0058.0182,2.1538.0847,3.3836a2.2137,2.2137,0,0,1,1.7279-1.0674"/><path class="cls-4" d="M52.7969,136.2443a2.2734,2.2734,0,0,1,.9788.2215,8.3162,8.3162,0,0,1,.5391-5.9329l-3.056-.6811a11.1329,11.1329,0,0,0-.421,7.5366A2.218,2.218,0,0,1,52.7969,136.2443Z"/><ellipse class="cls-4" cx="52.7969" cy="138.3589" rx="2.2066" ry="2.1146"/><path class="cls-4" d="M78.1115,129.1109a12.2406,12.2406,0,0,0-6.1533-5.8627,3.2694,3.2694,0,0,0-1.1908-.4407,2.0513,2.0513,0,0,0-.4272-.0467c-.021,0-.0418.0017-.0626.0023-.0165,0-.0324-.0023-.0488-.0023h-.0712a12.0991,12.0991,0,0,1-11.0911,0h-.0712c-.0164,0-.0324.0021-.0488.0023-.0209-.0006-.0416-.0023-.0626-.0023a2.0585,2.0585,0,0,0-.4271.0466,3.2716,3.2716,0,0,0-1.1909.4409,12.24,12.24,0,0,0-6.1533,5.8627c-.1035.2127-.1982.4278-.2883.644l3.932.8763a8.2977,8.2977,0,0,1,1.0295-1.5738v10.56H73.4383v-10.56a8.29,8.29,0,0,1,1.03,1.5738l3.932-.8763C78.31,129.5387,78.215,129.3236,78.1115,129.1109Z"/><path class="cls-4" d="M80.5181,135.3938a8.67,8.67,0,0,1-2.4808-5.5294l-3.0524.6956a11.3527,11.3527,0,0,0,3.1281,6.9265"/><line class="cls-3" x1="24.2652" y1="161.9721" x2="150.3204" y2="161.9721"/><path class="cls-2" d="M288.009,58.4842a1.6317,1.6317,0,0,1,1.37-1.5087c.0772,0,.1387,0,.1387.0771,0,.0308-.0771.0767-.1689.1074-.4619.2466-.8008.5542-.8008,1.0469,0,.3237.1533.5083.5693.6162a.3219.3219,0,0,1,.3076.3233.4445.4445,0,0,1-.4619.4.9949.9949,0,0,1-.9556-1.0327Zm1.9092,0a1.6712,1.6712,0,0,1,1.3857-1.5086c.0772,0,.1387.0307.1387.0771,0,.0308-.0615.0767-.1543.1074-.4619.2466-.8154.57-.8154,1.0469,0,.3237.1689.5083.585.6162a.3338.3338,0,0,1,.3076.3233.4724.4724,0,0,1-.4776.4,1.0072,1.0072,0,0,1-.9706-1.0425Z"/><path class="cls-2" d="M292.552,57.6376c.37,0,1.001.0615,1.4629.0615.3389,0,.708-.0308,1.0312-.0308.2159,0,.3077.0459.3077.1079,0,.0767-.0918.1231-.2764.1538-.4317.0772-.4317.2618-.3233.5386.6465,1.6016,2.1709,4.8809,3.2178,7.19.0459.1075.1074.0767.1533,0,.4317-.8779.8008-1.6474,1.2168-2.6328a.43.43,0,0,0,.03-.185c-.2461-.585-1.2773-2.9253-1.6162-3.6641-.4463-.9546-.5693-1.1391-1.0469-1.2627-.2461-.0459-.3232-.1074-.3232-.1845,0-.0464.0918-.0923.292-.0923.4472,0,.7392.0615,1.2939.0615s.9082-.0615,1.2617-.0615c.1543,0,.2618.0307.2618.0923,0,.0771-.0918.123-.292.1694-.4161.0766-.5694.2617-.3389.831.2461.647.708,1.6939,1.2168,2.8638.0146.0308.0762.0464.123-.0308.3692-.7543.6924-1.4624,1.0157-2.2168.4775-1.124.4619-1.2778-.2-1.4321-.2775-.0615-.3234-.123-.3234-.1845,0-.0464.0929-.0772.2775-.0772.3847,0,.6308.0464,1.0311.0464.5391,0,.7852-.0615,1.14-.0615.1845,0,.2616.0151.2616.0766,0,.0772-.0772.1236-.293.1695-.5693.1235-.8623.4467-1.37,1.34-.4.77-1.1543,2.2939-1.416,2.771a.2665.2665,0,0,0,.0156.1851c.3848.9082,1.0615,2.3706,1.585,3.5253.0614.108.1084.0772.1386,0,.7393-1.601,2.6026-5.9121,2.9258-7.0512.0772-.3389.0615-.6006-.4463-.7544-.247-.0772-.3388-.1079-.3388-.1694s.0459-.0923.2617-.0923c.4,0,.6152.0615,1.0771.0615.4317,0,.8467-.0615,1.1241-.0615.2,0,.2773.0151.2773.0766s-.0771.1236-.3545.1695c-.6465.1694-.9238.4926-1.8935,2.6792-.97,2.1245-2.2168,5.0341-2.9248,6.728-.1084.2617-.1543.354-.2315.354-.1074,0-.1689-.1079-.2617-.354-.3233-.94-1.2-2.8482-1.6475-3.8335-.03-.062-.0771-.062-.1074-.0156-.585,1.1391-1.4014,2.9409-1.74,3.8335-.0918.2465-.1846.37-.2461.37-.0918,0-.1231-.0923-.2305-.37-.2-.5079-.6777-1.6319-.8779-2.0938-.8467-1.9551-1.878-4.2339-2.6016-5.7427-.5546-1.2006-.6777-1.478-1.2627-1.5551-.1846-.0152-.3232-.0767-.3232-.1387C292.2444,57.6991,292.3518,57.6376,292.552,57.6376Z"/><path class="cls-2" d="M309.9993,63.2264a.1809.1809,0,0,1-.1543.169c-.1231-.0152-2.125-.0459-2.4786-.0459h-.831c-.0313,0-.1084.0771-.1387.123a2.1183,2.1183,0,0,0-.123.8467,2.76,2.76,0,0,0,.708,1.8633,2.0771,2.0771,0,0,0,1.5391.6308,1.9626,1.9626,0,0,0,1.4628-.4926c.1231-.1231.1846-.0923.1846-.0152a.5844.5844,0,0,1-.1532.2461,2.7222,2.7222,0,0,1-2.1406.97,2.485,2.485,0,0,1-1.8321-.7851,3.01,3.01,0,0,1-.7392-2.063,3.21,3.21,0,0,1,.8935-2.248,2.8631,2.8631,0,0,1,1.9239-.77A1.777,1.777,0,0,1,309.9993,63.2264Zm-3.1407-.7851a1.344,1.344,0,0,0-.3232.6308.0658.0658,0,0,0,.0615.0616l2.001-.0152c.3389,0,.3691-.1694.3691-.3081a.9917.9917,0,0,0-.2148-.6465,1.08,1.08,0,0,0-.7705-.2924A1.5966,1.5966,0,0,0,306.8586,62.4413Z"/><path class="cls-2" d="M313.2809,62.2562c0-.0459.0615-.0766.1846-.1079a3.053,3.053,0,0,0,1.047-.4619.4471.4471,0,0,1,.23-.0923c.0469,0,.0772.0615.0772.1543,0,.169-.0157.6,0,.7544,0,.0615.0156.1382.0771.0923a3.2375,3.2375,0,0,1,1.9092-.8931,1.576,1.576,0,0,1,1.5391.97.1027.1027,0,0,0,.1084.0313,3.0871,3.0871,0,0,1,2.1093-1.0474,1.5873,1.5873,0,0,1,1.5547,1.14,5.0254,5.0254,0,0,1,.1846,1.4472c.0156.5079.0469,1.6783.0615,2.2168.0155.5083.1084.6158.4462.6778.2158.0459.2774.0923.2774.1382,0,.0771-.0771.1079-.2617.1079-.1689,0-.708-.0308-1.0625-.0308-.3691,0-.708.0464-.9384.0464-.2,0-.3086-.0308-.3086-.0928,0-.0766.1386-.123.2617-.1538.4472-.0923.5234-.2309.5234-.6929a19.5472,19.5472,0,0,0-.1074-3.0483,1.1926,1.1926,0,0,0-1.2255-1.1586c-.0225.0007-.045.0019-.0675.0038a1.9232,1.9232,0,0,0-1.3086.57.7519.7519,0,0,0-.1084.4927c.0313.4312.0772,2.7866.1084,3.2022.0459.4311.0918.539.4766.6313.17.0615.2471.0772.2471.1387s-.0928.0923-.2618.0923c-.2773,0-.7392-.0308-1.1855-.0308-.3389,0-.708.0308-.8779.0308s-.2461-.0308-.2461-.0923c0-.0464.0771-.1079.2773-.1538.3233-.062.4766-.1387.4766-.5083l.0156-2.4634c0-.8467-.0771-1.2007-.3848-1.54a1.1768,1.1768,0,0,0-.9394-.3388,1.742,1.742,0,0,0-1.1543.4468.5577.5577,0,0,0-.1846.3691,9.4737,9.4737,0,0,0-.0615,1.0474c0,1.1391.0615,2.2168.0918,2.4941a.5253.5253,0,0,0,.4932.5078c.1689.0308.23.0772.23.1231,0,.0771-.123.1079-.23.1079-.293,0-.8008-.0308-1.1709-.0308-.4766,0-.8.0308-1,.0308-.1387,0-.2774-.0464-.2774-.1079s.0928-.1075.3076-.1382c.4776-.1079.4776-.2774.5088-.4619.0615-.3238.0615-1.5708.0615-2.4634,0-.57.0147-.9546-.0156-1.2471a.5818.5818,0,0,0-.3545-.539c-.1074-.0616-.1386-.0923-.1386-.1695Z"/><path class="cls-2" d="M324.0442,62.1024a7.632,7.632,0,0,0,1.1084-.4.6265.6265,0,0,1,.2315-.1079c.0459,0,.0762.0464.0615.2158-.0312.3076-.0312,1.2471-.0312,2.2325,0,1.2929,0,2.4326.0312,2.6943.03.3076.1846.3848.4307.4463.1542.0307.2315.0615.2315.123,0,.0772-.1242.1079-.2471.1079-.1387,0-.7081-.0615-1.124-.0615-.5078,0-.7539.0308-.9239.0308-.1074,0-.2148-.0308-.2148-.0923s.077-.1079.292-.1387c.3389-.0923.4775-.2153.4931-.8467.0156-.4619.0459-3.2641.0459-3.4179,0-.2159-.0156-.3081-.4462-.5391-.0773-.0459-.1232-.0923-.1232-.123C323.86,62.18,323.9055,62.1332,324.0442,62.1024Zm1.54-2.51a.5864.5864,0,0,1-.57.585.5477.5477,0,0,1-.5079-.5693.5714.5714,0,0,1,.5391-.6006.5635.5635,0,0,1,.5387.5851Z"/><path class="cls-2" d="M327.9554,62.8412c0,.647.5849,1.0161.9707,1.247,1,.647,1.4,1.0318,1.4,1.8169a1.58,1.58,0,0,1-.8008,1.2935,2.5535,2.5535,0,0,1-1.2314.3384,3.1339,3.1339,0,0,1-1.2158-.2769c-.1231-.0464-.2315-.1538-.2315-.2466,0-.2153-.03-.6-.0459-.77-.0312-.2.0156-.2466.0459-.2466.0459,0,.0928,0,.2.2925a1.5024,1.5024,0,0,0,.6466.8316,1.1794,1.1794,0,0,0,.6933.1845,1.0554,1.0554,0,0,0,1.0009-1.0312c0-.585-.4-.9087-1.0166-1.2935-.6621-.4311-1.2783-1-1.2783-1.6782a1.4609,1.4609,0,0,1,.5859-1.2163,1.9882,1.9882,0,0,1,1.293-.4312,3.764,3.764,0,0,1,1.0469.1695.2523.2523,0,0,1,.0771.1386c.0157.1695.0772.4776.0918.7237,0,.1694-.03.2466-.0761.2466-.0625,0-.0928-.0772-.1387-.1851a1.17,1.17,0,0,0-.37-.6314,1.2647,1.2647,0,0,0-.7237-.2309.8974.8974,0,0,0-.9247.8692C327.953,62.784,327.9535,62.8127,327.9554,62.8412Z"/><path class="cls-2" d="M332.3284,62.8412c0,.647.5849,1.0161.9707,1.247,1,.647,1.4,1.0318,1.4,1.8169a1.58,1.58,0,0,1-.8008,1.2935,2.5539,2.5539,0,0,1-1.2315.3384,3.1335,3.1335,0,0,1-1.2158-.2769c-.123-.0464-.2314-.1538-.2314-.2466,0-.2153-.03-.6-.0459-.77-.0313-.2.0156-.2466.0459-.2466.0459,0,.0927,0,.2.2925a1.5025,1.5025,0,0,0,.6464.8316,1.18,1.18,0,0,0,.6934.1845,1.0555,1.0555,0,0,0,1.001-1.0312c0-.585-.4-.9087-1.0166-1.2935-.6621-.4311-1.2783-1-1.2783-1.6782a1.46,1.46,0,0,1,.5859-1.2163,1.9882,1.9882,0,0,1,1.293-.4312,3.7633,3.7633,0,0,1,1.0468.1695.2524.2524,0,0,1,.0772.1386c.0156.1695.0771.4776.0918.7237,0,.1694-.03.2466-.0762.2466-.0625,0-.0928-.0772-.1387-.1851a1.1685,1.1685,0,0,0-.37-.6314,1.2629,1.2629,0,0,0-.7236-.2309.8973.8973,0,0,0-.9247.869C332.3261,62.7838,332.3266,62.8126,332.3284,62.8412Z"/><path class="cls-2" d="M338.5809,66.7826a1.7314,1.7314,0,0,1-.1846-.8775v-3.187c0-.1694-.0156-.2768-.0771-.3081a2.5424,2.5424,0,0,0-.3692-.0923c-.1229-.0307-.2-.0766-.2-.1381,0-.0313.0157-.0772.1846-.1543a3.28,3.28,0,0,0,1.2627-1.0313c.1387-.1543.2461-.1235.2461-.0464,0,.1387-.03.57-.0147.7544,0,.0464.0147.1387.0762.1387.2774,0,1.5557-.0464,1.8789-.0464.03,0,.0918.1079.0918.2158,0,.2617-.0761.3848-.1533.3848-.5391,0-1.2939-.0156-1.709-.0156-.1846,0-.2158.0464-.2158.1386,0,.2618.0156,2.6792.0312,3.1563a1.5792,1.5792,0,0,0,.169.8315,1.1377,1.1377,0,0,0,.9541.4156,1.5072,1.5072,0,0,0,.8477-.231c.1074-.0771.1533-.0615.1533,0,0,.0923-.1387.2466-.3389.4a2.1119,2.1119,0,0,1-1.2471.4A1.4266,1.4266,0,0,1,338.5809,66.7826Z"/><path class="cls-2" d="M343.7249,62.7645a.772.772,0,0,0-.1543.5694,30.3376,30.3376,0,0,0,.0772,3.31.5435.5435,0,0,0,.4922.5234c.2314.0459.3389.0767.3389.1538,0,.0464-.0918.0923-.2305.0923-.4318,0-.832-.0615-1.2783-.0615-.4776,0-.708.0615-1.001.0615-.1691,0-.2461-.0307-.2461-.0923s.0615-.0922.2461-.1386c.4473-.1079.5546-.1538.57-.7388.0459-.6162.0615-2.0322.0615-4.48,0-2.3247.03-3.2641,0-3.8491-.0156-.4927-.123-.5386-.462-.7236-.0615-.0459-.1084-.0767-.1084-.1231s.0928-.0922.2617-.1386a6.3388,6.3388,0,0,0,1.1241-.37.3385.3385,0,0,1,.1543-.0615c.0458,0,.0928.1079.0772.3237-.0156.4156-.0772,5.1885-.0615,5.481,0,.0615.0459.0767.0615.0459a5.0558,5.0558,0,0,1,.9238-.6313,2.421,2.421,0,0,1,1.0772-.2618,1.64,1.64,0,0,1,1.3857.6929,2.9694,2.9694,0,0,1,.3389,1.6475c.0156,1.1547.0156,2.1093.0312,2.6943,0,.3081.0616.416.5235.4927.2.0464.2461.0771.2461.1386s-.1076.108-.2461.108c-.4,0-.6934-.0772-1.1084-.0772-.5235,0-.6475.0615-1.001.0615-.1846,0-.2461-.0459-.2461-.0923,0-.0615.0762-.0922.2305-.123.4159-.0923.4463-.2.5078-.647.0312-.354.0615-1.0312.0615-2.6323a2.4675,2.4675,0,0,0-.2305-1.1548,1.153,1.153,0,0,0-1.0625-.57A1.859,1.859,0,0,0,343.7249,62.7645Z"/><path class="cls-2" d="M353.5647,63.2264a.1809.1809,0,0,1-.1543.169c-.1231-.0152-2.125-.0459-2.4785-.0459h-.8309c-.0312,0-.1084.0771-.1388.123a2.1114,2.1114,0,0,0-.1239.8467,2.76,2.76,0,0,0,.709,1.8633,2.0771,2.0771,0,0,0,1.5391.6308,1.9628,1.9628,0,0,0,1.4629-.4926c.1229-.1231.1845-.0923.1845-.0152a.5856.5856,0,0,1-.1533.2461,2.7222,2.7222,0,0,1-2.1406.97,2.4848,2.4848,0,0,1-1.832-.7851,3.01,3.01,0,0,1-.7393-2.063,3.21,3.21,0,0,1,.8936-2.248,2.8629,2.8629,0,0,1,1.9238-.77A1.7768,1.7768,0,0,1,353.5647,63.2264Zm-3.1406-.7851a1.3442,1.3442,0,0,0-.3233.6308.0658.0658,0,0,0,.0615.0616l2.001-.0152c.3389,0,.3692-.1694.3692-.3081a.9917.9917,0,0,0-.2149-.6465,1.08,1.08,0,0,0-.7705-.2924A1.5962,1.5962,0,0,0,350.4241,62.4413Z"/><path class="cls-2" d="M354.4909,62.2562c0-.0459.0615-.0766.1845-.1079a3.053,3.053,0,0,0,1.047-.4619.4467.4467,0,0,1,.23-.0923c.047,0,.0771.0615.0771.1543,0,.169-.0156.6,0,.7544,0,.0615.0157.1382.0772.0923a3.238,3.238,0,0,1,1.9093-.8931,1.5761,1.5761,0,0,1,1.539.97.1028.1028,0,0,0,.1084.0313,3.0875,3.0875,0,0,1,2.1094-1.0474,1.5871,1.5871,0,0,1,1.5546,1.14,5.022,5.022,0,0,1,.1847,1.4472c.0155.5079.0468,1.6783.0614,2.2168.0156.5083.1084.6158.4463.6778.2158.0459.2773.0923.2773.1382,0,.0771-.077.1079-.2616.1079-.169,0-.7081-.0308-1.0625-.0308-.3692,0-.7081.0464-.9385.0464-.2,0-.3086-.0308-.3086-.0928,0-.0766.1387-.123.2616-.1538.4473-.0923.5235-.2309.5235-.6929a19.5594,19.5594,0,0,0-.1073-3.0483,1.1926,1.1926,0,0,0-1.2255-1.1586c-.0225.0007-.0451.0019-.0675.0038a1.9232,1.9232,0,0,0-1.3086.57.7519.7519,0,0,0-.1084.4927c.0311.4312.077,2.7866.1084,3.2022.0459.4311.0918.539.4766.6313.17.0615.247.0772.247.1387s-.0928.0923-.2617.0923c-.2773,0-.7392-.0308-1.1855-.0308-.3389,0-.709.0308-.878.0308s-.2461-.0308-.2461-.0923c0-.0464.0772-.1079.2774-.1538.3232-.062.4765-.1387.4765-.5083l.0157-2.4634c0-.8467-.0772-1.2007-.3848-1.54a1.1768,1.1768,0,0,0-.9394-.3388,1.742,1.742,0,0,0-1.1543.4468.5572.5572,0,0,0-.1846.3691A9.4737,9.4737,0,0,0,356,64.1507c0,1.1391.0615,2.2168.0918,2.4941a.5254.5254,0,0,0,.4931.5078c.169.0308.2305.0772.2305.1231,0,.0771-.1231.1079-.2305.1079-.2929,0-.8008-.0308-1.17-.0308-.4775,0-.8008.0308-1.001.0308-.1386,0-.2773-.0464-.2773-.1079s.0928-.1075.3076-.1382c.4775-.1079.4775-.2774.5088-.4619.0615-.3238.0615-1.5708.0615-2.4634,0-.57.0147-.9546-.0156-1.2471a.5818.5818,0,0,0-.3545-.539c-.1074-.0616-.1387-.0923-.1387-.1695Z"/><path class="cls-2" d="M300.0657,83.2591a3.4732,3.4732,0,0,1-2.3711,1.0625,4.7526,4.7526,0,0,1-1.77-.3847c-.1084-.0619-.216-.0308-.4473.0459-.0459.0156-.0918-.0615-.0762-.1079.03-.2154.0614-.5542.0917-1.4009.0314-.7544.1084-4.1567.1084-5.0654,0-1.1084-.0311-2.3863-.0469-2.6329-.03-.3076-.0918-.3691-.415-.5849-.124-.0767-.1855-.1231-.1855-.1694s.0771-.1075.3086-.1382a5.3572,5.3572,0,0,0,1.0928-.3081.5691.5691,0,0,1,.246-.0616c.0314,0,.0615.0616.047.2769-.047.9238-.0773,3.1255-.0773,5.1577,0,.0772.0617.0928.0773.0772a2.7475,2.7475,0,0,1,1.6474-.5235,2.5192,2.5192,0,0,1,1.8466.8316,2.765,2.765,0,0,1,.6934,1.8471A2.8862,2.8862,0,0,1,300.0657,83.2591Zm-.8936-3.541a2.2138,2.2138,0,0,0-1.57-.7544,1.5232,1.5232,0,0,0-.9238.2618.6385.6385,0,0,0-.1387.4155c-.03.2466-.0156,1.4472-.0156,2.0478a5.2,5.2,0,0,0,.2158,1.6475,1.0915,1.0915,0,0,0,.416.3848,2.1132,2.1132,0,0,0,1.0313.2924,1.5346,1.5346,0,0,0,1.0625-.5542,3.2933,3.2933,0,0,0,.539-1.9091A3.051,3.051,0,0,0,299.1721,79.7181Z"/><path class="cls-2" d="M306.5491,80.0262a.1809.1809,0,0,1-.1543.169c-.1231-.0152-2.125-.0459-2.4784-.0459h-.8311c-.0313,0-.1084.0771-.1387.123a2.1115,2.1115,0,0,0-.124.8467,2.76,2.76,0,0,0,.709,1.8633,2.0768,2.0768,0,0,0,1.539.6309,1.9625,1.9625,0,0,0,1.4629-.4927c.1231-.1231.1846-.0923.1846-.0152a.5856.5856,0,0,1-.1533.2461,2.722,2.722,0,0,1-2.1406.97,2.485,2.485,0,0,1-1.8321-.7851,3.01,3.01,0,0,1-.7392-2.063,3.21,3.21,0,0,1,.8935-2.248,2.8633,2.8633,0,0,1,1.9239-.77A1.7769,1.7769,0,0,1,306.5491,80.0262Zm-3.1407-.7851a1.345,1.345,0,0,0-.3232.6308.0658.0658,0,0,0,.0615.0616l2.001-.0152c.3389,0,.3691-.1694.3691-.3081a.9917.9917,0,0,0-.2148-.6465,1.08,1.08,0,0,0-.7705-.2924A1.5966,1.5966,0,0,0,303.4084,79.2411Z"/><path class="cls-2" d="M308.0745,83.5824a1.7314,1.7314,0,0,1-.1846-.8775v-3.187c0-.1694-.0156-.2768-.0772-.3081a2.5444,2.5444,0,0,0-.3691-.0923c-.1231-.0307-.2-.0766-.2-.1381,0-.0313.0156-.0772.1846-.1543a3.2827,3.2827,0,0,0,1.2627-1.0313c.1386-.1543.2461-.1235.2461-.0464,0,.1387-.03.57-.0147.7544,0,.0464.0147.1387.0762.1387.2773,0,1.5556-.0464,1.8789-.0464.03,0,.0918.1079.0918.2158,0,.2617-.0762.3848-.1533.3848-.5391,0-1.294-.0156-1.709-.0156-.1846,0-.2158.0464-.2158.1386,0,.2618.0156,2.6792.0312,3.1563a1.5772,1.5772,0,0,0,.169.8315,1.1376,1.1376,0,0,0,.9541.4157,1.5077,1.5077,0,0,0,.8476-.2311c.1074-.0771.1533-.0615.1533,0,0,.0923-.1386.2466-.3388.4a2.11,2.11,0,0,1-1.2471.4A1.4269,1.4269,0,0,1,308.0745,83.5824Z"/><path class="cls-2" d="M313.5409,78.61c.1386,0,.2617.0308.2617.1075,0,.0463-.1533.1079-.2617.1235-.3692.0615-.3536.2-.292.4463.23.7085.8925,2.4634,1.247,3.3257.0157.0459.0772.0615.0918.0151.2471-.5234.9239-2.0166,1.0782-2.417.0156-.0771.0615-.1846.03-.2617-.0761-.2-.1845-.4463-.2617-.6314a.8192.8192,0,0,0-.585-.5078c-.1386-.0307-.2148-.0615-.2148-.1235s.0762-.0923.23-.0923c.3232,0,.7236.0464,1.0468.0464.4463,0,.6319-.0308.9082-.0308.17,0,.2316.0308.2316.0767,0,.062-.1084.1235-.2316.1543-.3534.0767-.4462.1387-.2616.6157.17.4771.9854,2.71,1.2012,3.187.0459.0772.077.0152.077,0,.1846-.4.9239-2.1552,1.1084-2.6787a3.5014,3.5014,0,0,0,.2461-.7392c0-.1387-.0615-.2774-.4619-.3848-.2-.0615-.2461-.1079-.2461-.1543,0-.0615.0928-.0923.2-.0923.2617,0,.5391.0464.7852.0464.1543,0,.539-.0464.7695-.0464.1387,0,.2158.0308.2158.0923s-.0459.0928-.2773.1543c-.2764.0767-.4619.2925-.6621.708-.2764.5542-.7383,1.6167-1.2158,2.71-.2618.6308-.5391,1.3086-.7237,1.8012-.0927.2461-.1543.2925-.2.2925-.0615,0-.1074-.0615-.1689-.2773-.0772-.2154-.1856-.5235-.37-1.0469-.292-.8311-.6153-1.709-.9239-2.5249-.0156-.0464-.0459-.0772-.0771,0-.1387.2925-.7852,1.709-1,2.248-.2314.5078-.37.8619-.5391,1.3086-.0771.2154-.1543.2925-.2158.2925s-.1074-.1079-.1543-.2773c-.0762-.2154-.1689-.585-.4306-1.3238-.2774-.7544-1.1543-3.0332-1.3243-3.3256a.8773.8773,0,0,0-.6777-.6006c-.123-.0308-.2148-.0767-.2148-.1231,0-.0923.1074-.123.2773-.123.1992,0,.6611.0615,1.0928.0615C312.926,78.6405,313.2336,78.61,313.5409,78.61Z"/><path class="cls-2" d="M325.23,80.0262a.1808.1808,0,0,1-.1543.169c-.1229-.0152-2.125-.0459-2.4784-.0459h-.831c-.0314,0-.1084.0771-.1387.123a2.1129,2.1129,0,0,0-.1232.8467,2.7607,2.7607,0,0,0,.7081,1.8633,2.0775,2.0775,0,0,0,1.5391.6309,1.9627,1.9627,0,0,0,1.4628-.4927c.123-.1231.1846-.0923.1846-.0152a.587.587,0,0,1-.1532.2461,2.7224,2.7224,0,0,1-2.1407.97,2.4848,2.4848,0,0,1-1.832-.7851,3.01,3.01,0,0,1-.7393-2.063,3.21,3.21,0,0,1,.8936-2.248,2.8629,2.8629,0,0,1,1.9238-.77A1.7768,1.7768,0,0,1,325.23,80.0262Zm-3.1406-.7851a1.344,1.344,0,0,0-.3232.6308.0657.0657,0,0,0,.0615.0616l2.001-.0152c.3388,0,.3691-.1694.3691-.3081a.9917.9917,0,0,0-.2148-.6465,1.08,1.08,0,0,0-.7706-.2924A1.5962,1.5962,0,0,0,322.0891,79.2411Z"/><path class="cls-2" d="M330.7883,80.0262a.1808.1808,0,0,1-.1543.169c-.123-.0152-2.125-.0459-2.4785-.0459h-.8309c-.0314,0-.1084.0771-.1387.123a2.1129,2.1129,0,0,0-.1232.8467,2.7607,2.7607,0,0,0,.7081,1.8633,2.0775,2.0775,0,0,0,1.539.6309,1.9628,1.9628,0,0,0,1.4629-.4927c.123-.1231.1846-.0923.1846-.0152a.5848.5848,0,0,1-.1534.2461,2.7219,2.7219,0,0,1-2.1406.97,2.485,2.485,0,0,1-1.832-.7851,3.0105,3.0105,0,0,1-.7393-2.063,3.2108,3.2108,0,0,1,.8936-2.248,2.863,2.863,0,0,1,1.9238-.77A1.7769,1.7769,0,0,1,330.7883,80.0262Zm-3.1406-.7851a1.3431,1.3431,0,0,0-.3232.6308.0657.0657,0,0,0,.0615.0616l2.001-.0152c.3388,0,.3691-.1694.3691-.3081a.9917.9917,0,0,0-.2148-.6465,1.08,1.08,0,0,0-.7706-.2924A1.5962,1.5962,0,0,0,327.6477,79.2411Z"/><path class="cls-2" d="M336.5022,78.9794a3.2169,3.2169,0,0,1,.4922,2.0166c0,.8159.0156.9394.0156,1.7089.0156,1.0469.0615,1.1392.4775,1.2471.1387.0615.2305.0923.2305.1538,0,.0928-.123.1079-.2773.1079-.2,0-.6465-.0615-.9854-.0615-.5234,0-.7236.0615-.9541.0615-.1387,0-.2461-.0307-.2461-.0922s.0918-.1231.292-.1695c.37-.0923.4317-.2.4317-.6465V81.2118c0-1.2471-.1084-1.6167-.4932-1.9092a1.3671,1.3671,0,0,0-.8779-.2925,1.8408,1.8408,0,0,0-1.2.4927.7922.7922,0,0,0-.1846.4619c0,.1846.0146.97.0146,1.8936a12.5864,12.5864,0,0,0,.0928,1.6167c.0459.3383.2305.4155.4776.4926.1845.0459.2617.0767.2617.1539,0,.0922-.1543.0922-.3086.0922-.1231,0-.877-.0615-1.2315-.0615-.2,0-.5234.0308-.8154.0308-.17,0-.293-.0308-.293-.1079,0-.0616.1387-.1231.3233-.1538.3847-.0772.4463-.1846.4619-.4927.0312-1.1084.0312-2.5249.0312-3.772,0-.1538-.0312-.3232-.4-.5234-.0927-.0616-.123-.0923-.123-.1387,0-.0308.0762-.0771.2148-.123a5.7837,5.7837,0,0,0,1.2168-.5235c.0459-.0156.1231.0459.1075.1231a6.86,6.86,0,0,0-.03.8159c0,.0307.0459.0771.0762.0464a5.3228,5.3228,0,0,1,1.0937-.6929,2.0773,2.0773,0,0,1,.9082-.1851A1.5723,1.5723,0,0,1,336.5022,78.9794Z"/><path class="cls-2" d="M342.17,75.4535a9.4618,9.4618,0,0,0,1.955-.4,1.619,1.619,0,0,1,.3389-.1079c.03,0,.0615.0156.0615.1079,0,.2-.0156,1.57-.0459,2.5713-.0156,1.293.0147,4.5263.0459,5.1885.0459.9545.1231,1.0468.77,1.1547.17.0308.2461.0923.2461.1539s-.0918.1079-.292.1079c-.7852,0-1.2627-.0772-1.8018-.0772-.7539,0-1.0469.0772-1.5859.0772-.1387,0-.2618-.0308-.2618-.1235,0-.0615.0928-.0923.2471-.123.7236-.1231.8623-.2618.8926-1.17.0459-.4776.0771-1.3086.0771-3.9414,0-1.8628-.0156-2.3711-.0459-2.7559a.3762.3762,0,0,0-.2-.3389,2.346,2.346,0,0,0-.3857-.0923c-.0918-.0156-.2305-.0615-.2305-.1231C341.9543,75.515,342.0471,75.4686,342.17,75.4535Z"/><path class="cls-2" d="M352.2551,77.224a4.1552,4.1552,0,0,1-1.1084,2.6943c-.9541,1.17-1.5234,1.77-2.34,2.6636-.0459.0459-.0313.123.0615.1387a15.9507,15.9507,0,0,0,2.248.0766,9.0916,9.0916,0,0,0,1.2627-.0615.8753.8753,0,0,0,.6768-.4463c.1084-.185.17-.2158.2-.2158.0771,0,.0615.2-.0156.354-.1377.293-.4766,1.5093-.5078,1.6323-.03.1387-.2461.1538-.3389.1538-.4307,0-2.4785-.0615-3.1406-.0615-.2461,0-1.3858.0156-1.4932.0156-.3545,0-.5234-.0312-.5693-.0927s.0615-.1846.1533-.2925a21.9945,21.9945,0,0,0,2.1709-2.54,5.26,5.26,0,0,0,1.2314-3.31,1.72,1.72,0,0,0-1.5312-1.89l-.0388-.0037a1.9938,1.9938,0,0,0-1.5859.77c-.1074.123-.169.1845-.23.1845-.0928,0-.0615-.1538.0156-.3081a3.7809,3.7809,0,0,1,.9854-1.17,2.6808,2.6808,0,0,1,1.6006-.57,2.235,2.235,0,0,1,2.2937,2.1746Q352.2562,77.1721,352.2551,77.224Z"/><path class="cls-2" d="M356.83,83.598a1.9178,1.9178,0,0,1-.1855-.9546V79.4872c0-.1231-.0147-.2-.1075-.2617a1.0417,1.0417,0,0,0-.246-.0923c-.1232-.0308-.2-.0772-.2-.1538,0-.0464.0771-.1236.246-.2159a5.072,5.072,0,0,0,1.4473-1.0932c.2315-.231.3389-.1695.3389-.0923,0,.1079-.0313.7544-.0156.8774,0,.0464.0156.1543.0771.1543.293-.0156,1.3242-.0464,1.57-.0307.0313,0,.1231.1074.1231.2768,0,.3389-.1075.354-.169.354h-1.3554c-.1846,0-.2149.062-.2149.1387,0,.3389-.0156,2.8022,0,3.2026a1.0959,1.0959,0,0,0,.169.708.9515.9515,0,0,0,.7392.3389,1.2376,1.2376,0,0,0,.708-.185c.1543-.0923.2-.0459.2,0,0,.0927-.077.2158-.3232.416a2.1206,2.1206,0,0,1-1.3858.4619A1.5081,1.5081,0,0,1,356.83,83.598Z"/><path class="cls-2" d="M366.4534,81.3192a3.0806,3.0806,0,0,1-1.2012,2.4175,3.2554,3.2554,0,0,1-1.8467.6A2.9767,2.9767,0,0,1,360.313,81.48q-.0017-.0419-.0022-.0837a2.83,2.83,0,0,1,1.0928-2.2789,3.138,3.138,0,0,1,1.9707-.708,2.9214,2.9214,0,0,1,3.0749,2.7593Q366.4533,81.2441,366.4534,81.3192Zm-4.5108-.3384a4.6082,4.6082,0,0,0,.4776,2.2632,1.4893,1.4893,0,0,0,1.17.8467.9114.9114,0,0,0,.708-.354,3.642,3.642,0,0,0,.5079-2.0943c0-1.7548-.4922-2.9711-1.57-2.9711C362.5735,78.6713,361.9426,79.641,361.9426,80.9808Z"/><path class="cls-2" d="M371.06,75.4535a9.4519,9.4519,0,0,0,1.9552-.4,1.6171,1.6171,0,0,1,.3389-.1079c.03,0,.0614.0156.0614.1079,0,.2-.0156,1.57-.0459,2.5713-.0155,1.293.0146,4.5263.0459,5.1885.0459.9545.123,1.0468.7695,1.1547.17.0308.2461.0923.2461.1539s-.0918.1079-.292.1079c-.785,0-1.2626-.0772-1.8017-.0772-.7539,0-1.0469.0772-1.5859.0772-.1377,0-.2617-.0308-.2617-.1235,0-.0615.0928-.0923.2471-.123.7236-.1231.8613-.2618.8924-1.17.0459-.4776.0773-1.3086.0773-3.9414,0-1.8628-.0156-2.3711-.0459-2.7559a.3766.3766,0,0,0-.2-.3389,2.3411,2.3411,0,0,0-.3857-.0923c-.0918-.0156-.2305-.0615-.2305-.1231C370.844,75.515,370.9368,75.4686,371.06,75.4535Z"/><path class="cls-2" d="M381.0071,74.9608a11.3781,11.3781,0,0,0-.586,1.2778.441.441,0,0,1-.2763.2154c-.6621.0927-1.9864.185-2.71.2466a.2851.2851,0,0,0-.1689.0771,2.57,2.57,0,0,0-.2.5542c-.0157.0923.0146.1538.1533.2a15.7633,15.7633,0,0,1,2.71,1.0928A3.0468,3.0468,0,0,1,381.7,81.2423a3.1823,3.1823,0,0,1-1.3243,2.6016,5.9971,5.9971,0,0,1-3.1562,1.0781,1.6483,1.6483,0,0,1-.3076-.0156c-.0928-.0151-.1387-.0464-.1387-.0923,0-.0771.0615-.1079.2617-.123,1.37-.2,3.2637-1.001,3.2637-2.8023a2.2394,2.2394,0,0,0-1.57-2.1093,17.459,17.459,0,0,0-2.124-.6622c-.0772-.0307-.0928-.1381-.0928-.2309a12.6661,12.6661,0,0,1,.9853-3.3565.4975.4975,0,0,1,.2461-.1538c.4317-.0766,1.2168-.1694,1.9707-.2768a3.3352,3.3352,0,0,0,1.1553-.2466C381.0071,74.7756,381.0374,74.8993,381.0071,74.9608Z"/><path class="cls-2" d="M297.094,96.1956a.5375.5375,0,0,0-.1543.4c-.0156,1.4931.0312,3.0791.0771,3.6025.0459.2926.1231.4927.4922.57.17.0308.2774.0767.2774.1382,0,.0464-.0918.1236-.2774.1236-.4463,0-1.0615-.0772-1.3232-.0772-.6621,0-.8623.0615-1.2324.0615-.169,0-.2764-.0459-.2764-.1079s.0615-.1074.2461-.1538c.4307-.0923.4922-.2.5078-.6929.0312-.5385.0459-2.0014.0459-4.1108,0-2.3091.0156-3.418-.0147-3.9258-.0312-.4927-.0771-.5234-.4619-.7085-.0615-.0459-.1084-.0923-.1084-.1382,0-.0615.0928-.1079.2618-.1543a11.02,11.02,0,0,0,1.5859-.4926.769.769,0,0,1,.2-.0616c.0459,0,.0928.0464.0928.2925,0,.231-.0928,4.9424-.0772,5.1734,0,.0307.0459.0766.0772.0459a4.0306,4.0306,0,0,1,.831-.5386,2.1693,2.1693,0,0,1,.94-.231,1.7138,1.7138,0,0,1,1.4472.6621,2.6352,2.6352,0,0,1,.3848,1.6163c.0156,1.0317.0156,1.9707.03,2.7563,0,.2618.0468.4463.4619.5234.2.0459.2617.0767.2617.1538s-.1689.1081-.2617.1081c-.4619,0-.6465-.0773-1.2471-.0773-.77,0-.8.0615-1.2773.0615-.1846,0-.2461-.0615-.2461-.1079,0-.0615.0762-.0923.23-.123.4463-.1231.462-.2617.5079-.77.0312-.3545.0615-1.1547.0615-2.4173a3.1151,3.1151,0,0,0-.2-1.2471.9956.9956,0,0,0-.9385-.5078A1.4143,1.4143,0,0,0,297.094,96.1956Z"/><path class="cls-2" d="M308.1965,98.12a3.0829,3.0829,0,0,1-1.2,2.4175,3.2617,3.2617,0,0,1-1.8476.6,2.9768,2.9768,0,0,1-3.0926-2.8562q-.0016-.0419-.0022-.0838a2.83,2.83,0,0,1,1.0928-2.2788,3.138,3.138,0,0,1,1.9707-.708,2.9213,2.9213,0,0,1,3.0747,2.7593Q308.1964,98.0445,308.1965,98.12Zm-4.5107-.3384a4.6093,4.6093,0,0,0,.4775,2.2632,1.49,1.49,0,0,0,1.17.8467.9114.9114,0,0,0,.7081-.354,3.6422,3.6422,0,0,0,.5079-2.0943c0-1.7548-.4922-2.9712-1.57-2.9712-.6626,0-1.2933.97-1.2933,2.31Z"/><path class="cls-2" d="M309.8459,100.537a1.6664,1.6664,0,0,1-.3075-1.0781c-.0156-.5079-.0312-2.9561-.0459-3.233-.0156-.3081-.1084-.3847-.3545-.5234-.123-.0771-.1689-.1387-.1689-.1851s.0918-.0766.23-.0766a8.2,8.2,0,0,0,1.7861-.2c.0614-.0156.0918.0923.0918.17-.0459.8775-.0615,2.7866-.0459,3.71a1.6231,1.6231,0,0,0,.2.9388,1.0185,1.0185,0,0,0,.8164.3389,1.1973,1.1973,0,0,0,.8467-.3081.7531.7531,0,0,0,.2-.585c.03-.4926.0459-1.2622.0459-1.6474,0-.231,0-1.0933-.0313-1.4932-.0459-.5234-.1074-.6006-.5537-.6776-.1846-.0308-.2773-.0924-.2773-.1382,0-.0773.1543-.108.2616-.108h.8009c.5546,0,1.0468-.1387,1.247-.1387.0459,0,.0772.0772.0772.1694-.0615.5542-.0772,2.5866-.0772,3.9107a6.0388,6.0388,0,0,0,.0313.9238.17.17,0,0,0,.1845.1538c.1534-.0307.3848-.0923.5235-.1079a.2148.2148,0,0,1,.2.2c0,.0772-.1846.1079-.3389.1387a9.393,9.393,0,0,0-1.8789.4463c-.123.0464-.1846.0307-.2148,0a.554.554,0,0,1-.0313-.2461c0-.1538.0156-.4312.0156-.585,0-.0771-.0156-.1235-.0459-.0923a3.9586,3.9586,0,0,1-.955.6617,2.4709,2.4709,0,0,1-1.0157.2158A1.4678,1.4678,0,0,1,309.8459,100.537Z"/><path class="cls-2" d="M318.176,96.472a.6426.6426,0,0,0-.1689.3545,10.2425,10.2425,0,0,0-.03,1.1856c0,1.0928.03,1.74.0615,2.0937.0615.4619.169.5694.7383.6465.2158.0308.2773.0772.2773.1538s-.123.1079-.3232.1079c-.4307,0-.708-.0615-1.4473-.0615-.9238,0-.9082.0772-1.2773.0772-.2,0-.293-.0464-.293-.108s.0616-.1386.2305-.1694c.3545-.0771.4775-.2.5234-.6313.0157-.2618.0313-1.1392.0469-2.1553,0-.97.0156-1.37,0-1.5552,0-.0923-.0469-.123-.4-.4311-.0928-.0767-.123-.1075-.123-.1538s.1074-.108.169-.1387a7.9369,7.9369,0,0,0,1.4784-.5078.5177.5177,0,0,1,.2619-.0923c.03,0,.077.0923.077.1689,0,.2774-.0313.7085-.0313,1.0474,0,.0767.0616.0923.0772.0459.4307-.57.9853-1.124,1.5859-1.124a.8662.8662,0,0,1,.5079.1543c.1543.1074.2159.1845.2159.3076a1.5777,1.5777,0,0,1-.4619.7392c-.1543.1538-.2316.1846-.3086.1846a.436.436,0,0,1-.2619-.1079,1.2487,1.2487,0,0,0-.6-.2461A.7229.7229,0,0,0,318.176,96.472Z"/><path class="cls-2" d="M322.0266,96.2875c0,.6006.5234.893,1.1543,1.2934.97.6465,1.34,1.0469,1.34,1.8321a1.7142,1.7142,0,0,1-.708,1.2929,3.01,3.01,0,0,1-1.5088.4312,4.266,4.266,0,0,1-1.34-.2617c-.1074-.0459-.2616-.1846-.2616-.2925-.0156-.2154-.0615-.6929-.0773-.8467-.0156-.2.0157-.3081.0773-.3081.0459,0,.1073.0464.2.3237a1.9327,1.9327,0,0,0,.6465.9234,1.141,1.141,0,0,0,.7695.2.9216.9216,0,0,0,.9238-.8619c0-.4467-.3232-.77-1.1084-1.2627a2.2851,2.2851,0,0,1-1.247-1.8012,1.5838,1.5838,0,0,1,.7548-1.37,2.3107,2.3107,0,0,1,1.3086-.37,3.5475,3.5475,0,0,1,1.2.2.2027.2027,0,0,1,.0928.1538c0,.1538.0615.4312.0771.8316.0156.1694-.0312.2461-.0928.2461s-.0918-.0767-.1387-.2a1.3965,1.3965,0,0,0-.3848-.708,1.2852,1.2852,0,0,0-.8006-.2774A.8864.8864,0,0,0,322.0266,96.2875Z"/><path class="cls-2" d="M332.4209,96.8265a.1808.1808,0,0,1-.1543.169c-.123-.0152-2.125-.0459-2.4785-.0459h-.8309c-.0314,0-.1084.0771-.1387.123a2.1164,2.1164,0,0,0-.1232.8467,2.76,2.76,0,0,0,.7081,1.8633,2.077,2.077,0,0,0,1.539.6308,1.9627,1.9627,0,0,0,1.4629-.4926c.1231-.1231.1846-.0923.1846-.0152a.5836.5836,0,0,1-.1533.2461,2.722,2.722,0,0,1-2.1406.97,2.4848,2.4848,0,0,1-1.832-.7851,3.01,3.01,0,0,1-.7393-2.063,3.21,3.21,0,0,1,.8936-2.2481,2.8633,2.8633,0,0,1,1.9238-.77A1.7768,1.7768,0,0,1,332.4209,96.8265Zm-3.14-.7851a1.344,1.344,0,0,0-.3232.6308.0657.0657,0,0,0,.0615.0616l2.001-.0152c.3388,0,.3691-.1694.3691-.3081a.9917.9917,0,0,0-.2148-.6465,1.08,1.08,0,0,0-.7705-.2925A1.5961,1.5961,0,0,0,329.2809,96.0414Z"/><path class="cls-2" d="M335.101,95.3944c.1542,0,.2305.0308.2305.0923s-.0918.1079-.215.1387c-.4.1079-.4316.2-.3085.6621.1387.477,1.0625,2.8637,1.2626,3.2334.0157.0615.0459.0766.0617.0307.2-.37,1.0625-2.4175,1.247-2.9717a2.1453,2.1453,0,0,0,.17-.6313c0-.0923-.0928-.2617-.5088-.354q-.1847-.0462-.1846-.1387c0-.0459.0615-.0615.1846-.0615.1855,0,.416.0464.7549.0464.2461,0,.6464-.0464.7851-.0464.1074,0,.2158.0308.2158.0923s-.0927.0928-.2314.1387c-.3076.0771-.4776.2618-.6621.6928-.3535.77-1.1387,2.4943-1.293,2.8638a16.5531,16.5531,0,0,0-.7392,1.7241c-.0772.2311-.1387.2618-.1846.2618s-.1074-.0151-.169-.231c-.0771-.231-.1855-.6-.4-1.185-.2773-.7086-1.1855-3.11-1.4472-3.603a.9121.9121,0,0,0-.6934-.5386c-.1387-.0307-.2148-.0771-.2148-.1235,0-.0615.0761-.1074.2617-.1074.4306,0,.6924.0615,1.1543.0615C334.593,95.4408,334.8547,95.3944,335.101,95.3944Z"/><path class="cls-2" d="M343.6936,96.8265a.1809.1809,0,0,1-.1543.169c-.1229-.0152-2.125-.0459-2.4784-.0459H340.23c-.0312,0-.1084.0771-.1386.123a2.1114,2.1114,0,0,0-.1242.8467,2.7606,2.7606,0,0,0,.7091,1.8633,2.077,2.077,0,0,0,1.539.6308,1.9627,1.9627,0,0,0,1.4629-.4926c.123-.1231.1845-.0923.1845-.0152a.5844.5844,0,0,1-.1532.2461,2.7222,2.7222,0,0,1-2.1406.97,2.4848,2.4848,0,0,1-1.832-.7851,3.01,3.01,0,0,1-.7393-2.063,3.21,3.21,0,0,1,.8935-2.248,2.8637,2.8637,0,0,1,1.9238-.77A1.7769,1.7769,0,0,1,343.6936,96.8265Zm-3.1406-.7851a1.3442,1.3442,0,0,0-.3233.6308.0658.0658,0,0,0,.0617.0616l2.0008-.0152c.3389,0,.3692-.1694.3692-.3081a.9912.9912,0,0,0-.2149-.6465,1.08,1.08,0,0,0-.7705-.2925A1.5963,1.5963,0,0,0,340.553,96.0414Z"/><path class="cls-2" d="M346.4192,96.38a.8879.8879,0,0,0-.2616.539,8.996,8.996,0,0,0-.0157.939c0,1.14.0313,1.94.0616,2.2632.0615.4775.247.5849.832.6469.2148.0308.292.0616.292.1382s-.1387.1079-.3692.1079c-.2929,0-.8007-.0615-1.4472-.0615a8.343,8.343,0,0,0-.94.0923c-.1845,0-.2617-.0308-.2617-.0923,0-.0464.1084-.123.2315-.1538a.6363.6363,0,0,0,.5537-.6313c.0312-.2618.0468-1.1392.0468-2.1553v-1.709c0-.1079-.1084-.1543-.4-.4-.1084-.0771-.123-.1235-.123-.1543s.0918-.0923.2305-.1382a4.6652,4.6652,0,0,0,.9853-.37.488.488,0,0,1,.2315-.0772c.03,0,.0615.0616.0615.2159,0,.1694-.0156.7544-.0156,1,0,.0463.03.0615.0771.0156a2.5124,2.5124,0,0,1,1.6621-1.1084.8956.8956,0,0,1,.5391.2.27.27,0,0,1,.1084.2158,1.0543,1.0543,0,0,1-.3389.5234c-.1387.1231-.2.1387-.2471.1387a.6932.6932,0,0,1-.2763-.1079,1.081,1.081,0,0,0-.5391-.1846A1.0527,1.0527,0,0,0,346.4192,96.38Z"/><path class="cls-2" d="M351.1633,95.3944c.1533,0,.2617.0464.2617.1079s-.1084.1079-.2.1231c-.3388.1079-.37.185-.2314.5849.2.5391,1.0469,2.6177,1.3555,3.2642.03.0615.0761.0464.0918,0,.2-.5235,1.0625-2.7407,1.1855-3.0947a1.1526,1.1526,0,0,0,.0772-.4463c0-.1079-.0772-.231-.3389-.3081-.2305-.0459-.2774-.0923-.2774-.1387,0-.0615.0772-.0923.2159-.0923.1845,0,.5078.0464.7392.0464.2774,0,.4776-.0464.708-.0464.0928,0,.1846.0156.1846.0615s-.0615.1079-.2148.1543c-.3086.0923-.462.2-.709.77-.1846.3847-1.1387,2.7558-1.37,3.3408-.1846.5083-.3233.8623-.6465,1.6938-.3692.8931-.9541,2.4942-1.17,3.0176a2.0963,2.0963,0,0,1-.293.57.5787.5787,0,0,1-.5078.2617.5119.5119,0,0,1-.5078-.5083.4543.4543,0,0,1,.4306-.4462c.1084,0,.2.0307.3086.0307a.3713.3713,0,0,0,.3994-.2617c.1543-.3232.6006-1.5859,1.1241-2.9253a.6622.6622,0,0,0-.0147-.4927c-.0928-.2466-1.2168-3.0947-1.9092-4.6035a.826.826,0,0,0-.5547-.4155c-.1845-.0464-.2773-.1079-.2773-.1543,0-.0767.1387-.1074.2471-.1074.2763,0,.708.0615,1.0771.0615C350.5627,95.4408,350.9631,95.3944,351.1633,95.3944Z"/><path class="cls-2" d="M359,95.41c.1387,0,.2619.0308.2619.1074,0,.0464-.1535.108-.2619.1236-.3691.0615-.3534.2-.2919.4463.23.7085.8926,2.4634,1.2471,3.3257.0155.0459.0772.0615.0917.0151.2471-.5234.9238-2.0166,1.0781-2.417.0157-.0771.0617-.1846.03-.2617-.0762-.2-.1846-.4463-.2616-.6314a.82.82,0,0,0-.585-.5078c-.1386-.0307-.2149-.0615-.2149-.1235s.0763-.0923.2305-.0923c.3233,0,.7237.0464,1.0469.0464.4463,0,.6319-.0308.9082-.0308.17,0,.2315.0308.2315.0767,0,.062-.1084.1235-.2315.1543-.3535.0766-.4463.1382-.2617.6157.17.4771.9854,2.71,1.2012,3.187.0459.0772.0771.0152.0771,0,.1846-.4.9239-2.1553,1.1084-2.6792a3.5018,3.5018,0,0,0,.2461-.7388c0-.1386-.0615-.2773-.462-.3847-.2-.0615-.246-.1079-.246-.1543,0-.0615.0928-.0923.2-.0923.2617,0,.5391.0464.7852.0464.1542,0,.539-.0464.7695-.0464.1387,0,.2157.0308.2157.0923s-.0459.0928-.2773.1543c-.2764.0766-.4619.2925-.6621.708-.2764.5542-.7383,1.6167-1.2159,2.71-.2617.6308-.539,1.3085-.7236,1.8012-.0928.2461-.1543.2925-.2.2925-.0615,0-.1074-.0615-.1689-.2773-.0772-.2154-.1856-.5235-.37-1.0469-.292-.8311-.6153-1.709-.9239-2.5249-.0156-.0459-.0459-.0772-.0771,0-.1387.2925-.7852,1.709-1,2.248-.2315.5078-.37.8618-.5391,1.3086-.0771.2154-.1543.2925-.2158.2925s-.1074-.1079-.1543-.2773c-.0762-.2154-.1689-.585-.4307-1.3238-.2773-.7544-1.1543-3.0332-1.3242-3.3257a.8769.8769,0,0,0-.6777-.6c-.1231-.0308-.2149-.0767-.2149-.1231,0-.0923.1075-.1231.2774-.1231.1992,0,.6611.0616,1.0928.0616C358.385,95.4408,358.6926,95.41,359,95.41Z"/><path class="cls-2" d="M370.6888,96.8265a.181.181,0,0,1-.1543.169c-.123-.0152-2.125-.0459-2.4785-.0459h-.8311c-.0312,0-.1084.0771-.1386.123a2.1146,2.1146,0,0,0-.1231.8467,2.7594,2.7594,0,0,0,.708,1.8633,2.0771,2.0771,0,0,0,1.5391.6308,1.9628,1.9628,0,0,0,1.4629-.4926c.1229-.1231.1846-.0923.1846-.0152a.585.585,0,0,1-.1535.2461,2.7218,2.7218,0,0,1-2.14.97,2.485,2.485,0,0,1-1.8321-.7851,3.01,3.01,0,0,1-.7392-2.063,3.21,3.21,0,0,1,.8935-2.2481,2.8637,2.8637,0,0,1,1.9238-.77A1.777,1.777,0,0,1,370.6888,96.8265Zm-3.1406-.7851a1.3424,1.3424,0,0,0-.3233.6308.0656.0656,0,0,0,.0616.0616l2.0009-.0152c.3389,0,.3692-.1694.3692-.3081a.9918.9918,0,0,0-.215-.6465,1.08,1.08,0,0,0-.77-.2925,1.596,1.596,0,0,0-1.1236.57Z"/><path class="cls-2" d="M376.2484,96.8265a.181.181,0,0,1-.1543.169c-.1232-.0152-2.125-.0459-2.4785-.0459h-.8311c-.0312,0-.1084.0771-.1387.123a2.1115,2.1115,0,0,0-.124.8467,2.76,2.76,0,0,0,.709,1.8633,2.0771,2.0771,0,0,0,1.5391.6308,1.9628,1.9628,0,0,0,1.4629-.4926c.123-.1231.1845-.0923.1845-.0152a.5846.5846,0,0,1-.1533.2461,2.7219,2.7219,0,0,1-2.1406.97,2.485,2.485,0,0,1-1.832-.7851,3.01,3.01,0,0,1-.7393-2.063,3.2114,3.2114,0,0,1,.8935-2.2481,2.864,2.864,0,0,1,1.9239-.77A1.7769,1.7769,0,0,1,376.2484,96.8265Zm-3.1406-.7851a1.3424,1.3424,0,0,0-.3233.6308.0657.0657,0,0,0,.0614.0616l2.0011-.0152c.3389,0,.3692-.1694.3692-.3081a.9923.9923,0,0,0-.2149-.6465,1.0807,1.0807,0,0,0-.77-.2925,1.596,1.596,0,0,0-1.1236.57Z"/><path class="cls-2" d="M381.2532,95.4408c.3379,0,.9541-.0772,1.3545-.0772.1689,0,.23.0464.23.0923,0,.0308-.0459.0928-.23.1236a2.7423,2.7423,0,0,0-1.4161.6772c-.4.3081-1.1552.9546-1.4472,1.2315-.0313.0312,0,.0771.0146.1079.4619.539,1.57,1.7246,2.294,2.4633a1.9876,1.9876,0,0,0,1.1093.7237c.1377.0307.2305.0771.2305.1387,0,.0923-.1387.108-.2617.108-.5234,0-1.1084-.0773-1.709-.0773-.2617,0-.4619.0157-.6924.0157-.17,0-.2773,0-.2773-.0927,0-.0767.0771-.1075.3535-.1695.2617-.0615.293-.2.1543-.4155-.3232-.37-1.416-1.5239-1.8779-1.9858-.1231-.1236-.2315-.231-.293-.231-.0459,0-.0615.0923-.0615.1538-.0157.2773-.03.7852-.0157,1.6318,0,.7393.1231.7852.6006.893.1543.0464.2315.0772.2315.1387,0,.0772-.1231.108-.293.108-.4307,0-.7539-.0465-1.1543-.0465-.4931,0-.8164.0465-1.001.0465-.1543,0-.2461-.0465-.2461-.108,0-.0464.0918-.0923.2-.1079.4766-.1231.585-.2617.6153-.77.0615-1.1241.0771-2.4174.0771-3.6182.0156-1.2012.0615-3.1719.0615-4.3725a2.6454,2.6454,0,0,0-.0615-.7086c-.03-.123-.1689-.2153-.3545-.3076-.0761-.0464-.1377-.0771-.1377-.1079,0-.0615.0918-.0923.2461-.1387a9.4526,9.4526,0,0,0,1.0928-.3691.7205.7205,0,0,1,.2461-.0772c.0156,0,.0469.0464.0469.1231-.0313.5083-.0772,1.8628-.0772,3.0024,0,.4771-.0771,2.5093-.0771,4.2031,0,.1695.0312.2461.0771.2461a.77.77,0,0,0,.3076-.1694,13.1481,13.1481,0,0,0,1.6631-1.54.5589.5589,0,0,0,.169-.2769c0-.0923-.1075-.1851-.4463-.2466-.1387-.0151-.2617-.0615-.2617-.123s.1074-.1079.2461-.1079C380.73,95.4256,381.0833,95.4408,381.2532,95.4408Z"/><path class="cls-2" d="M383.7484,100.46a.7.7,0,0,1,.6932-.6928.6484.6484,0,0,1,.6153.6772.6618.6618,0,0,1-.63.6922c-.0107.0005-.0213.0008-.032.0007A.6779.6779,0,0,1,383.7484,100.46Z"/><path class="cls-2" d="M386.8493,91.6888a1.6714,1.6714,0,0,1-1.3858,1.4937c-.0918,0-.1377-.0308-.1377-.0772,0-.0307.0616-.0771.1534-.123a1.2326,1.2326,0,0,0,.8164-1.0318c0-.3076-.17-.5078-.585-.6-.1543-.0464-.3086-.1387-.3086-.3238a.4583.4583,0,0,1,.4619-.4311,1.0279,1.0279,0,0,1,.9867,1.0674Zm1.9248,0a1.6714,1.6714,0,0,1-1.3858,1.4937c-.0771,0-.1386-.0308-.1386-.0772,0-.0307.0927-.0771.1543-.123a1.2052,1.2052,0,0,0,.8154-1.0161c0-.3233-.169-.5235-.585-.6157a.361.361,0,0,1-.292-.3238.4521.4521,0,0,1,.4721-.4313l.0055,0a1.0239,1.0239,0,0,1,.9544,1.0888Z"/></svg>