<svg id="Layer_1" data-name="Layer 1" xmlns="http://www.w3.org/2000/svg" viewBox="0 0 399 200"><defs><style>.cls-1,.cls-2,.cls-3,.cls-5,.cls-7{fill:none;stroke-linecap:round;}.cls-1,.cls-3,.cls-5,.cls-7{stroke:#222f3c;}.cls-1,.cls-2,.cls-3{stroke-linejoin:round;}.cls-1,.cls-5{stroke-width:0.5px;}.cls-2{stroke:#231f20;}.cls-2,.cls-3,.cls-7{stroke-width:0.4px;}.cls-4{fill:#333838;}.cls-5,.cls-7{stroke-miterlimit:10;}.cls-6{fill:#222f3c;}</style></defs><line class="cls-1" x1="41.542" y1="106.8325" x2="41.542" y2="109.9086"/><line class="cls-1" x1="54.1818" y1="115.0343" x2="54.1818" y2="120.1126"/><line class="cls-1" x1="31.7173" y1="115.0343" x2="31.7173" y2="120.1126"/><rect class="cls-1" x="38.5273" y="113.6062" width="5.9732" height="6.6051" rx="1"/><line class="cls-1" x1="68.9139" y1="115.0343" x2="68.9139" y2="120.1126"/><polyline class="cls-1" points="63.748 112.895 52.265 112.895 41.604 100.827 60.57 100.827 62.295 102.867"/><line class="cls-1" x1="41.5059" y1="100.8442" x2="30.8451" y2="112.9115"/><line class="cls-1" x1="26.5466" y1="99.6034" x2="26.5466" y2="102.6795"/><line class="cls-1" x1="16.722" y1="107.6696" x2="16.722" y2="112.7479"/><rect class="cls-1" x="23.5319" y="106.2281" width="5.9732" height="6.6051" rx="1"/><polyline class="cls-1" points="37.27 105.666 26.609 93.598 45.575 93.598 52.036 100.781"/><line class="cls-1" x1="26.5106" y1="93.6151" x2="15.8497" y2="105.6823"/><line class="cls-1" x1="105.1976" y1="106.8325" x2="105.1976" y2="109.9086"/><line class="cls-1" x1="92.5578" y1="115.0343" x2="92.5578" y2="120.1126"/><line class="cls-1" x1="115.0222" y1="115.0343" x2="115.0222" y2="120.1126"/><rect class="cls-1" x="102.2391" y="113.4573" width="5.9732" height="6.6051" rx="1"/><line class="cls-1" x1="77.8257" y1="115.0343" x2="77.8257" y2="120.1126"/><polyline class="cls-1" points="81.364 112.895 94.474 112.895 105.135 100.827 86.169 100.827 81.402 106.442"/><line class="cls-1" x1="105.2336" y1="100.8442" x2="115.8945" y2="112.9115"/><line class="cls-1" x1="120.1929" y1="99.6034" x2="120.1929" y2="102.6795"/><line class="cls-1" x1="130.0176" y1="107.8052" x2="130.0176" y2="112.8835"/><path class="cls-1" d="M123.2077,109.8043v-2.1017a1.4,1.4,0,0,0-1.4-1.4h-3.1731a1.4,1.4,0,0,0-1.4,1.4h0v3.8051a1.4,1.4,0,0,0,1.4,1.4h1.7731"/><polyline class="cls-1" points="109.47 105.666 120.131 93.598 101.164 93.598 94.703 100.781"/><line class="cls-1" x1="120.229" y1="93.6151" x2="130.8898" y2="105.6823"/><polyline class="cls-1" points="117.995 93.548 123.114 87.766 104.148 87.766 100.632 91.738"/><line class="cls-1" x1="123.2123" y1="87.7826" x2="133.8731" y2="99.8498"/><line class="cls-1" x1="132.9674" y1="101.9727" x2="132.9674" y2="107.1571"/><line class="cls-1" x1="123.1506" y1="93.7988" x2="123.1506" y2="96.8749"/><polyline class="cls-1" points="46.915 90.338 59.753 90.338 64.493 95.269"/><polyline class="cls-1" points="31.177 88.859 25.792 83.109 44.758 83.109 51.219 90.292"/><line class="cls-1" x1="25.6935" y1="83.1256" x2="15.0326" y2="95.1928"/><line class="cls-1" x1="147.1184" y1="120.239" x2="25.7127" y2="120.239"/><line class="cls-1" x1="24.8448" y1="112.8351" x2="2.1198" y2="112.8351"/><path class="cls-1" d="M72.0551,102.6525a4.3917,4.3917,0,0,0-8.74,0,4.1423,4.1423,0,0,0-.0044,8.083c-.0019.05-.008.1-.008.1509a4.3869,4.3869,0,0,0,8.7651,0c0-.0509-.0061-.1-.008-.1509"/><line class="cls-1" x1="67.7363" y1="107.8824" x2="71.1677" y2="104.7851"/><line class="cls-1" x1="67.4952" y1="109.698" x2="64.5523" y2="105.8309"/><line class="cls-1" x1="67.5924" y1="105.5147" x2="67.5924" y2="120.1805"/><path class="cls-1" d="M72.1312,110.7164a3.33,3.33,0,0,0,2.3467,2.1613c-.0015.0392-.0062.0775-.0062.117a3.4279,3.4279,0,0,0,6.8464,0c0-.0395-.0047-.0778-.0062-.117a3.2039,3.2039,0,0,0-.0034-6.2627,3.3482,3.3482,0,0,0-3.4136-3.066,3.44,3.44,0,0,0-2.9142,1.5721"/><line class="cls-1" x1="77.9309" y1="110.9517" x2="80.6153" y2="108.2673"/><line class="cls-1" x1="77.7466" y1="112.0739" x2="75.4479" y2="109.0776"/><line class="cls-1" x1="77.8226" y1="108.8326" x2="77.8226" y2="120.1957"/><path class="cls-1" d="M9.0546,83.8321a1.9273,1.9273,0,0,1,1.69,1.839l.0393.7354.5828-.4487a5.5546,5.5546,0,0,1,4.3608-.85"/><path class="cls-1" d="M16.1534,75.36a1.9273,1.9273,0,0,1,1.69,1.839l.0393.7355.5828-.4487a5.5542,5.5542,0,0,1,4.3608-.85"/><path class="cls-2" d="M92.8955,141.7445a.1527.1527,0,0,1-.1527-.1527V127.1133a.1527.1527,0,0,1,.1527-.1528h12.0309a.1532.1532,0,0,1,.0824.0241c.1205.0772,2.9248,1.8927,3.8011,4.2275a2.4093,2.4093,0,0,0,1.6017-.51,1.8888,1.8888,0,0,0,.5545-1.4656"/><path class="cls-2" d="M104.7938,141.7445a.1528.1528,0,0,1-.1528-.1527V137.79"/><path class="cls-2" d="M111.644,131.5106l2.7423,4.1135a.1524.1524,0,0,1,.0257.0848v1.8578a.1528.1528,0,0,1-.1528.1528h-6.2607v3.8723a.1528.1528,0,0,1-.1528.1527h-1.5923a.1529.1529,0,0,1-.1528-.1527v-3.8281h-2.2281"/><path class="cls-2" d="M96.0755,140.11v1.4862a.1489.1489,0,0,1-.1488.1487H94.3759a.1488.1488,0,0,1-.1488-.1487v-3.8771"/><path class="cls-2" d="M104.7938,137.7592H99.1071a2.5665,2.5665,0,0,1-2.5625,2.4991"/><path class="cls-2" d="M91.1136,134.0724V132.915a.1528.1528,0,0,1,.0447-.108l.5229-.5229V128.455"/><path class="cls-2" d="M111.8687,133.63a.1528.1528,0,0,1-.1527.1528h-.9118a.1529.1529,0,0,1-.1528-.1528"/><line class="cls-2" x1="102.0072" y1="141.7445" x2="91.2663" y2="141.7445"/><path class="cls-2" d="M114.412,141.5918a.1528.1528,0,0,1-.1528.1527H104.1475"/><line class="cls-2" x1="120.6609" y1="140.231" x2="120.6609" y2="141.5681"/><line class="cls-2" x1="117.5343" y1="140.231" x2="117.5343" y2="141.5681"/><line class="cls-2" x1="116.0302" y1="138.4118" x2="116.0302" y2="141.5681"/><line class="cls-2" x1="114.4252" y1="140.231" x2="114.4252" y2="141.5681"/><line class="cls-2" x1="120.6653" y1="140.231" x2="120.6653" y2="141.5681"/><line class="cls-2" x1="119.1612" y1="138.4118" x2="119.1612" y2="141.5681"/><line class="cls-2" x1="117.5562" y1="140.231" x2="117.5562" y2="141.5681"/><path class="cls-3" d="M132.11,143.9057h-4.1231a.1255.1255,0,0,1-.08-.0287L125.3,141.7224a.1254.1254,0,0,1-.0454-.0966v-2.3675a.1245.1245,0,0,1,.01-.0482l.7084-1.7052-.0256-3.4923h-2.4025a.1253.1253,0,0,1-.0886-.214l.6816-.6817a.1243.1243,0,0,1,.0477-.03l.4675-.1616L125.641,132a.1256.1256,0,0,1,.0857-.0338h2.2589a.1255.1255,0,0,1,.1254.1254l.0011,6.5092h1.35a13.641,13.641,0,0,1,4.566.7847l1.6352.5792a.1255.1255,0,0,1,.0835.1182v.665a.1253.1253,0,0,1-.05.1L133.8941,142.2l-1.6963,1.67A.1254.1254,0,0,1,132.11,143.9057Zm-3.9977-4.31v.79"/><line class="cls-3" x1="131.1047" y1="143.9263" x2="131.1047" y2="146.2723"/><polyline class="cls-3" points="128.554 146.337 130.109 145.273 130.109 144.565"/><polyline class="cls-3" points="128.145 140.409 129.688 142.032 133.112 142.032"/><line class="cls-3" x1="125.932" y1="134.5629" x2="124.3663" y2="134.5629"/><path class="cls-3" d="M125.8553,131.9527V130.35a.1253.1253,0,0,1,.1254-.1254h.5867a.1254.1254,0,0,1,.0886.0367l.449.449h.3423a.1253.1253,0,0,1,.0886.0368l.38.38a.1258.1258,0,0,1,.0367.0887v.7363"/><path class="cls-3" d="M125.9448,136.6578h-.9127a.1254.1254,0,0,1-.1254-.1254v-.8248a.1238.1238,0,0,1,.0074-.0422l.4025-1.0847"/><line class="cls-3" x1="120.3954" y1="146.353" x2="138.7563" y2="146.353"/><line class="cls-3" x1="123.3256" y1="146.2723" x2="123.3256" y2="145.1104"/><line class="cls-3" x1="124.2216" y1="145.7754" x2="124.2216" y2="146.2723"/><line class="cls-3" x1="125.1036" y1="146.2723" x2="125.1036" y2="144.565"/><line class="cls-3" x1="133.1143" y1="146.3507" x2="133.1143" y2="145.7813"/><line class="cls-3" x1="133.9758" y1="146.3011" x2="133.9758" y2="145.2001"/><path class="cls-2" d="M62.76,146.4211a5.15,5.15,0,1,1,5.15-5.15h0A5.156,5.156,0,0,1,62.76,146.4211Z"/><path class="cls-2" d="M78.0356,146.4211a3.9168,3.9168,0,1,1,3.9169-3.9168A3.9168,3.9168,0,0,1,78.0356,146.4211Z"/><path class="cls-2" d="M62.76,138.1589a3.1111,3.1111,0,1,1-2.6231,1.4369"/><path class="cls-2" d="M78.0356,144.388a1.8838,1.8838,0,1,1,1.8838-1.8838v0A1.886,1.886,0,0,1,78.0356,144.388Z"/><line class="cls-2" x1="74.2842" y1="143.631" x2="67.3457" y2="143.631"/><line class="cls-2" x1="74.1638" y1="141.918" x2="71.8149" y2="141.8894"/><path class="cls-2" d="M71.828,141.8894a.1841.1841,0,0,1-.1841-.1841v-4.7478a.1842.1842,0,0,1,.1841-.1842H82.1414a1.1241,1.1241,0,0,1,1.1229,1.1229v3.6691a1.1244,1.1244,0,0,1-1.1229,1.1231H81.937"/><path class="cls-2" d="M57.5916,141.9247h-.9691a1.1245,1.1245,0,0,1-1.123-1.1231v-6.126a1.1243,1.1243,0,0,1,1.123-1.123h1.1714"/><path class="cls-2" d="M60.3493,133.5526h3.82a1.13,1.13,0,0,1,1.0493.7226"/><path class="cls-2" d="M77.0567,136.7733H75.65a.1727.1727,0,0,1-.1841-.1582v-1.936a.1727.1727,0,0,1,.1841-.1583h1.4066a.1727.1727,0,0,1,.1841.1583v1.936A.1727.1727,0,0,1,77.0567,136.7733Z"/><line class="cls-2" x1="76.1694" y1="134.5183" x2="76.1694" y2="132.5033"/><line class="cls-2" x1="79.5035" y1="134.7049" x2="79.5035" y2="136.7529"/><line class="cls-2" x1="70.7781" y1="135.8933" x2="71.6541" y2="136.7746"/><line class="cls-2" x1="71.6957" y1="134.9838" x2="69.6031" y2="137.0764"/><polyline class="cls-2" points="64.701 132.816 66.402 137.277 68.323 137.277"/><line class="cls-2" x1="72.697" y1="139.5208" x2="72.697" y2="138.094"/><line class="cls-2" x1="73.5328" y1="139.5208" x2="73.5328" y2="138.094"/><line class="cls-2" x1="74.3686" y1="139.5208" x2="74.3686" y2="138.094"/><path class="cls-1" d="M73.3955,72.8929H57.9729a1.95,1.95,0,0,1-1.53-1.9813,2.0244,2.0244,0,0,1,2.0591-1.9891q.0715.0012.1429.0075h.9211c-.2233,0-.3516-1.04-.3516-1.6043a3.7415,3.7415,0,0,1,6.28-2.7613A3.8722,3.8722,0,0,1,70.6,63.01a5.1983,5.1983,0,0,1,9.389,3.1085,4.5518,4.5518,0,0,1-.8124,2.8116"/><path class="cls-1" d="M70.3618,62.6563C69.8451,59.095,72.1207,54.53,76.65,53.75a7.71,7.71,0,0,1,8.9069,6.2884c.7789,4.52-2.7424,8.2025-6.2885,8.9069"/><path class="cls-1" d="M89.3323,71.4153a2.8729,2.8729,0,0,1-4.8222,2.12,2.973,2.973,0,0,1-3.92,1.1936,3.9914,3.9914,0,0,1-7.2091-2.3868,3.495,3.495,0,0,1,.6238-2.1588"/><path class="cls-1" d="M87.8847,61.0045a5.2888,5.2888,0,0,1,0,10.5775"/><path class="cls-4" d="M343.1816,139.5208a2.207,2.207,0,0,1,.9541,1.8477,1.9764,1.9764,0,0,1-.8779,1.7246,3.0874,3.0874,0,0,1-.8769.4765c-.0616.0313-.0469.1231.0146.2774.293.5849,1.1709,2.0166,1.6631,2.74a10.3638,10.3638,0,0,0,1.124,1.4014,1.6962,1.6962,0,0,0,1.1543.6006c.1084,0,.2.0459.2.0918,0,.0312-.0615.0927-.1689.124a2.1448,2.1448,0,0,1-.708.0762,2.6923,2.6923,0,0,1-2.2481-1.2315c-.6777-.8926-1.8017-2.7715-2.1094-3.248-.2-.2617-.3535-.4-.5538-.4317a2.2962,2.2962,0,0,0-.6474-.0459.2013.2013,0,0,0-.1376.1543c-.0314.1846-.0314,1.9707-.0157,2.5557a5.3923,5.3923,0,0,0,.1231,1.4619c.0459.1856.1689.3545.708.4473.17.03.2314.0761.2314.1377s-.124.1084-.2929.1084c-.2774,0-.7393-.0772-1.3086-.0772-.5547,0-1.1084.0772-1.4014.0772-.1533,0-.2617-.0313-.2617-.1084,0-.0616.0928-.1075.293-.1377.5078-.1084.6621-.2471.708-.878.0459-.8779.0771-2.1093.0771-4.0341,0-2.14-.0615-3.1094-.0928-3.6328-.03-.4317-.0459-.6622-.6923-.7706-.1387-.03-.2618-.0615-.2618-.1386,0-.0616.0918-.0918.2774-.0918.2148,0,.6621.0459,1.2.0459.6465,0,1.0625-.0772,1.8633-.0772A3.33,3.33,0,0,1,343.1816,139.5208Zm-3.1259-.1846c-.03.0147-.0772.03-.0918.292-.0157.293-.0313,3.5108-.0313,3.7725,0,.2.0615.2617.1231.2617a1.4,1.4,0,0,0,.3691.03,4.4852,4.4852,0,0,0,1.6328-.3379,2.13,2.13,0,0,0,.8624-1.74,2.3976,2.3976,0,0,0-.6163-1.77,2.333,2.333,0,0,0-1.7549-.6163.9746.9746,0,0,0-.4931.108Z"/><path class="cls-4" d="M347.125,143.4622a7.5852,7.5852,0,0,0,1.1084-.4.6212.6212,0,0,1,.2314-.1074c.0459,0,.0762.0459.0616.2149-.0313.3085-.0313,1.247-.0313,2.2324,0,1.2939,0,2.4326.0313,2.6943.03.3086.1845.3858.4306.4473.1543.03.2315.0615.2315.123,0,.0772-.124.1074-.2471.1074-.1387,0-.708-.0615-1.124-.0615-.5078,0-.7539.0313-.9229.0313-.1084,0-.2158-.0313-.2158-.0928s.0773-.1074.292-.1387c.3389-.0927.4775-.2158.4932-.8467.0156-.4619.0459-3.2636.0459-3.4179,0-.2158-.0157-.3076-.4463-.5391-.0772-.0459-.1231-.0918-.1231-.123C346.94,143.5394,346.9863,143.4925,347.125,143.4622Zm1.54-2.51a.5864.5864,0,0,1-.57.5849.5477.5477,0,0,1-.5078-.5693.5706.5706,0,0,1,.5389-.6006h0a.5636.5636,0,0,1,.5387.5853Z"/><path class="cls-4" d="M351.7139,143.1546c.1543,0,.23.03.23.0918s-.0918.1084-.2148.1387c-.4.1074-.4316.2-.3086.6621.1387.4775,1.0625,2.8633,1.2627,3.2334.0156.0615.0459.0771.0615.03.2-.3692,1.0625-2.417,1.2471-2.9708a2.1523,2.1523,0,0,0,.17-.6318c0-.0918-.0928-.2617-.5088-.3535-.123-.0313-.1845-.0772-.1845-.1387,0-.0468.0615-.0615.1845-.0615.1856,0,.416.0459.7549.0459.2461,0,.6465-.0459.7852-.0459.1074,0,.2158.03.2158.0918s-.0928.0928-.2315.1387c-.3076.0771-.4775.2617-.6621.6933-.3535.77-1.1386,2.4942-1.2929,2.8633a16.5313,16.5313,0,0,0-.7393,1.7246c-.0772.2305-.1387.2617-.1846.2617s-.1074-.0156-.1689-.2314c-.0772-.23-.1856-.6006-.4-1.1856-.2774-.708-1.1856-3.1093-1.4473-3.6025a.9149.9149,0,0,0-.6933-.5391c-.1387-.03-.2149-.0771-.2149-.123,0-.0615.0762-.1074.2617-.1074.4307,0,.6924.0615,1.1543.0615C351.2061,143.2005,351.4678,143.1546,351.7139,143.1546Z"/><path class="cls-4" d="M360.3057,144.5862a.1806.1806,0,0,1-.1543.169c-.1231-.0156-2.125-.0459-2.4785-.0459h-.8311c-.0313,0-.1084.0771-.1387.123a2.1178,2.1178,0,0,0-.123.8467,2.76,2.76,0,0,0,.708,1.8633,2.0775,2.0775,0,0,0,1.539.6309,1.967,1.967,0,0,0,1.4629-.4922c.1231-.1231.1846-.0928.1846-.0157a.585.585,0,0,1-.1532.2461,2.722,2.722,0,0,1-2.1406.97,2.4839,2.4839,0,0,1-1.8321-.7852,3.0073,3.0073,0,0,1-.7392-2.0625,3.21,3.21,0,0,1,.8935-2.248,2.8626,2.8626,0,0,1,1.9238-.77A1.7764,1.7764,0,0,1,360.3057,144.5862Zm-3.1407-.7851a1.3418,1.3418,0,0,0-.3232.6308.0654.0654,0,0,0,.0615.0616l2.001-.0157c.3389,0,.3691-.1689.3691-.3076a.9922.9922,0,0,0-.2148-.6465,1.0778,1.0778,0,0,0-.7705-.2929A1.5967,1.5967,0,0,0,357.165,143.8011Z"/><path class="cls-4" d="M363.0322,144.14a.8855.8855,0,0,0-.2617.538,9.0419,9.0419,0,0,0-.0156.94c0,1.14.0312,1.94.0615,2.2637.0615.4765.2471.5849.832.6464.2149.03.292.0616.292.1387s-.1386.1074-.3691.1074c-.293,0-.8008-.0615-1.4473-.0615a8.2871,8.2871,0,0,0-.9394.0928c-.1846,0-.2617-.0313-.2617-.0928,0-.0459.1083-.123.2314-.1543a.6343.6343,0,0,0,.5537-.6308c.0313-.2618.0469-1.14.0469-2.1553v-1.709c0-.1084-.1084-.1543-.4-.4-.1083-.0771-.1231-.123-.1231-.1543s.0918-.0918.2305-.1387a4.6682,4.6682,0,0,0,.9855-.3691.4861.4861,0,0,1,.2314-.0771c.03,0,.0615.0615.0615.2158,0,.1689-.0156.7539-.0156,1.001,0,.0459.03.0615.0772.0146a2.5148,2.5148,0,0,1,1.6621-1.1084.897.897,0,0,1,.539.2.2691.2691,0,0,1,.1084.2158,1.0562,1.0562,0,0,1-.3388.5235c-.1387.123-.2.1386-.2471.1386a.6918.6918,0,0,1-.2764-.1084,1.0854,1.0854,0,0,0-.539-.1845A1.0487,1.0487,0,0,0,363.0322,144.14Z"/><path class="cls-4" d="M336.6758,155.7972c.3691,0,1.001.0615,1.4629.0615.3388,0,.708-.0312,1.0312-.0312.2158,0,.3076.0468.3076.1084,0,.0771-.0918.123-.2763.1533-.4317.0771-.4317.2617-.3233.539.6465,1.6016,2.1709,4.8809,3.2178,7.1905.0459.1074.1074.0771.1533,0,.4317-.878.8008-1.6475,1.2168-2.6328a.43.43,0,0,0,.03-.1846c-.2461-.585-1.2774-2.9258-1.6163-3.6651-.4462-.9541-.5693-1.1386-1.0469-1.2617-.2461-.0469-.3232-.1084-.3232-.1855,0-.0459.0918-.0918.292-.0918.4472,0,.7392.0615,1.2939.0615s.9082-.0615,1.2617-.0615c.1543,0,.2617.03.2617.0918,0,.0771-.0918.124-.292.17-.416.0771-.5693.2617-.3388.8311.2461.6464.708,1.6933,1.2168,2.8642.0146.03.0761.0459.123-.0312.3692-.7539.6924-1.4629,1.0157-2.2168.4775-1.1241.4619-1.2784-.2-1.4317-.2774-.0615-.3233-.123-.3233-.1855,0-.0459.0928-.0762.2774-.0762.3847,0,.6308.0459,1.0312.0459.5391,0,.7851-.0615,1.14-.0615.1845,0,.2617.0156.2617.0771,0,.0772-.0772.1231-.293.169-.5693.123-.8623.4463-1.37,1.34-.4.7695-1.1543,2.294-1.416,2.7715a.264.264,0,0,0,.0156.1846c.3848.9082,1.0615,2.3711,1.585,3.5254.0615.1074.1084.0771.1386,0,.7393-1.6016,2.6026-5.9121,2.9258-7.0518.0772-.3379.0615-.6-.4463-.7539-.247-.0771-.3388-.1074-.3388-.17s.0459-.0918.2617-.0918c.4,0,.6152.0615,1.0771.0615.4317,0,.8467-.0615,1.124-.0615.2,0,.2774.0156.2774.0771s-.0772.1231-.3545.169c-.6465.17-.9238.4931-1.8936,2.6787-.97,2.125-2.2168,5.0351-2.9248,6.7285-.1084.2617-.1543.3545-.2314.3545-.1074,0-.169-.1084-.2617-.3545-.3233-.94-1.2-2.8486-1.6475-3.834-.03-.0615-.0771-.0615-.1074-.0146-.585,1.1386-1.4014,2.94-1.74,3.833-.0918.2461-.1846.37-.2461.37-.0918,0-.1231-.0928-.23-.37-.2-.5078-.6777-1.6319-.8779-2.0938-.8467-1.9551-1.878-4.2343-2.6016-5.7431-.5547-1.2-.6777-1.4776-1.2627-1.5547-.1846-.0157-.3232-.0772-.3232-.1387C336.3682,155.8587,336.4756,155.7972,336.6758,155.7972Z"/><path class="cls-4" d="M352.9219,160.6009a3.7328,3.7328,0,0,1,.2148,1.4c0,.57-.0459,2.0332-.0459,2.4326a.5272.5272,0,0,0,.5694.585.9872.9872,0,0,0,.4472-.1377c.0918-.0469.1533,0,.0918.1377a1.2962,1.2962,0,0,1-1.1855.6621,1.0332,1.0332,0,0,1-.9082-.6924.0533.0533,0,0,0-.0731-.0183l-.0041.0027a2.1533,2.1533,0,0,1-1.5088.6933,1.2776,1.2776,0,0,1-1.2315-1.3219l0-.0023a1.0868,1.0868,0,0,1,.5537-.8779c.37-.2,1.7715-.6153,2.0947-.7393a.29.29,0,0,0,.2-.23,5.2985,5.2985,0,0,0,.03-.708c0-.6318-.1074-1.0625-.3691-1.2627a1.17,1.17,0,0,0-.6465-.2461,1.0588,1.0588,0,0,0-.6162.1846.6183.6183,0,0,0-.2315.3692,1.6779,1.6779,0,0,0-.0146.2929.1939.1939,0,0,1-.0616.1231,3.3523,3.3523,0,0,1-.7236.3388c-.0771.0157-.1543-.0771-.1543-.1386,0-.1075.1074-.2461.293-.4619a3.9686,3.9686,0,0,1,1.17-.8926,2.0532,2.0532,0,0,1,.9238-.2774A1.2624,1.2624,0,0,1,352.9219,160.6009Zm-1.0323,4.2334a.6388.6388,0,0,0,.17-.3692,11.0687,11.0687,0,0,0,.0771-1.4628c0-.0157-.0312-.0918-.0625-.0772a8.7825,8.7825,0,0,0-1.416.5234.7981.7981,0,0,0-.3848.7706.8945.8945,0,0,0,.9239.8623,1.0518,1.0518,0,0,0,.6927-.2471Z"/><path class="cls-4" d="M355.2471,164.9427a1.7341,1.7341,0,0,1-.1846-.8779v-3.1866c0-.17-.0156-.2773-.0771-.3086a2.56,2.56,0,0,0-.3692-.0918c-.123-.0312-.2-.0771-.2-.1386,0-.0313.0156-.0772.1846-.1543a3.2762,3.2762,0,0,0,1.2627-1.0313c.1387-.1543.2461-.123.2461-.0468,0,.1386-.03.57-.0147.7548,0,.0459.0147.1387.0762.1387.2773,0,1.5557-.0459,1.8789-.0459.03,0,.0918.1074.0918.2149,0,.2617-.0762.3847-.1533.3847-.5391,0-1.294-.0146-1.709-.0146-.1846,0-.2158.0459-.2158.1386,0,.2618.0156,2.6788.0312,3.1563a1.5762,1.5762,0,0,0,.169.831,1.14,1.14,0,0,0,.9541.4161,1.5027,1.5027,0,0,0,.8476-.2315c.1075-.0771.1534-.0615.1534,0,0,.0928-.1387.2461-.3389.4a2.1119,2.1119,0,0,1-1.2471.4A1.4273,1.4273,0,0,1,355.2471,164.9427Z"/><path class="cls-4" d="M363.2705,161.386a.18.18,0,0,1-.1543.169c-.123-.0156-2.125-.0459-2.4785-.0459h-.8311c-.0311,0-.1084.0771-.1386.123a2.1144,2.1144,0,0,0-.1231.8467,2.76,2.76,0,0,0,.708,1.8633,2.0775,2.0775,0,0,0,1.5391.6309,1.967,1.967,0,0,0,1.4629-.4922c.123-.1231.1846-.0928.1846-.0157a.5854.5854,0,0,1-.1534.2461,2.7216,2.7216,0,0,1-2.1406.97,2.484,2.484,0,0,1-1.832-.7852,3.0083,3.0083,0,0,1-.7393-2.0625,3.21,3.21,0,0,1,.8936-2.248,2.8626,2.8626,0,0,1,1.9238-.77A1.7764,1.7764,0,0,1,363.2705,161.386Zm-3.1406-.7851a1.3409,1.3409,0,0,0-.3233.6309.0654.0654,0,0,0,.0616.0615l2.0009-.0157c.3389,0,.3692-.1689.3692-.3076a.9917.9917,0,0,0-.2149-.6465,1.0785,1.0785,0,0,0-.77-.2929,1.5966,1.5966,0,0,0-1.1234.57Z"/><path class="cls-4" d="M365.9971,160.94a.8849.8849,0,0,0-.2617.538,9.0143,9.0143,0,0,0-.0157.94c0,1.14.0313,1.94.0615,2.2637.0616.4765.2471.5849.8321.6465.2148.03.292.0615.292.1386s-.1387.1074-.3692.1074c-.2929,0-.8007-.0615-1.4472-.0615a8.2724,8.2724,0,0,0-.94.0928c-.1846,0-.2617-.0313-.2617-.0928,0-.0459.1084-.123.2314-.1543a.6345.6345,0,0,0,.5538-.6308c.0312-.2618.0468-1.14.0468-2.1553v-1.709c0-.1084-.1084-.1543-.4-.4-.1084-.0771-.1229-.123-.1229-.1543s.0918-.0918.2305-.1386a4.6146,4.6146,0,0,0,.9852-.3692.4861.4861,0,0,1,.2316-.0771c.03,0,.0614.0615.0614.2158,0,.1689-.0155.7539-.0155,1.001,0,.0459.03.0615.077.0146a2.516,2.516,0,0,1,1.6621-1.1084.8971.8971,0,0,1,.5391.2.2691.2691,0,0,1,.1084.2158,1.0544,1.0544,0,0,1-.3389.5235c-.1387.123-.2.1386-.2471.1386a.692.692,0,0,1-.2763-.1084,1.0851,1.0851,0,0,0-.5391-.1845A1.0481,1.0481,0,0,0,365.9971,160.94Z"/><polyline class="cls-5" points="311.802 124.334 316.38 119.756 320.958 124.334"/><path class="cls-6" d="M301.35,124.6312a.57.57,0,0,1-.1894-.04.4456.4456,0,0,1-.16-.11.428.428,0,0,1-.11-.1592.4341.4341,0,0,1-.04-.19.4744.4744,0,0,1,.04-.2.47.47,0,0,1,.2706-.26.4922.4922,0,0,1,.54.1.424.424,0,0,1,.1094.16.496.496,0,0,1-.1094.55A.5089.5089,0,0,1,301.35,124.6312Z"/><path class="cls-6" d="M301.46,127.2112h0a.4993.4993,0,0,1,.2606-.6563l.0089-.0037h0a.5061.5061,0,0,1,.65.27h0a.4979.4979,0,0,1-.2593.6545l-.0112.0047h0a.5663.5663,0,0,1-.19.04h0A.5074.5074,0,0,1,301.46,127.2112Z"/><path class="cls-6" d="M308.39,131.6712a.4948.4948,0,0,1,.49-.5h.01a.508.508,0,0,1,.5.5h0a.5009.5009,0,0,1-.5.5h0a.4948.4948,0,0,1-.5-.4895Zm2.92-.38a.498.498,0,0,1,.27-.65h0a.5048.5048,0,0,1,.6494.27h0a.4844.4844,0,0,1-.245.64l-.0245.01h0a.4321.4321,0,0,1-.19.04h0a.483.483,0,0,1-.46-.31Zm-5.5.27a.4989.4989,0,0,1-.27-.65h0a.492.492,0,0,1,.64-.2741l.01.0041h0a.4982.4982,0,0,1,.2816.646l-.0016.004h0a.5123.5123,0,0,1-.47.31h0a.4319.4319,0,0,1-.19-.04Zm8.05-1.73a.5043.5043,0,0,1,.0107-.71H313.86a.4946.4946,0,0,1,.6994-.0106l.0106.0106h0a.4946.4946,0,0,1,.01.7l-.01.0105h0a.5166.5166,0,0,1-.35.14h0a.5455.5455,0,0,1-.3606-.14Zm-10.6592-.01h.01a.5036.5036,0,0,1-.01-.71h0a.4946.4946,0,0,1,.7-.01l.01.01h0a.4963.4963,0,0,1,.008.702l-.008.008h0a.5033.5033,0,0,1-.3506.14h0a.5409.5409,0,0,1-.36-.14Zm12.47-2.33a.49.49,0,0,1-.2759-.6357l.0059-.0143h0a.4934.4934,0,0,1,.6421-.2728l.0079.0033h0a.49.49,0,0,1,.275.6361l-.0055.0133h0a.4923.4923,0,0,1-.46.3106h0a.413.413,0,0,1-.19-.04Z"/><path class="cls-6" d="M316.44,124.6312a.5055.5055,0,0,1-.35-.15.47.47,0,0,1-.15-.35.4116.4116,0,0,1,.04-.19.399.399,0,0,1,.11-.1709.6459.6459,0,0,1,.16-.1094.5019.5019,0,0,1,.38,0,.6627.6627,0,0,1,.16.1094.5107.5107,0,0,1,.1495.36.47.47,0,0,1-.1495.35A.5073.5073,0,0,1,316.44,124.6312Z"/><path class="cls-6" d="M286.26,120.0716a.417.417,0,0,1-.19-.04.4743.4743,0,0,1-.17-.11.4827.4827,0,0,1-.14-.35.5013.5013,0,0,1,.14-.3506.5092.5092,0,0,1,.5508-.1094.4488.4488,0,0,1,.1592.1094.5073.5073,0,0,1,.15.3506.4519.4519,0,0,1-.15.35.428.428,0,0,1-.1592.11A.4174.4174,0,0,1,286.26,120.0716Z"/><path class="cls-6" d="M286.68,117.0208a.4942.4942,0,0,1-.26-.6486l0-.0008h0a.4985.4985,0,0,1,.6541-.2626l.0059.0026h0a.494.494,0,0,1,.2605.6482l-.0005.0012v.01a.5045.5045,0,0,1-.46.3008h0A.4884.4884,0,0,1,286.68,117.0208Z"/><path class="cls-6" d="M300.58,117.6517a.5111.5111,0,0,1,.35-.62h0a.5114.5114,0,0,1,.62.35h0a.5117.5117,0,0,1-.35.62h0a.5987.5987,0,0,1-.1309.01h0A.5113.5113,0,0,1,300.58,117.6517Zm-1.32-2.54a.4947.4947,0,0,1,.0659-.6966l.0041-.0034h0a.4856.4856,0,0,1,.685.0511l.015.0183h0a.4865.4865,0,0,1-.0527.6859l-.0173.0141h0a.4557.4557,0,0,1-.3106.11h0a.5.5,0,0,1-.3894-.18Zm-10.9795-.71a.5131.5131,0,0,1,.0293-.71h0a.5131.5131,0,0,1,.71.0293h0a.5141.5141,0,0,1-.0293.71h0a.4876.4876,0,0,1-.3408.13h0a.5.5,0,0,1-.37-.1593Zm8.75-1.0908a.4983.4983,0,0,1-.211-.67h0a.4917.4917,0,0,1,.6573-.2269l.0136.0069h0a.5017.5017,0,0,1,.22.67h0a.4965.4965,0,0,1-.45.27h0a.4525.4525,0,0,1-.23-.05Zm-6.2305-.68a.501.501,0,0,1,.3-.64h0a.4993.4993,0,0,1,.638.3028l.0026.0072h0a.4938.4938,0,0,1-.3007.63h0a.5382.5382,0,0,1-.17.03h0a.4833.4833,0,0,1-.47-.33Zm3.47-.09a.5014.5014,0,0,1-.46-.53h0a.5087.5087,0,0,1,.53-.47h0a.5112.5112,0,0,1,.47.54h0a.5013.5013,0,0,1-.5.46Z"/><path class="cls-6" d="M301.35,121.1116a.4119.4119,0,0,1-.1894-.04.4614.4614,0,0,1-.16-.11.4663.4663,0,0,1-.15-.35.4525.4525,0,0,1,.15-.3506.3492.3492,0,0,1,.16-.1093.4786.4786,0,0,1,.54.1093.455.455,0,0,1,.1494.3506.4279.4279,0,0,1-.04.19.35.35,0,0,1-.1094.16A.473.473,0,0,1,301.35,121.1116Z"/><path class="cls-6" d="M271.16,121.0511a.6283.6283,0,0,1-.19-.04.4651.4651,0,0,1-.16-.1093.4726.4726,0,0,1-.1494-.3506.3989.3989,0,0,1,.04-.19.5946.5946,0,0,1,.1094-.17.5327.5327,0,0,1,.71,0,.5421.5421,0,0,1,.1407.3594.446.446,0,0,1-.04.19.5664.5664,0,0,1-.1006.16.6147.6147,0,0,1-.17.1093A.5667.5667,0,0,1,271.16,121.0511Z"/><path class="cls-6" d="M270.66,123.1214a.501.501,0,0,1,.5-.5h0a.4954.4954,0,0,1,.5.4908v.0092h0a.5022.5022,0,0,1-.5.5h0A.5081.5081,0,0,1,270.66,123.1214Z"/><path class="cls-6" d="M276,131.7015a.4894.4894,0,0,1-.3027-.6224l.0027-.0076h0a.5056.5056,0,0,1,.64-.3106h0a.5058.5058,0,0,1,.3.6407h0a.4821.4821,0,0,1-.47.3291h0A.565.565,0,0,1,276,131.7015Zm-2.37-1.33h0a.498.498,0,0,1-.0783-.7l.0083-.01h0a.5029.5029,0,0,1,.7-.07h0a.5039.5039,0,0,1,.07.7h0a.5082.5082,0,0,1-.3906.1895h0a.5071.5071,0,0,1-.3094-.11Zm-1.79-2.06a.4888.4888,0,0,1,.1512-.6745l.0088-.0055h0a.498.498,0,0,1,.687.1552l.003.0048h0a.5027.5027,0,0,1-.17.6895h0a.4774.4774,0,0,1-.26.07h0a.47.47,0,0,1-.42-.24Zm-1.01-2.5293h0a.502.502,0,0,1,.39-.59h0a.4917.4917,0,0,1,.5881.3711l.0019.0089h0a.5043.5043,0,0,1-.3867.5993l-.0033.0007h0c-.03,0-.06.01-.1006.01h0a.5008.5008,0,0,1-.4894-.4006Z"/><path class="cls-6" d="M278.7,132.1712a.4838.4838,0,0,1-.3506-.15.49.49,0,0,1-.1494-.35.5045.5045,0,0,1,.8594-.35.5018.5018,0,0,1-.3528.85Z"/><path class="cls-6" d="M278.707,132.1732a.5.5,0,1,1-.0029-1h.0029a.5.5,0,0,1,0,1Z"/><path class="cls-6" d="M280.92,131.3616a.5023.5023,0,0,1,.2882-.6493l.0018-.0007h0v.01h0a.4882.4882,0,0,1,.6339.2737l.0061.0163h0a.4958.4958,0,0,1-.2873.64l-.0027.001h0a.4739.4739,0,0,1-.17.0293h0A.4876.4876,0,0,1,280.92,131.3616Z"/><path class="cls-6" d="M283.34,130.1116a.495.495,0,0,1,.0282-.7l.0118-.0105h0a.5134.5134,0,0,1,.71.04h0a.5061.5061,0,0,1-.05.71h.01a.5461.5461,0,0,1-.34.1191h0A.4857.4857,0,0,1,283.34,130.1116Zm1.82-2.03a.4973.4973,0,0,1-.2156-.6694l.0056-.0106h0a.4941.4941,0,0,1,.6658-.2122l.0042.0022h0a.498.498,0,0,1,.2148.6709l-.0048.0091h0a.49.49,0,0,1-.44.26h0a.5839.5839,0,0,1-.2295-.05Zm.9794-2.54a.51.51,0,0,1-.4394-.5605h0a.4982.4982,0,0,1,.55-.4407l.01.0012h0a.4968.4968,0,0,1,.4306.5551l-.0006.0049h0a.4957.4957,0,0,1-.4893.44h-.0613Zm-.39-3.23a.5016.5016,0,0,1,.5-.5h0a.4954.4954,0,0,1,.5.4908v.0092h0a.4948.4948,0,0,1-.4895.5h-.0105a.501.501,0,0,1-.4994-.5007Z"/><path class="cls-6" d="M286.25,120.0716a.4739.4739,0,0,1-.3506-.15.4545.4545,0,0,1-.1494-.35.4313.4313,0,0,1,.04-.19.3554.3554,0,0,1,.1094-.16.5024.5024,0,0,1,.7,0,.4683.4683,0,0,1,.15.3506.5141.5141,0,0,1-.5.5Z"/><path class="cls-6" d="M256.06,120.0716a.4405.4405,0,0,1-.19-.04.5426.5426,0,0,1-.16-.1006.6216.6216,0,0,1-.11-.17.5942.5942,0,0,1-.04-.1894.6648.6648,0,0,1,.04-.19.47.47,0,0,1,.11-.16.5483.5483,0,0,1,.16-.1094.5076.5076,0,0,1,.55.1094.5013.5013,0,0,1,.14.3506.5912.5912,0,0,1-.0293.1894.6216.6216,0,0,1-.11.17.7268.7268,0,0,1-.16.1006A.49.49,0,0,1,256.06,120.0716Z"/><path class="cls-6" d="M256.49,117.0316a.5019.5019,0,0,1-.2607-.66h0a.4951.4951,0,0,1,.648-.2652l.012.0052h0a.5025.5025,0,0,1,.26.6494v.01a.5264.5264,0,0,1-.46.3008h0A.66.66,0,0,1,256.49,117.0316Z"/><path class="cls-6" d="M270.39,117.6517a.5052.5052,0,0,1,.34-.62h0a.5018.5018,0,0,1,.6191.3466l.0009.0034h0a.5057.5057,0,0,1-.34.62h0a.677.677,0,0,1-.14.01h0A.4924.4924,0,0,1,270.39,117.6517Zm-1.33-2.54a.5038.5038,0,0,1,.07-.7h0a.497.497,0,0,1,.7.0577l.01.0117h0a.5036.5036,0,0,1-.07.7h0a.4972.4972,0,0,1-.3193.11h0a.516.516,0,0,1-.3907-.18Zm-10.97-.71a.4956.4956,0,0,1,.02-.7005l.01-.01h0a.5.5,0,0,1,.6992.0293h0a.5034.5034,0,0,1-.02.71h0a.5.5,0,0,1-.34.13h0a.4862.4862,0,0,1-.37-.1593Zm8.75-1.0908a.51.51,0,0,1-.22-.68h0a.5065.5065,0,0,1,.68-.21h0a.4979.4979,0,0,1,.21.67h0a.4813.4813,0,0,1-.44.27h0a.4577.4577,0,0,1-.23-.05Zm-6.24-.68a.51.51,0,0,1,.3106-.64h0a.5133.5133,0,0,1,.64.3h0a.5061.5061,0,0,1-.31.64h0a.447.447,0,0,1-.16.03h0a.52.52,0,0,1-.4807-.33Zm3.48-.09h0a.4933.4933,0,0,1-.46-.5241l0-.0059h0a.4822.4822,0,0,1,.5017-.4619l.0276.0019h0v-.01h0a.5.5,0,0,1,.46.53h0a.486.486,0,0,1-.4893.47Z"/><path class="cls-6" d="M271.1494,121.1116a.4853.4853,0,0,1-.35-.15.4991.4991,0,0,1-.14-.35.5921.5921,0,0,1,.0293-.19.7085.7085,0,0,1,.11-.17.5349.5349,0,0,1,.71,0,.5538.5538,0,0,1,.15.36.51.51,0,0,1-.15.35A.4921.4921,0,0,1,271.1494,121.1116Z"/><path class="cls-6" d="M248.5127,132.1732a.5.5,0,1,1-.0029-1h.0029a.5.5,0,0,1,0,1Z"/><path class="cls-6" d="M250.72,131.3616a.4889.4889,0,0,1,.2743-.6347l.0157-.0059h.01a.5.5,0,0,1,.6407.28h0a.5038.5038,0,0,1-.29.65h0a.5832.5832,0,0,1-.1806.0293h0A.5074.5074,0,0,1,250.72,131.3616Z"/><path class="cls-6" d="M253.14,130.1116a.5053.5053,0,0,1,.05-.71h0a.5012.5012,0,0,1,.7.04h0a.5051.5051,0,0,1-.04.71h0a.5006.5006,0,0,1-.33.1191h0A.5094.5094,0,0,1,253.14,130.1116Zm1.82-2.03a.5094.5094,0,0,1-.21-.68h0a.5058.5058,0,0,1,.68-.21h0a.5065.5065,0,0,1,.21.68h0a.5038.5038,0,0,1-.45.26h0a.6788.6788,0,0,1-.23-.05Zm.98-2.54a.5031.5031,0,0,1-.43-.5605h0a.4953.4953,0,0,1,.5452-.44l.0048.0005h0a.5049.5049,0,0,1,.44.56h0a.507.507,0,0,1-.5.44Zm-.38-3.23a.496.496,0,0,1,.492-.5h.008a.5016.5016,0,0,1,.5.5h0a.5074.5074,0,0,1-.5.5h0a.5016.5016,0,0,1-.5-.5007Z"/><path class="cls-6" d="M256.06,120.0716a.4124.4124,0,0,1-.19-.04.4569.4569,0,0,1-.17-.11.48.48,0,0,1-.1406-.35.498.498,0,0,1,.1406-.3506.5045.5045,0,0,1,.8594.3506.4545.4545,0,0,1-.1494.35.44.44,0,0,1-.16.11A.4453.4453,0,0,1,256.06,120.0716Z"/><path class="cls-6" d="M240.97,121.0511a.5619.5619,0,0,1-.1894-.04.6317.6317,0,0,1-.1709-.1093.5033.5033,0,0,1-.14-.3506.3977.3977,0,0,1,.04-.19.584.584,0,0,1,.1-.17.508.508,0,0,1,.5508-.1006.436.436,0,0,1,.1591.1006.6008.6008,0,0,1,.11.17.5658.5658,0,0,1,.04.19.5123.5123,0,0,1-.5.5Z"/><path class="cls-6" d="M240.47,123.1214a.4948.4948,0,0,1,.4895-.5h.0105a.501.501,0,0,1,.5.5h0a.5081.5081,0,0,1-.5.5h0A.5016.5016,0,0,1,240.47,123.1214Z"/><path class="cls-6" d="M245.81,131.7015a.4826.4826,0,0,1-.3073-.6094l.0073-.0206h0a.495.495,0,0,1,.6268-.3117l.0032.0011h0a.5072.5072,0,0,1,.3106.6407h0a.5013.5013,0,0,1-.4707.3291h0A.4758.4758,0,0,1,245.81,131.7015Zm-2.38-1.33a.5158.5158,0,0,1-.07-.71h0a.5149.5149,0,0,1,.71-.07h-.01a.4952.4952,0,0,1,.0837.6953l-.0037.0047h0a.49.49,0,0,1-.39.1895h0a.56.56,0,0,1-.32-.11Zm-1.79-2.06h0a.4925.4925,0,0,1,.1644-.6767l.0056-.0033h0a.49.49,0,0,1,.676.1525l.0046.0075h0a.5017.5017,0,0,1-.16.6895h0a.4782.4782,0,0,1-.2608.07h0a.4852.4852,0,0,1-.43-.24Zm-1-2.5293h0a.4885.4885,0,0,1,.3648-.5867l.0152-.0033h0a.5031.5031,0,0,1,.6006.38h0a.5124.5124,0,0,1-.3906.6h0c-.04,0-.0693.01-.1.01h0a.5031.5031,0,0,1-.49-.4006Z"/><path class="cls-6" d="M248.51,132.1712a.4663.4663,0,0,1-.35-.15.3455.3455,0,0,1-.11-.1592.4036.4036,0,0,1-.04-.19.4341.4341,0,0,1,.04-.19.5438.5438,0,0,1,.2695-.27.4936.4936,0,0,1,.54.11.4663.4663,0,0,1,.15.35.4049.4049,0,0,1-.04.19.3455.3455,0,0,1-.11.1592A.4665.4665,0,0,1,248.51,132.1712Z"/><path class="cls-6" d="M225.87,120.0716a.4721.4721,0,0,1-.3506-.15.3487.3487,0,0,1-.1093-.16.4.4,0,0,1-.04-.1894.4713.4713,0,0,1,.1494-.3506.4881.4881,0,0,1,.54-.1094.445.445,0,0,1,.16.1094.4827.4827,0,0,1,.0176.6824l-.0176.0176a.36.36,0,0,1-.16.11A.4124.4124,0,0,1,225.87,120.0716Z"/><path class="cls-6" d="M226.29,117.0316a.51.51,0,0,1-.26-.66h.01a.4862.4862,0,0,1,.6338-.2669l.0162.0069h0a.4942.4942,0,0,1,.2663.6462l-.0056.013h0a.5.5,0,0,1-.46.3008h0A.7986.7986,0,0,1,226.29,117.0316Z"/><path class="cls-6" d="M240.2,117.6517h0a.4965.4965,0,0,1,.3332-.618l.0068-.002h0a.5069.5069,0,0,1,.62.35h0a.5123.5123,0,0,1-.3506.62h0a.59.59,0,0,1-.13.01h0A.4913.4913,0,0,1,240.2,117.6517Zm-1.33-2.54a.5037.5037,0,0,1,.0694-.7h0a.4854.4854,0,0,1,.6847.0508l.0153.0186h0a.4855.4855,0,0,1-.0515.6848l-.0185.0152h0a.4632.4632,0,0,1-.31.12h0a.5078.5078,0,0,1-.39-.19Zm-10.9707-.71a.5046.5046,0,0,1,.02-.71h0a.5132.5132,0,0,1,.71.0293h0a.5049.5049,0,0,1-.03.71h0a.4674.4674,0,0,1-.34.13h0a.4685.4685,0,0,1-.36-.1593Zm8.74-1.0908a.4979.4979,0,0,1-.21-.67h0a.493.493,0,0,1,.66-.225l.01.005h0a.5015.5015,0,0,1,.22.67h0a.4846.4846,0,0,1-.4492.27h0a.5071.5071,0,0,1-.23-.05Zm-6.2294-.68a.5.5,0,0,1,.3-.64h0a.501.501,0,0,1,.64.3h0a.5007.5007,0,0,1-.3.64h0a.4954.4954,0,0,1-.17.03h0a.4821.4821,0,0,1-.47-.33Zm3.4794-.09h0a.5011.5011,0,0,1-.47-.53h0a.5082.5082,0,0,1,.53-.47h0a.505.505,0,0,1,.47.5374l0,.0026h0a.5018.5018,0,0,1-.5.46Z"/><path class="cls-6" d="M240.96,121.1116a.4165.4165,0,0,1-.1905-.04.3647.3647,0,0,1-.16-.11.4691.4691,0,0,1-.1494-.35.4015.4015,0,0,1,.04-.19.3543.3543,0,0,1,.1094-.16.4953.4953,0,0,1,.54-.1093.3492.3492,0,0,1,.16.1093.5006.5006,0,0,1-.35.8506Z"/><path class="cls-6" d="M210.77,121.0511a.6245.6245,0,0,1-.1894-.04.5668.5668,0,0,1-.16-.1093.514.514,0,0,1-.15-.3506.5871.5871,0,0,1,.04-.19.5.5,0,0,1,.11-.17.5327.5327,0,0,1,.71,0,.4652.4652,0,0,1,.1.17.3989.3989,0,0,1,.04.19.5033.5033,0,0,1-.14.3506.6294.6294,0,0,1-.17.1093A.5741.5741,0,0,1,210.77,121.0511Z"/><path class="cls-6" d="M210.27,123.1214a.5016.5016,0,0,1,.5-.5h0a.4948.4948,0,0,1,.5.49v.01h0a.5016.5016,0,0,1-.5.5h0A.5088.5088,0,0,1,210.27,123.1214Z"/><path class="cls-6" d="M215.6094,131.7015a.49.49,0,0,1-.3023-.6235l.0023-.0065h0a.5064.5064,0,0,1,.6406-.3106h0a.5016.5016,0,0,1,.3.6407h0a.4822.4822,0,0,1-.47.3291h0A.5726.5726,0,0,1,215.6094,131.7015Zm-2.3692-1.33a.4971.4971,0,0,1-.0794-.6985l.0094-.0115h0a.5039.5039,0,0,1,.7-.07h0a.4858.4858,0,0,1,.0844.6817l-.015.0183h0a.4764.4764,0,0,1-.39.1895h0a.5056.5056,0,0,1-.31-.11Zm-1.79-2.06h0a.4893.4893,0,0,1,.1515-.6752l.0077-.0048h0a.499.499,0,0,1,.6881.157l.0019.003h0a.51.51,0,0,1-.16.6895h0a.5339.5339,0,0,1-.2695.07h0a.47.47,0,0,1-.42-.24Zm-1.0107-2.5293h0a.5018.5018,0,0,1,.3906-.59h0a.4925.4925,0,0,1,.5884.3727l.0016.0073h0v.01h0a.4926.4926,0,0,1-.3752.587l-.0148.003h0a.3187.3187,0,0,1-.1006.01h0a.5127.5127,0,0,1-.4895-.4006Z"/><path class="cls-6" d="M218.3193,132.1712a.4425.4425,0,0,1-.1992-.04.4013.4013,0,0,1-.16-.11.4828.4828,0,0,1-.1407-.35.5.5,0,0,1,.1407-.35.5521.5521,0,0,1,.16-.11.5267.5267,0,0,1,.39,0,.5663.5663,0,0,1,.16.11.6538.6538,0,0,1,.11.1592.6675.6675,0,0,1,.039.19.49.49,0,0,1-.1494.35A.4667.4667,0,0,1,218.3193,132.1712Z"/><path class="cls-6" d="M218.3184,132.1732a.5.5,0,0,1-.003-1h.003a.5.5,0,0,1,0,1Z"/><path class="cls-6" d="M220.53,131.3616a.4877.4877,0,0,1,.2716-.634l.0174-.0066h0a.489.489,0,0,1,.6348.2743l.0059.0157h0a.5.5,0,0,1-.28.6407h0a.58.58,0,0,1-.18.0293h0A.5053.5053,0,0,1,220.53,131.3616Z"/><path class="cls-6" d="M222.95,130.1116a.5128.5128,0,0,1,.04-.71h0a.5135.5135,0,0,1,.71.04h0a.5154.5154,0,0,1-.04.71h0a.5508.5508,0,0,1-.3409.1191h0A.5.5,0,0,1,222.95,130.1116Zm1.8193-2.03a.498.498,0,0,1-.2148-.6709l.0048-.0091h0a.4972.4972,0,0,1,.67-.21h0a.4981.4981,0,0,1,.2147.671l-.0047.009h0a.4885.4885,0,0,1-.44.26h0a.5922.5922,0,0,1-.2293-.05Zm.9805-2.54a.5113.5113,0,0,1-.44-.5605h0a.5106.5106,0,0,1,.56-.4395h0a.518.518,0,0,1,.44.56h0a.5146.5146,0,0,1-.5.44Zm-.3906-3.23a.5022.5022,0,0,1,.5-.5h0a.4955.4955,0,0,1,.5.491v.009h0a.4949.4949,0,0,1-.49.5h-.01a.5016.5016,0,0,1-.5-.5007Z"/><path class="cls-6" d="M225.8594,120.0716a.5.5,0,0,1-.35-.1406.4918.4918,0,0,1-.15-.3594.5116.5116,0,0,1,.15-.3506.4951.4951,0,0,1,.54-.1094.6076.6076,0,0,1,.17.1094.5013.5013,0,0,1,.14.3506.5228.5228,0,0,1-.14.3594.606.606,0,0,1-.17.1006A.4144.4144,0,0,1,225.8594,120.0716Z"/><path class="cls-6" d="M195.69,120.0013a.49.49,0,0,1-.36-.15.5824.5824,0,0,1-.11-.1592.6541.6541,0,0,1-.04-.19.5562.5562,0,0,1,.15-.36.5051.5051,0,0,1,.55-.1.459.459,0,0,1,.3.46.6346.6346,0,0,1-.03.19.5824.5824,0,0,1-.11.1592.5663.5663,0,0,1-.16.11A.7355.7355,0,0,1,195.69,120.0013Z"/><path class="cls-6" d="M196.11,116.9515a.4985.4985,0,0,1-.2625-.6543l.0025-.0057h0a.5032.5032,0,0,1,.66-.26h0a.5031.5031,0,0,1,.26.66h0a.511.511,0,0,1-.46.3h0A.4576.4576,0,0,1,196.11,116.9515Z"/><path class="cls-6" d="M210.01,117.5716a.4907.4907,0,0,1,.334-.6083l.006-.0017h0a.4966.4966,0,0,1,.6181.3336l.0019.0064h0a.4966.4966,0,0,1-.3335.6181l-.0065.0019h0a.7965.7965,0,0,1-.14.02h0A.49.49,0,0,1,210.01,117.5716Zm-1.33-2.53a.5156.5156,0,0,1,.07-.71h0a.5156.5156,0,0,1,.71.07h0a.5158.5158,0,0,1-.07.71h0a.5647.5647,0,0,1-.32.1094h0a.5124.5124,0,0,1-.39-.18Zm-10.97-.71a.4956.4956,0,0,1,.02-.7l.01-.01h0a.4927.4927,0,0,1,.6966.0164l.0034.0036h0a.5045.5045,0,0,1-.02.71h0a.498.498,0,0,1-.34.13h0a.5143.5143,0,0,1-.37-.15Zm8.75-1.1006a.4985.4985,0,0,1-.22-.67l0,0h0a.51.51,0,0,1,.68-.22h0a.5065.5065,0,0,1,.21.68h0a.497.497,0,0,1-.44.27h0a.4638.4638,0,0,1-.23-.0607Zm-6.24-.68a.4982.4982,0,0,1,.3-.63h0a.5046.5046,0,0,1,.6489.297l.0011.003h0a.507.507,0,0,1-.31.6406h0a.4717.4717,0,0,1-.17.0293h0a.5117.5117,0,0,1-.47-.34Zm3.4805-.08a.5116.5116,0,0,1-.4707-.54h0a.5051.5051,0,0,1,.54-.46h-.01a.49.49,0,0,1,.4714.5068l-.0014.0232h0a.5021.5021,0,0,1-.5.47h-.0293Z"/><path class="cls-6" d="M210.77,121.0316a.5174.5174,0,0,1-.35-.1407.5332.5332,0,0,1-.15-.3593.5.5,0,1,1,1,0,.48.48,0,0,1-.4591.5C210.7973,121.0322,210.7836,121.0322,210.77,121.0316Z"/><path class="cls-6" d="M188.1323,132.098a.5.5,0,1,1-.0034-1h.0034a.5.5,0,0,1,0,1Z"/><path class="cls-6" d="M190.34,131.2913a.5209.5209,0,0,1,.29-.65h0a.503.503,0,0,1,.65.29l0,0h0a.4919.4919,0,0,1-.28.6368l-.01.0038h0a.4019.4019,0,0,1-.18.04h0A.5233.5233,0,0,1,190.34,131.2913Z"/><path class="cls-6" d="M192.76,130.0316a.5044.5044,0,0,1,.05-.71h0a.5008.5008,0,0,1,.7.04h0a.5043.5043,0,0,1-.04.71h0a.461.461,0,0,1-.33.13h0A.52.52,0,0,1,192.76,130.0316Zm1.82-2.03a.4982.4982,0,0,1-.21-.67h0v-.01h0a.5163.5163,0,0,1,.68-.21h0a.5094.5094,0,0,1,.21.68h0a.5137.5137,0,0,1-.45.27h0a.5258.5258,0,0,1-.23-.06Zm.98-2.54a.492.492,0,0,1-.4318-.5456l.0018-.0139h0a.4879.4879,0,0,1,.5377-.4322l.0123.0015h0a.4952.4952,0,0,1,.4407.5441l-.0007.0059h0a.4977.4977,0,0,1-.5.44h-.06Zm-.38-3.23a.5019.5019,0,0,1,.5-.5h0a.5084.5084,0,0,1,.5.5h0a.5013.5013,0,0,1-.5.5h0a.4951.4951,0,0,1-.5-.49v-.0112Z"/><path class="cls-6" d="M195.68,120.0013a.5306.5306,0,0,1-.36-.15.5233.5233,0,0,1-.14-.3594.3962.3962,0,0,1,.04-.1806.4912.4912,0,0,1,.1-.17.5246.5246,0,0,1,.71,0,.513.513,0,0,1,.11.17.5869.5869,0,0,1,.04.1806.6551.6551,0,0,1-.04.2.568.568,0,0,1-.11.1592.5554.5554,0,0,1-.16.11A.59.59,0,0,1,195.68,120.0013Z"/><path class="cls-6" d="M180.59,120.971a.4039.4039,0,0,1-.19-.04.4447.4447,0,0,1-.17-.1094.4367.4367,0,0,1-.1-.16.4039.4039,0,0,1-.04-.19.4972.4972,0,0,1,.14-.35.5125.5125,0,0,1,.71,0,.4512.4512,0,0,1,.11.16.6431.6431,0,0,1,.04.1894.5871.5871,0,0,1-.04.19.4614.4614,0,0,1-.11.16.4173.4173,0,0,1-.16.1094A.4312.4312,0,0,1,180.59,120.971Z"/><path class="cls-6" d="M180.09,123.0413a.4951.4951,0,0,1,.49-.5h.01a.5012.5012,0,0,1,.5.5h0a.5012.5012,0,0,1-.5.5h0a.4951.4951,0,0,1-.5-.49Z"/><path class="cls-6" d="M185.43,131.6312a.5063.5063,0,0,1-.31-.64h0a.5038.5038,0,0,1,.64-.3h0a.5058.5058,0,0,1,.31.64h0a.5159.5159,0,0,1-.47.33h0A.4591.4591,0,0,1,185.43,131.6312Zm-2.38-1.34a.5045.5045,0,0,1-.07-.7h0a.5078.5078,0,0,1,.71-.08h0a.5159.5159,0,0,1,.07.71h0a.5133.5133,0,0,1-.39.1807h0a.56.56,0,0,1-.32-.1106Zm-1.79-2.05a.5026.5026,0,0,1,.17-.69h0a.5065.5065,0,0,1,.69.17h0a.5021.5021,0,0,1-.17.6807h0a.4971.4971,0,0,1-.26.0791h0a.5215.5215,0,0,1-.43-.2395Zm-1-2.54a.4922.4922,0,0,1,.3723-.5883l.0077-.0017h0a.5088.5088,0,0,1,.6.39h0a.507.507,0,0,1-.39.59h0a.378.378,0,0,1-.1.01h0a.4926.4926,0,0,1-.49-.4Z"/><path class="cls-6" d="M188.13,132.1009a.5737.5737,0,0,1-.19-.04.4484.4484,0,0,1-.16-.1094.4948.4948,0,0,1-.11-.55.415.415,0,0,1,.11-.16.52.52,0,0,1,.7,0,.415.415,0,0,1,.11.16.4944.4944,0,0,1-.11.55.45.45,0,0,1-.16.1094A.5712.5712,0,0,1,188.13,132.1009Z"/><path class="cls-6" d="M165.49,120.0013a.4686.4686,0,0,1-.35-.15.42.42,0,0,1-.11-.1592.44.44,0,0,1-.04-.19.5115.5115,0,0,1,.15-.36.4891.4891,0,0,1,.54-.1.43.43,0,0,1,.16.1.5088.5088,0,0,1,.15.36.4341.4341,0,0,1-.04.19.4211.4211,0,0,1-.11.1592.45.45,0,0,1-.16.11A.5924.5924,0,0,1,165.49,120.0013Z"/><path class="cls-6" d="M165.91,116.9515a.507.507,0,0,1-.26-.66h0a.51.51,0,0,1,.66-.26h0a.5028.5028,0,0,1,.26.66h0a.49.49,0,0,1-.46.3h0A.5241.5241,0,0,1,165.91,116.9515Z"/><path class="cls-6" d="M179.82,117.5716a.483.483,0,0,1,.319-.604l.021-.006h0a.5012.5012,0,0,1,.62.34h0a.507.507,0,0,1-.35.62h0a.6023.6023,0,0,1-.13.02h0A.49.49,0,0,1,179.82,117.5716Zm-1.33-2.53a.5061.5061,0,0,1,.07-.71h0a.5031.5031,0,0,1,.7.07h0a.4975.4975,0,0,1-.0591.7011l-.0109.0089h0a.5146.5146,0,0,1-.31.1094h0a.4979.4979,0,0,1-.39-.18Zm-10.97-.71a.5034.5034,0,0,1,.02-.71h0a.5046.5046,0,0,1,.71.02h0a.5046.5046,0,0,1-.03.71h0a.4789.4789,0,0,1-.34.13h0a.5076.5076,0,0,1-.36-.15Zm8.74-1.1006a.4954.4954,0,0,1-.2111-.6679l.0011-.0021h0a.5017.5017,0,0,1,.67-.22h0a.5018.5018,0,0,1,.2233.6736l-.0033.0064h0a.5131.5131,0,0,1-.45.27h0a.5262.5262,0,0,1-.23-.0607Zm-6.23-.68a.49.49,0,0,1,.2936-.6277l.0064-.0023h0a.4934.4934,0,0,1,.6356.2877l.0044.0123h0a.5018.5018,0,0,1-.3.6406h0a.518.518,0,0,1-.17.0293h0a.5011.5011,0,0,1-.47-.34Zm3.48-.08a.5044.5044,0,0,1-.47-.5362l0-.0038h0a.5011.5011,0,0,1,.53-.46h0a.49.49,0,0,1,.4713.508l-.0013.022h0a.51.51,0,0,1-.5.47Z"/><path class="cls-6" d="M180.58,121.0316a.5.5,0,0,1-.35-.1407.49.49,0,0,1-.15-.3593.47.47,0,0,1,.15-.3506.4912.4912,0,0,1,.54-.1094.4527.4527,0,0,1,.16.1094.47.47,0,0,1,.15.3506.4888.4888,0,0,1-.15.3593A.5.5,0,0,1,180.58,121.0316Z"/><path class="cls-6" d="M150.39,120.971a.4691.4691,0,0,1-.35-.1494.5116.5116,0,0,1-.15-.3506.6431.6431,0,0,1,.04-.1894.4534.4534,0,0,1,.11-.16.5127.5127,0,0,1,.71,0,.5516.5516,0,0,1,.14.35.5873.5873,0,0,1-.03.19.6611.6611,0,0,1-.11.16.384.384,0,0,1-.17.1094A.4012.4012,0,0,1,150.39,120.971Z"/><path class="cls-6" d="M149.89,123.0413a.5013.5013,0,0,1,.5-.5h0a.4948.4948,0,0,1,.5.4895v.0105h0a.4948.4948,0,0,1-.4895.5H150.39A.5013.5013,0,0,1,149.89,123.0413Z"/><path class="cls-6" d="M155.23,131.6312a.5007.5007,0,0,1-.3-.64h0a.5.5,0,0,1,.64-.3h0a.4926.4926,0,0,1,.3049.6264l-.0049.0136h0a.4952.4952,0,0,1-.47.33h0A.5382.5382,0,0,1,155.23,131.6312Zm-2.37-1.34a.4953.4953,0,0,1-.0727-.6967l.0027-.0033h0a.4955.4955,0,0,1,.6959-.0832l.0041.0032h0a.5068.5068,0,0,1,.07.71h0a.4991.4991,0,0,1-.39.1807h0a.5088.5088,0,0,1-.31-.1106Zm-1.79-2.05a.5.5,0,0,1,.1586-.6891l.0014-.0009h0a.5021.5021,0,0,1,.69.1693l0,.0007h0a.4935.4935,0,0,1-.1655.678l-.0045.0027h0a.492.492,0,0,1-.25.0791h0a.5079.5079,0,0,1-.43-.2395Zm-1.01-2.54a.5063.5063,0,0,1,.39-.59h0a.4944.4944,0,0,1,.5877.3786l.0023.0114h0a.5.5,0,0,1-.39.59h0a.3179.3179,0,0,1-.1.01h0a.5.5,0,0,1-.49-.4Z"/><path class="cls-6" d="M157.94,132.1009a.5342.5342,0,0,1-.36-.1494.5849.5849,0,0,1-.11-.16.6283.6283,0,0,1-.03-.19.69.69,0,0,1,.03-.1992.5733.5733,0,0,1,.11-.16.5528.5528,0,0,1,.16-.1006.5277.5277,0,0,1,.39,0,.4809.4809,0,0,1,.31.46.6476.6476,0,0,1-.04.19.5849.5849,0,0,1-.11.16A.53.53,0,0,1,157.94,132.1009Z"/><path class="cls-6" d="M157.938,132.098a.5.5,0,1,1-.0034-1h.0034a.5.5,0,0,1,0,1Z"/><path class="cls-6" d="M160.15,131.2913a.503.503,0,0,1,.29-.65l0,0h0a.4883.4883,0,0,1,.6339.2739l.0061.0161h0a.4922.4922,0,0,1-.28.637l-.01.0036h0a.3627.3627,0,0,1-.17.04h0A.512.512,0,0,1,160.15,131.2913Z"/><path class="cls-6" d="M162.57,130.0316a.4957.4957,0,0,1,.0291-.7l.0109-.01h0a.5133.5133,0,0,1,.71.04h0a.5134.5134,0,0,1-.04.71h0a.5013.5013,0,0,1-.34.13h0A.4983.4983,0,0,1,162.57,130.0316Zm1.82-2.03a.49.49,0,0,1-.216-.6584l.006-.0116h0v-.01h0a.5069.5069,0,0,1,.67-.21h0a.501.501,0,0,1,.2122.6759l-.0022.0041h0a.4992.4992,0,0,1-.4405.27h0a.4672.4672,0,0,1-.23-.06Zm.98-2.54a.5064.5064,0,0,1-.44-.5595h0a.4977.4977,0,0,1,.5563-.4312l.0037.0005h0a.5025.5025,0,0,1,.44.55h0a.5051.5051,0,0,1-.5.44h-.06Zm-.39-3.23a.5084.5084,0,0,1,.5-.5h0a.5019.5019,0,0,1,.5.5h0a.4951.4951,0,0,1-.49.5h-.01a.5013.5013,0,0,1-.5-.5008Z"/><path class="cls-6" d="M165.48,120.0013a.5051.5051,0,0,1-.35-.15.4787.4787,0,0,1-.11-.54.5048.5048,0,0,1,.11-.17.5244.5244,0,0,1,.71,0,.49.49,0,0,1,.1.17.3962.3962,0,0,1,.04.1806.6492.6492,0,0,1-.03.2.8936.8936,0,0,1-.11.1592.5424.5424,0,0,1-.36.15Z"/><polyline class="cls-7" points="349.569 121.667 350.095 122.661 349.518 123.706"/><polyline class="cls-7" points="349.518 123.733 350.043 124.727 349.467 125.772"/><polyline class="cls-7" points="349.621 119.591 350.146 120.585 349.57 121.63"/><polyline class="cls-7" points="347.279 118.891 347.804 119.885 347.228 120.93"/><polyline class="cls-7" points="347.227 120.957 347.753 121.951 347.177 122.996"/><polyline class="cls-7" points="347.331 116.815 347.856 117.809 347.28 118.854"/><polyline class="cls-7" points="355.139 121.667 355.664 122.661 355.088 123.706"/><polyline class="cls-7" points="355.087 123.733 355.613 124.727 355.036 125.772"/><polyline class="cls-7" points="355.19 119.591 355.716 120.585 355.14 121.63"/><polyline class="cls-7" points="352.849 118.891 353.374 119.885 352.798 120.93"/><polyline class="cls-7" points="352.797 120.957 353.322 121.951 352.746 122.996"/><polyline class="cls-7" points="352.9 116.815 353.426 117.809 352.849 118.854"/><polyline class="cls-7" points="360.708 121.667 361.234 122.661 360.657 123.706"/><polyline class="cls-7" points="360.657 123.733 361.182 124.727 360.606 125.772"/><polyline class="cls-7" points="360.76 119.591 361.285 120.585 360.709 121.63"/><polyline class="cls-7" points="358.418 118.891 358.943 119.885 358.367 120.93"/><polyline class="cls-7" points="358.366 120.957 358.892 121.951 358.316 122.996"/><polyline class="cls-7" points="358.47 116.815 358.995 117.809 358.419 118.854"/><polyline class="cls-7" points="363.988 118.891 364.513 119.885 363.937 120.93"/><polyline class="cls-7" points="363.936 120.957 364.461 121.951 363.885 122.996"/><polyline class="cls-7" points="364.039 116.815 364.565 117.809 363.988 118.854"/><path class="cls-5" d="M361.5393,113.339c-15.4671-4.6607-21.5473-3.2474-28.72-.1669"/><path class="cls-5" d="M360.858,113.1337c13.3979,3.3246,21.1571,3.9453,34.8135-3.3484"/><path class="cls-5" d="M337.6875,129.1255c-7.4242,2.2371-11.1776,2.3017-13.54-.8148"/><path class="cls-5" d="M337.3605,129.224c6.4309-1.5958,10.1554-1.8937,16.71,1.6073"/><path class="cls-5" d="M370.288,131.1705c-6.3224,1.9826-10.022,2.5057-16.7772-.5916"/><path class="cls-4" d="M196.9712,91.9935a9.4641,9.4641,0,0,0,1.9551-.4,1.6163,1.6163,0,0,1,.3388-.1079c.03,0,.0616.0156.0616.1079,0,.2-.0157,1.57-.0459,2.5713-.0157,1.2929.0146,4.5263.0459,5.1884.0459.9546.123,1.0469.77,1.1548.17.0308.2461.0923.2461.1538s-.0918.1084-.292.1084c-.7857,0-1.2632-.0771-1.8023-.0771-.7539,0-1.0468.0771-1.5859.0771-.1377,0-.2617-.0312-.2617-.124,0-.0615.0928-.0923.247-.123.7237-.1231.8614-.2618.8926-1.17.0459-.4775.0772-1.3085.0772-3.9414,0-1.8628-.0156-2.3711-.0459-2.7558a.3764.3764,0,0,0-.2-.3389,2.3676,2.3676,0,0,0-.3858-.0923c-.0918-.0156-.23-.0615-.23-.123C196.7554,92.055,196.8481,92.0086,196.9712,91.9935Z"/><path class="cls-4" d="M204.3633,91.1c.5849.0156,1.5859.0772,2.417.0772.0615,0,.1386.123.1845.2153.5235,1.2163,2.6944,5.62,3.2334,6.605.0313.0922.0772.0464.1084-.0157.4307-.77,2.2784-4.5722,2.6172-5.3266a12.8208,12.8208,0,0,0,.4766-1.2471c0-.0308.1084-.2309.1855-.2309.6924,0,1.1543-.0928,2.0938-.0928.2,0,.2764.0464.2764.1079,0,.0771-.1377.1387-.2461.1543-.8926.1846-.9239.3848-.97,1.2314-.0312.6158-.0312,2.1861-.0312,2.9409,0,1.6778.0771,3.2178.1084,3.7413.0615.8774.2158,1.062.8467,1.247.1386.0459.2461.0923.2461.1695,0,.0615-.1075.1074-.2774.1074-.5537,0-1.2314-.0918-1.832-.0918s-1.3545.0459-1.57.0459c-.1075,0-.2774-.0156-.2774-.1235,0-.0616.1543-.1382.2617-.169.6319-.1387.7237-.4775.7706-1.6631.0458-.8008.0615-4.5263.0615-5.373,0-.0616-.047-.1695-.0772-.0464-1.0166,2.1094-2.6787,5.5581-3.2793,7.0054-.123.2461-.1845.354-.2773.354s-.169-.231-.2461-.4c-.5547-1.3238-2.7871-6.25-3.1875-7.02-.0615-.1387-.0918-.1538-.1231.0771-.0615.6465-.2,4.2954-.2,5.3579a5.2509,5.2509,0,0,0,.0616,1.062c.0615.354.3545.585.8164.6778.1543.0307.2461.0923.2461.1538,0,.1079-.1387.1391-.292.1235-.2774.0156-.8164-.0615-1.34-.0615-.4922,0-.9238.0771-1.1084.0771-.2314,0-.2929-.0312-.2929-.1084,0-.0463.0468-.1079.2617-.1694.4473-.123.6777-.2153.832-.4463a3.8,3.8,0,0,0,.3535-1.6938c.0928-.8775.293-4.003.293-5.1885,0-.9082-.0459-1.1084-.3389-1.4165a1.2786,1.2786,0,0,0-.8007-.3692c-.1075-.0307-.2461-.0927-.2461-.1694S204.2705,91.1,204.3633,91.1Z"/><path class="cls-4" d="M216.93,95.4266a6.9653,6.9653,0,0,0,1.5088-.4619,1.369,1.369,0,0,1,.23-.0923c.0469,0,.0772.0464.0616.2158-.03.3232-.03,1.1084-.03,1.7549,0,1.7246,0,2.956.03,3.187a.4666.4666,0,0,0,.416.4775c.1689.0459.2158.0923.2158.1538,0,.0772-.1084.1084-.2314.1084-.2618,0-.6153-.0771-1.2627-.0771-.6768,0-1.0313.03-1.2.03-.1387,0-.2618-.0459-.2618-.1079,0-.0767.0918-.1075.2774-.1382.3994-.0928.5078-.293.5078-.8316,0-.4619.0459-3.1406.0459-3.2949,0-.2925,0-.354-.4-.6313-.0771-.0616-.123-.1075-.123-.169C216.7139,95.5193,216.76,95.473,216.93,95.4266Zm1.832-2.4478a.7373.7373,0,0,1-.7037.7695c-.017.0008-.0341.0009-.0512.0005a.6962.6962,0,0,1-.6464-.7081.7365.7365,0,0,1,.6862-.7836l.0374-.0015a.7246.7246,0,0,1,.6774.7232Z"/><path class="cls-4" d="M222.1807,96.951c0,2.0015.0146,2.6172.03,2.8945.0157.4927.1084.5542.5088.6465.0918.0156.1992.0615.1992.1387,0,.062-.1533.1079-.3076.1079-.4619,0-1.0771-.0459-1.3086-.0459-.416,0-.7392.03-1.1543.03-.1543,0-.2773-.03-.2773-.1079s.1074-.1075.23-.1382c.416-.0772.5088-.1695.539-.8316.0313-.6313.0928-3.4951.1084-4.9731,0-.8467.0147-2.4785,0-3.002,0-.3545-.0771-.4619-.4316-.6469-.1074-.0616-.1543-.1231-.1543-.169s.0928-.0928.2314-.1235a8.7734,8.7734,0,0,0,1.5547-.4312.6685.6685,0,0,1,.2158-.0615c.03,0,.0616.0923.0616.1694,0,.1079-.0459,2.6792-.0459,5.3423Z"/><path class="cls-4" d="M228.4941,96.6121a.2318.2318,0,0,1-.1845.2158c-.17-.0156-2.0791-.0463-2.4942-.0463h-.5547c-.0459,0-.1074.0771-.1386.123a2.3627,2.3627,0,0,0-.0772.6313,2.5249,2.5249,0,0,0,.6778,1.8169,2.0738,2.0738,0,0,0,2.7714.1387c.1075-.1235.169-.0928.169-.0156s-.03.123-.1074.2309a2.7242,2.7242,0,0,1-2.2637,1.1705,2.5408,2.5408,0,0,1-1.9092-.8008,3.0634,3.0634,0,0,1-.7383-2.0786,3.1432,3.1432,0,0,1,1.0313-2.3555,2.904,2.904,0,0,1,1.8779-.6929A1.8117,1.8117,0,0,1,228.4941,96.6121Zm-2.956-.9389a1.8248,1.8248,0,0,0-.3389.7851c0,.0308.0313.0923.0772.0923l1.4629-.0151c.415,0,.4462-.231.4462-.37a1.1967,1.1967,0,0,0-.2158-.7392.7679.7679,0,0,0-.5693-.2617A1.1976,1.1976,0,0,0,225.5381,95.6732Z"/><path class="cls-4" d="M232.3291,100.1224a1.7327,1.7327,0,0,1-.1846-.8775v-3.187c0-.1694-.0156-.2768-.0771-.3081a2.536,2.536,0,0,0-.3692-.0923c-.123-.0307-.2-.0766-.2-.1382,0-.0312.0157-.0771.1846-.1542a3.28,3.28,0,0,0,1.2627-1.0313c.1387-.1543.2461-.1235.2461-.0464,0,.1387-.03.57-.0146.7544,0,.0464.0146.1387.0761.1387.2774,0,1.5557-.0464,1.8789-.0464.03,0,.0918.1079.0918.2158,0,.2617-.0761.3848-.1533.3848-.5391,0-1.2939-.0156-1.709-.0156-.1845,0-.2158.0463-.2158.1386,0,.2617.0156,2.6792.0313,3.1563a1.5772,1.5772,0,0,0,.1689.8315,1.1375,1.1375,0,0,0,.9541.4155,1.5087,1.5087,0,0,0,.8477-.2309c.1074-.0772.1533-.0615.1533,0,0,.0923-.1387.2466-.3389.4a2.11,2.11,0,0,1-1.2471.4009A1.4271,1.4271,0,0,1,232.3291,100.1224Z"/><path class="cls-4" d="M241.5674,97.9056a2.9568,2.9568,0,1,1-4.8037-2.2632,3.1642,3.1642,0,0,1,1.8476-.647,2.8892,2.8892,0,0,1,2.9554,2.8216C241.5674,97.8465,241.5676,97.8761,241.5674,97.9056Zm-4.8037-.2158a3.5222,3.5222,0,0,0,.6474,2.1093,1.8287,1.8287,0,0,0,1.4473.816,1.52,1.52,0,0,0,.97-.3848,3.0683,3.0683,0,0,0,.6465-2.063c0-1.4629-.7392-2.91-2.0937-2.91-.7855,0-1.6175.8314-1.6175,2.4327Z"/><path class="cls-4" d="M246.373,95.15c.1387,0,.2618.0308.2618.1074,0,.0464-.1534.108-.2618.1236-.3691.0615-.3535.2-.2919.4463.23.7085.8925,2.4633,1.247,3.3256.0157.0459.0772.0616.0918.0152.2471-.5235.9239-2.0166,1.0781-2.417.0157-.0772.0616-.1846.03-.2617-.0762-.2-.1845-.4463-.2617-.6314a.819.819,0,0,0-.585-.5078c-.1386-.0307-.2148-.0615-.2148-.1235s.0762-.0923.2305-.0923c.3232,0,.7236.0464,1.0468.0464.4463,0,.6319-.0308.9082-.0308.17,0,.2315.0308.2315.0767,0,.062-.1084.1235-.2315.1543-.3535.0766-.4462.1386-.2617.6157.17.477.9854,2.71,1.2012,3.187.0459.0772.0771.0151.0771,0,.1846-.4.9239-2.1553,1.1084-2.6787a3.51,3.51,0,0,0,.2461-.7393c0-.1386-.0615-.2773-.4619-.3847-.2-.0615-.2461-.1079-.2461-.1543,0-.0615.0928-.0923.2-.0923.2617,0,.5391.0464.7852.0464.1543,0,.539-.0464.7695-.0464.1387,0,.2158.0308.2158.0923s-.0459.0928-.2773.1543c-.2764.0766-.4619.2925-.6621.708-.2764.5542-.7383,1.6167-1.2158,2.71-.2618.6309-.5391,1.3086-.7237,1.8013-.0927.2461-.1543.293-.2.293-.0615,0-.1074-.0615-.1689-.2778-.0772-.2154-.1856-.5235-.37-1.0469-.292-.8311-.6153-1.709-.9239-2.5249-.0156-.0464-.0459-.0772-.0771,0-.1387.2925-.7852,1.709-1,2.248-.2315.5078-.37.8618-.5391,1.3086-.0771.2158-.1543.293-.2158.293s-.1074-.1084-.1543-.2778c-.0762-.2154-.1689-.585-.4307-1.3238-.2773-.7544-1.1542-3.0332-1.3242-3.3257a.8772.8772,0,0,0-.6777-.6c-.1231-.0308-.2148-.0767-.2148-.1231,0-.0923.1074-.123.2773-.123.1992,0,.6611.0615,1.0928.0615C245.7578,95.1805,246.0654,95.15,246.373,95.15Z"/><path class="cls-4" d="M257.1074,95.7811a3.7347,3.7347,0,0,1,.2149,1.4008c0,.57-.0459,2.0323-.0459,2.4327a.5273.5273,0,0,0,.5693.5849.9863.9863,0,0,0,.4473-.1386c.0918-.0459.1533,0,.0918.1386a1.2968,1.2968,0,0,1-1.1856.6621,1.0345,1.0345,0,0,1-.9082-.6928.0541.0541,0,0,0-.0745-.0174l-.0026.0017a2.1547,2.1547,0,0,1-1.5088.6929,1.2774,1.2774,0,0,1-1.2316-1.3216l0-.0021a1.0879,1.0879,0,0,1,.5537-.878c.37-.2,1.7715-.6157,2.0948-.7387a.2922.2922,0,0,0,.2-.231,5.339,5.339,0,0,0,.03-.7085c0-.6308-.1074-1.062-.3691-1.2622a1.1749,1.1749,0,0,0-.6465-.2466,1.06,1.06,0,0,0-.6162.1851.62.62,0,0,0-.2314.3691,1.6689,1.6689,0,0,0-.0147.293.1933.1933,0,0,1-.0615.1231,3.3337,3.3337,0,0,1-.7236.3388c-.0772.0152-.1543-.0771-.1543-.1387,0-.1079.1074-.2465.2929-.4619a3.9819,3.9819,0,0,1,1.17-.893,2.0664,2.0664,0,0,1,.9239-.2774A1.2626,1.2626,0,0,1,257.1074,95.7811Zm-1.0322,4.2339a.6407.6407,0,0,0,.17-.37,11.07,11.07,0,0,0,.0772-1.4629c0-.0151-.0313-.0923-.0625-.0766a8.6751,8.6751,0,0,0-1.416.5234.7969.7969,0,0,0-.3848.77.8941.8941,0,0,0,.9238.8623A1.0546,1.0546,0,0,0,256.0752,100.015Z"/><path class="cls-4" d="M260.541,96.951c0,1.94.0156,2.6636.0313,2.956.0146.4156.1074.5235.5381.6006.0927.0152.2.0616.2.1075,0,.062-.1074.1079-.3076.1079-.2461,0-.8008-.03-1.0625-.03-.4,0-.8008.03-1.0312.03-.1846,0-.2617-.0147-.2617-.0923s.0771-.0923.2773-.1387c.3848-.0771.4766-.2153.5381-.8931.0312-.5693.0928-3.1713.1084-5.019,0-1.2471.0156-2.51,0-3.187,0-.3389-.0313-.4155-.4317-.6621-.1074-.0615-.1533-.0923-.1533-.1382s.0918-.0928.23-.1235a7.9842,7.9842,0,0,0,1.1554-.354.6356.6356,0,0,1,.1845-.0464c.03,0,.0459.0927.0459.1694,0,.1079-.0615,2.7715-.0615,5.0811Z"/><path class="cls-4" d="M266.3311,95.1805c.3378,0,.9541-.0772,1.3544-.0772.169,0,.2305.0464.2305.0923,0,.0308-.0459.0928-.2305.1236a2.7416,2.7416,0,0,0-1.416.6772c-.4.3081-1.1552.9546-1.4472,1.2314-.0313.0313,0,.0772.0146.108.4619.539,1.57,1.7246,2.294,2.4633a1.9881,1.9881,0,0,0,1.1093.7237c.1377.0307.2305.0771.2305.1386,0,.0928-.1387.1084-.2617.1084-.5235,0-1.1084-.0771-1.709-.0771-.2617,0-.4619.0156-.6924.0156-.17,0-.2773,0-.2773-.0932,0-.0767.0771-.1075.3535-.169.2616-.062.293-.2.1543-.416-.3233-.37-1.416-1.5239-1.8779-1.9858-.1232-.1236-.2316-.231-.293-.231-.0459,0-.0615.0923-.0615.1538-.0157.2773-.03.7852-.0157,1.6318,0,.7393.1231.7852.6006.8931.1543.0464.2315.0772.2315.1387,0,.0776-.1231.1079-.293.1079-.4307,0-.7539-.0459-1.1543-.0459-.4932,0-.8164.0459-1.001.0459-.1543,0-.2461-.0459-.2461-.1079,0-.0464.0918-.0923.2-.1079.4766-.1231.585-.2618.6153-.77.0615-1.124.0771-2.4174.0771-3.6181.0156-1.2012.0615-3.1719.0615-4.3726a2.6525,2.6525,0,0,0-.0615-.7085c-.03-.123-.1689-.2153-.3545-.3076-.0762-.0464-.1377-.0771-.1377-.1079,0-.0615.0918-.0923.2461-.1387a9.4782,9.4782,0,0,0,1.0928-.3691.7177.7177,0,0,1,.2461-.0772c.0156,0,.0469.0459.0469.1231-.0313.5083-.0772,1.8628-.0772,3.0024,0,.4771-.0771,2.5093-.0771,4.2031,0,.1695.0312.2461.0771.2461a.7729.7729,0,0,0,.3076-.1694,13.1581,13.1581,0,0,0,1.663-1.54.5586.5586,0,0,0,.169-.2769c0-.0923-.1075-.1851-.4462-.2466-.1387-.0151-.2617-.0615-.2617-.123s.1074-.1079.246-.1079C265.8076,95.1649,266.1611,95.1805,266.3311,95.1805Z"/><path class="cls-4" d="M270.4121,97.7361c-.1387-1.4316-.4775-3.9257-.5078-4.88-.0156-.4619.2617-1.14.6777-1.14.4463,0,.6924.5391.6924,1.0777,0,.7085-.4463,4.0957-.5078,4.896-.0312.3237-.0928.4619-.17.4619C270.5049,98.1517,270.4434,98.0594,270.4121,97.7361Zm-.5078,2.4327a.74.74,0,0,1,.708-.7237c.4619,0,.6162.5235.6162.7388a.6681.6681,0,0,1-.6162.6621A.695.695,0,0,1,269.9043,100.1688Z"/></svg>