<svg id="Layer_1" data-name="Layer 1" xmlns="http://www.w3.org/2000/svg" viewBox="0 0 398.9999 200.0001"><path d="M244.2092,64.576c.1225,0,.2756-.0152.2756-.0918s-.0919-.1224-.3215-.153c-.5356-.1072-.6427-.2755-.6733-.9948-.0306-.52-.0306-.8111-.0306-1.21,0-.7192,0-1.607.0306-2.0967a1.7722,1.7722,0,0,1,.2142-.5969c.4592-.75,1.5-2.5558,2.296-3.5812a1.6867,1.6867,0,0,1,1.1326-.78c.2448-.0306.3367-.0918.3367-.153s-.1072-.0918-.2756-.0918c-.23,0-.7192.0765-1.0864.0765-.4285,0-.6733-.0613-1.1018-.0613-.1531,0-.245.0307-.245.0766,0,.0765.1378.1224.26.153.3979.0765.5663.1989.5663.3826a1.7983,1.7983,0,0,1-.352.8111c-.3214.551-1.3008,2.158-1.8212,3.015-.0459.0765-.1531,0-.1836-.0153-.3674-.505-1.7136-2.8313-1.99-3.3057a1.6033,1.6033,0,0,1-.26-.5816c0-.1072.0919-.1989.4592-.2755.1531-.0306.245-.0765.245-.153,0-.0613-.0766-.0919-.245-.0919-.2754,0-.75.046-1.24.046-.4592,0-1.209-.0765-1.4846-.0765-.1989,0-.2911,0-.2911.0918,0,.0459.0764.1071.3214.153.4592.0918.7346.3214,1.2243.9948.4438.6272,1.7136,2.7552,2.2191,3.673a.8713.8713,0,0,1,.1071.3367c.0153.199.0307.4744.0307,1.4233,0,.6581-.0307,1.6688-.0613,1.9743-.0459.5969-.1377.75-.75.8265-.1837.0306-.3368.0765-.3368.1376,0,.0766.1072.1226.3214.1226.4286,0,.7193-.0613,1.24-.0613C243.3063,64.5,243.5971,64.576,244.2092,64.576Zm4.3925.1072a2.931,2.931,0,0,0,2.9075-2.9533,2.8721,2.8721,0,0,0-2.8507-2.8932c-.0292,0-.0585,0-.0877.0007a3.1409,3.1409,0,0,0-1.8368.6427,2.9187,2.9187,0,0,0,1.8671,5.2036Zm.2142-.26a1.8192,1.8192,0,0,1-1.4386-.8111,3.5038,3.5038,0,0,1-.6428-2.0967c0-1.5916.8265-2.4181,1.607-2.4181,1.3467,0,2.0813,1.4386,2.0813,2.8925a3.0475,3.0475,0,0,1-.6428,2.05,1.513,1.513,0,0,1-.9641.3825Zm7.9735.23a6.8909,6.8909,0,0,1,1.5764-.4131c.153-.0306.2912-.0613.2912-.1224a.1842.1842,0,0,0-.1837-.168,4.3235,4.3235,0,0,0-.6272.1377c-.1224.0153-.168-.0153-.199-.168a3.6164,3.6164,0,0,1-.03-.5744v-.206c0-1.7753.03-3.3058.1071-4.0251.0153-.1071-.0153-.168-.0612-.168a8.1024,8.1024,0,0,1-1.0561.0918h-.6427c-.0919,0-.23.0307-.23.0918,0,.0459.0765.0919.2448.1224.505.1072.6581.1837.6733.7041,0,.3979.0154,1.1172.0154,1.3468,0,.5509,0,1.1477-.0306,1.561a.938.938,0,0,1-.2755.704,1.7151,1.7151,0,0,1-1.3009.49,1.1249,1.1249,0,0,1-.857-.3826,1.6917,1.6917,0,0,1-.23-1.01c-.0152-.7039,0-2.7853.0459-3.6577.0154-.0918-.0306-.1837-.0765-.168a5.3842,5.3842,0,0,1-1.2855.1989c-.168,0-.245.0307-.245.0766s.046.0919.1837.1836a.5955.5955,0,0,1,.3367.5051c.0307.26.0307,2.8466.0307,3.3516a1.6019,1.6019,0,0,0,.2912.9336,1.5041,1.5041,0,0,0,1.3314.551,2.62,2.62,0,0,0,.903-.23,4.3948,4.3948,0,0,0,1.056-.75c.0306-.0458.0459.0612.0459.1072,0,.1071-.0153.4438-.0153.5968,0,.168,0,.2449.0306.2912s.06.06.1823-.0009Zm7.27.0154a2.6455,2.6455,0,0,0,2.112-1.01.3975.3975,0,0,0,.1224-.2449c0-.0459-.0765-.03-.107,0a2.0533,2.0533,0,0,1-1.5917.5816,2.1752,2.1752,0,0,1-1.4233-.5357,2.5759,2.5759,0,0,1-.7653-1.9895c0-1.76,1.056-2.3722,1.6988-2.3722a1.3717,1.3717,0,0,1,.5815.1224,4.1971,4.1971,0,0,1,.8571.6272.4749.4749,0,0,0,.26.153.5226.5226,0,0,0,.3826-.49.3515.3515,0,0,0-.2143-.2912,2.33,2.33,0,0,0-1.3927-.3825,3.3544,3.3544,0,0,0-2.2651.8876,2.9239,2.9239,0,0,0-.9335,2.1273,2.8844,2.8844,0,0,0,.7652,2.0661,2.79,2.79,0,0,0,1.9129.75Zm6.7033,0a1.29,1.29,0,0,0,1.1785-.6581c.0611-.1377,0-.1836-.0919-.1377a.9726.9726,0,0,1-.4438.1377.524.524,0,0,1-.5663-.5815c0-.398.0459-1.8518.0459-2.4181a3.6984,3.6984,0,0,0-.2143-1.3927,1.2545,1.2545,0,0,0-1.1784-.7806,2.0528,2.0528,0,0,0-.9184.2756A3.9847,3.9847,0,0,0,267.41,60c-.1835.2142-.2912.352-.2912.4592,0,.0612.0765.1531.1531.1377a3.2845,3.2845,0,0,0,.7193-.3366.1891.1891,0,0,0,.0612-.1225,1.5937,1.5937,0,0,1,.0153-.2912.612.612,0,0,1,.23-.3673,1.0541,1.0541,0,0,1,.6122-.1837,1.1654,1.1654,0,0,1,.6427.2449c.26.1989.3673.6272.3673,1.2544a5.2059,5.2059,0,0,1-.0306.704.29.29,0,0,1-.1989.23c-.3214.1224-1.7142.5357-2.0814.7346a1.0781,1.0781,0,0,0-.551.8723,1.27,1.27,0,0,0,1.2213,1.316h.003a2.1422,2.1422,0,0,0,1.5-.6887.0536.0536,0,0,1,.0746.0124l.0019.0029a1.0277,1.0277,0,0,0,.9034.69Zm-1.8059-.5969a.889.889,0,0,1-.9184-.857.7921.7921,0,0,1,.3826-.7653,8.63,8.63,0,0,1,1.4081-.52c.0306-.0153.0612.0612.0612.0766a10.9837,10.9837,0,0,1-.0765,1.4538.6349.6349,0,0,1-.168.3674A1.05,1.05,0,0,1,268.9568,64.0717Zm5.9075.398c0-.0766-.0765-.1072-.26-.1531-.2448-.0765-.4285-.153-.4744-.49a12.5809,12.5809,0,0,1-.0919-1.607c0-.9184-.0152-1.6988-.0152-1.8825a.7931.7931,0,0,1,.1836-.4592,1.8313,1.8313,0,0,1,1.1938-.49,1.3616,1.3616,0,0,1,.8722.2912c.3827.2913.49.6581.49,1.8978v2.0813c0,.4438-.0612.551-.4285.6428-.199.046-.2912.1071-.2912.168s.107.0919.2448.0919c.23,0,.4285-.0613.9489-.0613.3366,0,.7805.0613.98.0613.153,0,.2754-.0154.2754-.1072,0-.0613-.0918-.0918-.23-.153-.4131-.1072-.4592-.199-.4744-1.24,0-.7652-.0152-.8876-.0152-1.6987a3.1955,3.1955,0,0,0-.49-2.0048,1.5624,1.5624,0,0,0-1.1937-.52,2.07,2.07,0,0,0-.903.1837,5.2652,5.2652,0,0,0-1.0864.6887c-.0307.0306-.0765-.0154-.0765-.0459a6.9077,6.9077,0,0,1,.0306-.8111c.0153-.0766-.0612-.1378-.1072-.1226a5.742,5.742,0,0,1-1.209.52c-.1377.0459-.2143.0918-.2143.1225,0,.0459.0307.0765.1225.1377.3673.199.3979.3673.3979.52,0,1.24,0,2.6477-.0306,3.75-.0153.3061-.0766.4131-.4592.49-.1837.0307-.3215.0919-.3215.1531,0,.0765.1224.1071.2911.1071.2912,0,.6124-.0306.8111-.0306.3519,0,1.1019.0613,1.2243.0613.1532,0,.306,0,.306-.0918Zm8.77,4.5913a3.6513,3.6513,0,0,0,1.8518-.5051A3.0884,3.0884,0,0,0,287.2,66.0613a1.5815,1.5815,0,0,0-1.7136-1.6988c-.4285,0-1.27.0459-1.7446.0459-.7959,0-1.4233-.153-1.4233-.6427a.4862.4862,0,0,1,.1679-.3367,2.3447,2.3447,0,0,1,.5356-.5051.2941.2941,0,0,1,.1837-.0458,3.7161,3.7161,0,0,0,.6428.0764,2.1077,2.1077,0,0,0,1.1938-.3979,2.53,2.53,0,0,0,.9641-2.0661c0-.2755-.0306-.52-.0306-.6272a.1381.1381,0,0,1,.0919-.0918c.168,0,.7192.0307.9335.0307.0611,0,.168-.1224.168-.2755,0-.1837-.0612-.3367-.1377-.3367-.23,0-.8418.0306-1.1325.0306a1.1175,1.1175,0,0,1-.5358-.0765,3.4638,3.4638,0,0,0-1.5611-.3979,2.3535,2.3535,0,0,0-1.6221.6272,1.8478,1.8478,0,0,0-.6428,1.4692,2.31,2.31,0,0,0,1.1784,1.9129c.0307.0154.0459.0766.0307.0919a6.71,6.71,0,0,1-1.27,1.1325.19.19,0,0,0-.0918.1531c0,.6121.8111,1.1478,1.24,1.24.0459.0153.0306.1071.0152.1378-.306.3367-.8723,1.0559-.9794,1.1783a.9752.9752,0,0,0-.2755.6582c0,1.1325,1.0259,1.7141,2.25,1.7141Zm.3214-6.3361a1.2481,1.2481,0,0,1-.9489-.4438,2.7741,2.7741,0,0,1-.4744-1.6376,2.14,2.14,0,0,1,.4132-1.3468,1.1488,1.1488,0,0,1,.78-.3519,1.0767,1.0767,0,0,1,.9184.52,2.7393,2.7393,0,0,1,.4744,1.7136c0,.7045-.46,1.5462-1.1634,1.5462Zm.3061,5.8157a2.0921,2.0921,0,0,1-1.454-.4592,1.5664,1.5664,0,0,1-.5968-1.1631,1.935,1.935,0,0,1,.6581-1.362.9438.9438,0,0,1,.52-.1378c.4132-.0153,1.1632-.0307,1.7448-.0307.9794,0,1.3776.5663,1.3776,1.21a2.0422,2.0422,0,0,1-.8265,1.5763,2.3793,2.3793,0,0,1-1.4237.3665Zm5.9074-3.872a2.7049,2.7049,0,0,0,2.1274-.9642.5783.5783,0,0,0,.153-.2449c0-.0764-.0612-.107-.1836.0154a1.9544,1.9544,0,0,1-1.454.49,2.0675,2.0675,0,0,1-1.53-.6272,2.743,2.743,0,0,1-.7041-1.8518,2.1083,2.1083,0,0,1,.1225-.8418c.0305-.046.1071-.1225.1377-.1225h.8265c.352,0,2.3415.0306,2.464.046a.18.18,0,0,0,.153-.168,1.7664,1.7664,0,0,0-1.8672-1.5611,2.8479,2.8479,0,0,0-1.913.7652,3.19,3.19,0,0,0-.8877,2.2345,2.9932,2.9932,0,0,0,.7346,2.0507,2.4712,2.4712,0,0,0,1.821.78Zm-1.27-4.3617a.0659.0659,0,0,1-.0611-.0613,1.3459,1.3459,0,0,1,.3213-.6272,1.59,1.59,0,0,1,1.1173-.5663,1.072,1.072,0,0,1,.7652.2912.9864.9864,0,0,1,.2143.6428c0,.1377-.0306.3061-.3674.3061Zm6.2749,4.3311a2.1016,2.1016,0,0,0,1.24-.3979c.1989-.153.3367-.3061.3367-.398,0-.0611-.046-.0765-.1531,0a1.4959,1.4959,0,0,1-.8417.23,1.131,1.131,0,0,1-.9489-.4132,1.5685,1.5685,0,0,1-.168-.8264c-.0153-.4744-.0307-2.8773-.0307-3.1374,0-.0919.0307-.1378.2143-.1378.4133,0,1.1632.0153,1.6988.0153.0765,0,.1531-.1224.1531-.3825,0-.1072-.0612-.2143-.0918-.2143-.3214,0-1.5917.0459-1.8672.0459-.0612,0-.0765-.0918-.0765-.1377-.0153-.1837.0153-.6122.0153-.75,0-.0765-.1071-.1071-.2449.0459a3.2647,3.2647,0,0,1-1.2551,1.0255c-.1679.0764-.1835.1224-.1835.1529,0,.0613.0765.1071.199.1378a2.5131,2.5131,0,0,1,.3673.0918c.0612.0306.0765.1377.0765.3061V63.06a1.72,1.72,0,0,0,.1837.8723,1.4176,1.4176,0,0,0,1.3767.7045Zm6.4125,0a2.1,2.1,0,0,0,1.24-.3979c.1991-.153.3367-.3061.3367-.398,0-.0611-.0458-.0765-.153,0a1.4962,1.4962,0,0,1-.8418.23,1.1312,1.1312,0,0,1-.9488-.4132,1.5685,1.5685,0,0,1-.168-.8264c-.0153-.4744-.0306-2.8773-.0306-3.1374,0-.0919.0306-.1378.2143-.1378.4132,0,1.1631.0153,1.6988.0153.0765,0,.153-.1224.153-.3825,0-.1072-.0612-.2143-.0919-.2143-.3213,0-1.5916.0459-1.867.0459-.0612,0-.0766-.0918-.0766-.1377-.0152-.1837.0154-.6122.0154-.75,0-.0765-.1072-.1071-.2449.0459a3.2611,3.2611,0,0,1-1.2544,1.0255c-.168.0764-.1836.1224-.1836.1529,0,.0613.0765.1071.1989.1378a2.5067,2.5067,0,0,1,.3673.0918c.0612.0306.0765.1377.0765.3061V63.06a1.7243,1.7243,0,0,0,.1837.8723,1.4179,1.4179,0,0,0,1.3762.7045Zm7.9124-.0613c.1377,0,.2448-.0459.2448-.107s-.0459-.0919-.2448-.1378c-.4592-.0765-.52-.1837-.52-.49-.0153-.5815-.0153-1.53-.0306-2.6782a2.95,2.95,0,0,0-.3368-1.6376,1.63,1.63,0,0,0-1.3776-.6887,2.4,2.4,0,0,0-1.0712.26,5.0455,5.0455,0,0,0-.9184.6272c-.0152.0307-.0611.0154-.0611-.0458-.0155-.2912.0459-5.0352.0611-5.4483.0155-.2143-.0307-.3215-.0766-.3215a.3335.3335,0,0,0-.1528.0613,6.37,6.37,0,0,1-1.1174.3672c-.168.046-.26.0919-.26.1378s.0459.0765.1072.1224c.3367.1837.4438.23.4592.7193.0307.5816,0,1.5151,0,3.8261,0,2.4334-.0152,3.8416-.0611,4.4536-.0152.5815-.1225.6272-.5661.7346-.1836.0459-.245.0765-.245.1378s.0766.0918.245.0918c.2912,0,.52-.0613.9949-.0613.4437,0,.8416.0613,1.27.0613.1376,0,.23-.0459.23-.0918,0-.0767-.107-.1072-.3367-.1532a.5408.5408,0,0,1-.49-.52,30.4614,30.4614,0,0,1-.0766-3.2905.77.77,0,0,1,.1532-.5661,1.8471,1.8471,0,0,1,1.3467-.5663,1.1454,1.1454,0,0,1,1.056.5663,2.45,2.45,0,0,1,.23,1.1478c0,1.5916-.0307,2.2651-.0612,2.617-.0613.4438-.0919.551-.505.6428-.1531.0306-.23.0612-.23.1225,0,.0459.0612.0918.2448.0918.352,0,.4745-.0613.9948-.0613.4132,0,.7039.0767,1.1019.0767Zm3.4893.0919a2.7048,2.7048,0,0,0,2.1274-.9642.5783.5783,0,0,0,.153-.2449c0-.0764-.0611-.107-.1836.0154a1.9544,1.9544,0,0,1-1.454.49,2.0675,2.0675,0,0,1-1.53-.6272,2.744,2.744,0,0,1-.7041-1.8518,2.1083,2.1083,0,0,1,.1225-.8418c.0305-.046.1071-.1225.1377-.1225h.8265c.352,0,2.3415.0306,2.464.046a.18.18,0,0,0,.153-.168,1.7659,1.7659,0,0,0-1.8671-1.5611,2.8486,2.8486,0,0,0-1.913.7652,3.19,3.19,0,0,0-.8876,2.2345,2.9913,2.9913,0,0,0,.7348,2.0507,2.4708,2.4708,0,0,0,1.8208.78Zm-1.27-4.3617a.0658.0658,0,0,1-.0612-.0613,1.347,1.347,0,0,1,.3214-.6272,1.59,1.59,0,0,1,1.1172-.5663,1.0708,1.0708,0,0,1,.7652.2912.9864.9864,0,0,1,.2143.6428c0,.1377-.0306.3061-.3673.3061Zm7.9736,4.377a2.541,2.541,0,0,0,1.2243-.3366,1.5711,1.5711,0,0,0,.7952-1.2857c0-.78-.3978-1.1631-1.3926-1.8059-.3827-.23-.9642-.5968-.9642-1.24a.8916.8916,0,0,1,.8318-.9475c.0288-.0018.0578-.0023.0866-.0014a1.2565,1.2565,0,0,1,.7193.23,1.1623,1.1623,0,0,1,.3672.6272c.046.1071.0766.1837.1378.1837.0459,0,.0766-.0766.0766-.2449-.0154-.2449-.0766-.551-.0919-.7193a.2479.2479,0,0,0-.0765-.1378,3.75,3.75,0,0,0-1.0406-.168,1.9793,1.9793,0,0,0-1.2857.4285,1.4512,1.4512,0,0,0-.5815,1.21c0,.6735.6122,1.24,1.27,1.6683.6122.3826,1.01.7039,1.01,1.2855a1.0493,1.0493,0,0,1-.9948,1.0254,1.1712,1.1712,0,0,1-.6887-.1837,1.49,1.49,0,0,1-.6428-.8265c-.1071-.2912-.153-.2912-.199-.2912-.0306,0-.0765.046-.0459.245.0154.168.0459.5509.0459.7652,0,.0918.1072.1989.23.2448a3.115,3.115,0,0,0,1.2093.2754Zm4.9892-.0459a2.1,2.1,0,0,0,1.24-.3979c.1989-.153.3366-.3061.3366-.398,0-.0611-.0459-.0765-.153,0a1.4959,1.4959,0,0,1-.8417.23,1.1311,1.1311,0,0,1-.9489-.4133,1.5679,1.5679,0,0,1-.168-.8263c-.0153-.4744-.0306-2.8773-.0306-3.1374,0-.0919.0306-.1378.2143-.1378.4132,0,1.1631.0153,1.6988.0153.0765,0,.153-.1224.153-.3826,0-.1071-.0612-.2142-.0918-.2142-.3214,0-1.5917.0459-1.8672.0459-.0611,0-.0765-.0918-.0765-.1378-.0153-.1836.0154-.6121.0154-.75,0-.0765-.1072-.1071-.245.0459a3.26,3.26,0,0,1-1.2544,1.0254c-.168.0765-.1835.1225-.1835.153,0,.0613.0764.1071.1989.1378a2.5067,2.5067,0,0,1,.3673.0918c.0612.0306.0765.1377.0765.3061V63.06a1.7215,1.7215,0,0,0,.1837.8724,1.4179,1.4179,0,0,0,1.3762.7045Zm4.8973.0459a2.9312,2.9312,0,0,0,2.9081-2.9533,2.8721,2.8721,0,0,0-2.8507-2.8932q-.0437,0-.0878.0007a3.1427,3.1427,0,0,0-1.8368.6427,2.9187,2.9187,0,0,0,1.8671,5.2036Zm.2143-.26a1.819,1.819,0,0,1-1.439-.8115,3.5057,3.5057,0,0,1-.6428-2.0968c0-1.5916.8263-2.418,1.6068-2.418,1.3469,0,2.0814,1.4386,2.0814,2.8925a3.0467,3.0467,0,0,1-.6427,2.0508,1.5121,1.5121,0,0,1-.964.383Zm3.7037.168A8.3,8.3,0,0,1,334.43,64.5c.6427,0,1.1479.0613,1.4386.0613.23,0,.3672-.0307.3672-.1072s-.0764-.1071-.2912-.1378c-.5815-.0611-.7651-.168-.8264-.6427-.0306-.3214-.0612-1.1172-.0612-2.25a8.8634,8.8634,0,0,1,.0153-.9335.8787.8787,0,0,1,.26-.5357,1.0458,1.0458,0,0,1,.6735-.3061,1.0708,1.0708,0,0,1,.5356.1837.691.691,0,0,0,.2756.1072c.0459,0,.107-.0154.2448-.1378a1.0472,1.0472,0,0,0,.3367-.52.2674.2674,0,0,0-.1071-.2143.891.891,0,0,0-.5357-.199,2.4979,2.4979,0,0,0-1.6528,1.1019c-.0459.046-.0766.0306-.0766-.0153,0-.2448.0154-.8265.0154-.9948,0-.153-.0306-.2142-.0613-.2142a.4819.4819,0,0,0-.23.0765,4.6389,4.6389,0,0,1-.98.3673c-.1377.0459-.23.1071-.23.1378s.0153.0765.1224.153c.2913.2448.398.2912.398.3979v1.6992c0,1.01-.0154,1.8823-.0459,2.1425a.6327.6327,0,0,1-.5511.6272c-.1224.0306-.2295.1071-.2295.153,0,.0616.0767.0922.26.0922Zm5.4177,4.1934a.5757.5757,0,0,0,.5051-.26,2.1137,2.1137,0,0,0,.2912-.5663c.2143-.52.7959-2.112,1.1632-3,.3214-.8263.4592-1.1784.6427-1.6835.23-.5815,1.1785-2.9384,1.3622-3.321.2449-.5663.3979-.6733.7039-.7652.1531-.0459.2143-.1072.2143-.1531s-.0918-.0611-.1836-.0611c-.23,0-.4285.0459-.704.0459-.23,0-.551-.0459-.7347-.0459-.1377,0-.2142.03-.2142.0918,0,.0459.0459.0918.2755.1378.26.0765.3367.1989.3367.306a1.15,1.15,0,0,1-.0765.4438c-.1226.352-.98,2.5558-1.1785,3.0762-.0153.0459-.0612.0613-.0918,0-.3061-.6428-1.1479-2.7088-1.3468-3.2445-.1378-.398-.1071-.4745.23-.5815.0919-.0154.199-.0613.199-.1226s-.1071-.107-.26-.107c-.1989,0-.5969.0459-.8111.0459-.3673,0-.7959-.0613-1.0713-.0613-.1072,0-.245.0306-.245.1072,0,.0459.0919.1071.2756.153a.8185.8185,0,0,1,.5509.4133c.6887,1.5,1.6684,3.9791,1.8978,4.576a.7486.7486,0,0,1,.0155.49c-.52,1.3316-.9642,2.5866-1.1171,2.9079a.37.37,0,0,1-.3979.26c-.1071,0-.199-.0306-.3061-.0306a.4514.4514,0,0,0-.4285.4438.5088.5088,0,0,0,.5042.5054ZM241.9136,81.3788a2.9309,2.9309,0,0,0,2.9078-2.9537,2.872,2.872,0,0,0-2.8506-2.8932h0c-.0291,0-.0583,0-.0875.0006a3.1426,3.1426,0,0,0-1.8368.6428,2.9187,2.9187,0,0,0,1.8672,5.2035Zm.2142-.26a1.819,1.819,0,0,1-1.4385-.8111,3.5042,3.5042,0,0,1-.6429-2.0968c0-1.5916.8265-2.4181,1.607-2.4181,1.3468,0,2.0814,1.4387,2.0814,2.8925a3.0477,3.0477,0,0,1-.6428,2.0509,1.5133,1.5133,0,0,1-.9642.3825Zm3.75.1377c.26-.0153.5968-.0612.9488-.0612.7806,0,1.0254.0459,1.4693.0459.1376,0,.2448-.0306.2448-.1071,0-.0613-.0919-.0918-.2755-.1378-.1989-.0459-.3673-.0459-.49-.0918-.1531-.0459-.2755-.168-.3214-.75-.0153-.4437-.046-3.2292-.046-3.7954,0-.0153.0307-.1378.0765-.1378.2143,0,1.3163.0307,1.5611.0307.1837,0,.2143-.0613.2143-.2755,0-.1837-.0612-.2756-.1225-.2756-.168,0-1.4692.0307-1.6069.0307a.12.12,0,0,1-.1225-.0918,4.5014,4.5014,0,0,1-.0152-.49c0-.4744.0306-1.5611.0765-2.0355.153-1.6375.6887-2.0814,1.3776-2.0814a1.8061,1.8061,0,0,1,1.0864.52.2756.2756,0,0,0,.3061.0306.752.752,0,0,0,.3826-.5051c0-.23-.4133-.49-1.0407-.49a2.5033,2.5033,0,0,0-1.3776.4131,3.5249,3.5249,0,0,0-1.5456,2.0355,9.7525,9.7525,0,0,0-.26,2.51.2976.2976,0,0,1-.1531.2143l-.3672.23c-.1072.0611-.1837.107-.1837.153,0,.0305.0918.1072.1989.1224.1837.0153.352.0153.4285.0153.0613.0154.0766.0919.0766.1989V80.154c0,.551-.0766.7653-.4438.8571-.1991.0459-.3061.0917-.3061.153s.092.0923.23.0923Zm11.4016.2143a5.5521,5.5521,0,0,0,2.9843-.8418.4079.4079,0,0,0,.153-.23,10.7639,10.7639,0,0,0,.2143-1.209c0-.0919-.0306-.23-.0918-.23s-.0918.0612-.1528.26a2.743,2.743,0,0,1-1.1785,1.5,3.2473,3.2473,0,0,1-1.8212.4285,3.6544,3.6544,0,0,1-2.617-1.1324,5.8009,5.8009,0,0,1-1.4081-3.7037,5.5265,5.5265,0,0,1,1.1631-3.55,3.6914,3.6914,0,0,1,2.663-1.1937,3.5069,3.5069,0,0,1,2.3414.7652,2.3865,2.3865,0,0,1,.7346,1.2243c.0306.1225.0765.199.1378.199.0306,0,.0918-.0918.0918-.2449a11.7056,11.7056,0,0,1-.0459-1.1784.2718.2718,0,0,0-.1531-.26,7.0677,7.0677,0,0,0-3-.75,5.5,5.5,0,0,0-3.5659,1.27,4.8809,4.8809,0,0,0-1.7136,3.8721A5.3535,5.3535,0,0,0,253.3,79.8488a5.2679,5.2679,0,0,0,3.9788,1.6219Zm6.9176-.1072a2.705,2.705,0,0,0,2.1273-.9641.5815.5815,0,0,0,.153-.2449c0-.0765-.0613-.1071-.1837.0153a1.9529,1.9529,0,0,1-1.4538.49,2.0675,2.0675,0,0,1-1.53-.6272,2.744,2.744,0,0,1-.7041-1.8518,2.1114,2.1114,0,0,1,.1225-.8417c.0307-.0459.1071-.1225.1377-.1225h.8265c.3519,0,2.3415.0307,2.464.0459a.18.18,0,0,0,.153-.168,1.766,1.766,0,0,0-1.867-1.5611,2.848,2.848,0,0,0-1.913.7653,3.19,3.19,0,0,0-.8876,2.2344,2.9921,2.9921,0,0,0,.7347,2.0508,2.4708,2.4708,0,0,0,1.8213.78Zm-1.27-4.3617a.0661.0661,0,0,1-.0612-.0612,1.3459,1.3459,0,0,1,.3213-.6272,1.59,1.59,0,0,1,1.1172-.5663,1.0712,1.0712,0,0,1,.7653.2912.9851.9851,0,0,1,.2143.6428c0,.1378-.0307.3061-.3674.3061Zm4.2393,4.2852a8.2531,8.2531,0,0,1,.9336-.0918c.6428,0,1.1478.0612,1.4385.0612.23,0,.3674-.0306.3674-.1072s-.0765-.107-.2912-.1376c-.5816-.0613-.7653-.168-.8265-.6429-.0307-.3213-.0613-1.1172-.0613-2.25a8.84,8.84,0,0,1,.0154-.9337.88.88,0,0,1,.26-.5357,1.0453,1.0453,0,0,1,.6733-.3059,1.071,1.071,0,0,1,.5357.1835.69.69,0,0,0,.2754.1072c.0459,0,.1072-.0153.245-.1377a1.0476,1.0476,0,0,0,.3366-.52.2666.2666,0,0,0-.1072-.2143.8908.8908,0,0,0-.5356-.1989,2.4988,2.4988,0,0,0-1.6528,1.1019c-.046.0459-.0765.0306-.0765-.0153,0-.2449.0152-.8264.0152-.9948,0-.153-.0306-.2143-.0611-.2143a.4842.4842,0,0,0-.23.0766,4.641,4.641,0,0,1-.98.3673c-.1377.0459-.23.1072-.23.1377s.0154.0765.1225.153c.2912.245.3979.2912.3979.398v1.699c0,1.01-.0155,1.8824-.0459,2.1426a.6327.6327,0,0,1-.551.6272c-.1224.03-.2295.107-.2295.1529,0,.0614.077.092.2607.092Zm4.3771,0a8.2536,8.2536,0,0,1,.9335-.0918c.6428,0,1.1479.0612,1.4386.0612.23,0,.3674-.0306.3674-.1072s-.0766-.107-.2913-.1376c-.5815-.0613-.7651-.168-.8263-.6429-.0307-.3213-.0611-1.1172-.0611-2.25a8.8135,8.8135,0,0,1,.0152-.9337.8789.8789,0,0,1,.26-.5357,1.0452,1.0452,0,0,1,.6734-.3059,1.0722,1.0722,0,0,1,.5356.1835.6871.6871,0,0,0,.2755.1072c.0459,0,.1072-.0153.2448-.1377a1.048,1.048,0,0,0,.3368-.52.2678.2678,0,0,0-.1072-.2143.8913.8913,0,0,0-.5357-.1989,2.4984,2.4984,0,0,0-1.6528,1.1019c-.0459.0459-.0766.0306-.0766-.0153,0-.2449.0154-.8264.0154-.9948,0-.153-.0306-.2143-.0612-.2143a.4831.4831,0,0,0-.23.0766,4.6485,4.6485,0,0,1-.98.3673c-.1377.0459-.23.1072-.23.1377s.0153.0765.1224.153c.2913.245.398.2912.398.398v1.699c0,1.01-.0154,1.8824-.0459,2.1426a.6327.6327,0,0,1-.551.6272c-.1225.03-.23.107-.23.1529,0,.0614.077.092.2607.092Zm7.1777.0918a2.9308,2.9308,0,0,0,2.9079-2.9537,2.872,2.872,0,0,0-2.8506-2.8932h0c-.0292,0-.0584,0-.0875.0006a3.1435,3.1435,0,0,0-1.8368.6428,2.9187,2.9187,0,0,0,1.8671,5.2035Zm.2143-.26a1.82,1.82,0,0,1-1.4387-.8111,3.5049,3.5049,0,0,1-.6427-2.0968c0-1.5916.8264-2.4181,1.6069-2.4181,1.3469,0,2.0815,1.4387,2.0815,2.8925a3.0471,3.0471,0,0,1-.6427,2.0509,1.5135,1.5135,0,0,1-.9642.3826Zm10.2691.2755a8.5966,8.5966,0,0,1,1.5918-.398c.2754-.0459.3826-.1836.3826-.2912,0-.0459-.0459-.0918-.1377-.0612a3.9979,3.9979,0,0,1-.7194.168.1357.1357,0,0,1-.107-.1378c-.0155-.3978-.0307-1.4539-.0307-2.7853,0-1.5611.0766-6.535.1071-6.9941.0153-.1837-.0153-.26-.0612-.26a.5191.5191,0,0,0-.2142.0764,6.4629,6.4629,0,0,1-1.3163.3673c-.1071.0153-.1836.0613-.1836.1072s.0765.0918.1836.1224a.8375.8375,0,0,1,.4286.2448.41.41,0,0,1,.0612.26c.0152.8112.0306,3.52.0306,3.7956,0,.03-.0459.0917-.0765.0765a4.2264,4.2264,0,0,0-1.01-.1378,3.44,3.44,0,0,0-1.8977.5816,3.0454,3.0454,0,0,0-1.3315,2.5252,2.9006,2.9006,0,0,0,.7952,2.0508,2.4969,2.4969,0,0,0,1.6223.6428,2.8731,2.8731,0,0,0,1.7447-.7194c.0306-.0306.0612,0,.0612.0307a4.6778,4.6778,0,0,1-.0306.6272c.0006.0469.0466.1234.1077.1082Zm-1.3161-.5663c-.9336,0-1.8671-.857-1.8671-2.51a2.7176,2.7176,0,0,1,.8416-2.2192,1.1307,1.1307,0,0,1,.7653-.26,1.702,1.702,0,0,1,1.362.704,1,1,0,0,1,.1378.3672,21.1622,21.1622,0,0,1,.0153,2.9538,1.0334,1.0334,0,0,1-.168.5663,1.5978,1.5978,0,0,1-1.0868.3979Zm6.3665.5356a2.7052,2.7052,0,0,0,2.1274-.9641.58.58,0,0,0,.1531-.2449c0-.0765-.0613-.1071-.1837.0153a1.9538,1.9538,0,0,1-1.4538.49,2.0671,2.0671,0,0,1-1.53-.6272,2.7421,2.7421,0,0,1-.7042-1.8518,2.1023,2.1023,0,0,1,.1225-.8417c.0307-.0459.1069-.1225.1377-.1225h.8265c.3519,0,2.3414.0307,2.4639.0459a.18.18,0,0,0,.1532-.168A1.7663,1.7663,0,0,0,294.5,75.5336a2.8484,2.8484,0,0,0-1.9131.7653,3.19,3.19,0,0,0-.8876,2.2344,2.9915,2.9915,0,0,0,.7346,2.0508,2.4711,2.4711,0,0,0,1.8212.78Zm-1.27-4.3617a.0662.0662,0,0,1-.0613-.0612,1.3451,1.3451,0,0,1,.3214-.6272,1.59,1.59,0,0,1,1.1172-.5663,1.0708,1.0708,0,0,1,.7652.2912.9851.9851,0,0,1,.2143.6428c0,.1378-.0306.3061-.3673.3061Zm12.6872,4.3008a.3635.3635,0,0,0,.3214-.1531c.0613-.1071.3521-.9489.398-1.0713.0765-.1989.0918-.4285.03-.4285s-.1377.0612-.2448.2448c-.3061.551-.6428.9336-.9795.9948a6.7222,6.7222,0,0,1-1.3467.0766c-1.24,0-1.6529-.1531-1.8212-.3827a2.8312,2.8312,0,0,1-.2143-1.2091c-.0135-.2543-.0269-1.4579-.03-2.7288V75.544c.0033-1.1927.0165-2.28.03-2.5058.0459-1.0561.0765-1.1478.7039-1.27.1224-.0306.2143-.0765.2143-.153,0-.0459-.0612-.0765-.2448-.0765-.3521,0-.7806.0612-1.255.0612-.4132,0-.903-.0765-1.3776-.0765-.1531,0-.2449.0459-.2449.0918,0,.0613.0459.1071.23.1378.6581.1224.7041.2142.75,1.0864.0268.4553.0419,1.3207.0448,2.9243v2.1214c-.0028,1.2038-.0143,1.8868-.06,2.346-.0459.4744-.1378.6887-.7958.8111-.1377.0153-.2755.0611-.2755.1224,0,.0918.1377.1072.3214.1072.2143,0,.903-.0766,1.3776-.0766.5356,0,1.6376.0459,2.4028.0766.75.0459,1.9129.0305,2.0659.0305Zm3.9639.0611a2.7048,2.7048,0,0,0,2.1272-.9641.5791.5791,0,0,0,.1531-.2449c0-.0765-.0612-.1071-.1836.0153a1.954,1.954,0,0,1-1.4539.49,2.0682,2.0682,0,0,1-1.53-.6272,2.7427,2.7427,0,0,1-.7038-1.8518,2.1022,2.1022,0,0,1,.1224-.8417c.0307-.0459.107-.1225.1377-.1225h.8263c.3519,0,2.3417.0307,2.4639.0459a.18.18,0,0,0,.1531-.168,1.766,1.766,0,0,0-1.8671-1.561,2.8468,2.8468,0,0,0-1.9129.7653,3.1886,3.1886,0,0,0-.8877,2.2344,2.9924,2.9924,0,0,0,.7348,2.0507,2.4708,2.4708,0,0,0,1.8212.78Zm-1.27-4.3617a.066.066,0,0,1-.0611-.0612,1.3435,1.3435,0,0,1,.3213-.6272,1.5891,1.5891,0,0,1,1.1172-.5662,1.07,1.07,0,0,1,.7652.2912.9837.9837,0,0,1,.2144.6427c0,.1378-.0307.3061-.3674.3061Zm7.3,4.3771a2.9311,2.9311,0,0,0,2.9079-2.9538,2.872,2.872,0,0,0-2.8506-2.8932h0c-.0292,0-.0583,0-.0875.0007a3.1428,3.1428,0,0,0-1.8369.6427,2.9188,2.9188,0,0,0,1.8672,5.2036Zm.2143-.26a1.8192,1.8192,0,0,1-1.4386-.8111,3.5043,3.5043,0,0,1-.6428-2.0968c0-1.5916.8264-2.418,1.607-2.418,1.3468,0,2.0814,1.4386,2.0814,2.8925a3.048,3.048,0,0,1-.6428,2.0508,1.5137,1.5137,0,0,1-.9642.3824Zm9.4428.1377c.153,0,.2754-.0153.2754-.1071,0-.0612-.0917-.0918-.2295-.153-.4132-.1072-.4592-.1989-.4744-1.24,0-.7653-.0154-.8878-.0154-1.6989a3.1939,3.1939,0,0,0-.49-2.0048,1.5624,1.5624,0,0,0-1.1937-.52,2.07,2.07,0,0,0-.903.1837,5.2678,5.2678,0,0,0-1.0864.6887c-.0306.03-.0765-.0153-.0765-.046a6.9069,6.9069,0,0,1,.0306-.8111c.0154-.0765-.0612-.1377-.1071-.1224a5.7524,5.7524,0,0,1-1.209.52c-.1377.0459-.2143.0918-.2143.1224,0,.0459.0306.0765.1225.1377.3672.199.3978.3673.3978.52l-.0011,1.2781c-.0023.8661-.0091,1.7368-.0295,2.4714-.0152.3061-.0765.4132-.4592.49-.1837.0306-.3214.0918-.3214.153,0,.0765.1224.1072.2912.1072.2912,0,.6121-.0307.8111-.0307.352,0,1.1018.0613,1.2243.0613.1531,0,.3061,0,.3061-.0919,0-.0765-.0765-.107-.26-.153-.2448-.0766-.4285-.1531-.4745-.49a12.5637,12.5637,0,0,1-.0918-1.607l-.0012-.4844c-.0038-.698-.0141-1.2478-.0141-1.398a.7932.7932,0,0,1,.1837-.4592,1.8293,1.8293,0,0,1,1.1937-.49,1.36,1.36,0,0,1,.8724.2912c.3826.2912.49.6581.49,1.8978v2.0814c0,.4438-.0611.5509-.4285.6427-.1989.0459-.2912.1071-.2912.168s.1072.0919.2449.0919c.23,0,.4285-.0613.9488-.0613.3369,0,.7806.0608.98.0608Zm3.5812.1071a2.7052,2.7052,0,0,0,2.1274-.9641.58.58,0,0,0,.1529-.2449c0-.0765-.0611-.1071-.1836.0153a1.954,1.954,0,0,1-1.4539.49,2.0675,2.0675,0,0,1-1.53-.6272,2.7435,2.7435,0,0,1-.7039-1.8518,2.1022,2.1022,0,0,1,.1224-.8417c.0306-.0459.1071-.1225.1378-.1225H328.4c.352,0,2.3415.0307,2.4642.0459a.18.18,0,0,0,.1528-.168,1.766,1.766,0,0,0-1.8671-1.561,2.8466,2.8466,0,0,0-1.9129.7653,3.1886,3.1886,0,0,0-.8877,2.2344,2.9921,2.9921,0,0,0,.7345,2.0507,2.4719,2.4719,0,0,0,1.8213.78Zm-1.27-4.3617a.066.066,0,0,1-.0611-.0612,1.3459,1.3459,0,0,1,.3213-.6272,1.5891,1.5891,0,0,1,1.1172-.5662,1.07,1.07,0,0,1,.7653.2912.9849.9849,0,0,1,.2143.6427c0,.1378-.0306.3061-.3674.3061Zm5.7086,4.3771a2.5422,2.5422,0,0,0,1.2243-.3367,1.5707,1.5707,0,0,0,.7959-1.2856c0-.78-.3979-1.1631-1.3927-1.806-.3826-.2294-.9642-.5968-.9642-1.24a.8915.8915,0,0,1,.8318-.9474.8634.8634,0,0,1,.0866-.0014,1.2565,1.2565,0,0,1,.7193.23,1.1614,1.1614,0,0,1,.3673.6272c.0459.1072.0765.1837.1377.1837.0459,0,.0766-.0765.0766-.2449-.0154-.2449-.0766-.551-.0919-.7194a.2467.2467,0,0,0-.0765-.1377,3.7387,3.7387,0,0,0-1.0407-.168,1.9785,1.9785,0,0,0-1.2856.4285,1.4512,1.4512,0,0,0-.5815,1.21c0,.6735.6122,1.24,1.27,1.6682.6122.3826,1.01.7041,1.01,1.2856a1.0492,1.0492,0,0,1-.9948,1.0253,1.1725,1.1725,0,0,1-.6887-.1835,1.4919,1.4919,0,0,1-.6428-.8265c-.1072-.2912-.153-.2912-.1989-.2912-.0307,0-.0766.0459-.0459.2449.0152.168.0459.551.0459.7652,0,.0919.1071.199.2295.2449a3.1192,3.1192,0,0,0,1.209.2749Zm6.4122-7.3158a.5824.5824,0,0,0,.5663-.5815.56.56,0,0,0-.5357-.5816.5672.5672,0,0,0-.5356.5969.5448.5448,0,0,0,.5039.5658Zm.8417,7.1931c.1225,0,.2449-.0306.2449-.1072,0-.0611-.0765-.0917-.23-.1224-.2448-.0611-.3979-.1377-.4285-.4438-.0306-.26-.0306-1.3926-.0306-2.6783,0-.9794,0-1.9129.0306-2.219.0154-.168-.0153-.2143-.0612-.2143a.6222.6222,0,0,0-.23.1071,7.6243,7.6243,0,0,1-1.102.3979c-.1377.0306-.1836.0765-.1836.1224,0,.0307.0459.0765.1225.1224.3808.2041.4353.2994.4426.4685v.2225c-.0058.621-.0311,2.8371-.0448,3.2422-.0152.6272-.153.75-.49.8418-.2142.0306-.2911.0765-.2911.1378s.107.0918.2142.0918c.168,0,.4133-.0306.9184-.0306.4138,0,.98.0612,1.1177.0612Zm6.78,0c.153,0,.2754-.0153.2754-.1072,0-.0611-.0918-.0917-.23-.153-.4132-.1071-.4592-.1989-.4744-1.24,0-.7653-.0154-.8877-.0154-1.6988a3.1939,3.1939,0,0,0-.49-2.0048,1.5624,1.5624,0,0,0-1.1937-.52,2.07,2.07,0,0,0-.903.1836,5.2652,5.2652,0,0,0-1.0864.6887c-.0306.0306-.0765-.0152-.0765-.0459a6.9069,6.9069,0,0,1,.0306-.8111c.0154-.0765-.0612-.1377-.1072-.1224a5.7651,5.7651,0,0,1-1.209.52c-.1377.0459-.2143.0918-.2143.1224,0,.0459.0307.0765.1224.1377.3674.1989.398.3673.398.52l-.0012,1.2781c-.0022.8661-.009,1.7368-.0294,2.4714-.0154.3061-.0765.4132-.4592.49-.1837.0306-.3215.0918-.3215.153,0,.0765.1225.1072.2913.1072.2912,0,.6122-.0307.8112-.0307.3519,0,1.1018.0612,1.2243.0612.1531,0,.306,0,.306-.0918,0-.0765-.0765-.1071-.26-.153-.2449-.0766-.4285-.1531-.4745-.49a12.5621,12.5621,0,0,1-.0918-1.6069l-.0014-.4844c-.0036-.698-.0138-1.2478-.0138-1.398a.7937.7937,0,0,1,.1835-.4592,1.8313,1.8313,0,0,1,1.1938-.49,1.3608,1.3608,0,0,1,.8724.2912c.3826.2912.49.6581.49,1.8977v2.0814c0,.4439-.0612.551-.4285.6428-.199.0459-.2913.1071-.2913.168s.1071.0918.2449.0918c.23,0,.4285-.0612.9488-.0612.3369,0,.7808.061.98.061Z" style="fill:#333838"/><path d="M241.6991,98.0443a2.5593,2.5593,0,0,0,2.1579-1.1325.5427.5427,0,0,0,.1224-.2755c0-.0612-.0612-.0612-.1377,0a1.93,1.93,0,0,1-1.4846.52,2.0274,2.0274,0,0,1-1.3315-.5356,2.7112,2.7112,0,0,1-.6427-1.8825c0-1.7294.7959-2.2344,1.209-2.2344a1.18,1.18,0,0,1,.5663.1224,6.8668,6.8668,0,0,1,.9642.7193.612.612,0,0,0,.26.1378.5655.5655,0,0,0,.49-.5969.414.414,0,0,0-.1835-.2912,2.3456,2.3456,0,0,0-1.5-.4133,3.8129,3.8129,0,0,0-2.25.8724,2.77,2.77,0,0,0,1.76,4.9893Zm5.9687.0306a3.2372,3.2372,0,0,0,1.8368-.5968,3.0628,3.0628,0,0,0,1.1937-2.4029,2.9039,2.9039,0,0,0-2.9111-2.8967h0q-.075,0-.15.0042a3.1171,3.1171,0,0,0-1.9588.704,2.8128,2.8128,0,0,0-1.0864,2.2651,2.96,2.96,0,0,0,2.9934,2.9252c.0273,0,.0547-.001.082-.0021Zm.1836-.2448a1.4815,1.4815,0,0,1-1.1632-.8418,4.59,4.59,0,0,1-.4744-2.25c0-1.3314.6272-2.296,1.2855-2.296,1.0714,0,1.5611,1.2091,1.5611,2.9538a3.6165,3.6165,0,0,1-.505,2.0814.907.907,0,0,1-.704.3524Zm6.2442.107c.153,0,.3061-.0459.3061-.107,0-.0766-.1072-.1226-.1991-.1378-.3978-.0918-.49-.1531-.505-.6428-.0153-.2755-.03-.8877-.03-2.8772V92.9786c0-2.6477.0459-5.2036.0459-5.3106,0-.0766-.0307-.168-.0613-.168a.657.657,0,0,0-.2142.0611,8.7346,8.7346,0,0,1-1.5456.4285c-.1378.0307-.23.0765-.23.1225s.0459.1071.1531.168c.3519.1835.4285.2912.4285.6427.0152.52,0,2.1426,0,2.9844-.0154,1.4692-.0766,4.3158-.1072,4.9432-.0306.6581-.1224.75-.5356.8264-.1225.0306-.23.0613-.23.1378s.1224.1071.2754.1071c.4133,0,.7346-.0306,1.1479-.0306.23,0,.8416.046,1.3008.046Zm4.1015.1378a3.2372,3.2372,0,0,0,1.8368-.5968,3.0635,3.0635,0,0,0,1.1938-2.4029,2.9038,2.9038,0,0,0-2.9109-2.8967h0q-.0748,0-.15.0042a3.1174,3.1174,0,0,0-1.959.704,2.8122,2.8122,0,0,0-1.0864,2.2651,2.96,2.96,0,0,0,2.9934,2.9252q.0411,0,.0823-.0021Zm.1837-.2448a1.4806,1.4806,0,0,1-1.1631-.8418,4.5877,4.5877,0,0,1-.4744-2.25c0-1.3314.6272-2.296,1.2855-2.296,1.0713,0,1.561,1.2091,1.561,2.9538a3.6157,3.6157,0,0,1-.5051,2.0814.9076.9076,0,0,1-.7039.3524Zm3.8108.1376c.3673,0,.3519-.0765,1.27-.0765.7346,0,1.01.0613,1.4386.0613.1991,0,.3213-.0307.3213-.1072s-.0611-.1224-.2754-.153c-.5661-.0765-.6734-.1837-.7345-.6428-.0307-.352-.0614-.9947-.0614-2.0814a10.1856,10.1856,0,0,1,.0307-1.1784.6322.6322,0,0,1,.168-.352.7177.7177,0,0,1,.52-.2143,1.2407,1.2407,0,0,1,.5968.2449.431.431,0,0,0,.26.1071c.0766,0,.1532-.0306.3061-.1837a1.5655,1.5655,0,0,0,.4592-.7346c0-.1224-.0613-.1989-.2143-.3061a.8609.8609,0,0,0-.505-.153c-.5969,0-1.1479.551-1.5763,1.1172-.0152.046-.0766.0306-.0766-.0459,0-.3367.0307-.7651.0307-1.0407,0-.0765-.0459-.168-.0766-.168a.5192.5192,0,0,0-.26.0919,7.8374,7.8374,0,0,1-1.4692.505c-.0612.0306-.168.0918-.168.1377s.0306.0765.1224.1531c.352.306.398.3367.398.4285.0152.1836,0,.5815,0,1.5456-.0154,1.01-.0306,1.8824-.0459,2.1426-.0459.4285-.168.5511-.52.6272-.168.0306-.23.1071-.23.168s.0918.1075.2908.1075Zm6.0144-6.9787a.7327.7327,0,0,0,.7508-.7139v-.0513a.72.72,0,0,0-.6734-.7194.7324.7324,0,0,0-.7208.7437l.0015.0369a.6922.6922,0,0,0,.6424.704Zm1.1173,6.9787c.1224,0,.2295-.0306.2295-.107,0-.0613-.0459-.1072-.2143-.1532a.4623.4623,0,0,1-.4132-.4744c-.0306-.23-.0306-1.4539-.0306-3.1679,0-.6428,0-1.4233.0306-1.7447.0153-.168-.0153-.2143-.0612-.2143a1.3437,1.3437,0,0,0-.23.0918,6.9409,6.9409,0,0,1-1.5.4592c-.168.046-.2143.0919-.2143.1225,0,.0612.0459.1071.1225.168.3979.2754.3979.3366.3979.6272,0,.1529-.0459,2.816-.0459,3.2751,0,.5357-.1071.7346-.505.8264-.1837.0306-.2757.0613-.2757.1378,0,.0612.1225.107.26.107.168,0,.52-.03,1.1937-.03.643,0,.995.077,1.2551.077Zm4.6525-.0152a12.0226,12.0226,0,0,1,1.27-.0613c.3059,0,.8111.0459,1.163.0459.1376,0,.2142-.0305.2142-.0918,0-.0765-.0918-.1071-.168-.1378-.4133-.107-.49-.23-.505-1.1783,0-.857-.0152-1.01-.0307-1.8977a2.7173,2.7173,0,0,0-.5358-1.9285,1.5855,1.5855,0,0,0-1.2243-.52,2.2228,2.2228,0,0,0-.903.199,4.3846,4.3846,0,0,0-.903.5969c-.0306.03-.0765.0152-.0765-.0154a6.0171,6.0171,0,0,1,.0307-.7652c0-.0765-.0766-.1377-.1226-.1224a7.81,7.81,0,0,1-1.6222.6272c-.1377.0307-.2142.0765-.2142.1224,0,.0307-.0154.0613.1224.1531.3061.2143.352.3367.352.49,0,1.408-.0153,2.7394-.0459,3.6271-.0153.3519-.0459.4745-.4744.551-.1378.03-.2756.0918-.2756.1529,0,.0766.1225.1225.2912.1225.4593,0,.8571-.0306,1.056-.0306.352,0,1.2244.0613,1.3776.0613.1072,0,.2755-.0154.2755-.1072,0-.0765-.0612-.1071-.2448-.153a.517.517,0,0,1-.4286-.52c-.0153-.1837-.0458-.9488-.0612-1.8977,0-.7805-.0153-1.5-.0153-1.7907a.46.46,0,0,1,.1532-.3213,1.3762,1.3762,0,0,1,.8263-.2912,1.2211,1.2211,0,0,1,.7193.2143c.3673.2912.4592.6122.4592,1.7906v2.25c0,.352-.0765.4592-.49.5815-.1377.0307-.23.0766-.23.1377s.1061.1078.26.1078Zm5.5248,4.27a3.9632,3.9632,0,0,0,2.2192-.7193,3.0837,3.0837,0,0,0,1.4845-2.3263,1.7364,1.7364,0,0,0-.5356-1.3467,1.8559,1.8559,0,0,0-1.2856-.4285c-.551,0-1.2244.0152-1.6835.0152-.8418,0-1.2858-.2143-1.2858-.5815a.4349.4349,0,0,1,.1225-.2912,1.3017,1.3017,0,0,1,.3674-.3061.279.279,0,0,1,.168-.0306,3.4115,3.4115,0,0,0,.7193.0919,2.473,2.473,0,0,0,1.3009-.4286,2.541,2.541,0,0,0,.9336-2.0048l-.0011-.2607c-.0015-.1344-.0051-.2626-.0144-.336,0-.0153.0459-.0765.0764-.0765.168,0,.6272.0306.8571.0306.0612,0,.1531-.168.1531-.3214,0-.23-.0459-.3673-.1072-.3673-.26,0-.8111.0306-1.0864.0306a1.2863,1.2863,0,0,1-.52-.0765,3.8335,3.8335,0,0,0-1.6529-.398,2.5,2.5,0,0,0-1.7141.6581,1.85,1.85,0,0,0-.6428,1.5,2.1824,2.1824,0,0,0,1.209,1.852c.0307.0152.0459.0459.0307.0611a11.6386,11.6386,0,0,1-1.3315,1.1631c-.0306.0154-.0612.0766-.0612.1837,0,.75.9335,1.2855,1.2244,1.3776a.095.095,0,0,1,.0307.1072c-.2756.26-.78.7652-.9184.9335a.8372.8372,0,0,0-.306.6428c0,.9947.8728,1.6528,2.25,1.6528Zm.4439-6.1524a1.0272,1.0272,0,0,1-.7959-.52,3.2408,3.2408,0,0,1-.3826-1.6834,2.267,2.267,0,0,1,.3064-1.2243.7943.7943,0,0,1,.5662-.3215c.2755,0,.4439.0919.7193.4593a3.2683,3.2683,0,0,1,.4439,1.7753c0,.6885-.2909,1.515-.8572,1.515Zm.2142,5.5552a2.2651,2.2651,0,0,1-1.3468-.4133,1.4644,1.4644,0,0,1-.6272-1.0407,1.445,1.445,0,0,1,.52-1.1172.9728.9728,0,0,1,.3826-.0918c.4285,0,1.3009-.0306,1.8518-.0306,1.0407,0,1.3776.5357,1.3776,1.1325a1.6329,1.6329,0,0,1-.7346,1.255,2.5857,2.5857,0,0,1-1.4237.3064Zm8.2491-3.55a3.5948,3.5948,0,0,0,2.5405-1.0561,3.0411,3.0411,0,0,0,.7958-2.1272,2.7674,2.7674,0,0,0-.704-1.8368,2.4852,2.4852,0,0,0-1.9283-.8264,2.5979,2.5979,0,0,0-1.4082.4285c-.0459.0153-.0918,0-.0918-.1071,0-1.3621.0459-3.918.0918-4.8821,0-.168-.0307-.23-.0611-.23a.6774.6774,0,0,0-.2756.0765,10.6159,10.6159,0,0,1-1.5763.4285c-.1835.0307-.2449.0919-.2449.1378,0,.0306.0459.0765.168.168.3215.199.3519.2912.3978.5357.0458.3061.0614,1.1019.0614,2.3722-.0156,1.6069-.0459,3.9485-.0766,4.775a11.98,11.98,0,0,1-.1225,1.6987c0,.0459.0459.1377.1073.1072.2756-.1072.3671-.1072.4436-.0765a5.0531,5.0531,0,0,0,1.883.4138Zm.5509-.3061a1.6563,1.6563,0,0,1-.6428-.1378,1.1825,1.1825,0,0,1-.52-.4592,5.5642,5.5642,0,0,1-.2449-1.7447c0-.5969-.0153-2.02.0459-2.296a.41.41,0,0,1,.1071-.26,1.2948,1.2948,0,0,1,.5816-.1376,1.8033,1.8033,0,0,1,1.3162.658,3.5934,3.5934,0,0,1,.5816,2.02h-.0154a3.91,3.91,0,0,1-.4285,1.8671,1.0758,1.0758,0,0,1-.78.49Zm6.81.3061a3.2366,3.2366,0,0,0,1.8368-.5969A3.0628,3.0628,0,0,0,298.8,95.0751a2.9041,2.9041,0,0,0-2.9112-2.8968h0q-.0748,0-.15.0043a3.1173,3.1173,0,0,0-1.9589.704,2.8128,2.8128,0,0,0-1.0864,2.2651,2.96,2.96,0,0,0,2.9933,2.9253q.0412,0,.0825-.0021Zm.1837-.2448a1.48,1.48,0,0,1-1.1632-.8418,4.59,4.59,0,0,1-.4745-2.25c0-1.3314.6272-2.296,1.2856-2.296,1.0713,0,1.5611,1.2091,1.5611,2.9538a3.6174,3.6174,0,0,1-.5051,2.0814.9072.9072,0,0,1-.7038.3525Zm6.8717.2448a3.2366,3.2366,0,0,0,1.8368-.5969,3.0635,3.0635,0,0,0,1.1937-2.4028,2.9041,2.9041,0,0,0-2.9113-2.8967q-.075,0-.15.0043a3.1171,3.1171,0,0,0-1.9589.704,2.8128,2.8128,0,0,0-1.0864,2.2651,2.96,2.96,0,0,0,2.9934,2.9252q.0414,0,.0826-.0021Zm.1835-.2448a1.4812,1.4812,0,0,1-1.1631-.8418,4.59,4.59,0,0,1-.4745-2.25c0-1.3314.6272-2.296,1.2856-2.296,1.0714,0,1.561,1.2091,1.561,2.9538a3.6165,3.6165,0,0,1-.505,2.0814.9064.9064,0,0,1-.7039.3525Zm10.254.1376c.168,0,.2912-.0459.2912-.1224,0-.0612-.0612-.1071-.2143-.1378-.4437-.0765-.5968-.2142-1.0407-.7039-.5968-.6581-1.6222-1.9284-2.1728-2.6782-.0153-.0307-.0459-.0766-.0153-.1072a13.9906,13.9906,0,0,1,1.1325-1.0407,2.83,2.83,0,0,1,1.3315-.6734c.1837-.03.2448-.0765.2448-.1224,0-.0613-.0917-.1072-.26-.1072-.5356,0-1.0407.0919-1.6068.0919-.1226,0-.352-.0154-.5663-.0154-.1377,0-.26.0459-.26.1072,0,.0765.0919.1071.2449.1378.4592.0765.5509.1989.5509.2754a.5038.5038,0,0,1-.1377.2449,7.7941,7.7941,0,0,1-1.6376,1.6069.7173.7173,0,0,1-.26.1377c-.0459,0-.0765-.0764-.0765-.2142-.0152-.7652.0613-3.367.0613-3.8873,0-1.1478.0765-2.6783.0918-3.2144a.143.143,0,0,0-.0612-.1072.8418.8418,0,0,0-.2755.0765,5.346,5.346,0,0,1-1.4845.4285c-.1837.0307-.2912.0918-.2912.1531,0,.0459.0766.0919.1377.1378.23.1224.3674.23.3674.3366a3.2994,3.2994,0,0,1,.0612.7347c0,.857-.0307,3.55-.0307,4.1933,0,1.1785-.0156,2.3263-.0766,3.4435-.0307.505-.0918.6581-.551.7652-.1224.0307-.2142.0766-.2142.1377s.1376.1072.26.1072c.0766,0,.612-.0613,1.2092-.0613.3977,0,.8876.046,1.3313.046.107,0,.2912-.0306.2912-.1224,0-.0613-.107-.1225-.26-.153-.3367-.0766-.5357-.1226-.5663-.8724-.0152-.52-.0306-1.3621,0-1.607.0154-.0765.0154-.1224.0613-.1224s.1532.1224.306.3061c.4745.5509,1.3009,1.5763,1.53,1.8824.1378.2142.0766.3214-.168.3979-.23.0612-.2912.0919-.2912.168s.0766.1071.26.1071c.2142,0,.4437-.0306.7345-.0306.6727.001,1.1471.0775,2.0195.0775Zm2.5558-2.8159c.0613,0,.1376-.0613.1835-.4439.1835-1.4845.8266-3.4741.8266-4.4841,0-.597-.3367-1.3009-1.01-1.3009-.6122,0-1.0253.7346-1.0253,1.3468.0152,1.1019.6272,2.6935.8266,4.4842.0459.3214.1069.398.199.398Zm.0154,2.9384a.9361.9361,0,0,0,.8722-.9336.9151.9151,0,0,0-.8722-.9489.942.942,0,0,0,0,1.8825Z"/><line x1="198.2372" y1="118.5363" x2="192.8331" y2="113.4332" style="fill:none;stroke:#222f3c;stroke-linecap:round;stroke-linejoin:round;stroke-width:0.5px"/><path d="M200.429,118.5662l5.1462-5.45-6.1337-6.1338h0a.0644.0644,0,0,0-.0741-.0147h-.0009a.062.062,0,0,0-.0409.0629v10.4328" style="fill:none;stroke:#222f3c;stroke-linecap:round;stroke-linejoin:round;stroke-width:0.5px"/><path d="M199.31,117.4638V113.55a.0663.0663,0,0,0-.02-.0459l.0006-.0006a.0732.0732,0,0,0-.05-.0212l-6.408-.0486" style="fill:none;stroke:#222f3c;stroke-linecap:round;stroke-linejoin:round;stroke-width:0.5px"/><path d="M201.4594,119.6393h3.9888a.0677.0677,0,0,0,.046-.02h.0006a.0719.0719,0,0,0,.021-.0493l.0488-6.4277-5.1282,5.43" style="fill:none;stroke:#222f3c;stroke-linecap:round;stroke-linejoin:round;stroke-width:0.5px"/><line x1="192.8148" y1="113.4344" x2="192.816" y2="113.4331" style="fill:none;stroke:#222f3c;stroke-linecap:round;stroke-linejoin:round;stroke-width:0.5px"/><path d="M192.8148,113.4344l-6.12,6.12h0a.07.07,0,0,0-.0193.0336.0711.0711,0,0,0,.0044.04v.001a.0618.0618,0,0,0,.0631.0408h10.4642" style="fill:none;stroke:#222f3c;stroke-linecap:round;stroke-linejoin:round;stroke-width:0.5px"/><polyline points="192.814 113.435 192.813 113.433 192.816 113.433" style="fill:none;stroke:#222f3c;stroke-linecap:round;stroke-linejoin:round;stroke-width:0.5px"/><line x1="192.8148" y1="113.4344" x2="198.2278" y2="118.5458" style="fill:none;stroke:#222f3c;stroke-linecap:round;stroke-linejoin:round;stroke-width:0.5px"/><polyline points="192.833 113.433 192.825 113.425 192.816 113.433" style="fill:none;stroke:#222f3c;stroke-linecap:round;stroke-linejoin:round;stroke-width:0.5px"/><line x1="192.8331" y1="113.4332" x2="192.816" y2="113.4331" style="fill:none;stroke:#222f3c;stroke-linecap:round;stroke-linejoin:round;stroke-width:0.5px"/><line x1="200.361" y1="120.7377" x2="205.8053" y2="125.8788" style="fill:none;stroke:#222f3c;stroke-linecap:round;stroke-linejoin:round;stroke-width:0.5px"/><path d="M198.2455,120.7077l-5.1822,5.488,6.1337,6.1338h0a.0648.0648,0,0,0,.0741.0147h.0009c.0137-.0056.0241,17.4784.031,17.4681s.01-17.5151.01-17.531V121.7746" style="fill:none;stroke:#222f3c;stroke-linecap:round;stroke-linejoin:round;stroke-width:0.5px"/><path d="M199.3284,121.77v3.9925a.0651.0651,0,0,0,.02.0458v.0007a.0728.0728,0,0,0,.0494.0212l6.4081.0486" style="fill:none;stroke:#222f3c;stroke-linecap:round;stroke-linejoin:round;stroke-width:0.5px"/><path d="M198.2381,120.7l-5.1643,5.4686.0489-6.4277a.0719.0719,0,0,1,.021-.0493h0a.0668.0668,0,0,1,.0461-.02h4.02" style="fill:none;stroke:#222f3c;stroke-linecap:round;stroke-linejoin:round;stroke-width:0.5px"/><line x1="205.8237" y1="125.8777" x2="205.8225" y2="125.8789" style="fill:none;stroke:#222f3c;stroke-linecap:round;stroke-linejoin:round;stroke-width:0.5px"/><path d="M205.8237,125.8777l6.12-6.12h0a.0691.0691,0,0,0,.0193-.0336.0711.0711,0,0,0-.0045-.04v-.001a.0617.0617,0,0,0-.063-.0408H201.4564" style="fill:none;stroke:#222f3c;stroke-linecap:round;stroke-linejoin:round;stroke-width:0.5px"/><polyline points="205.823 125.878 205.826 125.879 205.822 125.879" style="fill:none;stroke:#222f3c;stroke-linecap:round;stroke-linejoin:round;stroke-width:0.5px"/><line x1="205.8237" y1="125.8777" x2="200.3705" y2="120.7281" style="fill:none;stroke:#222f3c;stroke-linecap:round;stroke-linejoin:round;stroke-width:0.5px"/><polyline points="205.805 125.879 205.814 125.887 205.822 125.879" style="fill:none;stroke:#222f3c;stroke-linecap:round;stroke-linejoin:round;stroke-width:0.5px"/><line x1="205.8053" y1="125.8788" x2="205.8225" y2="125.8789" style="fill:none;stroke:#222f3c;stroke-linecap:round;stroke-linejoin:round;stroke-width:0.5px"/><line x1="198.2455" y1="120.7077" x2="198.2381" y2="120.7004" style="fill:none;stroke:#222f3c;stroke-linecap:round;stroke-linejoin:round;stroke-width:0.5px"/><line x1="198.2372" y1="118.5363" x2="198.2278" y2="118.5458" style="fill:none;stroke:#222f3c;stroke-linecap:round;stroke-linejoin:round;stroke-width:0.5px"/><line x1="198.2381" y1="120.7004" x2="197.2105" y2="119.6728" style="fill:none;stroke:#222f3c;stroke-linecap:round;stroke-linejoin:round;stroke-width:0.5px"/><line x1="197.2071" y1="119.6694" x2="197.2105" y2="119.6728" style="fill:none;stroke:#222f3c;stroke-linecap:round;stroke-linejoin:round;stroke-width:0.5px"/><polyline points="201.46 119.639 201.481 119.618 200.436 118.573" style="fill:none;stroke:#222f3c;stroke-linecap:round;stroke-linejoin:round;stroke-width:0.5px"/><polyline points="199.328 121.77 199.318 121.781 199.313 121.775" style="fill:none;stroke:#222f3c;stroke-linecap:round;stroke-linejoin:round;stroke-width:0.5px"/><line x1="199.3287" y1="121.77" x2="200.361" y2="120.7377" style="fill:none;stroke:#222f3c;stroke-linecap:round;stroke-linejoin:round;stroke-width:0.5px"/><polyline points="199.309 117.463 199.318 117.455 199.326 117.463" style="fill:none;stroke:#222f3c;stroke-linecap:round;stroke-linejoin:round;stroke-width:0.5px"/><line x1="201.456" y1="119.6426" x2="200.3705" y2="120.7281" style="fill:none;stroke:#222f3c;stroke-linecap:round;stroke-linejoin:round;stroke-width:0.5px"/><line x1="198.2455" y1="120.7077" x2="199.3126" y2="121.7749" style="fill:none;stroke:#222f3c;stroke-linecap:round;stroke-linejoin:round;stroke-width:0.5px"/><polyline points="197.207 119.67 197.156 119.618 198.227 118.546" style="fill:none;stroke:#222f3c;stroke-linecap:round;stroke-linejoin:round;stroke-width:0.5px"/><line x1="199.3098" y1="117.4638" x2="198.2372" y2="118.5363" style="fill:none;stroke:#222f3c;stroke-linecap:round;stroke-linejoin:round;stroke-width:0.5px"/><line x1="200.429" y1="118.5662" x2="199.3259" y2="117.4631" style="fill:none;stroke:#222f3c;stroke-linecap:round;stroke-linejoin:round;stroke-width:0.5px"/><line x1="200.361" y1="120.7377" x2="200.3705" y2="120.7281" style="fill:none;stroke:#222f3c;stroke-linecap:round;stroke-linejoin:round;stroke-width:0.5px"/><line x1="201.456" y1="119.6426" x2="201.4594" y2="119.6393" style="fill:none;stroke:#222f3c;stroke-linecap:round;stroke-linejoin:round;stroke-width:0.5px"/><line x1="200.429" y1="118.5662" x2="200.4364" y2="118.5736" style="fill:none;stroke:#222f3c;stroke-linecap:round;stroke-linejoin:round;stroke-width:0.5px"/><path d="M74.1247,81.0423H71.8484a.5274.5274,0,0,1-.5274-.5274h0v-1.56a.5274.5274,0,0,1,.5274-.5274h5.9883" style="fill:none;stroke:#222f3c;stroke-linecap:round;stroke-linejoin:round;stroke-width:0.4000000059604645px"/><line x1="70.8123" y1="95.3156" x2="72.4163" y2="95.3156" style="fill:none;stroke:#222f3c;stroke-linecap:round;stroke-linejoin:round;stroke-width:0.4000000059604645px"/><line x1="72.8279" y1="85.3835" x2="72.8279" y2="81.7298" style="fill:none;stroke:#222f3c;stroke-linecap:round;stroke-linejoin:round;stroke-width:0.4000000059604645px"/><line x1="72.2711" y1="95.3156" x2="70.2395" y2="95.3156" style="fill:none;stroke:#222f3c;stroke-linecap:round;stroke-linejoin:round;stroke-width:0.4000000059604645px"/><line x1="69.3516" y1="93.9604" x2="69.3588" y2="93.9428" style="fill:none;stroke:#222f3c;stroke-linecap:round;stroke-linejoin:round;stroke-width:0.4000000059604645px"/><line x1="69.3588" y1="93.9428" x2="72.8225" y2="85.4555" style="fill:none;stroke:#222f3c;stroke-linecap:round;stroke-linejoin:round;stroke-width:0.4000000059604645px"/><path d="M69.3516,93.96a.98.98,0,0,0,.908,1.3538" style="fill:none;stroke:#222f3c;stroke-linecap:round;stroke-linejoin:round;stroke-width:0.4000000059604645px"/><path d="M69.3516,93.96l.0072-.0176" style="fill:none;stroke:#222f3c;stroke-linecap:round;stroke-linejoin:round;stroke-width:0.4000000059604645px"/><line x1="72.2711" y1="95.3156" x2="70.2395" y2="95.3156" style="fill:none;stroke:#222f3c;stroke-linecap:round;stroke-linejoin:round;stroke-width:0.4000000059604645px"/><line x1="69.3516" y1="93.9604" x2="69.3588" y2="93.9428" style="fill:none;stroke:#222f3c;stroke-linecap:round;stroke-linejoin:round;stroke-width:0.4000000059604645px"/><line x1="69.3588" y1="93.9428" x2="72.8225" y2="85.4555" style="fill:none;stroke:#222f3c;stroke-linecap:round;stroke-linejoin:round;stroke-width:0.4000000059604645px"/><path d="M69.3516,93.96a.98.98,0,0,0,.908,1.3538" style="fill:none;stroke:#222f3c;stroke-linecap:round;stroke-linejoin:round;stroke-width:0.4000000059604645px"/><path d="M69.3516,93.96l.0072-.0176" style="fill:none;stroke:#222f3c;stroke-linecap:round;stroke-linejoin:round;stroke-width:0.4000000059604645px"/><path d="M78.0267,82.627h3.17a.5075.5075,0,0,0,.4843-.527V80.539a.5077.5077,0,0,0-.4847-.5275H75.153a.5076.5076,0,0,0-.4849.5275V82.1a.5076.5076,0,0,0,.4849.5274h1.0455" style="fill:none;stroke:#222f3c;stroke-linecap:round;stroke-linejoin:round;stroke-width:0.4000000059604645px"/><line x1="75.867" y1="87.5541" x2="75.867" y2="83.9004" style="fill:none;stroke:#222f3c;stroke-linecap:round;stroke-linejoin:round;stroke-width:0.4000000059604645px"/><line x1="82.4976" y1="97.4861" x2="73.2785" y2="97.4861" style="fill:none;stroke:#222f3c;stroke-linecap:round;stroke-linejoin:round;stroke-width:0.4000000059604645px"/><line x1="72.3907" y1="96.1308" x2="72.3979" y2="96.1133" style="fill:none;stroke:#222f3c;stroke-linecap:round;stroke-linejoin:round;stroke-width:0.4000000059604645px"/><line x1="72.3979" y1="96.1133" x2="75.8615" y2="87.626" style="fill:none;stroke:#222f3c;stroke-linecap:round;stroke-linejoin:round;stroke-width:0.4000000059604645px"/><path d="M72.3907,96.1308a.98.98,0,0,0,.9079,1.354" style="fill:none;stroke:#222f3c;stroke-linecap:round;stroke-linejoin:round;stroke-width:0.4000000059604645px"/><path d="M72.3907,96.1308l.0072-.0175" style="fill:none;stroke:#222f3c;stroke-linecap:round;stroke-linejoin:round;stroke-width:0.4000000059604645px"/><line x1="80.482" y1="87.5541" x2="80.482" y2="83.9004" style="fill:none;stroke:#222f3c;stroke-linecap:round;stroke-linejoin:round;stroke-width:0.4000000059604645px"/><line x1="73.4238" y1="97.4861" x2="83.0705" y2="97.4861" style="fill:none;stroke:#222f3c;stroke-linecap:round;stroke-linejoin:round;stroke-width:0.4000000059604645px"/><line x1="83.9583" y1="96.1308" x2="83.9511" y2="96.1133" style="fill:none;stroke:#222f3c;stroke-linecap:round;stroke-linejoin:round;stroke-width:0.4000000059604645px"/><line x1="83.9511" y1="96.1133" x2="80.4875" y2="87.626" style="fill:none;stroke:#222f3c;stroke-linecap:round;stroke-linejoin:round;stroke-width:0.4000000059604645px"/><path d="M83.9583,96.1308a.98.98,0,0,1-.9083,1.354" style="fill:none;stroke:#222f3c;stroke-linecap:round;stroke-linejoin:round;stroke-width:0.4000000059604645px"/><path d="M83.9583,96.1308l-.0072-.0175" style="fill:none;stroke:#222f3c;stroke-linecap:round;stroke-linejoin:round;stroke-width:0.4000000059604645px"/><line x1="73.4238" y1="97.4861" x2="83.0705" y2="97.4861" style="fill:none;stroke:#222f3c;stroke-linecap:round;stroke-linejoin:round;stroke-width:0.4000000059604645px"/><line x1="83.9583" y1="96.1308" x2="83.9511" y2="96.1133" style="fill:none;stroke:#222f3c;stroke-linecap:round;stroke-linejoin:round;stroke-width:0.4000000059604645px"/><line x1="83.9511" y1="96.1133" x2="80.4875" y2="87.626" style="fill:none;stroke:#222f3c;stroke-linecap:round;stroke-linejoin:round;stroke-width:0.4000000059604645px"/><path d="M83.9583,96.1308a.98.98,0,0,1-.9083,1.354" style="fill:none;stroke:#222f3c;stroke-linecap:round;stroke-linejoin:round;stroke-width:0.4000000059604645px"/><path d="M83.9583,96.1308l-.0072-.0175" style="fill:none;stroke:#222f3c;stroke-linecap:round;stroke-linejoin:round;stroke-width:0.4000000059604645px"/><line x1="78.9252" y1="84.7853" x2="80.5161" y2="84.7853" style="fill:none;stroke:#222f3c;stroke-miterlimit:10;stroke-width:0.4000000059604645px"/><line x1="78.9252" y1="83.8739" x2="80.5161" y2="83.8739" style="fill:none;stroke:#222f3c;stroke-miterlimit:10;stroke-width:0.4000000059604645px"/><line x1="78.9252" y1="85.7074" x2="80.5161" y2="85.7074" style="fill:none;stroke:#222f3c;stroke-miterlimit:10;stroke-width:0.4000000059604645px"/><line x1="78.9252" y1="86.6296" x2="80.5161" y2="86.6296" style="fill:none;stroke:#222f3c;stroke-miterlimit:10;stroke-width:0.4000000059604645px"/><line x1="78.9252" y1="87.5517" x2="80.5161" y2="87.5517" style="fill:none;stroke:#222f3c;stroke-miterlimit:10;stroke-width:0.4000000059604645px"/><path d="M75.5024,92.8619c0-.5233.9475-1.6623.9475-1.6623s.9476,1.139.9476,1.6623a.9476.9476,0,0,1-1.8951,0Z" style="fill:none;stroke:#222f3c;stroke-miterlimit:10;stroke-width:0.4000000059604645px"/><path d="M77.48,95.2073c0-.5234.9474-1.6623.9474-1.6623s.9475,1.1389.9475,1.6623a.9475.9475,0,0,1-1.8949,0Z" style="fill:none;stroke:#222f3c;stroke-miterlimit:10;stroke-width:0.4000000059604645px"/><path d="M78.0036,91.8485c0-.5233.9475-1.6623.9475-1.6623s.9475,1.139.9475,1.6623a.9475.9475,0,1,1-1.895.0041Z" style="fill:none;stroke:#222f3c;stroke-miterlimit:10;stroke-width:0.4000000059604645px"/><path d="M216.0085,59.3036l13.6139,12.81h0l-9.4367,10.0293a1.12,1.12,0,0,1-1.5831.0481L206.62,70.9161a1.12,1.12,0,0,1-.0482-1.5831h0l9.4367-10.0293Z" style="fill:none;stroke:#222f3c;stroke-miterlimit:10;stroke-width:0.4000000059604645px"/><rect x="215.8636" y="55.2299" width="9.5726" height="3.7384" transform="translate(27.8614 178.6692) rotate(-46.7436)" style="fill:none;stroke:#222f3c;stroke-linecap:round;stroke-linejoin:round;stroke-width:0.40000000754208787px"/><rect x="218.8373" y="58.3726" width="7.9772" height="3.7384" transform="translate(26.2575 181.2431) rotate(-46.7436)" style="fill:none;stroke:#222f3c;stroke-linecap:round;stroke-linejoin:round;stroke-width:0.40000000754208787px"/><rect x="221.8112" y="61.5154" width="6.3818" height="3.7384" transform="translate(24.6536 183.8172) rotate(-46.7436)" style="fill:none;stroke:#222f3c;stroke-linecap:round;stroke-linejoin:round;stroke-width:0.40000000754208787px"/><rect x="224.7849" y="64.6582" width="4.7863" height="3.7384" transform="translate(23.0495 186.391) rotate(-46.7436)" style="fill:none;stroke:#222f3c;stroke-linecap:round;stroke-linejoin:round;stroke-width:0.40000000754208787px"/><rect x="227.7587" y="67.8012" width="3.1909" height="3.7384" transform="translate(21.4454 188.9651) rotate(-46.7436)" style="fill:none;stroke:#222f3c;stroke-linecap:round;stroke-linejoin:round;stroke-width:0.40000000754208787px"/><polygon points="233.729 65.02 231.151 66.246 232.663 67.668 233.729 65.02" style="fill:none;stroke:#222f3c;stroke-linejoin:round;stroke-width:0.4000000059604645px"/><polygon points="231.151 66.246 229.088 67.226 231.811 69.787 232.663 67.668 231.151 66.246" style="fill:none;stroke:#222f3c;stroke-linejoin:round;stroke-width:0.4000000059604645px"/><polygon points="232.1 61.296 229.521 62.522 231.033 63.945 232.1 61.296" style="fill:none;stroke:#222f3c;stroke-linejoin:round;stroke-width:0.4000000059604645px"/><polygon points="229.521 62.522 227.458 63.502 230.181 66.063 231.033 63.945 229.521 62.522" style="fill:none;stroke:#222f3c;stroke-linejoin:round;stroke-width:0.4000000059604645px"/><polygon points="230.47 57.572 227.892 58.798 229.405 60.221 230.47 57.572" style="fill:none;stroke:#222f3c;stroke-linejoin:round;stroke-width:0.4000000059604645px"/><polygon points="227.892 58.798 225.829 59.778 228.551 62.339 229.405 60.221 227.892 58.798" style="fill:none;stroke:#222f3c;stroke-linejoin:round;stroke-width:0.4000000059604645px"/><polygon points="228.842 53.849 226.262 55.074 227.775 56.497 228.842 53.849" style="fill:none;stroke:#222f3c;stroke-linejoin:round;stroke-width:0.4000000059604645px"/><polygon points="226.262 55.074 224.2 56.054 226.923 58.616 227.775 56.497 226.262 55.074" style="fill:none;stroke:#222f3c;stroke-linejoin:round;stroke-width:0.4000000059604645px"/><polygon points="227.212 50.125 224.634 51.351 226.146 52.773 227.212 50.125" style="fill:none;stroke:#222f3c;stroke-linejoin:round;stroke-width:0.4000000059604645px"/><polygon points="224.634 51.351 222.571 52.331 225.293 54.892 226.146 52.773 224.634 51.351" style="fill:none;stroke:#222f3c;stroke-linejoin:round;stroke-width:0.4000000059604645px"/><line x1="56.6359" y1="150.2447" x2="237.7843" y2="150.2447" style="fill:none;stroke:#222f3c;stroke-linecap:round;stroke-linejoin:round;stroke-width:0.5px"/><path d="M153.9612,101.5508a11.0631,11.0631,0,0,0,22.1062,0,9.5652,9.5652,0,0,0-.1216-1.8243" style="fill:none;stroke:#222f3c;stroke-miterlimit:10;stroke-width:0.5px"/><path d="M168.0635,147.9653h3.9639a1.7532,1.7532,0,0,1,1.7532,1.7532h0v.4384h-5.7171Z" style="fill:none;stroke:#222f3c;stroke-miterlimit:10;stroke-width:0.5px"/><path d="M161.9652,150.1568h-5.7171v-.4384a1.7533,1.7533,0,0,1,1.7531-1.7532h3.964Z" style="fill:none;stroke:#222f3c;stroke-miterlimit:10;stroke-width:0.5px"/><path d="M153.9612,101.5508c0-.12.0053-.2379.0094-.3565a2.007,2.007,0,1,0,.1813,4.01h.4843A10.1759,10.1759,0,0,1,153.9612,101.5508Z" style="fill:none;stroke:#222f3c;stroke-miterlimit:10;stroke-width:0.5px"/><path d="M176.058,101.1943c.0042.1186.01.237.01.3565a10.18,10.18,0,0,1-.6751,3.6527h.4845a2.007,2.007,0,0,0,.1811-4.01h0Z" style="fill:none;stroke:#222f3c;stroke-miterlimit:10;stroke-width:0.5px"/><path d="M171.4937,102.3727a1.24,1.24,0,0,1-2.4773,0" style="fill:none;stroke:#222f3c;stroke-miterlimit:10;stroke-width:0.5px"/><path d="M161.0124,102.3727a1.24,1.24,0,0,1-2.4774,0" style="fill:none;stroke:#222f3c;stroke-miterlimit:10;stroke-width:0.5px"/><path d="M162.9181,107.4315a2.0982,2.0982,0,0,0,4.1926,0" style="fill:none;stroke:#222f3c;stroke-miterlimit:10;stroke-width:0.5px"/><path d="M177.8389,116.8977a11.6285,11.6285,0,0,0-5.8456-5.57,3.1052,3.1052,0,0,0-1.1312-.4188,1.9511,1.9511,0,0,0-.4059-.0448c-.02,0-.04.0017-.0594.0023-.0156,0-.0307-.0023-.0464-.0023h-.0672a11.494,11.494,0,0,1-10.5368,0h-.0672c-.0157,0-.0307.002-.0464.0023-.02-.0006-.04-.0023-.06-.0023a1.9494,1.9494,0,0,0-.4058.0448,3.1041,3.1041,0,0,0-1.1311.4188,11.6283,11.6283,0,0,0-5.8457,5.57c-.0984.2016-.1883.4065-.2739.6119l3.7355.8325a7.8683,7.8683,0,0,1,.978-1.4951v9.996H173.4v-9.996a7.8673,7.8673,0,0,1,.9778,1.4951l3.7356-.8325C178.0273,117.3043,177.9374,117.1,177.8389,116.8977Z" style="fill:none;stroke:#222f3c;stroke-miterlimit:10;stroke-width:0.5px"/><path d="M159.6692,110.7134a5.3553,5.3553,0,0,0,10.7008,0" style="fill:none;stroke:#222f3c;stroke-miterlimit:10;stroke-width:0.5px"/><path d="M175.3091,123.8851a2.1591,2.1591,0,0,1,.93-.21,2.1067,2.1067,0,0,1,1.8612,1.087,10.5783,10.5783,0,0,0-.4-7.16l-2.9033.6472A7.9,7.9,0,0,1,175.3091,123.8851Z" style="fill:none;stroke:#222f3c;stroke-miterlimit:10;stroke-width:0.5px"/><ellipse cx="176.2389" cy="125.6835" rx="2.0963" ry="2.0089" style="fill:none;stroke:#222f3c;stroke-miterlimit:10;stroke-width:0.5px"/><path d="M151.0656,123.05a3.0934,3.0934,0,0,0-1.1243-.22,8.2361,8.2361,0,0,0,2.3567-5.2528l2.9.6608a10.7851,10.7851,0,0,1-2.9717,6.58A2.0015,2.0015,0,0,0,151.0656,123.05Z" style="fill:none;stroke:#222f3c;stroke-miterlimit:10;stroke-width:0.5px"/><ellipse cx="150.1313" cy="124.8487" rx="2.0963" ry="2.0089" style="fill:none;stroke:#222f3c;stroke-miterlimit:10;stroke-width:0.5px"/><path d="M165.0176,86.228a11.1383,11.1383,0,0,0-4.0267.753,19.1593,19.1593,0,0,1-10.06-1.2992V89.23a9.475,9.475,0,0,0,2.6219,6.4022h0a13.546,13.546,0,0,0-.2187,5.63,1.9069,1.9069,0,0,1,.6518-.1161h.0043a12.5163,12.5163,0,0,1,.8349-4.3456,11.0081,11.0081,0,0,0,1.6584,1.0709,12.8257,12.8257,0,0,0,8.4633.7047,25.91,25.91,0,0,1,5.0214-.4891,19.504,19.504,0,0,1,5.88.9929,12.7313,12.7313,0,0,1,.1975,2.0664h.0041a1.9092,1.9092,0,0,1,.6517.1162,13.711,13.711,0,0,0,.1955-2.2331c0-.0224.0014-.0441.0014-.0664C176.8985,91.93,171.5793,86.228,165.0176,86.228Z" style="fill:none;stroke:#222f3c;stroke-miterlimit:10;stroke-width:0.5px"/><path d="M165.034,134.31v13.64h7.5835V134.174c.896-1.0411.8085-4.5414.8085-5.9845l-16.7963.0587" style="fill:none;stroke:#222f3c;stroke-miterlimit:10;stroke-width:0.5px"/><path d="M165.0239,136.5276v11.4217H157.44v-13.776c-.896-1.0411-.8085-4.5414-.8085-5.9845l16.7963.0587" style="fill:none;stroke:#222f3c;stroke-miterlimit:10;stroke-width:0.5px"/><path d="M146.264,101.2619c.004.1186.0094.2368.0094.3565a10.18,10.18,0,0,1-.675,3.6525h.4844a2.0066,2.0066,0,0,0,.1812-4.009Z" style="fill:none;stroke:#222f3c;stroke-miterlimit:10;stroke-width:0.5px"/><path d="M141.7,103.6273a1.24,1.24,0,0,0-2.4775,0" style="fill:none;stroke:#222f3c;stroke-miterlimit:10;stroke-width:0.5px"/><path d="M131.2183,103.6273a1.24,1.24,0,0,0-2.4774,0" style="fill:none;stroke:#222f3c;stroke-miterlimit:10;stroke-width:0.5px"/><path d="M133.124,107.499a2.0982,2.0982,0,0,0,4.1926,0" style="fill:none;stroke:#222f3c;stroke-miterlimit:10;stroke-width:0.5px"/><path d="M149.1545,123.0484a3.1423,3.1423,0,0,1,1.1217-.2253,7.9334,7.9334,0,0,1-2.3072-5.1544l-2.8939.6728a10.389,10.389,0,0,0,2.91,6.4566A2.0086,2.0086,0,0,1,149.1545,123.0484Z" style="fill:none;stroke:#222f3c;stroke-miterlimit:10;stroke-width:0.5px"/><line x1="126.9292" y1="113.3488" x2="145.4602" y2="113.3488" style="fill:none;stroke:#222f3c;stroke-miterlimit:10;stroke-width:0.5px"/><path d="M141.8493,111.1739a9.7,9.7,0,0,0,4.57-5.6553" style="fill:none;stroke:#222f3c;stroke-linecap:round;stroke-linejoin:round;stroke-width:0.5px"/><path d="M123.2783,101.3241a2.0623,2.0623,0,0,0,0,3.661Z" style="fill:none;stroke:#222f3c;stroke-miterlimit:10;stroke-width:0.5px"/><path d="M127.1133,112.34c0,2.9826-1.1648,3.8706-2.667,5.7555l1.4112.3145a7.8773,7.8773,0,0,1,.9779-1.4953V126.947h16.77V116.9143a7.8858,7.8858,0,0,1,.978,1.4953l3.7355-.8325c-.0856-.2055-.191-.4032-.2739-.6118a11.9372,11.9372,0,0,0-7.44-6.1755" style="fill:none;stroke:#222f3c;stroke-miterlimit:10;stroke-width:0.5px"/><path d="M147.0244,101.2154V98.9323a11.83,11.83,0,0,0-23.66,0h0" style="fill:none;stroke:#222f3c;stroke-linecap:round;stroke-linejoin:round;stroke-width:0.5px"/><path d="M127.1133,111.989v.3506c0,2.9826-1.15,3.8416-2.6516,5.7266" style="fill:none;stroke:#222f3c;stroke-miterlimit:10;stroke-width:0.5px"/><line x1="127.1133" y1="111.9689" x2="127.1133" y2="111.989" style="fill:none;stroke:#222f3c;stroke-miterlimit:10;stroke-width:0.5px"/><path d="M129.8359,110.82a10.1733,10.1733,0,0,0-2.7226,1.1686" style="fill:none;stroke:#222f3c;stroke-miterlimit:10;stroke-width:0.5px"/><line x1="123.367" y1="117.8547" x2="123.3708" y2="115.3015" style="fill:none;stroke:#222f3c;stroke-linecap:round;stroke-linejoin:round;stroke-width:0.5px"/><path d="M123.367,117.8547l-.0026,1.7407a17.7826,17.7826,0,0,1,1.0683-1.4944" style="fill:none;stroke:#222f3c;stroke-linecap:square;stroke-miterlimit:10;stroke-width:0.5px"/><line x1="123.3708" y1="115.3015" x2="123.3951" y2="98.8046" style="fill:none;stroke:#222f3c;stroke-linecap:round;stroke-linejoin:round;stroke-width:0.5px"/><path d="M122.1156,117.7712a16.1767,16.1767,0,0,1,1.2495-2.5336" style="fill:none;stroke:#222f3c;stroke-miterlimit:10;stroke-width:0.5px"/><path d="M123.4162,98.9631a11.8057,11.8057,0,0,1,23.6113-.0663" style="fill:none;stroke:#222f3c;stroke-linecap:round;stroke-linejoin:round;stroke-width:0.5px"/><path d="M146.1363,100.08a13.9334,13.9334,0,0,1-1.651-.4447c-3.4207-1.245-5.4006-3.1087-6.2166-5.1927-3.2084,1.7772-7.2565,3.0622-8.28,4.0166-1.4737,1.3748-2.8759,3.3474-2.8759,5.3629v4.8956" style="fill:none;stroke:#222f3c;stroke-miterlimit:10;stroke-width:0.5px"/><path d="M146.1461,100.0768l.0412.0088-.0413-.0091" style="fill:none;stroke:#222f3c;stroke-miterlimit:10;stroke-width:0.5px"/><line x1="127.1133" y1="108.7176" x2="127.1133" y2="111.9689" style="fill:none;stroke:#222f3c;stroke-miterlimit:10;stroke-width:0.5px"/><path d="M145.9673,99.8955a5.235,5.235,0,0,1,.3214,1.6553,10.83,10.83,0,0,1-11.0531,10.5924,11.2329,11.2329,0,0,1-8.1224-3.4256" style="fill:none;stroke:#222f3c;stroke-miterlimit:10;stroke-width:0.5px"/><line x1="123.5361" y1="117.9043" x2="122.1676" y2="117.4894" style="fill:none;stroke:#222f3c;stroke-miterlimit:10;stroke-width:0.5px"/><path d="M138.2387,147.9653h3.9639a1.7534,1.7534,0,0,1,1.7532,1.7533v.4383h-5.7171Z" style="fill:none;stroke:#222f3c;stroke-miterlimit:10;stroke-width:0.5px"/><path d="M132.14,150.1568h-5.7172v-.4384a1.7532,1.7532,0,0,1,1.753-1.7532H132.14Z" style="fill:none;stroke:#222f3c;stroke-miterlimit:10;stroke-width:0.5px"/><path d="M135.2084,134.31v13.64h7.5835V134.174c.896-1.0411.8086-4.5414.8086-5.9845l-16.7964.0587" style="fill:none;stroke:#222f3c;stroke-miterlimit:10;stroke-width:0.5px"/><path d="M135.1991,136.5276v11.4217h-7.5835v-13.776c-.896-1.0411-.8087-4.5414-.8087-5.9845l16.7964.0587" style="fill:none;stroke:#222f3c;stroke-miterlimit:10;stroke-width:0.5px"/><path d="M122.5513,117.5771a8.236,8.236,0,0,1-2.3568,5.2528,3.1059,3.1059,0,0,1,1.1242.22,2.0019,2.0019,0,0,1,1.1607,1.7679,10.7864,10.7864,0,0,0,2.9718-6.58" style="fill:none;stroke:#222f3c;stroke-miterlimit:10;stroke-width:0.5px"/><ellipse cx="120.3845" cy="124.8487" rx="2.0963" ry="2.0089" style="fill:none;stroke:#222f3c;stroke-miterlimit:10;stroke-width:0.5px"/><path d="M111.9386,103.6273a1.24,1.24,0,0,0-2.4774,0" style="fill:none;stroke:#222f3c;stroke-miterlimit:10;stroke-width:0.5px"/><path d="M101.4572,103.6273a1.24,1.24,0,0,0-2.4774,0" style="fill:none;stroke:#222f3c;stroke-miterlimit:10;stroke-width:0.5px"/><path d="M103.3629,107.499a2.0982,2.0982,0,0,0,4.1926,0" style="fill:none;stroke:#222f3c;stroke-miterlimit:10;stroke-width:0.5px"/><ellipse cx="94.2345" cy="125.751" rx="2.0963" ry="2.0089" style="fill:none;stroke:#222f3c;stroke-miterlimit:10;stroke-width:0.5px"/><path d="M120.5151,122.8231a7.9339,7.9339,0,0,1-2.3072-5.1544l-2.894.6728a10.3884,10.3884,0,0,0,2.91,6.4566" style="fill:none;stroke:#222f3c;stroke-miterlimit:10;stroke-width:0.5px"/><path d="M94.6852,118.0951l1.4112.3145a7.8773,7.8773,0,0,1,.9779-1.4953v10.0322h16.77V116.9143a7.8858,7.8858,0,0,1,.978,1.4953l3.7354-.8325c-.0855-.2055-.19-.4032-.2738-.6118a11.9372,11.9372,0,0,0-7.44-6.1755" style="fill:none;stroke:#222f3c;stroke-miterlimit:10;stroke-width:0.5px"/><path d="M96.1209,118.41l-3.7354-.8325c.0856-.2055.19-.4032.2739-.6118a11.9372,11.9372,0,0,1,7.44-6.1755" style="fill:none;stroke:#222f3c;stroke-miterlimit:10;stroke-width:0.5px"/><path d="M92.881,117.92a12.4124,12.4124,0,0,0-.5077,6.91,2.1742,2.1742,0,0,1,2.791-.8764,8.034,8.034,0,0,1,.5122-5.6365" style="fill:none;stroke:#222f3c;stroke-linecap:round;stroke-linejoin:round;stroke-width:0.5px"/><path d="M108.4775,147.9653h3.9639a1.7534,1.7534,0,0,1,1.7532,1.7533v.4383h-5.7171Z" style="fill:none;stroke:#222f3c;stroke-miterlimit:10;stroke-width:0.5px"/><path d="M102.3792,150.1568H96.662v-.4384a1.7532,1.7532,0,0,1,1.7532-1.7532h3.964Z" style="fill:none;stroke:#222f3c;stroke-miterlimit:10;stroke-width:0.5px"/><path d="M105.4477,134.31v13.64h7.5836V134.174c.896-1.0411.8085-4.5414.8085-5.9845l-16.7963.0587" style="fill:none;stroke:#222f3c;stroke-miterlimit:10;stroke-width:0.5px"/><path d="M105.4379,136.5276v11.4217H97.8544v-13.776c-.896-1.0411-.8086-4.5414-.8086-5.9845l16.7963.0587" style="fill:none;stroke:#222f3c;stroke-miterlimit:10;stroke-width:0.5px"/><path d="M96.2948,99.8435c3.2539-1.1749,5.1974-2.9079,6.0731-4.855,1.7846,2.584,5.8453,4.39,10.5745,4.39a23.0972,23.0972,0,0,0,3.3164-.255A10.9291,10.9291,0,1,1,94.608,101.32c0-.3416.0178-.6789.0491-1.0124A15.9192,15.9192,0,0,0,96.2948,99.8435Z" style="fill:none;stroke:#222f3c;stroke-miterlimit:10;stroke-width:0.5px"/><path d="M90.0647,103.92V89.6339a6.7385,6.7385,0,0,1,13.0359-2.3358,7.627,7.627,0,0,0-1.5935-.168,7.5422,7.5422,0,0,0-7.5722,7.5118,7.3863,7.3863,0,0,0,.0811,1.0733h0c.0287.1961.0623.3906.1056.5817l.013-.0475a11.521,11.521,0,0,0-.2879,4.2438c.03.2576.071.5122.1173.7647a2,2,0,0,0,.644,3.9h.7069a10.7976,10.7976,0,0,0,1.4583,2.6363A5.05,5.05,0,0,1,86.7,107.3283V105.66a2.1393,2.1393,0,0,0,3.3652-1.7392Z" style="fill:none;stroke:#222f3c;stroke-miterlimit:10;stroke-width:0.5px"/><path d="M105.5456,87.4639a11.7321,11.7321,0,0,1,11.7736,11.475c.0012.07.0054.1395.0054.21a11.6582,11.6582,0,0,1-.1953,2.11,2.0282,2.0282,0,0,0-.6461-.1066h-.0043a10.8088,10.8088,0,0,0-.22-2.0291h.0008a23.107,23.107,0,0,1-3.3171.2551c-4.7292,0-8.79-1.8058-10.5746-4.39-.8757,1.9471-2.8192,3.68-6.0731,4.855,0,0-1.6546.4672-1.6377.4633q-.0391.4182-.0448.8455h-.0039a2.023,2.023,0,0,0-.644.1058c-.0464-.2525-.0877-.5068-.1174-.7647a11.6657,11.6657,0,0,1,11.699-13.0292Z" style="fill:none;stroke:#222f3c;stroke-miterlimit:10;stroke-width:0.5px"/><path d="M94.1216,96.2968a7.504,7.504,0,0,1,7.3855-9.1668,7.6144,7.6144,0,0,1,2.533.4321A11.7548,11.7548,0,0,0,94.1216,96.2968Z" style="fill:none;stroke:#222f3c;stroke-miterlimit:10;stroke-width:0.5px"/><path d="M116.4832,101.3189c0-.056-.0034-.1111-.0043-.1669h.0043a2.0032,2.0032,0,0,1,.042,4.0062h-.7488A10.7463,10.7463,0,0,0,116.4832,101.3189Z" style="fill:none;stroke:#222f3c;stroke-miterlimit:10;stroke-width:0.5px"/><circle cx="105.3403" cy="119.3924" r="0.8297" style="fill:none;stroke:#222f3c;stroke-miterlimit:10;stroke-width:0.5px"/><circle cx="105.3403" cy="122.066" r="0.8297" style="fill:none;stroke:#222f3c;stroke-miterlimit:10;stroke-width:0.5px"/><path d="M130.5071,69.2009a4.96,4.96,0,0,0-4.96-4.96H67.6815a4.96,4.96,0,0,0-4.9595,4.96v32.4464a4.96,4.96,0,0,0,4.96,4.96H84.6529" style="fill:none;stroke:#222f3c;stroke-miterlimit:10;stroke-width:0.5px"/><line x1="130.5071" y1="69.2009" x2="130.5071" y2="85.8863" style="fill:none;stroke:#222f3c;stroke-miterlimit:10;stroke-width:0.5px"/><rect x="88.1414" y="64.3838" width="16.9463" height="5.6487" style="fill:none;stroke:#222f3c;stroke-miterlimit:10;stroke-width:0.5px"/><rect x="233.729" y="84.7853" width="88.7397" height="18.842" style="fill:#fff;stroke:#fff;stroke-miterlimit:10;opacity:0"/></svg>