<svg id="Layer_1" data-name="Layer 1" xmlns="http://www.w3.org/2000/svg" viewBox="0 0 399 200"><defs><style>.cls-1,.cls-2,.cls-3{fill:none;stroke:#222f3c;stroke-width:0.5px;}.cls-1,.cls-3{stroke-miterlimit:10;}.cls-2,.cls-3{stroke-linecap:round;}.cls-2{stroke-linejoin:round;}.cls-4{fill:#333838;}</style></defs><path class="cls-1" d="M219.83,122.8359c0-13.4743,24.3975-42.8027,24.3975-42.8027s24.3974,29.3284,24.3974,42.8027a24.3975,24.3975,0,0,1-48.7949,0Z"/><rect class="cls-1" x="228.8955" y="121.2611" width="2.6469" height="7.6445" rx="0.9453" transform="translate(211.8158 386.4412) rotate(-114.4885)"/><rect class="cls-1" x="230.9143" y="130.4729" width="2.6469" height="7.6445" rx="0.9453" transform="translate(-11.2595 246.8947) rotate(-54.8564)"/><rect class="cls-1" x="242.5926" y="108.7733" width="2.6469" height="7.6445" rx="0.9453" transform="translate(506.9088 57.7536) rotate(143.4421)"/><circle class="cls-2" cx="239.233" cy="99.4263" r="1.3629"/><path class="cls-2" d="M239.2664,94.6663c.4744,1.2569-1.09,2.0593.1524,3.3388"/><path class="cls-2" d="M239.2664,100.8476c.4744,1.2568-1.09,2.0593.1524,3.3387"/><path class="cls-2" d="M234.473,99.453c1.2569-.4743,2.0593,1.09,3.3388-.1524"/><path class="cls-2" d="M240.6543,99.453c1.2568-.4743,2.0593,1.09,3.3387-.1524"/><path class="cls-2" d="M235.8908,96.0369c1.2242.5533.6852,2.2271,2.4686,2.2531"/><path class="cls-2" d="M240.2616,100.4077c1.2242.5533.6852,2.2271,2.4687,2.2531"/><path class="cls-2" d="M235.8861,102.811c.5533-1.2241,2.227-.6851,2.2531-2.4686"/><path class="cls-2" d="M240.2569,98.44c.5533-1.2241,2.2271-.6851,2.2531-2.4686"/><circle class="cls-2" cx="232.9433" cy="113.4042" r="1.3629"/><path class="cls-2" d="M232.9767,108.6442c.4743,1.2568-1.09,2.0593.1523,3.3387"/><path class="cls-2" d="M232.9767,114.8255c.4743,1.2568-1.09,2.0592.1523,3.3387"/><path class="cls-2" d="M228.1832,113.4309c1.2569-.4744,2.0593,1.09,3.3388-.1524"/><path class="cls-2" d="M234.3645,113.4309c1.2568-.4744,2.0593,1.09,3.3388-.1524"/><path class="cls-2" d="M229.601,110.0148c1.2242.5533.6852,2.227,2.4687,2.253"/><path class="cls-2" d="M233.9719,114.3856c1.2241.5533.6851,2.227,2.4686,2.2531"/><path class="cls-2" d="M229.5963,116.7889c.5533-1.2241,2.2271-.6852,2.2531-2.4686"/><path class="cls-2" d="M233.9671,112.4181c.5533-1.2241,2.2271-.6852,2.2531-2.4686"/><circle class="cls-2" cx="258.078" cy="130.6187" r="1.3629"/><path class="cls-2" d="M258.1114,125.8587c.4744,1.2568-1.09,2.0593.1524,3.3387"/><path class="cls-2" d="M258.1114,132.04c.4744,1.2568-1.09,2.0592.1524,3.3387"/><path class="cls-2" d="M253.318,130.6454c1.2568-.4744,2.0593,1.09,3.3388-.1524"/><path class="cls-2" d="M259.4993,130.6454c1.2568-.4744,2.0593,1.09,3.3387-.1524"/><path class="cls-2" d="M254.7358,127.2293c1.2241.5533.6852,2.227,2.4686,2.253"/><path class="cls-2" d="M259.1066,131.6c1.2241.5533.6852,2.227,2.4686,2.253"/><path class="cls-2" d="M254.731,134.0034c.5533-1.2241,2.2271-.6852,2.2531-2.4686"/><path class="cls-2" d="M259.1019,129.6326c.5533-1.2242,2.227-.6852,2.253-2.4686"/><circle class="cls-2" cx="244.0402" cy="124.9495" r="1.3629"/><path class="cls-2" d="M244.0736,120.19c.4744,1.2568-1.09,2.0592.1524,3.3387"/><path class="cls-2" d="M244.0736,126.3707c.4744,1.2568-1.09,2.0593.1524,3.3388"/><path class="cls-2" d="M239.28,124.9761c1.2568-.4743,2.0593,1.09,3.3388-.1524"/><path class="cls-2" d="M245.4615,124.9761c1.2568-.4743,2.0592,1.09,3.3387-.1524"/><path class="cls-2" d="M240.698,121.56c1.2241.5533.6852,2.2271,2.4686,2.2531"/><path class="cls-2" d="M245.0688,125.9308c1.2241.5533.6852,2.2271,2.4686,2.2531"/><path class="cls-2" d="M240.6932,128.3341c.5533-1.2241,2.2271-.6851,2.2531-2.4686"/><path class="cls-2" d="M245.064,123.9633c.5533-1.2241,2.2271-.6851,2.2531-2.4686"/><circle class="cls-2" cx="245.1928" cy="137.4968" r="1.3629"/><path class="cls-2" d="M245.2262,132.7368c.4744,1.2568-1.09,2.0593.1524,3.3387"/><path class="cls-2" d="M245.2262,138.9181c.4744,1.2568-1.09,2.0592.1524,3.3387"/><path class="cls-2" d="M240.4328,137.5235c1.2569-.4744,2.0593,1.09,3.3388-.1524"/><path class="cls-2" d="M246.6141,137.5235c1.2568-.4744,2.0593,1.09,3.3387-.1524"/><path class="cls-2" d="M241.8506,134.1074c1.2241.5533.6852,2.227,2.4686,2.253"/><path class="cls-2" d="M246.2214,138.4782c1.2242.5533.6852,2.227,2.4686,2.253"/><path class="cls-2" d="M241.8459,140.8815c.5533-1.2241,2.227-.6852,2.253-2.4686"/><path class="cls-2" d="M246.2167,136.5107c.5533-1.2242,2.227-.6852,2.2531-2.4686"/><circle class="cls-2" cx="258.1789" cy="117.6303" r="1.3629"/><path class="cls-2" d="M258.2123,112.87c.4744,1.2568-1.09,2.0592.1524,3.3387"/><path class="cls-2" d="M258.2123,119.0515c.4744,1.2568-1.09,2.0593.1524,3.3388"/><path class="cls-2" d="M253.4189,117.6569c1.2569-.4743,2.0593,1.09,3.3388-.1524"/><path class="cls-2" d="M259.6,117.6569c1.2568-.4743,2.0593,1.09,3.3387-.1524"/><path class="cls-2" d="M254.8367,114.2408c1.2241.5533.6852,2.2271,2.4686,2.2531"/><path class="cls-2" d="M259.2075,118.6116c1.2241.5533.6852,2.2271,2.4686,2.2531"/><path class="cls-2" d="M254.8319,121.0149c.5534-1.2241,2.2271-.6851,2.2531-2.4686"/><path class="cls-2" d="M259.2028,116.6441c.5533-1.2241,2.227-.6851,2.253-2.4686"/><circle class="cls-2" cx="251.3737" cy="104.2078" r="1.3629"/><path class="cls-2" d="M251.4071,99.4478c.4744,1.2568-1.09,2.0593.1524,3.3387"/><path class="cls-2" d="M251.4071,105.6291c.4744,1.2568-1.09,2.0592.1524,3.3387"/><path class="cls-2" d="M246.6137,104.2345c1.2569-.4744,2.0593,1.09,3.3388-.1524"/><path class="cls-2" d="M252.795,104.2345c1.2568-.4744,2.0593,1.09,3.3387-.1524"/><path class="cls-2" d="M248.0315,100.8184c1.2241.5533.6852,2.227,2.4686,2.253"/><path class="cls-2" d="M252.4023,105.1892c1.2241.5533.6852,2.227,2.4686,2.2531"/><path class="cls-2" d="M248.0267,107.5925c.5534-1.2241,2.2271-.6852,2.2531-2.4686"/><path class="cls-2" d="M252.3976,103.2217c.5533-1.2241,2.227-.6852,2.253-2.4686"/><path class="cls-2" d="M167.0554,124.7328h-5.44a1.26,1.26,0,0,1-1.26-1.26v-3.73a1.26,1.26,0,0,1,1.26-1.26h14.312"/><line class="cls-2" x1="159.139" y1="158.8457" x2="162.9725" y2="158.8457"/><line class="cls-2" x1="163.9562" y1="135.1084" x2="163.9562" y2="126.3762"/><line class="cls-2" x1="162.6253" y1="158.8457" x2="157.7699" y2="158.8457"/><line class="cls-2" x1="155.648" y1="155.6068" x2="155.6652" y2="155.5648"/><line class="cls-2" x1="155.6652" y1="155.5648" x2="163.9432" y2="135.2804"/><path class="cls-2" d="M155.648,155.6068a2.3429,2.3429,0,0,0,2.17,3.2358"/><path class="cls-2" d="M155.648,155.6068l.0172-.042"/><line class="cls-2" x1="162.6253" y1="158.8457" x2="157.7699" y2="158.8457"/><line class="cls-2" x1="155.648" y1="155.6068" x2="155.6652" y2="155.5648"/><line class="cls-2" x1="155.6652" y1="155.5648" x2="163.9432" y2="135.2804"/><path class="cls-2" d="M155.648,155.6068a2.3429,2.3429,0,0,0,2.17,3.2358"/><path class="cls-2" d="M155.648,155.6068l.0172-.042"/><path class="cls-2" d="M176.3813,128.52h7.5746a1.2127,1.2127,0,0,0,1.1586-1.26v-3.73a1.2127,1.2127,0,0,0-1.1586-1.26H169.513a1.2128,1.2128,0,0,0-1.1586,1.26v3.73a1.2128,1.2128,0,0,0,1.1586,1.26h2.4989"/><line class="cls-2" x1="171.2194" y1="140.2959" x2="171.2194" y2="131.5637"/><line class="cls-2" x1="187.0666" y1="164.0332" x2="165.0332" y2="164.0332"/><line class="cls-2" x1="162.9113" y1="160.7943" x2="162.9284" y2="160.7523"/><line class="cls-2" x1="162.9284" y1="160.7523" x2="171.2064" y2="140.4679"/><path class="cls-2" d="M162.9113,160.7943a2.3426,2.3426,0,0,0,2.17,3.2357"/><path class="cls-2" d="M162.9113,160.7943l.0171-.042"/><line class="cls-2" x1="182.2495" y1="140.2959" x2="182.2495" y2="131.5637"/><line class="cls-2" x1="165.3803" y1="164.0332" x2="188.4357" y2="164.0332"/><line class="cls-2" x1="190.5576" y1="160.7943" x2="190.5405" y2="160.7523"/><line class="cls-2" x1="190.5405" y1="160.7523" x2="182.2625" y2="140.4679"/><path class="cls-2" d="M190.5576,160.7943a2.3428,2.3428,0,0,1-2.17,3.2357"/><path class="cls-2" d="M190.5576,160.7943l-.0171-.042"/><line class="cls-2" x1="165.3803" y1="164.0332" x2="188.4357" y2="164.0332"/><line class="cls-2" x1="190.5576" y1="160.7943" x2="190.5405" y2="160.7523"/><line class="cls-2" x1="190.5405" y1="160.7523" x2="182.2625" y2="140.4679"/><path class="cls-2" d="M190.5576,160.7943a2.3428,2.3428,0,0,1-2.17,3.2357"/><path class="cls-2" d="M190.5576,160.7943l-.0171-.042"/><line class="cls-1" x1="178.5288" y1="133.6788" x2="182.3308" y2="133.6788"/><line class="cls-1" x1="178.5288" y1="131.5002" x2="182.3308" y2="131.5002"/><line class="cls-1" x1="178.5288" y1="135.8826" x2="182.3308" y2="135.8826"/><line class="cls-1" x1="178.5288" y1="138.0864" x2="182.3308" y2="138.0864"/><line class="cls-1" x1="178.5288" y1="140.2902" x2="182.3308" y2="140.2902"/><path class="cls-1" d="M170.3482,152.9815c0-1.2506,2.2646-3.9728,2.2646-3.9728s2.2645,2.7222,2.2645,3.9728a2.2646,2.2646,0,0,1-4.5291,0Z"/><path class="cls-1" d="M175.0734,158.5867c0-1.2506,2.2646-3.9728,2.2646-3.9728s2.2645,2.7222,2.2645,3.9728a2.2646,2.2646,0,0,1-4.5291,0Z"/><path class="cls-1" d="M176.326,150.56c0-1.2507,2.2645-3.9729,2.2645-3.9729s2.2645,2.7222,2.2645,3.9729a2.2645,2.2645,0,0,1-4.529,0Z"/><line class="cls-3" x1="180.6044" y1="149.38" x2="221.3307" y2="132.58"/><circle class="cls-2" cx="287.0215" cy="141.0832" r="1.6035"/><path class="cls-2" d="M286.9822,135.4832c-.5581,1.4786,1.2827,2.4226-.1793,3.9279"/><path class="cls-2" d="M286.9822,142.7552c-.5581,1.4787,1.2827,2.4227-.1793,3.928"/><path class="cls-2" d="M292.6215,141.1145c-1.4786-.558-2.4227,1.2827-3.928-.1793"/><path class="cls-2" d="M285.3494,141.1145c-1.4786-.558-2.4227,1.2827-3.9279-.1793"/><path class="cls-2" d="M290.9535,137.0956c-1.44.6509-.8061,2.62-2.9043,2.6507"/><path class="cls-2" d="M285.8114,142.2377c-1.44.651-.8061,2.62-2.9043,2.6507"/><path class="cls-2" d="M290.9591,145.0651c-.651-1.44-2.62-.806-2.6507-2.9042"/><path class="cls-2" d="M285.817,139.923c-.651-1.44-2.62-.8061-2.6507-2.9042"/><path class="cls-4" d="M295.9551,135.8987a12.6824,12.6824,0,0,0,1.4785-.0459,11.5116,11.5116,0,0,1,1.5088-.123c1.6777,0,3.0635.7539,3.0635,2.4785a1.97,1.97,0,0,1-.6465,1.3858,4.0066,4.0066,0,0,1-.8311.5078c-.0928.0459-.0312.0927.0147.123a4.8016,4.8016,0,0,1,1.34.77,2.413,2.413,0,0,1,.8164,1.878,2.6011,2.6011,0,0,1-1.7246,2.4638,4.6035,4.6035,0,0,1-1.8633.3233c-.2617,0-.5693,0-1.1855-.0157-.6309-.0312-.9854-.0312-1.3242-.0312h-.77c-.23,0-.3232-.0615-.3232-.1074,0-.0772.1084-.1075.2461-.1387.6162-.0615.8467-.3232.8935-.8779.0459-.4151.0459-2.6172.0459-4.3262,0-.8311-.0156-2.6172-.03-3.2178-.0313-.5537-.1387-.6767-.7549-.8154-.1846-.0313-.2305-.0928-.2305-.1231C295.6787,135.9446,295.8018,135.8987,295.9551,135.8987Zm4.8349,5.4043a2.1473,2.1473,0,0,0-2.0791-.8925c-.3076,0-.6.0146-.7539.03-.0771.0157-.123.1075-.1386.1846a23.4074,23.4074,0,0,0,.0459,2.91,3.7907,3.7907,0,0,0,.2158,1.2773,1.5479,1.5479,0,0,0,1.3545.5859,1.9155,1.9155,0,0,0,.8623-.2158,2.2061,2.2061,0,0,0,1.0937-2.1406A2.6589,2.6589,0,0,0,300.79,141.303Zm-2.2021-5.3115a2.5241,2.5241,0,0,0-.6006.0615c-.0615.0157-.1377.2-.1377.2461-.0312.2774-.0469,2.4024-.0312,3.5723,0,.0615.0312.2148.1689.2148a4.7308,4.7308,0,0,0,1.0469.0157,1.94,1.94,0,0,0,1.7715-1.8477A2.1053,2.1053,0,0,0,298.5879,135.9915Z"/><path class="cls-4" d="M303.9941,140.3177a7.5827,7.5827,0,0,0,1.1084-.4.6188.6188,0,0,1,.2315-.1074c.0459,0,.0762.0459.0615.2148-.0312.3086-.0312,1.2471-.0312,2.2324,0,1.294,0,2.4327.0312,2.6944.03.3086.1846.3857.4307.4472.1543.03.2314.0616.2314.1231,0,.0771-.124.1074-.2471.1074-.1386,0-.708-.0615-1.124-.0615-.5078,0-.7539.0312-.9228.0312-.1084,0-.2158-.0312-.2158-.0927s.0771-.1075.2919-.1387c.3389-.0928.4776-.2158.4932-.8467.0156-.4619.0459-3.2637.0459-3.418,0-.2158-.0156-.3076-.4463-.539-.0771-.0459-.123-.0918-.123-.1231C303.81,140.3948,303.8555,140.348,303.9941,140.3177Zm1.54-2.51a.5865.5865,0,0,1-.57.585.5477.5477,0,0,1-.5078-.5694.5705.5705,0,0,1,.539-.6A.5636.5636,0,0,1,305.5342,137.8079Z"/><path class="cls-4" d="M312.8623,142.7806a2.9486,2.9486,0,0,1-2.9248,2.9717,2.936,2.936,0,0,1-1.8789-5.2344,3.1635,3.1635,0,0,1,1.8476-.6465A2.8884,2.8884,0,0,1,312.8623,142.7806Zm-4.8037-.2149a3.5246,3.5246,0,0,0,.6475,2.1094,1.829,1.829,0,0,0,1.4472.8154,1.52,1.52,0,0,0,.97-.3847,3.0687,3.0687,0,0,0,.6465-2.0635c0-1.4619-.7392-2.9092-2.0937-2.9092C308.8906,140.1331,308.0586,140.9642,308.0586,142.5657Z"/><path class="cls-4" d="M315.4053,141.8265c0,1.9394.0156,2.6631.0312,2.956.0147.416.1074.5235.5381.6006.0928.0156.2.0615.2.1074,0,.0616-.1074.1084-.3076.1084-.2461,0-.8008-.0312-1.0625-.0312-.4,0-.8008.0312-1.0313.0312-.1845,0-.2617-.0156-.2617-.0927s.0772-.0928.2774-.1387c.3847-.0772.4765-.2158.538-.8926.0313-.57.0928-3.1719.1084-5.0195,0-1.2471.0157-2.51,0-3.1865,0-.3389-.0312-.4161-.4316-.6621-.1074-.0616-.1533-.0928-.1533-.1387s.0918-.0928.2305-.1231a8.02,8.02,0,0,0,1.1552-.3545.64.64,0,0,1,.1846-.0459c.03,0,.0459.0918.0459.169,0,.1084-.0615,2.7715-.0615,5.081Z"/><path class="cls-4" d="M322.8418,142.7806a2.9487,2.9487,0,0,1-2.9248,2.9717,2.936,2.936,0,0,1-1.8789-5.2344,3.1635,3.1635,0,0,1,1.8476-.6465A2.8884,2.8884,0,0,1,322.8418,142.7806Zm-4.8037-.2149a3.5252,3.5252,0,0,0,.6474,2.1094,1.8293,1.8293,0,0,0,1.4473.8154,1.522,1.522,0,0,0,.97-.3847,3.0687,3.0687,0,0,0,.6465-2.0635c0-1.4619-.7392-2.9092-2.0937-2.9092C318.87,140.1331,318.0381,140.9642,318.0381,142.5657Z"/><path class="cls-4" d="M327.8008,140.179a1.1245,1.1245,0,0,0,.539.0772c.293,0,.9082-.0313,1.14-.0313.0762,0,.1387.1543.1387.3389,0,.1543-.1084.2773-.17.2773-.2158,0-.7695-.0312-.9394-.0312a.1386.1386,0,0,0-.0918.0927c0,.1075.03.3545.03.6309a2.5458,2.5458,0,0,1-.97,2.0791,2.1193,2.1193,0,0,1-1.2011.4,3.7817,3.7817,0,0,1-.6465-.0771.2923.2923,0,0,0-.1846.0459,2.3851,2.3851,0,0,0-.5391.5078.49.49,0,0,0-.1689.3388c0,.4932.6309.6465,1.4316.6465.4776,0,1.3243-.0459,1.7549-.0459a1.59,1.59,0,0,1,1.7246,1.709,3.109,3.109,0,0,1-1.7246,2.51,3.6723,3.6723,0,0,1-1.8623.5078c-1.2324,0-2.2636-.585-2.2636-1.7246a.9825.9825,0,0,1,.2773-.6621c.1074-.1231.6777-.8467.9853-1.1846.0157-.0313.03-.124-.0156-.1387-.4306-.0928-1.247-.6318-1.247-1.2471a.1918.1918,0,0,1,.0927-.1542,6.7432,6.7432,0,0,0,1.2774-1.14c.0156-.0146,0-.0771-.03-.0918a2.3248,2.3248,0,0,1-1.1856-1.9248,1.8587,1.8587,0,0,1,.6465-1.4775,2.3667,2.3667,0,0,1,1.6319-.6319A3.474,3.474,0,0,1,327.8008,140.179ZM325.23,149.17a2.1028,2.1028,0,0,0,1.4629.4619,2.3953,2.3953,0,0,0,1.4316-.3691,2.055,2.055,0,0,0,.8321-1.5859c0-.6465-.4-1.2168-1.3858-1.2168-.5849,0-1.34.0156-1.7558.0312a.9486.9486,0,0,0-.5235.1387,1.947,1.947,0,0,0-.6621,1.37A1.576,1.576,0,0,0,325.23,149.17Zm.1387-8.8369a2.1482,2.1482,0,0,0-.4151,1.3545,2.7953,2.7953,0,0,0,.4766,1.6475,1.2582,1.2582,0,0,0,.9551.4463c.708,0,1.17-.8467,1.17-1.5547a2.7549,2.7549,0,0,0-.4776-1.7246,1.0822,1.0822,0,0,0-.9238-.5235A1.1568,1.1568,0,0,0,325.3682,140.3333Z"/><path class="cls-4" d="M330.4355,140.3177a7.5827,7.5827,0,0,0,1.1084-.4.6188.6188,0,0,1,.2315-.1074c.0459,0,.0762.0459.0615.2148-.0312.3086-.0312,1.2471-.0312,2.2324,0,1.294,0,2.4327.0312,2.6944.03.3086.1846.3857.4307.4472.1543.03.2314.0616.2314.1231,0,.0771-.124.1074-.247.1074-.1387,0-.7081-.0615-1.1241-.0615-.5078,0-.7539.0312-.9228.0312-.1084,0-.2158-.0312-.2158-.0927s.0771-.1075.2919-.1387c.3389-.0928.4776-.2158.4932-.8467.0156-.4619.0459-3.2637.0459-3.418,0-.2158-.0156-.3076-.4463-.539-.0771-.0459-.123-.0918-.123-.1231C330.251,140.3948,330.2969,140.348,330.4355,140.3177Zm1.54-2.51a.5865.5865,0,0,1-.57.585.5477.5477,0,0,1-.5078-.5694.5706.5706,0,0,1,.539-.6A.5636.5636,0,0,1,331.9756,137.8079Z"/><path class="cls-4" d="M334.4238,142.5189a2.5883,2.5883,0,0,0,.77,2.0019,2.1907,2.1907,0,0,0,1.4316.5391,2.0694,2.0694,0,0,0,1.6016-.585c.03-.0312.1074-.0469.1074,0a.4021.4021,0,0,1-.1231.2461,2.6635,2.6635,0,0,1-2.125,1.0156,2.8062,2.8062,0,0,1-1.9238-.7539,2.8994,2.8994,0,0,1-.7705-2.0781,2.942,2.942,0,0,1,.94-2.1406,3.376,3.376,0,0,1,2.2783-.8926,2.3434,2.3434,0,0,1,1.4013.3848.3546.3546,0,0,1,.2159.292.5264.5264,0,0,1-.3848.4931.4708.4708,0,0,1-.2617-.1543,4.2529,4.2529,0,0,0-.8623-.6308,1.3769,1.3769,0,0,0-.585-.1231C335.4854,140.1331,334.4238,140.7484,334.4238,142.5189Z"/><path class="cls-4" d="M342.7393,140.6566a3.7343,3.7343,0,0,1,.2148,1.4c0,.57-.0459,2.0323-.0459,2.4327a.528.528,0,0,0,.5693.5859.9914.9914,0,0,0,.4473-.1387c.0918-.0468.1533,0,.0918.1387a1.2969,1.2969,0,0,1-1.1855.6611,1.0332,1.0332,0,0,1-.9082-.6923.0534.0534,0,0,0-.0772-.0157,2.153,2.153,0,0,1-1.5088.6934,1.2776,1.2776,0,0,1-1.2314-1.3242,1.0869,1.0869,0,0,1,.5537-.878c.37-.2,1.7715-.6152,2.0947-.7392a.2906.2906,0,0,0,.2-.2305,5.3044,5.3044,0,0,0,.03-.708c0-.6318-.1074-1.0625-.3692-1.2627a1.17,1.17,0,0,0-.6464-.2461,1.0591,1.0591,0,0,0-.6163.1846.6183.6183,0,0,0-.2314.3691,1.6643,1.6643,0,0,0-.0147.293.1935.1935,0,0,1-.0615.123,3.3527,3.3527,0,0,1-.7236.3389c-.0772.0156-.1543-.0771-.1543-.1387,0-.1074.1074-.2461.293-.4619a3.9921,3.9921,0,0,1,1.17-.8935,2.063,2.063,0,0,1,.9238-.2764A1.2624,1.2624,0,0,1,342.7393,140.6566ZM341.707,144.89a.6394.6394,0,0,0,.17-.3692,11.0875,11.0875,0,0,0,.0771-1.4629c0-.0156-.0312-.0918-.0625-.0771a8.774,8.774,0,0,0-1.416.5234.7979.7979,0,0,0-.3848.77.8944.8944,0,0,0,.9238.8623A1.0522,1.0522,0,0,0,341.707,144.89Z"/><path class="cls-4" d="M346.1729,141.8265c0,1.9394.0156,2.6631.0312,2.956.0147.416.1074.5235.5381.6006.0928.0156.2.0615.2.1074,0,.0616-.1074.1084-.3076.1084-.2461,0-.8008-.0312-1.0625-.0312-.4,0-.8008.0312-1.0313.0312-.1846,0-.2617-.0156-.2617-.0927s.0771-.0928.2773-.1387c.3848-.0772.4766-.2158.5381-.8926.0313-.57.0928-3.1719.1084-5.0195,0-1.2471.0157-2.51,0-3.1865,0-.3389-.0312-.4161-.4316-.6621-.1074-.0616-.1533-.0928-.1533-.1387s.0918-.0928.23-.1231a8.0214,8.0214,0,0,0,1.1553-.3545.64.64,0,0,1,.1846-.0459c.03,0,.0459.0918.0459.169,0,.1084-.0615,2.7715-.0615,5.081Z"/><rect class="cls-1" x="284.9842" y="155.137" width="3.0492" height="8.8065" rx="1.089" transform="translate(108.0378 -115.5752) rotate(27.9171)"/><path class="cls-4" d="M296.1152,154.345c.5078,0,.8467.0616,1.3086.0616.5078,0,.9854-.0616,1.3242-.0616.1377,0,.2305.03.2305.0772,0,.0615-.0615.123-.2305.1387-.6162.0917-.6474.3232-.6777.9541-.0459.77-.0312,2.5556-.0312,3.5107,0,2.2627.0312,3.5557.0615,4.0176.0469.5859.1387.6933.5849.8008.2159.0468.2618.0927.2618.17s-.1075.0918-.292.0918c-.2461,0-.6309-.0459-1.0782-.0459-.7695,0-1.2158.0771-1.5087.0771-.1387,0-.2461-.0312-.2461-.1084,0-.0459.0771-.0918.3388-.1533.5694-.123.6621-.37.6778-1.2939.03-.8926.0146-5.1416.0146-5.8653a12.8387,12.8387,0,0,0-.0615-1.4785c-.0615-.5078-.2149-.5693-.7383-.6924-.1084-.0312-.17-.0771-.17-.123S295.9766,154.345,296.1152,154.345Z"/><path class="cls-4" d="M305.03,158.887a3.2167,3.2167,0,0,1,.4922,2.0166c0,.8164.0156.9395.0156,1.709.0156,1.0469.0615,1.14.4775,1.2471.1387.0615.2305.0928.2305.1543,0,.0918-.1231.1074-.2773.1074-.2,0-.6465-.0615-.9854-.0615-.5234,0-.7236.0615-.9541.0615-.1387,0-.2461-.03-.2461-.0928s.0918-.123.292-.1689c.37-.0928.4316-.2.4316-.6465v-2.0938c0-1.247-.1084-1.6171-.4931-1.9091a1.3687,1.3687,0,0,0-.877-.293,1.8423,1.8423,0,0,0-1.2012.4932.7932.7932,0,0,0-.1845.4619c0,.1845.0146.97.0146,1.8935a12.499,12.499,0,0,0,.0928,1.6162c.0459.3389.2305.4161.4775.4932.1846.0459.2618.0772.2618.1533,0,.0928-.1543.0928-.3086.0928-.1231,0-.877-.0615-1.2315-.0615-.2,0-.5234.0312-.8154.0312-.17,0-.293-.0312-.293-.1084,0-.0615.1387-.123.3233-.1533.3847-.0771.4463-.1855.4619-.4932.0312-1.1084.0312-2.5253.0312-3.7724,0-.1533-.0312-.3233-.4-.5235-.0927-.0615-.123-.0918-.123-.1377,0-.0312.0762-.0771.2148-.124a5.7361,5.7361,0,0,0,1.2168-.5234c.0459-.0147.1231.0469.1074.123a6.89,6.89,0,0,0-.03.8164c0,.0313.0459.0772.0761.0459a5.3365,5.3365,0,0,1,1.0938-.6923,2.0755,2.0755,0,0,1,.9082-.1846A1.5725,1.5725,0,0,1,305.03,158.887Z"/><path class="cls-4" d="M313.2227,161.2728a2.9485,2.9485,0,0,1-2.9248,2.9716,2.9359,2.9359,0,0,1-1.879-5.2343,3.1638,3.1638,0,0,1,1.8477-.6465A2.8885,2.8885,0,0,1,313.2227,161.2728Zm-4.8038-.2149a3.5246,3.5246,0,0,0,.6475,2.1094,1.8291,1.8291,0,0,0,1.4473.8154,1.5224,1.5224,0,0,0,.97-.3847,3.069,3.069,0,0,0,.6465-2.0635c0-1.4619-.7393-2.9092-2.0938-2.9092C309.251,158.6253,308.4189,159.4564,308.4189,161.0579Z"/><path class="cls-4" d="M316.3955,159.4876a.8858.8858,0,0,0-.2617.5381,9.0235,9.0235,0,0,0-.0156.9394c0,1.14.0312,1.94.0615,2.2637.0615.4766.2471.585.832.6465.2149.03.292.0615.292.1387s-.1387.1074-.3691.1074c-.293,0-.8008-.0615-1.4473-.0615a8.291,8.291,0,0,0-.9394.0927c-.1846,0-.2618-.0312-.2618-.0927,0-.0459.1084-.1231.2315-.1543a.6347.6347,0,0,0,.5537-.6309c.0312-.2617.0469-1.14.0469-2.1553v-1.7089c0-.1084-.1084-.1543-.4-.4-.1084-.0772-.1231-.1231-.1231-.1543s.0918-.0918.2305-.1387a4.671,4.671,0,0,0,.9853-.3691.4855.4855,0,0,1,.2315-.0772c.03,0,.0615.0615.0615.2158,0,.169-.0156.7539-.0156,1.001,0,.0459.03.0615.0771.0147a2.5152,2.5152,0,0,1,1.6621-1.1084.8963.8963,0,0,1,.5391.2.269.269,0,0,1,.1084.2158,1.0551,1.0551,0,0,1-.3389.5234c-.1386.1231-.2.1387-.247.1387a.6914.6914,0,0,1-.2764-.1084,1.085,1.085,0,0,0-.5391-.1846A1.0488,1.0488,0,0,0,316.3955,159.4876Z"/><path class="cls-4" d="M323.1406,158.6712a1.125,1.125,0,0,0,.5391.0772c.293,0,.9082-.0313,1.14-.0313.0762,0,.1387.1543.1387.3389,0,.1543-.1084.2773-.17.2773-.2158,0-.7695-.0312-.94-.0312a.1388.1388,0,0,0-.0918.0927c0,.1075.03.3545.03.6309a2.5457,2.5457,0,0,1-.97,2.0791,2.12,2.12,0,0,1-1.2012.4,3.771,3.771,0,0,1-.6465-.0772.2932.2932,0,0,0-.1845.0459,2.3859,2.3859,0,0,0-.5391.5079.49.49,0,0,0-.169.3388c0,.4932.6309.6465,1.4317.6465.4775,0,1.3242-.0459,1.7549-.0459a1.59,1.59,0,0,1,1.7246,1.709,3.109,3.109,0,0,1-1.7246,2.51,3.6726,3.6726,0,0,1-1.8623.5078c-1.2325,0-2.2637-.585-2.2637-1.7246a.9833.9833,0,0,1,.2773-.6622c.1075-.123.6778-.8466.9854-1.1845.0156-.0313.03-.124-.0156-.1387-.4307-.0928-1.2471-.6318-1.2471-1.2471a.192.192,0,0,1,.0928-.1543,6.7387,6.7387,0,0,0,1.2773-1.14c.0156-.0147,0-.0772-.03-.0918a2.3249,2.3249,0,0,1-1.1855-1.9248,1.8587,1.8587,0,0,1,.6465-1.4776,2.367,2.367,0,0,1,1.6318-.6318A3.474,3.474,0,0,1,323.1406,158.6712Zm-2.5713,8.9912a2.103,2.103,0,0,0,1.4629.4619,2.3956,2.3956,0,0,0,1.4317-.3691,2.0552,2.0552,0,0,0,.832-1.5859c0-.6465-.4-1.2168-1.3857-1.2168-.585,0-1.34.0156-1.7559.0312a.9484.9484,0,0,0-.5234.1387,1.9466,1.9466,0,0,0-.6621,1.37A1.576,1.576,0,0,0,320.5693,167.6624Zm.1387-8.8369a2.1487,2.1487,0,0,0-.415,1.3545,2.7961,2.7961,0,0,0,.4765,1.6475,1.2588,1.2588,0,0,0,.9551.4462c.708,0,1.17-.8466,1.17-1.5546a2.7554,2.7554,0,0,0-.4775-1.7247,1.0825,1.0825,0,0,0-.9238-.5234A1.1572,1.1572,0,0,0,320.708,158.8255Z"/><path class="cls-4" d="M329.2393,159.1487a3.7352,3.7352,0,0,1,.2148,1.4c0,.57-.0459,2.0323-.0459,2.4327a.528.528,0,0,0,.5693.5859.9914.9914,0,0,0,.4473-.1387c.0918-.0469.1533,0,.0918.1387a1.2969,1.2969,0,0,1-1.1855.6611,1.0331,1.0331,0,0,1-.9082-.6924.0534.0534,0,0,0-.0772-.0156,2.153,2.153,0,0,1-1.5088.6934,1.2776,1.2776,0,0,1-1.2314-1.3242,1.0869,1.0869,0,0,1,.5537-.878c.37-.2,1.7715-.6152,2.0947-.7392a.2906.2906,0,0,0,.2-.23,5.3044,5.3044,0,0,0,.03-.708c0-.6318-.1074-1.0625-.3692-1.2627a1.17,1.17,0,0,0-.6464-.2461,1.0591,1.0591,0,0,0-.6163.1846.6183.6183,0,0,0-.2314.3691,1.6643,1.6643,0,0,0-.0147.293.1935.1935,0,0,1-.0615.123,3.3575,3.3575,0,0,1-.7236.3389c-.0772.0156-.1543-.0772-.1543-.1387,0-.1074.1074-.2461.293-.4619a3.9921,3.9921,0,0,1,1.17-.8935,2.063,2.063,0,0,1,.9238-.2764A1.2624,1.2624,0,0,1,329.2393,159.1487Zm-1.0323,4.2334a.6391.6391,0,0,0,.17-.3691,11.0875,11.0875,0,0,0,.0771-1.4629c0-.0156-.0312-.0918-.0625-.0771a8.774,8.774,0,0,0-1.416.5234.7978.7978,0,0,0-.3848.77.8944.8944,0,0,0,.9238.8623A1.0523,1.0523,0,0,0,328.207,163.3821Z"/><path class="cls-4" d="M336.1992,158.887a3.216,3.216,0,0,1,.4922,2.0166c0,.8164.0156.9395.0156,1.709.0157,1.0469.0616,1.14.4776,1.2471.1386.0615.23.0928.23.1543,0,.0918-.123.1074-.2773.1074-.2,0-.6465-.0615-.9854-.0615-.5234,0-.7236.0615-.9541.0615-.1386,0-.2461-.03-.2461-.0928s.0918-.123.292-.1689c.37-.0928.4317-.2.4317-.6465v-2.0938c0-1.247-.1084-1.6171-.4932-1.9091a1.3693,1.3693,0,0,0-.8779-.293,1.8419,1.8419,0,0,0-1.2.4932.7934.7934,0,0,0-.1846.4619c0,.1845.0147.97.0147,1.8935a12.5294,12.5294,0,0,0,.0927,1.6162c.0459.3389.23.4161.4776.4932.1846.0459.2617.0772.2617.1533,0,.0928-.1543.0928-.3086.0928-.123,0-.8769-.0615-1.2314-.0615-.2,0-.5235.0312-.8155.0312-.17,0-.2929-.0312-.2929-.1084,0-.0615.1386-.123.3232-.1533.3848-.0771.4463-.1855.4619-.4932.0313-1.1084.0313-2.5253.0313-3.7724,0-.1533-.0313-.3233-.4-.5235-.0928-.0615-.1231-.0918-.1231-.1377,0-.0312.0762-.0771.2149-.124a5.7383,5.7383,0,0,0,1.2168-.5234c.0459-.0147.123.0469.1074.123a6.8893,6.8893,0,0,0-.03.8164c0,.0313.0459.0772.0762.0459a5.336,5.336,0,0,1,1.0937-.6923,2.0758,2.0758,0,0,1,.9082-.1846A1.5725,1.5725,0,0,1,336.1992,158.887Z"/><path class="cls-4" d="M338.6953,158.81a7.587,7.587,0,0,0,1.1084-.4.6188.6188,0,0,1,.2315-.1074c.0459,0,.0761.0459.0615.2148-.0313.3086-.0313,1.2471-.0313,2.2324,0,1.294,0,2.4326.0313,2.6944.03.3086.1845.3857.4306.4472.1543.03.2315.0616.2315.1231,0,.0771-.124.1074-.2471.1074-.1387,0-.708-.0615-1.124-.0615-.5078,0-.7539.0312-.9229.0312-.1084,0-.2158-.0312-.2158-.0927s.0772-.1075.292-.1387c.3389-.0928.4776-.2158.4932-.8467.0156-.4619.0459-3.2637.0459-3.418,0-.2158-.0156-.3076-.4463-.539-.0772-.0459-.1231-.0918-.1231-.1231C338.5107,158.887,338.5566,158.84,338.6953,158.81Zm1.54-2.51a.5866.5866,0,0,1-.57.585.5478.5478,0,0,1-.5078-.5694.5707.5707,0,0,1,.5391-.6006A.5637.5637,0,0,1,340.2354,156.3Z"/><path class="cls-4" d="M342.9912,161.011a2.5888,2.5888,0,0,0,.7695,2.002,2.1915,2.1915,0,0,0,1.4317.5391,2.069,2.069,0,0,0,1.6015-.585c.03-.0312.1075-.0469.1075,0a.3965.3965,0,0,1-.1231.2461,2.6635,2.6635,0,0,1-2.125,1.0156,2.806,2.806,0,0,1-1.9238-.7539,2.8994,2.8994,0,0,1-.77-2.0781,2.9423,2.9423,0,0,1,.9394-2.1406,3.3765,3.3765,0,0,1,2.2784-.8926,2.3434,2.3434,0,0,1,1.4013.3848.3543.3543,0,0,1,.2158.2919.5264.5264,0,0,1-.3847.4932.4708.4708,0,0,1-.2617-.1543,4.2529,4.2529,0,0,0-.8623-.6308,1.3772,1.3772,0,0,0-.585-.1231C344.0527,158.6253,342.9912,159.2405,342.9912,161.011Z"/><path class="cls-4" d="M51.835,65.9232a1.6317,1.6317,0,0,1,1.37-1.5088c.0771,0,.1387,0,.1387.0771,0,.0308-.0772.0767-.169.1074-.4619.2466-.8008.5542-.8008,1.0469,0,.3237.1543.5083.5694.6162a.3226.3226,0,0,1,.3086.3233.4447.4447,0,0,1-.462.4A.9956.9956,0,0,1,51.835,65.9232Zm1.9091,0A1.6712,1.6712,0,0,1,55.13,64.4144c.0771,0,.1387.0307.1387.0771,0,.0308-.0616.0767-.1543.1074-.462.2466-.8155.57-.8155,1.0469,0,.3237.169.5083.585.6162a.333.333,0,0,1,.3076.3233.4716.4716,0,0,1-.4775.4A1.0072,1.0072,0,0,1,53.7441,65.9232Z"/><path class="cls-4" d="M56.2852,65.0765c.3544,0,1.0009.0615,1.3554.0615.4922,0,1.1543-.0615,1.4317-.0615.23,0,.2929.0615.2929.0923,0,.0922-.1386.1386-.3086.1694-.3691.0459-.539.2461-.539.4311a2.3113,2.3113,0,0,0,.1855.7237c.2764.8159,2.1553,5.6811,2.5088,6.4048.0156.0459.0615.0923.0772.0307.2461-.5083,2.0478-5.1118,2.31-5.8506a4.4653,4.4653,0,0,0,.3076-1.2163c0-.354-.2919-.4467-.7539-.57-.1543-.0151-.2617-.0767-.2617-.123,0-.0616.0772-.1079.3076-.1079.3389,0,.9551.0771,1.2784.0771.3535,0,.7695-.0615,1.0156-.0615.2,0,.2617.0307.2617.0615,0,.0615-.0615.1387-.3076.1846-.585.1694-.8164.4467-1.293,1.5244-.2929.6621-1.1855,2.8638-2.6484,6.4048-.3545.893-.5547,1.4472-.6162,1.6782-.03.1074-.0918.1846-.1231.1846-.0918,0-.123-.1231-.1845-.3233-.5079-1.5244-2.8487-7.4516-3.4336-8.7759a1.0222,1.0222,0,0,0-.8623-.6928c-.1846-.0308-.292-.0923-.292-.1538S56.1475,65.0765,56.2852,65.0765Z"/><path class="cls-4" d="M69.1738,65.03a6.5007,6.5007,0,0,0,.4,1.2934c1.0781,2.8638,1.9092,4.9576,2.8633,7.1285.3857.9082.5391,1.0468.9238,1.1391.1856.0308.2617.0923.2617.1387,0,.0771-.1376.1079-.2763.1079-.293,0-.5391-.0464-1.34-.0464-.5693,0-1.1543.0615-1.5244.0615-.1689,0-.2617-.0307-.2617-.1079,0-.0615.1387-.123.293-.1381.6152-.0928.708-.3545.6924-.6929-.03-.2617-.5538-1.6323-1.0772-2.9868-.0469-.1079-.1387-.1851-.2-.1851-.5849.0308-2.5254.0308-2.8642.0308-.0772,0-.169.1694-.23.2924-.1387.3389-.585,1.4781-.8008,2.2325-.1689.5854-.1689.8779,0,1.0473a1.21,1.21,0,0,0,.6465.2618c.1543.0458.2314.1074.2314.1538,0,.0771-.1386.1079-.3086.1079-.292,0-.9238-.0772-1.4775-.0772-.3848,0-.6777.0772-1.0469.0772-.17,0-.2617-.0308-.2617-.1079s.1533-.108.3076-.1387c.708-.1387.8467-.2769,1.4317-1.57.4463-.9546,1.8017-4.3262,2.6943-6.62A1.0813,1.0813,0,0,0,68.3428,66c0-.0615.0156-.1543.0459-.1694a1.4627,1.4627,0,0,0,.5547-.8008c.03-.0615.0459-.1538.1074-.1538S69.1436,64.9378,69.1738,65.03Zm.6162,5.0654c-.6162-1.74-1.0322-2.7251-1.2627-3.2485-.0459-.1231-.0771-.0772-.123.0307-.3691.8775-1.001,2.648-1.2168,3.2793-.0146.0308-.0146.1387.0469.1387.292.0152.6767.0152,1.2158.0152a7.3353,7.3353,0,0,0,1.34-.0616A.2308.2308,0,0,0,69.79,70.0955Z"/><path class="cls-4" d="M72.625,65.0765c.3545,0,1.001.0615,1.3545.0615.4932,0,1.1553-.0615,1.4316-.0615.2315,0,.293.0615.293.0923,0,.0922-.1387.1386-.3076.1694-.37.0459-.5391.2461-.5391.4311a2.3292,2.3292,0,0,0,.1846.7237c.2773.8159,2.1553,5.6811,2.51,6.4048.0156.0459.0615.0923.0771.0307.2461-.5083,2.0479-5.1118,2.31-5.8506a4.5067,4.5067,0,0,0,.3076-1.2163c0-.354-.293-.4467-.7549-.57-.1533-.0151-.2617-.0767-.2617-.123,0-.0616.0771-.1079.3086-.1079.3389,0,.9541.0771,1.2773.0771.3545,0,.77-.0615,1.0166-.0615.2,0,.2618.0307.2618.0615,0,.0615-.0616.1387-.3086.1846-.585.1694-.8155.4467-1.293,1.5244-.292.6621-1.1856,2.8638-2.6484,6.4048-.3536.893-.5538,1.4472-.6153,1.6782-.0312.1074-.0928.1846-.123.1846-.0928,0-.1231-.1231-.1846-.3233-.5088-1.5244-2.8486-7.4516-3.4336-8.7759a1.0234,1.0234,0,0,0-.8623-.6928c-.1846-.0308-.293-.0923-.293-.1538S72.4863,65.0765,72.625,65.0765Z"/><path class="cls-4" d="M82.5264,65.0765c.3545,0,1.0009.0615,1.3554.0615.4922,0,1.1543-.0615,1.4317-.0615.23,0,.2929.0615.2929.0923,0,.0922-.1386.1386-.3085.1694-.3692.0459-.5391.2461-.5391.4311a2.3113,2.3113,0,0,0,.1855.7237c.2764.8159,2.1553,5.6811,2.5088,6.4048.0157.0459.0615.0923.0772.0307.2461-.5083,2.0478-5.1118,2.31-5.8506a4.4662,4.4662,0,0,0,.3077-1.2163c0-.354-.292-.4467-.7539-.57-.1543-.0151-.2618-.0767-.2618-.123,0-.0616.0772-.1079.3077-.1079.3388,0,.955.0771,1.2783.0771.3535,0,.77-.0615,1.0156-.0615.2,0,.2617.0307.2617.0615,0,.0615-.0615.1387-.3076.1846-.585.1694-.8164.4467-1.293,1.5244-.2929.6621-1.1855,2.8638-2.6484,6.4048-.3545.893-.5547,1.4472-.6162,1.6782-.03.1074-.0918.1846-.1231.1846-.0918,0-.123-.1231-.1845-.3233-.5078-1.5244-2.8487-7.4516-3.4336-8.7759a1.0222,1.0222,0,0,0-.8623-.6928c-.1846-.0308-.292-.0923-.292-.1538S82.3887,65.0765,82.5264,65.0765Z"/><path class="cls-4" d="M96.2471,70.2034a.7781.7781,0,0,0-.1533.5694,30.3455,30.3455,0,0,0,.0771,3.31.5437.5437,0,0,0,.4922.5235c.2314.0458.3389.0766.3389.1538,0,.0463-.0928.0922-.2315.0922-.4307,0-.831-.0615-1.2773-.0615-.4776,0-.708.0615-1.001.0615-.169,0-.2461-.0307-.2461-.0922s.0615-.0923.2461-.1387c.4463-.1079.5547-.1538.5693-.7388.0469-.6162.0625-2.0322.0625-4.48,0-2.3247.03-3.2641,0-3.8491-.0156-.4926-.124-.5385-.4619-.7236-.0625-.0459-.1084-.0767-.1084-.1231s.0928-.0922.2617-.1386a6.3494,6.3494,0,0,0,1.1241-.37.3378.3378,0,0,1,.1543-.0615c.0458,0,.0917.1079.0771.3238-.0156.4155-.0771,5.1884-.0615,5.4809,0,.0615.0459.0767.0615.0459a5.0582,5.0582,0,0,1,.9238-.6313,2.4166,2.4166,0,0,1,1.0772-.2618,1.64,1.64,0,0,1,1.3857.6929,2.969,2.969,0,0,1,.3389,1.6475c.0156,1.1548.0156,2.1094.03,2.6943,0,.3081.0615.416.5234.4927.2.0464.2471.0771.2471.1387s-.1084.1079-.2471.1079c-.3994,0-.6924-.0772-1.1084-.0772-.5234,0-.6465.0615-1,.0615-.1856,0-.2471-.0459-.2471-.0922,0-.0616.0772-.0923.2315-.1231.415-.0923.4463-.2.5078-.647.0312-.354.0615-1.0312.0615-2.6323a2.4659,2.4659,0,0,0-.23-1.1548,1.1526,1.1526,0,0,0-1.0625-.57A1.8628,1.8628,0,0,0,96.2471,70.2034Z"/><path class="cls-4" d="M104.917,69.88a3.7145,3.7145,0,0,1,.2158,1.4009c0,.57-.0459,2.0322-.0459,2.4326a.5274.5274,0,0,0,.5693.5849.9779.9779,0,0,0,.4463-.1386c.0928-.0459.1543,0,.0928.1386a1.2978,1.2978,0,0,1-1.1855.6622,1.0343,1.0343,0,0,1-.9082-.6929.0541.0541,0,0,0-.0772-.0156,2.1547,2.1547,0,0,1-1.5088.6928,1.2767,1.2767,0,0,1-1.2314-1.3237,1.0852,1.0852,0,0,1,.5537-.8779c.37-.2,1.77-.6158,2.0937-.7388a.2917.2917,0,0,0,.2-.231,5.1349,5.1349,0,0,0,.0313-.7085c0-.6308-.1084-1.062-.37-1.2622a1.172,1.172,0,0,0-.6465-.2465,1.0587,1.0587,0,0,0-.6153.185.6161.6161,0,0,0-.2314.3692,1.5739,1.5739,0,0,0-.0156.2929.1886.1886,0,0,1-.0615.1231,3.2929,3.2929,0,0,1-.7237.3388c-.0761.0152-.1533-.0771-.1533-.1386,0-.1079.1074-.2466.292-.4619a4.0052,4.0052,0,0,1,1.17-.8931,2.07,2.07,0,0,1,.9238-.2774A1.2617,1.2617,0,0,1,104.917,69.88Zm-1.0313,4.2339a.6345.6345,0,0,0,.169-.37,10.9085,10.9085,0,0,0,.0771-1.4628c0-.0152-.03-.0923-.0615-.0767a8.6553,8.6553,0,0,0-1.416.5234.7968.7968,0,0,0-.3848.77.8941.8941,0,0,0,.9239.8623A1.0541,1.0541,0,0,0,103.8857,74.1141Z"/><path class="cls-4" d="M107.9053,70.28c0,.647.5849,1.0161.97,1.2471,1.001.6469,1.4014,1.0317,1.4014,1.8169a1.5818,1.5818,0,0,1-.8008,1.2934,2.5612,2.5612,0,0,1-1.2315.3384,3.1412,3.1412,0,0,1-1.2168-.2769c-.123-.0464-.23-.1538-.23-.2465,0-.2154-.0313-.6-.0459-.77-.0313-.2.0146-.2466.0459-.2466.0459,0,.0927,0,.2.2925a1.4978,1.4978,0,0,0,.6465.8316,1.18,1.18,0,0,0,.6933.1845,1.0547,1.0547,0,0,0,1-1.0312c0-.585-.4-.9087-1.0156-1.2935-.6621-.4311-1.2783-1-1.2783-1.6782a1.46,1.46,0,0,1,.5849-1.2163,1.9926,1.9926,0,0,1,1.294-.4312,3.779,3.779,0,0,1,1.0469.1695.2532.2532,0,0,1,.0771.1386c.0146.1695.0762.4776.0918.7237,0,.1694-.03.2466-.0772.2466-.0615,0-.0917-.0772-.1386-.1851a1.1675,1.1675,0,0,0-.3692-.6313,1.2622,1.2622,0,0,0-.7236-.231A.8973.8973,0,0,0,107.9053,70.28Z"/><path class="cls-4" d="M114.08,70.0491c0-.1074-.0147-.1845-.0762-.2-.0771,0-.2471,0-.4316-.0151-.1075-.0156-.2-.0923-.2-.123,0-.0464.0771-.0923.1845-.1543s.2315-.1382.37-.231a.2986.2986,0,0,0,.1533-.2153,9.8283,9.8283,0,0,1,.2617-2.5249,3.5466,3.5466,0,0,1,1.5557-2.0479,2.52,2.52,0,0,1,1.3857-.4155c.6309,0,1.0469.2617,1.0469.4927a.7575.7575,0,0,1-.3848.5078.2786.2786,0,0,1-.3086-.0308,1.82,1.82,0,0,0-1.0928-.5234c-.6933,0-1.2314.4468-1.3857,2.0942-.0459.4771-.0771,1.57-.0771,2.0474a4.4344,4.4344,0,0,0,.0156.4927.1207.1207,0,0,0,.123.0922c.1387,0,1.4473-.0307,1.6162-.0307.0616,0,.1241.0923.1241.2773,0,.2154-.0313.2769-.2159.2769-.2461,0-1.3554-.0308-1.57-.0308-.0468,0-.0771.1235-.0771.1387,0,.57.03,3.3716.0459,3.8183.0459.585.17.7081.3232.7544.1231.0464.293.0464.4932.0923.1846.0464.2773.0772.2773.1387,0,.0771-.1084.1079-.247.1079-.4463,0-.6924-.0464-1.4776-.0464-.3545,0-.6933.0464-.9551.0615-.1386,0-.23-.0307-.23-.0922s.1074-.108.3076-.1538c.37-.0928.4463-.3082.4463-.8624Z"/><path class="cls-4" d="M123.1191,72.0047a2.9485,2.9485,0,0,1-2.9248,2.9712,2.936,2.936,0,0,1-1.8789-5.2344,3.1619,3.1619,0,0,1,1.8477-.647A2.89,2.89,0,0,1,123.1191,72.0047Zm-4.8037-.2158a3.5272,3.5272,0,0,0,.6465,2.1094,1.8311,1.8311,0,0,0,1.4473.8159,1.523,1.523,0,0,0,.9707-.3848,3.0682,3.0682,0,0,0,.6465-2.063c0-1.4629-.7393-2.91-2.0938-2.91C119.1465,69.3563,118.3154,70.1878,118.3154,71.7889Z"/><path class="cls-4" d="M124.876,74.3758a1.6146,1.6146,0,0,1-.293-.9395c0-.5078,0-3.11-.03-3.3715a.6006.6006,0,0,0-.3388-.5083c-.1387-.0923-.1846-.1382-.1846-.1846s.0762-.0772.2461-.0772a5.3916,5.3916,0,0,0,1.293-.2c.0468-.0151.0927.0772.0771.1695-.0459.8779-.0615,2.9717-.0459,3.68A1.7078,1.7078,0,0,0,125.83,73.96a1.1313,1.1313,0,0,0,.8623.3852,1.7269,1.7269,0,0,0,1.3086-.4926.9435.9435,0,0,0,.2773-.7085c.0313-.4156.0313-1.0162.0313-1.57,0-.2309-.0157-.9545-.0157-1.3549-.0156-.5235-.17-.6-.6777-.708-.1689-.0308-.2461-.0772-.2461-.1231,0-.062.1387-.0928.2305-.0928h.6465a8.147,8.147,0,0,0,1.0625-.0922c.0468,0,.0771.0615.0615.1694-.0762.7236-.1074,2.2632-.1074,4.0493a5.0838,5.0838,0,0,0,.0312.7852c.03.1538.0762.1845.1992.1694a4.3188,4.3188,0,0,1,.6319-.1387.1851.1851,0,0,1,.1845.1695c0,.0615-.1386.0922-.2929.123a6.9456,6.9456,0,0,0-1.585.4155c-.123.0616-.1543.0464-.1855,0s-.03-.123-.03-.2925c0-.1538.0156-.4926.0156-.6005,0-.0459-.0156-.1538-.0469-.1075a4.4248,4.4248,0,0,1-1.0615.7544,2.6421,2.6421,0,0,1-.9092.231A1.5122,1.5122,0,0,1,124.876,74.3758Z"/><path class="cls-4" d="M135.6084,69.6185a3.2043,3.2043,0,0,1,.4922,2.0166c0,.8159.0156.9394.0156,1.709.0156,1.0468.0615,1.1391.4776,1.247.1386.0615.23.0923.23.1538,0,.0928-.123.1079-.2763.1079-.2,0-.6475-.0615-.9854-.0615-.5234,0-.7236.0615-.9551.0615-.1386,0-.2461-.0307-.2461-.0922s.0928-.1231.292-.1695c.37-.0923.4317-.2.4317-.6465V71.8509c0-1.2471-.1075-1.6167-.4932-1.9092a1.3659,1.3659,0,0,0-.877-.2925,1.8415,1.8415,0,0,0-1.2011.4927.7984.7984,0,0,0-.1846.4619c0,.1846.0156.97.0156,1.8936a12.6557,12.6557,0,0,0,.0918,1.6167c.0469.3384.2315.4155.4776.4927.1845.0458.2617.0766.2617.1538,0,.0922-.1543.0922-.3076.0922-.1231,0-.878-.0615-1.2325-.0615-.2,0-.5234.0308-.8154.0308-.17,0-.293-.0308-.293-.1079,0-.0616.1387-.1231.3233-.1538.3848-.0772.4473-.1846.4619-.4927.0313-1.1084.0313-2.5249.0313-3.772,0-.1538-.0313-.3232-.4-.5234-.0928-.0615-.1231-.0923-.1231-.1387,0-.0308.0772-.0771.2158-.123a5.8,5.8,0,0,0,1.2159-.5235c.0459-.0156.123.0459.1074.1231a7.0722,7.0722,0,0,0-.03.8159c0,.0307.0459.0771.0771.0464a5.296,5.296,0,0,1,1.0928-.6929,2.0769,2.0769,0,0,1,.9082-.1851A1.57,1.57,0,0,1,135.6084,69.6185Z"/><path class="cls-4" d="M141.8457,69.2488c.03.0152.0762-.0463.0762-.0771,0-.2769-.0147-3.0024-.03-3.8184a.4137.4137,0,0,0-.0615-.2617.8423.8423,0,0,0-.4317-.2461c-.1074-.0307-.1845-.0771-.1845-.123s.0771-.0928.1845-.1079a6.4805,6.4805,0,0,0,1.3243-.37.5223.5223,0,0,1,.2158-.0771c.0459,0,.0771.0771.0615.2617-.0312.4619-.1074,5.4658-.1074,7.0361,0,1.3394.0146,2.4019.03,2.8023a.1365.1365,0,0,0,.1083.1387,4.0431,4.0431,0,0,0,.7237-.1695c.0918-.0307.1377.0152.1377.0615,0,.108-.1074.2466-.3848.2925a8.66,8.66,0,0,0-1.6006.4c-.0615.0152-.1084-.0615-.1084-.1079a4.5856,4.5856,0,0,0,.0313-.6313c0-.0308-.0313-.0616-.0615-.0308a2.8909,2.8909,0,0,1-1.7559.7236,2.5124,2.5124,0,0,1-1.6318-.6465,2.9183,2.9183,0,0,1-.8-2.0629,3.0659,3.0659,0,0,1,1.3388-2.5406,3.4621,3.4621,0,0,1,1.9092-.5849A4.2585,4.2585,0,0,1,141.8457,69.2488Zm-2.2939.4156a2.7307,2.7307,0,0,0-.8477,2.2324c0,1.6631.9395,2.5249,1.8789,2.5249a1.6048,1.6048,0,0,0,1.0928-.4,1.0372,1.0372,0,0,0,.17-.5693A21.4385,21.4385,0,0,0,141.83,70.48a1.0338,1.0338,0,0,0-.1387-.37,1.7149,1.7149,0,0,0-1.37-.7081A1.1328,1.1328,0,0,0,139.5518,69.6644Z"/><path class="cls-4" d="M58.0557,82.8924a9.4662,9.4662,0,0,0,1.956-.4,1.6162,1.6162,0,0,1,.3389-.1079c.03,0,.0615.0156.0615.1079,0,.2-.0156,1.57-.0469,2.5713-.0146,1.293.0157,4.5264.0469,5.1885.0459.9546.1231,1.0468.77,1.1548.169.0307.2461.0922.2461.1538s-.0918.1079-.292.1079c-.7851,0-1.2627-.0772-1.8017-.0772-.7549,0-1.0469.0772-1.586.0772-.1386,0-.2617-.0308-.2617-.1236,0-.0615.0928-.0922.2461-.123.7237-.1231.8623-.2617.8936-1.17.0459-.4776.0771-1.3086.0771-3.9414,0-1.8628-.0156-2.3711-.0469-2.7559a.3747.3747,0,0,0-.2-.3389,2.324,2.324,0,0,0-.3848-.0922c-.0918-.0157-.23-.0616-.23-.1231C57.8408,82.9539,57.9326,82.9075,58.0557,82.8924Z"/><path class="cls-4" d="M68.9277,86.9417c0,2.6787-.8007,3.9722-1.57,4.48a2.21,2.21,0,0,1-1.2168.354c-2.0937,0-2.8476-2.7559-2.8476-4.5415,0-2.4175.6308-3.8955,1.8623-4.6035a2.1248,2.1248,0,0,1,1.0312-.2466C68.2812,82.3841,68.9277,85.1863,68.9277,86.9417ZM65.5557,83a8.3675,8.3675,0,0,0-.585,3.6641c0,2.51.3232,4.896,1.2627,4.896.2148,0,.4463-.0923.6621-.7544a13.91,13.91,0,0,0,.3848-3.4951c0-2.3555-.4-4.6958-1.2168-4.6958A.6164.6164,0,0,0,65.5557,83Z"/><path class="cls-4" d="M73.5938,88.42a2.7274,2.7274,0,0,0,.6474,1.8936,2.0359,2.0359,0,0,0,1.3389.5386,1.9433,1.9433,0,0,0,1.4941-.5235c.0762-.0615.1377-.0615.1377,0a.5431.5431,0,0,1-.123.2774,2.5742,2.5742,0,0,1-2.1709,1.1391,2.8328,2.8328,0,0,1-1.7705-5.019,3.8377,3.8377,0,0,1,2.2636-.8775,2.3586,2.3586,0,0,1,1.5088.4156.4182.4182,0,0,1,.1846.2925.569.569,0,0,1-.4922.6.607.607,0,0,1-.2617-.1386,6.8721,6.8721,0,0,0-.9707-.7237,1.19,1.19,0,0,0-.5694-.123C74.3945,86.1717,73.5938,86.68,73.5938,88.42Z"/><path class="cls-4" d="M83.9727,88.7581a3.0807,3.0807,0,0,1-1.2012,2.4175,3.2577,3.2577,0,0,1-1.8477.6,2.9773,2.9773,0,0,1-3.0947-2.94,2.83,2.83,0,0,1,1.0938-2.2788,3.1346,3.1346,0,0,1,1.9707-.7081A2.9213,2.9213,0,0,1,83.9727,88.7581ZM79.4619,88.42a4.6182,4.6182,0,0,0,.4766,2.2632,1.4906,1.4906,0,0,0,1.1709.8467.9147.9147,0,0,0,.708-.354,3.6419,3.6419,0,0,0,.5078-2.0942c0-1.7549-.4922-2.9712-1.57-2.9712C80.0928,86.11,79.4619,87.08,79.4619,88.42Z"/><path class="cls-4" d="M90.0557,86.3719a2.73,2.73,0,0,1,.539,1.94c.0157.8931.0313,1.0469.0313,1.9092.0156.9546.0918,1.0776.5078,1.1856.0771.0307.1689.0615.1689.1381,0,.0621-.0761.0928-.2148.0928-.3545,0-.8623-.0464-1.17-.0464a12.1241,12.1241,0,0,0-1.2784.0615c-.1542,0-.2617-.0458-.2617-.1079s.0928-.1074.2305-.1381c.416-.1236.4932-.231.4932-.5855V88.5579c0-1.1855-.0928-1.5088-.462-1.8012a1.2256,1.2256,0,0,0-.7236-.2154,1.3835,1.3835,0,0,0-.831.2925.4618.4618,0,0,0-.1543.3232c0,.2925.0156,1.0162.0156,1.8013.0156.9546.0459,1.7246.0615,1.9092a.52.52,0,0,0,.4307.5234c.1845.0464.247.0772.247.1538,0,.0928-.17.1079-.2773.1079-.1543,0-1.0322-.0615-1.3857-.0615-.2,0-.6006.0308-1.0625.0308-.169,0-.293-.0464-.293-.1231,0-.0615.1387-.123.2773-.1538.4317-.0771.4619-.2.4776-.5547.0312-.8925.0459-2.2324.0459-3.6489,0-.1538-.0459-.2768-.3535-.4927-.1387-.0922-.1231-.123-.1231-.1538,0-.0459.0762-.0923.2149-.123a7.859,7.859,0,0,0,1.6318-.6314c.0469-.0151.124.0464.124.1231a5.97,5.97,0,0,0-.0312.77c0,.0308.0459.0464.0771.0151a4.4175,4.4175,0,0,1,.9082-.6,2.2338,2.2338,0,0,1,.9082-.2A1.5936,1.5936,0,0,1,90.0557,86.3719Z"/><path class="cls-4" d="M92.6133,91.0369a1.9191,1.9191,0,0,1-.1846-.9546V86.9261c0-.1231-.0156-.2-.1084-.2617a1.0373,1.0373,0,0,0-.2461-.0923c-.123-.0308-.2-.0772-.2-.1538,0-.0464.0772-.1236.2461-.2158a5.0749,5.0749,0,0,0,1.4473-1.0933c.2314-.231.3388-.1694.3388-.0923,0,.1079-.03.7544-.0156.8774,0,.0464.0156.1543.0772.1543.2929-.0156,1.3242-.0463,1.57-.0307.0312,0,.123.1074.123.2768,0,.3389-.1074.354-.1689.354H94.1377c-.1856,0-.2158.0621-.2158.1387,0,.3389-.0157,2.8023,0,3.2027a1.1022,1.1022,0,0,0,.1689.708.9523.9523,0,0,0,.7393.3388,1.2363,1.2363,0,0,0,.708-.185c.1543-.0923.2-.0459.2,0,0,.0927-.0772.2158-.3233.416a2.12,2.12,0,0,1-1.3857.4619A1.51,1.51,0,0,1,92.6133,91.0369Z"/><path class="cls-4" d="M100.1426,86.48a2.76,2.76,0,0,1,.3847,1.54c0,.7388-.03,2.0323-.03,2.4327a.4975.4975,0,0,0,.5078.4926.8415.8415,0,0,0,.4316-.1235c.0615-.0459.1231.062.0762.1543a1.5759,1.5759,0,0,1-1.416.8,1.1107,1.1107,0,0,1-1.0313-.7236c0-.0152-.0468-.0308-.0771-.0152a1.9639,1.9639,0,0,1-1.4932.708A1.3254,1.3254,0,0,1,96.248,90.36a1.1046,1.1046,0,0,1,.5694-.9546c.4-.2,1.6777-.5239,2.0937-.6929a.3068.3068,0,0,0,.2-.2309,6.006,6.006,0,0,0,.0157-.7393,1.3692,1.3692,0,0,0-.3389-1.1084.9452.9452,0,0,0-.6006-.2617,1.16,1.16,0,0,0-.5391.1387.375.375,0,0,0-.1533.2617c0,.0766.0147.3076.0147.4463a.278.278,0,0,1-.0918.123,5.3687,5.3687,0,0,1-.94.4927.1849.1849,0,0,1-.1846-.169,1.2614,1.2614,0,0,1,.4-.6469,4.26,4.26,0,0,1,1.17-.8467,2.6254,2.6254,0,0,1,1.0312-.3233A1.4838,1.4838,0,0,1,100.1426,86.48Zm-1.2471,4.3721a.6316.6316,0,0,0,.1387-.3076,14.6433,14.6433,0,0,0,.0771-1.54c0-.0156-.03-.1079-.0927-.0923a5.2714,5.2714,0,0,0-.9854.3848.84.84,0,0,0-.4463.8.8766.8766,0,0,0,.832.9394A.6117.6117,0,0,0,98.8955,90.8519Z"/><path class="cls-4" d="M102.1152,86.5413c0-.0464.0918-.1079.2-.123a4.8343,4.8343,0,0,0,1.4-.5547.5307.5307,0,0,1,.2774-.1074c.0615,0,.0771.0766.0771.1538,0,.1694,0,.5542-.0156.708,0,.0771.0156.1387.0771.0771a2.9463,2.9463,0,0,1,1.878-.8315,1.5876,1.5876,0,0,1,1.4785.97.0739.0739,0,0,0,.1074.0151,2.9493,2.9493,0,0,1,2.0322-.97,1.6115,1.6115,0,0,1,1.54,1.1392,4.9893,4.9893,0,0,1,.1845,1.4321c.0157.5078.0459,1.7241.0616,2.2476s.1689.6157.4463.6621c.1542.0464.246.1079.246.1386,0,.0767-.0918.1387-.2919.1387-.17,0-.8008-.0464-1.1553-.0464-.3692,0-.9229.0615-1.1543.0615-.2,0-.2774-.0307-.2774-.1079s.1231-.123.2315-.1538c.3232-.0771.415-.2461.415-.6928a21.0681,21.0681,0,0,0-.1074-3.0328c-.1387-.7856-.5391-1.0473-1.14-1.0473a1.4709,1.4709,0,0,0-.9385.4.5369.5369,0,0,0-.0615.3081c.0918.6006.0918,3.0176.1074,3.4331.0459.4311.0927.5234.4306.6162.1543.0615.2315.1074.2315.1689s-.1074.0928-.2315.0928c-.5234,0-.7539-.0464-1.4472-.0464-.3535,0-.7852.0464-.9541.0464-.2158,0-.2617-.0307-.2617-.0928,0-.0459.0615-.1074.2158-.1538.3232-.0771.4619-.2.4619-.57l.0459-2.4634c0-.8159-.0459-1.1391-.3545-1.478a1.1008,1.1008,0,0,0-.7852-.3076,1.2412,1.2412,0,0,0-.8769.3384.9624.9624,0,0,0-.1231.2622c-.0156.2-.0312.5234-.0312,1.185a22.1967,22.1967,0,0,0,.0771,2.6328c.03.2159.1075.3081.4.3853.169.0615.23.1074.23.1538,0,.0772-.1074.1079-.23.1079-.2773,0-.8623-.0464-1.2314-.0464-.6475,0-.9238.0464-1.294.0464-.1386,0-.2461-.0464-.2461-.1079,0-.0771.0928-.1079.2774-.1538.3848-.0928.4765-.231.4922-.5083.0312-.2461.0468-2.0938.0468-2.648,0-.3852.0147-.7851-.0156-1.0317,0-.1538-.0771-.2925-.3086-.4619-.0918-.0772-.123-.1079-.123-.1846Z"/><path class="cls-4" d="M113.0645,86.3255a6.9672,6.9672,0,0,0,1.5087-.4619,1.374,1.374,0,0,1,.2305-.0923c.0459,0,.0772.0464.0615.2158-.03.3233-.03,1.1084-.03,1.7549,0,1.7246,0,2.9561.03,3.187a.4661.4661,0,0,0,.416.4776c.169.0459.2149.0922.2149.1538,0,.0771-.1074.1079-.23.1079-.2617,0-.6162-.0772-1.2627-.0772-.6767,0-1.0312.0308-1.2011.0308-.1377,0-.2618-.0464-.2618-.1079,0-.0767.0928-.1074.2774-.1382.4-.0928.5088-.293.5088-.8315,0-.462.0459-3.1407.0459-3.295,0-.2925,0-.354-.4-.6313-.0772-.0615-.1231-.1074-.1231-.169C112.8486,86.4183,112.8945,86.3719,113.0645,86.3255Zm1.832-2.4478a.7373.7373,0,0,1-.7549.77.6961.6961,0,0,1-.6465-.708.7366.7366,0,0,1,.7237-.7852A.7247.7247,0,0,1,114.8965,83.8777Z"/><path class="cls-4" d="M121.3633,86.3719a2.7349,2.7349,0,0,1,.539,1.94c.0157.8931.03,1.0469.03,1.9092.0156.9546.0928,1.0776.5088,1.1856.0762.0307.169.0615.169.1381,0,.0621-.0772.0928-.2159.0928-.3535,0-.8623-.0464-1.17-.0464a12.088,12.088,0,0,0-1.2773.0615c-.1543,0-.2627-.0458-.2627-.1079s.0927-.1074.2314-.1381c.416-.1236.4922-.231.4922-.5855V88.5579c0-1.1855-.0918-1.5088-.4609-1.8012a1.23,1.23,0,0,0-.7237-.2154,1.3844,1.3844,0,0,0-.832.2925.4613.4613,0,0,0-.1533.3232c0,.2925.0146,1.0162.0146,1.8013.0157.9546.0469,1.7246.0616,1.9092a.52.52,0,0,0,.4316.5234c.1846.0464.2461.0772.2461.1538,0,.0928-.169.1079-.2774.1079-.1533,0-1.0312-.0615-1.3857-.0615-.2,0-.6006.0308-1.0615.0308-.17,0-.293-.0464-.293-.1231,0-.0615.1387-.123.2774-.1538.4306-.0771.4619-.2.4765-.5547.0313-.8925.0469-2.2324.0469-3.6489,0-.1538-.0469-.2768-.3545-.4927-.1387-.0922-.123-.123-.123-.1538,0-.0459.0771-.0923.2158-.123a7.859,7.859,0,0,0,1.6318-.6314c.0459-.0151.1231.0464.1231.1231a5.9785,5.9785,0,0,0-.03.77c0,.0308.0459.0464.0762.0151a4.42,4.42,0,0,1,.9091-.6,2.23,2.23,0,0,1,.9082-.2A1.5934,1.5934,0,0,1,121.3633,86.3719Z"/><path class="cls-4" d="M127.1074,86.48a2.76,2.76,0,0,1,.3848,1.54c0,.7388-.03,2.0323-.03,2.4327a.4976.4976,0,0,0,.5078.4926.8416.8416,0,0,0,.4317-.1235c.0615-.0459.123.062.0761.1543a1.5758,1.5758,0,0,1-1.416.8,1.11,1.11,0,0,1-1.0312-.7236c0-.0152-.0469-.0308-.0772-.0152a1.9637,1.9637,0,0,1-1.4931.708,1.3253,1.3253,0,0,1-1.2471-1.3852,1.1045,1.1045,0,0,1,.5693-.9546c.4-.2,1.6778-.5239,2.0938-.6929a.3072.3072,0,0,0,.2-.2309,6.0245,6.0245,0,0,0,.0156-.7393,1.3688,1.3688,0,0,0-.3389-1.1084.945.945,0,0,0-.6006-.2617,1.16,1.16,0,0,0-.539.1387.3743.3743,0,0,0-.1533.2617c0,.0766.0146.3076.0146.4463a.278.278,0,0,1-.0918.123,5.3677,5.3677,0,0,1-.9394.4927.1849.1849,0,0,1-.1846-.169,1.2614,1.2614,0,0,1,.4-.6469,4.2578,4.2578,0,0,1,1.17-.8467,2.6262,2.6262,0,0,1,1.0313-.3233A1.4836,1.4836,0,0,1,127.1074,86.48Zm-1.247,4.3721a.6325.6325,0,0,0,.1386-.3076,14.6078,14.6078,0,0,0,.0772-1.54c0-.0156-.03-.1079-.0928-.0923a5.274,5.274,0,0,0-.9854.3848.84.84,0,0,0-.4462.8.8765.8765,0,0,0,.832.9394A.6119.6119,0,0,0,125.86,90.8519Z"/><path class="cls-4" d="M134.1445,86.3719a2.73,2.73,0,0,1,.5391,1.94c.0156.8931.0312,1.0469.0312,1.9092.0157.9546.0918,1.0776.5079,1.1856.0771.0307.1689.0615.1689.1381,0,.0621-.0762.0928-.2148.0928-.3545,0-.8623-.0464-1.17-.0464a12.1232,12.1232,0,0,0-1.2783.0615c-.1543,0-.2617-.0458-.2617-.1079s.0928-.1074.2305-.1381c.416-.1236.4931-.231.4931-.5855V88.5579c0-1.1855-.0927-1.5088-.4619-1.8012a1.2258,1.2258,0,0,0-.7236-.2154,1.3838,1.3838,0,0,0-.8311.2925.4621.4621,0,0,0-.1543.3232c0,.2925.0157,1.0162.0157,1.8013.0156.9546.0459,1.7246.0615,1.9092a.52.52,0,0,0,.4306.5234c.1846.0464.2471.0772.2471.1538,0,.0928-.17.1079-.2773.1079-.1543,0-1.0323-.0615-1.3858-.0615-.2,0-.6006.0308-1.0625.0308-.1689,0-.2929-.0464-.2929-.1231,0-.0615.1386-.123.2773-.1538.4316-.0771.4619-.2.4775-.5547.0313-.8925.0459-2.2324.0459-3.6489,0-.1538-.0459-.2768-.3535-.4927-.1386-.0922-.123-.123-.123-.1538,0-.0459.0761-.0923.2148-.123a7.8579,7.8579,0,0,0,1.6319-.6314c.0468-.0151.124.0464.124.1231a5.9867,5.9867,0,0,0-.0313.77c0,.0308.0459.0464.0772.0151a4.4175,4.4175,0,0,1,.9082-.6,2.2331,2.2331,0,0,1,.9082-.2A1.5932,1.5932,0,0,1,134.1445,86.3719Z"/><path class="cls-4" d="M136.7021,91.0369a1.92,1.92,0,0,1-.1845-.9546V86.9261c0-.1231-.0156-.2-.1084-.2617a1.0373,1.0373,0,0,0-.2461-.0923c-.1231-.0308-.2-.0772-.2-.1538,0-.0464.0771-.1236.2461-.2158a5.0733,5.0733,0,0,0,1.4472-1.0933c.2315-.231.3389-.1694.3389-.0923,0,.1079-.03.7544-.0156.8774,0,.0464.0156.1543.0771.1543.293-.0156,1.3243-.0463,1.57-.0307.0312,0,.123.1074.123.2768,0,.3389-.1074.354-.1689.354h-1.3545c-.1856,0-.2159.0621-.2159.1387,0,.3389-.0156,2.8023,0,3.2027a1.1021,1.1021,0,0,0,.169.708.9521.9521,0,0,0,.7392.3388,1.2364,1.2364,0,0,0,.7081-.185c.1542-.0923.2-.0459.2,0,0,.0927-.0771.2158-.3232.416a2.12,2.12,0,0,1-1.3857.4619A1.51,1.51,0,0,1,136.7021,91.0369Z"/><path class="cls-4" d="M141.6768,86.9261c0,.6006.5234.8931,1.1543,1.2934.97.6465,1.34,1.0469,1.34,1.8321a1.7178,1.7178,0,0,1-.709,1.2934,3.0121,3.0121,0,0,1-1.5088.4307,4.2671,4.2671,0,0,1-1.3388-.2617c-.1084-.0459-.2618-.1846-.2618-.2925-.0156-.2153-.0615-.6929-.0771-.8467-.0156-.2.0156-.3081.0771-.3081.0459,0,.1075.0464.2.3237a1.9347,1.9347,0,0,0,.6465.9234,1.1415,1.1415,0,0,0,.77.2.9218.9218,0,0,0,.9238-.8618c0-.4468-.3233-.77-1.1084-1.2627a2.2856,2.2856,0,0,1-1.2471-1.8013,1.5849,1.5849,0,0,1,.7539-1.37,2.3143,2.3143,0,0,1,1.31-.37,3.549,3.549,0,0,1,1.2.2.2025.2025,0,0,1,.0928.1539c0,.1538.0615.4311.0771.8315.0147.1694-.0312.2461-.0928.2461s-.0927-.0767-.1386-.2a1.4125,1.4125,0,0,0-.3848-.708,1.285,1.285,0,0,0-.8008-.2774A.8865.8865,0,0,0,141.6768,86.9261Z"/><path class="cls-4" d="M56.7783,103.1409a7.6255,7.6255,0,0,0,1.1084-.4.6264.6264,0,0,1,.23-.1074c.0469,0,.0771.0459.0615.2158-.03.3077-.03,1.2471-.03,2.2325,0,1.2929,0,2.4326.03,2.6943.0313.3076.1856.3848.4317.4463.1542.03.23.0615.23.123,0,.0772-.123.1075-.2461.1075-.1386,0-.708-.0616-1.124-.0616-.5078,0-.7539.0313-.9238.0313-.1074,0-.2149-.0313-.2149-.0928s.0762-.1074.292-.1387c.3389-.0918.4776-.2148.4932-.8466.0146-.462.0459-3.2637.0459-3.418,0-.2149-.0156-.3076-.4463-.5391-.0772-.0459-.123-.0918-.123-.123C56.5938,103.2181,56.64,103.1722,56.7783,103.1409Zm1.5391-2.5092a.5856.5856,0,0,1-.5694.5844.5476.5476,0,0,1-.5078-.5688.57.57,0,0,1,.5391-.6006A.5628.5628,0,0,1,58.3174,100.6317Z"/><path class="cls-4" d="M64.4766,103.2181a3.2106,3.2106,0,0,1,.4931,2.0166c0,.8164.0157.9394.0157,1.709.0146,1.0468.0615,1.14.4765,1.247.1387.0616.2315.0928.2315.1543,0,.0928-.1231.1075-.2774.1075-.2,0-.6465-.0616-.9853-.0616-.5235,0-.7237.0616-.9541.0616-.1387,0-.2471-.03-.2471-.0918s.0928-.1231.293-.17c.3691-.0918.4306-.2.4306-.6464v-2.0938c0-1.2471-.1074-1.6162-.4922-1.9092a1.3711,1.3711,0,0,0-.8779-.292,1.8365,1.8365,0,0,0-1.2.4922.795.795,0,0,0-.1855.4619c0,.1846.0156.97.0156,1.8936a12.5391,12.5391,0,0,0,.0928,1.6172c.0459.3379.23.415.4765.4922.1856.0459.2617.0771.2617.1543,0,.0918-.1533.0918-.3076.0918-.123,0-.8769-.0616-1.2314-.0616-.2,0-.5235.0313-.8164.0313-.169,0-.292-.0313-.292-.1084,0-.0615.1387-.1231.3232-.1533.3848-.0772.4463-.1846.4619-.4932.03-1.1084.03-2.5244.03-3.7715,0-.1543-.03-.3232-.4-.5234-.0918-.0615-.123-.0928-.123-.1387,0-.0312.0771-.0771.2158-.123a5.8351,5.8351,0,0,0,1.2168-.5235c.0459-.0156.123.0459.1074.1231a7.0611,7.0611,0,0,0-.0312.8154c0,.0312.0468.0771.0771.0469a5.2809,5.2809,0,0,1,1.0938-.6934,2.09,2.09,0,0,1,.9082-.1846A1.57,1.57,0,0,1,64.4766,103.2181Z"/><path class="cls-4" d="M74.6406,105.6048a2.9485,2.9485,0,0,1-2.9248,2.9707,2.936,2.936,0,0,1-1.8789-5.2344,3.1617,3.1617,0,0,1,1.8477-.6465A2.89,2.89,0,0,1,74.6406,105.6048Zm-4.8037-.2158a3.5282,3.5282,0,0,0,.6465,2.1094,1.8318,1.8318,0,0,0,1.4473.8154,1.523,1.523,0,0,0,.9707-.3848,3.0659,3.0659,0,0,0,.6465-2.0625c0-1.4629-.7393-2.91-2.0938-2.91C70.668,102.9564,69.8369,103.7874,69.8369,105.389Z"/><path class="cls-4" d="M76.3975,107.9759a1.6161,1.6161,0,0,1-.293-.9395c0-.5078,0-3.11-.03-3.372a.5991.5991,0,0,0-.3388-.5078c-.1387-.0928-.1846-.1387-.1846-.1846s.0762-.0772.2461-.0772a5.4152,5.4152,0,0,0,1.2929-.2c.0469-.0156.0928.0772.0772.169-.0459.8779-.0615,2.9717-.0459,3.68a1.7086,1.7086,0,0,0,.2305,1.0166,1.1325,1.1325,0,0,0,.8623.3847,1.7264,1.7264,0,0,0,1.3086-.4921.9447.9447,0,0,0,.2773-.709c.0313-.4151.0313-1.0157.0313-1.57,0-.23-.0157-.9541-.0157-1.3545-.0156-.5235-.17-.6006-.6777-.708-.1689-.0313-.2461-.0772-.2461-.1231,0-.0625.1387-.0928.2305-.0928h.6465a8.1043,8.1043,0,0,0,1.0625-.0927c.0468,0,.0771.0615.0615.17-.0762.7236-.1074,2.2627-.1074,4.0488a5.08,5.08,0,0,0,.0312.7852c.03.1543.0762.1845.1992.17a4.2543,4.2543,0,0,1,.6319-.1387.1847.1847,0,0,1,.1845.169c0,.0615-.1386.0927-.2929.123a6.9252,6.9252,0,0,0-1.585.416c-.123.0616-.1543.0459-.1855,0s-.03-.123-.03-.2929c0-.1534.0156-.4922.0156-.6,0-.0468-.0156-.1542-.0469-.1083a4.4468,4.4468,0,0,1-1.0615.7548,2.6418,2.6418,0,0,1-.9092.2305A1.5128,1.5128,0,0,1,76.3975,107.9759Z"/><path class="cls-4" d="M84.1436,103.8187a.88.88,0,0,0-.2618.539,8.7568,8.7568,0,0,0-.0156.9385c0,1.14.0313,1.94.0615,2.2637.0616.4775.2461.5849.8321.6465.2148.0312.292.0615.292.1386s-.1387.1075-.3692.1075c-.293,0-.8008-.0616-1.4472-.0616a8.2852,8.2852,0,0,0-.9395.0928c-.1846,0-.2617-.0312-.2617-.0928,0-.0459.1074-.123.23-.1533a.6363.6363,0,0,0,.5547-.6318c.0313-.2617.0459-1.1387.0459-2.1553v-1.709c0-.1074-.1074-.1543-.4-.4-.1074-.0771-.123-.123-.123-.1543s.0928-.0918.2314-.1377a4.6677,4.6677,0,0,0,.9854-.37.4862.4862,0,0,1,.2305-.0771c.0312,0,.0615.0615.0615.2158,0,.17-.0147.7549-.0147,1.001,0,.0459.03.0615.0762.0156a2.5135,2.5135,0,0,1,1.6631-1.1084.898.898,0,0,1,.5391.1992.27.27,0,0,1,.1074.2158,1.0445,1.0445,0,0,1-.3389.5235c-.1377.123-.2.1386-.2461.1386a.7049.7049,0,0,1-.2773-.1074,1.07,1.07,0,0,0-.5381-.1846A1.0518,1.0518,0,0,0,84.1436,103.8187Z"/><path class="cls-4" d="M88.9941,98.6766c.3545.0151,1.294.0615,1.7862.0615.0615,0,.1386.0615.2.2153.6621,1.4629,2.833,5.7735,3.8027,7.59.0459.0927.0772.0312.1387-.0615.9082-1.7393,2.8633-5.542,3.2334-6.2964a13.2007,13.2007,0,0,0,.4619-1.2471c.0156-.0308.0771-.2.1533-.2.4316,0,1.2471-.0923,1.6787-.0923.1543,0,.2461.0308.2461.0923s-.123.123-.2305.1387c-.9082.2153-.9707.3847-1.0166,1.2929-.03.523-.0459,2.3706-.0459,3.1412,0,1.6777.0616,3.2021.0918,3.6943.0625.8935.2315,1.0322.8321,1.2168.1386.0459.2461.0918.2461.1689,0,.0616-.0928.0928-.2774.0928-.292,0-1.124-.0928-1.539-.0928-.6319,0-1.0469.0313-1.2784.0313-.1543,0-.3232-.0156-.3232-.1231,0-.0615.1543-.123.3076-.1386.6475-.17.7549-.4161.8008-1.6934.0459-.832.0459-4.958.0459-5.65,0-.1543-.0459-.1543-.0762-.0615-1.0322,2.0625-2.9258,5.7578-3.665,7.4053-.0762.1845-.1377.2773-.2305.2773-.0771,0-.1846-.2471-.3232-.5391-.7237-1.5556-2.7715-5.8349-3.3565-7.02-.0771-.1386-.1074-.1386-.1386.0762-.0616.8936-.2305,4.8809-.2305,5.5127a3.8822,3.8822,0,0,0,.0918,1.123.9025.9025,0,0,0,.7851.6163c.17.0312.2618.0927.2618.1543,0,.0918-.1387.123-.3077.1074-.1845-.0156-.7392-.0772-1.2929-.0772s-.9707.0928-1.1241.0928c-.2,0-.2773-.0312-.2773-.1084,0-.0459.0615-.1074.2773-.1533a1.1553,1.1553,0,0,0,.8311-.4932,4.3773,4.3773,0,0,0,.3232-1.6621c.0928-.9092.3077-4.3262.3077-5.3115,0-.9238-.0918-1.14-.3536-1.4473a1.3124,1.3124,0,0,0-.8466-.4c-.1387-.0307-.2461-.0923-.2461-.1543S88.8555,98.6609,88.9941,98.6766Z"/><path class="cls-4" d="M110.29,99.2151a.272.272,0,0,1,.1543.2618c-.03.37.0459,1.0317.0459,1.1855s-.0615.2461-.0918.2461c-.0615,0-.1084-.0771-.1386-.2a2.4018,2.4018,0,0,0-.7393-1.2314,3.5288,3.5288,0,0,0-2.3555-.77,3.7135,3.7135,0,0,0-2.6787,1.2007,5.56,5.56,0,0,0-1.17,3.5718,5.8334,5.8334,0,0,0,1.416,3.7256,3.6751,3.6751,0,0,0,2.6328,1.14,3.2675,3.2675,0,0,0,1.8321-.4306,2.7585,2.7585,0,0,0,1.1855-1.51c.0615-.1992.0928-.2617.1543-.2617s.0918.1387.0918.2314a11.0518,11.0518,0,0,1-.2148,1.2158.4139.4139,0,0,1-.1543.2315,5.585,5.585,0,0,1-3.002.8467,5.3,5.3,0,0,1-4.0029-1.6319,5.38,5.38,0,0,1-1.294-3.4023,4.9111,4.9111,0,0,1,1.7246-3.8955,5.5356,5.5356,0,0,1,3.587-1.2778A7.1125,7.1125,0,0,1,110.29,99.2151Z"/><path class="cls-4" d="M112.0166,98.6609c.4775,0,.9707.0772,1.3857.0772.4776,0,.9082-.0615,1.2627-.0615.1846,0,.2461.0307.2461.0766,0,.0772-.0918.1236-.2148.1543-.6318.1231-.6621.2154-.709,1.2779-.0146.2617-.03,1.6782-.03,3.0786,0,1.4629.0157,3.0029.03,3.2949a2.8621,2.8621,0,0,0,.2158,1.2168c.169.2305.585.3848,1.8321.3848a6.7742,6.7742,0,0,0,1.3554-.0772c.3379-.0615.6768-.4463.9854-1.001.1074-.1845.1845-.2461.2461-.2461s.0459.23-.0313.4307c-.0459.1231-.3388.9707-.4,1.0781a.3658.3658,0,0,1-.3232.1543c-.1533,0-1.3242.0147-2.0781-.0312-.77-.03-1.8789-.0772-2.417-.0772-.4776,0-1.1709.0772-1.3858.0772-.1845,0-.3232-.0156-.3232-.1074,0-.0616.1387-.1084.2764-.1231.6621-.124.7548-.3389.8007-.8164.0616-.6162.0616-1.6318.0616-3.7568,0-2.0938-.0147-3.1558-.0459-3.6792-.0459-.8775-.0928-.97-.7539-1.0933-.1856-.0308-.2315-.0767-.2315-.1387C111.7705,98.7073,111.8633,98.6609,112.0166,98.6609Z"/><path class="cls-4" d="M123.1973,102.8489c.1377,0,.2617.03.2617.1075,0,.0459-.1543.1074-.2617.123-.37.0615-.3545.2-.293.4463.23.709.8926,2.4639,1.2471,3.3262.0156.0459.0771.0615.0927.0146.2461-.5234.9239-2.0166,1.0772-2.417.0156-.0771.0615-.1845.0312-.2617-.0771-.2-.1845-.4463-.2617-.6309a.8182.8182,0,0,0-.5849-.5078c-.1387-.0312-.2159-.0615-.2159-.124s.0772-.0918.23-.0918c.3233,0,.7236.0459,1.0469.0459.4472,0,.6318-.03.9092-.03.1689,0,.23.03.23.0762,0,.0625-.1074.124-.23.1543-.3545.0772-.4473.1387-.2618.6162.169.4766.9854,2.709,1.2,3.1865.0469.0772.0772.0157.0772,0,.1846-.4.9238-2.1552,1.1084-2.6787a3.5253,3.5253,0,0,0,.2471-.7392c0-.1387-.0625-.2774-.462-.3848-.2-.0615-.247-.1074-.247-.1543,0-.0615.0927-.0918.2-.0918.2617,0,.539.0459.7851.0459.1543,0,.5391-.0459.77-.0459.1377,0,.2149.03.2149.0918s-.0459.0928-.2764.1543c-.2773.0772-.4619.293-.6621.708-.2773.5547-.7393,1.6172-1.2168,2.71-.2617.6308-.5391,1.3086-.7236,1.8017-.0918.2461-.1543.292-.2.292-.0615,0-.1074-.0615-.169-.2773-.0771-.2149-.1845-.5235-.37-1.0469-.292-.831-.6152-1.709-.9238-2.5244-.0147-.0459-.0459-.0772-.0762,0-.1387.292-.7851,1.709-1.001,2.248-.2314.5079-.37.8614-.539,1.3086-.0772.2149-.1543.292-.2158.292s-.1075-.1074-.1534-.2773c-.0771-.2149-.17-.585-.4316-1.3233-.2774-.7548-1.1543-3.0332-1.3242-3.3261a.879.879,0,0,0-.6768-.6006c-.123-.03-.2158-.0762-.2158-.1231,0-.0918.1074-.123.2773-.123.2,0,.6621.0615,1.0928.0615C122.5811,102.8792,122.8887,102.8489,123.1973,102.8489Z"/><path class="cls-4" d="M133.93,103.48a3.7189,3.7189,0,0,1,.2158,1.4014c0,.5693-.0469,2.0322-.0469,2.4326a.5279.5279,0,0,0,.57.5849.9876.9876,0,0,0,.4463-.1386c.0918-.0459.1534,0,.0918.1386a1.2967,1.2967,0,0,1-1.1855.6622,1.0342,1.0342,0,0,1-.9082-.6934.0548.0548,0,0,0-.0772-.0156,2.1514,2.1514,0,0,1-1.5088.6933,1.2775,1.2775,0,0,1-1.2314-1.3242,1.0866,1.0866,0,0,1,.5547-.8779c.3691-.2,1.7705-.6153,2.0937-.7383a.293.293,0,0,0,.2-.2314,5.2976,5.2976,0,0,0,.03-.7081c0-.6308-.1074-1.0625-.3691-1.2627a1.1776,1.1776,0,0,0-.6465-.246,1.0613,1.0613,0,0,0-.6162.1845.6151.6151,0,0,0-.2305.37,1.5641,1.5641,0,0,0-.0156.292.1921.1921,0,0,1-.0615.1231,3.31,3.31,0,0,1-.7237.3388c-.0771.0157-.1543-.0771-.1543-.1386,0-.1074.1084-.2461.293-.4619a3.9808,3.9808,0,0,1,1.17-.8926,2.07,2.07,0,0,1,.9238-.2774A1.2614,1.2614,0,0,1,133.93,103.48Zm-1.0313,4.2344a.6388.6388,0,0,0,.169-.37,11.0786,11.0786,0,0,0,.0771-1.4629c0-.0147-.0312-.0918-.0615-.0762a8.5738,8.5738,0,0,0-1.417.5234.7962.7962,0,0,0-.3848.77.8944.8944,0,0,0,.9239.8623A1.0615,1.0615,0,0,0,132.8984,107.7142Z"/><path class="cls-4" d="M136.2559,107.8216a1.732,1.732,0,0,1-.1846-.8779v-3.1866c0-.17-.0156-.2773-.0772-.3086a2.5373,2.5373,0,0,0-.3691-.0917c-.123-.0313-.2-.0772-.2-.1387,0-.0313.0156-.0772.1846-.1543a3.2841,3.2841,0,0,0,1.2627-1.0313c.1386-.1543.2461-.123.2461-.0459,0,.1387-.03.5694-.0157.7539,0,.0469.0157.1387.0772.1387.2773,0,1.5547-.0459,1.8789-.0459.03,0,.0918.1074.0918.2158,0,.2618-.0772.3848-.1543.3848-.5381,0-1.293-.0156-1.709-.0156-.1846,0-.2148.0459-.2148.1386,0,.2618.0156,2.6788.03,3.1563a1.5755,1.5755,0,0,0,.17.8311,1.1357,1.1357,0,0,0,.9541.416,1.4989,1.4989,0,0,0,.8466-.2315c.1084-.0762.1543-.0615.1543,0,0,.0928-.1386.2471-.3388.4a2.1127,2.1127,0,0,1-1.2471.4A1.4273,1.4273,0,0,1,136.2559,107.8216Z"/><path class="cls-4" d="M144.2783,104.265a.18.18,0,0,1-.1543.1689c-.123-.0146-2.124-.0459-2.4785-.0459h-.831c-.0313,0-.1084.0771-.1387.123a2.1185,2.1185,0,0,0-.1231.8467,2.76,2.76,0,0,0,.708,1.8633,2.08,2.08,0,0,0,1.54.6309,1.962,1.962,0,0,0,1.4619-.4922c.123-.1231.1846-.0928.1846-.0156a.5855.5855,0,0,1-.1534.246,2.7225,2.7225,0,0,1-2.1406.9708,2.4874,2.4874,0,0,1-1.832-.7852,3.0122,3.0122,0,0,1-.7383-2.0635,3.2105,3.2105,0,0,1,.8926-2.248,2.865,2.865,0,0,1,1.9248-.77A1.7761,1.7761,0,0,1,144.2783,104.265Zm-3.1406-.7852a1.3542,1.3542,0,0,0-.3232.6309.0653.0653,0,0,0,.0615.0615l2.001-.0147c.3388,0,.37-.17.37-.3086a.9927.9927,0,0,0-.2159-.6464,1.0805,1.0805,0,0,0-.77-.292A1.597,1.597,0,0,0,141.1377,103.48Z"/><path class="cls-4" d="M147.0049,103.8187a.88.88,0,0,0-.2617.539,8.7272,8.7272,0,0,0-.0157.9385c0,1.14.0313,1.94.0616,2.2637.0615.4775.2461.5849.832.6465.2148.0312.292.0615.292.1386s-.1387.1075-.3692.1075c-.2929,0-.8007-.0616-1.4472-.0616a8.2852,8.2852,0,0,0-.94.0928c-.1845,0-.2617-.0312-.2617-.0928,0-.0459.1074-.123.2305-.1533a.6365.6365,0,0,0,.5547-.6318c.0312-.2617.0459-1.1387.0459-2.1553v-1.709c0-.1074-.1075-.1543-.4-.4-.1074-.0771-.1231-.123-.1231-.1543s.0928-.0918.2315-.1377a4.6689,4.6689,0,0,0,.9853-.37.4862.4862,0,0,1,.23-.0771c.0312,0,.0615.0615.0615.2158,0,.17-.0146.7549-.0146,1.001,0,.0459.03.0615.0761.0156a2.5135,2.5135,0,0,1,1.6631-1.1084.898.898,0,0,1,.5391.1992.27.27,0,0,1,.1074.2158,1.0445,1.0445,0,0,1-.3389.5235c-.1377.123-.2.1386-.2461.1386a.7054.7054,0,0,1-.2773-.1074,1.0688,1.0688,0,0,0-.5381-.1846A1.052,1.052,0,0,0,147.0049,103.8187Z"/><path class="cls-4" d="M57.2861,124.6224a1.7358,1.7358,0,0,1-.1845-.878v-3.1865c0-.17-.0157-.2773-.0772-.3086a2.5517,2.5517,0,0,0-.3691-.0918c-.1231-.0312-.2-.0771-.2-.1386,0-.0313.0156-.0772.1845-.1543a3.2834,3.2834,0,0,0,1.2627-1.0313c.1387-.1543.2461-.123.2461-.0469,0,.1387-.03.57-.0156.7549,0,.0459.0156.1387.0772.1387.2773,0,1.5546-.0459,1.8789-.0459.03,0,.0918.1074.0918.2148,0,.2618-.0772.3848-.1543.3848-.5381,0-1.293-.0146-1.709-.0146-.1846,0-.2149.0459-.2149.1386,0,.2617.0157,2.6787.03,3.1563a1.5753,1.5753,0,0,0,.17.831,1.1383,1.1383,0,0,0,.9541.416,1.5,1.5,0,0,0,.8467-.2314c.1084-.0771.1543-.0615.1543,0,0,.0928-.1387.2461-.3389.4a2.1121,2.1121,0,0,1-1.247.4A1.4275,1.4275,0,0,1,57.2861,124.6224Z"/><path class="cls-4" d="M65.31,121.0657a.1806.1806,0,0,1-.1543.169c-.1231-.0156-2.125-.0459-2.4785-.0459h-.8321c-.03,0-.1074.0771-.1386.123a2.1331,2.1331,0,0,0-.1231.8467,2.7641,2.7641,0,0,0,.708,1.8633,2.0809,2.0809,0,0,0,1.54.6308,1.97,1.97,0,0,0,1.4628-.4921c.1231-.1231.1846-.0928.1846-.0157a.58.58,0,0,1-.1543.2461,2.7185,2.7185,0,0,1-2.14.97,2.4839,2.4839,0,0,1-1.8321-.7852,3.0082,3.0082,0,0,1-.7392-2.0625,3.2089,3.2089,0,0,1,.8926-2.248,2.865,2.865,0,0,1,1.9248-.77A1.7771,1.7771,0,0,1,65.31,121.0657Zm-3.1416-.7851a1.35,1.35,0,0,0-.3233.6308.0662.0662,0,0,0,.0615.0616l2.002-.0157c.3389,0,.3691-.1689.3691-.3076a.9921.9921,0,0,0-.2148-.6465,1.0779,1.0779,0,0,0-.77-.2929A1.5983,1.5983,0,0,0,62.168,120.2806Z"/><path class="cls-4" d="M67.3115,120.681c0,.6465.585,1.0156.97,1.247,1.001.6465,1.4014,1.0313,1.4014,1.8164a1.58,1.58,0,0,1-.8008,1.293,2.5559,2.5559,0,0,1-1.2314.3389,3.1237,3.1237,0,0,1-1.2168-.2774c-.1231-.0459-.23-.1533-.23-.2461,0-.2158-.0312-.6-.0459-.77-.0312-.2.0147-.2461.0459-.2461.0459,0,.0928,0,.2.292a1.5028,1.5028,0,0,0,.6465.832,1.1835,1.1835,0,0,0,.6934.1846,1.0554,1.0554,0,0,0,1-1.0322c0-.585-.4-.9082-1.0157-1.293-.6621-.4306-1.2783-1.001-1.2783-1.6777a1.4594,1.4594,0,0,1,.585-1.2168,1.995,1.995,0,0,1,1.2939-.4307,3.7771,3.7771,0,0,1,1.0469.169.2556.2556,0,0,1,.0771.1386c.0147.169.0762.4776.0918.7237,0,.1689-.03.2461-.0771.2461-.0615,0-.0918-.0772-.1387-.1846a1.166,1.166,0,0,0-.3691-.6309,1.2636,1.2636,0,0,0-.7236-.2314A.8975.8975,0,0,0,67.3115,120.681Z"/><path class="cls-4" d="M71.2852,124.6224a1.7339,1.7339,0,0,1-.1856-.878v-3.1865c0-.17-.0146-.2773-.0762-.3086a2.5681,2.5681,0,0,0-.37-.0918c-.123-.0312-.2-.0771-.2-.1386,0-.0313.0157-.0772.1856-.1543A3.2755,3.2755,0,0,0,71.9,118.8333c.1387-.1543.2471-.123.2471-.0469,0,.1387-.0313.57-.0157.7549,0,.0459.0157.1387.0772.1387.2764,0,1.5547-.0459,1.8779-.0459.0313,0,.0928.1074.0928.2148,0,.2618-.0772.3848-.1543.3848-.5391,0-1.293-.0146-1.709-.0146-.1846,0-.2158.0459-.2158.1386,0,.2617.0156,2.6787.0312,3.1563a1.5779,1.5779,0,0,0,.169.831,1.1414,1.1414,0,0,0,.9551.416,1.5019,1.5019,0,0,0,.8466-.2314c.1075-.0771.1534-.0615.1534,0,0,.0928-.1377.2461-.3379.4a2.1147,2.1147,0,0,1-1.2471.4A1.4263,1.4263,0,0,1,71.2852,124.6224Z"/><path class="cls-4" d="M75.9668,120.681c0,.6465.585,1.0156.97,1.247,1.001.6465,1.4,1.0313,1.4,1.8164a1.5794,1.5794,0,0,1-.8,1.293,2.557,2.557,0,0,1-1.2324.3389,3.123,3.123,0,0,1-1.2158-.2774c-.1231-.0459-.2315-.1533-.2315-.2461,0-.2158-.03-.6-.0459-.77-.03-.2.0156-.2461.0459-.2461.0469,0,.0928,0,.2.292a1.5076,1.5076,0,0,0,.6475.832,1.1805,1.1805,0,0,0,.6924.1846,1.0561,1.0561,0,0,0,1.0009-1.0322c0-.585-.4-.9082-1.0166-1.293-.6621-.4306-1.2773-1.001-1.2773-1.6777a1.4594,1.4594,0,0,1,.585-1.2168,1.992,1.992,0,0,1,1.2929-.4307,3.7646,3.7646,0,0,1,1.0469.169.25.25,0,0,1,.0771.1386c.0157.169.0772.4776.0928.7237,0,.1689-.0312.2461-.0771.2461-.0616,0-.0928-.0772-.1387-.1846a1.1734,1.1734,0,0,0-.3691-.6309,1.2688,1.2688,0,0,0-.7237-.2314A.897.897,0,0,0,75.9668,120.681Z"/><path class="cls-4" d="M80.709,125.1146a1.62,1.62,0,0,1-1.3389,1.5088c-.0928.0156-.17,0-.17-.0459s.0615-.0772.1387-.1075a1.1747,1.1747,0,0,0,.8164-1.0625.4539.4539,0,0,0-.4-.4619c-.2617-.0615-.4932-.1387-.4932-.4775a.543.543,0,0,1,.5547-.5078C80.2939,123.96,80.709,124.4066,80.709,125.1146Z"/><path class="cls-4" d="M84.5439,124.6224a1.735,1.735,0,0,1-.1855-.878v-3.1865c0-.17-.0146-.2773-.0762-.3086a2.5681,2.5681,0,0,0-.37-.0918c-.123-.0312-.2-.0771-.2-.1386,0-.0313.0156-.0772.1856-.1543a3.2755,3.2755,0,0,0,1.2617-1.0313c.1387-.1543.247-.123.247-.0469,0,.1387-.0312.57-.0156.7549,0,.0459.0156.1387.0772.1387.2763,0,1.5547-.0459,1.8779-.0459.0313,0,.0928.1074.0928.2148,0,.2618-.0772.3848-.1543.3848-.5391,0-1.293-.0146-1.709-.0146-.1846,0-.2158.0459-.2158.1386,0,.2617.0156,2.6787.0312,3.1563a1.5769,1.5769,0,0,0,.169.831,1.1413,1.1413,0,0,0,.955.416,1.502,1.502,0,0,0,.8467-.2314c.1075-.0771.1533-.0615.1533,0,0,.0928-.1376.2461-.3378.4a2.1147,2.1147,0,0,1-1.2471.4A1.4266,1.4266,0,0,1,84.5439,124.6224Z"/><path class="cls-4" d="M89.6865,120.6038a.7784.7784,0,0,0-.1533.5694,30.3578,30.3578,0,0,0,.0772,3.3105.5432.5432,0,0,0,.4921.5234c.2315.0459.3389.0772.3389.1534,0,.0468-.0928.0927-.2314.0927-.4307,0-.8311-.0615-1.2774-.0615-.4775,0-.708.0615-1.001.0615-.1689,0-.2461-.03-.2461-.0927s.0616-.0918.2461-.1377c.4463-.1084.5547-.1543.5694-.7393.0469-.6162.0625-2.0322.0625-4.4805,0-2.3252.03-3.2646,0-3.85-.0156-.4922-.124-.5381-.4619-.7236-.0625-.0459-.1084-.0762-.1084-.123s.0927-.0918.2617-.1387a6.355,6.355,0,0,0,1.124-.3692.3386.3386,0,0,1,.1543-.0615c.0459,0,.0918.1074.0772.3233-.0157.416-.0772,5.1884-.0616,5.4814,0,.0615.0459.0772.0616.0459a5.0345,5.0345,0,0,1,.9238-.6309,2.4109,2.4109,0,0,1,1.0771-.2617,1.6392,1.6392,0,0,1,1.3858.6924,2.9694,2.9694,0,0,1,.3388,1.6475c.0157,1.1552.0157,2.1093.03,2.6943,0,.3076.0615.416.5234.4932.2.0459.2471.0761.2471.1377s-.1084.1084-.2471.1084c-.3994,0-.6923-.0772-1.1084-.0772-.5234,0-.6464.0615-1,.0615-.1855,0-.247-.0459-.247-.0927,0-.0616.0771-.0918.2314-.1231.4151-.0918.4463-.2.5078-.6465.0313-.3535.0616-1.0312.0616-2.6328a2.4664,2.4664,0,0,0-.23-1.1543,1.1523,1.1523,0,0,0-1.0625-.5693A1.8629,1.8629,0,0,0,89.6865,120.6038Z"/><path class="cls-4" d="M98.3564,120.2806a3.7133,3.7133,0,0,1,.2159,1.4c0,.57-.0459,2.0332-.0459,2.4326a.5272.5272,0,0,0,.5693.5849.9826.9826,0,0,0,.4463-.1376c.0928-.0469.1543,0,.0928.1376a1.2971,1.2971,0,0,1-1.1856.6622,1.0333,1.0333,0,0,1-.9082-.6924.0533.0533,0,0,0-.0771-.0157,2.1531,2.1531,0,0,1-1.5088.6934,1.2769,1.2769,0,0,1-1.2315-1.3242,1.0845,1.0845,0,0,1,.5537-.8779c.37-.2,1.7706-.6153,2.0938-.7393a.2907.2907,0,0,0,.2-.2305,5.1511,5.1511,0,0,0,.0312-.708c0-.6318-.1084-1.0625-.37-1.2627a1.1675,1.1675,0,0,0-.6465-.2461,1.0581,1.0581,0,0,0-.6152.1846.6137.6137,0,0,0-.2314.3691,1.56,1.56,0,0,0-.0157.293.1893.1893,0,0,1-.0615.1231,3.3134,3.3134,0,0,1-.7236.3388c-.0762.0157-.1533-.0771-.1533-.1386,0-.1075.1074-.2461.2919-.462a3.995,3.995,0,0,1,1.17-.8925,2.0567,2.0567,0,0,1,.9238-.2774A1.2611,1.2611,0,0,1,98.3564,120.2806Zm-1.0312,4.2334a.6328.6328,0,0,0,.1689-.3692,10.9109,10.9109,0,0,0,.0772-1.4629c0-.0156-.03-.0918-.0615-.0771a8.74,8.74,0,0,0-1.416.5234.7979.7979,0,0,0-.3848.77.8943.8943,0,0,0,.9238.8623A1.0526,1.0526,0,0,0,97.3252,124.514Z"/><path class="cls-4" d="M100.6826,124.6224a1.7357,1.7357,0,0,1-.1846-.878v-3.1865c0-.17-.0156-.2773-.0771-.3086a2.5517,2.5517,0,0,0-.3691-.0918c-.1231-.0312-.2-.0771-.2-.1386,0-.0313.0156-.0772.1845-.1543a3.2834,3.2834,0,0,0,1.2627-1.0313c.1387-.1543.2461-.123.2461-.0469,0,.1387-.03.57-.0156.7549,0,.0459.0156.1387.0771.1387.2774,0,1.5547-.0459,1.879-.0459.03,0,.0917.1074.0917.2148,0,.2618-.0771.3848-.1542.3848-.5381,0-1.293-.0146-1.709-.0146-.1846,0-.2149.0459-.2149.1386,0,.2617.0156,2.6787.03,3.1563a1.5743,1.5743,0,0,0,.17.831,1.1383,1.1383,0,0,0,.9541.416,1.5,1.5,0,0,0,.8467-.2314c.1084-.0771.1543-.0615.1543,0,0,.0928-.1387.2461-.3389.4a2.1121,2.1121,0,0,1-1.247.4A1.4274,1.4274,0,0,1,100.6826,124.6224Z"/><path class="cls-4" d="M111.585,120.265a2.677,2.677,0,0,1,.6308,1.7861,3.1529,3.1529,0,0,1-2.0625,3.0635,2.6812,2.6812,0,0,1-1.1084.2314,3.4736,3.4736,0,0,1-.8935-.123c-.0616-.0157-.1231.0761-.1387.1377a21.2033,21.2033,0,0,0-.0147,2.2793,4.9008,4.9008,0,0,0,.1075,1.2314c.0927.293.3545.3691.7695.4307.1387.0468.2158.0771.2158.1386s-.1074.1084-.3076.1084c-.2314,0-.77-.0615-1.3242-.0615-.5088,0-1.001.1074-1.1856.1074s-.2773-.0459-.2773-.0927c0-.0616.0615-.1075.293-.1534.538-.1543.6308-.3388.6611-.7089.0156-.2618.0469-.9229.0469-2.1084,0-1.57-.0313-4.9122-.0469-5.3125-.03-.6309-.03-.7237-.3848-.9229-.0918-.0469-.1533-.0928-.1533-.1387,0-.0615.0772-.1084.2-.1386a7.7317,7.7317,0,0,0,1.1387-.5391.4208.4208,0,0,1,.2314-.1074c.03,0,.0615.0459.0615.1377,0,.0771-.0312.5244-.0312.6621,0,.0312.0312.0928.0771.0469a3.02,3.02,0,0,1,1.879-.709A2.269,2.269,0,0,1,111.585,120.265Zm-1.2315,4.4492a2.8227,2.8227,0,0,0,.8623-2.2168,2.7752,2.7752,0,0,0-.7392-1.9707,1.6552,1.6552,0,0,0-1.1856-.4619,1.9957,1.9957,0,0,0-1.124.3076c-.1074.0771-.1543.123-.169.3388-.0468.3848-.0312,2.8174,0,3.1407a1.1912,1.1912,0,0,0,.1231.3857,1.7222,1.7222,0,0,0,1.4932.7539A1.139,1.139,0,0,0,110.3535,124.7142Z"/><path class="cls-4" d="M119.1465,122.4046a2.9487,2.9487,0,0,1-2.9258,2.9717,2.936,2.936,0,0,1-1.8779-5.2344,3.159,3.159,0,0,1,1.8476-.6465A2.8891,2.8891,0,0,1,119.1465,122.4046Zm-4.8037-.2148a3.523,3.523,0,0,0,.6465,2.1093,1.8289,1.8289,0,0,0,1.4472.8155,1.52,1.52,0,0,0,.97-.3848,3.0687,3.0687,0,0,0,.6465-2.0635c0-1.4619-.7392-2.9092-2.0937-2.9092C115.1738,119.7571,114.3428,120.5882,114.3428,122.19Z"/><path class="cls-4" d="M121.2109,120.681c0,.6465.585,1.0156.97,1.247,1.0009.6465,1.4,1.0313,1.4,1.8164a1.5793,1.5793,0,0,1-.8,1.293,2.5567,2.5567,0,0,1-1.2324.3389,3.123,3.123,0,0,1-1.2158-.2774c-.123-.0459-.2314-.1533-.2314-.2461,0-.2158-.03-.6-.0459-.77-.03-.2.0156-.2461.0459-.2461.0468,0,.0927,0,.2.292a1.5079,1.5079,0,0,0,.6474.832,1.1807,1.1807,0,0,0,.6924.1846,1.0562,1.0562,0,0,0,1.001-1.0322c0-.585-.4-.9082-1.0166-1.293-.6621-.4306-1.2774-1.001-1.2774-1.6777a1.4594,1.4594,0,0,1,.585-1.2168,1.9921,1.9921,0,0,1,1.293-.4307,3.7631,3.7631,0,0,1,1.0468.169.25.25,0,0,1,.0772.1386c.0156.169.0771.4776.0928.7237,0,.1689-.0313.2461-.0772.2461-.0615,0-.0928-.0772-.1387-.1846a1.1722,1.1722,0,0,0-.3691-.6309,1.2682,1.2682,0,0,0-.7236-.2314A.897.897,0,0,0,121.2109,120.681Z"/><path class="cls-4" d="M129.2949,121.0657a.18.18,0,0,1-.1543.169c-.123-.0156-2.125-.0459-2.4785-.0459h-.832c-.03,0-.1074.0771-.1387.123a2.1335,2.1335,0,0,0-.123.8467,2.7641,2.7641,0,0,0,.708,1.8633,2.0809,2.0809,0,0,0,1.54.6308,1.97,1.97,0,0,0,1.4629-.4921c.123-.1231.1846-.0928.1846-.0157a.581.581,0,0,1-.1543.2461,2.7187,2.7187,0,0,1-2.14.97,2.4837,2.4837,0,0,1-1.832-.7852,3.0083,3.0083,0,0,1-.7393-2.0625,3.2089,3.2089,0,0,1,.8926-2.248,2.865,2.865,0,0,1,1.9248-.77A1.7771,1.7771,0,0,1,129.2949,121.0657Zm-3.1416-.7851a1.351,1.351,0,0,0-.3232.6308.0661.0661,0,0,0,.0615.0616l2.002-.0157c.3388,0,.3691-.1689.3691-.3076a.9921.9921,0,0,0-.2148-.6465,1.0782,1.0782,0,0,0-.7706-.2929A1.5986,1.5986,0,0,0,126.1533,120.2806Z"/><path class="cls-4" d="M58.2559,137.4036a.7778.7778,0,0,0-.1534.5694,30.3578,30.3578,0,0,0,.0772,3.31.5432.5432,0,0,0,.4922.5234c.2314.0459.3388.0772.3388.1534,0,.0468-.0927.0927-.2314.0927-.4307,0-.8311-.0615-1.2773-.0615-.4776,0-.7081.0615-1.001.0615-.169,0-.2461-.03-.2461-.0927s.0615-.0918.2461-.1377c.4463-.1084.5547-.1543.5693-.7393.0469-.6162.0625-2.0322.0625-4.4805,0-2.3252.03-3.2636,0-3.8486-.0156-.4932-.124-.5391-.4619-.7236-.0625-.0469-.1084-.0772-.1084-.1231s.0928-.0927.2617-.1386a6.3437,6.3437,0,0,0,1.124-.37.3386.3386,0,0,1,.1543-.0615c.0459,0,.0918.1084.0772.3233-.0156.416-.0772,5.1884-.0615,5.4814,0,.0615.0459.0772.0615.0459a5.0379,5.0379,0,0,1,.9238-.6309,2.411,2.411,0,0,1,1.0772-.2617,1.639,1.639,0,0,1,1.3857.6924,2.97,2.97,0,0,1,.3389,1.6475c.0156,1.1552.0156,2.1093.03,2.6943,0,.3076.0616.416.5235.4932.2.0459.2471.0761.2471.1377s-.1084.1084-.2471.1084c-.3994,0-.6924-.0772-1.1084-.0772-.5235,0-.6465.0615-1,.0615-.1856,0-.2471-.0459-.2471-.0927,0-.0616.0772-.0918.2315-.1231.415-.0918.4462-.2.5078-.6465.0312-.3535.0615-1.0312.0615-2.6328a2.4664,2.4664,0,0,0-.23-1.1543,1.1522,1.1522,0,0,0-1.0625-.5693A1.8624,1.8624,0,0,0,58.2559,137.4036Z"/><path class="cls-4" d="M68.0967,137.8655a.1806.1806,0,0,1-.1543.169c-.1231-.0156-2.125-.0459-2.4785-.0459h-.8321c-.03,0-.1074.0771-.1386.123a2.1331,2.1331,0,0,0-.1231.8467,2.7641,2.7641,0,0,0,.708,1.8633,2.0812,2.0812,0,0,0,1.54.6309,1.97,1.97,0,0,0,1.4629-.4922c.123-.1231.1845-.0928.1845-.0157a.58.58,0,0,1-.1543.2461,2.7185,2.7185,0,0,1-2.14.97,2.4839,2.4839,0,0,1-1.8321-.7852,3.0082,3.0082,0,0,1-.7392-2.0625,3.2089,3.2089,0,0,1,.8926-2.248,2.865,2.865,0,0,1,1.9248-.77A1.7771,1.7771,0,0,1,68.0967,137.8655Zm-3.1416-.7851a1.35,1.35,0,0,0-.3233.6308.0662.0662,0,0,0,.0616.0616l2.0019-.0157c.3389,0,.3692-.1689.3692-.3076a.9918.9918,0,0,0-.2149-.6465,1.0779,1.0779,0,0,0-.77-.2929A1.5983,1.5983,0,0,0,64.9551,137.08Z"/><path class="cls-4" d="M72.6387,137.08a3.7134,3.7134,0,0,1,.2158,1.4c0,.57-.0459,2.0322-.0459,2.4326a.528.528,0,0,0,.5693.5859.9841.9841,0,0,0,.4463-.1386c.0928-.0469.1543,0,.0928.1386a1.2981,1.2981,0,0,1-1.1856.6612,1.0333,1.0333,0,0,1-.9082-.6924.0532.0532,0,0,0-.0771-.0156,2.1533,2.1533,0,0,1-1.5088.6933,1.2769,1.2769,0,0,1-1.2314-1.3242,1.0843,1.0843,0,0,1,.5537-.8779c.37-.2,1.77-.6153,2.0937-.7393a.2905.2905,0,0,0,.2-.2305,5.1348,5.1348,0,0,0,.0313-.708c0-.6318-.1084-1.0625-.37-1.2627a1.1675,1.1675,0,0,0-.6464-.2461,1.0582,1.0582,0,0,0-.6153.1846.6137.6137,0,0,0-.2314.3692,1.5684,1.5684,0,0,0-.0156.2929.1894.1894,0,0,1-.0616.1231,3.3134,3.3134,0,0,1-.7236.3388c-.0762.0157-.1533-.0771-.1533-.1386,0-.1075.1074-.2461.292-.462a4.018,4.018,0,0,1,1.17-.8935,2.0665,2.0665,0,0,1,.9238-.2764A1.2613,1.2613,0,0,1,72.6387,137.08Zm-1.0313,4.2334a.6334.6334,0,0,0,.169-.3692,10.931,10.931,0,0,0,.0771-1.4628c0-.0157-.03-.0918-.0615-.0772a8.7491,8.7491,0,0,0-1.416.5234.7979.7979,0,0,0-.3848.77.8944.8944,0,0,0,.9238.8624A1.0523,1.0523,0,0,0,71.6074,141.3138Z"/><path class="cls-4" d="M76.0732,138.25c0,1.9395.0157,2.6631.0313,2.9561.0156.416.1074.5234.5391.6005.0918.0157.2.0616.2.1075,0,.0615-.1084.1084-.3086.1084-.2461,0-.8008-.0313-1.0625-.0313-.4,0-.8.0313-1.0313.0313-.1846,0-.2617-.0157-.2617-.0928s.0771-.0928.2773-.1387c.3848-.0771.4776-.2158.5391-.8926.03-.57.0918-3.1718.1074-5.0195,0-1.2471.0156-2.51,0-3.1865,0-.3389-.03-.416-.4306-.6621-.1084-.0615-.1543-.0928-.1543-.1387s.0927-.0928.23-.123a8.0073,8.0073,0,0,0,1.1553-.3545.6363.6363,0,0,1,.1846-.0459c.0312,0,.0459.0918.0459.1689,0,.1084-.0616,2.7715-.0616,5.0811Z"/><path class="cls-4" d="M78.3223,141.4222a1.7337,1.7337,0,0,1-.1856-.8779v-3.1866c0-.17-.0146-.2773-.0762-.3086a2.5681,2.5681,0,0,0-.37-.0918c-.123-.0312-.2-.0771-.2-.1386,0-.0313.0157-.0772.1856-.1543a3.2748,3.2748,0,0,0,1.2617-1.0313c.1387-.1543.2471-.123.2471-.0459,0,.1377-.0313.5694-.0157.7539,0,.0459.0157.1387.0772.1387.2764,0,1.5547-.0459,1.8779-.0459.0313,0,.0928.1074.0928.2148,0,.2618-.0772.3848-.1543.3848-.5391,0-1.293-.0146-1.709-.0146-.1846,0-.2158.0459-.2158.1386,0,.2618.0156,2.6787.0312,3.1563a1.5779,1.5779,0,0,0,.169.831,1.1414,1.1414,0,0,0,.9551.4161,1.5017,1.5017,0,0,0,.8466-.2315c.1075-.0771.1534-.0615.1534,0,0,.0928-.1377.2461-.3379.4a2.1147,2.1147,0,0,1-1.2471.4A1.4263,1.4263,0,0,1,78.3223,141.4222Z"/><path class="cls-4" d="M83.4648,137.4036a.7784.7784,0,0,0-.1533.5694,30.3578,30.3578,0,0,0,.0772,3.31.5432.5432,0,0,0,.4922.5234c.2314.0459.3388.0772.3388.1534,0,.0468-.0927.0927-.2314.0927-.4307,0-.8311-.0615-1.2774-.0615-.4775,0-.708.0615-1.0009.0615-.169,0-.2461-.03-.2461-.0927s.0615-.0918.2461-.1377c.4462-.1084.5546-.1543.5693-.7393.0469-.6162.0625-2.0322.0625-4.4805,0-2.3252.03-3.2636,0-3.8486-.0156-.4932-.124-.5391-.4619-.7236-.0625-.0469-.1084-.0772-.1084-.1231s.0928-.0927.2617-.1386a6.3465,6.3465,0,0,0,1.124-.37.3386.3386,0,0,1,.1543-.0615c.0459,0,.0918.1084.0772.3233-.0157.416-.0772,5.1884-.0616,5.4814,0,.0615.0459.0772.0616.0459a5.0345,5.0345,0,0,1,.9238-.6309,2.4109,2.4109,0,0,1,1.0771-.2617,1.6392,1.6392,0,0,1,1.3858.6924,2.97,2.97,0,0,1,.3389,1.6475c.0156,1.1552.0156,2.1093.03,2.6943,0,.3076.0616.416.5235.4932.2.0459.247.0761.247.1377s-.1084.1084-.247.1084c-.3994,0-.6924-.0772-1.1084-.0772-.5235,0-.6465.0615-1,.0615-.1856,0-.2471-.0459-.2471-.0927,0-.0616.0771-.0918.2314-.1231.4151-.0918.4463-.2.5079-.6465.0312-.3535.0615-1.0312.0615-2.6328a2.4664,2.4664,0,0,0-.23-1.1543,1.1522,1.1522,0,0,0-1.0625-.5693A1.8629,1.8629,0,0,0,83.4648,137.4036Z"/><path class="cls-4" d="M92.7363,137.4193a.88.88,0,0,0-.2617.538,8.7819,8.7819,0,0,0-.0156.94c0,1.14.0312,1.94.0615,2.2637.0615.4765.2461.5849.832.6464.2149.03.292.0616.292.1387s-.1386.1074-.3691.1074c-.293,0-.8008-.0615-1.4473-.0615a8.2824,8.2824,0,0,0-.9394.0928c-.1846,0-.2617-.0313-.2617-.0928,0-.0459.1074-.123.23-.1543a.6346.6346,0,0,0,.5547-.6308c.0313-.2618.0459-1.14.0459-2.1553v-1.709c0-.1084-.1074-.1543-.4-.4-.1074-.0771-.123-.123-.123-.1543s.0927-.0918.2314-.1387a4.6685,4.6685,0,0,0,.9854-.3691.4859.4859,0,0,1,.23-.0771c.0313,0,.0616.0615.0616.2158,0,.1689-.0147.7539-.0147,1.001,0,.0458.03.0615.0762.0146a2.5168,2.5168,0,0,1,1.6631-1.1084.8985.8985,0,0,1,.539.2.2681.2681,0,0,1,.1075.2158,1.0493,1.0493,0,0,1-.3389.5235c-.1377.123-.2.1386-.2461.1386a.6987.6987,0,0,1-.2774-.1084,1.0783,1.0783,0,0,0-.538-.1845A1.0483,1.0483,0,0,0,92.7363,137.4193Z"/><path class="cls-4" d="M95.6162,136.7415a7.63,7.63,0,0,0,1.1084-.4.6264.6264,0,0,1,.2305-.1074c.0469,0,.0771.0459.0615.2148-.03.3086-.03,1.2471-.03,2.2325,0,1.2939,0,2.4326.03,2.6943.0313.3086.1855.3857.4316.4473.1543.03.2305.0615.2305.123,0,.0772-.123.1074-.2461.1074-.1387,0-.708-.0615-1.124-.0615-.5078,0-.7539.0313-.9238.0313-.1075,0-.2149-.0313-.2149-.0928s.0762-.1074.292-.1387c.3389-.0928.4776-.2158.4932-.8467.0146-.4619.0459-3.2636.0459-3.4179,0-.2158-.0156-.3076-.4463-.5391-.0772-.0459-.1231-.0918-.1231-.123C95.4316,136.8187,95.4775,136.7718,95.6162,136.7415Zm1.5391-2.51a.5857.5857,0,0,1-.5694.5849.5477.5477,0,0,1-.5078-.5693.5706.5706,0,0,1,.5391-.6006A.5628.5628,0,0,1,97.1553,134.2318Z"/><path class="cls-4" d="M99.5273,137.4808c0,.6465.585,1.0156.97,1.247,1.0009.6465,1.4013,1.0313,1.4013,1.8165a1.58,1.58,0,0,1-.8007,1.2929,2.5563,2.5563,0,0,1-1.2315.3389,3.1237,3.1237,0,0,1-1.2168-.2774c-.123-.0459-.2305-.1533-.2305-.2461,0-.2158-.0312-.6005-.0459-.7695-.0312-.2.0147-.2461.0459-.2461.0459,0,.0928,0,.2.292a1.5028,1.5028,0,0,0,.6465.832,1.1837,1.1837,0,0,0,.6934.1846,1.0554,1.0554,0,0,0,1-1.0322c0-.585-.4-.9082-1.0156-1.293-.6622-.4306-1.2784-1.001-1.2784-1.6777a1.4594,1.4594,0,0,1,.585-1.2168,1.995,1.995,0,0,1,1.2939-.4307,3.7771,3.7771,0,0,1,1.0469.169.2558.2558,0,0,1,.0772.1386c.0146.169.0761.4776.0918.7237,0,.1689-.03.2461-.0772.2461-.0615,0-.0918-.0772-.1387-.1846a1.166,1.166,0,0,0-.3691-.6309,1.2633,1.2633,0,0,0-.7236-.2314A.8975.8975,0,0,0,99.5273,137.4808Z"/><path class="cls-4" d="M106.9033,136.48c.3389,0,.9541-.0772,1.3545-.0772.17,0,.2315.0459.2315.0928,0,.03-.0469.0918-.2315.1231a2.7441,2.7441,0,0,0-1.416.6767c-.4.3086-1.1553.9551-1.4473,1.2324-.0312.03,0,.0772.0157.1075.4619.539,1.57,1.7246,2.2939,2.4638a1.9885,1.9885,0,0,0,1.1084.7237c.1387.03.2305.0761.2305.1377,0,.0927-.1387.1084-.2618.1084-.5234,0-1.1083-.0772-1.7089-.0772-.2618,0-.4619.0156-.6924.0156-.17,0-.2774,0-.2774-.0927,0-.0772.0772-.1075.3545-.169.2618-.0615.292-.2.1534-.416-.3233-.3691-1.4161-1.5244-1.878-1.9863-.123-.1231-.2314-.2305-.2929-.2305-.0459,0-.0616.0918-.0616.1533-.0146.2774-.03.7862-.0146,1.6328,0,.7383.123.7852.6.8926.1543.0459.2314.0772.2314.1387,0,.0771-.123.1074-.2929.1074-.4307,0-.7539-.0459-1.1543-.0459-.4932,0-.8164.0459-1.001.0459-.1533,0-.2461-.0459-.2461-.1074,0-.0459.0928-.0928.2-.1074.4775-.1241.585-.2617.6152-.77.0625-1.1241.0772-2.417.0772-3.6182.0156-1.2.0615-3.1709.0615-4.3721a2.5968,2.5968,0,0,0-.0615-.708c-.03-.123-.169-.2158-.3535-.3086-.0772-.0459-.1387-.0761-.1387-.1074,0-.0615.0918-.0928.2461-.1387a9.3031,9.3031,0,0,0,1.0928-.3691.71.71,0,0,1,.247-.0772c.0147,0,.0459.0459.0459.1231-.0312.5078-.0771,1.8633-.0771,3.0019,0,.4776-.0772,2.51-.0772,4.2032,0,.17.0313.247.0772.247a.775.775,0,0,0,.3076-.17,13.1915,13.1915,0,0,0,1.6631-1.539.5574.5574,0,0,0,.17-.2774c0-.0928-.1084-.1846-.4473-.2461-.1386-.0156-.2617-.0615-.2617-.124s.1084-.1074.2471-.1074C106.38,136.4642,106.7334,136.48,106.9033,136.48Z"/><path class="cls-4" d="M110.4463,137.4808c0,.6465.5849,1.0156.97,1.247,1.001.6465,1.4,1.0313,1.4,1.8165a1.5794,1.5794,0,0,1-.8,1.2929,2.557,2.557,0,0,1-1.2324.3389,3.123,3.123,0,0,1-1.2158-.2774c-.1231-.0459-.2315-.1533-.2315-.2461,0-.2158-.03-.6005-.0459-.7695-.03-.2.0156-.2461.0459-.2461.0469,0,.0928,0,.2.292a1.5076,1.5076,0,0,0,.6475.832,1.1805,1.1805,0,0,0,.6924.1846,1.0561,1.0561,0,0,0,1.0009-1.0322c0-.585-.4-.9082-1.0166-1.293-.6621-.4306-1.2773-1.001-1.2773-1.6777a1.46,1.46,0,0,1,.5849-1.2168,1.9925,1.9925,0,0,1,1.293-.4307,3.7646,3.7646,0,0,1,1.0469.169.25.25,0,0,1,.0771.1386c.0157.169.0772.4776.0928.7237,0,.1689-.0312.2461-.0771.2461-.0616,0-.0928-.0772-.1387-.1846a1.1734,1.1734,0,0,0-.3691-.6309,1.2688,1.2688,0,0,0-.7237-.2314A.897.897,0,0,0,110.4463,137.4808Z"/><path class="cls-4" d="M113.7109,141.4993a.7.7,0,0,1,.6924-.6933.6491.6491,0,0,1,.6162.6777.6625.6625,0,0,1-.6621.6924A.6772.6772,0,0,1,113.7109,141.4993Z"/><path class="cls-4" d="M116.8516,132.723a1.6707,1.6707,0,0,1-1.3858,1.4931c-.0918,0-.1387-.03-.1387-.0761,0-.0313.0616-.0772.1543-.1241a1.2313,1.2313,0,0,0,.8165-1.0312c0-.3076-.17-.5078-.586-.6006-.1533-.0459-.3076-.1387-.3076-.3232a.4581.4581,0,0,1,.4619-.4307A1.0274,1.0274,0,0,1,116.8516,132.723Zm1.9248,0a1.6716,1.6716,0,0,1-1.3858,1.4931c-.0771,0-.1386-.03-.1386-.0761,0-.0313.0927-.0772.1542-.1241A1.2056,1.2056,0,0,0,118.2217,133c0-.3232-.169-.5234-.585-.6162a.36.36,0,0,1-.292-.3232.4519.4519,0,0,1,.4766-.4307A1.0235,1.0235,0,0,1,118.7764,132.723Z"/></svg>