<svg id="Layer_1" data-name="Layer 1" xmlns="http://www.w3.org/2000/svg" viewBox="0 0 399 200"><defs><style>.cls-1{fill:#333838;}.cls-2{fill:#222f3c;}.cls-3,.cls-4,.cls-5,.cls-6,.cls-7{fill:none;stroke-linecap:round;}.cls-3,.cls-4,.cls-5,.cls-6{stroke:#222f3c;}.cls-3,.cls-5{stroke-miterlimit:10;}.cls-3,.cls-4{stroke-width:0.5px;}.cls-4,.cls-6,.cls-7{stroke-linejoin:round;}.cls-5,.cls-6,.cls-7{stroke-width:0.4px;}.cls-7{stroke:#231f20;}</style></defs><path class="cls-1" d="M240.3086,63.0926a.2727.2727,0,0,1,.1533.2617c-.03.37.0469,1.0317.0469,1.1856s-.0615.2465-.0928.2465c-.0615,0-.1074-.0771-.1387-.2a2.4012,2.4012,0,0,0-.7392-1.2319,3.5274,3.5274,0,0,0-2.3555-.77,3.7135,3.7135,0,0,0-2.6787,1.2007,5.56,5.56,0,0,0-1.17,3.5722,5.8343,5.8343,0,0,0,1.416,3.7256,3.6783,3.6783,0,0,0,2.6328,1.1392,3.2646,3.2646,0,0,0,1.832-.4307A2.7585,2.7585,0,0,0,240.4,70.2825c.0615-.2.0928-.2617.1543-.2617s.0918.1387.0918.231a11.0414,11.0414,0,0,1-.2149,1.2163.4113.4113,0,0,1-.1543.2309,5.5838,5.5838,0,0,1-3.0019.8472,5.2987,5.2987,0,0,1-4.0029-1.6323,5.3859,5.3859,0,0,1-1.294-3.4024,4.9112,4.9112,0,0,1,1.7246-3.8955,5.5366,5.5366,0,0,1,3.5879-1.2778A7.1152,7.1152,0,0,1,240.3086,63.0926Z"/><path class="cls-1" d="M243.1748,68.5276c0,1.94.0156,2.6636.0313,2.9561.0146.4155.1074.5234.538.6006.0928.0151.2.0615.2.1074,0,.0615-.1074.1079-.3076.1079-.2461,0-.8008-.0307-1.0625-.0307-.4,0-.8008.0307-1.0312.0307-.1846,0-.2618-.0151-.2618-.0923s.0772-.0922.2774-.1386c.3848-.0772.4766-.2154.5381-.8931.0312-.5693.0928-3.1714.1084-5.019,0-1.2471.0156-2.51,0-3.1871,0-.3388-.0313-.4155-.4317-.6621-.1074-.0615-.1533-.0923-.1533-.1381s.0918-.0928.23-.1236a7.9742,7.9742,0,0,0,1.1553-.354.64.64,0,0,1,.1845-.0464c.03,0,.0459.0928.0459.1695,0,.1079-.0615,2.7714-.0615,5.081Z"/><path class="cls-1" d="M250.6113,69.4822a2.9483,2.9483,0,0,1-2.9248,2.9712,2.9359,2.9359,0,0,1-1.8789-5.2343,3.1638,3.1638,0,0,1,1.8477-.647A2.8892,2.8892,0,0,1,250.6113,69.4822Zm-4.8037-.2158a3.5217,3.5217,0,0,0,.6475,2.1094,1.8283,1.8283,0,0,0,1.4472.8159,1.522,1.522,0,0,0,.97-.3848,3.0684,3.0684,0,0,0,.6465-2.0629c0-1.4629-.7393-2.91-2.0938-2.91C246.64,66.8338,245.8076,67.6653,245.8076,69.2664Z"/><path class="cls-1" d="M252.6758,67.7576c0,.647.5849,1.0161.9707,1.2471,1,.647,1.4,1.0317,1.4,1.8169a1.58,1.58,0,0,1-.8008,1.2935,2.5551,2.5551,0,0,1-1.2315.3383,3.1378,3.1378,0,0,1-1.2158-.2768c-.123-.0464-.2314-.1538-.2314-.2466,0-.2153-.03-.6-.0459-.77-.0313-.2.0156-.2466.0459-.2466.0459,0,.0928,0,.2.2925a1.5019,1.5019,0,0,0,.6465.8315,1.18,1.18,0,0,0,.6933.1846,1.0556,1.0556,0,0,0,1.001-1.0313c0-.5849-.4-.9087-1.0166-1.2934-.6621-.4312-1.2783-1.0005-1.2783-1.6783a1.46,1.46,0,0,1,.5859-1.2163,1.988,1.988,0,0,1,1.293-.4311,3.7658,3.7658,0,0,1,1.0469.1694.2534.2534,0,0,1,.0771.1387c.0156.1694.0772.4775.0918.7236,0,.1695-.03.2466-.0762.2466-.0625,0-.0927-.0771-.1386-.1851a1.17,1.17,0,0,0-.37-.6313,1.2622,1.2622,0,0,0-.7236-.231A.8973.8973,0,0,0,252.6758,67.7576Z"/><path class="cls-1" d="M260.7607,68.1429a.1809.1809,0,0,1-.1543.1689c-.123-.0151-2.125-.0459-2.4785-.0459h-.831c-.0313,0-.1084.0772-.1387.1231a2.1149,2.1149,0,0,0-.123.8467,2.76,2.76,0,0,0,.708,1.8632,2.0769,2.0769,0,0,0,1.539.6309,1.963,1.963,0,0,0,1.4629-.4927c.1231-.123.1846-.0923.1846-.0151a.585.585,0,0,1-.1533.2461,2.7223,2.7223,0,0,1-2.1407.97,2.4855,2.4855,0,0,1-1.832-.7852,3.01,3.01,0,0,1-.7392-2.063,3.21,3.21,0,0,1,.8935-2.248,2.8625,2.8625,0,0,1,1.9238-.77A1.7768,1.7768,0,0,1,260.7607,68.1429Zm-3.1406-.7852a1.3438,1.3438,0,0,0-.3232.6309.0657.0657,0,0,0,.0615.0615l2.001-.0151c.3388,0,.3691-.1695.3691-.3081a.9921.9921,0,0,0-.2148-.6465,1.08,1.08,0,0,0-.77-.2925A1.5959,1.5959,0,0,0,257.62,67.3577Z"/><path class="cls-1" d="M264.6416,71.699a1.7322,1.7322,0,0,1-.1846-.8774v-3.187c0-.1695-.0156-.2769-.0771-.3081a2.5258,2.5258,0,0,0-.3692-.0923c-.123-.0308-.2-.0767-.2-.1382,0-.0312.0157-.0771.1846-.1543a3.2814,3.2814,0,0,0,1.2627-1.0312c.1387-.1543.2461-.1236.2461-.0464,0,.1386-.03.57-.0146.7544,0,.0464.0146.1386.0761.1386.2774,0,1.5557-.0463,1.8789-.0463.03,0,.0918.1079.0918.2158,0,.2617-.0761.3847-.1533.3847-.539,0-1.2939-.0156-1.709-.0156-.1845,0-.2158.0464-.2158.1387,0,.2617.0156,2.6792.0313,3.1562a1.5785,1.5785,0,0,0,.1689.8316,1.1378,1.1378,0,0,0,.9541.4155,1.5094,1.5094,0,0,0,.8477-.2309c.1074-.0772.1533-.0616.1533,0,0,.0922-.1387.2465-.3389.4a2.1118,2.1118,0,0,1-1.2471.4A1.4269,1.4269,0,0,1,264.6416,71.699Z"/><path class="cls-1" d="M273.8809,69.4822a2.9485,2.9485,0,0,1-2.9248,2.9712,2.936,2.936,0,0,1-1.879-5.2343,3.164,3.164,0,0,1,1.8477-.647A2.8893,2.8893,0,0,1,273.8809,69.4822Zm-4.8038-.2158a3.5217,3.5217,0,0,0,.6475,2.1094,1.8284,1.8284,0,0,0,1.4473.8159,1.522,1.522,0,0,0,.97-.3848,3.0678,3.0678,0,0,0,.6465-2.0629c0-1.4629-.7393-2.91-2.0938-2.91C269.9092,66.8338,269.0771,67.6653,269.0771,69.2664Z"/><path class="cls-1" d="M237.4287,84.4193c0,2.6787-.8,3.9721-1.57,4.48a2.2036,2.2036,0,0,1-1.2158.354c-2.0938,0-2.8487-2.7558-2.8487-4.5415,0-2.4174.6319-3.8955,1.8633-4.6035a2.1263,2.1263,0,0,1,1.0313-.2466C236.7822,79.8616,237.4287,82.6639,237.4287,84.4193Zm-3.3711-3.9415a8.37,8.37,0,0,0-.5849,3.6641c0,2.51.3232,4.896,1.2617,4.896.2158,0,.4472-.0923.6621-.7544a13.8566,13.8566,0,0,0,.3857-3.4951c0-2.3555-.4-4.6958-1.2168-4.6958A.6168.6168,0,0,0,234.0576,80.4778Z"/><path class="cls-1" d="M238.5693,88.3758a.8616.8616,0,0,1,.8467-.8774.83.83,0,0,1,.8164.8623.8342.8342,0,1,1-1.6631.0151Z"/><path class="cls-1" d="M242.7891,80.37a9.47,9.47,0,0,0,1.955-.4,1.6241,1.6241,0,0,1,.3389-.1079c.03,0,.0615.0157.0615.1079,0,.2-.0156,1.57-.0459,2.5713-.0156,1.293.0147,4.5264.0459,5.1885.0459.9546.1231,1.0469.77,1.1548.17.0308.2461.0923.2461.1538s-.0918.1079-.292.1079c-.7852,0-1.2627-.0771-1.8018-.0771-.7539,0-1.0469.0771-1.5859.0771-.1387,0-.2617-.0307-.2617-.1235,0-.0615.0927-.0923.247-.1231.7237-.123.8623-.2617.8926-1.17.0459-.4775.0771-1.3086.0771-3.9414,0-1.8628-.0156-2.3711-.0459-2.7559a.3763.3763,0,0,0-.2-.3388,2.3615,2.3615,0,0,0-.3858-.0923c-.0918-.0156-.23-.0615-.23-.1231C242.5732,80.4315,242.666,80.3851,242.7891,80.37Z"/><path class="cls-1" d="M250.1816,79.4769c.585.0156,1.586.0771,2.417.0771.0616,0,.1387.1231.1846.2153.5234,1.2164,2.6943,5.62,3.2334,6.605.0313.0923.0772.0464.1084-.0156.4307-.7695,2.2783-4.5723,2.6172-5.3267a12.8108,12.8108,0,0,0,.4766-1.247c0-.0308.1083-.231.1855-.231.6924,0,1.1543-.0928,2.0937-.0928.2,0,.2764.0464.2764.108,0,.0771-.1377.1386-.2461.1542-.8926.1846-.9238.3848-.97,1.2315-.0313.6157-.0313,2.186-.0313,2.9409,0,1.6777.0772,3.2178.1084,3.7412.0616.8775.2159,1.062.8467,1.2471.1387.0459.2461.0923.2461.1689,0,.0621-.1074.1079-.2773.1079-.5537,0-1.2315-.0922-1.8321-.0922s-1.3545.0464-1.57.0464c-.1074,0-.2773-.0157-.2773-.1236,0-.0615.1543-.1382.2617-.1689.6318-.1387.7236-.4776.77-1.6631.0459-.8008.0615-4.5264.0615-5.3731,0-.0615-.0468-.1694-.0771-.0463-1.0166,2.1093-2.6787,5.5581-3.2793,7.0053-.1231.2461-.1846.354-.2774.354s-.1689-.2309-.246-.4c-.5547-1.3237-2.7872-6.2505-3.1875-7.02-.0616-.1386-.0918-.1538-.1231.0772-.0615.6465-.2,4.2954-.2,5.3579a5.2539,5.2539,0,0,0,.0615,1.062c.0616.354.3545.585.8164.6777.1543.0308.2461.0923.2461.1538,0,.108-.1386.1387-.292.1231-.2773.0156-.8164-.0615-1.34-.0615-.4922,0-.9238.0771-1.1084.0771-.2314,0-.293-.0307-.293-.1079,0-.0464.0469-.1079.2617-.1694.4473-.1231.6778-.2154.8321-.4463a3.8007,3.8007,0,0,0,.3535-1.6939c.0928-.8774.293-4.0029.293-5.1884,0-.9082-.0459-1.1084-.3389-1.4165a1.2778,1.2778,0,0,0-.8008-.3692c-.1074-.0308-.2461-.0928-.2461-.1694S250.0889,79.4769,250.1816,79.4769Z"/><path class="cls-1" d="M262.748,83.803a6.9609,6.9609,0,0,0,1.5088-.4619,1.374,1.374,0,0,1,.2305-.0923c.0469,0,.0772.0464.0615.2159-.03.3232-.03,1.1084-.03,1.7548,0,1.7247,0,2.9561.03,3.1871a.4667.4667,0,0,0,.416.4775c.169.0459.2159.0923.2159.1538,0,.0772-.1084.1079-.2315.1079-.2617,0-.6152-.0771-1.2627-.0771-.6767,0-1.0312.0307-1.2.0307-.1386,0-.2617-.0464-.2617-.1079,0-.0766.0918-.1074.2774-.1382.3994-.0927.5078-.2929.5078-.8315,0-.4619.0459-3.1406.0459-3.2949,0-.2925,0-.354-.4-.6314-.0772-.0615-.1231-.1074-.1231-.1689C262.5322,83.8958,262.5781,83.8494,262.748,83.803Zm1.8321-2.4477a.7372.7372,0,0,1-.7549.7695.6961.6961,0,0,1-.6465-.708.7364.7364,0,0,1,.7236-.7851A.7247.7247,0,0,1,264.58,81.3553Z"/><path class="cls-1" d="M267.998,85.3275c0,2.0014.0157,2.6171.03,2.8945.0156.4927.1084.5542.5088.6465.0918.0156.1992.0615.1992.1386,0,.0616-.1533.108-.3076.108-.4619,0-1.0771-.0464-1.3086-.0464-.416,0-.7392.0307-1.1543.0307-.1543,0-.2773-.0307-.2773-.1079s.1074-.1074.23-.1382c.4161-.0771.5088-.1694.5391-.8315.0313-.6314.0928-3.4951.1084-4.9732,0-.8466.0147-2.4785,0-3.0019,0-.3545-.0771-.4619-.4316-.647-.1075-.0615-.1543-.123-.1543-.1689s.0927-.0928.2314-.1236a8.7672,8.7672,0,0,0,1.5547-.4311.6636.6636,0,0,1,.2158-.0615c.0313,0,.0615.0922.0615.1694,0,.1079-.0459,2.6792-.0459,5.3423Z"/><path class="cls-1" d="M274.3115,84.9886a.2317.2317,0,0,1-.1845.2158c-.17-.0156-2.0791-.0464-2.4942-.0464h-.5547c-.0459,0-.1074.0772-.1386.1231a2.3617,2.3617,0,0,0-.0772.6313,2.5257,2.5257,0,0,0,.6777,1.8169,2.074,2.074,0,0,0,2.7715.1387c.1074-.1236.169-.0928.169-.0156s-.03.123-.1075.2309a2.7234,2.7234,0,0,1-2.2636,1.17,2.54,2.54,0,0,1-1.9092-.8,3.0632,3.0632,0,0,1-.7383-2.0786,3.1427,3.1427,0,0,1,1.0313-2.3554,2.9037,2.9037,0,0,1,1.8779-.6929A1.8116,1.8116,0,0,1,274.3115,84.9886Zm-2.956-.939a1.825,1.825,0,0,0-.3389.7852c0,.0307.0313.0923.0772.0923l1.4628-.0152c.4151,0,.4463-.2309.4463-.37a1.1967,1.1967,0,0,0-.2158-.7393.768.768,0,0,0-.5693-.2617A1.1976,1.1976,0,0,0,271.3555,84.05Z"/><path class="cls-1" d="M233.3027,100.3265c.1387,0,.2618.0307.2618.1074,0,.0464-.1534.1079-.2618.1235-.3691.0616-.3535.2007-.292.4468.23.708.8926,2.4629,1.2471,3.3252.0156.0459.0772.0615.0918.0156.2471-.5234.9238-2.0166,1.0781-2.417.0157-.0771.0616-.1845.03-.2617-.0762-.2-.1846-.4463-.2617-.6318a.8194.8194,0,0,0-.585-.5078c-.1386-.0308-.2148-.0616-.2148-.1236s.0762-.0922.2305-.0922c.3232,0,.7236.0463,1.0468.0463.4463,0,.6319-.0307.9082-.0307.17,0,.2315.0307.2315.0766,0,.062-.1084.1236-.2315.1543-.3535.0767-.4463.1382-.2617.6158.17.4775.9854,2.71,1.2012,3.1875.0459.0771.0771.0146.0771,0,.1846-.4.9239-2.1553,1.1084-2.68a3.4987,3.4987,0,0,0,.2461-.7383c0-.1387-.0615-.2774-.4619-.3853-.2-.0615-.2461-.1079-.2461-.1543,0-.0615.0928-.0922.2-.0922.2617,0,.5391.0463.7852.0463.1543,0,.539-.0463.7695-.0463.1387,0,.2158.0307.2158.0922s-.0459.0928-.2773.1543c-.2764.0767-.4619.2925-.6621.7085-.2764.5537-.7383,1.6162-1.2159,2.71-.2617.6309-.539,1.3086-.7236,1.8008-.0928.2461-.1543.2929-.2.2929-.0615,0-.1074-.0615-.1689-.2773-.0772-.2158-.1856-.5234-.37-1.0469-.292-.831-.6153-1.709-.9239-2.5254-.0156-.0459-.0459-.0771-.0771,0-.1387.293-.7852,1.709-1,2.2481-.2315.5078-.37.8623-.5391,1.3086-.0771.2158-.1543.2929-.2158.2929s-.1074-.1084-.1543-.2773c-.0762-.2158-.1689-.585-.4307-1.3242-.2773-.7539-1.1543-3.0332-1.3242-3.3252a.877.877,0,0,0-.6777-.6011c-.1231-.0308-.2149-.0767-.2149-.123,0-.0923.1075-.1231.2774-.1231.1992,0,.6611.0615,1.0928.0615C232.6875,100.3572,232.9951,100.3265,233.3027,100.3265Z"/><path class="cls-1" d="M244.0361,100.9583a3.73,3.73,0,0,1,.2149,1.4c0,.57-.0459,2.0322-.0459,2.4326a.5273.5273,0,0,0,.5693.585.979.979,0,0,0,.4473-.1387c.0918-.0459.1533,0,.0918.1387a1.2961,1.2961,0,0,1-1.1856.6621,1.0348,1.0348,0,0,1-.9082-.6924.0533.0533,0,0,0-.0771-.0156,2.1563,2.1563,0,0,1-1.5088.6924,1.2774,1.2774,0,0,1-1.2315-1.3233,1.0868,1.0868,0,0,1,.5538-.8779c.37-.2,1.7714-.6162,2.0947-.7393a.2906.2906,0,0,0,.2-.23,5.3371,5.3371,0,0,0,.03-.709c0-.6309-.1074-1.0615-.3691-1.2617a1.1721,1.1721,0,0,0-.6465-.2471,1.0609,1.0609,0,0,0-.6162.1855.6182.6182,0,0,0-.2314.3692,1.6643,1.6643,0,0,0-.0147.293.194.194,0,0,1-.0615.123,3.3623,3.3623,0,0,1-.7236.3389c-.0772.0146-.1543-.0772-.1543-.1387,0-.1084.1074-.2471.2929-.4619a3.9855,3.9855,0,0,1,1.17-.8936,2.067,2.067,0,0,1,.9238-.2773A1.2623,1.2623,0,0,1,244.0361,100.9583Zm-1.0322,4.2334a.6391.6391,0,0,0,.17-.3691,11.0849,11.0849,0,0,0,.0772-1.4629c0-.0156-.0313-.0928-.0625-.0772a8.7754,8.7754,0,0,0-1.416.5235.797.797,0,0,0-.3848.77.8937.8937,0,0,0,.9238.8623A1.0518,1.0518,0,0,0,243.0039,105.1917Z"/><path class="cls-1" d="M247.4707,102.1282c0,1.9395.0156,2.6631.0313,2.9561.0146.415.1074.5234.538.6006.0928.0146.2.0615.2.1074,0,.0615-.1074.1074-.3076.1074-.2461,0-.8008-.03-1.0625-.03-.4,0-.8008.03-1.0312.03-.1846,0-.2618-.0146-.2618-.0918s.0772-.0928.2774-.1386c.3848-.0772.4766-.2159.5381-.8936.0312-.5693.0928-3.1709.1084-5.019,0-1.2471.0156-2.5093,0-3.1871,0-.3388-.0313-.4155-.4317-.6621-.1074-.0615-.1533-.0923-.1533-.1386s.0918-.0923.2305-.1231a7.9742,7.9742,0,0,0,1.1553-.354.6561.6561,0,0,1,.1845-.0464c.03,0,.0459.0928.0459.1695,0,.1079-.0615,2.7714-.0615,5.081Z"/><path class="cls-1" d="M253.2607,100.3572c.3379,0,.9541-.0771,1.3545-.0771.169,0,.2305.0464.2305.0923,0,.0307-.0459.0927-.2305.1235a2.7458,2.7458,0,0,0-1.416.6773c-.4.3086-1.1553.955-1.4472,1.2314-.0313.0313,0,.0772.0146.1084.4619.5391,1.57,1.7246,2.2939,2.4629a1.9829,1.9829,0,0,0,1.1094.7236c.1377.0313.23.0772.23.1387,0,.0928-.1387.1084-.2617.1084-.5235,0-1.1084-.0772-1.709-.0772-.2617,0-.4619.0157-.6924.0157-.17,0-.2773,0-.2773-.0928,0-.0772.0771-.1074.3535-.17.2617-.0615.2929-.1992.1543-.4151-.3233-.37-1.416-1.5244-1.878-1.9863-.123-.123-.2314-.2305-.2929-.2305-.0459,0-.0615.0918-.0615.1534-.0157.2773-.03.7851-.0157,1.6318,0,.7393.1231.7852.6006.8936.1543.0458.2315.0771.2315.1386,0,.0772-.1231.1074-.293.1074-.4307,0-.7539-.0459-1.1543-.0459-.4932,0-.8164.0459-1.001.0459-.1543,0-.2461-.0459-.2461-.1074,0-.0469.0918-.0928.2-.1084.4766-.123.585-.2617.6153-.7695.0615-1.124.0771-2.417.0771-3.6182.0156-1.2011.0615-3.1718.0615-4.3725a2.6467,2.6467,0,0,0-.0615-.7085c-.03-.1231-.1689-.2154-.3545-.3076-.0762-.0464-.1377-.0772-.1377-.108,0-.0615.0918-.0922.2461-.1386a9.47,9.47,0,0,0,1.0928-.3692.7168.7168,0,0,1,.2461-.0771c.0156,0,.0468.0464.0468.123-.0312.5083-.0771,1.8628-.0771,3.0025,0,.477-.0771,2.51-.0771,4.2031,0,.17.0312.2461.0771.2461a.7692.7692,0,0,0,.3076-.169,13.1737,13.1737,0,0,0,1.6631-1.54.555.555,0,0,0,.1689-.2764c0-.0927-.1074-.1855-.4462-.247-.1387-.0152-.2618-.0616-.2618-.1231s.1075-.1079.2461-.1079C252.7373,100.3416,253.0908,100.3572,253.2607,100.3572Z"/><path class="cls-1" d="M257.3418,102.9134c-.1387-1.4316-.4775-3.9263-.5078-4.8809-.0156-.4619.2617-1.14.6777-1.14.4463,0,.6924.539.6924,1.0776,0,.7085-.4463,4.0962-.5078,4.896-.0313.3242-.0928.4619-.17.4619C257.4346,103.3284,257.373,103.2366,257.3418,102.9134Zm-.5078,2.4326a.74.74,0,0,1,.708-.7236c.4619,0,.6162.5234.6162.7383a.6678.6678,0,0,1-.6162.6621A.6945.6945,0,0,1,256.834,105.346Z"/><path class="cls-2" d="M273.22,120.931a.5087.5087,0,0,1,.5-.5h0a.5015.5015,0,0,1,.5.5h0a.4948.4948,0,0,1-.5.5h0A.5016.5016,0,0,1,273.22,120.931Zm-3,0a.5016.5016,0,0,1,.5-.5h0a.5015.5015,0,0,1,.5.5h0a.4948.4948,0,0,1-.5.5h0A.4949.4949,0,0,1,270.22,120.931Zm-3,0a.5087.5087,0,0,1,.5-.5h0a.5015.5015,0,0,1,.5.5h0a.4948.4948,0,0,1-.5.5h0A.5016.5016,0,0,1,267.22,120.931Zm-3,0a.5016.5016,0,0,1,.5-.5h0a.5015.5015,0,0,1,.5.5h0a.4948.4948,0,0,1-.5.5h0A.4949.4949,0,0,1,264.22,120.931Zm-3,0a.5087.5087,0,0,1,.5-.5h0a.5015.5015,0,0,1,.5.5h0a.4948.4948,0,0,1-.5.5h0A.5016.5016,0,0,1,261.22,120.931Zm-3,0a.5016.5016,0,0,1,.5-.5h0a.5015.5015,0,0,1,.5.5h0a.4948.4948,0,0,1-.5.5h0A.4949.4949,0,0,1,258.22,120.931Zm-3,0a.5016.5016,0,0,1,.5-.5h0a.5015.5015,0,0,1,.5.5h0a.4948.4948,0,0,1-.5.5h0A.4949.4949,0,0,1,255.22,120.931Zm-3,0a.5087.5087,0,0,1,.5-.5h0a.5015.5015,0,0,1,.5.5h0a.4948.4948,0,0,1-.5.5h0A.5016.5016,0,0,1,252.22,120.931Zm-3,0a.5016.5016,0,0,1,.5-.5h0a.5015.5015,0,0,1,.5.5h0a.4948.4948,0,0,1-.5.5h0A.4949.4949,0,0,1,249.22,120.931Zm-3,0a.5087.5087,0,0,1,.5-.5h0a.5015.5015,0,0,1,.5.5h0a.4948.4948,0,0,1-.5.5h0A.5016.5016,0,0,1,246.22,120.931Zm-3,0a.5016.5016,0,0,1,.5-.5h0a.5015.5015,0,0,1,.5.5h0a.4948.4948,0,0,1-.5.5h0A.4949.4949,0,0,1,243.22,120.931Zm-3,0a.5087.5087,0,0,1,.5-.5h0a.5015.5015,0,0,1,.5.5h0a.4948.4948,0,0,1-.5.5h0A.5016.5016,0,0,1,240.22,120.931Zm-3,0a.5016.5016,0,0,1,.5-.5h0a.5015.5015,0,0,1,.5.5h0a.4948.4948,0,0,1-.5.5h0A.4949.4949,0,0,1,237.22,120.931Zm-3,0a.5016.5016,0,0,1,.5-.5h0a.5015.5015,0,0,1,.5.5h0a.4948.4948,0,0,1-.5.5h0A.4949.4949,0,0,1,234.22,120.931Zm-3,0a.5087.5087,0,0,1,.5-.5h0a.5015.5015,0,0,1,.5.5h0a.4948.4948,0,0,1-.5.5h0A.5016.5016,0,0,1,231.22,120.931Z"/><polyline class="cls-3" points="272.882 116.445 277.46 121.023 272.882 125.601"/><path class="cls-1" d="M293.4,139.9153c.3691,0,1.001.0616,1.4629.0616.3388,0,.708-.0313,1.0312-.0313.2159,0,.3076.0469.3076.1084,0,.0772-.0917.1231-.2763.1533-.4317.0772-.4317.2618-.3233.5391.6465,1.6016,2.1709,4.8809,3.2178,7.19.0459.1075.1074.0772.1533,0,.4317-.8779.8008-1.6474,1.2168-2.6328a.4285.4285,0,0,0,.03-.1846c-.2461-.5849-1.2773-2.9257-1.6162-3.665-.4463-.9541-.5693-1.1387-1.0469-1.2617-.2461-.0469-.3232-.1084-.3232-.1856,0-.0459.0918-.0918.292-.0918.4472,0,.7392.0616,1.2939.0616s.9082-.0616,1.2617-.0616c.1543,0,.2618.03.2618.0918,0,.0772-.0918.1241-.292.17-.4161.0771-.5694.2617-.3389.831.2461.6465.708,1.6934,1.2168,2.8643.0146.03.0762.0459.123-.0313.3692-.7539.6924-1.4629,1.0157-2.2168.4775-1.124.4619-1.2783-.2-1.4316-.2774-.0615-.3233-.1231-.3233-.1856,0-.0459.0928-.0761.2774-.0761.3847,0,.6308.0459,1.0312.0459.5391,0,.7852-.0616,1.14-.0616.1845,0,.2617.0157.2617.0772,0,.0771-.0772.123-.293.1689-.5693.1231-.8623.4463-1.37,1.34-.4.77-1.1543,2.2939-1.416,2.7715a.2651.2651,0,0,0,.0156.1845c.3848.9082,1.0615,2.3711,1.585,3.5254.0615.1074.1084.0772.1386,0,.7393-1.6015,2.6026-5.9121,2.9258-7.0517.0772-.3379.0615-.6-.4463-.7539-.247-.0772-.3388-.1075-.3388-.17s.0459-.0918.2617-.0918c.4,0,.6152.0616,1.0771.0616.4317,0,.8467-.0616,1.1241-.0616.2,0,.2773.0157.2773.0772s-.0771.123-.3545.1689c-.6465.17-.9238.4932-1.8935,2.6787-.97,2.125-2.2168,5.0352-2.9249,6.7286-.1084.2617-.1542.3545-.2314.3545-.1074,0-.1689-.1084-.2617-.3545-.3233-.94-1.2-2.8487-1.6475-3.834-.03-.0615-.0771-.0615-.1074-.0147-.585,1.1387-1.4014,2.9405-1.74,3.833-.0918.2461-.1846.37-.2461.37-.0918,0-.1231-.0928-.23-.37-.2-.5078-.6777-1.6318-.8779-2.0937-.8467-1.9551-1.878-4.2334-2.6016-5.7432-.5547-1.2-.6777-1.4775-1.2627-1.5547-.1846-.0156-.3232-.0771-.3232-.1386C293.0928,139.9769,293.2,139.9153,293.4,139.9153Z"/><path class="cls-1" d="M309.6465,144.7191a3.7343,3.7343,0,0,1,.2148,1.4c0,.57-.0459,2.0323-.0459,2.4327a.528.528,0,0,0,.5694.5859.9914.9914,0,0,0,.4472-.1387c.0918-.0468.1534,0,.0918.1387a1.2969,1.2969,0,0,1-1.1855.6611,1.0333,1.0333,0,0,1-.9082-.6923.0534.0534,0,0,0-.0772-.0157,2.153,2.153,0,0,1-1.5088.6934,1.2776,1.2776,0,0,1-1.2314-1.3242,1.0869,1.0869,0,0,1,.5537-.878c.37-.2,1.7715-.6152,2.0947-.7392a.2906.2906,0,0,0,.2-.2305,5.3044,5.3044,0,0,0,.03-.708c0-.6318-.1074-1.0625-.3691-1.2627a1.17,1.17,0,0,0-.6465-.2461,1.0586,1.0586,0,0,0-.6162.1846.6184.6184,0,0,0-.2315.3691,1.6756,1.6756,0,0,0-.0146.293.1936.1936,0,0,1-.0616.123,3.3505,3.3505,0,0,1-.7236.3389c-.0771.0156-.1543-.0771-.1543-.1387,0-.1074.1074-.2461.293-.4619a3.9921,3.9921,0,0,1,1.17-.8935,2.063,2.063,0,0,1,.9238-.2764A1.2623,1.2623,0,0,1,309.6465,144.7191Zm-1.0322,4.2334a.6394.6394,0,0,0,.17-.3692,11.0875,11.0875,0,0,0,.0771-1.4629c0-.0156-.0312-.0918-.0625-.0771a8.7774,8.7774,0,0,0-1.416.5234.7979.7979,0,0,0-.3848.77.8944.8944,0,0,0,.9239.8623A1.0526,1.0526,0,0,0,308.6143,148.9525Z"/><path class="cls-1" d="M311.9717,149.0609a1.7347,1.7347,0,0,1-.1846-.878v-3.1865c0-.17-.0156-.2773-.0771-.3086a2.54,2.54,0,0,0-.3692-.0918c-.123-.0312-.2-.0771-.2-.1387,0-.0312.0156-.0771.1846-.1543a3.2759,3.2759,0,0,0,1.2627-1.0312c.1387-.1543.2461-.1231.2461-.0459,0,.1377-.03.5693-.0147.7539,0,.0459.0147.1387.0762.1387.2774,0,1.5557-.0459,1.8789-.0459.03,0,.0918.1074.0918.2148,0,.2617-.0762.3848-.1533.3848-.5391,0-1.294-.0147-1.709-.0147-.1846,0-.2158.0459-.2158.1387,0,.2617.0156,2.6787.0312,3.1563a1.5782,1.5782,0,0,0,.169.831,1.14,1.14,0,0,0,.9541.416,1.5031,1.5031,0,0,0,.8476-.2314c.1075-.0772.1534-.0615.1534,0,0,.0928-.1387.2461-.3389.4a2.1124,2.1124,0,0,1-1.2471.4A1.4275,1.4275,0,0,1,311.9717,149.0609Z"/><path class="cls-1" d="M319.9951,145.5042a.18.18,0,0,1-.1543.169c-.123-.0157-2.125-.0459-2.4785-.0459h-.8311c-.0312,0-.1083.0771-.1386.123a2.1147,2.1147,0,0,0-.1231.8467,2.76,2.76,0,0,0,.708,1.8633,2.0776,2.0776,0,0,0,1.5391.6308,1.9666,1.9666,0,0,0,1.4629-.4922c.123-.123.1846-.0927.1846-.0156a.5856.5856,0,0,1-.1534.2461,2.7218,2.7218,0,0,1-2.1406.97,2.4839,2.4839,0,0,1-1.832-.7851,3.0085,3.0085,0,0,1-.7393-2.0625,3.21,3.21,0,0,1,.8936-2.2481,2.8622,2.8622,0,0,1,1.9238-.7695A1.7764,1.7764,0,0,1,319.9951,145.5042Zm-3.1406-.7851a1.3408,1.3408,0,0,0-.3233.6308.0654.0654,0,0,0,.0616.0615l2.001-.0156c.3388,0,.3691-.1689.3691-.3076a.9917.9917,0,0,0-.2149-.6465,1.0778,1.0778,0,0,0-.77-.293A1.5965,1.5965,0,0,0,316.8545,144.7191Z"/><path class="cls-1" d="M322.7217,145.0579a.8852.8852,0,0,0-.2617.5381,9.0219,9.0219,0,0,0-.0157.94c0,1.14.0313,1.94.0616,2.2636.0615.4766.247.585.832.6465.2148.03.292.0615.292.1387s-.1387.1074-.3692.1074c-.2929,0-.8007-.0615-1.4472-.0615a8.2852,8.2852,0,0,0-.9395.0928c-.1845,0-.2617-.0313-.2617-.0928,0-.0459.1084-.1231.2315-.1543a.6348.6348,0,0,0,.5537-.6309c.0312-.2617.0468-1.14.0468-2.1552v-1.709c0-.1084-.1084-.1543-.4-.4-.1084-.0772-.123-.1231-.123-.1543s.0918-.0918.2305-.1387a4.6731,4.6731,0,0,0,.9853-.3691.4863.4863,0,0,1,.2315-.0772c.03,0,.0615.0615.0615.2158,0,.169-.0156.754-.0156,1.001,0,.0459.03.0615.0771.0147a2.5152,2.5152,0,0,1,1.6621-1.1084.8963.8963,0,0,1,.5391.2.2693.2693,0,0,1,.1084.2158,1.0551,1.0551,0,0,1-.3389.5234c-.1387.1231-.2.1387-.2471.1387a.6917.6917,0,0,1-.2763-.1084,1.085,1.085,0,0,0-.5391-.1846A1.0488,1.0488,0,0,0,322.7217,145.0579Z"/><path class="cls-1" d="M303.9248,157.2542a.2721.2721,0,0,1,.1533.2617c-.03.3692.0469,1.0313.0469,1.1856s-.0615.2461-.0928.2461c-.0615,0-.1074-.0772-.1386-.2a2.3964,2.3964,0,0,0-.7393-1.2315,3.528,3.528,0,0,0-2.3555-.77,3.7139,3.7139,0,0,0-2.6787,1.2012,5.5588,5.5588,0,0,0-1.17,3.5723,5.8332,5.8332,0,0,0,1.416,3.7255,3.6765,3.6765,0,0,0,2.6328,1.14,3.2642,3.2642,0,0,0,1.8321-.4316,2.7563,2.7563,0,0,0,1.1855-1.5088c.0615-.2.0928-.2618.1543-.2618s.0928.1387.0928.2315a11.0385,11.0385,0,0,1-.2158,1.2158.4173.4173,0,0,1-.1543.2315,5.585,5.585,0,0,1-3.002.8466,5.3,5.3,0,0,1-4.0029-1.6318,5.3888,5.3888,0,0,1-1.294-3.4033,4.91,4.91,0,0,1,1.7246-3.8946,5.5341,5.5341,0,0,1,3.5879-1.2783A7.1083,7.1083,0,0,1,303.9248,157.2542Z"/><path class="cls-1" d="M308.8232,161.5189a3.7327,3.7327,0,0,1,.2149,1.4c0,.57-.0459,2.0332-.0459,2.4326a.5273.5273,0,0,0,.5693.5849.9883.9883,0,0,0,.4473-.1377c.0918-.0468.1533,0,.0918.1377a1.2959,1.2959,0,0,1-1.1856.6621,1.0334,1.0334,0,0,1-.9082-.6923.0533.0533,0,0,0-.0771-.0157,2.153,2.153,0,0,1-1.5088.6934A1.2775,1.2775,0,0,1,305.19,165.26a1.0869,1.0869,0,0,1,.5537-.878c.37-.2,1.7714-.6152,2.0947-.7392a.2908.2908,0,0,0,.2-.2305,5.3036,5.3036,0,0,0,.03-.708c0-.6318-.1075-1.0625-.3692-1.2627a1.17,1.17,0,0,0-.6465-.2461,1.059,1.059,0,0,0-.6162.1846.6183.6183,0,0,0-.2314.3691,1.6649,1.6649,0,0,0-.0147.293.1935.1935,0,0,1-.0615.123,3.3527,3.3527,0,0,1-.7236.3389c-.0772.0156-.1543-.0771-.1543-.1387,0-.1074.1074-.2461.2929-.4619a3.973,3.973,0,0,1,1.17-.8926,2.0542,2.0542,0,0,1,.9238-.2773A1.2621,1.2621,0,0,1,308.8232,161.5189Zm-1.0322,4.2334a.6394.6394,0,0,0,.17-.3692,11.0837,11.0837,0,0,0,.0772-1.4629c0-.0156-.0313-.0918-.0625-.0771a8.774,8.774,0,0,0-1.416.5234.7979.7979,0,0,0-.3848.77.8944.8944,0,0,0,.9238.8623A1.0522,1.0522,0,0,0,307.791,165.7523Z"/><path class="cls-1" d="M315.4756,161.2571a3.2167,3.2167,0,0,1,.4922,2.0166c0,.8164.0156.94.0156,1.709.0156,1.0469.0615,1.14.4775,1.2471.1387.0615.2305.0928.2305.1543,0,.0918-.123.1074-.2773.1074-.2,0-.6465-.0615-.9854-.0615-.5234,0-.7236.0615-.9541.0615-.1387,0-.2461-.03-.2461-.0928s.0918-.123.292-.1689c.37-.0928.4316-.2.4316-.6465V163.49c0-1.2471-.1083-1.6172-.4931-1.9092a1.3687,1.3687,0,0,0-.877-.293,1.8419,1.8419,0,0,0-1.2011.4932.7934.7934,0,0,0-.1846.4619c0,.1846.0146.97.0146,1.8935a12.5441,12.5441,0,0,0,.0928,1.6163c.0459.3388.2305.416.4775.4931.1846.0459.2618.0772.2618.1533,0,.0928-.1543.0928-.3086.0928-.1231,0-.877-.0615-1.2315-.0615-.2,0-.5234.0312-.8154.0312-.17,0-.293-.0312-.293-.1084,0-.0615.1387-.123.3233-.1533.3847-.0771.4463-.1855.4619-.4931.0312-1.1084.0312-2.5254.0312-3.7725,0-.1533-.0312-.3232-.4-.5234-.0927-.0616-.123-.0918-.123-.1377,0-.0313.0762-.0772.2148-.1241a5.7361,5.7361,0,0,0,1.2168-.5234c.0459-.0146.1231.0469.1075.1231a6.8664,6.8664,0,0,0-.03.8164c0,.0312.0459.0771.0762.0459a5.3342,5.3342,0,0,1,1.0937-.6924,2.0758,2.0758,0,0,1,.9082-.1846A1.5725,1.5725,0,0,1,315.4756,161.2571Z"/><path class="cls-1" d="M320.9736,161.5189a3.7327,3.7327,0,0,1,.2149,1.4c0,.57-.0459,2.0332-.0459,2.4326a.5272.5272,0,0,0,.5693.5849.9883.9883,0,0,0,.4473-.1377c.0918-.0468.1533,0,.0918.1377a1.2959,1.2959,0,0,1-1.1856.6621,1.0334,1.0334,0,0,1-.9082-.6923.0533.0533,0,0,0-.0771-.0157,2.1531,2.1531,0,0,1-1.5088.6934A1.2776,1.2776,0,0,1,317.34,165.26a1.087,1.087,0,0,1,.5538-.878c.37-.2,1.7714-.6152,2.0947-.7392a.2908.2908,0,0,0,.2-.2305,5.3036,5.3036,0,0,0,.03-.708c0-.6318-.1075-1.0625-.3692-1.2627a1.17,1.17,0,0,0-.6465-.2461,1.059,1.059,0,0,0-.6162.1846.6183.6183,0,0,0-.2314.3691,1.6649,1.6649,0,0,0-.0147.293.1935.1935,0,0,1-.0615.123,3.3527,3.3527,0,0,1-.7236.3389c-.0772.0156-.1543-.0771-.1543-.1387,0-.1074.1074-.2461.2929-.4619a3.973,3.973,0,0,1,1.17-.8926,2.0542,2.0542,0,0,1,.9238-.2773A1.2621,1.2621,0,0,1,320.9736,161.5189Zm-1.0322,4.2334a.6394.6394,0,0,0,.17-.3692,11.0837,11.0837,0,0,0,.0772-1.4629c0-.0156-.0313-.0918-.0625-.0771a8.774,8.774,0,0,0-1.416.5234.7979.7979,0,0,0-.3848.77.8944.8944,0,0,0,.9238.8623A1.0524,1.0524,0,0,0,319.9414,165.7523Z"/><path class="cls-1" d="M324.4072,162.6888c0,1.9394.0157,2.6631.0313,2.956.0146.4161.1074.5235.5381.6006.0927.0156.2.0615.2.1074,0,.0616-.1075.1084-.3077.1084-.2461,0-.8007-.0312-1.0625-.0312-.4,0-.8007.0312-1.0312.0312-.1846,0-.2617-.0156-.2617-.0927s.0771-.0928.2773-.1387c.3848-.0772.4766-.2158.5381-.8926.0313-.57.0928-3.1719.1084-5.0195,0-1.2471.0156-2.51,0-3.1865,0-.3389-.0313-.4161-.4316-.6621-.1075-.0616-.1534-.0928-.1534-.1387s.0918-.0928.2305-.1231a8.0214,8.0214,0,0,0,1.1553-.3545.64.64,0,0,1,.1846-.0459c.03,0,.0459.0918.0459.169,0,.1074-.0616,2.7715-.0616,5.081Z"/><line class="cls-4" x1="340.7777" y1="112.1641" x2="279.3669" y2="112.1641"/><line class="cls-4" x1="279.3669" y1="129.0794" x2="340.7777" y2="129.0794"/><line class="cls-4" x1="279.3669" y1="129.0794" x2="340.7777" y2="129.0794"/><polyline class="cls-5" points="303.771 120.995 304.296 121.989 303.72 123.034"/><polyline class="cls-5" points="303.719 123.061 304.245 124.055 303.668 125.1"/><polyline class="cls-5" points="303.823 118.919 304.348 119.913 303.772 120.958"/><polyline class="cls-5" points="301.481 118.219 302.006 119.213 301.43 120.258"/><polyline class="cls-5" points="301.429 120.285 301.954 121.279 301.378 122.324"/><polyline class="cls-5" points="301.532 116.143 302.058 117.137 301.482 118.182"/><polyline class="cls-5" points="309.34 120.995 309.866 121.989 309.289 123.034"/><polyline class="cls-5" points="309.289 123.061 309.814 124.055 309.238 125.1"/><polyline class="cls-5" points="309.392 118.919 309.917 119.913 309.341 120.958"/><polyline class="cls-5" points="307.05 118.219 307.576 119.213 306.999 120.258"/><polyline class="cls-5" points="306.999 120.285 307.524 121.279 306.948 122.324"/><polyline class="cls-5" points="307.102 116.143 307.627 117.137 307.051 118.182"/><polyline class="cls-5" points="314.91 120.995 315.435 121.989 314.859 123.034"/><polyline class="cls-5" points="314.858 123.061 315.384 124.055 314.807 125.1"/><polyline class="cls-5" points="314.962 118.919 315.487 119.913 314.911 120.958"/><polyline class="cls-5" points="312.62 118.219 313.145 119.213 312.569 120.258"/><polyline class="cls-5" points="312.568 120.285 313.094 121.279 312.517 122.324"/><polyline class="cls-5" points="312.671 116.143 313.197 117.137 312.621 118.182"/><polyline class="cls-5" points="318.189 118.219 318.715 119.213 318.138 120.258"/><polyline class="cls-5" points="318.138 120.285 318.663 121.279 318.087 122.324"/><polyline class="cls-5" points="318.241 116.143 318.766 117.137 318.19 118.182"/><line class="cls-4" x1="184.3897" y1="114.9323" x2="184.3897" y2="118.0085"/><line class="cls-4" x1="171.7499" y1="123.1341" x2="171.7499" y2="128.2124"/><line class="cls-4" x1="194.2144" y1="123.1341" x2="194.2144" y2="128.2124"/><rect class="cls-4" x="181.4313" y="121.7061" width="5.9732" height="6.6051" rx="1"/><line class="cls-4" x1="157.0178" y1="123.1341" x2="157.0178" y2="128.2124"/><polyline class="cls-4" points="162.184 120.995 173.667 120.995 184.327 108.927 165.361 108.927 163.637 110.967"/><line class="cls-4" x1="184.4258" y1="108.944" x2="195.0866" y2="121.0113"/><line class="cls-4" x1="199.3851" y1="107.7032" x2="199.3851" y2="110.7793"/><line class="cls-4" x1="209.2097" y1="115.7695" x2="209.2097" y2="120.8478"/><rect class="cls-4" x="196.4266" y="114.328" width="5.9732" height="6.6051" rx="1"/><polyline class="cls-4" points="188.662 113.765 199.323 101.698 180.357 101.698 173.895 108.881"/><line class="cls-4" x1="199.4211" y1="101.7149" x2="210.082" y2="113.7822"/><line class="cls-4" x1="134.6897" y1="107.6696" x2="134.6897" y2="110.7458"/><line class="cls-4" x1="147.3295" y1="115.8714" x2="147.3295" y2="120.9497"/><line class="cls-4" x1="124.865" y1="115.8714" x2="124.865" y2="120.9497"/><rect class="cls-4" x="131.6749" y="114.2944" width="5.9732" height="6.6051" rx="1" transform="translate(269.323 235.1938) rotate(-180)"/><polyline class="cls-4" points="158.523 113.732 145.413 113.732 134.752 101.665 153.718 101.665 158.486 107.279"/><line class="cls-4" x1="134.6536" y1="101.6813" x2="123.9928" y2="113.7486"/><line class="cls-4" x1="119.6943" y1="100.4405" x2="119.6943" y2="103.5166"/><rect class="cls-4" x="116.6796" y="107.1398" width="5.9732" height="6.6051" rx="1" transform="translate(239.3323 220.8846) rotate(-180)"/><polyline class="cls-4" points="130.418 106.503 119.757 94.435 138.723 94.435 145.184 101.618"/><line class="cls-4" x1="119.6583" y1="94.4522" x2="108.9974" y2="106.5195"/><polyline class="cls-4" points="179.017 98.438 166.178 98.438 161.439 103.369"/><polyline class="cls-4" points="194.755 96.959 200.14 91.209 181.174 91.209 174.712 98.392"/><line class="cls-4" x1="200.2382" y1="91.2254" x2="210.8991" y2="103.2926"/><line class="cls-4" x1="63.4133" y1="128.3389" x2="200.219" y2="128.3389"/><line class="cls-4" x1="201.0869" y1="120.935" x2="228.5264" y2="120.935"/><path class="cls-4" d="M102.9711,110.537a4.4363,4.4363,0,0,1,8.829,0,4.1843,4.1843,0,0,1,.0044,8.165c.002.0511.0081.101.0081.1525a4.4314,4.4314,0,0,1-8.854,0c0-.0515.0061-.1014.0081-.1525"/><line class="cls-4" x1="107.3338" y1="115.82" x2="103.8675" y2="112.6912"/><line class="cls-4" x1="107.5773" y1="117.654" x2="110.5501" y2="113.7477"/><line class="cls-4" x1="107.4791" y1="113.4283" x2="107.4791" y2="128.2429"/><path class="cls-4" d="M102.8942,118.6828a3.3638,3.3638,0,0,1-2.37,2.1832c.0015.04.0063.0783.0063.1182a3.4628,3.4628,0,0,1-6.916,0c0-.04.0048-.0786.0063-.1182a3.2364,3.2364,0,0,1,.0035-6.3263,3.382,3.382,0,0,1,3.4482-3.0971,3.4758,3.4758,0,0,1,2.9438,1.588"/><line class="cls-4" x1="97.0357" y1="118.9205" x2="94.324" y2="116.2088"/><line class="cls-4" x1="97.2218" y1="120.054" x2="99.5438" y2="117.0273"/><line class="cls-4" x1="97.145" y1="116.7799" x2="97.145" y2="128.2583"/><path class="cls-4" d="M147.2814,84.4884a1.9274,1.9274,0,0,0-1.69,1.839l-.0393.7354-.5828-.4487a5.5545,5.5545,0,0,0-4.3608-.85"/><path class="cls-6" d="M152.9549,149.2185h-4.1231a.1255.1255,0,0,1-.08-.0288l-2.6067-2.1545a.1253.1253,0,0,1-.0455-.0967V144.571a.1262.1262,0,0,1,.01-.0481l.7084-1.7053-.0256-3.4922H144.39a.1254.1254,0,0,1-.0886-.2141l.6816-.6817a.127.127,0,0,1,.0477-.03l.4675-.1617.9883-.9253a.1255.1255,0,0,1,.0857-.0337h2.2589a.1254.1254,0,0,1,.1254.1253l.0011,6.5093h1.35a13.6389,13.6389,0,0,1,4.566.7847l1.6352.5791a.1256.1256,0,0,1,.0835.1182v.665a.1254.1254,0,0,1-.05.1l-1.8021,1.3514-1.6964,1.67A.1252.1252,0,0,1,152.9549,149.2185Zm-3.9977-4.31v.79"/><line class="cls-6" x1="151.9498" y1="149.239" x2="151.9498" y2="151.585"/><polyline class="cls-6" points="149.399 151.65 150.954 150.586 150.954 149.878"/><polyline class="cls-6" points="148.991 145.722 150.533 147.345 153.957 147.345"/><line class="cls-6" x1="146.7771" y1="139.8756" x2="145.2114" y2="139.8756"/><path class="cls-6" d="M146.7,137.2654v-1.6023a.1255.1255,0,0,1,.1254-.1254h.5867a.1259.1259,0,0,1,.0887.0368l.4489.449h.3423a.1254.1254,0,0,1,.0886.0367l.38.38a.1252.1252,0,0,1,.0367.0886v.7363"/><path class="cls-6" d="M146.79,141.9706h-.9127a.1255.1255,0,0,1-.1254-.1254V141.02a.1232.1232,0,0,1,.0074-.0421l.4025-1.0847"/><line class="cls-6" x1="141.2405" y1="151.6657" x2="178.738" y2="151.6657"/><line class="cls-6" x1="144.1707" y1="151.585" x2="144.1707" y2="150.4231"/><line class="cls-6" x1="145.0667" y1="151.0881" x2="145.0667" y2="151.585"/><line class="cls-6" x1="145.9487" y1="151.585" x2="145.9487" y2="149.8778"/><line class="cls-6" x1="153.9594" y1="151.6634" x2="153.9594" y2="151.0941"/><line class="cls-6" x1="154.8209" y1="151.6138" x2="154.8209" y2="150.5128"/><path class="cls-6" d="M132.6322,161.67l-1.6568-1.6732-1.76-1.3541a.1265.1265,0,0,1-.0489-.1v-.6663a.1258.1258,0,0,1,.0815-.1185l1.5971-.58a13.02,13.02,0,0,1,4.46-.7863h1.3181l.0011-6.5219a.1241.1241,0,0,1,.1225-.1256h2.2062a.1213.1213,0,0,1,.0838.0338l.9652.9271.4566.162a.1227.1227,0,0,1,.0466.03l.6657.683a.128.128,0,0,1,.0266.1369.1225.1225,0,0,1-.1132.0776h-2.3465l-.0249,3.499.6918,1.7086a.127.127,0,0,1,.0094.0483v2.372a.1268.1268,0,0,1-.0444.0969l-2.5459,2.1588a.1211.1211,0,0,1-.0781.0288h-4.027A.1208.1208,0,0,1,132.6322,161.67Zm3.99-3.4906v-.7914"/><line class="cls-6" x1="133.6998" y1="161.7268" x2="133.6998" y2="164.0774"/><polyline class="cls-6" points="136.191 164.142 134.672 163.076 134.672 162.367"/><polyline class="cls-6" points="136.59 158.203 135.084 159.829 131.739 159.829"/><line class="cls-6" x1="138.752" y1="152.3451" x2="140.2811" y2="152.3451"/><path class="cls-6" d="M138.8268,149.73v-1.6054a.1242.1242,0,0,0-.1225-.1257h-.573a.1207.1207,0,0,0-.0865.0369l-.4386.45h-.3342a.1212.1212,0,0,0-.0866.0368l-.3715.381a.1273.1273,0,0,0-.0359.0889v.7377"/><path class="cls-6" d="M138.7394,154.4441h.8914a.1242.1242,0,0,0,.1225-.1256v-.8265a.1265.1265,0,0,0-.0072-.0422l-.3931-1.0868"/><line class="cls-6" x1="144.1595" y1="164.1582" x2="126.2265" y2="164.1582"/><line class="cls-6" x1="140.4225" y1="163.5794" x2="140.4225" y2="164.0774"/><line class="cls-6" x1="139.561" y1="164.0774" x2="139.561" y2="162.3667"/><line class="cls-6" x1="131.7371" y1="164.1559" x2="131.7371" y2="163.5854"/><line class="cls-6" x1="130.8956" y1="164.1062" x2="130.8956" y2="163.0031"/><path class="cls-4" d="M140.4153,79.35a1.9275,1.9275,0,0,0-1.69,1.839l-.0392.7355-.5829-.4487a5.5541,5.5541,0,0,0-4.3607-.85"/><path class="cls-7" d="M73.5765,123.1869a5.15,5.15,0,1,1,5.15,5.15A5.1558,5.1558,0,0,1,73.5765,123.1869Z"/><path class="cls-7" d="M59.5342,124.42a3.9168,3.9168,0,1,1,3.9169,3.9167A3.9213,3.9213,0,0,1,59.5342,124.42Z"/><path class="cls-7" d="M78.7266,120.0749a3.111,3.111,0,1,0,2.6232,1.4368"/><path class="cls-7" d="M61.5672,124.42a1.8839,1.8839,0,1,1,1.8839,1.8837A1.8862,1.8862,0,0,1,61.5672,124.42Z"/><line class="cls-7" x1="67.2024" y1="125.5469" x2="74.141" y2="125.5469"/><line class="cls-7" x1="67.3229" y1="123.834" x2="69.6717" y2="123.8054"/><path class="cls-7" d="M69.6586,123.8054a.1841.1841,0,0,0,.1841-.1841v-4.7479a.1841.1841,0,0,0-.1841-.1841H59.3453a1.1241,1.1241,0,0,0-1.123,1.1228v3.6692a1.1244,1.1244,0,0,0,1.123,1.1231H59.55"/><path class="cls-7" d="M83.895,123.8406h.9692a1.1243,1.1243,0,0,0,1.1229-1.1231v-6.126a1.1242,1.1242,0,0,0-1.1229-1.123H83.6928"/><path class="cls-7" d="M81.1374,115.4685h-3.82a1.1293,1.1293,0,0,0-1.0492.7227"/><path class="cls-7" d="M64.2459,118.531v-1.936a.1726.1726,0,0,1,.1841-.1582h1.4065a.1726.1726,0,0,1,.1841.1582v1.936a.1727.1727,0,0,1-.1841.1583H64.43A.1727.1727,0,0,1,64.2459,118.531Z"/><line class="cls-7" x1="65.3173" y1="116.4343" x2="65.3173" y2="114.4193"/><line class="cls-7" x1="61.9832" y1="116.6209" x2="61.9832" y2="118.6689"/><line class="cls-7" x1="70.7086" y1="117.8093" x2="69.8325" y2="118.6905"/><line class="cls-7" x1="69.791" y1="116.8998" x2="71.8835" y2="118.9923"/><polyline class="cls-7" points="76.786 114.732 75.084 119.193 73.164 119.193"/><line class="cls-7" x1="68.7896" y1="121.4367" x2="68.7896" y2="120.0099"/><line class="cls-7" x1="67.9538" y1="121.4367" x2="67.9538" y2="120.0099"/><line class="cls-7" x1="67.1181" y1="121.4367" x2="67.1181" y2="120.0099"/><path class="cls-4" d="M95.8543,103.4405a1.9274,1.9274,0,0,0-1.69,1.839l-.0393.7355-.5828-.4488a5.5545,5.5545,0,0,0-4.3608-.85"/><polyline class="cls-6" points="161.467 144.702 163.594 144.008 165.306 145.771"/><path class="cls-6" d="M165.33,145.7752l13.5671-4.22-.2151,4.73a2.687,2.687,0,0,0-2.2759,2.8248l-8.1692,2.5946Z"/><path class="cls-6" d="M176.527,149.7839a2.7268,2.7268,0,1,0-.1206-.6736A2.7144,2.7144,0,0,0,176.527,149.7839Zm1.1318-.3595a1.53,1.53,0,0,1,.9674-1.9078l.0257-.01a1.5268,1.5268,0,1,1-.9931,1.9173Z"/><path class="cls-6" d="M177.6065,148.7291a1.5248,1.5248,0,0,1,1.02-1.2125l.0257-.01a1.5309,1.5309,0,1,1-1.0454,1.222Z"/><line class="cls-6" x1="178.7564" y1="143.0683" x2="165.9908" y2="147.0186"/><path class="cls-4" d="M111.5743,79.23H96.1517a1.95,1.95,0,0,1-1.53-1.9814,2.0244,2.0244,0,0,1,2.2019-1.9814h.9211c-.2233,0-.3517-1.04-.3517-1.6042a3.7416,3.7416,0,0,1,6.28-2.7614,3.8722,3.8722,0,0,1,5.1053-1.5545,5.1983,5.1983,0,0,1,9.3889,3.1086,4.5517,4.5517,0,0,1-.8123,2.8115"/><path class="cls-4" d="M108.5405,68.9936c-.5166-3.5612,1.759-8.1263,6.2885-8.9068a7.71,7.71,0,0,1,8.9069,6.2884c.7789,4.52-2.7424,8.2025-6.2885,8.9069"/><path class="cls-4" d="M127.5111,77.7526a2.8729,2.8729,0,0,1-4.8222,2.12,2.9732,2.9732,0,0,1-3.92,1.1937A3.9914,3.9914,0,0,1,111.56,78.68a3.4946,3.4946,0,0,1,.6238-2.1587"/><path class="cls-4" d="M126.0635,67.3418a5.2888,5.2888,0,0,1,0,10.5775"/><path class="cls-4" d="M83.4608,98.725a1.9274,1.9274,0,0,0-1.69,1.839l-.0393.7354-.5828-.4487a5.5545,5.5545,0,0,0-4.3608-.85"/></svg>