<svg id="Layer_1" data-name="Layer 1" xmlns="http://www.w3.org/2000/svg" viewBox="0 0 399 200"><defs><style>.cls-1{fill:#333838;}.cls-2,.cls-3,.cls-4,.cls-6,.cls-7{fill:none;stroke:#222f3c;}.cls-2,.cls-4,.cls-7{stroke-linecap:round;}.cls-2,.cls-4,.cls-6{stroke-linejoin:round;}.cls-2,.cls-3,.cls-6,.cls-7{stroke-width:0.5px;}.cls-3,.cls-7{stroke-miterlimit:10;}.cls-4{stroke-width:0.25px;}.cls-5{fill:#222f3c;}</style></defs><path class="cls-1" d="M175.5073,102.95c.0391.01.1172.1475.127.1963,0,.127.0986.8818.0986.9209,0,.1465-.03.2451-.0889.2451a.3648.3648,0,0,1-.2841-.2353,1.6291,1.6291,0,0,0-.4209-.6953,1.1438,1.1438,0,0,0-.7832-.2744,1.0186,1.0186,0,0,0-1,1.0185c0,.5781.4316.8916,1.3134,1.45,1.2041.7344,1.44,1.3613,1.44,1.959a1.7393,1.7393,0,0,1-.8623,1.4394,2.8961,2.8961,0,0,1-1.3711.3536,3.711,3.711,0,0,1-1.41-.2549.8276.8276,0,0,1-.2548-.2842,5.4551,5.4551,0,0,1-.167-1.0479c0-.0693.1084-.206.1572-.206.0781,0,.2344.2353.3818.539a1.5618,1.5618,0,0,0,1.3614.9,1.0126,1.0126,0,0,0,1.02-.98c0-.4111-.2061-.8027-1.1074-1.3906-.9991-.6562-1.5381-1.1953-1.5381-2.0674a1.69,1.69,0,0,1,.5976-1.2832,2.2635,2.2635,0,0,1,1.5576-.47A7.0031,7.0031,0,0,1,175.5073,102.95Z"/><path class="cls-1" d="M181.896,102.94a6.4835,6.4835,0,0,0,.7061.1474c.0683,0,.1464.1172.1464.2647.01.2734.0293.6162.0489.9.01.206-.0586.373-.1661.373-.0488,0-.1376-.1182-.1865-.2646a1.4811,1.4811,0,0,0-.4111-.6963,2.2684,2.2684,0,0,0-1.45-.5674c-1.5576,0-2.292,1.2344-2.292,2.7226a3.7422,3.7422,0,0,0,.333,1.6563,2.4307,2.4307,0,0,0,2.1943,1.459,2.0684,2.0684,0,0,0,.95-.2246,2.214,2.214,0,0,0,.8526-.8916c.1172-.2159.1855-.3037.2646-.3037.1075,0,.1075.2548.0782.3623a4.5947,4.5947,0,0,1-.294.8525.8156.8156,0,0,1-.3525.3135,5.2606,5.2606,0,0,1-1.7149.2842,3.9486,3.9486,0,0,1-2.88-1.1075,3.2284,3.2284,0,0,1-.8232-2.2041,3.1126,3.1126,0,0,1,1.0781-2.3515,4.1449,4.1449,0,0,1,2.6446-.8809A5.532,5.532,0,0,1,181.896,102.94Z"/><path class="cls-1" d="M185.9351,105.7415c.666,0,1.9589-.039,2.9882-.039.0391,0,.0782-.0977.0879-.2452a16.2036,16.2036,0,0,0-.0195-1.6552c-.0391-.3526-.0879-.45-.4805-.5586-.1367-.0391-.2841-.0977-.2841-.1953,0-.0694.0986-.128.3232-.128.1279,0,.8525.0293,1.1074.0293.3135,0,.9307-.039,1.0479-.039.1865,0,.3037.0488.3037.1269,0,.0986-.0879.1572-.3135.2158-.3525.0782-.4111.2354-.4307.52-.0488.46-.0781,1.3418-.0781,2.7334,0,.96.0293,1.4687.0391,1.792.01.3818.1074.4121.499.539.1768.0586.2744.127.2744.2061,0,.1074-.1367.1367-.3135.1367-.166,0-.6953-.0293-.9892-.0293-.2158,0-.999.0488-1.1953.0488-.2344,0-.333-.0488-.333-.1367s.1279-.167.2646-.206c.4805-.127.5-.2061.5488-.9307.0293-.3916.0391-1.3125.02-1.5772,0-.0879-.0391-.1269-.0782-.1269-.7841,0-2.792-.0293-2.9882-.01a.1946.1946,0,0,0-.127.1465c-.02.3623,0,1.4111.01,1.7246.01.46.0683.6074.47.7246.2061.0586.3428.1367.3428.2451.01.0977-.1856.127-.3135.127-.0684,0-.8818-.0293-1.2246-.0293-.2246,0-.7246.0391-1.0576.0391-.2549,0-.3428-.0489-.3428-.127,0-.1084.1074-.167.2744-.2158.4307-.1172.5186-.2256.5684-.6367.039-.3916.0879-1.8516.0879-3.1934,0-.2939.0195-.833,0-1.2246-.02-.3232-.1075-.4307-.4317-.5293-.2246-.0684-.333-.1367-.333-.2148,0-.0987.1279-.1377.3037-.1377.2647,0,.8037.039,1.0586.039.4111,0,.8516-.0293,1.0869-.0293.2061,0,.3233.0391.3233.128,0,.1074-.127.166-.333.2148-.4112.0889-.4405.2744-.45.6758-.02.3525-.0586,1.4892-.0293,1.6758C185.8276,105.6927,185.8667,105.7415,185.9351,105.7415Z"/><path class="cls-1" d="M198.6919,105.9573a3.235,3.235,0,0,1-1.2344,2.6641,3.6959,3.6959,0,0,1-2.1455.7061,3.4518,3.4518,0,0,1-2.5469-1.0489,3.2346,3.2346,0,0,1-.8427-2.2431,3.07,3.07,0,0,1,1.2636-2.5469,3.68,3.68,0,0,1,2.0869-.7051,3.2451,3.2451,0,0,1,3.415,3.0658C198.69,105.8853,198.6912,105.9213,198.6919,105.9573Zm-4.7607-2.332a3.051,3.051,0,0,0-.6856,2.1943c0,1.5088.9209,3.1446,2.3506,3.1446a1.3983,1.3983,0,0,0,.999-.4014,3.3583,3.3583,0,0,0,.7549-2.3018,3.8117,3.8117,0,0,0-1.0186-2.6064,2.17,2.17,0,0,0-1.2939-.5283A1.7236,1.7236,0,0,0,193.9312,103.6253Z"/><path class="cls-1" d="M206.5117,105.9573a3.2347,3.2347,0,0,1-1.2344,2.6641,3.694,3.694,0,0,1-2.1445.7061,3.45,3.45,0,0,1-2.5469-1.0489,3.2344,3.2344,0,0,1-.8432-2.2431,3.0691,3.0691,0,0,1,1.2632-2.5469,3.683,3.683,0,0,1,2.0879-.7051,3.2448,3.2448,0,0,1,3.4139,3.0664h0C206.51,105.8856,206.511,105.9215,206.5117,105.9573Zm-4.76-2.332a3.0466,3.0466,0,0,0-.6856,2.1943c0,1.5088.92,3.1446,2.35,3.1446a1.4016,1.4016,0,0,0,1-.4014,3.3581,3.3581,0,0,0,.7539-2.3018,3.81,3.81,0,0,0-1.0176-2.6064,2.1727,2.1727,0,0,0-1.2949-.5283,1.7218,1.7218,0,0,0-1.1055.499Z"/><path class="cls-1" d="M207.6816,102.93c.2637,0,.6954.0195.9786.0195.3828,0,1.0586-.039,1.2949-.039.2246,0,.3027.0488.3027.1171,0,.0889-.1172.1573-.2148.1866-.5293.1269-.6075.2744-.6172.3916-.0684.49-.0684,1.48-.0684,2.93,0,.6757.01,1.4785.0488,1.8115.02.2353.3126.373.3516.3828a6.3905,6.3905,0,0,0,.8145.0488,4.0093,4.0093,0,0,0,.705-.0488.5813.5813,0,0,0,.3028-.1377,3.83,3.83,0,0,0,.6172-.7637.3958.3958,0,0,1,.2656-.1963c.0683,0,.0781.1084.0391.2647-.1094.3428-.2559.8818-.3145,1.1562a.4525.4525,0,0,1-.2246.1661c-.1484,0-1.0195-.0684-3.0078-.0684-.4707,0-1.1465.0586-1.4492.0586-.1778,0-.295-.0391-.295-.127,0-.0683.0879-.1572.2461-.1865.5371-.0976.627-.2744.6758-.7051.0195-.2451.0488-1.2734.0488-2.6845,0-.95,0-1.3321-.01-1.6553-.01-.333-.0586-.4893-.51-.5977-.1855-.0488-.2754-.1172-.2754-.1855C207.3867,102.9691,207.5059,102.93,207.6816,102.93Z"/><path class="cls-2" d="M210.9525,146.5364a.6044.6044,0,0,0,.6028-.6059v-2.9289a.8569.8569,0,0,0-.8541-.858h-6.4026V119.6744a.8569.8569,0,0,0-.8541-.858H180.3361a.8564.8564,0,0,0-.8536.858v22.4692h-6.4032a.8564.8564,0,0,0-.8535.858v2.9289a.604.604,0,0,0,.6021.6059h.0007"/><line class="cls-2" x1="191.8906" y1="142.0643" x2="191.8906" y2="119.04"/><path class="cls-3" d="M194.0139,72.2661a12.6348,12.6348,0,0,0,4.0968-.7869,8.5661,8.5661,0,0,1,2.6193-.5655,4.9207,4.9207,0,0,1,2.6844.8811.6506.6506,0,0,0,.9958-.5512V64.2561a.6491.6491,0,0,0-.353-.5789,3.4962,3.4962,0,0,0-1.6331-.3709,11.1326,11.1326,0,0,0-3.0312.6157,13.5147,13.5147,0,0,1-3.8642.7408h0a6.6615,6.6615,0,0,1-3.1915-.8022.6657.6657,0,0,0-.6409.0184.6569.6569,0,0,0-.3136.5574V77.813"/><polyline class="cls-2" points="145.754 104.079 145.754 99.552 191.373 77.511 238.027 99.595 238.027 104.14"/><polyline class="cls-2" points="150.367 146.202 150.367 102.453 191.425 82.617 233.414 102.493 233.414 146.257"/><line class="cls-2" x1="263.5058" y1="146.5969" x2="263.5058" y2="137.8274"/><line class="cls-2" x1="263.5058" y1="146.5969" x2="267.7335" y2="146.5969"/><line class="cls-2" x1="259.1428" y1="146.5969" x2="259.1428" y2="137.8274"/><line class="cls-2" x1="259.1428" y1="146.5969" x2="254.9152" y2="146.5969"/><path class="cls-2" d="M273.2039,109.2431a16.8043,16.8043,0,0,0-3.7849-2.8409H253.23a16.8,16.8,0,1,0,19.9742,2.8409Z"/><line class="cls-2" x1="262.0674" y1="121.7922" x2="265.1614" y2="124.6665"/><line class="cls-2" x1="259.2628" y1="123.2682" x2="260.5816" y2="121.9494"/><circle class="cls-2" cx="261.44" cy="121.3617" r="0.7"/><circle class="cls-4" cx="261.3245" cy="121.1225" r="14"/><path class="cls-2" d="M273.2039,133.002a8.4282,8.4282,0,0,0,11.9188,0"/><path class="cls-2" d="M286.6072,131.5162a1.0411,1.0411,0,1,0,.0009.0009Z"/><path class="cls-2" d="M246.7263,129.4041a8.4281,8.4281,0,0,0-11.3342-3.6871"/><path class="cls-2" d="M233.52,126.67a1.0573,1.0573,0,1,0,0-.0006Z"/><line class="cls-2" x1="286.5848" y1="131.2732" x2="298.6245" y2="112.9837"/><polyline class="cls-2" points="269.787 99.487 278.124 96.733 261.324 91 244.524 96.733 252.915 99.487"/><path class="cls-2" d="M269.7245,96.7327v9.6317h-16.8V96.7425c0-.8022,3.7606-1.453,8.4-1.453s8.4.6508,8.4,1.453Z"/><path class="cls-2" d="M244.5245,96.7327v4.6137"/><path class="cls-5" d="M260.8059,132.2054a.5123.5123,0,0,1,.462-.5581h0l.0278-.0019h0a.5271.5271,0,0,1,.5462.4894h0a.5225.5225,0,0,1-.4822.56l-.0078.0005h-.028A.512.512,0,0,1,260.8059,132.2054Zm-5.1518-1.026a.53.53,0,0,1-.3364-.6583h0a.5274.5274,0,0,1,.6648-.3381l.0072.0024h0a.5285.5285,0,0,1,.3363.6577h0a.5249.5249,0,0,1-.5038.3643h0A.7154.7154,0,0,1,255.6541,131.1794Zm10.7139-.2409a.5217.5217,0,0,1,.2442-.6962l.0081-.0038h0a.5253.5253,0,0,1,.6993.2507h0l.0007.0015h0a.5293.5293,0,0,1-.2523.6857h0a.4389.4389,0,0,1-.2235.056h0A.5294.5294,0,0,1,266.368,130.9385Zm-15.1108-4.0694a.5246.5246,0,0,1,.1962-.7137h0a.5418.5418,0,0,1,.728.21h0a.5414.5414,0,0,1-.21.7136h0a.5659.5659,0,0,1-.2522.07h0a.5694.5694,0,0,1-.462-.28Zm19.4529.2446a.5112.5112,0,0,1-.2994-.658l.0055-.014h0a.5109.5109,0,0,1,.654-.3069l.0323.013h0a.5227.5227,0,0,1,.294.672h0a.5274.5274,0,0,1-.49.3356h0a.4487.4487,0,0,1-.1965-.0417ZM249.7832,121.16h0a.5333.5333,0,0,1,.4621-.5886h0a.5412.5412,0,0,1,.5879.4621h0a.54.54,0,0,1-.4622.5879h-.07A.5372.5372,0,0,1,249.7832,121.16Zm22.2289-.0594h0a.5293.5293,0,0,1,.5175-.5325h0a.5327.5327,0,0,1,.5325.5325h0a.5293.5293,0,0,1-.5325.5175h0a.5256.5256,0,0,1-.5175-.5181Zm-20.5021-5.1a.5166.5166,0,0,1-.1172-.721l0,0,.005-.0069h0a.5162.5162,0,0,1,.7206-.1169l.0074.0054h0a.5046.5046,0,0,1,.1316.7015l-.0195.0266h0a.5125.5125,0,0,1-.42.2235h0a.5175.5175,0,0,1-.308-.1119Zm18.9763-.097h0a.5332.5332,0,0,1,.1121-.7424h0a.5372.5372,0,0,1,.7417.1258h0a.5209.5209,0,0,1-.1232.7262l-.0026.0018h0a.476.476,0,0,1-.3083.0984h0a.518.518,0,0,1-.42-.21Zm-15.11-4.0868a.5359.5359,0,0,1,.1538-.728h0a.5234.5234,0,0,1,.7227.1594l.0054.0087h0a.5285.5285,0,0,1-.1682.7274h0a.6292.6292,0,0,1-.28.07h0a.5156.5156,0,0,1-.4342-.2375Zm11.2427.1926a.5237.5237,0,0,1-.173-.72l.0048-.0077h0a.5352.5352,0,0,1,.7281-.1538h0a.5367.5367,0,0,1,.1681.728h0a.56.56,0,0,1-.4484.2379h0a.5031.5031,0,0,1-.28-.0837Zm-5.3644-1.34a.5235.5235,0,0,1-.4214-.6087l.0014-.0072h0a.5264.5264,0,0,1,.6144-.42h.0016a.5453.5453,0,0,1,.42.6159h0a.54.54,0,0,1-.5318.42Z"/><path class="cls-6" d="M259.29,115.7264a1.93,1.93,0,0,1-3.8057,0"/><path class="cls-6" d="M267.48,115.7264a1.93,1.93,0,0,1-3.8057,0"/><line class="cls-7" x1="255.6432" y1="118.5856" x2="255.6432" y2="122.2256"/><line class="cls-7" x1="267.3211" y1="118.5856" x2="267.3211" y2="122.2256"/><path class="cls-3" d="M210.7583,58.7239a12.6348,12.6348,0,0,0,4.0968-.7869,8.5661,8.5661,0,0,1,2.6193-.5655,4.9207,4.9207,0,0,1,2.6844.8811.6506.6506,0,0,0,.9958-.5512V50.7138a.6493.6493,0,0,0-.3529-.5788,3.4963,3.4963,0,0,0-1.6331-.371,11.1334,11.1334,0,0,0-3.0313.6158,13.5209,13.5209,0,0,1-3.8641.7408h-.0005a6.6615,6.6615,0,0,1-3.1915-.8022.6655.6655,0,0,0-.6409.0184.6565.6565,0,0,0-.3136.5573V64.2708"/><polyline class="cls-2" points="208.118 63.969 254.772 86.053 254.772 90.598"/><line class="cls-2" x1="162.4982" y1="90.5371" x2="162.4982" y2="86.0093"/><line class="cls-2" x1="204.7941" y1="65.7153" x2="208.1177" y2="63.9687"/><line class="cls-2" x1="162.4982" y1="86.0093" x2="191.293" y2="72.0585"/><line class="cls-2" x1="136.2408" y1="146.5969" x2="317.3891" y2="146.5969"/><path class="cls-3" d="M74.673,110.483c-3.602-1.2564-5.7535-3.1095-6.7228-5.1917-1.9754,2.7633-6.47,4.6943-11.7056,4.6943a17.3442,17.3442,0,0,1-2.9659-.3418,10.7146,10.7146,0,0,0-.4807,3.1726,11.6452,11.6452,0,0,0,23.2693,0,10.7526,10.7526,0,0,0-.1922-2.01A11.3957,11.3957,0,0,1,74.673,110.483Z"/><path class="cls-3" d="M67.6422,159.2672h4.37A1.6477,1.6477,0,0,1,73.66,160.915h0v.6591H67.6422Z"/><path class="cls-3" d="M61.2231,161.574H55.2052v-.6591a1.6477,1.6477,0,0,1,1.6476-1.6478h4.37v2.3069Z"/><polygon class="cls-3" points="67.642 152.239 67.642 159.267 71.581 159.267 72.038 152.239 67.642 152.239"/><polygon class="cls-3" points="56.824 152.192 57.284 159.267 61.223 159.267 61.223 152.192 56.824 152.192"/><polygon class="cls-3" points="55.606 139.403 54.715 152.168 74.15 152.168 73.259 139.403 55.606 139.403"/><path class="cls-3" d="M70.0494,122.6206c.0164,0,.0323.0021.0488.0023.0208-.0006.0416-.0023.0626-.0023a2.0461,2.0461,0,0,1,.4272.0467,3.27,3.27,0,0,1,1.1908.4407,12.5559,12.5559,0,0,1,3.27,2.0786,25.7074,25.7074,0,0,0,2.5526-9.3359,2.2362,2.2362,0,0,1-1.7347.81h-.5108"/><path class="cls-3" d="M53.5094,116.6612h-.5108a2.2362,2.2362,0,0,1-1.7372-.8138,25.72,25.72,0,0,0,2.5552,9.3392,12.5559,12.5559,0,0,1,3.27-2.0786,3.2707,3.2707,0,0,1,1.1909-.4408"/><path class="cls-3" d="M52.798,112.8164c0-.1258.0056-.25.01-.3752a2.1122,2.1122,0,0,0,.1907,4.22"/><path class="cls-3" d="M75.3568,116.6612h.51a2.1122,2.1122,0,0,0,.1907-4.22h0c.0043.1248.01.2494.01.3752"/><path class="cls-3" d="M71.253,114.931a1.3051,1.3051,0,0,0-2.6078,0"/><path class="cls-3" d="M60.22,114.931a1.305,1.305,0,0,0-2.6077,0"/><path class="cls-3" d="M62.2261,119.0065a2.2085,2.2085,0,0,0,4.4131,0"/><path class="cls-3" d="M53.2767,109.6438a17.3466,17.3466,0,0,0,2.9679.3422c5.2351,0,9.73-1.931,11.7056-4.6943.9693,2.0822,3.1208,3.9353,6.7228,5.1917a11.4191,11.4191,0,0,0,1.2021.3232,10.8585,10.8585,0,0,1,.183,1.635,2.2132,2.2132,0,0,1,1.729,1.0661c.0434-.8043.0671-1.5752.0776-2.2926.0055-.3781.008-.7428.008-1.09,0-7.1135-6.0173-12.88-13.44-12.88a13.2165,13.2165,0,0,0-13.4012,11.9473c-.023.3083-.0388.6186-.0388.9327,0,1.0058.0181,2.1538.0846,3.3836a2.2131,2.2131,0,0,1,1.7279-1.0674"/><path class="cls-3" d="M52.6175,136.1041a2.2708,2.2708,0,0,1,.9788.2215,8.3161,8.3161,0,0,1,.5391-5.9329l-3.056-.6811a11.1341,11.1341,0,0,0-.421,7.5366A2.218,2.218,0,0,1,52.6175,136.1041Z"/><ellipse class="cls-3" cx="52.6175" cy="138.2187" rx="2.2066" ry="2.1146"/><path class="cls-3" d="M77.9321,128.9707a12.2406,12.2406,0,0,0-6.1533-5.8627,3.27,3.27,0,0,0-1.1908-.4407,2.0461,2.0461,0,0,0-.4272-.0467c-.021,0-.0418.0017-.0626.0023-.0165,0-.0324-.0023-.0488-.0023h-.0711a12.0993,12.0993,0,0,1-11.0912,0h-.0712c-.0164,0-.0324.0021-.0487.0023-.021-.0006-.0417-.0023-.0627-.0023a2.0585,2.0585,0,0,0-.4271.0466,3.2707,3.2707,0,0,0-1.1909.4408,12.24,12.24,0,0,0-6.1532,5.8627c-.1036.2127-.1983.4278-.2884.6441l3.932.8763a8.2977,8.2977,0,0,1,1.0295-1.5738v10.56H73.2589v-10.56a8.2977,8.2977,0,0,1,1.0295,1.5738l3.932-.8763C78.13,129.3985,78.0356,129.1834,77.9321,128.9707Z"/><path class="cls-3" d="M79.1553,135.4851a3.26,3.26,0,0,1,1.1834-.2318,8.67,8.67,0,0,1-2.4808-5.5294l-3.0524.6956a11.3532,11.3532,0,0,0,3.1281,6.9265A2.1066,2.1066,0,0,1,79.1553,135.4851Z"/><path class="cls-3" d="M80.1387,135.2634a2.1165,2.1165,0,1,1-2.2066,2.1146"/><path class="cls-3" d="M92.6636,161.574H86.6457v-.6591a1.6478,1.6478,0,0,1,1.6478-1.6478h4.37v2.3069Z"/><path class="cls-3" d="M99.0828,159.2672h4.37a1.6477,1.6477,0,0,1,1.6478,1.6476v.6593H99.0828Z"/><polygon class="cls-3" points="92.664 152.239 92.664 159.267 88.725 159.267 88.268 152.239 92.664 152.239"/><polygon class="cls-3" points="103.482 152.192 103.022 159.267 99.083 159.267 99.083 152.192 103.482 152.192"/><polygon class="cls-3" points="104.699 139.403 105.591 152.168 86.155 152.168 87.047 139.403 104.699 139.403"/><path class="cls-3" d="M107.6884,136.1041a2.2708,2.2708,0,0,0-.9788.2215,8.3161,8.3161,0,0,0-.5391-5.9329l3.056-.6811a11.1341,11.1341,0,0,1,.421,7.5366A2.218,2.218,0,0,0,107.6884,136.1041Z"/><ellipse class="cls-3" cx="107.6884" cy="138.2187" rx="2.2066" ry="2.1146"/><path class="cls-3" d="M82.3738,128.9707a12.2408,12.2408,0,0,1,6.1532-5.8627,3.2712,3.2712,0,0,1,1.1909-.4407,2.0461,2.0461,0,0,1,.4272-.0467c.021,0,.0417.0017.0626.0023.0164,0,.0324-.0023.0488-.0023h.0711a12.0993,12.0993,0,0,0,11.0912,0h.0711c.0165,0,.0324.0021.0488.0023.0209-.0006.0416-.0023.0627-.0023a2.0585,2.0585,0,0,1,.4271.0466,3.2714,3.2714,0,0,1,1.1909.4408,12.24,12.24,0,0,1,6.1532,5.8627c.1036.2127.1983.4278.2883.6441l-3.932.8763a8.286,8.286,0,0,0-1.0294-1.5738v10.56H87.047v-10.56a8.2977,8.2977,0,0,0-1.0295,1.5738l-3.932-.8763C82.1756,129.3985,82.27,129.1834,82.3738,128.9707Z"/><path class="cls-3" d="M79.9672,135.2533a8.67,8.67,0,0,0,2.4807-5.5294L85.5,130.42a11.3532,11.3532,0,0,1-3.1281,6.9265"/><line class="cls-2" x1="24.0858" y1="161.8319" x2="150.141" y2="161.8319"/><path class="cls-1" d="M287.83,58.3441a1.6308,1.6308,0,0,1,1.3691-1.5088c.0781,0,.1387,0,.1387.0771,0,.0308-.0762.0767-.168.1074-.4629.2466-.8008.5542-.8008,1.0469,0,.3237.1524.5083.5684.6162a.3227.3227,0,0,1,.3086.3233.4442.4442,0,0,1-.4629.4.9946.9946,0,0,1-.9547-1.0329v0Zm1.9082,0a1.6709,1.6709,0,0,1,1.3867-1.5088c.0762,0,.1387.0307.1387.0771,0,.0308-.0625.0767-.1543.1074-.4629.2466-.8164.57-.8164,1.0469,0,.3237.17.5083.5859.6162a.332.332,0,0,1,.3066.3233.4712.4712,0,0,1-.4765.4,1.0073,1.0073,0,0,1-.9715-1.0419h0l.0009-.02Z"/><path class="cls-1" d="M292.373,57.4974c.3692,0,1,.0615,1.4629.0615.3379,0,.7071-.0308,1.0313-.0308.2148,0,.3066.0459.3066.1079,0,.0767-.0918.1231-.2754.1539-.4316.0771-.4316.2617-.3242.5385.6465,1.6016,2.1719,4.8809,3.2188,7.1905.0449.1074.1074.0766.1523,0,.4317-.878.8009-1.6475,1.2168-2.6329a.4159.4159,0,0,0,.0314-.185c-.2461-.585-1.2775-2.9253-1.6171-3.6641-.4454-.9546-.5684-1.1391-1.047-1.2627-.246-.0459-.3222-.1074-.3222-.1845,0-.0464.0918-.0923.2908-.0923.4473,0,.74.0615,1.2952.0615.5527,0,.9082-.0615,1.2615-.0615.1543,0,.2617.0307.2617.0923,0,.0771-.0918.123-.293.1694-.4159.0767-.5683.2617-.3379.831.2461.647.7071,1.6939,1.2168,2.8638.0137.0308.0762.0464.1232-.0307.3692-.7544.6914-1.4624,1.0155-2.2168.4766-1.1241.461-1.2779-.2012-1.4322-.2773-.0615-.3222-.123-.3222-.1845,0-.0464.0918-.0772.2774-.0772.3847,0,.6308.0464,1.0314.0464.539,0,.7851-.0615,1.1386-.0615.1856,0,.2618.0151.2618.0766,0,.0772-.0762.1236-.293.1695-.5684.1235-.8613.4467-1.3691,1.34-.4.77-1.1543,2.294-1.4161,2.771a.2659.2659,0,0,0,.0156.1851c.3848.9082,1.06,2.3706,1.5838,3.5254.0625.1079.11.0771.1387,0,.74-1.6011,2.6035-5.9122,2.926-7.0513.078-.3389.0625-.6006-.4455-.7544-.2481-.0772-.34-.1079-.34-.1694s.0469-.0923.2618-.0923c.4,0,.6152.0615,1.0781.0615.4316,0,.8457-.0615,1.1229-.0615.2012,0,.2774.0151.2774.0766s-.0762.1236-.3534.1695c-.6466.1694-.9239.4926-1.8946,2.6792-.9687,2.1245-2.2168,5.0341-2.9238,6.728-.1094.2617-.1543.354-.2324.354-.1074,0-.168-.1079-.2617-.354-.3223-.9395-1.1993-2.8481-1.6465-3.8335-.0313-.062-.0781-.062-.1074-.0156-.586,1.1391-1.4024,2.9409-1.74,3.8335-.0918.2466-.1855.37-.2461.37-.0918,0-.123-.0923-.23-.37-.2012-.5078-.6778-1.6319-.8789-2.0938-.8458-1.9551-1.877-4.2339-2.6016-5.7427-.5547-1.2006-.6777-1.478-1.2617-1.5551-.1856-.0152-.3242-.0767-.3242-.1387C292.0645,57.5589,292.1719,57.4974,292.373,57.4974Z"/><path class="cls-1" d="M309.82,63.0862a.1819.1819,0,0,1-.1543.169c-.123-.0151-2.125-.0459-2.4785-.0459h-.832c-.0313,0-.1075.0771-.1387.123a2.1325,2.1325,0,0,0-.123.8467,2.7611,2.7611,0,0,0,.7089,1.8633,2.0762,2.0762,0,0,0,1.5391.6309,1.9651,1.9651,0,0,0,1.4629-.4927c.123-.1231.1836-.0923.1836-.0152a.58.58,0,0,1-.1524.2461,2.725,2.725,0,0,1-2.1406.97,2.4823,2.4823,0,0,1-1.832-.7852,3.0063,3.0063,0,0,1-.74-2.063,3.211,3.211,0,0,1,.8946-2.248,2.8582,2.8582,0,0,1,1.9238-.77A1.7776,1.7776,0,0,1,309.82,63.0862Zm-3.1406-.7851a1.3466,1.3466,0,0,0-.3242.6308.0667.0667,0,0,0,.0625.0616l2-.0152c.34,0,.3691-.1694.3691-.3081a.986.986,0,0,0-.2148-.6465,1.08,1.08,0,0,0-.77-.2924,1.5936,1.5936,0,0,0-1.122.57Z"/><path class="cls-1" d="M313.1016,62.116c0-.0459.06-.0766.1836-.1079a3.0446,3.0446,0,0,0,1.0468-.4619.45.45,0,0,1,.2305-.0923c.0469,0,.0781.0615.0781.1543,0,.169-.0156.6,0,.7544,0,.0615.0156.1382.0762.0923a3.24,3.24,0,0,1,1.91-.8931,1.5766,1.5766,0,0,1,1.539.97.1015.1015,0,0,0,.1074.0312,3.09,3.09,0,0,1,2.1094-1.0474,1.5852,1.5852,0,0,1,1.5547,1.14,5.019,5.019,0,0,1,.1855,1.4473c.0157.5078.0469,1.6782.0606,2.2168.0156.5083.1094.6157.4473.6777.2148.0459.2773.0923.2773.1382,0,.0771-.0781.1079-.2617.1079-.17,0-.709-.0308-1.0625-.0308-.3692,0-.709.0464-.94.0464-.1992,0-.3086-.0308-.3086-.0928,0-.0766.1387-.123.2618-.1538.4472-.0923.5234-.2309.5234-.6928a19.4137,19.4137,0,0,0-.1074-3.0484,1.1924,1.1924,0,0,0-1.2254-1.1586h0q-.0336.0009-.0674.0038a1.9223,1.9223,0,0,0-1.3086.57.76.76,0,0,0-.1074.4926c.0312.4312.0762,2.7866.1074,3.2022.0469.4311.0918.539.4766.6313.17.0615.248.0772.248.1387s-.0937.0923-.2617.0923c-.2773,0-.74-.0308-1.1855-.0308-.34,0-.709.0308-.879.0308-.1679,0-.246-.0308-.246-.0923,0-.0464.0781-.1079.2774-.1538.3241-.062.4765-.1387.4765-.5083l.0156-2.4634c0-.8467-.0762-1.2007-.3848-1.54a1.1731,1.1731,0,0,0-.9393-.3389,1.741,1.741,0,0,0-1.1543.4468.55.55,0,0,0-.1835.3691,9.3059,9.3059,0,0,0-.0625,1.0474c0,1.1391.0625,2.2168.0918,2.4941a.5255.5255,0,0,0,.4941.5078c.168.0308.2305.0772.2305.1231,0,.0771-.1231.1079-.2305.1079-.293,0-.8008-.0308-1.17-.0308-.4784,0-.8009.0308-1.0021.0308-.1386,0-.2773-.0464-.2773-.1079s.0937-.1075.3086-.1382c.4765-.1079.4765-.2774.5078-.4619.0625-.3238.0625-1.5708.0625-2.4634,0-.57.0137-.9546-.0156-1.2471a.5823.5823,0,0,0-.3555-.539c-.1073-.0616-.1387-.0923-.1387-.1695Z"/><path class="cls-1" d="M323.8652,61.9622a7.5934,7.5934,0,0,0,1.1075-.4.6266.6266,0,0,1,.2324-.1079c.0449,0,.0761.0464.06.2158-.0312.3077-.0312,1.2471-.0312,2.2325,0,1.2929,0,2.4326.0312,2.6943.0313.3076.1856.3848.4317.4463.1543.0307.23.0615.23.123,0,.0772-.123.1079-.2461.1079-.1386,0-.7089-.0615-1.125-.0615-.5078,0-.7539.0308-.9218.0308-.1094,0-.2168-.0308-.2168-.0923s.0781-.1079.2929-.1387c.3379-.0923.4766-.2153.4922-.8467.0157-.4619.0469-3.2641.0469-3.4179,0-.2158-.0156-.3081-.4473-.5391-.0761-.0459-.123-.0923-.123-.123C323.68,62.0394,323.7266,61.993,323.8652,61.9622Zm1.5391-2.51a.5858.5858,0,0,1-.57.5849.5477.5477,0,0,1-.5078-.5693.5711.5711,0,0,1,.539-.6006.5636.5636,0,0,1,.5388.5853Z"/><path class="cls-1" d="M327.7754,62.701c0,.647.5859,1.0161.9707,1.2471,1,.6469,1.4,1.0317,1.4,1.8169a1.58,1.58,0,0,1-.8008,1.2934,2.5548,2.5548,0,0,1-1.2305.3384,3.1441,3.1441,0,0,1-1.2168-.2769c-.123-.0464-.23-.1538-.23-.2465,0-.2154-.0313-.6-.0469-.77-.0313-.2.0156-.2466.0469-.2466.0468,0,.0918,0,.1992.2925a1.5058,1.5058,0,0,0,.6465.8316,1.1837,1.1837,0,0,0,.6933.1845,1.0558,1.0558,0,0,0,1.002-1.0312c0-.585-.4-.9087-1.0176-1.2935-.6621-.4311-1.2773-1-1.2773-1.6782a1.4577,1.4577,0,0,1,.5859-1.2163,1.9833,1.9833,0,0,1,1.293-.4312,3.7713,3.7713,0,0,1,1.0468.1695.2583.2583,0,0,1,.0762.1386c.0156.17.0781.4776.0918.7237,0,.1694-.0293.2466-.0762.2466-.0625,0-.0918-.0772-.1386-.1851a1.1685,1.1685,0,0,0-.3692-.6313,1.269,1.269,0,0,0-.7246-.231.8973.8973,0,0,0-.9252.8685A.8609.8609,0,0,0,327.7754,62.701Z"/><path class="cls-1" d="M332.1484,62.701c0,.647.586,1.0161.9707,1.2471,1,.6469,1.4,1.0317,1.4,1.8169a1.58,1.58,0,0,1-.8007,1.2934,2.5551,2.5551,0,0,1-1.23.3384,3.1441,3.1441,0,0,1-1.2168-.2769c-.1231-.0464-.2305-.1538-.2305-.2465,0-.2154-.0312-.6-.0469-.77-.0312-.2.0157-.2466.0469-.2466.0469,0,.0918,0,.1992.2925a1.507,1.507,0,0,0,.6465.8316,1.1843,1.1843,0,0,0,.6934.1845,1.0557,1.0557,0,0,0,1.0019-1.0312c0-.585-.4-.9087-1.0175-1.2935-.6622-.4311-1.2774-1-1.2774-1.6782a1.4581,1.4581,0,0,1,.5859-1.2163,1.984,1.984,0,0,1,1.293-.4312,3.772,3.772,0,0,1,1.0469.1695.2577.2577,0,0,1,.0762.1386c.0156.17.0781.4776.0918.7237,0,.1694-.0293.2466-.0762.2466-.0625,0-.0918-.0772-.1387-.1851a1.1684,1.1684,0,0,0-.3691-.6313,1.2685,1.2685,0,0,0-.7246-.231.8974.8974,0,0,0-.9249.869A.7476.7476,0,0,0,332.1484,62.701Z"/><path class="cls-1" d="M338.4023,66.6424a1.7315,1.7315,0,0,1-.1855-.8774V62.5779c0-.1694-.0156-.2768-.0762-.3081a2.5441,2.5441,0,0,0-.3691-.0922c-.1231-.0308-.2012-.0767-.2012-.1382,0-.0313.0156-.0772.1856-.1543a3.2807,3.2807,0,0,0,1.2617-1.0313c.1386-.1543.2461-.1235.2461-.0464,0,.1387-.0293.57-.0137.7544,0,.0464.0137.1387.0762.1387.2773,0,1.5547-.0464,1.8789-.0464.0293,0,.0918.1079.0918.2158,0,.2618-.0762.3848-.1543.3848-.5391,0-1.293-.0156-1.709-.0156-.1836,0-.2148.0464-.2148.1386,0,.2618.0156,2.6792.0312,3.1563a1.5691,1.5691,0,0,0,.168.8315,1.138,1.138,0,0,0,.955.4156,1.5087,1.5087,0,0,0,.8476-.231c.1073-.0771.1524-.0615.1524,0,0,.0923-.1387.2466-.3378.4a2.114,2.114,0,0,1-1.2482.4A1.4253,1.4253,0,0,1,338.4023,66.6424Z"/><path class="cls-1" d="M343.5449,62.6243a.7776.7776,0,0,0-.1543.5694,30.139,30.139,0,0,0,.0782,3.31.5417.5417,0,0,0,.4921.5234c.2305.0459.3379.0767.3379.1539,0,.0463-.0918.0922-.23.0922-.4317,0-.8321-.0615-1.2774-.0615-.4785,0-.7092.0615-1.0019.0615-.168,0-.2461-.0307-.2461-.0922s.0625-.0923.2461-.1387c.4472-.1079.5546-.1538.57-.7388.0468-.6162.0625-2.0322.0625-4.48,0-2.3247.0293-3.2641,0-3.8491-.0157-.4926-.1231-.5385-.4629-.7236-.0606-.0459-.1074-.0767-.1074-.1231s.0918-.0922.2617-.1386a6.3384,6.3384,0,0,0,1.123-.37.3427.3427,0,0,1,.1543-.0615c.0469,0,.0938.1079.0781.3238-.0156.4155-.0781,5.1884-.0626,5.4809,0,.0615.047.0767.0626.0459a5.0151,5.0151,0,0,1,.9237-.6313,2.4189,2.4189,0,0,1,1.0763-.2618,1.64,1.64,0,0,1,1.3866.6929,2.9725,2.9725,0,0,1,.3379,1.6475c.0156,1.1548.0156,2.1093.0312,2.6943,0,.3081.0625.416.5234.4927.2012.0464.2461.0771.2461.1387s-.1074.1079-.2461.1079c-.4,0-.6933-.0772-1.1074-.0772-.5234,0-.6484.0615-1.0019.0615-.1836,0-.2461-.0459-.2461-.0922,0-.0616.0763-.0923.23-.1231.4161-.0923.4472-.2.5079-.647.0311-.354.0625-1.0312.0625-2.6323a2.48,2.48,0,0,0-.2305-1.1548,1.1539,1.1539,0,0,0-1.0625-.57A1.8614,1.8614,0,0,0,343.5449,62.6243Z"/><path class="cls-1" d="M353.3848,63.0862a.18.18,0,0,1-.1543.169c-.1231-.0151-2.125-.0459-2.4785-.0459h-.83c-.0313,0-.1094.0771-.1387.123a2.1,2.1,0,0,0-.123.8467,2.76,2.76,0,0,0,.707,1.8633,2.0791,2.0791,0,0,0,1.539.6309,1.9613,1.9613,0,0,0,1.4629-.4927c.1231-.1231.1856-.0923.1856-.0152a.5893.5893,0,0,1-.1543.2461,2.72,2.72,0,0,1-2.1406.97,2.4891,2.4891,0,0,1-1.832-.7852,3.015,3.015,0,0,1-.7381-2.063,3.2083,3.2083,0,0,1,.8924-2.248,2.8667,2.8667,0,0,1,1.9238-.77A1.7762,1.7762,0,0,1,353.3848,63.0862Zm-3.1407-.7851a1.3405,1.3405,0,0,0-.3222.6308.0649.0649,0,0,0,.06.0616l2.002-.0152c.3379,0,.3691-.1694.3691-.3081a.9977.9977,0,0,0-.2148-.6465,1.0806,1.0806,0,0,0-.7715-.2924A1.5978,1.5978,0,0,0,350.2441,62.3011Z"/><path class="cls-1" d="M354.3105,62.116c0-.0459.0625-.0766.1856-.1079a3.0609,3.0609,0,0,0,1.0469-.4619.4434.4434,0,0,1,.23-.0923c.0469,0,.0762.0615.0762.1543,0,.169-.0156.6,0,.7544,0,.0615.0156.1382.0781.0923a3.2348,3.2348,0,0,1,1.9082-.8931,1.5751,1.5751,0,0,1,1.5391.97.1047.1047,0,0,0,.1094.0312,3.0855,3.0855,0,0,1,2.1094-1.0474,1.5885,1.5885,0,0,1,1.5546,1.14,5.0252,5.0252,0,0,1,.1836,1.4473c.0157.5078.0469,1.6782.0625,2.2168.0157.5083.1075.6157.4453.6777.2168.0459.2774.0923.2774.1382,0,.0771-.0762.1079-.2617.1079-.168,0-.7071-.0308-1.0625-.0308-.3692,0-.7071.0464-.9375.0464-.2012,0-.3086-.0308-.3086-.0928,0-.0766.1387-.123.2617-.1538.4473-.0923.5234-.2309.5234-.6928a19.659,19.659,0,0,0-.1074-3.0484,1.1924,1.1924,0,0,0-1.2254-1.1586h0q-.0339.0009-.0675.0038a1.9222,1.9222,0,0,0-1.3085.57.7444.7444,0,0,0-.1094.4926c.0312.4312.0781,2.7866.1094,3.2022.0451.4311.0917.539.4765.6313.17.0615.2461.0772.2461.1387s-.0918.0923-.2617.0923c-.2774,0-.7383-.0308-1.1856-.0308-.3378,0-.707.0308-.8769.0308s-.246-.0308-.246-.0923c0-.0464.0762-.1079.2774-.1538.3223-.062.4766-.1387.4766-.5083l.0155-2.4634c0-.8467-.078-1.2007-.3847-1.54a1.1793,1.1793,0,0,0-.94-.3389,1.7424,1.7424,0,0,0-1.1543.4468.5635.5635,0,0,0-.1854.3691,9.5177,9.5177,0,0,0-.06,1.0472c0,1.1391.0606,2.2168.0918,2.4941a.5253.5253,0,0,0,.4922.5078c.17.0308.2305.0772.2305.1231,0,.0771-.1231.1079-.2305.1079-.293,0-.8008-.0308-1.17-.0308-.4766,0-.8008.0308-1,.0308-.1387,0-.2774-.0464-.2774-.1079s.0918-.1075.3067-.1382c.4785-.1079.4785-.2774.51-.4619.0606-.3238.0606-1.5708.0606-2.4634,0-.57.0156-.9546-.0156-1.2471a.5809.5809,0,0,0-.3536-.539c-.1074-.0616-.1386-.0923-.1386-.1695Z"/><path class="cls-1" d="M299.8867,83.1194a3.4782,3.4782,0,0,1-2.3711,1.0616,4.751,4.751,0,0,1-1.7715-.3848c-.1074-.0615-.2148-.03-.4472.0469-.0449.0146-.0918-.0615-.0762-.1084a13.51,13.51,0,0,0,.0918-1.4c.0313-.7549.1094-4.1572.1094-5.0659,0-1.1084-.0313-2.3863-.0469-2.6328-.0312-.3077-.0918-.3692-.416-.585-.1231-.0767-.1856-.123-.1856-.1694s.0782-.1075.3086-.1382a5.3681,5.3681,0,0,0,1.0938-.3081.5648.5648,0,0,1,.2461-.0615c.0312,0,.06.0615.0469.2768-.0469.9238-.0782,3.1255-.0782,5.1577,0,.0772.0625.0928.0782.0772a2.7472,2.7472,0,0,1,1.6464-.5235,2.52,2.52,0,0,1,1.8477.8316,2.77,2.77,0,0,1,.6933,1.8471A2.8922,2.8922,0,0,1,299.8867,83.1194Zm-.8945-3.5415a2.2142,2.2142,0,0,0-1.57-.7544,1.5264,1.5264,0,0,0-.9239.2618.6447.6447,0,0,0-.1386.4155c-.0293.2466-.0156,1.4473-.0156,2.0483a5.1886,5.1886,0,0,0,.2167,1.6465,1.08,1.08,0,0,0,.4161.3858,2.1169,2.1169,0,0,0,1.0312.292A1.5361,1.5361,0,0,0,299.07,83.32a3.3024,3.3024,0,0,0,.5391-1.9091A3.0523,3.0523,0,0,0,298.9922,79.5779Z"/><path class="cls-1" d="M306.3691,79.886a.18.18,0,0,1-.1543.169c-.123-.0151-2.125-.0459-2.4785-.0459h-.83c-.0311,0-.1093.0771-.1386.123a2.0967,2.0967,0,0,0-.1231.8467,2.7591,2.7591,0,0,0,.7071,1.8633,2.0791,2.0791,0,0,0,1.539.6309,1.9652,1.9652,0,0,0,1.4629-.4922c.1231-.1231.1856-.0928.1856-.0157a.5893.5893,0,0,1-.1543.2461,2.719,2.719,0,0,1-2.1407.97,2.4871,2.4871,0,0,1-1.832-.7852,3.0128,3.0128,0,0,1-.7383-2.0625,3.2094,3.2094,0,0,1,.8926-2.248,2.8667,2.8667,0,0,1,1.9238-.77A1.7763,1.7763,0,0,1,306.3691,79.886Zm-3.1406-.7851a1.34,1.34,0,0,0-.3223.6309.0649.0649,0,0,0,.0606.0615l2.002-.0152c.3378,0,.3692-.1694.3692-.3081a.9974.9974,0,0,0-.215-.6465,1.08,1.08,0,0,0-.7713-.2924,1.598,1.598,0,0,0-1.1232.57Z"/><path class="cls-1" d="M307.8945,83.4427a1.7369,1.7369,0,0,1-.1836-.8779V79.3777c0-.1694-.0156-.2768-.0781-.3081a2.4932,2.4932,0,0,0-.3691-.0922c-.1231-.0308-.1992-.0767-.1992-.1382,0-.0313.0156-.0772.1835-.1543a3.2825,3.2825,0,0,0,1.2637-1.0313c.1387-.1543.2461-.1235.2461-.0464,0,.1387-.0312.57-.0156.7544,0,.0464.0156.1387.0762.1387.2773,0,1.5566-.0464,1.8789-.0464.0312,0,.0918.1079.0918.2158,0,.2618-.0762.3848-.1524.3848-.539,0-1.2949-.0156-1.709-.0156-.1855,0-.2168.0464-.2168.1387,0,.2617.0157,2.6792.0313,3.1567a1.5858,1.5858,0,0,0,.17.831,1.1389,1.1389,0,0,0,.9531.4161,1.503,1.503,0,0,0,.8477-.2315c.1074-.0771.1543-.0615.1543,0,0,.0928-.1387.2461-.34.4a2.1073,2.1073,0,0,1-1.2461.4A1.429,1.429,0,0,1,307.8945,83.4427Z"/><path class="cls-1" d="M313.3613,78.47c.1387,0,.2617.0308.2617.1075,0,.0464-.1523.1079-.2617.1235-.3691.0615-.3535.2-.291.4463.2305.7085.8926,2.4639,1.2461,3.3252.0156.0469.0781.0615.0918.0156.248-.5234.9238-2.0166,1.0781-2.417.0157-.0771.0625-.1846.0313-.2617-.0762-.2-.1856-.4463-.2617-.6313a.8191.8191,0,0,0-.586-.5079c-.1387-.0307-.2148-.0615-.2148-.1235s.0761-.0923.23-.0923c.3243,0,.7247.0464,1.0469.0464.4473,0,.6328-.0308.9082-.0308.17,0,.2324.0308.2324.0767,0,.062-.1074.1235-.2324.1543-.3535.0767-.4453.1387-.2617.6157.17.4771.9863,2.71,1.2012,3.187.0469.0772.0781.0157.0781,0,.1836-.4.9238-2.1552,1.1074-2.6787a3.5014,3.5014,0,0,0,.2461-.7392c0-.1387-.06-.2774-.4609-.3848-.2012-.0615-.2461-.1079-.2461-.1543,0-.0615.0918-.0923.1992-.0923.2617,0,.5391.0464.7852.0464.1543,0,.539-.0464.7695-.0464.1387,0,.2168.0308.2168.0923s-.0469.0928-.2774.1543c-.2773.0767-.4628.2925-.6621.708-.2773.5542-.7382,1.6167-1.2168,2.71-.2617.6308-.539,1.3086-.7226,1.8008-.0938.247-.1543.2929-.2012.2929-.06,0-.1074-.0615-.168-.2773-.0781-.2158-.1855-.5235-.3711-1.0469-.291-.8311-.6152-1.709-.9238-2.5249-.0156-.0464-.0449-.0772-.0762,0-.1386.2925-.7851,1.7095-1,2.2476-.2324.5087-.371.8623-.539,1.3086-.0781.2158-.1543.2929-.2168.2929-.0606,0-.1074-.1074-.1543-.2773-.0762-.2158-.168-.585-.43-1.3242-.2773-.7539-1.1543-3.0328-1.3242-3.3252a.8786.8786,0,0,0-.6777-.6006c-.1231-.0308-.2149-.0767-.2149-.1231,0-.0923.1074-.123.2774-.123.1992,0,.66.0615,1.0918.0615C312.7461,78.5,313.0547,78.47,313.3613,78.47Z"/><path class="cls-1" d="M325.0508,79.886a.1819.1819,0,0,1-.1543.169c-.1231-.0151-2.125-.0459-2.4785-.0459h-.8321c-.0312,0-.1074.0771-.1386.123a2.1326,2.1326,0,0,0-.1231.8467,2.7611,2.7611,0,0,0,.709,1.8633,2.0762,2.0762,0,0,0,1.5391.6309,1.9685,1.9685,0,0,0,1.4629-.4922c.123-.1231.1836-.0928.1836-.0157a.58.58,0,0,1-.1524.2461,2.7242,2.7242,0,0,1-2.1406.97,2.48,2.48,0,0,1-1.832-.7852,3.0044,3.0044,0,0,1-.74-2.0625,3.2116,3.2116,0,0,1,.8945-2.248,2.86,2.86,0,0,1,1.9239-.77A1.7776,1.7776,0,0,1,325.0508,79.886Zm-3.1406-.7851a1.3476,1.3476,0,0,0-.3243.6309.0668.0668,0,0,0,.0625.0615l2-.0152c.34,0,.3692-.1694.3692-.3081a.9856.9856,0,0,0-.2149-.6465,1.0793,1.0793,0,0,0-.7695-.2924,1.594,1.594,0,0,0-1.1232.57Z"/><path class="cls-1" d="M330.6094,79.886a.1821.1821,0,0,1-.1543.169c-.1231-.0151-2.125-.0459-2.4785-.0459h-.8321c-.0312,0-.1074.0771-.1386.123a2.1326,2.1326,0,0,0-.1231.8467,2.7611,2.7611,0,0,0,.709,1.8633,2.0762,2.0762,0,0,0,1.5391.6309,1.9685,1.9685,0,0,0,1.4629-.4922c.123-.1231.1835-.0928.1835-.0157a.5786.5786,0,0,1-.1523.2461,2.7242,2.7242,0,0,1-2.1406.97,2.4807,2.4807,0,0,1-1.8321-.7852,3.0051,3.0051,0,0,1-.74-2.0625,3.2116,3.2116,0,0,1,.8945-2.248,2.86,2.86,0,0,1,1.9239-.77A1.7774,1.7774,0,0,1,330.6094,79.886Zm-3.1406-.7851a1.3476,1.3476,0,0,0-.3243.6309.0668.0668,0,0,0,.0625.0615l2-.0152c.34,0,.3692-.1694.3692-.3081a.9868.9868,0,0,0-.2149-.6465,1.0792,1.0792,0,0,0-.77-.2924A1.5941,1.5941,0,0,0,327.4688,79.1009Z"/><path class="cls-1" d="M336.3223,78.8392a3.2175,3.2175,0,0,1,.4922,2.0166c0,.8164.0156.9394.0156,1.709.0156,1.0468.0625,1.14.4785,1.247.1387.0616.2305.0928.2305.1543,0,.0918-.1231.1074-.2774.1074-.2012,0-.6466-.0615-.9863-.0615-.5234,0-.7227.0615-.9531.0615-.1387,0-.2461-.03-.2461-.0927s.0918-.1231.291-.169c.3711-.0927.4316-.2.4316-.6465V81.0716c0-1.2471-.1074-1.6167-.4922-1.9092a1.3655,1.3655,0,0,0-.8769-.2925,1.8419,1.8419,0,0,0-1.2012.4927.7865.7865,0,0,0-.1855.4619c0,.1846.0156.97.0156,1.8936a12.5979,12.5979,0,0,0,.0918,1.6162c.0469.3389.2305.416.4785.4932.1836.0459.2617.0771.2617.1533,0,.0927-.1543.0927-.3086.0927-.123,0-.8769-.0615-1.2324-.0615-.1992,0-.5234.0313-.8144.0313-.17,0-.293-.0313-.293-.1084,0-.0615.1387-.1231.3223-.1533.3847-.0772.4472-.1856.4628-.4932.0313-1.1084.0313-2.5249.0313-3.772,0-.1538-.0313-.3232-.4-.5234-.0937-.0615-.123-.0923-.123-.1387,0-.0308.0761-.0771.2148-.123a5.8068,5.8068,0,0,0,1.2168-.5235c.0449-.0156.123.0459.1074.1231a6.86,6.86,0,0,0-.0312.8159c0,.0308.0468.0771.0761.0464a5.3811,5.3811,0,0,1,1.0938-.6929,2.0794,2.0794,0,0,1,.9083-.1851A1.5708,1.5708,0,0,1,336.3223,78.8392Z"/><path class="cls-1" d="M345.9473,76.7449a1.847,1.847,0,0,1-.7539,1.4629c-.2774.2154-.5391.3848-.8633.6157-.0293.0157-.0293.0464,0,.0772a3.5376,3.5376,0,0,1,1.7246,2.71,2.4582,2.4582,0,0,1-1.0781,2.0468,2.8357,2.8357,0,0,1-1.6153.5547,2.3961,2.3961,0,0,1-2.6238-2.1444v0q-.006-.06-.009-.1192a2.1311,2.1311,0,0,1,1-1.7241c.2149-.1694.4766-.3076.709-.477a.0535.0535,0,0,0,.0156-.0923,3.82,3.82,0,0,1-1.6172-2.6177,2.2244,2.2244,0,0,1,1.0625-1.9551,2.8349,2.8349,0,0,1,1.5547-.4619,2.2194,2.2194,0,0,1,2.4783,1.926Q345.9439,76.6453,345.9473,76.7449ZM344.2539,83.75a1.4654,1.4654,0,0,0,.5547-1.2783c0-.9854-1.002-1.8623-2.002-2.6016a.1113.1113,0,0,0-.1386.0156,2.2088,2.2088,0,0,0-.8008,1.8477,2.14,2.14,0,0,0,1.6621,2.2471A1.1642,1.1642,0,0,0,344.2539,83.75Zm-2.1719-7.39c0,.8159.9864,1.6933,1.9571,2.3247a.0816.0816,0,0,0,.1074-.0152,2.6243,2.6243,0,0,0,.6777-1.8325c0-.6924-.4785-2.0014-1.5566-2.0014A1.4227,1.4227,0,0,0,342.082,76.36Z"/><path class="cls-1" d="M349.998,83.4573a1.9162,1.9162,0,0,1-.1855-.9541V79.347c0-.1231-.0137-.2-.1074-.2617a1.0164,1.0164,0,0,0-.2461-.0923c-.1231-.0308-.1992-.0772-.1992-.1538,0-.0464.0761-.1236.2461-.2158a5.0981,5.0981,0,0,0,1.4472-1.0933c.2305-.231.3379-.1694.3379-.0923,0,.1079-.0312.7544-.0156.8774,0,.0464.0156.1543.0781.1543.293-.0156,1.3242-.0463,1.57-.0307.0313,0,.1231.1074.1231.2768,0,.3389-.1074.354-.17.354h-1.3555c-.1836,0-.2149.0621-.2149.1387,0,.3389-.0156,2.8018,0,3.2022a1.1036,1.1036,0,0,0,.17.7089.9518.9518,0,0,0,.7382.3379,1.2451,1.2451,0,0,0,.709-.1845c.1543-.0918.1992-.0459.1992,0,0,.0927-.0761.2158-.3222.416a2.122,2.122,0,0,1-1.3867.4619A1.51,1.51,0,0,1,349.998,83.4573Z"/><path class="cls-1" d="M359.6211,81.179a3.082,3.082,0,0,1-1.1992,2.417,3.2639,3.2639,0,0,1-1.8477.6006,2.9777,2.9777,0,0,1-3.0935-2.8569q-.0016-.0416-.0022-.0831a2.827,2.827,0,0,1,1.0938-2.2788,3.1367,3.1367,0,0,1,1.9707-.7081,2.92,2.92,0,0,1,3.0738,2.7576Q359.621,81.1032,359.6211,81.179Zm-4.51-.3384a4.6175,4.6175,0,0,0,.4766,2.2632,1.49,1.49,0,0,0,1.17.8467.9141.9141,0,0,0,.709-.3545,3.6452,3.6452,0,0,0,.5078-2.0937c0-1.7549-.4922-2.9712-1.57-2.9712-.6623,0-1.2932.97-1.2932,2.31Z"/><path class="cls-1" d="M364.2285,75.3133a9.4838,9.4838,0,0,0,1.9551-.4,1.636,1.636,0,0,1,.3379-.1079c.0312,0,.0625.0156.0625.1079,0,.2-.0156,1.57-.0469,2.5713-.0156,1.293.0156,4.5259.0469,5.188.0449.9551.123,1.0469.7695,1.1553.17.03.2461.0918.2461.1533s-.0918.1084-.293.1084c-.7851,0-1.2617-.0772-1.8007-.0772-.7539,0-1.0469.0772-1.586.0772-.1387,0-.2617-.0313-.2617-.1231,0-.0615.0918-.0927.2461-.123.7246-.124.8633-.2617.8926-1.1709.0469-.4766.0781-1.3086.0781-3.9409,0-1.8628-.0156-2.3711-.0469-2.7559a.3757.3757,0,0,0-.1992-.3389,2.3882,2.3882,0,0,0-.3867-.0922c-.0918-.0157-.2305-.0616-.2305-.1231C364.0117,75.3748,364.1055,75.3284,364.2285,75.3133Z"/><path class="cls-1" d="M370.8809,75.3133a9.4842,9.4842,0,0,0,1.955-.4,1.6341,1.6341,0,0,1,.3379-.1079c.0313,0,.0625.0156.0625.1079,0,.2-.0156,1.57-.0468,2.5713-.0157,1.293.0155,4.5259.0468,5.188.0449.9551.1231,1.0469.77,1.1553.17.03.246.0918.246.1533s-.0917.1084-.2929.1084c-.7852,0-1.2617-.0772-1.801-.0772-.7539,0-1.0469.0772-1.5859.0772-.1387,0-.2618-.0313-.2618-.1231,0-.0615.0918-.0927.2461-.123.7246-.124.8633-.2617.8926-1.1709.0469-.4766.0781-1.3086.0781-3.9409,0-1.8628-.0156-2.3711-.0468-2.7559a.3761.3761,0,0,0-.1993-.3389,2.3882,2.3882,0,0,0-.3867-.0922c-.0918-.0157-.23-.0616-.23-.1231C370.6641,75.3748,370.7578,75.3284,370.8809,75.3133Z"/><path class="cls-1" d="M296.9141,96.054a.5422.5422,0,0,0-.1543.4c-.0157,1.4941.0312,3.0791.0781,3.6025.0449.293.123.4932.4922.57.17.03.2773.0771.2773.1386,0,.0459-.0918.1231-.2773.1231-.4473,0-1.0625-.0772-1.3242-.0772-.6621,0-.8614.0616-1.2325.0616-.1679,0-.2754-.0459-.2754-.1075s.0606-.1084.2461-.1543c.43-.0927.4922-.2.5079-.6923.0312-.5391.0449-2.002.0449-4.1114,0-2.3095.0156-3.4179-.0137-3.9258-.0312-.4931-.0781-.5234-.4629-.708-.06-.0468-.1074-.0927-.1074-.1386,0-.0616.0918-.1084.2617-.1543a11.3133,11.3133,0,0,0,1.5859-.4922.7337.7337,0,0,1,.1993-.0615c.0468,0,.0937.0459.0937.2919,0,.2315-.0937,4.9424-.0781,5.1729,0,.0312.0469.0771.0781.0469a4.0057,4.0057,0,0,1,.83-.5391,2.1773,2.1773,0,0,1,.9394-.2314,1.7117,1.7117,0,0,1,1.4473.6621,2.6386,2.6386,0,0,1,.3848,1.6172c.0156,1.0312.0156,1.9707.0311,2.7558,0,.2617.047.4463.461.5235.2012.0459.2616.0771.2616.1533s-.168.1084-.2616.1084c-.461,0-.6466-.0772-1.2461-.0772-.77,0-.8009.0616-1.2774.0616-.1854,0-.246-.0616-.246-.1075,0-.0615.0762-.0927.2305-.123.4453-.124.4609-.2617.5078-.77.0313-.3535.0606-1.1543.0606-2.417a3.1207,3.1207,0,0,0-.1993-1.2471.9979.9979,0,0,0-.9394-.5078A1.42,1.42,0,0,0,296.9141,96.054Z"/><path class="cls-1" d="M308.0176,97.9788a3.0822,3.0822,0,0,1-1.2012,2.417,3.2536,3.2536,0,0,1-1.8476.6006,2.976,2.976,0,0,1-3.0916-2.8555q-.0018-.0422-.0022-.0845a2.83,2.83,0,0,1,1.0918-2.2784,3.1324,3.1324,0,0,1,1.9707-.7089,2.9222,2.9222,0,0,1,3.0758,2.76Q308.0175,97.904,308.0176,97.9788Zm-4.5117-.3388a4.5987,4.5987,0,0,0,.4785,2.2636,1.4867,1.4867,0,0,0,1.17.8467.907.907,0,0,0,.707-.3545,3.6288,3.6288,0,0,0,.5078-2.0937c0-1.7549-.4921-2.9717-1.57-2.9717-.6625,0-1.2933.9707-1.2933,2.31Z"/><path class="cls-1" d="M309.666,100.3958a1.6633,1.6633,0,0,1-.3066-1.0771c-.0156-.5088-.0313-2.9561-.0469-3.2334-.0156-.3077-.1074-.3848-.3535-.5235-.1231-.0771-.17-.1386-.17-.1845s.0918-.0772.23-.0772a8.2209,8.2209,0,0,0,1.7871-.2c.0606-.0156.0918.0928.0918.169-.0468.8779-.0625,2.7871-.0468,3.7109a1.62,1.62,0,0,0,.2011.94,1.0172,1.0172,0,0,0,.8164.3378,1.1964,1.1964,0,0,0,.8457-.3076.7516.7516,0,0,0,.2012-.5849c.0293-.4922.0449-1.2627.0449-1.6475,0-.23,0-1.0928-.0293-1.4932-.0468-.5234-.1093-.6-.5546-.6777-.1856-.03-.2774-.0918-.2774-.1387,0-.0771.1543-.1074.2617-.1074h.8008c.5547,0,1.0469-.1387,1.2461-.1387.0469,0,.0781.0772.0781.169-.0625.5547-.0781,2.5869-.0781,3.9111a6.052,6.052,0,0,0,.0313.9238.17.17,0,0,0,.1851.1534h0c.1523-.03.3848-.0918.5234-.1075a.2133.2133,0,0,1,.1993.2c0,.0772-.1836.1075-.3379.1387a9.393,9.393,0,0,0-1.8789.4463c-.1231.0459-.1856.0312-.2149,0a.5586.5586,0,0,1-.0312-.2461c0-.1543.0156-.4316.0156-.585,0-.0771-.0156-.123-.0469-.0927a3.9587,3.9587,0,0,1-.9551.6621,2.4785,2.4785,0,0,1-1.0156.2158A1.47,1.47,0,0,1,309.666,100.3958Z"/><path class="cls-1" d="M317.9961,96.3314a.6427.6427,0,0,0-.168.3545,10.0011,10.0011,0,0,0-.0312,1.1855c0,1.0928.0312,1.7393.0625,2.0937.06.462.1679.5694.7383.6465.2148.0313.2773.0772.2773.1543s-.123.1075-.3242.1075c-.43,0-.707-.0616-1.4473-.0616-.9238,0-.9082.0772-1.2773.0772-.1992,0-.293-.0459-.293-.1084s.0625-.1377.23-.169c.3555-.0771.4785-.2.5235-.6308.0155-.2617.0314-1.14.0469-2.1563,0-.97.0156-1.37,0-1.5547,0-.0918-.0469-.123-.4-.4306-.0918-.0772-.1232-.1084-.1232-.1543s.1076-.1074.17-.1387a7.8719,7.8719,0,0,0,1.4784-.5078.5151.5151,0,0,1,.2616-.0928c.0293,0,.0762.0928.0762.17,0,.2774-.0313.708-.0313,1.0469,0,.0772.0625.0918.0782.0459.43-.5693.9843-1.124,1.5859-1.124a.8627.8627,0,0,1,.5078.1543c.1543.1074.2149.1846.2149.3076a1.5732,1.5732,0,0,1-.461.7393c-.1543.1543-.2323.1845-.3085.1845a.4355.4355,0,0,1-.2616-.1074,1.2567,1.2567,0,0,0-.6016-.2471A.7261.7261,0,0,0,317.9961,96.3314Z"/><path class="cls-1" d="M321.8477,96.1468c0,.6006.5234.8926,1.1543,1.293.9687.6464,1.34,1.0468,1.34,1.832a1.7182,1.7182,0,0,1-.709,1.2939,3.0117,3.0117,0,0,1-1.5078.4307,4.2419,4.2419,0,0,1-1.34-.2617c-.1076-.0459-.2619-.1846-.2619-.292-.0155-.2158-.0625-.6934-.078-.8467-.0156-.2.0155-.3086.078-.3086.0451,0,.1076.0469.1994.3233a1.9325,1.9325,0,0,0,.6463.9238,1.1451,1.1451,0,0,0,.77.2.9217.9217,0,0,0,.9238-.8623c0-.4463-.3223-.77-1.1073-1.2617a2.2891,2.2891,0,0,1-1.2482-1.8018,1.5823,1.5823,0,0,1,.7559-1.37,2.3079,2.3079,0,0,1,1.3086-.37,3.55,3.55,0,0,1,1.1992.2.2044.2044,0,0,1,.0938.1543c0,.1543.06.4306.0761.831.0156.17-.0312.2471-.0918.2471-.0625,0-.0918-.0772-.1386-.2a1.4071,1.4071,0,0,0-.3848-.709,1.2919,1.2919,0,0,0-.8008-.2764A.8858.8858,0,0,0,321.8477,96.1468Z"/><path class="cls-1" d="M332.2422,96.6859a.1815.1815,0,0,1-.1543.1689c-.1231-.0156-2.125-.0459-2.4785-.0459h-.8321c-.0312,0-.1074.0771-.1386.123a2.1326,2.1326,0,0,0-.1231.8467,2.76,2.76,0,0,0,.709,1.8633,2.0762,2.0762,0,0,0,1.5391.6309,1.9685,1.9685,0,0,0,1.4629-.4922c.123-.1231.1836-.0928.1836-.0156a.5794.5794,0,0,1-.1524.246,2.7242,2.7242,0,0,1-2.1406.97,2.48,2.48,0,0,1-1.832-.7852,3.004,3.004,0,0,1-.74-2.0625,3.211,3.211,0,0,1,.8946-2.248,2.8582,2.8582,0,0,1,1.9238-.77A1.7771,1.7771,0,0,1,332.2422,96.6859Zm-3.1406-.7852a1.3453,1.3453,0,0,0-.3243.6309.0664.0664,0,0,0,.0625.0615l2-.0156c.34,0,.3692-.169.3692-.3077a.9864.9864,0,0,0-.2149-.6464,1.0772,1.0772,0,0,0-.7695-.293A1.594,1.594,0,0,0,329.1016,95.9007Z"/><path class="cls-1" d="M334.9219,95.2542c.1543,0,.23.03.23.0918s-.0918.1084-.2148.1387c-.4.1074-.4316.2-.3086.6621.1387.4775,1.0625,2.8633,1.2617,3.2334.0156.0615.0469.0771.0625.03.1992-.3692,1.0625-2.417,1.2461-2.9707a2.1232,2.1232,0,0,0,.17-.6319c0-.0918-.0918-.2617-.5078-.3535-.123-.0312-.1855-.0771-.1855-.1387,0-.0468.0625-.0615.1855-.0615.1856,0,.416.0459.7539.0459.2461,0,.6465-.0459.7852-.0459.1074,0,.2168.03.2168.0918s-.0938.0928-.2324.1387c-.3067.0771-.4766.2617-.6621.6933-.3536.77-1.1387,2.4942-1.293,2.8633a16.5031,16.5031,0,0,0-.7383,1.7246c-.0781.23-.1387.2617-.1855.2617-.045,0-.1075-.0156-.168-.2314-.0781-.23-.1856-.6006-.4-1.1855-.2773-.7081-1.1855-3.1094-1.4473-3.6026a.9146.9146,0,0,0-.6933-.539c-.1387-.03-.2149-.0762-.2149-.1231,0-.0615.0762-.1074.2618-.1074.43,0,.6914.0615,1.1542.0615C334.4141,95.3,334.6758,95.2542,334.9219,95.2542Z"/><path class="cls-1" d="M343.5137,96.6859a.18.18,0,0,1-.1543.1689c-.1231-.0156-2.125-.0459-2.4785-.0459h-.83c-.0313,0-.1094.0771-.1387.123a2.1018,2.1018,0,0,0-.123.8467,2.76,2.76,0,0,0,.707,1.8633,2.0794,2.0794,0,0,0,1.5391.6309,1.9648,1.9648,0,0,0,1.4628-.4922c.1231-.1231.1856-.0928.1856-.0156a.5873.5873,0,0,1-.1543.246,2.7181,2.7181,0,0,1-2.1405.97,2.4871,2.4871,0,0,1-1.832-.7852,3.0117,3.0117,0,0,1-.7382-2.0625,3.2084,3.2084,0,0,1,.8925-2.248,2.8663,2.8663,0,0,1,1.9237-.77A1.7759,1.7759,0,0,1,343.5137,96.6859Zm-3.1407-.7852a1.3363,1.3363,0,0,0-.3222.6309.0647.0647,0,0,0,.0605.0615l2.002-.0156c.3379,0,.3691-.169.3691-.3077a.9975.9975,0,0,0-.2148-.6464,1.0783,1.0783,0,0,0-.7715-.293,1.5979,1.5979,0,0,0-1.1231.57Z"/><path class="cls-1" d="M346.24,96.24a.88.88,0,0,0-.2617.538,8.7643,8.7643,0,0,0-.0156.9395c0,1.14.0312,1.94.06,2.2637.0625.4765.2481.5849.8321.6465.2148.03.2929.0615.2929.1386s-.1386.1075-.3691.1075c-.293,0-.8008-.0616-1.4473-.0616a8.2643,8.2643,0,0,0-.9394.0928c-.1856,0-.2617-.0312-.2617-.0928,0-.0459.1074-.123.23-.1543a.6353.6353,0,0,0,.5547-.6308c.0313-.2617.0469-1.14.0469-2.1553v-1.709c0-.1084-.1094-.1543-.4-.4-.1094-.0771-.123-.123-.123-.1543s.0917-.0918.23-.1386a4.6356,4.6356,0,0,0,.9844-.3692.4887.4887,0,0,1,.2324-.0771c.0292,0,.0606.0615.0606.2158,0,.1689-.0157.7539-.0157,1.001,0,.0459.0313.0615.0782.0146a2.5127,2.5127,0,0,1,1.6621-1.1084.897.897,0,0,1,.539.2.2711.2711,0,0,1,.1075.2158,1.0593,1.0593,0,0,1-.3379.5235c-.1387.123-.2012.1386-.2481.1386a.69.69,0,0,1-.2754-.1084,1.0874,1.0874,0,0,0-.539-.1845A1.0442,1.0442,0,0,0,346.24,96.24Z"/><path class="cls-1" d="M350.9844,95.2542c.1523,0,.2617.0459.2617.1074s-.1094.1075-.2012.1231c-.3379.1074-.3691.1846-.23.5849.1992.5391,1.0468,2.6172,1.3554,3.2647.0293.0615.0762.0459.0918,0,.1992-.5244,1.0625-2.7412,1.1856-3.0947a1.1715,1.1715,0,0,0,.0761-.4473c0-.1074-.0761-.23-.3379-.3076-.23-.0459-.2773-.0918-.2773-.1387,0-.0615.0762-.0918.2148-.0918.1856,0,.5079.0459.74.0459.2773,0,.4765-.0459.707-.0459.0938,0,.1856.0147.1856.0615s-.0625.1075-.2149.1534c-.3086.0927-.4629.2-.709.77-.1855.3847-1.1386,2.7558-1.3711,3.3408-.1836.5078-.3222.8623-.6464,1.6933-.3692.8926-.9532,2.4942-1.17,3.0176a2.07,2.07,0,0,1-.2929.5694.5764.5764,0,0,1-.5078.2617.5117.5117,0,0,1-.5079-.5078.4553.4553,0,0,1,.4317-.4463c.1074,0,.1992.03.3086.03a.37.37,0,0,0,.3984-.2617c.1543-.3232.6016-1.5849,1.125-2.9248a.6633.6633,0,0,0-.0156-.4931c-.0918-.2461-1.2168-3.0938-1.9082-4.6026a.8285.8285,0,0,0-.5547-.416c-.1856-.0459-.2773-.1074-.2773-.1543,0-.0771.1386-.1074.246-.1074.2774,0,.709.0615,1.0782.0615C350.3828,95.3,350.7832,95.2542,350.9844,95.2542Z"/><path class="cls-1" d="M358.82,95.2689c.1387,0,.2617.0312.2617.1084,0,.0459-.1523.1074-.2617.123-.3691.0615-.3535.2-.291.4463.2305.708.8926,2.4639,1.2461,3.3252.0156.0469.0781.0625.0918.0156.248-.5234.9238-2.0166,1.0781-2.417.0156-.0771.0625-.1845.0313-.2617-.0762-.2-.1856-.4463-.2618-.6309a.8208.8208,0,0,0-.5859-.5087c-.1387-.03-.2148-.0616-.2148-.1231s.0761-.0918.23-.0918c.3243,0,.7246.0459,1.0469.0459.4473,0,.6328-.0312.9082-.0312.17,0,.2324.0312.2324.0771,0,.0615-.1074.1231-.2324.1543-.3535.0772-.4453.1387-.2617.6152.17.4776.9863,2.71,1.2012,3.1875.0468.0772.0781.0157.0781,0,.1836-.4.9238-2.1552,1.1074-2.6787a3.52,3.52,0,0,0,.2461-.7392c0-.1387-.0605-.2774-.4609-.3848-.2012-.0615-.2461-.1074-.2461-.1543,0-.0615.0918-.0918.1992-.0918.2617,0,.5391.0459.7851.0459.1543,0,.5391-.0459.77-.0459.1386,0,.2168.03.2168.0918s-.0469.0928-.2774.1543c-.2773.0772-.4629.292-.6621.708-.2774.5547-.7384,1.6162-1.2168,2.71-.2617.6308-.539,1.3086-.7226,1.8008-.0938.247-.1543.2929-.2012.2929-.06,0-.1074-.0615-.168-.2773-.0781-.2158-.1855-.5235-.3711-1.0469-.291-.831-.6152-1.709-.9238-2.5244-.0156-.0469-.0449-.0772-.0762,0-.1386.292-.7851,1.709-1,2.2471-.2324.5088-.3711.8623-.539,1.3086-.0782.2158-.1543.2929-.2168.2929-.0606,0-.1074-.1074-.1543-.2773-.0762-.2158-.168-.585-.43-1.3242-.2774-.7539-1.1543-3.0332-1.3242-3.3252a.8789.8789,0,0,0-.6778-.6006c-.123-.03-.2148-.0772-.2148-.1231,0-.0927.1074-.123.2773-.123.1993,0,.66.0615,1.0918.0615C358.2051,95.3,358.5137,95.2689,358.82,95.2689Z"/><path class="cls-1" d="M370.51,96.6859a.1815.1815,0,0,1-.1543.1689c-.1231-.0156-2.125-.0459-2.4785-.0459h-.8321c-.0312,0-.1074.0771-.1387.123a2.1361,2.1361,0,0,0-.123.8467,2.76,2.76,0,0,0,.7092,1.8633,2.0757,2.0757,0,0,0,1.539.6309,1.9682,1.9682,0,0,0,1.4628-.4922c.1232-.1231.1835-.0928.1835-.0156a.5782.5782,0,0,1-.1523.246,2.7242,2.7242,0,0,1-2.1406.97,2.4811,2.4811,0,0,1-1.8321-.7852,3.0039,3.0039,0,0,1-.74-2.0625,3.21,3.21,0,0,1,.8945-2.248,2.858,2.858,0,0,1,1.9238-.77A1.7772,1.7772,0,0,1,370.51,96.6859Zm-3.1407-.7852a1.346,1.346,0,0,0-.3242.6309.0664.0664,0,0,0,.0625.0615l2-.0156c.34,0,.3692-.169.3692-.3077a.9853.9853,0,0,0-.2149-.6464,1.0769,1.0769,0,0,0-.77-.293,1.5945,1.5945,0,0,0-1.1232.57Z"/><path class="cls-1" d="M376.0684,96.6859a.18.18,0,0,1-.1543.1689c-.1231-.0156-2.125-.0459-2.4786-.0459h-.83c-.0313,0-.1094.0771-.1387.123a2.0983,2.0983,0,0,0-.123.8467,2.759,2.759,0,0,0,.707,1.8633,2.0791,2.0791,0,0,0,1.539.6309,1.9652,1.9652,0,0,0,1.4629-.4922c.1231-.1231.1856-.0928.1856-.0156a.589.589,0,0,1-.1543.246,2.7185,2.7185,0,0,1-2.1406.97,2.4875,2.4875,0,0,1-1.8321-.7852,3.0128,3.0128,0,0,1-.7383-2.0625,3.2085,3.2085,0,0,1,.8926-2.248,2.8667,2.8667,0,0,1,1.9239-.77A1.776,1.776,0,0,1,376.0684,96.6859Zm-3.1407-.7852a1.3363,1.3363,0,0,0-.3222.6309.0645.0645,0,0,0,.06.0615l2.002-.0156c.3379,0,.3691-.169.3691-.3077a.9975.9975,0,0,0-.2148-.6464,1.0789,1.0789,0,0,0-.7715-.293A1.5983,1.5983,0,0,0,372.9277,95.9007Z"/><path class="cls-1" d="M381.0742,95.3c.3379,0,.9531-.0771,1.3535-.0771.17,0,.2305.0459.2305.0927,0,.03-.0449.0918-.2305.1231a2.7451,2.7451,0,0,0-1.416.6767c-.4.3086-1.1543.9551-1.4472,1.2325-.0313.03,0,.0771.0156.1074.4609.539,1.57,1.7246,2.2929,2.4639a1.9974,1.9974,0,0,0,1.1094.7236c.1387.03.2305.0762.2305.1377,0,.0928-.1387.1084-.2617.1084-.5235,0-1.1074-.0772-1.709-.0772-.2617,0-.461.0157-.6914.0157-.17,0-.2774,0-.2774-.0928,0-.0772.0762-.1074.3536-.169.2617-.0615.2929-.2.1542-.416-.3242-.3691-1.416-1.5244-1.8789-1.9863-.123-.1231-.23-.23-.2929-.23-.0449,0-.0606.0918-.0606.1533-.0156.2774-.0312.7862-.0156,1.6329,0,.7382.123.7851.6.8925.1543.0459.2324.0772.2324.1387,0,.0772-.123.1074-.2929.1074-.4317,0-.7539-.0459-1.1543-.0459-.4942,0-.8164.0459-1.002.0459-.1543,0-.2461-.0459-.2461-.1074,0-.0459.0918-.0928.2012-.1074.4766-.124.584-.2617.6152-.77.0606-1.124.0762-2.417.0762-3.6182.0156-1.2.0625-3.1709.0625-4.3721a2.5926,2.5926,0,0,0-.0625-.708c-.0293-.123-.168-.2158-.3535-.3086-.0762-.0459-.1387-.0761-.1387-.1074,0-.0615.0918-.0928.2461-.1387a9.6121,9.6121,0,0,0,1.0932-.37.6948.6948,0,0,1,.246-.0771c.0157,0,.0469.0459.0469.123-.0312.5078-.0781,1.8633-.0781,3.002,0,.4775-.0762,2.51-.0762,4.2031,0,.17.0313.2471.0762.2471a.7717.7717,0,0,0,.3086-.17,13.2322,13.2322,0,0,0,1.6621-1.539.5644.5644,0,0,0,.17-.2774c0-.0927-.1074-.1845-.4472-.2461-.1387-.0156-.2618-.0615-.2618-.123s.1075-.1084.2461-.1084C380.5508,95.2845,380.9043,95.3,381.0742,95.3Z"/><path class="cls-1" d="M383.5684,100.3187a.7.7,0,0,1,.6933-.6924.6483.6483,0,0,1,.6153.6777.662.662,0,0,1-.6309.6917l-.0313.0007A.6778.6778,0,0,1,383.5684,100.3187Z"/><path class="cls-1" d="M386.8728,91.5433a1.67,1.67,0,0,1-1.3868,1.4931c-.0918,0-.1367-.03-.1367-.0761,0-.0313.0606-.0772.1524-.1241a1.23,1.23,0,0,0,.8164-1.0312c0-.3076-.17-.5078-.584-.6006-.1543-.0459-.3086-.1387-.3086-.3232a.4571.4571,0,0,1,.4609-.4307,1.0276,1.0276,0,0,1,.9878,1.0659Zm1.9238,0a1.6708,1.6708,0,0,1-1.3848,1.4931c-.0781,0-.1386-.03-.1386-.0761,0-.0313.0918-.0772.1543-.1241a1.2044,1.2044,0,0,0,.8144-1.0156c0-.3232-.168-.5234-.584-.6162a.36.36,0,0,1-.2929-.3232.4528.4528,0,0,1,.4738-.4309h.0046a1.0234,1.0234,0,0,1,.9534,1.0887Z"/><path class="cls-3" d="M106.14,110.483c-3.602-1.2564-5.7535-3.1095-6.7228-5.1917-1.9754,2.7633-6.47,4.6943-11.7056,4.6943a17.3442,17.3442,0,0,1-2.9659-.3418,10.7146,10.7146,0,0,0-.4807,3.1726,11.6452,11.6452,0,0,0,23.2693,0,10.7526,10.7526,0,0,0-.1922-2.01A11.3957,11.3957,0,0,1,106.14,110.483Z"/><path class="cls-3" d="M101.5161,122.6206c.0164,0,.0323.0021.0488.0023.0208-.0006.0416-.0023.0626-.0023a2.0461,2.0461,0,0,1,.4272.0467,3.27,3.27,0,0,1,1.1908.4407,12.5559,12.5559,0,0,1,3.27,2.0786,25.7074,25.7074,0,0,0,2.5526-9.3359,2.2362,2.2362,0,0,1-1.7347.81h-.5108"/><path class="cls-3" d="M84.9761,116.6612h-.5108a2.2362,2.2362,0,0,1-1.7372-.8138,25.72,25.72,0,0,0,2.5552,9.3392,12.5559,12.5559,0,0,1,3.27-2.0786,3.27,3.27,0,0,1,1.1909-.4408"/><path class="cls-3" d="M84.2647,112.8164c0-.1258.0056-.25.01-.3752a2.1122,2.1122,0,0,0,.1907,4.22"/><path class="cls-3" d="M106.8235,116.6612h.51a2.1122,2.1122,0,0,0,.1907-4.22h0c.0043.1248.01.2494.01.3752"/><path class="cls-3" d="M102.72,114.931a1.3051,1.3051,0,0,0-2.6078,0"/><path class="cls-3" d="M91.6867,114.931a1.305,1.305,0,0,0-2.6077,0"/><path class="cls-3" d="M93.6928,119.0065a2.2085,2.2085,0,0,0,4.4131,0"/><path class="cls-3" d="M84.7434,109.6438a17.3466,17.3466,0,0,0,2.9679.3422c5.2351,0,9.73-1.931,11.7056-4.6943.9693,2.0822,3.1208,3.9353,6.7228,5.1917a11.4191,11.4191,0,0,0,1.2021.3232,10.8585,10.8585,0,0,1,.183,1.635,2.2132,2.2132,0,0,1,1.729,1.0661c.0434-.8043.0671-1.5752.0776-2.2926.0055-.3781.008-.7428.008-1.09,0-7.1135-6.0173-12.88-13.44-12.88a13.2165,13.2165,0,0,0-13.4012,11.9473c-.023.3083-.0388.6186-.0388.9327,0,1.0058.0181,2.1538.0846,3.3836a2.2131,2.2131,0,0,1,1.7279-1.0674"/></svg>