<svg id="Layer_1" data-name="Layer 1" xmlns="http://www.w3.org/2000/svg" viewBox="0 0 399 200"><defs><style>.cls-1,.cls-3,.cls-4,.cls-5{fill:none;stroke-linecap:round;}.cls-1,.cls-3,.cls-4{stroke:#222f3c;}.cls-1,.cls-4,.cls-5{stroke-linejoin:round;}.cls-1{stroke-width:0.5px;}.cls-2{fill:#333838;}.cls-3{stroke-miterlimit:10;}.cls-3,.cls-4,.cls-5{stroke-width:0.4px;}.cls-5{stroke:#231f20;}</style></defs><line class="cls-1" x1="242.0478" y1="121.5269" x2="232.8631" y2="121.5269"/><line class="cls-1" x1="269.3887" y1="121.5269" x2="260.2039" y2="121.5269"/><line class="cls-1" x1="259.2034" y1="118.0204" x2="269.3887" y2="118.0204"/><line class="cls-1" x1="232.8631" y1="118.0204" x2="243.0485" y2="118.0204"/><line class="cls-1" x1="238.2823" y1="143.1771" x2="240.6147" y2="143.1771"/><line class="cls-1" x1="249.9597" y1="143.1771" x2="252.2921" y2="143.1771"/><line class="cls-1" x1="261.637" y1="143.1771" x2="263.9694" y2="143.1771"/><line class="cls-1" x1="244.121" y1="146.3499" x2="246.4534" y2="146.3499"/><line class="cls-1" x1="255.7984" y1="146.3499" x2="258.1308" y2="146.3499"/><polyline class="cls-1" points="232.863 138.802 238.95 136.464 245.037 138.802 249.373 137.137 249.373 131.16"/><polyline class="cls-1" points="269.389 138.802 263.302 136.464 257.214 138.802 252.879 137.137 252.879 131.161"/><circle class="cls-1" cx="251.1259" cy="122.2239" r="9.1044" transform="matrix(0.3827, -0.9239, 0.9239, 0.3827, 42.104, 307.4608)"/><polyline class="cls-1" points="244.773 128.743 232.863 128.743 232.863 149.737 269.389 149.737 269.389 128.743 257.478 128.743"/><path class="cls-1" d="M247.4,123.8261c0-2.0576,3.7256-6.5362,3.7256-6.5362s3.7256,4.4786,3.7256,6.5362a3.7256,3.7256,0,1,1-7.4512,0Z"/><polyline class="cls-1" points="276.878 113.559 273.215 113.559 271.336 115.24 269.561 115.24 269.561 123.997 271.336 123.997 273.215 125.678 276.878 125.678"/><path class="cls-2" d="M296.5029,138.9471c.37,0,1.001.0615,1.4629.0615.3389,0,.708-.0312,1.0313-.0312.2158,0,.3076.0468.3076.1084,0,.0771-.0918.123-.2764.1533-.4316.0771-.4316.2617-.3232.539.6465,1.6016,2.1709,4.8809,3.2178,7.1905.0459.1074.1074.0771.1533,0,.4316-.878.8008-1.6475,1.2168-2.6328a.43.43,0,0,0,.03-.1846c-.2461-.585-1.2773-2.9258-1.6162-3.6651-.4463-.9541-.5693-1.1386-1.0468-1.2617-.2461-.0468-.3233-.1084-.3233-.1855,0-.0459.0918-.0918.292-.0918.4473,0,.7393.0615,1.294.0615s.9082-.0615,1.2617-.0615c.1543,0,.2617.03.2617.0918,0,.0771-.0918.124-.292.17-.416.0771-.5693.2617-.3389.8311.2461.6464.708,1.6933,1.2168,2.8642.0147.03.0762.0459.1231-.0312.3691-.7539.6924-1.4629,1.0156-2.2168.4775-1.1241.4619-1.2784-.2-1.4317-.2773-.0615-.3232-.123-.3232-.1855,0-.0459.0927-.0762.2773-.0762.3848,0,.6309.0459,1.0313.0459.539,0,.7851-.0615,1.14-.0615.1846,0,.2617.0156.2617.0771,0,.0772-.0771.1231-.2929.169-.5694.123-.8624.4463-1.37,1.34-.4.77-1.1543,2.294-1.416,2.7715a.2654.2654,0,0,0,.0156.1846c.3848.9082,1.0616,2.3711,1.585,3.5254.0615.1074.1084.0771.1387,0,.7392-1.6016,2.6025-5.9121,2.9258-7.0518.0771-.3379.0615-.6-.4463-.7539-.2471-.0771-.3389-.1074-.3389-.17s.0459-.0918.2617-.0918c.4,0,.6153.0615,1.0772.0615.4316,0,.8467-.0615,1.124-.0615.2,0,.2773.0156.2773.0771s-.0771.1231-.3545.169c-.6464.17-.9238.4931-1.8935,2.6787-.97,2.125-2.2168,5.0351-2.9248,6.7285-.1084.2617-.1543.3545-.2315.3545-.1074,0-.1689-.1084-.2617-.3545-.3232-.94-1.2-2.8486-1.6474-3.834-.03-.0615-.0772-.0615-.1075-.0146-.5849,1.1386-1.4013,2.94-1.74,3.833-.0918.2461-.1846.37-.2461.37-.0918,0-.123-.0928-.2305-.37-.2-.5078-.6777-1.6319-.8779-2.0938-.8467-1.9551-1.8779-4.2343-2.6016-5.7431-.5546-1.2-.6777-1.4776-1.2626-1.5547-.1846-.0156-.3233-.0772-.3233-.1387C296.1953,139.0086,296.3027,138.9471,296.5029,138.9471Z"/><path class="cls-2" d="M312.749,143.7508a3.7347,3.7347,0,0,1,.2149,1.4c0,.57-.0459,2.0332-.0459,2.4326a.5272.5272,0,0,0,.5693.585.9886.9886,0,0,0,.4473-.1377c.0918-.0469.1533,0,.0918.1377a1.2962,1.2962,0,0,1-1.1856.6621,1.0333,1.0333,0,0,1-.9082-.6924.0532.0532,0,0,0-.0771-.0156,2.1534,2.1534,0,0,1-1.5088.6933,1.2775,1.2775,0,0,1-1.2315-1.3242,1.0865,1.0865,0,0,1,.5537-.8779c.37-.2,1.7715-.6153,2.0948-.7393a.2907.2907,0,0,0,.2-.2305,5.32,5.32,0,0,0,.03-.708c0-.6318-.1074-1.0625-.3691-1.2627a1.17,1.17,0,0,0-.6465-.246,1.0589,1.0589,0,0,0-.6162.1845.6182.6182,0,0,0-.2314.3692,1.6631,1.6631,0,0,0-.0147.2929.194.194,0,0,1-.0615.1231,3.3566,3.3566,0,0,1-.7236.3388c-.0772.0157-.1543-.0771-.1543-.1386,0-.1074.1074-.2461.2929-.4619a3.9693,3.9693,0,0,1,1.17-.8926,2.0539,2.0539,0,0,1,.9239-.2774A1.2623,1.2623,0,0,1,312.749,143.7508Zm-1.0322,4.2334a.6391.6391,0,0,0,.17-.3691,11.086,11.086,0,0,0,.0772-1.4629c0-.0157-.0313-.0918-.0625-.0772a8.78,8.78,0,0,0-1.416.5234.798.798,0,0,0-.3848.7706.8944.8944,0,0,0,.9238.8623A1.0525,1.0525,0,0,0,311.7168,147.9842Z"/><path class="cls-2" d="M315.0742,148.0926a1.7355,1.7355,0,0,1-.1846-.8779v-3.1866c0-.17-.0156-.2773-.0771-.3086a2.5517,2.5517,0,0,0-.3691-.0918c-.1231-.0312-.2-.0771-.2-.1386,0-.0313.0156-.0772.1845-.1543a3.2762,3.2762,0,0,0,1.2627-1.0313c.1387-.1543.2461-.123.2461-.0468,0,.1386-.03.57-.0146.7548,0,.0459.0146.1387.0761.1387.2774,0,1.5557-.0459,1.879-.0459.03,0,.0918.1074.0918.2149,0,.2617-.0762.3847-.1534.3847-.539,0-1.2939-.0146-1.709-.0146-.1845,0-.2158.0459-.2158.1386,0,.2618.0156,2.6788.0313,3.1563a1.5772,1.5772,0,0,0,.1689.831,1.14,1.14,0,0,0,.9541.4161,1.5034,1.5034,0,0,0,.8477-.2315c.1074-.0771.1533-.0615.1533,0,0,.0928-.1387.2461-.3389.4a2.11,2.11,0,0,1-1.247.4A1.4274,1.4274,0,0,1,315.0742,148.0926Z"/><path class="cls-2" d="M323.0977,144.5359a.1806.1806,0,0,1-.1543.169c-.1231-.0156-2.125-.0459-2.4786-.0459h-.831c-.0313,0-.1084.0771-.1387.123a2.1131,2.1131,0,0,0-.124.8467,2.76,2.76,0,0,0,.709,1.8633,2.0773,2.0773,0,0,0,1.539.6309,1.9668,1.9668,0,0,0,1.4629-.4922c.1231-.1231.1846-.0928.1846-.0156a.5855.5855,0,0,1-.1533.246,2.7216,2.7216,0,0,1-2.1406.97,2.4837,2.4837,0,0,1-1.8321-.7852,3.0082,3.0082,0,0,1-.7392-2.0625,3.21,3.21,0,0,1,.8935-2.248,2.8625,2.8625,0,0,1,1.9239-.77A1.7765,1.7765,0,0,1,323.0977,144.5359Zm-3.1407-.7851a1.3412,1.3412,0,0,0-.3232.6309.0654.0654,0,0,0,.0615.0615l2.001-.0156c.3389,0,.3691-.169.3691-.3077a.9923.9923,0,0,0-.2148-.6465,1.0783,1.0783,0,0,0-.77-.2929A1.5966,1.5966,0,0,0,319.957,143.7508Z"/><path class="cls-2" d="M325.8242,144.09a.8856.8856,0,0,0-.2617.538,9.0261,9.0261,0,0,0-.0156.94c0,1.14.0312,1.94.0615,2.2637.0615.4765.2471.5849.832.6465.2149.03.292.0615.292.1386s-.1386.1074-.3691.1074c-.293,0-.8008-.0615-1.4473-.0615a8.2824,8.2824,0,0,0-.9394.0928c-.1846,0-.2618-.0313-.2618-.0928,0-.0459.1084-.123.2315-.1543a.6345.6345,0,0,0,.5537-.6308c.0312-.2617.0469-1.14.0469-2.1553v-1.709c0-.1084-.1084-.1543-.4-.4-.1084-.0771-.1231-.123-.1231-.1543s.0918-.0918.2305-.1386a4.62,4.62,0,0,0,.9854-.3692.4856.4856,0,0,1,.2314-.0771c.03,0,.0615.0615.0615.2158,0,.1689-.0156.7539-.0156,1.001,0,.0459.03.0615.0772.0146a2.5148,2.5148,0,0,1,1.6621-1.1084.8968.8968,0,0,1,.539.2.268.268,0,0,1,.1074.2158,1.0526,1.0526,0,0,1-.3378.5235c-.1387.123-.2.1386-.2471.1386a.6919.6919,0,0,1-.2764-.1084,1.0848,1.0848,0,0,0-.539-.1845A1.0483,1.0483,0,0,0,325.8242,144.09Z"/><path class="cls-2" d="M307.0273,156.2859a.2725.2725,0,0,1,.1534.2618c-.03.3691.0468,1.0312.0468,1.1855s-.0615.2461-.0927.2461c-.0616,0-.1075-.0771-.1387-.2a2.3954,2.3954,0,0,0-.7393-1.2314,3.5274,3.5274,0,0,0-2.3554-.77,3.7136,3.7136,0,0,0-2.6787,1.2011,5.5586,5.5586,0,0,0-1.17,3.5723,5.8335,5.8335,0,0,0,1.4161,3.7256,3.6764,3.6764,0,0,0,2.6328,1.14,3.2638,3.2638,0,0,0,1.832-.4316,2.7554,2.7554,0,0,0,1.1855-1.5088c.0616-.2.0928-.2617.1543-.2617s.0918.1387.0918.2314a11.0282,11.0282,0,0,1-.2148,1.2158.4173.4173,0,0,1-.1543.2315,5.5847,5.5847,0,0,1-3.002.8467,5.3,5.3,0,0,1-4.0029-1.6319,5.3887,5.3887,0,0,1-1.2939-3.4033,4.9094,4.9094,0,0,1,1.7246-3.8945,5.5336,5.5336,0,0,1,3.5879-1.2783A7.108,7.108,0,0,1,307.0273,156.2859Z"/><path class="cls-2" d="M311.9258,160.5506a3.7348,3.7348,0,0,1,.2148,1.4c0,.57-.0459,2.0322-.0459,2.4326a.528.528,0,0,0,.5694.5859.9911.9911,0,0,0,.4472-.1386c.0918-.0469.1533,0,.0918.1386a1.297,1.297,0,0,1-1.1855.6612,1.0331,1.0331,0,0,1-.9082-.6924.0533.0533,0,0,0-.0772-.0156,2.1533,2.1533,0,0,1-1.5088.6933,1.2775,1.2775,0,0,1-1.2314-1.3242,1.0865,1.0865,0,0,1,.5537-.8779c.37-.2,1.7715-.6153,2.0947-.7393a.2905.2905,0,0,0,.2-.23,5.3051,5.3051,0,0,0,.03-.7081c0-.6318-.1074-1.0625-.3691-1.2627a1.171,1.171,0,0,0-.6465-.246,1.0592,1.0592,0,0,0-.6162.1845.6184.6184,0,0,0-.2315.3692,1.6743,1.6743,0,0,0-.0146.2929.1941.1941,0,0,1-.0616.1231,3.3566,3.3566,0,0,1-.7236.3388c-.0771.0157-.1543-.0771-.1543-.1386,0-.1074.1074-.2461.293-.4619a3.9909,3.9909,0,0,1,1.17-.8936,2.063,2.063,0,0,1,.9238-.2764A1.2624,1.2624,0,0,1,311.9258,160.5506Zm-1.0322,4.2334a.6391.6391,0,0,0,.17-.3691,11.09,11.09,0,0,0,.0771-1.4629c0-.0157-.0312-.0918-.0625-.0772a8.7789,8.7789,0,0,0-1.416.5235.7977.7977,0,0,0-.3848.77.8944.8944,0,0,0,.9239.8623A1.0527,1.0527,0,0,0,310.8936,164.784Z"/><path class="cls-2" d="M318.5781,160.2889a3.2159,3.2159,0,0,1,.4922,2.0166c0,.8164.0156.9394.0156,1.709.0157,1.0468.0616,1.14.4776,1.247.1386.0616.23.0928.23.1543,0,.0918-.123.1075-.2773.1075-.2,0-.6465-.0616-.9854-.0616-.5234,0-.7236.0616-.9541.0616-.1386,0-.246-.03-.246-.0928s.0918-.1231.2919-.169c.37-.0927.4317-.2.4317-.6464v-2.0938c0-1.2471-.1084-1.6172-.4932-1.9092a1.37,1.37,0,0,0-.8779-.2929,1.8417,1.8417,0,0,0-1.2.4931.7937.7937,0,0,0-.1846.4619c0,.1846.0147.97.0147,1.8936a12.5294,12.5294,0,0,0,.0927,1.6162c.0459.3389.2305.416.4776.4932.1846.0459.2617.0771.2617.1533,0,.0928-.1543.0928-.3086.0928-.123,0-.8769-.0616-1.2314-.0616-.2,0-.5235.0313-.8155.0313-.17,0-.2929-.0313-.2929-.1084,0-.0615.1386-.1231.3232-.1533.3848-.0772.4463-.1856.4619-.4932.0313-1.1084.0313-2.5254.0313-3.7725,0-.1533-.0313-.3232-.4-.5234-.0928-.0615-.1231-.0918-.1231-.1377,0-.0312.0762-.0771.2149-.124a5.7312,5.7312,0,0,0,1.2168-.5235c.0459-.0146.123.0469.1074.1231a6.8884,6.8884,0,0,0-.03.8164c0,.0312.0459.0771.0762.0459a5.3389,5.3389,0,0,1,1.0938-.6924,2.0752,2.0752,0,0,1,.9082-.1846A1.5725,1.5725,0,0,1,318.5781,160.2889Z"/><path class="cls-2" d="M324.0762,160.5506a3.7348,3.7348,0,0,1,.2148,1.4c0,.57-.0459,2.0322-.0459,2.4326a.528.528,0,0,0,.5694.5859.9911.9911,0,0,0,.4472-.1386c.0918-.0469.1533,0,.0918.1386a1.297,1.297,0,0,1-1.1855.6612,1.0331,1.0331,0,0,1-.9082-.6924.0533.0533,0,0,0-.0772-.0156,2.1533,2.1533,0,0,1-1.5088.6933,1.2775,1.2775,0,0,1-1.2314-1.3242,1.0865,1.0865,0,0,1,.5537-.8779c.37-.2,1.7715-.6153,2.0947-.7393a.2905.2905,0,0,0,.2-.23,5.3051,5.3051,0,0,0,.03-.7081c0-.6318-.1074-1.0625-.3692-1.2627a1.17,1.17,0,0,0-.6464-.246,1.0592,1.0592,0,0,0-.6162.1845.6184.6184,0,0,0-.2315.3692,1.6743,1.6743,0,0,0-.0146.2929.1941.1941,0,0,1-.0616.1231,3.3566,3.3566,0,0,1-.7236.3388c-.0771.0157-.1543-.0771-.1543-.1386,0-.1074.1074-.2461.293-.4619a3.9909,3.9909,0,0,1,1.17-.8936,2.063,2.063,0,0,1,.9238-.2764A1.2624,1.2624,0,0,1,324.0762,160.5506Zm-1.0323,4.2334a.6391.6391,0,0,0,.17-.3691,11.09,11.09,0,0,0,.0771-1.4629c0-.0157-.0312-.0918-.0625-.0772a8.7754,8.7754,0,0,0-1.416.5235.7977.7977,0,0,0-.3848.77.8944.8944,0,0,0,.9239.8623A1.0522,1.0522,0,0,0,323.0439,164.784Z"/><path class="cls-2" d="M327.51,161.7205c0,1.94.0156,2.6631.0312,2.9561.0147.416.1074.5234.5381.6006.0928.0156.2.0615.2.1074,0,.0615-.1074.1084-.3076.1084-.2461,0-.8008-.0313-1.0625-.0313-.4,0-.8008.0313-1.0313.0313-.1845,0-.2617-.0156-.2617-.0928s.0772-.0928.2774-.1387c.3847-.0771.4765-.2158.538-.8925.0313-.57.0928-3.1719.1084-5.02,0-1.247.0157-2.51,0-3.1865,0-.3389-.0312-.416-.4316-.6621-.1074-.0615-.1533-.0928-.1533-.1387s.0918-.0928.23-.123a8.0427,8.0427,0,0,0,1.1553-.3545.64.64,0,0,1,.1846-.0459c.03,0,.0459.0918.0459.1689,0,.1084-.0615,2.7715-.0615,5.0811Z"/><line class="cls-1" x1="343.8796" y1="111.1954" x2="282.4689" y2="111.1954"/><line class="cls-1" x1="282.4689" y1="128.1106" x2="343.8796" y2="128.1106"/><line class="cls-1" x1="282.4689" y1="128.1106" x2="343.8796" y2="128.1106"/><polyline class="cls-3" points="306.873 120.026 307.398 121.02 306.822 122.065"/><polyline class="cls-3" points="306.821 122.092 307.347 123.087 306.77 124.132"/><polyline class="cls-3" points="306.925 117.95 307.45 118.945 306.874 119.99"/><polyline class="cls-3" points="304.583 117.25 305.108 118.244 304.532 119.289"/><polyline class="cls-3" points="304.531 119.316 305.056 120.311 304.48 121.356"/><polyline class="cls-3" points="304.634 115.174 305.16 116.169 304.584 117.214"/><polyline class="cls-3" points="312.442 120.026 312.968 121.02 312.391 122.065"/><polyline class="cls-3" points="312.391 122.092 312.916 123.087 312.34 124.132"/><polyline class="cls-3" points="312.494 117.95 313.019 118.945 312.443 119.99"/><polyline class="cls-3" points="310.152 117.25 310.677 118.244 310.101 119.289"/><polyline class="cls-3" points="310.101 119.316 310.626 120.311 310.05 121.356"/><polyline class="cls-3" points="310.204 115.174 310.729 116.169 310.153 117.214"/><polyline class="cls-3" points="318.012 120.026 318.537 121.02 317.961 122.065"/><polyline class="cls-3" points="317.96 122.092 318.486 123.087 317.909 124.132"/><polyline class="cls-3" points="318.064 117.95 318.589 118.945 318.013 119.99"/><polyline class="cls-3" points="315.722 117.25 316.247 118.244 315.671 119.289"/><polyline class="cls-3" points="315.67 119.316 316.195 120.311 315.619 121.356"/><polyline class="cls-3" points="315.773 115.174 316.299 116.169 315.723 117.214"/><polyline class="cls-3" points="321.291 117.25 321.817 118.244 321.24 119.289"/><polyline class="cls-3" points="321.24 119.316 321.765 120.311 321.189 121.356"/><polyline class="cls-3" points="321.343 115.174 321.868 116.169 321.292 117.214"/><path class="cls-2" d="M232.5361,62.6722c.37,0,1.001.0615,1.4629.0615.3389,0,.708-.0308,1.0313-.0308.2158,0,.3076.0459.3076.108,0,.0766-.0918.123-.2764.1538-.4316.0771-.4316.2617-.3232.5385.6465,1.6016,2.1709,4.8809,3.2178,7.1905.0459.1074.1074.0766.1533,0,.4316-.878.8008-1.6475,1.2168-2.6328a.4319.4319,0,0,0,.03-.1851c-.246-.585-1.2773-2.9253-1.6162-3.6641-.4463-.9546-.5693-1.1391-1.0468-1.2627-.2461-.0459-.3233-.1074-.3233-.1845,0-.0464.0918-.0923.292-.0923.4473,0,.7393.0615,1.294.0615s.9082-.0615,1.2617-.0615c.1543,0,.2617.0307.2617.0923,0,.0771-.0918.123-.292.1694-.416.0767-.5693.2617-.3389.8311.2461.6469.708,1.6938,1.2168,2.8637.0147.0308.0762.0464.1231-.0307.3691-.7544.6924-1.4624,1.0156-2.2168.4775-1.1241.4619-1.2779-.2-1.4322-.2773-.0615-.3232-.123-.3232-.1845,0-.0464.0927-.0772.2773-.0772.3848,0,.6309.0464,1.0313.0464.539,0,.7851-.0615,1.14-.0615.1846,0,.2617.0151.2617.0766,0,.0772-.0771.1236-.2929.1695-.5694.1235-.8623.4468-1.37,1.34-.4.77-1.1543,2.294-1.416,2.771a.2668.2668,0,0,0,.0156.1851c.3848.9082,1.0616,2.3706,1.585,3.5254.0615.1079.1084.0771.1387,0,.7392-1.6011,2.6025-5.9121,2.9258-7.0513.0771-.3389.0615-.6006-.4463-.7544-.2471-.0771-.3389-.1079-.3389-.1694s.0459-.0923.2617-.0923c.4,0,.6153.0615,1.0772.0615.4316,0,.8467-.0615,1.124-.0615.2,0,.2773.0151.2773.0766s-.0771.1236-.3545.1695c-.6464.1694-.9238.4926-1.8935,2.6792-.97,2.1245-2.2168,5.0342-2.9248,6.728-.1084.2617-.1543.354-.2315.354-.1074,0-.1689-.1079-.2617-.354-.3232-.94-1.2-2.8481-1.6474-3.8335-.03-.062-.0772-.062-.1075-.0156-.5849,1.1391-1.4013,2.9409-1.74,3.8335-.0918.2466-.1846.37-.2461.37-.0918,0-.123-.0923-.2305-.37-.2-.5078-.6777-1.6319-.8779-2.0938-.8467-1.9551-1.8779-4.2339-2.6015-5.7427-.5547-1.2006-.6778-1.478-1.2627-1.5551-.1846-.0152-.3233-.0767-.3233-.1387C232.2285,62.7337,232.3359,62.6722,232.5361,62.6722Z"/><path class="cls-2" d="M248.7822,67.4759a3.7358,3.7358,0,0,1,.2149,1.4009c0,.57-.0459,2.0322-.0459,2.4326a.5274.5274,0,0,0,.5693.5849.9848.9848,0,0,0,.4473-.1386c.0918-.0459.1533,0,.0918.1386a1.2969,1.2969,0,0,1-1.1856.6622,1.0346,1.0346,0,0,1-.9082-.6929.054.054,0,0,0-.0771-.0156,2.1549,2.1549,0,0,1-1.5088.6928,1.2774,1.2774,0,0,1-1.2315-1.3237,1.0876,1.0876,0,0,1,.5537-.8779c.37-.2,1.7715-.6158,2.0948-.7388a.2919.2919,0,0,0,.2-.231,5.32,5.32,0,0,0,.03-.7085c0-.6308-.1074-1.062-.3691-1.2622a1.1747,1.1747,0,0,0-.6465-.2465,1.06,1.06,0,0,0-.6162.185.62.62,0,0,0-.2314.3692,1.669,1.669,0,0,0-.0147.2929.1928.1928,0,0,1-.0615.1231,3.3329,3.3329,0,0,1-.7236.3388c-.0772.0152-.1543-.0771-.1543-.1386,0-.1079.1074-.2466.2929-.4619a3.98,3.98,0,0,1,1.17-.8931,2.0661,2.0661,0,0,1,.9238-.2774A1.2627,1.2627,0,0,1,248.7822,67.4759ZM247.75,71.71a.6408.6408,0,0,0,.17-.37,11.0775,11.0775,0,0,0,.0772-1.4628c0-.0152-.0313-.0923-.0625-.0767a8.689,8.689,0,0,0-1.416.5234.7968.7968,0,0,0-.3848.77.8941.8941,0,0,0,.9238.8623A1.0544,1.0544,0,0,0,247.75,71.71Z"/><path class="cls-2" d="M251.1074,71.8172a1.7323,1.7323,0,0,1-.1845-.8774V67.7527c0-.1694-.0157-.2768-.0772-.3081a2.53,2.53,0,0,0-.3691-.0922c-.1231-.0308-.2-.0767-.2-.1382,0-.0313.0156-.0772.1845-.1543a3.2808,3.2808,0,0,0,1.2627-1.0313c.1387-.1543.2461-.1235.2461-.0464,0,.1387-.03.57-.0146.7544,0,.0464.0146.1387.0761.1387.2774,0,1.5557-.0464,1.879-.0464.03,0,.0918.1079.0918.2158,0,.2618-.0762.3848-.1534.3848-.539,0-1.2939-.0156-1.709-.0156-.1845,0-.2158.0464-.2158.1387,0,.2617.0157,2.6792.0313,3.1562a1.5791,1.5791,0,0,0,.1689.8315,1.1379,1.1379,0,0,0,.9541.4156,1.5082,1.5082,0,0,0,.8477-.231c.1074-.0771.1533-.0615.1533,0,0,.0923-.1387.2466-.3389.4a2.11,2.11,0,0,1-1.247.4A1.4269,1.4269,0,0,1,251.1074,71.8172Z"/><path class="cls-2" d="M259.1309,68.261a.181.181,0,0,1-.1543.169c-.1231-.0151-2.125-.0459-2.4786-.0459h-.831c-.0313,0-.1084.0771-.1387.123a2.1114,2.1114,0,0,0-.124.8467,2.7608,2.7608,0,0,0,.709,1.8633,2.0773,2.0773,0,0,0,1.539.6309,1.963,1.963,0,0,0,1.4629-.4927c.1231-.1231.1846-.0923.1846-.0152a.585.585,0,0,1-.1533.2461,2.722,2.722,0,0,1-2.1406.97,2.4856,2.4856,0,0,1-1.8321-.7852,3.01,3.01,0,0,1-.7392-2.063,3.21,3.21,0,0,1,.8935-2.248,2.8628,2.8628,0,0,1,1.9239-.77A1.7769,1.7769,0,0,1,259.1309,68.261Zm-3.1407-.7851a1.3433,1.3433,0,0,0-.3232.6309.0658.0658,0,0,0,.0615.0615l2.001-.0152c.3389,0,.3691-.1694.3691-.3081a.9923.9923,0,0,0-.2148-.6465,1.08,1.08,0,0,0-.7705-.2924A1.5959,1.5959,0,0,0,255.99,67.4759Z"/><path class="cls-2" d="M261.8574,67.8143a.8879.8879,0,0,0-.2617.539,9.01,9.01,0,0,0-.0156.939c0,1.14.0312,1.94.0615,2.2632.0615.4775.2471.5854.832.647.2149.0307.292.0615.292.1381s-.1386.1079-.3691.1079c-.293,0-.8008-.0615-1.4473-.0615a8.3258,8.3258,0,0,0-.9394.0923c-.1846,0-.2618-.0308-.2618-.0923,0-.0464.1084-.123.2315-.1538a.6363.6363,0,0,0,.5537-.6313c.0313-.2618.0469-1.1392.0469-2.1553v-1.709c0-.1079-.1084-.1543-.4-.4-.1084-.0771-.1231-.123-.1231-.1543s.0918-.0923.2305-.1382a4.6691,4.6691,0,0,0,.9854-.37.4856.4856,0,0,1,.2314-.0771c.03,0,.0615.0615.0615.2158,0,.1694-.0156.7544-.0156,1.0005,0,.0464.03.0615.0772.0156a2.512,2.512,0,0,1,1.6621-1.1089.8968.8968,0,0,1,.539.2.2686.2686,0,0,1,.1074.2158,1.0526,1.0526,0,0,1-.3378.5235c-.1387.123-.2.1386-.2471.1386a.6953.6953,0,0,1-.2764-.1079,1.08,1.08,0,0,0-.539-.1845A1.0519,1.0519,0,0,0,261.8574,67.8143Z"/><path class="cls-2" d="M239.418,78.118a2.5888,2.5888,0,0,0,1.2627-.169c.0615-.0464.1084-.062.123-.0312a.3421.3421,0,0,1,.0156.2,4.85,4.85,0,0,0-.0459,1.17c0,.2309-.0771.3384-.123.3384-.0615,0-.1084-.1382-.124-.2154a1.4231,1.4231,0,0,0-.2764-.7236c-.1387-.123-.3389-.1846-1.417-.1846-.4766,0-1.2471,0-1.4932.0308-.0771.0151-.0927.1382-.0927.2461,0,.57-.03,4.8037-.03,4.8037-.0156.8623.0459,2.7715.0918,3.2485.0625.5235.2158.6314.7393.7852.1845.0464.2617.0771.2617.1538,0,.0928-.1075.1079-.3076.1079-.3545,0-.8311-.0923-1.4473-.0923-.7852,0-1.2471.0923-1.4932.0923-.2,0-.2773-.0615-.2773-.1387,0-.0615.1387-.1074.3076-.1381.7393-.108.832-.3545.8779-1.0625.1074-1.4937.1074-7.6211.0772-7.8365-.0157-.1386-.0615-.185-.1084-.185a9.4351,9.4351,0,0,0-1.1543-.0459,12.0391,12.0391,0,0,0-1.3086.0615c-.293.0615-.4932.2461-.708.8467-.0772.1845-.1543.2617-.2158.2617s-.0616-.1231-.0459-.231a9.0491,9.0491,0,0,0,.2-1.3242c.0146-.123.0146-.2.0918-.2309.0312-.0152.0771.0156.123.0615a.8407.8407,0,0,0,.4932.1543c.2461.0151,1.77.0615,3.3564.0615Z"/><path class="cls-2" d="M241.6064,83.2142a.8884.8884,0,0,0-.2617.539,9.0379,9.0379,0,0,0-.0156.939c0,1.14.0313,1.94.0615,2.2632.0615.4775.2471.5849.8321.647.2148.0307.2919.0615.2919.1381s-.1386.1079-.3691.1079c-.293,0-.8008-.0615-1.4473-.0615a8.3286,8.3286,0,0,0-.9394.0923c-.1846,0-.2617-.0308-.2617-.0923,0-.0464.1084-.123.2314-.1538a.6362.6362,0,0,0,.5537-.6313c.0313-.2617.0469-1.1392.0469-2.1553v-1.709c0-.1079-.1084-.1543-.4-.4-.1084-.0771-.123-.1235-.123-.1543s.0918-.0923.23-.1382a4.6671,4.6671,0,0,0,.9854-.37.4859.4859,0,0,1,.2314-.0771c.03,0,.0616.0615.0616.2158,0,.1694-.0157.7544-.0157,1.0005,0,.0464.03.0615.0772.0156a2.5114,2.5114,0,0,1,1.6621-1.1084.896.896,0,0,1,.539.2.27.27,0,0,1,.1084.2158,1.0561,1.0561,0,0,1-.3388.5235c-.1387.123-.2.1386-.2471.1386a.6953.6953,0,0,1-.2764-.1079,1.08,1.08,0,0,0-.539-.1845A1.0519,1.0519,0,0,0,241.6064,83.2142Z"/><path class="cls-2" d="M248.69,83.6609a.181.181,0,0,1-.1543.169c-.1231-.0151-2.125-.0459-2.4786-.0459h-.831c-.0313,0-.1084.0771-.1387.123a2.1131,2.1131,0,0,0-.124.8467,2.7608,2.7608,0,0,0,.709,1.8633,2.0773,2.0773,0,0,0,1.539.6309,1.963,1.963,0,0,0,1.4629-.4927c.1231-.1231.1846-.0923.1846-.0151a.5855.5855,0,0,1-.1533.246,2.722,2.722,0,0,1-2.1406.97,2.4856,2.4856,0,0,1-1.8321-.7852,3.01,3.01,0,0,1-.7392-2.063,3.21,3.21,0,0,1,.8935-2.248,2.8628,2.8628,0,0,1,1.9238-.77A1.7769,1.7769,0,0,1,248.69,83.6609Zm-3.1407-.7851a1.3433,1.3433,0,0,0-.3232.6309.0658.0658,0,0,0,.0615.0615l2.001-.0152c.3389,0,.3691-.1694.3691-.3081a.9923.9923,0,0,0-.2148-.6465,1.08,1.08,0,0,0-.77-.2924A1.5959,1.5959,0,0,0,245.5488,82.8758Z"/><path class="cls-2" d="M253.2334,82.8758a3.7359,3.7359,0,0,1,.2148,1.4009c0,.57-.0459,2.0322-.0459,2.4326a.5275.5275,0,0,0,.5694.585.9851.9851,0,0,0,.4472-.1387c.0918-.0459.1534,0,.0918.1387a1.2968,1.2968,0,0,1-1.1855.6621,1.0345,1.0345,0,0,1-.9082-.6929.0541.0541,0,0,0-.0772-.0156,2.1547,2.1547,0,0,1-1.5087.6928A1.2774,1.2774,0,0,1,249.6,86.617a1.0874,1.0874,0,0,1,.5537-.8779c.37-.2,1.7715-.6157,2.0947-.7388a.2917.2917,0,0,0,.2-.231,5.306,5.306,0,0,0,.03-.7084c0-.6309-.1074-1.0621-.3691-1.2623a1.1747,1.1747,0,0,0-.6465-.2465,1.0591,1.0591,0,0,0-.6162.185.62.62,0,0,0-.2315.37,1.6711,1.6711,0,0,0-.0146.2924.1933.1933,0,0,1-.0615.1231,3.3312,3.3312,0,0,1-.7237.3388c-.0771.0152-.1543-.0771-.1543-.1386,0-.1079.1075-.2466.293-.4619a3.9794,3.9794,0,0,1,1.17-.8931,2.0661,2.0661,0,0,1,.9239-.2774A1.2627,1.2627,0,0,1,253.2334,82.8758ZM252.2012,87.11a.6392.6392,0,0,0,.17-.37,11.0841,11.0841,0,0,0,.0771-1.4629c0-.0152-.0312-.0923-.0625-.0767a8.6923,8.6923,0,0,0-1.416.5234.7969.7969,0,0,0-.3847.77.894.894,0,0,0,.9238.8623A1.0546,1.0546,0,0,0,252.2012,87.11Z"/><path class="cls-2" d="M255.5586,87.2171a1.7312,1.7312,0,0,1-.1846-.8774V83.1526c0-.1694-.0156-.2768-.0771-.3081a2.5281,2.5281,0,0,0-.3692-.0922c-.123-.0308-.2-.0767-.2-.1387,0-.0308.0157-.0767.1846-.1538a3.2808,3.2808,0,0,0,1.2627-1.0313c.1387-.1543.2461-.1235.2461-.0464,0,.1387-.03.57-.0147.7544,0,.0464.0147.1387.0762.1387.2774,0,1.5557-.0464,1.8789-.0464.03,0,.0918.1079.0918.2158,0,.2618-.0761.3848-.1533.3848-.5391,0-1.2939-.0156-1.709-.0156-.1846,0-.2158.0464-.2158.1387,0,.2617.0156,2.6792.0312,3.1562a1.5788,1.5788,0,0,0,.169.8315,1.1379,1.1379,0,0,0,.9541.4156,1.5084,1.5084,0,0,0,.8477-.231c.1074-.0766.1533-.0615.1533,0,0,.0923-.1387.2466-.3389.4a2.11,2.11,0,0,1-1.2471.4A1.4269,1.4269,0,0,1,255.5586,87.2171Z"/><path class="cls-2" d="M259.1934,82.6907c0-.0459.0615-.0771.1845-.1079a3.0609,3.0609,0,0,0,1.0469-.4614.4439.4439,0,0,1,.2305-.0928c.0468,0,.0771.0615.0771.1543,0,.169-.0156.6,0,.7544,0,.0615.0156.1382.0772.0923a3.2372,3.2372,0,0,1,1.9092-.8931,1.5756,1.5756,0,0,1,1.539.97.1037.1037,0,0,0,.1084.0307,3.0876,3.0876,0,0,1,2.1094-1.0474,1.5871,1.5871,0,0,1,1.5547,1.14,5.0244,5.0244,0,0,1,.1845,1.4473c.0157.5078.0469,1.6782.0616,2.2168.0156.5083.1084.6157.4463.6777.2158.0459.2773.0923.2773.1382,0,.0771-.0771.1079-.2617.1079-.169,0-.708-.0308-1.0625-.0308-.3692,0-.708.0464-.9385.0464-.2,0-.3086-.0307-.3086-.0928,0-.0766.1387-.123.2617-.1538.4473-.0923.5235-.2309.5235-.6928a19.54,19.54,0,0,0-.1075-3.0484,1.1924,1.1924,0,0,0-1.2929-1.1548,1.9223,1.9223,0,0,0-1.3086.57.7516.7516,0,0,0-.1084.4926c.0312.4312.0771,2.7867.1084,3.2022.0459.4311.0918.539.4765.6313.17.0616.2471.0772.2471.1387s-.0928.0923-.2617.0923c-.2773,0-.7393-.0308-1.1856-.0308-.3388,0-.7089.0308-.8779.0308s-.2461-.0308-.2461-.0923c0-.0464.0772-.1079.2774-.1538.3232-.062.4765-.1387.4765-.5083l.0157-2.4634c0-.8467-.0772-1.2007-.3848-1.54a1.1763,1.1763,0,0,0-.9395-.3389,1.7419,1.7419,0,0,0-1.1543.4468.5575.5575,0,0,0-.1845.3691,9.422,9.422,0,0,0-.0616,1.0469c0,1.14.0616,2.2173.0918,2.4946a.5255.5255,0,0,0,.4932.5078c.169.0308.2305.0772.2305.1231,0,.0771-.1231.1079-.2305.1079-.293,0-.8008-.0308-1.17-.0308-.4776,0-.8008.0308-1.001.0308-.1387,0-.2773-.0464-.2773-.1079s.0927-.1074.3076-.1382c.4775-.1079.4775-.2773.5088-.4619.0615-.3238.0615-1.5708.0615-2.4634,0-.57.0146-.9546-.0156-1.2471a.5817.5817,0,0,0-.3545-.539c-.1074-.0616-.1387-.0923-.1387-.1695Z"/><path class="cls-2" d="M274.4385,83.6609a.181.181,0,0,1-.1543.169c-.1231-.0151-2.125-.0459-2.4785-.0459h-.8311c-.0312,0-.1084.0771-.1387.123a2.1173,2.1173,0,0,0-.123.8467,2.76,2.76,0,0,0,.708,1.8633,2.0774,2.0774,0,0,0,1.5391.6309,1.9633,1.9633,0,0,0,1.4629-.4927c.123-.1231.1845-.0923.1845-.0151a.5855.5855,0,0,1-.1533.246,2.722,2.722,0,0,1-2.1406.97,2.4858,2.4858,0,0,1-1.8321-.7852,3.01,3.01,0,0,1-.7392-2.063,3.21,3.21,0,0,1,.8935-2.248,2.863,2.863,0,0,1,1.9239-.77A1.7768,1.7768,0,0,1,274.4385,83.6609Zm-3.1406-.7851a1.3428,1.3428,0,0,0-.3233.6309.0658.0658,0,0,0,.0615.0615l2.001-.0152c.3389,0,.3691-.1694.3691-.3081a.9917.9917,0,0,0-.2148-.6465,1.08,1.08,0,0,0-.77-.2924A1.5955,1.5955,0,0,0,271.2979,82.8758Z"/><path class="cls-2" d="M280.1514,82.6136a3.22,3.22,0,0,1,.4922,2.0171c0,.8159.0156.9389.0156,1.709.0156,1.0468.0615,1.1391.4775,1.247.1387.0616.2305.0923.2305.1538,0,.0928-.1231.1079-.2774.1079-.2,0-.6464-.0615-.9853-.0615-.5234,0-.7236.0615-.9541.0615-.1387,0-.2461-.0307-.2461-.0922s.0918-.1231.292-.17c.37-.0923.4316-.2.4316-.6465V84.8465c0-1.2476-.1084-1.6167-.4931-1.9092a1.3661,1.3661,0,0,0-.877-.2925,1.8415,1.8415,0,0,0-1.2012.4927.7921.7921,0,0,0-.1845.4614c0,.1851.0146.97.0146,1.8941A12.5357,12.5357,0,0,0,276.98,87.11c.0459.3384.2305.4155.4775.4927.1846.0459.2618.0766.2618.1538,0,.0922-.1543.0922-.3086.0922-.1231,0-.877-.0615-1.2315-.0615-.2,0-.5234.0308-.8154.0308-.17,0-.293-.0308-.293-.1079,0-.0615.1387-.1231.3233-.1538.3847-.0772.4462-.1846.4619-.4927.0312-1.1084.0312-2.5249.0312-3.772,0-.1538-.0312-.3232-.4-.5234-.0927-.0615-.123-.0923-.123-.1387,0-.0308.0762-.0771.2148-.123a5.7827,5.7827,0,0,0,1.2168-.5235c.0459-.0156.1231.0459.1074.1231a6.8553,6.8553,0,0,0-.03.8159c0,.0308.0459.0771.0761.0464a5.3243,5.3243,0,0,1,1.0938-.6929,2.0838,2.0838,0,0,1,.9082-.1851A1.5742,1.5742,0,0,1,280.1514,82.6136Z"/><path class="cls-2" d="M282.77,87.2171a1.7323,1.7323,0,0,1-.1845-.8774V83.1526c0-.1694-.0157-.2768-.0772-.3081a2.53,2.53,0,0,0-.3691-.0922c-.1231-.0308-.2-.0767-.2-.1387,0-.0308.0156-.0767.1845-.1538a3.2808,3.2808,0,0,0,1.2627-1.0313c.1387-.1543.2461-.1235.2461-.0464,0,.1387-.03.57-.0146.7544,0,.0464.0146.1387.0762.1387.2773,0,1.5556-.0464,1.8789-.0464.03,0,.0918.1079.0918.2158,0,.2618-.0762.3848-.1534.3848-.539,0-1.2939-.0156-1.7089-.0156-.1846,0-.2159.0464-.2159.1387,0,.2617.0157,2.6792.0313,3.1562a1.5791,1.5791,0,0,0,.1689.8315,1.1379,1.1379,0,0,0,.9541.4156,1.5082,1.5082,0,0,0,.8477-.231c.1074-.0766.1533-.0615.1533,0,0,.0923-.1387.2466-.3389.4a2.11,2.11,0,0,1-1.247.4A1.4269,1.4269,0,0,1,282.77,87.2171Z"/><path class="cls-2" d="M238.833,93.4871c.3232,0,.4316.0772.4316.1851.03.2153.0772.8926.1075,1.0776.0312.1538,0,.2925-.0772.2925-.0615,0-.1074-.1079-.1845-.3081a1.2479,1.2479,0,0,0-1.1543-.8774c-.4932-.0464-1.1553-.0464-2.5557-.0464-.1084,0-.2158.2-.2158.2773-.0157.4312-.0459,2.2017-.0157,3.9722a.1886.1886,0,0,0,.1387.1845c1.57,0,2.31-.0151,2.5557-.0459.2158-.0307.4306-.0771.6621-.6.0771-.1538.123-.2154.1689-.2154.0616,0,.0928.0767.0772.231-.0156.1694-.0772.6308-.0772.9546a7.2556,7.2556,0,0,0,.0616.7387c0,.2-.03.2618-.1075.2618-.0615,0-.123-.1231-.2158-.3389-.123-.3384-.2764-.4927-.4619-.5386a16.4227,16.4227,0,0,0-2.6631-.0771.3057.3057,0,0,0-.1543.2c-.0146.2773.0156,2.6792.0469,3.3716.0146.5854.1074.6777.8154.8471.1231.0308.2158.0767.2158.1382,0,.0928-.17.1079-.3232.1079-.2158,0-.8779-.0923-1.5088-.0923-.5849,0-.97.0616-1.1855.0616-.1387,0-.2461-.0308-.2461-.108,0-.0615.0761-.1074.2763-.1538.585-.123.6621-.2461.6934-.8159.0459-.5083.0459-2.417.0459-4.1108,0-1.6319,0-2.5713-.0459-3.51-.0313-.5542-.0771-.6928-.6318-.8315-.1377-.0308-.2461-.0767-.2461-.1538,0-.0616.0927-.0923.2314-.0923.1846,0,1.0313.0615,1.709.0615C236.6162,93.5335,238.248,93.4871,238.833,93.4871Z"/><path class="cls-2" d="M243.1768,98.2757a3.7359,3.7359,0,0,1,.2148,1.4009c0,.57-.0459,2.0322-.0459,2.4326a.5275.5275,0,0,0,.5693.585.9851.9851,0,0,0,.4473-.1387c.0918-.0459.1533,0,.0918.1387a1.2969,1.2969,0,0,1-1.1855.6621,1.0343,1.0343,0,0,1-.9082-.6929.0541.0541,0,0,0-.0772-.0156,2.1547,2.1547,0,0,1-1.5088.6928,1.2773,1.2773,0,0,1-1.2314-1.3237,1.0874,1.0874,0,0,1,.5537-.8779c.37-.2,1.7715-.6157,2.0947-.7388a.2917.2917,0,0,0,.2-.2309,5.3045,5.3045,0,0,0,.03-.7085c0-.6309-.1074-1.0621-.3692-1.2623a1.1747,1.1747,0,0,0-.6465-.2465,1.06,1.06,0,0,0-.6162.185.62.62,0,0,0-.2314.3692,1.669,1.669,0,0,0-.0147.2929.1928.1928,0,0,1-.0615.1231,3.3329,3.3329,0,0,1-.7236.3388c-.0772.0152-.1543-.0771-.1543-.1386,0-.1079.1074-.2466.293-.4619a3.9794,3.9794,0,0,1,1.17-.8931,2.0657,2.0657,0,0,1,.9238-.2773A1.2629,1.2629,0,0,1,243.1768,98.2757Zm-1.0323,4.2339a.6408.6408,0,0,0,.17-.37,11.0841,11.0841,0,0,0,.0771-1.4629c0-.0152-.0312-.0923-.0625-.0767a8.689,8.689,0,0,0-1.416.5234.7968.7968,0,0,0-.3848.77.8941.8941,0,0,0,.9238.8623A1.0542,1.0542,0,0,0,242.1445,102.51Z"/><path class="cls-2" d="M245.9648,100.1385a2.59,2.59,0,0,0,.77,2.0015,2.1879,2.1879,0,0,0,1.4316.5385,2.066,2.066,0,0,0,1.6016-.5849c.03-.0308.1074-.0459.1074,0a.4038.4038,0,0,1-.123.2465,2.6622,2.6622,0,0,1-2.125,1.0162,2.8049,2.8049,0,0,1-1.9239-.7544,2.9005,2.9005,0,0,1-.77-2.0786,2.9423,2.9423,0,0,1,.9395-2.14,3.3762,3.3762,0,0,1,2.2783-.893,2.3437,2.3437,0,0,1,1.4014.3852.3546.3546,0,0,1,.2158.2925.5263.5263,0,0,1-.3848.4927.4714.4714,0,0,1-.2617-.1543,4.2548,4.2548,0,0,0-.8623-.6309,1.3852,1.3852,0,0,0-.585-.1235C247.0264,97.7518,245.9648,98.368,245.9648,100.1385Z"/><path class="cls-2" d="M250.8154,97.9368a7.6457,7.6457,0,0,0,1.1084-.4.6257.6257,0,0,1,.2315-.1079c.0459,0,.0761.0464.0615.2158-.0313.3077-.0313,1.2471-.0313,2.2325,0,1.2929,0,2.4326.0313,2.6943.03.3076.1846.3848.4307.4463.1543.0308.2314.0615.2314.123,0,.0772-.124.108-.2471.108-.1386,0-.708-.0616-1.124-.0616-.5078,0-.7539.0308-.9238.0308-.1074,0-.2149-.0308-.2149-.0923s.0772-.1079.292-.1387c.3389-.0923.4776-.2153.4932-.8466.0156-.462.0459-3.2642.0459-3.418,0-.2158-.0156-.3081-.4463-.5391-.0771-.0459-.123-.0923-.123-.123C250.6309,98.014,250.6768,97.9676,250.8154,97.9368Zm1.54-2.51a.5864.5864,0,0,1-.57.5849.5477.5477,0,0,1-.5079-.5693.5713.5713,0,0,1,.5391-.6006A.5637.5637,0,0,1,252.3555,95.4271Z"/><path class="cls-2" d="M255.373,99.4456c0,1.94.0157,2.6636.0313,2.9561.0146.4155.1074.5234.5381.6006.0928.0151.2.0615.2.1074,0,.0615-.1074.1079-.3076.1079-.2461,0-.8008-.0308-1.0625-.0308-.4,0-.8008.0308-1.0313.0308-.1846,0-.2617-.0151-.2617-.0923s.0771-.0923.2773-.1387c.3848-.0771.4766-.2153.5381-.893.0313-.5694.0928-3.1714.1084-5.0191,0-1.247.0156-2.51,0-3.187,0-.3389-.0312-.4155-.4316-.6621-.1074-.0615-.1533-.0923-.1533-.1382s.0918-.0928.23-.1235a7.9866,7.9866,0,0,0,1.1553-.354.6393.6393,0,0,1,.1846-.0464c.03,0,.0459.0928.0459.1694,0,.1079-.0616,2.7715-.0616,5.0811Z"/><path class="cls-2" d="M257.3291,97.9368a7.6457,7.6457,0,0,0,1.1084-.4.6256.6256,0,0,1,.2314-.1079c.0459,0,.0762.0464.0616.2158-.0313.3077-.0313,1.2471-.0313,2.2325,0,1.2929,0,2.4326.0313,2.6943.03.3076.1845.3848.4306.4463.1543.0308.2315.0615.2315.123,0,.0772-.124.108-.2471.108-.1387,0-.708-.0616-1.124-.0616-.5078,0-.7539.0308-.9238.0308-.1075,0-.2149-.0308-.2149-.0923s.0772-.1079.292-.1387c.3389-.0923.4775-.2153.4932-.8466.0156-.462.0459-3.2642.0459-3.418,0-.2158-.0157-.3081-.4463-.5391-.0772-.0459-.1231-.0923-.1231-.123C257.1445,98.014,257.19,97.9676,257.3291,97.9368Zm1.54-2.51a.5864.5864,0,0,1-.57.5849.5477.5477,0,0,1-.5078-.5693.5713.5713,0,0,1,.5391-.6006A.5636.5636,0,0,1,258.8691,95.4271Z"/><path class="cls-2" d="M260.84,102.617a1.7323,1.7323,0,0,1-.1845-.8774v-3.187c0-.1695-.0157-.2769-.0772-.3082a2.5261,2.5261,0,0,0-.3691-.0922c-.1231-.0308-.2-.0767-.2-.1382,0-.0313.0156-.0772.1846-.1543a3.2823,3.2823,0,0,0,1.2627-1.0313c.1386-.1543.246-.1235.246-.0464,0,.1387-.03.57-.0146.7544,0,.0464.0146.1387.0762.1387.2773,0,1.5556-.0464,1.8789-.0464.03,0,.0918.1079.0918.2158,0,.2618-.0762.3848-.1533.3848-.5391,0-1.294-.0156-1.709-.0156-.1846,0-.2159.0464-.2159.1387,0,.2617.0157,2.6792.0313,3.1562a1.5788,1.5788,0,0,0,.1689.8315,1.1379,1.1379,0,0,0,.9541.4156,1.5082,1.5082,0,0,0,.8477-.231c.1074-.0771.1533-.0615.1533,0,0,.0923-.1386.2466-.3388.4a2.11,2.11,0,0,1-1.2471.4A1.427,1.427,0,0,1,260.84,102.617Z"/><path class="cls-2" d="M266.292,97.6287c.1533,0,.2617.0464.2617.1079s-.1084.1079-.2.1231c-.3389.1079-.37.185-.2314.5849.2.5391,1.0468,2.6177,1.3554,3.2642.03.0615.0762.0464.0918,0,.2-.5234,1.0625-2.7407,1.1856-3.0947a1.1524,1.1524,0,0,0,.0771-.4463c0-.1079-.0771-.231-.3388-.3081-.2305-.0459-.2774-.0923-.2774-.1387,0-.0615.0772-.0923.2158-.0923.1846,0,.5079.0464.7393.0464.2773,0,.4775-.0464.708-.0464.0928,0,.1846.0156.1846.0615s-.0615.108-.2149.1543c-.3086.0923-.4619.2-.709.77-.1845.3852-1.1386,2.7558-1.37,3.3413-.1845.5078-.3232.8618-.6465,1.6933-.3691.8931-.9541,2.4947-1.17,3.0181a2.0905,2.0905,0,0,1-.2929.5693.5781.5781,0,0,1-.5079.2618.5118.5118,0,0,1-.5078-.5078.4538.4538,0,0,1,.4307-.4463c.1084,0,.2.03.3086.03a.3709.3709,0,0,0,.3994-.2617c.1543-.3232.6006-1.5859,1.124-2.9253a.6622.6622,0,0,0-.0146-.4927c-.0928-.2465-1.2168-3.0947-1.9092-4.6035a.8258.8258,0,0,0-.5547-.4155c-.1846-.0464-.2773-.1079-.2773-.1543,0-.0767.1386-.1074.247-.1074.2764,0,.708.0615,1.0772.0615C265.6914,97.6751,266.0918,97.6287,266.292,97.6287Z"/><line class="cls-1" x1="181.2879" y1="113.9897" x2="181.2879" y2="117.0659"/><line class="cls-1" x1="168.648" y1="122.1915" x2="168.648" y2="127.2698"/><line class="cls-1" x1="191.1125" y1="122.1915" x2="191.1125" y2="127.2698"/><rect class="cls-1" x="178.3294" y="120.7635" width="5.9732" height="6.6051" rx="1"/><line class="cls-1" x1="153.9159" y1="122.1915" x2="153.9159" y2="127.2698"/><polyline class="cls-1" points="159.082 120.052 170.565 120.052 181.225 107.985 162.259 107.985 160.535 110.024"/><line class="cls-1" x1="181.3239" y1="108.0014" x2="191.9848" y2="120.0687"/><line class="cls-1" x1="196.2832" y1="106.7606" x2="196.2832" y2="109.8367"/><line class="cls-1" x1="206.1078" y1="114.8269" x2="206.1078" y2="119.9052"/><rect class="cls-1" x="193.3247" y="113.3854" width="5.9732" height="6.6051" rx="1"/><polyline class="cls-1" points="185.56 112.823 196.221 100.756 177.255 100.756 170.793 107.938"/><line class="cls-1" x1="196.3192" y1="100.7723" x2="206.9801" y2="112.8396"/><line class="cls-1" x1="131.5878" y1="106.727" x2="131.5878" y2="109.8032"/><line class="cls-1" x1="144.2276" y1="114.9288" x2="144.2276" y2="120.0071"/><line class="cls-1" x1="121.7631" y1="114.9288" x2="121.7631" y2="120.0071"/><rect class="cls-1" x="128.573" y="113.3518" width="5.9732" height="6.6051" rx="1" transform="translate(263.1193 233.3086) rotate(-180)"/><polyline class="cls-1" points="155.421 112.789 142.311 112.789 131.65 100.722 150.616 100.722 155.384 106.337"/><line class="cls-1" x1="131.5517" y1="100.7387" x2="120.8909" y2="112.806"/><line class="cls-1" x1="116.5924" y1="99.4979" x2="116.5924" y2="102.574"/><rect class="cls-1" x="113.5777" y="106.1971" width="5.9732" height="6.6051" rx="1" transform="translate(233.1286 218.9993) rotate(-180)"/><polyline class="cls-1" points="127.316 105.56 116.655 93.493 135.621 93.493 142.082 100.676"/><line class="cls-1" x1="116.5564" y1="93.5096" x2="105.8955" y2="105.5769"/><polyline class="cls-1" points="175.915 97.495 163.076 97.495 158.337 102.426"/><polyline class="cls-1" points="191.653 96.016 197.038 90.266 178.072 90.266 171.611 97.449"/><line class="cls-1" x1="197.1363" y1="90.2828" x2="207.7972" y2="102.35"/><line class="cls-1" x1="60.3114" y1="127.3963" x2="197.1171" y2="127.3963"/><line class="cls-1" x1="197.9851" y1="119.9924" x2="225.4245" y2="119.9924"/><path class="cls-1" d="M99.8692,109.5944a4.4363,4.4363,0,0,1,8.8291,0,4.1843,4.1843,0,0,1,.0044,8.165c.0019.0511.0081.101.0081.1525a4.4314,4.4314,0,0,1-8.8541,0c0-.0515.0061-.1014.0081-.1525"/><line class="cls-1" x1="104.2319" y1="114.8774" x2="100.7657" y2="111.7486"/><line class="cls-1" x1="104.4755" y1="116.7114" x2="107.4482" y2="112.805"/><line class="cls-1" x1="104.3772" y1="112.4857" x2="104.3772" y2="127.3003"/><path class="cls-1" d="M99.7923,117.74a3.364,3.364,0,0,1-2.37,2.1832c.0016.04.0063.0783.0063.1181a3.4627,3.4627,0,0,1-6.9159,0c0-.04.0047-.0785.0063-.1181a3.2364,3.2364,0,0,1,.0034-6.3263A3.3821,3.3821,0,0,1,93.97,110.5a3.4758,3.4758,0,0,1,2.9437,1.588"/><line class="cls-1" x1="93.9338" y1="117.9779" x2="91.2221" y2="115.2662"/><line class="cls-1" x1="94.1199" y1="119.1114" x2="96.442" y2="116.0847"/><line class="cls-1" x1="94.0431" y1="115.8373" x2="94.0431" y2="127.3157"/><path class="cls-4" d="M179.43,148.24l-1.6964-1.67-1.8021-1.3514a.1255.1255,0,0,1-.05-.1v-.665a.1255.1255,0,0,1,.0835-.1182l1.6352-.5791a13.6383,13.6383,0,0,1,4.5659-.7847h1.35l.0012-6.5093a.1255.1255,0,0,1,.1254-.1254h2.2589a.1258.1258,0,0,1,.0857.0338l.9882.9253.4676.1617a.1266.1266,0,0,1,.0476.03l.6817.6817a.1254.1254,0,0,1-.0887.2141h-2.4025l-.0255,3.4922.7084,1.7053a.1262.1262,0,0,1,.01.0481v2.3675a.1257.1257,0,0,1-.0455.0967l-2.6067,2.1545a.1258.1258,0,0,1-.08.0288h-4.123A.1252.1252,0,0,1,179.43,148.24Zm4.0856-3.4839v-.79"/><line class="cls-4" x1="180.523" y1="148.2964" x2="180.523" y2="150.6424"/><polyline class="cls-4" points="183.074 150.707 181.519 149.643 181.519 148.935"/><polyline class="cls-4" points="183.482 144.78 181.94 146.402 178.515 146.402"/><line class="cls-4" x1="185.6957" y1="138.933" x2="187.2614" y2="138.933"/><path class="cls-4" d="M185.7723,136.3228v-1.6023a.1254.1254,0,0,0-.1254-.1254H185.06a.1257.1257,0,0,0-.0887.0368l-.449.449H184.18a.1258.1258,0,0,0-.0887.0367l-.38.38a.1252.1252,0,0,0-.0367.0886v.7363"/><path class="cls-4" d="M185.6829,141.028h.9127a.1254.1254,0,0,0,.1253-.1254v-.8249a.1231.1231,0,0,0-.0073-.0421l-.4025-1.0847"/><line class="cls-4" x1="191.2323" y1="150.7231" x2="153.7348" y2="150.7231"/><line class="cls-4" x1="188.3021" y1="150.6424" x2="188.3021" y2="149.4805"/><line class="cls-4" x1="187.4061" y1="150.1455" x2="187.4061" y2="150.6424"/><line class="cls-4" x1="186.524" y1="150.6424" x2="186.524" y2="148.9352"/><line class="cls-4" x1="178.5134" y1="150.7208" x2="178.5134" y2="150.1515"/><line class="cls-4" x1="177.6519" y1="150.6712" x2="177.6519" y2="149.5702"/><path class="cls-4" d="M165.1454,148.2349l-1.6568-1.6732-1.76-1.354a.1269.1269,0,0,1-.049-.1v-.6663a.1257.1257,0,0,1,.0816-.1185l1.5971-.58a13.019,13.019,0,0,1,4.4595-.7862h1.3182l.0011-6.522a.1242.1242,0,0,1,.1225-.1256h2.2062a.1211.1211,0,0,1,.0837.0338l.9652.9271.4567.162a.1223.1223,0,0,1,.0465.03l.6658.683a.1281.1281,0,0,1,.0265.137.1224.1224,0,0,1-.1131.0775h-2.3465l-.0249,3.4991.6918,1.7085a.1294.1294,0,0,1,.0094.0483v2.3721a.1266.1266,0,0,1-.0444.0968l-2.546,2.1588a.1209.1209,0,0,1-.078.0288h-4.027A.1206.1206,0,0,1,165.1454,148.2349Zm3.99-3.4906v-.7913"/><line class="cls-4" x1="166.2131" y1="148.2917" x2="166.2131" y2="150.6423"/><polyline class="cls-4" points="168.704 150.707 167.186 149.641 167.186 148.932"/><polyline class="cls-4" points="169.103 144.768 167.597 146.394 164.252 146.394"/><line class="cls-4" x1="171.2652" y1="138.91" x2="172.7944" y2="138.91"/><path class="cls-4" d="M171.34,136.2948v-1.6055a.1242.1242,0,0,0-.1225-.1256h-.573a.121.121,0,0,0-.0866.0368l-.4385.45h-.3343a.121.121,0,0,0-.0866.0368l-.3714.381a.1268.1268,0,0,0-.0359.0888v.7378"/><path class="cls-4" d="M171.2527,141.009h.8914a.1241.1241,0,0,0,.1225-.1256v-.8265a.1265.1265,0,0,0-.0072-.0422l-.3932-1.0868"/><line class="cls-4" x1="176.6727" y1="150.7231" x2="158.7398" y2="150.7231"/><line class="cls-4" x1="172.9358" y1="150.1444" x2="172.9358" y2="150.6423"/><line class="cls-4" x1="172.0743" y1="150.6423" x2="172.0743" y2="148.9317"/><line class="cls-4" x1="164.2503" y1="150.7208" x2="164.2503" y2="150.1503"/><line class="cls-4" x1="163.4089" y1="150.6711" x2="163.4089" y2="149.568"/><path class="cls-5" d="M70.4746,122.2443a5.15,5.15,0,1,1,5.15,5.15A5.1558,5.1558,0,0,1,70.4746,122.2443Z"/><path class="cls-5" d="M56.4323,123.4777a3.9169,3.9169,0,1,1,3.9169,3.9167A3.9213,3.9213,0,0,1,56.4323,123.4777Z"/><path class="cls-5" d="M75.6247,119.1322a3.1111,3.1111,0,1,0,2.6232,1.4369"/><path class="cls-5" d="M58.4654,123.4777a1.8838,1.8838,0,1,1,1.8838,1.8837A1.8861,1.8861,0,0,1,58.4654,123.4777Z"/><line class="cls-5" x1="64.1006" y1="124.6043" x2="71.0391" y2="124.6043"/><line class="cls-5" x1="64.221" y1="122.8914" x2="66.5699" y2="122.8628"/><path class="cls-5" d="M66.5568,122.8628a.1842.1842,0,0,0,.1841-.1841v-4.7479a.1841.1841,0,0,0-.1841-.1841H56.2434A1.1241,1.1241,0,0,0,55.12,118.87v3.6692a1.1244,1.1244,0,0,0,1.123,1.1231h.2044"/><path class="cls-5" d="M80.7932,122.898h.9691a1.1244,1.1244,0,0,0,1.123-1.1231v-6.126a1.1243,1.1243,0,0,0-1.123-1.123H80.5909"/><path class="cls-5" d="M78.0355,114.5259h-3.82a1.1293,1.1293,0,0,0-1.0493.7226"/><path class="cls-5" d="M61.144,117.5884v-1.936a.1727.1727,0,0,1,.1841-.1583h1.4065a.1727.1727,0,0,1,.1841.1583v1.936a.1727.1727,0,0,1-.1841.1583H61.3281A.1727.1727,0,0,1,61.144,117.5884Z"/><line class="cls-5" x1="62.2154" y1="115.4917" x2="62.2154" y2="113.4767"/><line class="cls-5" x1="58.8813" y1="115.6782" x2="58.8813" y2="117.7263"/><line class="cls-5" x1="67.6067" y1="116.8667" x2="66.7307" y2="117.7479"/><line class="cls-5" x1="66.6891" y1="115.9572" x2="68.7816" y2="118.0497"/><polyline class="cls-5" points="73.684 113.789 71.982 118.251 70.062 118.251"/><line class="cls-5" x1="65.6878" y1="120.4941" x2="65.6878" y2="119.0673"/><line class="cls-5" x1="64.852" y1="120.4941" x2="64.852" y2="119.0673"/><line class="cls-5" x1="64.0162" y1="120.4941" x2="64.0162" y2="119.0673"/><polyline class="cls-4" points="135.32 143.759 137.447 143.066 139.159 144.828"/><path class="cls-4" d="M139.1833,144.8326l13.5672-4.22-.2152,4.73a2.687,2.687,0,0,0-2.2759,2.8247l-8.1692,2.5947Z"/><path class="cls-4" d="M150.38,148.8413a2.7269,2.7269,0,1,0-.1206-.6737A2.7145,2.7145,0,0,0,150.38,148.8413Zm1.1319-.3595a1.5293,1.5293,0,0,1,.9674-1.9078l.0256-.01a1.5268,1.5268,0,1,1-.993,1.9173Z"/><path class="cls-4" d="M151.46,147.7865a1.5249,1.5249,0,0,1,1.02-1.2125l.0256-.01a1.5306,1.5306,0,1,1-1.0454,1.222Z"/><line class="cls-4" x1="152.6094" y1="142.1257" x2="139.8438" y2="146.076"/><path class="cls-1" d="M97.301,101.0378a1.9276,1.9276,0,0,0-1.69,1.8391l-.0392.7354-.5829-.4487a5.5538,5.5538,0,0,0-4.3607-.85"/><path class="cls-1" d="M152.5077,74.4119H137.085a1.9506,1.9506,0,0,1-1.53-1.9814,2.0244,2.0244,0,0,1,2.2019-1.9814h.9211c-.2233,0-.3516-1.04-.3516-1.6042a3.7416,3.7416,0,0,1,6.28-2.7614,3.8721,3.8721,0,0,1,5.1052-1.5545,5.1984,5.1984,0,0,1,9.389,3.1086,4.5511,4.5511,0,0,1-.8124,2.8115"/><path class="cls-1" d="M168.4444,72.9342a2.8728,2.8728,0,0,1-4.8221,2.12,2.9733,2.9733,0,0,1-3.92,1.1937,3.9914,3.9914,0,0,1-7.209-2.3869,3.4946,3.4946,0,0,1,.6237-2.1587"/><path class="cls-1" d="M172.2856,67.8122a5.2887,5.2887,0,0,1-5.2888,5.2887"/><path class="cls-1" d="M197.5809,60.56a2.0244,2.0244,0,0,1-2.2019,1.9814h-.9212c.2234,0,.3517,1.04.3517,1.6042a3.7416,3.7416,0,0,1-6.28,2.7614,3.8722,3.8722,0,0,1-5.1053,1.5545,5.1983,5.1983,0,0,1-9.3889-3.1086,4.5513,4.5513,0,0,1,.8124-2.8115"/><path class="cls-1" d="M164.6916,60.0563a2.8728,2.8728,0,0,1,4.8221-2.12,2.9731,2.9731,0,0,1,3.92-1.1936,3.9913,3.9913,0,0,1,7.209,2.3868,3.4951,3.4951,0,0,1-.6237,2.1588"/><path class="cls-1" d="M166.1391,70.4671a5.2888,5.2888,0,0,1,0-10.5775"/><line class="cls-1" x1="150.5838" y1="78.3938" x2="150.5838" y2="81.4199"/><line class="cls-1" x1="154.1531" y1="80.6354" x2="154.1531" y2="83.4373"/><line class="cls-1" x1="147.0146" y1="81.6912" x2="147.0146" y2="84.7173"/><line class="cls-1" x1="150.5839" y1="83.9328" x2="150.5839" y2="86.7348"/><line class="cls-1" x1="140.0312" y1="75.7556" x2="140.0312" y2="78.7818"/><line class="cls-1" x1="143.6005" y1="77.9972" x2="143.6005" y2="80.7992"/><line class="cls-1" x1="136.4619" y1="79.0531" x2="136.4619" y2="82.0792"/><line class="cls-1" x1="140.0312" y1="81.2946" x2="140.0312" y2="84.0966"/><line class="cls-1" x1="187.6732" y1="70.3241" x2="187.6732" y2="73.3503"/><line class="cls-1" x1="191.2425" y1="72.5657" x2="191.2425" y2="75.3677"/><line class="cls-1" x1="184.104" y1="73.6216" x2="184.104" y2="76.6477"/><line class="cls-1" x1="187.6733" y1="75.8631" x2="187.6733" y2="78.6651"/><line class="cls-1" x1="174.1721" y1="73.4279" x2="174.1721" y2="76.454"/><line class="cls-1" x1="177.7414" y1="75.6694" x2="177.7414" y2="78.4714"/><line class="cls-1" x1="170.6028" y1="76.7253" x2="170.6028" y2="79.7514"/><line class="cls-1" x1="174.1721" y1="78.9668" x2="174.1721" y2="81.7688"/></svg>