<svg width="120" height="37" xmlns="http://www.w3.org/2000/svg"><g fill-rule="nonzero" fill="none"><path d="M17.444.071a6.27 6.27 0 00-3.702 1.91 7.982 7.982 0 00-2.073 3.976c-.087.424-.1.643-.1 1.495 0 .844.018 1.073.1 1.476a8.66 8.66 0 00.6 1.862c.222.496.76 1.417.8 1.373.014-.009-.009-.204-.045-.427-.469-2.676-.245-4.761.654-6.179.746-1.184 2.134-2.135 3.593-2.471.531-.122 1.646-.122 2.178-.003 1.306.295 2.287.86 3.188 1.831a6.312 6.312 0 011.201 1.813c.41.92.554 1.71.513 2.816-.031 1.032-.273 1.944-.76 2.918-.218.43-.154.408.31-.077 1.192-1.258 1.815-3.285 1.647-5.376-.092-1.153-.296-1.992-.728-2.943a6.288 6.288 0 00-1.296-1.914c-1.56-1.612-3.87-2.403-6.08-2.08z" fill="#1F60AD"/><path d="M88.79 4.138c-.036.094-1.146 2.734-2.464 5.872-1.32 3.131-2.448 5.817-2.507 5.958l-.103.254.795-.01.796-.015.618-1.476.618-1.472 2.342.01 2.348.014.618 1.462.618 1.462.805.014c.446.005.8-.004.79-.025a1700.38 1700.38 0 01-2.577-6.055c-1.405-3.309-2.574-6.051-2.592-6.09-.028-.049-.056-.024-.105.097zm1.014 5.779c.456 1.061.814 1.939.806 1.95-.01.014-.798.014-1.753.008l-1.732-.014.818-1.95.87-2.071.044-.121.064.132c.037.074.433.998.883 2.066z" fill="#231F20" opacity=".88"/><path d="M17.818 4.329c-1.565.37-2.788 1.47-3.597 3.244-.455 1.003-.643 1.906-.643 3.119 0 1.203.152 2.027.693 3.8.118.4.327 1.145.455 1.656.126.507.286 1.103.345 1.31.404 1.385.641 3.812.523 5.293-.165 2.008-.533 2.894-1.733 4.19-1.196 1.282-2.42 1.953-4.23 2.32-.818.165-1.508.199-1.954.096-.937-.21-1.788-.974-2.239-2.002a9.93 9.93 0 01-.29-.847l-.15-.516v.417c-.008 1.224.41 2.305 1.187 3.094.564.571 1.163.872 1.964.99 1.897.282 3.902-.706 5.93-2.934l.6-.662v.18c0 .098-.04.376-.09.62l-.087.438-.422.433c-2.065 2.11-4.052 3.031-6.168 2.85-1.154-.097-2.068-.544-2.832-1.393-.7-.775-1.087-1.612-1.387-2.996-.046-.21-.1-.36-.119-.342-.067.074-.095 1.15-.04 1.663a5.83 5.83 0 00.522 1.88c.893 1.935 2.775 3.016 5.025 2.879 1.57-.092 2.942-.726 4.294-1.973.909-.844 3.455-3.825 4.057-4.747.713-1.1 1.454-1.845 2.296-2.298 1.336-.717 2.873-.813 4.737-.297 1.511.424 2.734 1.227 3.794 2.499 1.087 1.31 1.442 2.06 1.442 3.06 0 .984-.373 1.836-1.215 2.792l-.322.37.312-.185c.947-.551 1.578-1.374 1.902-2.465.09-.317.104-.463.104-1.098-.004-.667-.013-.764-.127-1.11-.422-1.295-1.215-2.29-2.46-3.083-1.041-.668-2.784-1.316-3.984-1.487-.236-.035-.45-.074-.468-.093-.051-.047.332-.215.832-.37l.419-.127.486.132c.646.18 1.505.497 2.165.798 1.81.833 3.033 2.043 3.783 3.738.522 1.188.587 2.432.177 3.596-.286.808-.654 1.384-1.428 2.212-.317.342-.472.54-.41.522.234-.078 1.079-.577 1.375-.814a5.469 5.469 0 001.877-2.957c.1-.4.118-.576.123-1.225.005-1.012-.136-1.665-.564-2.59-.96-2.087-2.592-3.362-5.184-4.06-.263-.069-.682-.199-.932-.292-.25-.092-1.1-.375-1.887-.629-1.542-.491-2.305-.775-3.138-1.153-1.836-.85-3.165-1.964-3.68-3.09-.94-2.076-1.114-4.233-.494-6.305.373-1.257.677-1.9 1.14-2.421.51-.58 1.061-.872 1.862-1 .517-.082 1.063-.015 1.946.23.18.047-.174-.2-.56-.4-.55-.278-.969-.37-1.646-.37-.705 0-1.115.097-1.65.4a3.352 3.352 0 00-1.161 1.021 5.677 5.677 0 00-1.01 2.457c-.09.56-.09 1.843 0 2.577.124 1.015.379 2.149.634 2.851l.113.312-.123-.035c-.16-.044-.595-.326-.724-.472-.067-.078-.154-.35-.28-.916-.647-2.816-.564-4.741.272-6.567.755-1.638 1.86-2.584 3.355-2.86.765-.147 1.529-.07 2.57.248.295.091.55.16.555.151.046-.044-.695-.562-1.142-.794-.778-.405-1.205-.513-2.137-.537-.631-.014-.842 0-1.16.074z" fill="#1F60AD"/><path d="M42.164 4.588c.205.516 4.867 11.825 4.911 11.917.051.102.301-.472 2.588-5.944 1.392-3.333 2.533-6.071 2.533-6.096 0-.02-.359-.028-.8-.023l-.796.014-1.715 4.127c-.94 2.27-1.723 4.131-1.737 4.131-.014 0-.791-1.856-1.733-4.131l-1.7-4.127-.81-.014-.804-.01.063.156z" fill="#231F20" opacity=".88"/><path d="M19.068 8.194c-.774.96-.674 2.703.204 3.643.45.483 1.246.828 1.91.828.363 0 .847-.121 1.177-.301.579-.303 1.124-1.048 1.302-1.774a3.159 3.159 0 00-.146-1.822c-.104-.258-.332-.654-.355-.624-.009.01.014.215.056.453.08.507.059 1.13-.051 1.52-.168.576-.724 1.125-1.342 1.331-1.596.53-3.21-1.059-2.8-2.753a4.27 4.27 0 01.159-.498c.044-.117.077-.21.067-.21-.008 0-.09.093-.18.207z" fill="#1F60AD"/><path d="M55.248 8.377c-1.465.332-2.634 1.579-2.948 3.142-.05.248-.064.532-.046 1.024.018.595.036.741.16 1.144.205.663.419 1.024.942 1.59.394.424.51.515.886.716.582.3.873.38 1.57.408.685.03 1.195-.052 1.753-.281a4.08 4.08 0 001.539-1.165l.186-.234-.556-.444-.554-.443-.255.264c-.813.86-1.992 1.087-2.978.568-.45-.237-.714-.477-.942-.852-.145-.243-.4-.946-.4-1.106 0-.025 1.156-.044 3.046-.044H59.7v-.135a7.95 7.95 0 00-.05-.571c-.187-1.652-1.132-2.927-2.547-3.44-.381-.14-.492-.155-1.04-.17-.338-.01-.706.005-.814.03zm1.11 1.462c.386.067.862.337 1.145.643.214.234.559.775.559.877 0 .02-.96.039-2.137.039-1.174 0-2.137-.02-2.137-.039 0-.025.072-.17.163-.331.517-.926 1.4-1.365 2.406-1.189zM65.065 8.407c-.495.142-.837.458-1.313 1.208l-.278.438v-1.48h-1.501v7.65h1.542l.013-2.402.015-2.397.144-.328c.283-.643.85-1.062 1.455-1.076.174-.005.401.005.515.03l.204.034.223-.804c.123-.443.209-.819.196-.833-.114-.123-.837-.146-1.215-.04zM70.137 8.379c-1.205.257-2.296 1.446-2.665 2.899-.141.555-.141 1.627 0 2.192.332 1.32 1.223 2.403 2.297 2.787.327.118.44.132.981.137.705 0 1.02-.083 1.56-.425.306-.19.815-.681 1.047-1.012l.122-.17v1.436h1.501V8.572h-1.501v1.537l-.096-.171c-.394-.702-1.163-1.302-1.94-1.515-.356-.099-.96-.118-1.306-.044zm1.673 1.534c.428.099.824.336 1.17.706.463.499.681 1.058.681 1.754 0 1.56-1.264 2.758-2.687 2.543-1.547-.232-2.48-2.099-1.805-3.614.204-.454.69-.97 1.14-1.199.515-.257.95-.317 1.501-.19zM97.817 8.426c-1.15.323-2.145 1.448-2.519 2.852-.087.331-.105.497-.1 1.12.005.648.018.78.124 1.16.322 1.135 1.014 2.042 1.931 2.538.819.444 1.902.425 2.743-.049.336-.19.85-.668 1.141-1.057l.173-.24V19.83h1.501V8.572h-1.501l-.005.742c0 .717-.003.74-.077.624-.804-1.267-2.155-1.862-3.411-1.512zm1.765 1.482c.4.093.65.22.991.493.32.259.637.7.783 1.095.126.337.168.999.095 1.423-.154.839-.782 1.619-1.528 1.892-1.401.516-2.946-.527-3.129-2.11-.09-.775.132-1.467.67-2.072.586-.662 1.3-.906 2.118-.721zM115.157 8.379c-1.205.257-2.296 1.446-2.664 2.899-.142.555-.142 1.627 0 2.192.332 1.32 1.223 2.403 2.296 2.787.327.118.44.132.982.137.705 0 1.019-.083 1.56-.425.305-.19.815-.681 1.047-1.012l.121-.17v1.436H120V8.572h-1.5v1.537l-.096-.171c-.395-.702-1.164-1.302-1.941-1.515-.356-.099-.96-.118-1.306-.044zm1.674 1.534c.427.099.823.336 1.169.706.463.499.682 1.058.682 1.754 0 1.56-1.264 2.758-2.688 2.543-1.547-.232-2.479-2.099-1.805-3.614.204-.454.69-.97 1.141-1.199.514-.257.95-.317 1.5-.19zM104.728 11.164c.02 2.9.015 2.833.35 3.572.324.701.942 1.266 1.66 1.515.288.104.492.137.938.151.677.03 1.122-.063 1.683-.36.472-.249 1.004-.823 1.236-1.33.327-.726.324-.663.342-3.548l.018-2.592h-1.506v2.154c0 1.189-.023 2.32-.046 2.52-.08.662-.381 1.154-.855 1.402-.221.118-.309.132-.667.132-.223 0-.496-.03-.602-.058a1.477 1.477 0 01-.75-.595c-.254-.444-.262-.58-.262-3.176v-2.38h-1.552l.013 2.593z" fill="#231F20" opacity=".88"/><path d="M97.676 17.704c-.277.097-.65.384-.841.648a1.862 1.862 0 00-.355 1.134c0 .654.273 1.186.787 1.556.695.496 1.637.364 2.22-.312.313-.37.431-.712.431-1.244 0-.53-.118-.871-.432-1.241-.342-.395-.71-.576-1.22-.595-.25-.01-.463.01-.59.054zM40.209 18.01c.018.05 1.21 3.464 2.654 7.59l2.629 7.505h2.715l2.634-7.48c1.446-4.112 2.641-7.527 2.654-7.59l.028-.108h-1.546c-1.196 0-1.55.015-1.569.058-.008.036-.8 2.276-1.76 4.985-.955 2.705-1.75 4.95-1.769 4.984-.018.035-.832-2.201-1.805-4.968l-1.778-5.034-1.555-.014c-1.468-.01-1.555-.005-1.532.072zM82.137 18.01c.018.05 1.21 3.464 2.655 7.59l2.628 7.505h2.716l2.633-7.48c1.445-4.112 2.642-7.527 2.655-7.59l.028-.108h-1.547c-1.195 0-1.55.015-1.568.058-.01.036-.8 2.276-1.76 4.985-.956 2.705-1.751 4.95-1.77 4.984-.018.035-.831-2.201-1.804-4.968l-1.779-5.034-1.555-.014c-1.47-.01-1.555-.005-1.532.072zM104.22 21.485v1.705H103.173V25.968H104.22v7.16h2.82v-7.16h1.318V23.19h-1.319v-3.412h-2.819v1.707z" fill="#231F20" opacity=".88"/><path d="M5.925 21.607c-1.44.273-2.837 1.062-3.929 2.215A7.094 7.094 0 00.65 25.797c-.528 1.136-.682 1.969-.645 3.41.032 1.282.204 2.07.69 3.177.856 1.939 2.197 3.24 3.98 3.864.837.292 1.296.365 2.32.365.976 0 1.354-.059 2.137-.326 1.846-.629 3.452-2.193 4.279-4.166.146-.35.136-.347-.278.034-1.36 1.243-2.719 2.057-3.978 2.369-.546.135-1.501.127-2.047-.025-1.65-.453-3.052-1.633-3.812-3.207a6.8 6.8 0 01-.667-2.985c0-1.297.345-2.524 1.017-3.608a5.792 5.792 0 014.827-2.736l.404-.006-.2-.093a5.129 5.129 0 00-.57-.194c-.48-.127-1.655-.165-2.182-.063zM28.73 21.67l-.159.034.273.093c.151.048.528.2.842.331 2.465 1.063 3.879 2.47 4.343 4.336a6.735 6.735 0 01-.374 4.317c-.368.839-1.122 1.813-1.854 2.389-.679.53-1.632.974-2.51 1.164-.564.116-1.678.116-2.198-.006-1.627-.38-2.963-1.403-3.887-2.976-.273-.474-.278-.463-.114.273.382 1.7 1.682 3.274 3.479 4.21 2.079 1.086 4.234 1.11 6.162.071 1.992-1.07 3.515-3.219 3.939-5.553.121-.688.113-1.9-.023-2.583-.32-1.598-.95-2.875-1.98-3.97-.795-.852-1.632-1.414-2.66-1.779-.754-.273-1.204-.347-2.21-.366-.5-.009-.981-.004-1.068.016z" fill="#1F60AD"/><path d="M6.93 22.823a2.595 2.595 0 00-1.447 1.136c-.196.312-.327.593-.286.593.008 0 .113-.091.237-.199 1.022-.954 1.946-1.11 2.827-.477.355.254.569.522.76.946.213.482.272.955.182 1.437-.2 1.027-.865 1.724-1.81 1.904-.414.079-.304.132.283.138.53.005.917-.127 1.377-.464.832-.61 1.251-1.553 1.136-2.554-.136-1.153-.75-2.036-1.673-2.397-.35-.13-1.246-.169-1.586-.063z" fill="#1F60AD"/><path d="M56.104 23.044c-1.656.3-3.071 1.54-3.63 3.177-.559 1.627-.322 3.804.559 5.13.718 1.071 1.783 1.735 3.107 1.924.513.079 1.586.04 2.036-.067.973-.229 1.697-.643 2.348-1.346.304-.33.813-1.062.813-1.17 0-.024-.568-.242-1.259-.49l-1.26-.45-.068.118c-.19.315-.628.735-.937.9-.582.308-1.179.333-1.701.069-.6-.307-1.092-1.112-1.097-1.793v-.155H61.61v-.469c0-.92-.209-1.939-.55-2.659-.222-.474-.477-.849-.878-1.296-.891-.995-1.978-1.478-3.301-1.467a7.652 7.652 0 00-.777.044zm1.472 2.071c.464.174.896.778 1.097 1.52l.067.257h-1.864c-1.024 0-1.86-.02-1.86-.039 0-.11.15-.623.233-.798.136-.289.481-.664.744-.81a2.021 2.021 0 011.583-.13zM73.71 23.05c-1.478.311-2.814 1.773-3.251 3.555a6.743 6.743 0 00.074 3.456c.381 1.294 1.19 2.378 2.173 2.903.437.233.76.316 1.341.347 1.01.043 1.62-.191 2.302-.897a7.32 7.32 0 00.591-.697l.2-.298.014.857.008.853h2.775V23.191h-2.775V24.52l-.304-.317c-.618-.632-1.201-1.004-1.778-1.134-.333-.08-1.05-.088-1.37-.02zm1.774 2.965c.373.08.628.235.965.59.368.395.559.8.618 1.291.186 1.647-.945 2.968-2.31 2.7-.96-.184-1.505-.97-1.505-2.162 0-.577.077-.946.286-1.36.404-.82 1.142-1.219 1.946-1.059zM113.637 23.05c-1.477.311-2.814 1.773-3.251 3.555a6.744 6.744 0 00.072 3.456c.383 1.294 1.192 2.378 2.175 2.903.436.233.76.316 1.341.347 1.01.043 1.62-.191 2.3-.897.215-.224.483-.537.592-.697l.2-.298.014.857.01.853H119.861V23.191H117.09V24.52l-.305-.317c-.618-.632-1.2-1.004-1.777-1.134-.332-.08-1.05-.088-1.37-.02zm1.774 2.965c.373.08.628.235.963.59.369.395.56.8.62 1.291.186 1.647-.947 2.968-2.311 2.7-.958-.184-1.504-.97-1.504-2.162 0-.577.077-.946.286-1.36.404-.82 1.14-1.219 1.946-1.059zM67.886 23.155a2.783 2.783 0 00-.456.264c-.264.196-.728.711-.905 1.013l-.14.24V23.19H63.61v9.939h2.82v-2.475c0-2.709.014-2.87.264-3.406.35-.735.991-1.067 1.846-.955l.345.045-.008-1.633-.015-1.637-.363-.01c-.296-.009-.414.01-.613.097zM96.807 28.16v4.969h2.819V23.19h-2.819v4.97z" fill="#231F20" opacity=".88"/><path d="M25.876 27.594c-.696.185-1.4.809-1.728 1.545-.386.858-.373 1.63.041 2.48.327.681.927 1.194 1.614 1.384.168.047.459.077.727.077l.45-.005-.345-.136c-.782-.313-1.37-.76-1.583-1.213a2.47 2.47 0 01-.018-2.052c.155-.355.677-.915 1.02-1.095.39-.206.903-.298 1.276-.234.579.091 1.133.466 1.501 1.007.132.19.132.19.1.05-.126-.59-.664-1.247-1.255-1.554-.586-.303-1.25-.395-1.8-.254z" fill="#1F60AD"/><path d="M35.552 34.816a.896.896 0 00-.437.42c-.086.179-.08.593.014.802.168.38.69.56 1.069.361.66-.342.569-1.398-.136-1.613-.224-.063-.32-.058-.51.03zm.646.127c.646.39.4 1.451-.342 1.451a.67.67 0 01-.6-.312.75.75 0 01-.095-.73c.167-.47.633-.654 1.037-.41z" fill="#535E5E"/><path d="M35.462 35.687c0 .578.005.618.136.618.116 0 .136-.04.136-.252 0-.177.027-.249.096-.249.055 0 .179.11.275.25.124.166.233.25.322.25.136 0 .136 0-.015-.21a3.374 3.374 0 00-.205-.258c-.028-.022.014-.094.081-.149.159-.128.173-.402.022-.5-.054-.04-.274-.08-.48-.095l-.368-.024v.62zm.643-.352c.151.117.027.302-.2.302-.149 0-.171-.022-.171-.195 0-.157.027-.195.131-.195.074 0 .186.038.24.088z" fill="#535E5E"/></g></svg>